<svg width="314" height="71" viewBox="0 0 314 71" fill="none" xmlns="http://www.w3.org/2000/svg">
<rect width="314" height="71" fill="#FFD664"/>
<path d="M28.0608 58.016C26.9754 58.016 26.0221 57.928 25.2008 57.752C24.3794 57.576 23.6608 57.1507 23.0448 56.476C22.4581 55.8013 22.1648 54.76 22.1648 53.352C22.1648 51.3867 22.7514 48.7467 23.9248 45.432C25.1274 42.1173 26.6968 38.788 28.6328 35.444C27.1661 35.532 26.0074 35.752 25.1568 36.104C24.3061 36.456 23.7488 36.9987 23.4848 37.732C23.6021 37.732 23.7194 37.8787 23.8368 38.172C23.9834 38.4653 24.0568 38.7733 24.0568 39.096C24.0568 39.624 23.8221 40.0493 23.3528 40.372C22.8834 40.6653 22.2968 40.812 21.5928 40.812C20.7714 40.812 20.1114 40.592 19.6128 40.152C19.1141 39.712 18.8648 39.0813 18.8648 38.26C18.8648 37.2627 19.2461 36.3533 20.0088 35.532C20.8008 34.7107 21.8861 34.0653 23.2648 33.596C24.6434 33.0973 26.1688 32.848 27.8408 32.848C28.4568 32.848 29.2194 32.892 30.1288 32.98C32.5341 29.1667 35.0714 26.0573 37.7408 23.652C40.4394 21.2173 43.0061 20 45.4408 20C46.8488 20 48.0074 20.2053 48.9168 20.616L42.0088 53H35.6728L39.0608 37.028C37.9754 36.5293 36.9781 36.1627 36.0688 35.928C35.1594 35.6933 34.1914 35.532 33.1648 35.444C31.4928 39.052 30.1141 42.748 29.0288 46.532C27.9728 50.2867 27.4448 53.2933 27.4448 55.552C27.4448 56.6667 27.6501 57.488 28.0608 58.016ZM42.0088 23.124C40.7474 23.7987 39.4274 25.06 38.0488 26.908C36.6994 28.7267 35.3794 30.9413 34.0888 33.552C36.2008 33.9627 37.9901 34.476 39.4568 35.092L42.0088 23.124ZM54.1514 53.264C51.9807 53.264 50.294 52.7067 49.0914 51.592C47.8887 50.448 47.2874 48.6733 47.2874 46.268C47.2874 44.244 47.6834 42.0147 48.4754 39.58C49.2967 37.1453 50.5874 35.048 52.3474 33.288C54.1367 31.4987 56.3954 30.604 59.1234 30.604C60.8834 30.604 62.13 30.9853 62.8634 31.748C63.626 32.5107 64.0074 33.4787 64.0074 34.652C64.0074 35.6787 63.7874 36.4707 63.3474 37.028C62.9074 37.5853 62.35 37.864 61.6754 37.864C61.1767 37.864 60.6634 37.688 60.1354 37.336C60.4874 36.368 60.6634 35.5027 60.6634 34.74C60.6634 34.1827 60.5607 33.7427 60.3554 33.42C60.15 33.0973 59.842 32.936 59.4314 32.936C58.5514 32.936 57.6714 33.6547 56.7914 35.092C55.9114 36.5293 55.1927 38.2747 54.6354 40.328C54.078 42.3813 53.7994 44.2293 53.7994 45.872C53.7994 47.3093 54.0487 48.292 54.5474 48.82C55.046 49.3187 55.8527 49.568 56.9674 49.568C58.5514 49.568 59.9007 49.2013 61.0154 48.468C62.1594 47.7347 63.406 46.62 64.7554 45.124H66.2514C62.9954 50.5507 58.962 53.264 54.1514 53.264ZM71.0381 53.264C68.8674 53.264 67.1808 52.7067 65.9781 51.592C64.7754 50.448 64.1741 48.6733 64.1741 46.268C64.1741 44.244 64.5701 42.0147 65.3621 39.58C66.1834 37.1453 67.4741 35.048 69.2341 33.288C71.0234 31.4987 73.2821 30.604 76.0101 30.604C77.7701 30.604 79.0168 30.9853 79.7501 31.748C80.5128 32.5107 80.8941 33.4787 80.8941 34.652C80.8941 35.6787 80.6741 36.4707 80.2341 37.028C79.7941 37.5853 79.2368 37.864 78.5621 37.864C78.0634 37.864 77.5501 37.688 77.0221 37.336C77.3741 36.368 77.5501 35.5027 77.5501 34.74C77.5501 34.1827 77.4474 33.7427 77.2421 33.42C77.0368 33.0973 76.7288 32.936 76.3181 32.936C75.4381 32.936 74.5581 33.6547 73.6781 35.092C72.7981 36.5293 72.0794 38.2747 71.5221 40.328C70.9648 42.3813 70.6861 44.2293 70.6861 45.872C70.6861 47.3093 70.9354 48.292 71.4341 48.82C71.9328 49.3187 72.7394 49.568 73.8541 49.568C75.4381 49.568 76.7874 49.2013 77.9021 48.468C79.0461 47.7347 80.2928 46.62 81.6421 45.124H83.1381C79.8821 50.5507 75.8488 53.264 71.0381 53.264ZM88.0568 53.176C85.8861 53.176 84.1701 52.6187 82.9088 51.504C81.6475 50.3893 81.0168 48.6293 81.0168 46.224C81.0168 44.2293 81.4275 42.0147 82.2488 39.58C83.0701 37.1453 84.3901 35.048 86.2088 33.288C88.0275 31.4987 90.3155 30.604 93.0728 30.604C96.8275 30.604 98.7048 32.9507 98.7048 37.644V37.688C98.7928 37.7173 98.9541 37.732 99.1888 37.732C100.157 37.732 101.271 37.4827 102.533 36.984C103.794 36.456 104.938 35.8253 105.965 35.092L106.361 36.28C105.51 37.1893 104.395 37.9667 103.017 38.612C101.667 39.228 100.186 39.668 98.5728 39.932C98.3381 42.6013 97.7368 44.9333 96.7688 46.928C95.8008 48.9227 94.5541 50.4627 93.0288 51.548C91.5035 52.6333 89.8461 53.176 88.0568 53.176ZM89.8168 49.216C90.5208 49.216 91.2248 48.82 91.9288 48.028C92.6328 47.2067 93.2488 46.1067 93.7768 44.728C94.3048 43.32 94.6861 41.7653 94.9208 40.064C94.1288 39.888 93.7328 39.272 93.7328 38.216C93.7328 37.0133 94.1875 36.2213 95.0968 35.84C95.0381 34.872 94.8915 34.212 94.6568 33.86C94.4221 33.4787 94.0115 33.288 93.4248 33.288C92.4568 33.288 91.5181 33.992 90.6088 35.4C89.6995 36.808 88.9661 38.4947 88.4088 40.46C87.8515 42.4253 87.5728 44.156 87.5728 45.652C87.5728 47.06 87.7341 48.0133 88.0568 48.512C88.3795 48.9813 88.9661 49.216 89.8168 49.216ZM127.721 53.264C125.931 53.264 124.611 52.7947 123.761 51.856C122.939 50.888 122.529 49.7 122.529 48.292C122.529 47.676 122.602 46.9867 122.749 46.224C122.895 45.432 123.042 44.6693 123.189 43.936C123.365 43.2027 123.482 42.7333 123.541 42.528C123.775 41.5013 123.995 40.4893 124.201 39.492C124.406 38.4947 124.509 37.688 124.509 37.072C124.509 35.576 123.981 34.828 122.925 34.828C122.162 34.828 121.487 35.2093 120.901 35.972C120.314 36.7053 119.845 37.6733 119.493 38.876L116.501 53H110.165L113.377 37.82C113.465 37.468 113.509 37.1013 113.509 36.72C113.509 35.4293 113.069 34.784 112.189 34.784C111.367 34.784 110.649 35.1653 110.033 35.928C109.446 36.6613 108.977 37.644 108.625 38.876L105.633 53H99.2967L103.961 31H110.297L109.813 33.288C111.309 31.616 113.098 30.78 115.181 30.78C117.762 30.78 119.273 32.0413 119.713 34.564C121.326 32.0707 123.365 30.824 125.829 30.824C127.325 30.824 128.513 31.2347 129.393 32.056C130.273 32.8773 130.713 34.124 130.713 35.796C130.713 36.6467 130.61 37.6 130.405 38.656C130.199 39.6827 129.906 40.944 129.525 42.44C129.29 43.3493 129.07 44.244 128.865 45.124C128.689 45.9747 128.601 46.6493 128.601 47.148C128.601 47.7347 128.733 48.1893 128.997 48.512C129.261 48.8347 129.715 48.996 130.361 48.996C131.241 48.996 131.945 48.688 132.473 48.072C133.001 47.4267 133.529 46.444 134.057 45.124H135.905C134.819 48.3507 133.558 50.5213 132.121 51.636C130.713 52.7213 129.246 53.264 127.721 53.264ZM160.807 53.264C159.017 53.264 157.697 52.7947 156.847 51.856C156.025 50.888 155.615 49.7 155.615 48.292C155.615 47.676 155.688 46.9867 155.835 46.224C155.981 45.432 156.128 44.6693 156.275 43.936C156.451 43.2027 156.568 42.7333 156.627 42.528C156.861 41.5013 157.081 40.4893 157.287 39.492C157.492 38.4947 157.595 37.688 157.595 37.072C157.595 35.576 157.067 34.828 156.011 34.828C155.248 34.828 154.573 35.2093 153.987 35.972C153.4 36.7053 152.931 37.6733 152.579 38.876L149.587 53H143.251L146.463 37.82C146.551 37.468 146.595 37.1013 146.595 36.72C146.595 35.4293 146.155 34.784 145.275 34.784C144.453 34.784 143.735 35.1653 143.119 35.928C142.532 36.6613 142.063 37.644 141.711 38.876L138.719 53H132.383L137.047 31H143.383L142.899 33.288C144.395 31.616 146.184 30.78 148.267 30.78C150.848 30.78 152.359 32.0413 152.799 34.564C154.412 32.0707 156.451 30.824 158.915 30.824C160.411 30.824 161.599 31.2347 162.479 32.056C163.359 32.8773 163.799 34.124 163.799 35.796C163.799 36.6467 163.696 37.6 163.491 38.656C163.285 39.6827 162.992 40.944 162.611 42.44C162.376 43.3493 162.156 44.244 161.951 45.124C161.775 45.9747 161.687 46.6493 161.687 47.148C161.687 47.7347 161.819 48.1893 162.083 48.512C162.347 48.8347 162.801 48.996 163.447 48.996C164.327 48.996 165.031 48.688 165.559 48.072C166.087 47.4267 166.615 46.444 167.143 45.124H168.991C167.905 48.3507 166.644 50.5213 165.207 51.636C163.799 52.7213 162.332 53.264 160.807 53.264ZM173.565 53.176C171.394 53.176 169.678 52.6187 168.417 51.504C167.155 50.3893 166.525 48.6293 166.525 46.224C166.525 44.2293 166.935 42.0147 167.757 39.58C168.578 37.1453 169.898 35.048 171.717 33.288C173.535 31.4987 175.823 30.604 178.581 30.604C182.335 30.604 184.213 32.9507 184.213 37.644V37.688C184.301 37.7173 184.462 37.732 184.697 37.732C185.665 37.732 186.779 37.4827 188.041 36.984C189.302 36.456 190.446 35.8253 191.473 35.092L191.869 36.28C191.018 37.1893 189.903 37.9667 188.525 38.612C187.175 39.228 185.694 39.668 184.081 39.932C183.846 42.6013 183.245 44.9333 182.277 46.928C181.309 48.9227 180.062 50.4627 178.537 51.548C177.011 52.6333 175.354 53.176 173.565 53.176ZM175.325 49.216C176.029 49.216 176.733 48.82 177.437 48.028C178.141 47.2067 178.757 46.1067 179.285 44.728C179.813 43.32 180.194 41.7653 180.429 40.064C179.637 39.888 179.241 39.272 179.241 38.216C179.241 37.0133 179.695 36.2213 180.605 35.84C180.546 34.872 180.399 34.212 180.165 33.86C179.93 33.4787 179.519 33.288 178.933 33.288C177.965 33.288 177.026 33.992 176.117 35.4C175.207 36.808 174.474 38.4947 173.917 40.46C173.359 42.4253 173.081 44.156 173.081 45.652C173.081 47.06 173.242 48.0133 173.565 48.512C173.887 48.9813 174.474 49.216 175.325 49.216ZM191.757 53.264C190.085 53.264 188.691 52.692 187.577 51.548C186.462 50.404 185.905 48.6147 185.905 46.18C185.905 44.0093 186.33 41.736 187.181 39.36C188.061 36.9547 189.351 34.9307 191.053 33.288C192.783 31.616 194.837 30.78 197.213 30.78C198.415 30.78 199.31 30.9853 199.897 31.396C200.483 31.8067 200.777 32.3493 200.777 33.024V33.2L202.933 23.08L209.445 22.2L204.385 45.96C204.267 46.4 204.209 46.8693 204.209 47.368C204.209 47.9547 204.341 48.38 204.605 48.644C204.898 48.8787 205.367 48.996 206.013 48.996C206.834 48.996 207.538 48.644 208.125 47.94C208.741 47.236 209.225 46.2973 209.577 45.124H211.425C209.635 50.3747 206.687 53 202.581 53C201.378 53 200.395 52.6773 199.633 52.032C198.899 51.3867 198.445 50.448 198.269 49.216C197.506 50.3893 196.582 51.3573 195.497 52.12C194.441 52.8827 193.194 53.264 191.757 53.264ZM194.617 48.996C195.321 48.996 196.025 48.6733 196.729 48.028C197.462 47.3827 197.961 46.488 198.225 45.344V45.124L200.381 35.048C200.117 34.0213 199.515 33.508 198.577 33.508C197.403 33.508 196.347 34.1973 195.409 35.576C194.47 36.9253 193.737 38.568 193.209 40.504C192.681 42.4107 192.417 44.0973 192.417 45.564C192.417 47.0307 192.622 47.9693 193.033 48.38C193.473 48.7907 194.001 48.996 194.617 48.996ZM214.874 53.264C213.202 53.264 211.808 52.692 210.694 51.548C209.579 50.404 209.022 48.6147 209.022 46.18C209.022 44.0093 209.447 41.736 210.298 39.36C211.178 36.9547 212.468 34.9307 214.17 33.288C215.9 31.616 217.954 30.78 220.33 30.78C221.532 30.78 222.427 30.9853 223.014 31.396C223.6 31.8067 223.894 32.3493 223.894 33.024V33.332L224.378 31H230.714L227.546 45.96C227.428 46.4 227.37 46.8693 227.37 47.368C227.37 48.6293 227.971 49.26 229.174 49.26C229.995 49.26 230.699 48.8787 231.286 48.116C231.902 47.3533 232.386 46.356 232.738 45.124H234.586C233.5 48.292 232.151 50.448 230.538 51.592C228.954 52.7067 227.355 53.264 225.742 53.264C224.51 53.264 223.512 52.9267 222.75 52.252C222.016 51.548 221.576 50.536 221.43 49.216C220.579 50.4187 219.626 51.4013 218.57 52.164C217.543 52.8973 216.311 53.264 214.874 53.264ZM217.734 48.996C218.467 48.996 219.186 48.6587 219.89 47.984C220.623 47.28 221.122 46.3267 221.386 45.124L223.498 35.18C223.498 34.7987 223.351 34.432 223.058 34.08C222.764 33.6987 222.31 33.508 221.694 33.508C220.52 33.508 219.464 34.1973 218.526 35.576C217.587 36.9253 216.854 38.568 216.326 40.504C215.798 42.4107 215.534 44.0973 215.534 45.564C215.534 47.0307 215.739 47.9693 216.15 48.38C216.59 48.7907 217.118 48.996 217.734 48.996ZM237.11 53.264C235.702 53.264 234.558 52.824 233.678 51.944C232.827 51.064 232.402 49.744 232.402 47.984C232.402 47.2507 232.519 46.2973 232.754 45.124L235.394 32.76H233.942L234.294 31H235.746L237.066 24.928L243.578 24.048L242.082 31H244.722L244.37 32.76H241.73L238.914 45.96C238.797 46.4 238.738 46.8693 238.738 47.368C238.738 47.9547 238.87 48.38 239.134 48.644C239.427 48.8787 239.897 48.996 240.542 48.996C241.393 48.996 242.185 48.644 242.918 47.94C243.651 47.2067 244.179 46.268 244.502 45.124H246.35C245.265 48.292 243.871 50.448 242.17 51.592C240.469 52.7067 238.782 53.264 237.11 53.264ZM251.832 28.624C250.864 28.624 250.043 28.2867 249.368 27.612C248.694 26.9373 248.356 26.116 248.356 25.148C248.356 24.18 248.694 23.3587 249.368 22.684C250.043 21.98 250.864 21.628 251.832 21.628C252.8 21.628 253.622 21.98 254.296 22.684C255 23.3587 255.352 24.18 255.352 25.148C255.352 26.116 255 26.9373 254.296 27.612C253.622 28.2867 252.8 28.624 251.832 28.624ZM248.84 53.264C247.432 53.264 246.288 52.824 245.408 51.944C244.558 51.064 244.132 49.744 244.132 47.984C244.132 47.2507 244.25 46.2973 244.484 45.124L247.476 31H253.812L250.644 45.96C250.527 46.4 250.468 46.8693 250.468 47.368C250.468 47.9547 250.6 48.38 250.864 48.644C251.158 48.8787 251.627 48.996 252.272 48.996C253.123 48.996 253.915 48.644 254.648 47.94C255.382 47.2067 255.91 46.268 256.232 45.124H258.08C256.995 48.292 255.602 50.448 253.9 51.592C252.199 52.7067 250.512 53.264 248.84 53.264ZM262.639 53.176C260.468 53.176 258.752 52.6187 257.491 51.504C256.23 50.3893 255.599 48.6293 255.599 46.224C255.599 44.2293 256.01 42.0147 256.831 39.58C257.652 37.1453 258.972 35.048 260.791 33.288C262.61 31.4987 264.898 30.604 267.655 30.604C271.41 30.604 273.287 32.9507 273.287 37.644V37.688C273.375 37.7173 273.536 37.732 273.771 37.732C274.739 37.732 275.854 37.4827 277.115 36.984C278.376 36.456 279.52 35.8253 280.547 35.092L280.943 36.28C280.092 37.1893 278.978 37.9667 277.599 38.612C276.25 39.228 274.768 39.668 273.155 39.932C272.92 42.6013 272.319 44.9333 271.351 46.928C270.383 48.9227 269.136 50.4627 267.611 51.548C266.086 52.6333 264.428 53.176 262.639 53.176ZM264.399 49.216C265.103 49.216 265.807 48.82 266.511 48.028C267.215 47.2067 267.831 46.1067 268.359 44.728C268.887 43.32 269.268 41.7653 269.503 40.064C268.711 39.888 268.315 39.272 268.315 38.216C268.315 37.0133 268.77 36.2213 269.679 35.84C269.62 34.872 269.474 34.212 269.239 33.86C269.004 33.4787 268.594 33.288 268.007 33.288C267.039 33.288 266.1 33.992 265.191 35.4C264.282 36.808 263.548 38.4947 262.991 40.46C262.434 42.4253 262.155 44.156 262.155 45.652C262.155 47.06 262.316 48.0133 262.639 48.512C262.962 48.9813 263.548 49.216 264.399 49.216ZM290.687 53.264C289.132 53.264 288.003 52.7947 287.299 51.856C286.595 50.9173 286.243 49.7293 286.243 48.292C286.243 47.676 286.316 46.9867 286.463 46.224C286.609 45.432 286.756 44.6693 286.903 43.936C287.079 43.2027 287.196 42.7333 287.255 42.528C287.489 41.5013 287.709 40.4893 287.915 39.492C288.12 38.4947 288.223 37.688 288.223 37.072C288.223 35.576 287.695 34.828 286.639 34.828C285.876 34.828 285.201 35.2093 284.615 35.972C284.028 36.7053 283.559 37.6733 283.207 38.876L280.215 53H273.879L278.543 31H284.879L284.395 33.288C285.861 31.6453 287.577 30.824 289.543 30.824C291.039 30.824 292.227 31.2347 293.107 32.056C293.987 32.8773 294.427 34.124 294.427 35.796C294.427 36.6467 294.324 37.6 294.119 38.656C293.913 39.6827 293.62 40.944 293.239 42.44C293.004 43.3493 292.784 44.244 292.579 45.124C292.403 45.9747 292.315 46.6493 292.315 47.148C292.315 47.7347 292.447 48.1893 292.711 48.512C292.975 48.8347 293.429 48.996 294.075 48.996C294.779 48.996 295.263 48.908 295.527 48.732C295.351 50.228 294.808 51.3573 293.899 52.12C293.019 52.8827 291.948 53.264 290.687 53.264Z" fill="black"/>
</svg>
