<svg width="314" height="71" viewBox="0 0 314 71" fill="none" xmlns="http://www.w3.org/2000/svg">
<rect width="314" height="71" fill="#FFD664"/>
<path d="M87.28 53.748C86.1066 53.748 85.08 53.4987 84.2 53C83.3493 52.5307 82.924 51.6947 82.924 50.492C82.924 49.7293 83.1146 48.8787 83.496 47.94C84.024 48.5267 84.508 48.9373 84.948 49.172C85.4173 49.4067 85.916 49.524 86.444 49.524C87.9106 49.524 88.996 48.7027 89.7 47.06C90.4333 45.4173 90.8 43.5987 90.8 41.604C90.8 37.8787 89.4066 36.016 86.62 36.016C85.828 36.016 85.1533 36.06 84.596 36.148L80.988 53H74.652L80.636 25.016L87.148 24.136L85.08 33.904H85.344C86.4586 33.904 87.5 33.552 88.468 32.848C89.436 32.1147 90.2133 31.2053 90.8 30.12C91.3866 29.0053 91.68 27.8907 91.68 26.776C91.68 25.4267 91.196 24.2973 90.228 23.388C89.2893 22.4787 87.8373 22.024 85.872 22.024C84.0826 22.024 82.3373 22.4347 80.636 23.256C78.9346 24.048 77.5413 25.2507 76.456 26.864C75.4 28.4773 74.872 30.428 74.872 32.716C74.872 33.8013 74.9746 34.564 75.18 35.004C75.3853 35.4147 75.488 35.6493 75.488 35.708C73.9333 35.708 72.76 35.4 71.968 34.784C71.176 34.1387 70.78 33.0973 70.78 31.66C70.78 29.6653 71.528 27.7733 73.024 25.984C74.52 24.1947 76.5 22.7573 78.964 21.672C81.428 20.5573 84.024 20 86.752 20C88.8053 20 90.536 20.3227 91.944 20.968C93.352 21.6133 94.3933 22.464 95.068 23.52C95.772 24.576 96.124 25.7347 96.124 26.996C96.124 28.3453 95.7426 29.6507 94.98 30.912C94.2173 32.1733 93.132 33.2 91.724 33.992C93.484 34.3147 94.7893 35.136 95.64 36.456C96.4906 37.7467 96.916 39.2867 96.916 41.076C96.916 42.748 96.5933 44.5667 95.948 46.532C95.332 48.4973 94.2906 50.1987 92.824 51.636C91.3866 53.044 89.5386 53.748 87.28 53.748ZM102.795 53.264C101.387 53.264 100.243 52.824 99.3635 51.944C98.5128 51.064 98.0875 49.744 98.0875 47.984C98.0875 47.2507 98.2048 46.2973 98.4395 45.124L101.431 31H107.767L104.599 45.96C104.511 46.4 104.467 46.8107 104.467 47.192C104.467 48.3947 104.907 48.996 105.787 48.996C106.609 48.996 107.313 48.6587 107.899 47.984C108.486 47.28 108.955 46.3267 109.307 45.124L112.299 31H118.635L115.467 45.96C115.35 46.4 115.291 46.8693 115.291 47.368C115.291 47.9547 115.423 48.38 115.687 48.644C115.981 48.8787 116.45 48.996 117.095 48.996C117.917 48.996 118.621 48.644 119.207 47.94C119.823 47.236 120.307 46.2973 120.659 45.124H122.507C121.422 48.292 120.073 50.448 118.459 51.592C116.875 52.7067 115.277 53.264 113.663 53.264C112.402 53.264 111.39 52.912 110.627 52.208C109.894 51.504 109.454 50.4627 109.307 49.084C108.31 50.6973 107.254 51.7973 106.139 52.384C105.054 52.9707 103.939 53.264 102.795 53.264ZM125.67 53.264C124.262 53.264 123.074 53 122.106 52.472C121.138 51.9147 120.42 51.2107 119.95 50.36C119.481 49.48 119.246 48.5707 119.246 47.632C119.246 46.664 119.481 45.828 119.95 45.124C120.39 44.3907 120.933 43.8627 121.578 43.54C122.722 41.4867 123.72 39.4187 124.57 37.336C125.421 35.224 126.228 32.9507 126.99 30.516L133.502 29.636C133.649 33.3907 133.898 37.4533 134.25 41.824C134.397 43.584 134.47 44.86 134.47 45.652C134.47 47.4413 134.016 48.908 133.106 50.052C132.197 51.196 131.068 52.0173 129.718 52.516C128.398 53.0147 127.049 53.264 125.67 53.264ZM124.262 49.788C125.348 49.788 126.257 49.4653 126.99 48.82C127.724 48.1747 128.09 47.1333 128.09 45.696C128.09 44.816 128.002 43.584 127.826 42C127.533 38.656 127.342 36.412 127.254 35.268C126.55 37.5853 125.362 40.3573 123.69 43.584C124.365 43.936 124.702 44.4493 124.702 45.124C124.702 45.6813 124.512 46.18 124.13 46.62C123.778 47.06 123.324 47.28 122.766 47.28C122.15 47.28 121.754 47.0893 121.578 46.708C121.578 47.764 121.784 48.5413 122.194 49.04C122.634 49.5387 123.324 49.788 124.262 49.788ZM147.107 31H153.443L152.871 33.728C153.869 32.848 154.763 32.1733 155.555 31.704C156.377 31.2347 157.257 31 158.195 31C159.134 31 159.867 31.3227 160.395 31.968C160.953 32.6133 161.231 33.3907 161.231 34.3C161.231 35.1507 160.953 35.8987 160.395 36.544C159.838 37.1893 159.061 37.512 158.063 37.512C157.418 37.512 156.978 37.3653 156.743 37.072C156.538 36.7493 156.377 36.2947 156.259 35.708C156.171 35.3267 156.083 35.048 155.995 34.872C155.907 34.696 155.746 34.608 155.511 34.608C154.895 34.608 154.367 34.74 153.927 35.004C153.517 35.2387 152.974 35.664 152.299 36.28L148.779 53H142.443L147.107 31ZM167.082 53.176C164.912 53.176 163.196 52.6187 161.934 51.504C160.673 50.3893 160.042 48.6293 160.042 46.224C160.042 44.2293 160.453 42.0147 161.274 39.58C162.096 37.1453 163.416 35.048 165.234 33.288C167.053 31.4987 169.341 30.604 172.098 30.604C175.853 30.604 177.73 32.9507 177.73 37.644V37.688C177.818 37.7173 177.98 37.732 178.214 37.732C179.182 37.732 180.297 37.4827 181.558 36.984C182.82 36.456 183.964 35.8253 184.99 35.092L185.386 36.28C184.536 37.1893 183.421 37.9667 182.042 38.612C180.693 39.228 179.212 39.668 177.598 39.932C177.364 42.6013 176.762 44.9333 175.794 46.928C174.826 48.9227 173.58 50.4627 172.054 51.548C170.529 52.6333 168.872 53.176 167.082 53.176ZM168.842 49.216C169.546 49.216 170.25 48.82 170.954 48.028C171.658 47.2067 172.274 46.1067 172.802 44.728C173.33 43.32 173.712 41.7653 173.946 40.064C173.154 39.888 172.758 39.272 172.758 38.216C172.758 37.0133 173.213 36.2213 174.122 35.84C174.064 34.872 173.917 34.212 173.682 33.86C173.448 33.4787 173.037 33.288 172.45 33.288C171.482 33.288 170.544 33.992 169.634 35.4C168.725 36.808 167.992 38.4947 167.434 40.46C166.877 42.4253 166.598 44.156 166.598 45.652C166.598 47.06 166.76 48.0133 167.082 48.512C167.405 48.9813 167.992 49.216 168.842 49.216ZM184.35 53.264C182.942 53.264 181.798 52.824 180.918 51.944C180.067 51.064 179.642 49.744 179.642 47.984C179.642 47.2507 179.759 46.2973 179.994 45.124L182.986 31H189.322L186.154 45.96C186.066 46.4 186.022 46.8107 186.022 47.192C186.022 48.3947 186.462 48.996 187.342 48.996C188.163 48.996 188.867 48.6587 189.454 47.984C190.041 47.28 190.51 46.3267 190.862 45.124L193.854 31H200.19L197.022 45.96C196.905 46.4 196.846 46.8693 196.846 47.368C196.846 47.9547 196.978 48.38 197.242 48.644C197.535 48.8787 198.005 48.996 198.65 48.996C199.471 48.996 200.175 48.644 200.762 47.94C201.378 47.236 201.862 46.2973 202.214 45.124H204.062C202.977 48.292 201.627 50.448 200.014 51.592C198.43 52.7067 196.831 53.264 195.218 53.264C193.957 53.264 192.945 52.912 192.182 52.208C191.449 51.504 191.009 50.4627 190.862 49.084C189.865 50.6973 188.809 51.7973 187.694 52.384C186.609 52.9707 185.494 53.264 184.35 53.264ZM206.565 53.264C205.157 53.264 204.013 52.824 203.133 51.944C202.282 51.064 201.857 49.744 201.857 47.984C201.857 47.2507 201.974 46.2973 202.209 45.124L204.849 32.76H203.397L203.749 31H205.201L206.521 24.928L213.033 24.048L211.537 31H214.177L213.825 32.76H211.185L208.369 45.96C208.252 46.4 208.193 46.8693 208.193 47.368C208.193 47.9547 208.325 48.38 208.589 48.644C208.882 48.8787 209.352 48.996 209.997 48.996C210.848 48.996 211.64 48.644 212.373 47.94C213.106 47.2067 213.634 46.268 213.957 45.124H215.805C214.72 48.292 213.326 50.448 211.625 51.592C209.924 52.7067 208.237 53.264 206.565 53.264ZM220.231 53.264C218.061 53.264 216.374 52.7067 215.171 51.592C213.969 50.448 213.367 48.6733 213.367 46.268C213.367 44.244 213.763 42.0147 214.555 39.58C215.347 37.1453 216.638 35.048 218.427 33.288C220.217 31.4987 222.49 30.604 225.247 30.604C228.474 30.604 230.087 32.012 230.087 34.828C230.087 36.4707 229.618 37.9813 228.679 39.36C227.741 40.7387 226.494 41.8533 224.939 42.704C223.385 43.5253 221.727 43.9947 219.967 44.112C219.909 44.992 219.879 45.5787 219.879 45.872C219.879 47.3093 220.129 48.292 220.627 48.82C221.126 49.3187 221.933 49.568 223.047 49.568C224.631 49.568 225.981 49.2013 227.095 48.468C228.239 47.7347 229.486 46.62 230.835 45.124H232.331C229.075 50.5507 225.042 53.264 220.231 53.264ZM220.319 42C221.405 41.9413 222.431 41.56 223.399 40.856C224.397 40.152 225.189 39.2573 225.775 38.172C226.391 37.0867 226.699 35.9427 226.699 34.74C226.699 33.5373 226.333 32.936 225.599 32.936C224.543 32.936 223.502 33.86 222.475 35.708C221.478 37.556 220.759 39.6533 220.319 42ZM235.842 53.264C234.434 53.264 233.246 53 232.278 52.472C231.31 51.9147 230.592 51.2107 230.122 50.36C229.653 49.48 229.418 48.5707 229.418 47.632C229.418 46.664 229.653 45.828 230.122 45.124C230.562 44.3907 231.105 43.8627 231.75 43.54C232.894 41.4867 233.892 39.4187 234.742 37.336C235.593 35.224 236.4 32.9507 237.162 30.516L243.674 29.636C243.821 33.3907 244.07 37.4533 244.422 41.824C244.569 43.584 244.642 44.86 244.642 45.652C244.642 47.4413 244.188 48.908 243.278 50.052C242.369 51.196 241.24 52.0173 239.89 52.516C238.57 53.0147 237.221 53.264 235.842 53.264ZM234.434 49.788C235.52 49.788 236.429 49.4653 237.162 48.82C237.896 48.1747 238.262 47.1333 238.262 45.696C238.262 44.816 238.174 43.584 237.998 42C237.705 38.656 237.514 36.412 237.426 35.268C236.722 37.5853 235.534 40.3573 233.862 43.584C234.537 43.936 234.874 44.4493 234.874 45.124C234.874 45.6813 234.684 46.18 234.302 46.62C233.95 47.06 233.496 47.28 232.938 47.28C232.322 47.28 231.926 47.0893 231.75 46.708C231.75 47.764 231.956 48.5413 232.366 49.04C232.806 49.5387 233.496 49.788 234.434 49.788Z" fill="black"/>
</svg>
