<svg width="403" height="91" viewBox="0 0 403 91" fill="none" xmlns="http://www.w3.org/2000/svg">
<rect x="54" y="2" width="349" height="79" fill="#D44438"/>
<g filter="url(#filter0_d)">
<path d="M125.854 41.3512H126L125.854 41.3093V41.3512Z" fill="#885028"/>
<path d="M105.467 81.0698C105.496 81.2183 105.49 81.3714 105.451 81.5175C105.413 81.6637 105.341 81.7992 105.243 81.9138C105.144 82.0285 105.021 82.1195 104.882 82.1799C104.743 82.2403 104.593 82.2687 104.442 82.2628H5.39291C5.24178 82.2687 5.09128 82.2403 4.95263 82.1799C4.81398 82.1195 4.69077 82.0285 4.59217 81.9138C4.49358 81.7992 4.42215 81.6637 4.38322 81.5175C4.34429 81.3714 4.33886 81.2183 4.36733 81.0698L5.81151 71.5465C5.87094 71.2173 6.04229 70.9187 6.29656 70.7013C6.55083 70.4839 6.87241 70.3611 7.20686 70.3535H102.635C102.969 70.3611 103.291 70.4839 103.545 70.7013C103.799 70.9187 103.971 71.2173 104.03 71.5465L105.467 81.0698Z" fill="#F3C664"/>
<path d="M104.442 82.6117H5.39288C5.18982 82.6212 4.98724 82.5848 4.80017 82.5053C4.61311 82.4257 4.44636 82.3051 4.31231 82.1523C4.17826 81.9994 4.08036 81.8184 4.02586 81.6225C3.97137 81.4267 3.96168 81.2211 3.99753 81.021L5.44172 71.4978C5.51535 71.0889 5.72761 70.7179 6.04275 70.4473C6.35789 70.1766 6.75667 70.0228 7.17195 70.0117H102.635C103.05 70.0228 103.449 70.1766 103.764 70.4473C104.079 70.7179 104.291 71.0889 104.365 71.4978L105.809 81.021C105.846 81.2216 105.837 81.428 105.784 81.6247C105.73 81.8215 105.632 82.0034 105.498 82.1571C105.363 82.3107 105.196 82.432 105.009 82.512C104.821 82.5919 104.618 82.6284 104.414 82.6187L104.442 82.6117ZM7.19986 70.7024C6.95123 70.7121 6.71319 70.8056 6.52445 70.9678C6.33571 71.1299 6.20738 71.3511 6.16032 71.5954L4.70916 81.1257C4.68961 81.2256 4.69334 81.3287 4.72007 81.4269C4.74679 81.5252 4.7958 81.6159 4.86327 81.6922C4.93075 81.7684 5.01488 81.8281 5.10915 81.8666C5.20341 81.9051 5.30528 81.9213 5.40683 81.9141H104.477C104.579 81.9228 104.681 81.9075 104.776 81.8695C104.871 81.8315 104.956 81.7719 105.024 81.6952C105.091 81.6186 105.14 81.5272 105.167 81.4283C105.193 81.3294 105.195 81.2258 105.174 81.1257L103.73 71.6024C103.683 71.3581 103.555 71.1369 103.366 70.9747C103.177 70.8126 102.939 70.7191 102.691 70.7094L7.19986 70.7024Z" fill="black"/>
<path d="M78.7186 24.2582C78.7349 24.1071 78.7842 23.9614 78.8629 23.8313C78.9417 23.7013 79.048 23.5901 79.1744 23.5056C79.3008 23.4211 79.4442 23.3654 79.5945 23.3423C79.7447 23.3193 79.8982 23.3295 80.0441 23.3722L80.3232 23.4489L108.139 30.8373L108.488 30.928C108.634 30.9591 108.77 31.024 108.886 31.1176C109.002 31.2112 109.095 31.3307 109.156 31.4666C109.217 31.6025 109.245 31.7509 109.238 31.8997C109.231 32.0486 109.19 32.1937 109.116 32.3234L106.005 38.5675C105.843 38.8632 105.589 39.0982 105.282 39.2367C104.975 39.3752 104.631 39.4097 104.302 39.335L100.116 38.2257L83.7209 33.8862L78.8372 32.6024C78.5178 32.5118 78.2412 32.3103 78.0571 32.0341C77.873 31.7579 77.7933 31.4251 77.8325 31.0955L78.7186 24.2582Z" fill="#F3C664"/>
<path d="M104.595 39.7256C104.454 39.7251 104.313 39.7064 104.177 39.6698L78.7256 32.9372C78.3222 32.8255 77.9716 32.574 77.7364 32.2277C77.5013 31.8814 77.3969 31.4627 77.4419 31.0465L78.3558 24.2093C78.3782 24.0068 78.4446 23.8115 78.5505 23.6374C78.6564 23.4633 78.7992 23.3144 78.9687 23.2014C79.1383 23.0883 79.3306 23.0138 79.5321 22.983C79.7335 22.9523 79.9393 22.966 80.1349 23.0233L80.414 23.1L108.544 30.5861C108.739 30.6307 108.921 30.7199 109.076 30.8467C109.231 30.9734 109.355 31.1343 109.437 31.3167C109.52 31.4991 109.559 31.6981 109.552 31.8982C109.544 32.0982 109.491 32.2938 109.395 32.4698L106.284 38.714C106.12 39.0194 105.876 39.2747 105.579 39.4528C105.282 39.6309 104.942 39.7252 104.595 39.7256ZM79.0674 24.307L78.1395 31.1442C78.1143 31.389 78.175 31.6349 78.3112 31.8398C78.4474 32.0447 78.6506 32.1959 78.886 32.2675L104.337 39C104.589 39.0564 104.852 39.0298 105.087 38.9242C105.322 38.8185 105.517 38.6395 105.642 38.414L108.754 32.1698C108.804 32.0867 108.833 31.9927 108.839 31.8959C108.845 31.7991 108.827 31.7022 108.787 31.6138C108.747 31.5253 108.687 31.4478 108.61 31.3878C108.534 31.3279 108.444 31.2874 108.349 31.2698L79.9535 23.721C79.8556 23.6911 79.7524 23.6831 79.6511 23.6976C79.5499 23.712 79.453 23.7486 79.3674 23.8047C79.2832 23.8624 79.2127 23.938 79.1608 24.026C79.109 24.114 79.0771 24.2123 79.0674 24.314V24.307Z" fill="black"/>
<path d="M54.914 0.348877C46.5419 0.348877 29.6791 2.2326 16.5 8.76284C19.0116 8.92294 21.4395 9.72729 23.5499 11.0984C25.6603 12.4694 27.3819 14.361 28.5488 16.5907C30.0977 14.7838 35.2116 12.307 54.921 12.307C74.6303 12.307 79.7442 14.7838 81.2931 16.5907C82.4594 14.362 84.1799 12.471 86.289 11.1C88.3981 9.729 90.8246 8.92411 93.3349 8.76284C80.1559 2.2326 63.2721 0.348877 54.914 0.348877Z" fill="#D44438"/>
<path d="M81.3558 17.2047L81.0209 16.814C78.6488 14.0233 69.8581 12.6279 54.9139 12.6279C39.9697 12.6279 31.1929 14.0233 28.8069 16.814L28.472 17.2047L28.2348 16.7442C27.0972 14.5648 25.4185 12.7144 23.3599 11.3705C21.3013 10.0266 18.9319 9.23435 16.479 9.06977L15.1743 8.98605L16.3464 8.40698C29.8046 1.77907 46.9255 0 54.9139 0C62.9023 0 80.0302 1.77907 93.4813 8.44884L94.6534 9.02791L93.3488 9.11163C90.9061 9.27782 88.5466 10.0665 86.495 11.4025C84.4433 12.7385 82.7678 14.5774 81.6278 16.7442L81.3558 17.2047ZM17.7557 8.53954C20.0111 8.88158 22.1595 9.73119 24.0387 11.0243C25.918 12.3175 27.4792 14.0204 28.6046 16.0047C31.5208 13.3186 40.3604 11.9581 54.8929 11.9581C69.4255 11.9581 78.2651 13.3535 81.1813 16.0047C82.3131 14.0128 83.884 12.3052 85.7748 11.0116C87.6656 9.71805 89.8264 8.87261 92.093 8.53954C78.9069 2.36512 62.6302 0.697675 54.9139 0.697675C47.1976 0.697675 30.9208 2.36512 17.7557 8.53954Z" fill="black"/>
<path d="M96.0558 9.27903C94.1417 9.12143 92.2152 9.34263 90.3867 9.92996C88.5581 10.5173 86.8632 11.4593 85.3988 12.702C83.9345 13.9447 82.7294 15.4639 81.8525 17.1726C80.9756 18.8814 80.4441 20.7462 80.2883 22.6604L82.179 23.1697L82.3255 23.2116L108.035 30.1883C109.06 28.0497 109.55 25.6943 109.464 23.3243C109.378 20.9543 108.718 18.6407 107.54 16.5822C106.363 14.5236 104.703 12.7817 102.704 11.506C100.705 10.2302 98.4258 9.45885 96.0628 9.2581L96.0558 9.27903Z" fill="#D44438"/>
<path d="M108.216 30.635L79.9185 22.9606V22.6745C80.1998 19.0862 81.7656 15.7196 84.3287 13.1925C86.8917 10.6653 90.28 9.14713 93.872 8.91639C94.5943 8.86478 95.3194 8.86478 96.0417 8.91639C98.4654 9.11472 100.804 9.90043 102.856 11.2056C104.908 12.5108 106.611 14.2961 107.818 16.4072C109.025 18.5183 109.7 20.8916 109.784 23.322C109.868 25.7524 109.358 28.1666 108.3 30.3559L108.216 30.635ZM80.658 22.4373L107.867 29.8118C108.825 27.7243 109.266 25.4364 109.151 23.1425C109.036 20.8485 108.369 18.6162 107.207 16.635C106.044 14.6539 104.421 12.9824 102.475 11.7625C100.529 10.5427 98.3174 9.81044 96.0278 9.62802C93.2297 9.4008 90.4267 10.0029 87.9687 11.359C85.5107 12.7152 83.5067 14.7654 82.2068 17.2536C81.3626 18.8661 80.8367 20.626 80.658 22.4373Z" fill="black"/>
<path d="M31.109 24.2582C31.0927 24.1071 31.0434 23.9614 30.9647 23.8313C30.8859 23.7013 30.7796 23.5901 30.6532 23.5056C30.5268 23.4211 30.3834 23.3654 30.2331 23.3423C30.0829 23.3193 29.9294 23.3295 29.7835 23.3722L29.5044 23.4489L1.72996 30.8373L1.38112 30.928C1.2354 30.9591 1.09904 31.024 0.983083 31.1176C0.86713 31.2112 0.774844 31.3307 0.713699 31.4666C0.652554 31.6025 0.624269 31.7509 0.631135 31.8997C0.638 32.0486 0.679823 32.1937 0.753216 32.3234L3.86485 38.5675C4.02716 38.866 4.28309 39.1028 4.59322 39.2415C4.90336 39.3801 5.25048 39.413 5.58113 39.335L9.76717 38.2257L26.1625 33.8862L31.0463 32.6024C31.3656 32.5118 31.6422 32.3103 31.8263 32.0341C32.0104 31.7579 32.0901 31.4251 32.0509 31.0955L31.109 24.2582Z" fill="#F3C664"/>
<path d="M5.21855 39.7257C4.87492 39.7245 4.53811 39.6297 4.24432 39.4515C3.95053 39.2732 3.71087 39.0183 3.5511 38.714L0.439473 32.4768C0.347307 32.3001 0.295724 32.1051 0.288483 31.906C0.281241 31.7068 0.318523 31.5086 0.397612 31.3257C0.486431 31.1512 0.612422 30.9983 0.766712 30.8777C0.921002 30.7572 1.09984 30.672 1.29064 30.628L1.63947 30.5373L29.7 23.0233C29.8937 22.9696 30.0967 22.9585 30.2952 22.9905C30.4936 23.0226 30.6828 23.0972 30.8498 23.2091C31.0168 23.3211 31.1575 23.4678 31.2625 23.6393C31.3675 23.8107 31.4342 24.0028 31.4581 24.2024L32.3721 31.0466C32.4181 31.46 32.3167 31.8764 32.0856 32.2223C31.8546 32.5683 31.5088 32.8215 31.1093 32.9373L5.65808 39.6699C5.51464 39.7076 5.36687 39.7264 5.21855 39.7257ZM30.0767 23.6792C30.0072 23.67 29.9369 23.67 29.8674 23.6792L1.46505 31.2699C1.36965 31.2875 1.27995 31.328 1.20363 31.3879C1.12732 31.4478 1.06667 31.5253 1.02689 31.6138C0.987101 31.7023 0.969367 31.7991 0.975205 31.896C0.981043 31.9928 1.01028 32.0868 1.0604 32.1699L4.18599 38.3722C4.31176 38.5969 4.50652 38.7753 4.74146 38.8808C4.97641 38.9863 5.23908 39.0135 5.49064 38.9582L30.9418 32.2257C31.1785 32.1554 31.3833 32.0048 31.5209 31.7998C31.6584 31.5947 31.7201 31.3481 31.6953 31.1024L30.7814 24.2652C30.7717 24.1635 30.7398 24.0652 30.688 23.9772C30.6361 23.8892 30.5656 23.8137 30.4813 23.7559C30.3593 23.6916 30.2209 23.6648 30.0837 23.6792H30.0767Z" fill="black"/>
<path d="M13.779 9.27928C16.646 9.04765 19.5179 9.66509 22.0364 11.0546C24.555 12.4442 26.6088 14.5443 27.9418 17.0932C28.846 18.8271 29.3917 20.7253 29.5464 22.6746L27.6557 23.1839L27.5092 23.2258L1.79988 30.2025C0.775003 28.0639 0.284588 25.7085 0.370761 23.3385C0.456934 20.9686 1.11712 18.6549 2.29461 16.5964C3.4721 14.5378 5.1317 12.7959 7.13086 11.5202C9.13001 10.2444 11.409 9.47306 13.772 9.2723L13.779 9.27928Z" fill="#D44438"/>
<path d="M1.6185 30.635L1.49292 30.3769C0.434357 28.1875 -0.074992 25.7733 0.00891645 23.3429C0.0928249 20.9126 0.767465 18.5392 1.9745 16.4281C3.18154 14.317 4.88464 12.5317 6.93653 11.2265C8.98843 9.92135 11.3274 9.13564 13.7511 8.93731C14.4734 8.88613 15.1985 8.88613 15.9208 8.93731C18.4877 9.10526 20.9687 9.9284 23.1269 11.3281C25.2852 12.7279 27.0485 14.6574 28.2488 16.9327C29.1759 18.7049 29.7359 20.6459 29.8953 22.6396V22.9257L29.6162 23.0303L1.6185 30.635ZM13.8069 9.62801C11.5197 9.81459 9.31123 10.5498 7.36864 11.7714C5.42605 12.993 3.8066 14.665 2.64757 16.6455C1.48854 18.6261 0.824086 20.8569 0.71053 23.1488C0.596974 25.4408 1.03766 27.7263 1.99525 29.8117L29.2046 22.4373C29.028 20.6265 28.5045 18.8666 27.6627 17.2536C26.3605 14.7596 24.351 12.7055 21.8861 11.3489C19.4212 9.99235 16.6106 9.3937 13.8069 9.62801Z" fill="black"/>
<path d="M54.9137 18.3628C42.4393 18.0768 39.9975 15.0628 39.5649 13.6326C37.3712 13.8618 35.1992 14.2654 33.0695 14.8395C33.0068 21.5023 39.5161 19.9744 41.1695 20.4977C41.6055 20.6093 42.0132 20.8111 42.3665 21.0898C42.7198 21.3686 43.0107 21.7183 43.2207 22.1163H66.6277C66.8377 21.7183 67.1286 21.3686 67.4819 21.0898C67.8352 20.8111 68.2429 20.6093 68.6789 20.4977C70.3324 19.9744 76.8486 21.5023 76.7789 14.8395C74.6492 14.2655 72.4772 13.8619 70.2835 13.6326C69.83 15.0698 67.3882 18.0768 54.9137 18.3628Z" fill="white"/>
<path d="M66.8581 22.4721H42.9767L42.886 22.2628C42.6953 21.9095 42.433 21.5998 42.1159 21.3536C41.7987 21.1073 41.4337 20.9299 41.0442 20.8326C40.5576 20.7332 40.0617 20.6864 39.5651 20.6931C37.1442 20.6094 32.6442 20.4419 32.7 14.8326V14.5745L32.9511 14.5047C35.0986 13.9168 37.2891 13.4992 39.5023 13.2559H39.7674L39.8581 13.528C40.2558 14.7838 42.5232 17.714 54.9 18.014C67.2767 17.728 69.5512 14.7838 69.9419 13.528L70.0326 13.2559H70.3186C72.5308 13.4879 74.7213 13.8938 76.8698 14.4698L77.1209 14.5396V14.7977C77.1767 20.3791 72.6698 20.5675 70.2488 20.6582C69.7522 20.6516 69.2564 20.6984 68.7698 20.7977C68.3831 20.8906 68.0198 21.0625 67.7028 21.3027C67.3858 21.5428 67.122 21.846 66.9279 22.1931L66.8581 22.4721ZM43.4163 21.7745H66.4395C66.9314 20.9881 67.7009 20.4154 68.5953 20.1698C69.1425 20.0477 69.7023 19.9915 70.2628 20.0024C72.7046 19.9187 76.3744 19.7861 76.4581 15.1187C74.5145 14.6153 72.5374 14.2516 70.5419 14.0303C69.7884 15.7884 66.6907 18.4605 54.9488 18.7326C43.207 18.4605 40.1093 15.7884 39.3558 14.0303C37.3603 14.2516 35.3831 14.6153 33.4395 15.1187C33.5232 19.7931 37.193 19.9256 39.6349 20.0024C40.193 19.992 40.7505 20.0482 41.2953 20.1698C42.1766 20.4237 42.9323 20.9955 43.4163 21.7745Z" fill="black"/>
<path d="M101.351 65.7558C96.0767 62.0651 86.8883 53.8954 84.0139 50.1558C75.3976 38.9512 75.6418 35.2116 73.9116 33.4953C72.7674 32.3512 71.5743 32.7977 69.0278 29.2744C66.3557 25.5767 66.5581 22.7302 66.5581 22.7302H43.2557C43.2557 22.7302 43.458 25.5767 40.7859 29.2744C38.2255 32.8186 37.0325 32.3512 35.9022 33.4953C34.1859 35.2116 34.4371 38.9442 25.8138 50.1488C22.9464 53.8884 13.758 62.093 8.4836 65.7558C6.05569 67.4512 7.08825 69.5233 7.08825 69.5233H102.726C102.726 69.5233 103.779 67.4512 101.351 65.7558Z" fill="#D44438"/>
<path d="M102.942 69.8723H6.89292L6.79525 69.6839C6.79525 69.6839 5.63711 67.3188 8.28129 65.4979C13.772 61.6537 22.8069 53.5258 25.5418 49.9677C31.2208 42.5583 33.0278 38.449 34.1092 36.0002C34.4594 34.9969 34.989 34.0655 35.672 33.2514C36.0565 32.8898 36.4971 32.5929 36.9767 32.3723C37.8278 31.9258 38.8883 31.3676 40.5557 29.0653C43.1092 25.5351 42.9627 22.7862 42.9557 22.7514V22.3816H66.9557V22.7514C66.9557 22.7514 66.8023 25.5421 69.3557 29.0653C71.0232 31.3676 72.0767 31.9258 72.9348 32.3723C73.4089 32.5921 73.8447 32.8865 74.2255 33.2444C74.9094 34.0605 75.439 34.9943 75.7883 36.0002C76.8697 38.456 78.6767 42.5583 84.3558 49.9537C87.0906 53.5118 96.1255 61.6398 101.616 65.4839C104.26 67.3328 103.116 69.67 103.102 69.67L102.942 69.8723ZM7.36036 69.1746H102.488C102.656 68.6723 102.9 67.27 101.149 66.0421C96.0837 62.4909 86.7278 54.2514 83.7069 50.3653C77.979 42.9142 76.1511 38.763 75.0557 36.2793C74.7411 35.3584 74.269 34.4991 73.6604 33.7397C73.3314 33.43 72.9544 33.1755 72.5441 32.9862C71.6302 32.5049 70.486 31.9049 68.7278 29.4979C66.5441 26.4769 66.2302 24.0072 66.1953 23.0932H43.6395C43.6395 24.0072 43.2906 26.47 41.1069 29.4979C39.3488 31.9328 38.2046 32.5328 37.2906 32.9862C36.8803 33.1755 36.5033 33.43 36.1743 33.7397C35.5657 34.4991 35.0936 35.3584 34.779 36.2793C33.6836 38.763 31.8557 42.9142 26.1278 50.3653C23.1348 54.2514 13.779 62.4909 8.68594 66.0421C6.9278 67.263 7.17897 68.6653 7.33943 69.1746H7.36036Z" fill="black"/>
<path d="M54.914 58.7233C60.6976 58.7233 65.3861 54.1159 65.3861 48.4325C65.3861 42.7492 60.6976 38.1418 54.914 38.1418C49.1304 38.1418 44.4419 42.7492 44.4419 48.4325C44.4419 54.1159 49.1304 58.7233 54.914 58.7233Z" fill="#311234"/>
<path d="M54.9139 30.8722C51.5204 30.9313 48.22 31.9916 45.427 33.9199C42.634 35.8483 40.4729 38.5588 39.215 41.7111C37.9571 44.8634 37.6585 48.317 38.3567 51.6385C39.0548 54.9599 40.7186 58.0011 43.1391 60.3802C45.5597 62.7593 48.6291 64.3704 51.9621 65.0111C55.2951 65.6518 58.7431 65.2936 61.8733 63.9815C65.0034 62.6693 67.6761 60.4618 69.556 57.6359C71.4358 54.81 72.439 51.4918 72.4395 48.0978C72.3989 43.4897 70.5299 39.0864 67.2434 35.8562C63.9569 32.6259 59.5219 30.8332 54.9139 30.8722ZM54.879 36.9769C55.6665 36.9906 56.4325 37.2367 57.0807 37.6842C57.7288 38.1318 58.2303 38.7608 58.5222 39.4924C58.8142 40.224 58.8834 41.0255 58.7214 41.7963C58.5594 42.5672 58.1732 43.2729 57.6115 43.8251C57.0497 44.3772 56.3373 44.7511 55.5638 44.8997C54.7903 45.0484 53.9901 44.9653 53.2637 44.6608C52.5373 44.3563 51.917 43.8439 51.4807 43.1881C51.0445 42.5323 50.8117 41.7622 50.8116 40.9745C50.8161 40.445 50.9249 39.9215 51.1318 39.434C51.3387 38.9465 51.6396 38.5045 52.0173 38.1333C52.395 37.762 52.8421 37.4688 53.3331 37.2704C53.8241 37.072 54.3494 36.9723 54.879 36.9769ZM43.2976 46.7443C43.2837 45.937 43.5105 45.1439 43.9489 44.4659C44.3873 43.7879 45.0176 43.2557 45.7595 42.9371C46.5014 42.6185 47.3214 42.528 48.1149 42.6769C48.9085 42.8259 49.6397 43.2077 50.2156 43.7737C50.7914 44.3396 51.1858 45.0642 51.3485 45.855C51.5111 46.6459 51.4348 47.4672 51.1291 48.2145C50.8234 48.9618 50.3022 49.6013 49.6319 50.0514C48.9616 50.5015 48.1724 50.7419 47.365 50.742C46.8355 50.7466 46.3102 50.6468 45.8192 50.4484C45.3281 50.25 44.881 49.9568 44.5033 49.5856C44.1256 49.2144 43.8247 48.7724 43.6179 48.2849C43.411 47.7974 43.3022 47.2739 43.2976 46.7443ZM49.9743 59.2118C49.1868 59.198 48.4209 58.9519 47.7727 58.5044C47.1245 58.0568 46.623 57.4278 46.3311 56.6962C46.0392 55.9646 45.9699 55.1631 46.1319 54.3923C46.294 53.6215 46.6801 52.9157 47.2419 52.3636C47.8036 51.8114 48.516 51.4376 49.2895 51.2889C50.063 51.1402 50.8632 51.2233 51.5896 51.5279C52.3161 51.8324 52.9363 52.3447 53.3726 53.0005C53.8089 53.6563 54.0417 54.4264 54.0418 55.2141C54.039 55.7448 53.9316 56.2698 53.7255 56.7589C53.5194 57.2481 53.2188 57.6917 52.841 58.0644C52.4631 58.4371 52.0153 58.7315 51.5234 58.9308C51.0315 59.1301 50.5051 59.2303 49.9743 59.2257V59.2118ZM54.8581 50.749C54.4363 50.7407 54.0264 50.6081 53.6797 50.3678C53.3331 50.1275 53.0651 49.7902 52.9093 49.3982C52.7536 49.0061 52.7171 48.5769 52.8044 48.1642C52.8918 47.7515 53.099 47.3738 53.4001 47.0784C53.7013 46.783 54.0829 46.5832 54.4972 46.5038C54.9115 46.4245 55.34 46.4693 55.729 46.6326C56.1179 46.7959 56.45 47.0703 56.6835 47.4216C56.9171 47.7729 57.0417 48.1853 57.0418 48.6071C57.0399 49.1795 56.8113 49.7278 56.4059 50.1319C56.0005 50.536 55.4514 50.7629 54.879 50.7629L54.8581 50.749ZM59.4767 59.2118C58.6891 59.198 57.9232 58.9519 57.275 58.5044C56.6268 58.0568 56.1253 57.4278 55.8334 56.6962C55.5415 55.9646 55.4722 55.1631 55.6343 54.3923C55.7963 53.6215 56.1825 52.9157 56.7442 52.3636C57.306 51.8114 58.0183 51.4376 58.7918 51.2889C59.5653 51.1402 60.3655 51.2233 61.092 51.5279C61.8184 51.8324 62.4387 52.3447 62.8749 53.0005C63.3112 53.6563 63.544 54.4264 63.5441 55.2141C63.5386 56.2824 63.1094 57.3048 62.3507 58.0569C61.592 58.8091 60.5659 59.2294 59.4976 59.2257L59.4767 59.2118ZM62.4488 50.742C61.6622 50.7241 60.8984 50.4746 60.253 50.0246C59.6077 49.5746 59.1094 48.9442 58.8207 48.2124C58.532 47.4805 58.4656 46.6797 58.63 45.9103C58.7943 45.1409 59.182 44.4371 59.7446 43.887C60.3071 43.337 61.0194 42.9651 61.7923 42.8181C62.5652 42.6711 63.3643 42.7553 64.0895 43.0604C64.8147 43.3655 65.4338 43.8777 65.8692 44.533C66.3046 45.1883 66.5369 45.9575 66.5371 46.7443C66.5353 47.2756 66.4285 47.8014 66.2229 48.2913C66.0172 48.7812 65.7168 49.2257 65.3388 49.5991C64.9608 49.9726 64.5128 50.2676 64.0204 50.4673C63.528 50.6671 63.001 50.7675 62.4697 50.7629L62.4488 50.742Z" fill="#00B0C4"/>
<path d="M54.9138 65.5816C51.4691 65.5224 48.1188 64.4465 45.2837 62.489C42.4487 60.5315 40.2555 57.7797 38.9796 54.5795C37.7038 51.3793 37.4023 47.8733 38.1129 44.5022C38.8236 41.1312 40.5148 38.0453 42.974 35.6325C45.4331 33.2197 48.5505 31.5875 51.9345 30.941C55.3185 30.2946 58.8181 30.6627 61.9935 31.9992C65.1689 33.3357 67.8784 35.5808 69.7816 38.4526C71.6849 41.3243 72.6969 44.6945 72.6905 48.1397C72.6353 52.8065 70.7341 57.2616 67.4026 60.5302C64.0712 63.7989 59.5808 65.6151 54.9138 65.5816ZM54.9138 31.1304C51.5696 31.1881 48.3171 32.2325 45.5645 34.1324C42.8119 36.0324 40.6819 38.7031 39.4419 41.8094C38.202 44.9157 37.9074 48.3191 38.595 51.5923C39.2827 54.8655 40.9221 57.8626 43.3072 60.2073C45.6924 62.552 48.7171 64.1398 52.0016 64.7713C55.286 65.4029 58.6839 65.0501 61.7685 63.7571C64.8532 62.4642 67.4871 60.2888 69.3396 57.5041C71.1922 54.7194 72.1807 51.4494 72.1812 48.1048C72.1389 43.5645 70.2969 39.2265 67.0596 36.0429C63.8223 32.8592 59.4541 31.0899 54.9138 31.1234V31.1304ZM59.4905 59.4908C58.6536 59.4757 57.8398 59.2137 57.1513 58.7378C56.4627 58.2618 55.9301 57.5931 55.6203 56.8155C55.3104 56.0379 55.2371 55.1861 55.4097 54.3671C55.5822 53.548 55.9928 52.7981 56.5899 52.2116C57.1871 51.625 57.9442 51.2279 58.7662 51.0701C59.5882 50.9123 60.4386 51.0008 61.2105 51.3245C61.9824 51.6482 62.6415 52.1927 63.105 52.8897C63.5686 53.5866 63.816 54.405 63.8161 55.242C63.8014 56.3751 63.339 57.4564 62.5299 58.2498C61.7208 59.0432 60.6307 59.4844 59.4975 59.4769L59.4905 59.4908ZM59.4905 51.4885C58.7527 51.5023 58.0353 51.7336 57.4284 52.1536C56.8216 52.5735 56.3522 53.1633 56.0794 53.849C55.8065 54.5347 55.7421 55.2857 55.8945 56.0078C56.0468 56.7299 56.409 57.3909 56.9357 57.9079C57.4623 58.4249 58.1299 58.7749 58.8547 58.9138C59.5795 59.0528 60.3292 58.9747 61.0097 58.6892C61.6902 58.4037 62.2713 57.9236 62.6799 57.309C63.0886 56.6945 63.3067 55.973 63.3068 55.235C63.3032 54.7384 63.2017 54.2474 63.0083 53.7901C62.8149 53.3327 62.5333 52.9179 62.1796 52.5693C61.8258 52.2208 61.4069 51.9453 60.9467 51.7587C60.4865 51.572 59.9941 51.4779 59.4975 51.4815L59.4905 51.4885ZM49.9743 59.4769C49.1373 59.4618 48.3235 59.1998 47.635 58.7238C46.9464 58.2479 46.4138 57.5791 46.104 56.8015C45.7941 56.024 45.7209 55.1722 45.8934 54.3531C46.0659 53.534 46.4765 52.7842 47.0736 52.1976C47.6708 51.611 48.4279 51.2139 49.2499 51.0561C50.0719 50.8983 50.9223 50.9868 51.6942 51.3105C52.4661 51.6342 53.1252 52.1787 53.5888 52.8757C54.0523 53.5727 54.2997 54.391 54.2998 55.2281C54.2888 56.3648 53.8271 57.4507 53.016 58.2474C52.205 59.044 51.111 59.4862 49.9743 59.4769ZM49.9743 51.4746C49.2364 51.4883 48.519 51.7197 47.9122 52.1396C47.3053 52.5595 46.836 53.1494 46.5631 53.835C46.2902 54.5207 46.2259 55.2717 46.3782 55.9938C46.5305 56.7159 46.8928 57.3769 47.4194 57.8939C47.946 58.4109 48.6136 58.7609 49.3384 58.8999C50.0632 59.0389 50.8129 58.9607 51.4934 58.6752C52.1739 58.3897 52.755 57.9096 53.1637 57.2951C53.5723 56.6806 53.7904 55.9591 53.7905 55.2211C53.7795 54.2194 53.3714 53.263 52.6559 52.5619C51.9404 51.8608 50.976 51.4722 49.9743 51.4815V51.4746ZM54.858 51.0071C54.3865 50.9989 53.9281 50.8515 53.5401 50.5836C53.1521 50.3157 52.8519 49.9392 52.6772 49.5012C52.5025 49.0633 52.461 48.5835 52.558 48.1221C52.655 47.6607 52.8862 47.2382 53.2224 46.9077C53.5587 46.5772 53.9851 46.3535 54.4482 46.2645C54.9112 46.1755 55.3902 46.2252 55.825 46.4075C56.2599 46.5898 56.6311 46.8965 56.8923 47.2891C57.1534 47.6816 57.2928 48.1426 57.2929 48.6141C57.2874 49.2513 57.0308 49.8607 56.5789 50.31C56.127 50.7593 55.5162 51.0123 54.8789 51.0141L54.858 51.0071ZM54.858 46.7234C54.4856 46.7303 54.1235 46.847 53.8172 47.0589C53.5109 47.2707 53.274 47.5684 53.1363 47.9144C52.9985 48.2604 52.966 48.6394 53.0428 49.0039C53.1197 49.3683 53.3025 49.7019 53.5682 49.9629C53.834 50.2238 54.1709 50.4004 54.5366 50.4706C54.9024 50.5408 55.2808 50.5014 55.6242 50.3573C55.9677 50.2132 56.2609 49.9709 56.4672 49.6608C56.6734 49.3507 56.7835 48.9865 56.7836 48.6141C56.7726 48.1156 56.5674 47.6411 56.2116 47.2918C55.8557 46.9425 55.3775 46.746 54.8789 46.7443L54.858 46.7234ZM62.4487 51.0071C61.6134 50.9879 60.8022 50.7228 60.1168 50.2451C59.4313 49.7673 58.902 49.098 58.5949 48.3209C58.2878 47.5439 58.2167 46.6935 58.3903 45.8762C58.564 45.0589 58.9748 44.311 59.5714 43.726C60.1679 43.1409 60.9237 42.7447 61.7442 42.587C62.5647 42.4292 63.4135 42.5169 64.1845 42.839C64.9554 43.1612 65.6143 43.7034 66.0786 44.3981C66.543 45.0927 66.7922 45.9088 66.7952 46.7443C66.7925 47.309 66.6783 47.8675 66.4593 48.388C66.2402 48.9084 65.9206 49.3805 65.5188 49.7772C65.1169 50.1738 64.6407 50.4873 64.1175 50.6995C63.5942 50.9118 63.0342 51.0187 62.4696 51.0141L62.4487 51.0071ZM62.4487 43.0048C61.7112 43.0213 60.995 43.2551 60.3898 43.677C59.7847 44.0989 59.3175 44.69 59.047 45.3763C58.7764 46.0625 58.7145 46.8134 58.8689 47.5348C59.0234 48.2561 59.3873 48.9158 59.9151 49.4311C60.443 49.9464 61.1112 50.2945 61.836 50.4316C62.5609 50.5687 63.31 50.4888 63.9896 50.2019C64.6692 49.915 65.249 49.4338 65.6562 48.8187C66.0635 48.2036 66.2801 47.482 66.2789 46.7443C66.2642 45.7457 65.8557 44.7932 65.1423 44.0942C64.4289 43.3952 63.4684 43.0061 62.4696 43.0118L62.4487 43.0048ZM47.3649 51.0141C46.5289 50.999 45.716 50.7375 45.0279 50.2625C44.3398 49.7875 43.8071 49.1199 43.4967 48.3436C43.1862 47.5672 43.1117 46.7165 43.2825 45.898C43.4533 45.0794 43.8619 44.3295 44.4569 43.7421C45.052 43.1547 45.8072 42.756 46.6278 42.5958C47.4485 42.4356 48.2982 42.5212 49.0705 42.8417C49.8427 43.1622 50.5033 43.7035 50.9693 44.3977C51.4354 45.0919 51.6863 45.9082 51.6905 46.7443C51.6878 47.309 51.5736 47.8675 51.3546 48.388C51.1356 48.9084 50.816 49.3805 50.4141 49.7772C50.0122 50.1738 49.5361 50.4873 49.0128 50.6995C48.4896 50.9118 47.9296 51.0187 47.3649 51.0141ZM47.3649 43.0118C46.6262 43.0242 45.9075 43.2547 45.2995 43.6745C44.6914 44.0942 44.221 44.6844 43.9474 45.3708C43.6739 46.0572 43.6094 46.8091 43.7621 47.5321C43.9148 48.255 44.2779 48.9166 44.8057 49.4338C45.3334 49.9509 46.0023 50.3004 46.7282 50.4384C47.4541 50.5764 48.2046 50.4966 48.8853 50.2091C49.566 49.9217 50.1464 49.4394 50.5537 48.8229C50.961 48.2064 51.1769 47.4832 51.1743 46.7443C51.1596 45.7457 50.7511 44.7932 50.0377 44.0942C49.3243 43.3952 48.3637 43.0061 47.3649 43.0118ZM54.8789 45.2164C54.042 45.2013 53.2282 44.9393 52.5397 44.4634C51.8511 43.9874 51.3185 43.3187 51.0086 42.5411C50.6988 41.7635 50.6255 40.9117 50.798 40.0926C50.9705 39.2736 51.3811 38.5237 51.9783 37.9371C52.5754 37.3506 53.3325 36.9535 54.1546 36.7956C54.9766 36.6378 55.8269 36.7263 56.5988 37.05C57.3708 37.3738 58.0299 37.9183 58.4934 38.6152C58.957 39.3122 59.2044 40.1305 59.2045 40.9676C59.1934 42.1044 58.7317 43.1903 57.9207 43.9869C57.1097 44.7835 56.0157 45.2257 54.8789 45.2164ZM54.8789 37.2141C54.141 37.2278 53.4237 37.4592 52.8168 37.8791C52.2099 38.2991 51.7406 38.8889 51.4677 39.5746C51.1948 40.2602 51.1305 41.0113 51.2829 41.7333C51.4352 42.4554 51.7974 43.1165 52.324 43.6335C52.8507 44.1505 53.5183 44.5004 54.243 44.6394C54.9678 44.7784 55.7175 44.7003 56.3981 44.4148C57.0786 44.1293 57.6596 43.6491 58.0683 43.0346C58.477 42.4201 58.6951 41.6986 58.6952 40.9606C58.6841 39.9583 58.2763 39.0012 57.561 38.299C56.8457 37.5968 55.8813 37.2067 54.8789 37.2141Z" fill="#311234"/>
<path d="M54.9139 63.6558C51.8818 63.6036 48.9326 62.6567 46.4367 60.9342C43.9409 59.2116 42.0095 56.79 40.8852 53.9735C39.7608 51.157 39.4936 48.0712 40.1171 45.1033C40.7405 42.1355 42.2269 39.418 44.3895 37.292C46.5521 35.166 49.2946 33.7263 52.2726 33.1536C55.2507 32.581 58.3315 32.9008 61.1284 34.0731C63.9253 35.2454 66.3135 37.2178 67.9932 39.7427C69.6729 42.2676 70.5693 45.2325 70.5697 48.2651C70.5292 52.3805 68.8583 56.3118 65.9235 59.1969C62.9886 62.0821 59.0293 63.6856 54.9139 63.6558ZM54.9139 33.3768C51.9808 33.4276 49.1281 34.3439 46.7139 36.0104C44.2997 37.677 42.4317 40.0196 41.3443 42.7442C40.2569 45.4688 39.9986 48.4539 40.6019 51.3247C41.2052 54.1956 42.6432 56.8242 44.7353 58.8807C46.8273 60.9371 49.4803 62.3297 52.3611 62.8835C55.2419 63.4374 58.2221 63.1278 60.9276 61.9938C63.6331 60.8597 65.9433 58.9517 67.5681 56.5092C69.1929 54.0667 70.06 51.1987 70.0604 48.2651C70.0218 44.2837 68.4053 40.4801 65.5658 37.689C62.7262 34.8978 58.8955 33.347 54.9139 33.3768Z" fill="#311234"/>
</g>
<path d="M171.954 58.704C168.64 58.704 166.205 57.868 164.65 56.196C163.096 54.524 162.318 51.752 162.318 47.88C162.318 44.8 162.832 41.4853 163.858 37.936C164.914 34.3867 166.586 31.3507 168.874 28.828C171.192 26.276 174.125 25 177.674 25C179.874 25 181.649 25.484 182.998 26.452C184.348 27.42 185.022 28.9013 185.022 30.896C185.022 32.1573 184.773 33.1547 184.274 33.888C183.776 34.592 182.998 34.944 181.942 34.944C180.886 34.944 180.05 34.5627 179.434 33.8C179.962 33.536 180.432 33.008 180.842 32.216C181.253 31.424 181.458 30.6027 181.458 29.752C181.458 28.96 181.238 28.3147 180.798 27.816C180.388 27.3173 179.713 27.068 178.774 27.068C177.22 27.068 175.738 28.1387 174.33 30.28C172.922 32.392 171.778 35.0613 170.898 38.288C170.048 41.5147 169.622 44.624 169.622 47.616C169.622 49.8453 170.004 51.5467 170.766 52.72C171.529 53.8933 172.908 54.48 174.902 54.48C176.633 54.48 178.232 54.0987 179.698 53.336C181.165 52.5733 182.426 51.488 183.482 50.08L184.494 50.52C183.761 52.368 182.676 53.908 181.238 55.14C179.801 56.372 178.261 57.2813 176.618 57.868C174.976 58.4253 173.421 58.704 171.954 58.704ZM189.778 58.176C187.607 58.176 185.891 57.6187 184.63 56.504C183.368 55.3893 182.738 53.6293 182.738 51.224C182.738 49.2293 183.148 47.0147 183.97 44.58C184.791 42.1453 186.111 40.048 187.93 38.288C189.748 36.4987 192.036 35.604 194.794 35.604C198.548 35.604 200.426 37.9507 200.426 42.644V42.688C200.514 42.7173 200.675 42.732 200.91 42.732C201.878 42.732 202.992 42.4827 204.254 41.984C205.515 41.456 206.659 40.8253 207.686 40.092L208.082 41.28C207.231 42.1893 206.116 42.9667 204.738 43.612C203.388 44.228 201.907 44.668 200.294 44.932C200.059 47.6013 199.458 49.9333 198.49 51.928C197.522 53.9227 196.275 55.4627 194.75 56.548C193.224 57.6333 191.567 58.176 189.778 58.176ZM191.538 54.216C192.242 54.216 192.946 53.82 193.65 53.028C194.354 52.2067 194.97 51.1067 195.498 49.728C196.026 48.32 196.407 46.7653 196.642 45.064C195.85 44.888 195.454 44.272 195.454 43.216C195.454 42.0133 195.908 41.2213 196.818 40.84C196.759 39.872 196.612 39.212 196.378 38.86C196.143 38.4787 195.732 38.288 195.146 38.288C194.178 38.288 193.239 38.992 192.33 40.4C191.42 41.808 190.687 43.4947 190.13 45.46C189.572 47.4253 189.294 49.156 189.294 50.652C189.294 52.06 189.455 53.0133 189.778 53.512C190.1 53.9813 190.687 54.216 191.538 54.216ZM218.573 58.264C216.784 58.264 215.464 57.7947 214.613 56.856C213.792 55.888 213.381 54.7 213.381 53.292C213.381 52.676 213.455 51.9867 213.601 51.224C213.748 50.432 213.895 49.6693 214.041 48.936C214.217 48.2027 214.335 47.7333 214.393 47.528C214.628 46.5013 214.848 45.4893 215.053 44.492C215.259 43.4947 215.361 42.688 215.361 42.072C215.361 40.576 214.833 39.828 213.777 39.828C213.015 39.828 212.34 40.2093 211.753 40.972C211.167 41.7053 210.697 42.6733 210.345 43.876L207.353 58H201.017L205.681 36H212.017L211.533 38.288C213 36.6453 214.716 35.824 216.681 35.824C218.177 35.824 219.365 36.2347 220.245 37.056C221.125 37.8773 221.565 39.124 221.565 40.796C221.565 41.6467 221.463 42.6 221.257 43.656C221.052 44.6827 220.759 45.944 220.377 47.44C220.143 48.3493 219.923 49.244 219.717 50.124C219.541 50.9747 219.453 51.6493 219.453 52.148C219.453 52.7347 219.585 53.1893 219.849 53.512C220.113 53.8347 220.568 53.996 221.213 53.996C222.093 53.996 222.797 53.688 223.325 53.072C223.853 52.4267 224.381 51.444 224.909 50.124H226.757C225.672 53.3507 224.411 55.5213 222.973 56.636C221.565 57.7213 220.099 58.264 218.573 58.264ZM229.26 58.264C227.852 58.264 226.708 57.824 225.828 56.944C224.978 56.064 224.552 54.744 224.552 52.984C224.552 52.2507 224.67 51.2973 224.904 50.124L227.544 37.76H226.092L226.444 36H227.896L229.216 29.928L235.728 29.048L234.232 36H236.872L236.52 37.76H233.88L231.064 50.96C230.947 51.4 230.888 51.8693 230.888 52.368C230.888 52.9547 231.02 53.38 231.284 53.644C231.578 53.8787 232.047 53.996 232.692 53.996C233.543 53.996 234.335 53.644 235.068 52.94C235.802 52.2067 236.33 51.268 236.652 50.124H238.5C237.415 53.292 236.022 55.448 234.32 56.592C232.619 57.7067 230.932 58.264 229.26 58.264ZM241.915 58.264C240.243 58.264 238.849 57.692 237.735 56.548C236.62 55.404 236.063 53.6147 236.063 51.18C236.063 49.0093 236.488 46.736 237.339 44.36C238.219 41.9547 239.509 39.9307 241.211 38.288C242.941 36.616 244.995 35.78 247.371 35.78C248.573 35.78 249.468 35.9853 250.055 36.396C250.641 36.8067 250.935 37.3493 250.935 38.024V38.332L251.419 36H257.755L254.587 50.96C254.469 51.4 254.411 51.8693 254.411 52.368C254.411 53.6293 255.012 54.26 256.215 54.26C257.036 54.26 257.74 53.8787 258.327 53.116C258.943 52.3533 259.427 51.356 259.779 50.124H261.627C260.541 53.292 259.192 55.448 257.579 56.592C255.995 57.7067 254.396 58.264 252.783 58.264C251.551 58.264 250.553 57.9267 249.791 57.252C249.057 56.548 248.617 55.536 248.471 54.216C247.62 55.4187 246.667 56.4013 245.611 57.164C244.584 57.8973 243.352 58.264 241.915 58.264ZM244.775 53.996C245.508 53.996 246.227 53.6587 246.931 52.984C247.664 52.28 248.163 51.3267 248.427 50.124L250.539 40.18C250.539 39.7987 250.392 39.432 250.099 39.08C249.805 38.6987 249.351 38.508 248.735 38.508C247.561 38.508 246.505 39.1973 245.567 40.576C244.628 41.9253 243.895 43.568 243.367 45.504C242.839 47.4107 242.575 49.0973 242.575 50.564C242.575 52.0307 242.78 52.9693 243.191 53.38C243.631 53.7907 244.159 53.996 244.775 53.996ZM266.087 58.264C263.916 58.264 262.23 57.7067 261.027 56.592C259.824 55.448 259.223 53.6733 259.223 51.268C259.223 49.244 259.619 47.0147 260.411 44.58C261.232 42.1453 262.523 40.048 264.283 38.288C266.072 36.4987 268.331 35.604 271.059 35.604C272.819 35.604 274.066 35.9853 274.799 36.748C275.562 37.5107 275.943 38.4787 275.943 39.652C275.943 40.6787 275.723 41.4707 275.283 42.028C274.843 42.5853 274.286 42.864 273.611 42.864C273.112 42.864 272.599 42.688 272.071 42.336C272.423 41.368 272.599 40.5027 272.599 39.74C272.599 39.1827 272.496 38.7427 272.291 38.42C272.086 38.0973 271.778 37.936 271.367 37.936C270.487 37.936 269.607 38.6547 268.727 40.092C267.847 41.5293 267.128 43.2747 266.571 45.328C266.014 47.3813 265.735 49.2293 265.735 50.872C265.735 52.3093 265.984 53.292 266.483 53.82C266.982 54.3187 267.788 54.568 268.903 54.568C270.487 54.568 271.836 54.2013 272.951 53.468C274.095 52.7347 275.342 51.62 276.691 50.124H278.187C274.931 55.5507 270.898 58.264 266.087 58.264ZM280.818 58.264C279.322 58.264 278.207 57.8093 277.474 56.9C276.77 55.9907 276.418 54.788 276.418 53.292C276.418 52.5293 276.506 51.752 276.682 50.96L279.498 37.76H278.046L278.398 36H279.85L281.17 29.928L287.682 29.048C287.418 30.1627 287.271 30.8227 287.242 31.028C287.036 31.8493 286.684 33.5067 286.186 36H288.826L288.474 37.76H285.834L283.018 50.96C282.871 51.6053 282.798 52.1187 282.798 52.5C282.798 53.556 283.311 54.084 284.338 54.084C284.866 54.084 285.247 54.04 285.482 53.952C284.895 55.6533 284.206 56.7973 283.414 57.384C282.622 57.9707 281.756 58.264 280.818 58.264ZM302.737 58.264C301.329 58.264 300.185 57.824 299.305 56.944C298.454 56.064 298.029 54.744 298.029 52.984C298.029 52.2507 298.146 51.2973 298.381 50.124L301.373 36H307.709L304.541 50.96C304.453 51.4 304.409 51.8107 304.409 52.192C304.409 53.3947 304.849 53.996 305.729 53.996C306.55 53.996 307.254 53.6587 307.841 52.984C308.428 52.28 308.897 51.3267 309.249 50.124L312.241 36H318.577L315.409 50.96C315.292 51.4 315.233 51.8693 315.233 52.368C315.233 52.9547 315.365 53.38 315.629 53.644C315.922 53.8787 316.392 53.996 317.037 53.996C317.858 53.996 318.562 53.644 319.149 52.94C319.765 52.236 320.249 51.2973 320.601 50.124H322.449C321.364 53.292 320.014 55.448 318.401 56.592C316.817 57.7067 315.218 58.264 313.605 58.264C312.344 58.264 311.332 57.912 310.569 57.208C309.836 56.504 309.396 55.4627 309.249 54.084C308.252 55.6973 307.196 56.7973 306.081 57.384C304.996 57.9707 303.881 58.264 302.737 58.264ZM325.612 58.264C324.204 58.264 323.016 58 322.048 57.472C321.08 56.9147 320.361 56.2107 319.892 55.36C319.422 54.48 319.188 53.5707 319.188 52.632C319.188 51.664 319.422 50.828 319.892 50.124C320.332 49.3907 320.874 48.8627 321.52 48.54C322.664 46.4867 323.661 44.4187 324.512 42.336C325.362 40.224 326.169 37.9507 326.932 35.516L333.444 34.636C333.59 38.3907 333.84 42.4533 334.192 46.824C334.338 48.584 334.412 49.86 334.412 50.652C334.412 52.4413 333.957 53.908 333.048 55.052C332.138 56.196 331.009 57.0173 329.66 57.516C328.34 58.0147 326.99 58.264 325.612 58.264ZM324.204 54.788C325.289 54.788 326.198 54.4653 326.932 53.82C327.665 53.1747 328.032 52.1333 328.032 50.696C328.032 49.816 327.944 48.584 327.768 47C327.474 43.656 327.284 41.412 327.196 40.268C326.492 42.5853 325.304 45.3573 323.632 48.584C324.306 48.936 324.644 49.4493 324.644 50.124C324.644 50.6813 324.453 51.18 324.072 51.62C323.72 52.06 323.265 52.28 322.708 52.28C322.092 52.28 321.696 52.0893 321.52 51.708C321.52 52.764 321.725 53.5413 322.136 54.04C322.576 54.5387 323.265 54.788 324.204 54.788Z" fill="black"/>
<defs>
<filter id="filter0_d" x="0" y="0" width="138" height="90.6202" filterUnits="userSpaceOnUse" color-interpolation-filters="sRGB">
<feFlood flood-opacity="0" result="BackgroundImageFix"/>
<feColorMatrix in="SourceAlpha" type="matrix" values="0 0 0 0 0 0 0 0 0 0 0 0 0 0 0 0 0 0 127 0"/>
<feOffset dx="8" dy="4"/>
<feGaussianBlur stdDeviation="2"/>
<feColorMatrix type="matrix" values="0 0 0 0 0 0 0 0 0 0 0 0 0 0 0 0 0 0 0.25 0"/>
<feBlend mode="normal" in2="BackgroundImageFix" result="effect1_dropShadow"/>
<feBlend mode="normal" in="SourceGraphic" in2="effect1_dropShadow" result="shape"/>
</filter>
</defs>
</svg>
