<svg width="100" height="100" viewBox="0 0 100 100" fill="none" xmlns="http://www.w3.org/2000/svg">
<g clip-path="url(#clip0)">
<path d="M66.4556 51.5238C57.517 42.5852 47.7134 37.8939 44.5604 41.0469C44.2144 41.4095 43.9598 41.8494 43.8179 42.33L43.7674 42.2796L40.7557 54.6206L37.7569 66.9242L34.2017 81.4941L31.9512 90.7211L45.274 85.6751L62.2199 79.2638L75.7388 74.1486L75.7229 74.1328C76.1759 73.9871 76.59 73.7406 76.934 73.4119C80.0856 70.2661 75.4014 60.4639 66.4556 51.5238Z" fill="#DD1C4B"/>
<path d="M76.9339 73.4163C80.0868 70.2633 75.3957 60.4603 66.4561 51.5207C57.5164 42.581 47.7134 37.8899 44.5604 41.0428C41.4075 44.1958 46.0986 53.9988 55.0383 62.9384C63.978 71.8781 73.781 76.5692 76.9339 73.4163Z" fill="#D1E3EE"/>
<path d="M74.5104 74.5508C72.8962 74.5794 71.2945 74.2618 69.8133 73.6195L58.764 77.8004L41.8095 84.206L32.7267 87.6459L31.954 90.8176L45.2768 85.7716L62.2184 79.3647L74.6257 74.6705L74.5104 74.5508Z" fill="#B21D48"/>
<path d="M88.4663 65.4392C88.3281 65.439 88.191 65.4146 88.0612 65.3672C82.2058 63.1734 75.8764 62.5583 69.7082 63.5838L65.5878 64.27C65.2874 64.3174 64.9806 64.2443 64.7339 64.0666C64.4872 63.8889 64.3206 63.6209 64.2705 63.321C64.2203 63.0212 64.2906 62.7136 64.466 62.4653C64.6414 62.217 64.9078 62.0479 65.2072 61.995L69.3276 61.303C75.8949 60.2118 82.6337 60.8661 88.8685 63.2003C89.1255 63.2924 89.3415 63.4727 89.4781 63.7091C89.6146 63.9455 89.6629 64.2227 89.6143 64.4913C89.5656 64.76 89.4233 65.0027 89.2126 65.1762C89.0018 65.3498 88.7364 65.443 88.4634 65.4392H88.4663Z" fill="#FFBF41"/>
<path d="M67.7056 58.519C67.4451 58.5175 67.1928 58.4278 66.9898 58.2646C66.7867 58.1014 66.6449 57.8743 66.5874 57.6202C66.5299 57.3662 66.5601 57.1001 66.6731 56.8654C66.7861 56.6307 66.9752 56.4411 67.2096 56.3276L91.4304 44.7939C91.5672 44.7288 91.7155 44.6912 91.8668 44.6834C92.0181 44.6756 92.1695 44.6977 92.3122 44.7483C92.455 44.799 92.5864 44.8773 92.6989 44.9787C92.8114 45.0802 92.9029 45.2028 92.968 45.3396C93.0331 45.4764 93.0707 45.6247 93.0785 45.776C93.0863 45.9273 93.0643 46.0786 93.0136 46.2214C92.9629 46.3642 92.8846 46.4956 92.7832 46.6081C92.6817 46.7206 92.5591 46.8121 92.4223 46.8772L68.2015 58.4109C68.0463 58.4833 67.8769 58.5202 67.7056 58.519Z" fill="#FFBF41"/>
<path d="M54.2184 56.2123C54.0663 56.2124 53.9158 56.182 53.7758 56.1229C53.4937 56.005 53.2699 55.78 53.1536 55.4972C53.0374 55.2144 53.0382 54.8971 53.1558 54.6149L54.8325 50.591C57.4125 44.4256 58.014 37.6111 56.5539 31.089C56.4873 30.7936 56.5395 30.4838 56.6993 30.2266C56.859 29.9693 57.1136 29.7852 57.4079 29.714C57.7023 29.6429 58.0128 29.6903 58.2725 29.8461C58.5322 30.002 58.7201 30.2537 58.7958 30.5469L58.8045 30.5887C60.3683 37.5752 59.7235 44.875 56.9591 51.4791L55.2809 55.503C55.1933 55.713 55.0455 55.8923 54.8562 56.0186C54.6669 56.1448 54.4445 56.2122 54.2169 56.2123H54.2184Z" fill="#FFBF41"/>
<path d="M94.2331 70.0527C95.5071 70.0527 96.5399 69.0199 96.5399 67.7459C96.5399 66.472 95.5071 65.4392 94.2331 65.4392C92.9592 65.4392 91.9264 66.472 91.9264 67.7459C91.9264 69.0199 92.9592 70.0527 94.2331 70.0527Z" fill="#D5557E"/>
<path d="M66.5522 37.7583C67.8262 37.7583 68.859 36.7256 68.859 35.4516C68.859 34.1776 67.8262 33.1449 66.5522 33.1449C65.2782 33.1449 64.2455 34.1776 64.2455 35.4516C64.2455 36.7256 65.2782 37.7583 66.5522 37.7583Z" fill="#DD95C1"/>
<path d="M56.172 27.3781C55.7157 27.3781 55.2698 27.2428 54.8904 26.9893C54.5111 26.7358 54.2154 26.3756 54.0408 25.9541C53.8662 25.5326 53.8206 25.0688 53.9096 24.6213C53.9986 24.1738 54.2183 23.7628 54.5409 23.4402C54.8635 23.1176 55.2745 22.8979 55.722 22.8089C56.1694 22.7199 56.6332 22.7656 57.0547 22.9402C57.4762 23.1148 57.8365 23.4104 58.09 23.7898C58.3434 24.1691 58.4787 24.6151 58.4787 25.0713C58.4787 25.6831 58.2357 26.2698 57.8031 26.7024C57.3705 27.135 56.7838 27.3781 56.172 27.3781Z" fill="#7FCCCB"/>
<path d="M88.4663 31.9915C88.1604 31.9915 87.867 31.87 87.6507 31.6537C87.4344 31.4374 87.3129 31.144 87.3129 30.8381V29.6848C87.3129 29.3789 87.4344 29.0855 87.6507 28.8692C87.867 28.6529 88.1604 28.5314 88.4663 28.5314C88.7722 28.5314 89.0655 28.6529 89.2818 28.8692C89.4981 29.0855 89.6196 29.3789 89.6196 29.6848V30.8381C89.6196 31.144 89.4981 31.4374 89.2818 31.6537C89.0655 31.87 88.7722 31.9915 88.4663 31.9915Z" fill="#2276BB"/>
<path d="M88.4663 26.2247C88.1604 26.2247 87.867 26.1031 87.6507 25.8869C87.4344 25.6706 87.3129 25.3772 87.3129 25.0713V23.9179C87.3129 23.612 87.4344 23.3187 87.6507 23.1024C87.867 22.8861 88.1604 22.7646 88.4663 22.7646C88.7722 22.7646 89.0655 22.8861 89.2818 23.1024C89.4981 23.3187 89.6196 23.612 89.6196 23.9179V25.0713C89.6196 25.3772 89.4981 25.6706 89.2818 25.8869C89.0655 26.1031 88.7722 26.2247 88.4663 26.2247Z" fill="#2276BB"/>
<path d="M91.9264 28.5314H90.773C90.4671 28.5314 90.1737 28.4099 89.9574 28.1936C89.7411 27.9773 89.6196 27.6839 89.6196 27.378C89.6196 27.0721 89.7411 26.7788 89.9574 26.5625C90.1737 26.3462 90.4671 26.2246 90.773 26.2246H91.9264C92.2323 26.2246 92.5256 26.3462 92.7419 26.5625C92.9582 26.7788 93.0797 27.0721 93.0797 27.378C93.0797 27.6839 92.9582 27.9773 92.7419 28.1936C92.5256 28.4099 92.2323 28.5314 91.9264 28.5314Z" fill="#2276BB"/>
<path d="M86.1595 28.5314H85.0061C84.7002 28.5314 84.4068 28.4099 84.1905 28.1936C83.9742 27.9773 83.8527 27.6839 83.8527 27.378C83.8527 27.0721 83.9742 26.7788 84.1905 26.5625C84.4068 26.3462 84.7002 26.2246 85.0061 26.2246H86.1595C86.4654 26.2246 86.7588 26.3462 86.9751 26.5625C87.1914 26.7788 87.3129 27.0721 87.3129 27.378C87.3129 27.6839 87.1914 27.9773 86.9751 28.1936C86.7588 28.4099 86.4654 28.5314 86.1595 28.5314Z" fill="#2276BB"/>
<path d="M41.106 56.2123C40.9763 55.7192 40.8609 55.2204 40.7543 54.7129L37.7555 67.0165L37.9862 69.8292C38.4879 75.827 41.0633 81.4626 45.2697 85.7673L62.2185 79.3647C62.1262 79.3359 62.031 79.3157 61.9388 79.284C56.8742 77.3848 52.3391 74.2984 48.7141 70.2839C45.0892 66.2693 42.4802 61.4438 41.106 56.2123Z" fill="white"/>
<path d="M62.2184 79.3647C62.1261 79.3359 62.031 79.3157 61.9387 79.284C60.8271 78.8627 59.7385 78.3829 58.6775 77.8466L43.4185 83.6221C43.9956 84.3725 44.6136 85.0906 45.2696 85.7732L62.2184 79.3647Z" fill="#F6F6E7"/>
<path d="M80.3926 36.5819V42.3733H74.6013V36.5819H80.3926Z" fill="#C9DA53"/>
<path d="M59.632 57.3656C59.3989 57.3654 59.1714 57.2945 58.9794 57.1624C58.7874 57.0303 58.6399 56.8431 58.5564 56.6255C58.4729 56.408 58.4573 56.1702 58.5116 55.9435C58.5659 55.7169 58.6876 55.512 58.8606 55.3559L70.3944 44.9756C70.5069 44.874 70.6384 44.7956 70.7813 44.7448C70.9241 44.694 71.0756 44.6719 71.227 44.6797C71.3784 44.6874 71.5268 44.725 71.6637 44.7901C71.8006 44.8552 71.9234 44.9466 72.025 45.0592C72.1265 45.1717 72.205 45.3032 72.2557 45.4461C72.3065 45.5889 72.3286 45.7404 72.3209 45.8918C72.3131 46.0432 72.2756 46.1916 72.2105 46.3285C72.1453 46.4654 72.0539 46.5882 71.9413 46.6898L60.4076 57.0701C60.196 57.261 59.9213 57.3668 59.6363 57.3671L59.632 57.3656Z" fill="#FFBF41"/>
<path d="M75.227 75.6264C76.1516 75.4858 77.0088 75.0587 77.6779 74.4052C78.8226 73.262 79.8059 70.9062 77.9936 66.1875C77.8904 65.8992 77.6769 65.6637 77.4 65.5328C77.1231 65.402 76.8056 65.3865 76.5173 65.4897C76.229 65.5929 75.9935 65.8065 75.8627 66.0833C75.7318 66.3602 75.7163 66.6777 75.8195 66.966L75.8368 67.0093C76.8893 69.7485 76.9643 71.8534 76.043 72.7761C74.9271 73.8905 72.1504 73.5417 68.6038 71.8462C63.86 69.3837 59.5482 66.1661 55.8374 62.3194C46.8022 53.2842 43.074 44.4176 45.3793 42.1123C45.7429 41.8257 46.1653 41.6226 46.6162 41.5174C47.0672 41.4123 47.5358 41.4077 47.9888 41.5039C48.2923 41.5422 48.5987 41.4582 48.8404 41.2706C49.0821 41.083 49.2394 40.807 49.2776 40.5034C49.3159 40.1998 49.2319 39.8934 49.0443 39.6517C48.8567 39.41 48.5807 39.2527 48.2771 39.2145H48.218C47.4256 39.0735 46.6115 39.1145 45.8373 39.3343C45.063 39.554 44.3488 39.9469 43.7487 40.4832C39.5245 44.7045 45.9833 55.7207 54.2083 63.9485C58.1057 67.9803 62.6344 71.3496 67.6162 73.9237C68.5182 74.3555 69.4477 74.7273 70.3987 75.0367L62.1954 78.1378C57.3411 76.2869 52.9976 73.3062 49.5247 69.4424C46.0518 65.5786 43.5494 60.9431 42.2248 55.9196C41.948 54.8643 41.7216 53.7859 41.553 52.7132C41.5373 52.5603 41.4913 52.412 41.4175 52.2771C41.3438 52.1422 41.2438 52.0234 41.1235 51.9277C41.0031 51.832 40.8648 51.7613 40.7168 51.7198C40.5687 51.6783 40.4139 51.6668 40.2613 51.686C40.1088 51.7053 39.9616 51.7548 39.8285 51.8317C39.6954 51.9087 39.579 52.0114 39.4861 52.134C39.3933 52.2566 39.3259 52.3965 39.2879 52.5455C39.2499 52.6945 39.2421 52.8495 39.265 53.0016C39.265 53.0232 39.265 53.0448 39.2751 53.0665C40.1687 58.7298 42.4429 64.086 45.8969 68.6622C49.3509 73.2383 53.8784 76.8937 59.0798 79.3056L45.5912 84.4093C45.5297 84.306 45.4518 84.2135 45.3605 84.1354C43.6643 82.7737 42.2624 81.0818 41.2396 79.1621C40.2169 77.2425 39.5946 75.1352 39.4106 72.9679L38.8714 66.4802C38.8613 66.3308 38.8219 66.185 38.7554 66.0509C38.689 65.9168 38.5967 65.7972 38.484 65.6988C38.3713 65.6004 38.2402 65.5251 38.0984 65.4774C37.9566 65.4296 37.8068 65.4103 37.6575 65.4205H37.6257C37.321 65.4458 37.0389 65.5911 36.8412 65.8244C36.6436 66.0577 36.5467 66.36 36.5718 66.6647L37.111 73.1524C37.5176 77.8338 39.7014 82.1817 43.2138 85.3031L33.5918 88.9608L35.3219 81.8603C35.3578 81.7131 35.3643 81.5603 35.3411 81.4106C35.3179 81.2608 35.2655 81.1171 35.1868 80.9877C35.108 80.8582 35.0046 80.7456 34.8823 80.6561C34.7601 80.5666 34.6214 80.5021 34.4742 80.4662C34.327 80.4303 34.1741 80.4238 34.0244 80.447C33.8747 80.4702 33.731 80.5226 33.6015 80.6013C33.4721 80.68 33.3594 80.7835 33.2699 80.9058C33.1804 81.028 33.1159 81.1667 33.08 81.3139L30.8295 90.5409C30.788 90.7106 30.7856 90.8876 30.8225 91.0584C30.8594 91.2292 30.9347 91.3894 31.0426 91.5269C31.1505 91.6644 31.2882 91.7755 31.4453 91.852C31.6025 91.9284 31.775 91.9681 31.9497 91.9682C32.089 91.9681 32.2272 91.9432 32.3577 91.8946L75.0324 75.7475C75.1014 75.7142 75.1667 75.6736 75.227 75.6264Z" fill="black"/>
<path d="M69.3319 61.3087L65.2115 62.0008C64.9085 62.0428 64.6345 62.2035 64.45 62.4475C64.2655 62.6916 64.1855 62.9989 64.2275 63.3019C64.2696 63.6049 64.4303 63.8788 64.6743 64.0634C64.9183 64.2479 65.2256 64.3279 65.5287 64.2859L65.5907 64.2758L69.7111 63.5895C75.8793 62.5643 82.2086 63.1793 88.0641 65.3729C88.1928 65.4185 88.3284 65.4414 88.4649 65.4407C88.7357 65.4416 88.9982 65.3471 89.2064 65.1739C89.4146 65.0006 89.5552 64.7596 89.6035 64.4931C89.6518 64.2266 89.6048 63.9515 89.4707 63.7162C89.3366 63.4809 89.1239 63.3003 88.87 63.206C82.636 60.8726 75.8983 60.2183 69.3319 61.3087Z" fill="black"/>
<path d="M66.6676 57.8616C66.7992 58.1376 67.0351 58.35 67.3233 58.4522C67.6114 58.5544 67.9284 58.538 68.2045 58.4065L92.4252 46.8728C92.701 46.7412 92.9133 46.5055 93.0154 46.2175C93.1176 45.9295 93.1013 45.6127 92.9701 45.3367C92.8389 45.0607 92.6035 44.8481 92.3156 44.7455C92.0278 44.6429 91.711 44.6588 91.4348 44.7896L67.214 56.3233C66.9378 56.4546 66.725 56.6903 66.6225 56.9785C66.5201 57.2667 66.5363 57.5839 66.6676 57.8601V57.8616Z" fill="black"/>
<path d="M53.7758 56.1243C53.9159 56.1834 54.0664 56.2138 54.2184 56.2137C54.446 56.2136 54.6684 56.1462 54.8577 56.02C55.047 55.8938 55.1948 55.7144 55.2824 55.5044L56.9591 51.4849C59.7241 44.8809 60.3689 37.581 58.8045 30.5945C58.7743 30.4461 58.7152 30.3051 58.6305 30.1795C58.5458 30.0539 58.4372 29.9462 58.3108 29.8626C58.1845 29.779 58.043 29.7211 57.8943 29.6922C57.7456 29.6633 57.5927 29.664 57.4442 29.6942C57.2958 29.7244 57.1548 29.7835 57.0292 29.8682C56.9036 29.9529 56.796 30.0615 56.7124 30.1878C56.6287 30.3141 56.5708 30.4557 56.5419 30.6044C56.513 30.7531 56.5137 30.906 56.5439 31.0544C56.5439 31.0688 56.5439 31.0818 56.5526 31.0962C58.0132 37.6183 57.4117 44.4329 54.8311 50.5983L53.153 54.6221C53.0373 54.904 53.0379 55.2202 53.1546 55.5016C53.2713 55.7831 53.4946 56.007 53.7758 56.1243Z" fill="black"/>
<path d="M90.773 67.7459C90.773 68.4303 90.9759 69.0993 91.3561 69.6683C91.7363 70.2373 92.2767 70.6808 92.909 70.9427C93.5412 71.2046 94.2369 71.2731 94.9081 71.1396C95.5793 71.0061 96.1959 70.6765 96.6798 70.1926C97.1637 69.7087 97.4932 69.0922 97.6267 68.421C97.7602 67.7498 97.6917 67.0541 97.4298 66.4218C97.1679 65.7896 96.7244 65.2492 96.1554 64.869C95.5864 64.4888 94.9174 64.2858 94.2331 64.2858C93.3154 64.2858 92.4353 64.6504 91.7864 65.2993C91.1376 65.9482 90.773 66.8283 90.773 67.7459ZM95.3865 67.7459C95.3865 67.9741 95.3188 68.197 95.1921 68.3867C95.0654 68.5764 94.8852 68.7242 94.6745 68.8115C94.4637 68.8988 94.2318 68.9217 94.0081 68.8772C93.7844 68.8326 93.5789 68.7228 93.4176 68.5615C93.2563 68.4002 93.1464 68.1947 93.1019 67.971C93.0574 67.7472 93.0802 67.5153 93.1675 67.3046C93.2548 67.0938 93.4027 66.9137 93.5923 66.7869C93.782 66.6602 94.005 66.5926 94.2331 66.5926C94.539 66.5926 94.8324 66.7141 95.0487 66.9304C95.265 67.1467 95.3865 67.44 95.3865 67.7459Z" fill="black"/>
<path d="M70.0124 35.4517C70.0124 34.7673 69.8094 34.0983 69.4292 33.5293C69.049 32.9603 68.5086 32.5168 67.8764 32.2549C67.2441 31.993 66.5484 31.9245 65.8772 32.058C65.206 32.1915 64.5895 32.5211 64.1056 33.005C63.6217 33.4889 63.2922 34.1054 63.1586 34.7766C63.0251 35.4478 63.0937 36.1435 63.3556 36.7758C63.6174 37.408 64.0609 37.9484 64.6299 38.3286C65.1989 38.7088 65.8679 38.9118 66.5523 38.9118C67.4699 38.9118 68.35 38.5472 68.9989 37.8983C69.6478 37.2494 70.0124 36.3693 70.0124 35.4517ZM65.3989 35.4517C65.3989 35.2235 65.4665 35.0006 65.5933 34.8109C65.72 34.6212 65.9001 34.4734 66.1109 34.3861C66.3216 34.2988 66.5535 34.2759 66.7773 34.3205C67.001 34.365 67.2065 34.4748 67.3678 34.6361C67.5291 34.7974 67.639 35.0029 67.6835 35.2266C67.728 35.4504 67.7051 35.6823 67.6178 35.893C67.5305 36.1038 67.3827 36.2839 67.193 36.4107C67.0034 36.5374 66.7804 36.605 66.5523 36.605C66.2464 36.605 65.953 36.4835 65.7367 36.2672C65.5204 36.0509 65.3989 35.7576 65.3989 35.4517Z" fill="black"/>
<path d="M56.172 27.378C57.446 27.378 58.4787 26.3453 58.4787 25.0713C58.4787 23.7973 57.446 22.7646 56.172 22.7646C54.898 22.7646 53.8652 23.7973 53.8652 25.0713C53.8652 26.3453 54.898 27.378 56.172 27.378Z" fill="black"/>
<path d="M87.3129 30.8381C87.3129 31.144 87.4344 31.4374 87.6507 31.6537C87.867 31.87 88.1604 31.9915 88.4663 31.9915C88.7722 31.9915 89.0655 31.87 89.2818 31.6537C89.4981 31.4374 89.6196 31.144 89.6196 30.8381V29.6848C89.6196 29.3789 89.4981 29.0855 89.2818 28.8692C89.0655 28.6529 88.7722 28.5314 88.4663 28.5314C88.1604 28.5314 87.867 28.6529 87.6507 28.8692C87.4344 29.0855 87.3129 29.3789 87.3129 29.6848V30.8381Z" fill="black"/>
<path d="M88.4663 22.7646C88.1604 22.7646 87.867 22.8861 87.6507 23.1024C87.4344 23.3187 87.3129 23.612 87.3129 23.9179V25.0713C87.3129 25.3772 87.4344 25.6706 87.6507 25.8869C87.867 26.1031 88.1604 26.2247 88.4663 26.2247C88.7722 26.2247 89.0655 26.1031 89.2818 25.8869C89.4981 25.6706 89.6196 25.3772 89.6196 25.0713V23.9179C89.6196 23.612 89.4981 23.3187 89.2818 23.1024C89.0655 22.8861 88.7722 22.7646 88.4663 22.7646Z" fill="black"/>
<path d="M91.9264 26.2246H90.773C90.4671 26.2246 90.1737 26.3462 89.9574 26.5625C89.7411 26.7788 89.6196 27.0721 89.6196 27.378C89.6196 27.6839 89.7411 27.9773 89.9574 28.1936C90.1737 28.4099 90.4671 28.5314 90.773 28.5314H91.9264C92.2323 28.5314 92.5256 28.4099 92.7419 28.1936C92.9582 27.9773 93.0797 27.6839 93.0797 27.378C93.0797 27.0721 92.9582 26.7788 92.7419 26.5625C92.5256 26.3462 92.2323 26.2246 91.9264 26.2246Z" fill="black"/>
<path d="M86.1595 26.2246H85.0061C84.7002 26.2246 84.4068 26.3462 84.1905 26.5625C83.9742 26.7788 83.8527 27.0721 83.8527 27.378C83.8527 27.6839 83.9742 27.9773 84.1905 28.1936C84.4068 28.4099 84.7002 28.5314 85.0061 28.5314H86.1595C86.4654 28.5314 86.7588 28.4099 86.9751 28.1936C87.1914 27.9773 87.3129 27.6839 87.3129 27.378C87.3129 27.0721 87.1914 26.7788 86.9751 26.5625C86.7588 26.3462 86.4654 26.2246 86.1595 26.2246Z" fill="black"/>
<path d="M80.3927 43.5252C80.6986 43.5252 80.9919 43.4037 81.2082 43.1874C81.4245 42.9711 81.546 42.6777 81.546 42.3718V36.5819C81.546 36.276 81.4245 35.9827 81.2082 35.7664C80.9919 35.5501 80.6986 35.4286 80.3927 35.4286H74.6056C74.2997 35.4286 74.0064 35.5501 73.7901 35.7664C73.5738 35.9827 73.4523 36.276 73.4523 36.5819V42.3733C73.4523 42.6792 73.5738 42.9725 73.7901 43.1888C74.0064 43.4051 74.2997 43.5267 74.6056 43.5267L80.3927 43.5252ZM75.7547 37.7339H79.2393V41.2185H75.759L75.7547 37.7339Z" fill="black"/>
<path d="M58.7771 56.985C58.8783 57.0977 59.0008 57.1893 59.1375 57.2547C59.2742 57.32 59.4224 57.3578 59.5737 57.3658C59.725 57.3738 59.8764 57.352 60.0192 57.3015C60.1621 57.251 60.2936 57.1729 60.4062 57.0715L71.9399 46.6912C72.1591 46.4846 72.2887 46.2003 72.3011 45.8993C72.3135 45.5983 72.2075 45.3044 72.006 45.0805C71.8045 44.8566 71.5234 44.7204 71.2227 44.7011C70.9221 44.6817 70.6258 44.7808 70.3973 44.977L58.8636 55.3574C58.7509 55.4586 58.6593 55.5811 58.5939 55.7178C58.5286 55.8545 58.4909 56.0027 58.4828 56.154C58.4748 56.3053 58.4966 56.4567 58.5471 56.5995C58.5976 56.7424 58.6758 56.8739 58.7771 56.9865V56.985Z" fill="black"/>
<path d="M94.2331 51.5988V50.4454C94.2331 50.1395 94.1116 49.8462 93.8953 49.6299C93.679 49.4136 93.3856 49.2921 93.0797 49.2921C92.7738 49.2921 92.4805 49.4136 92.2642 49.6299C92.0479 49.8462 91.9264 50.1395 91.9264 50.4454V51.5988C91.9264 51.9047 92.0479 52.1981 92.2642 52.4144C92.4805 52.6307 92.7738 52.7522 93.0797 52.7522C93.3856 52.7522 93.679 52.6307 93.8953 52.4144C94.1116 52.1981 94.2331 51.9047 94.2331 51.5988Z" fill="black"/>
<path d="M95.5292 49.9091L96.3452 50.7252C96.5622 50.9414 96.8562 51.0626 97.1625 51.062C97.4689 51.0615 97.7625 50.9393 97.9787 50.7223C98.1949 50.5053 98.3161 50.2113 98.3155 49.9049C98.315 49.5986 98.1928 49.305 97.9758 49.0888L97.1598 48.2728C96.9417 48.0656 96.6514 47.9518 96.3506 47.9557C96.0498 47.9595 95.7625 48.0807 95.5498 48.2934C95.3371 48.5061 95.2159 48.7934 95.2121 49.0942C95.2082 49.395 95.322 49.6853 95.5292 49.9034V49.9091Z" fill="black"/>
<path d="M98.8466 44.6786H97.6932C97.3873 44.6786 97.094 44.8001 96.8777 45.0164C96.6614 45.2327 96.5399 45.5261 96.5399 45.832C96.5399 46.1378 96.6614 46.4312 96.8777 46.6475C97.094 46.8638 97.3873 46.9853 97.6932 46.9853H98.8466C99.1525 46.9853 99.4458 46.8638 99.6621 46.6475C99.8784 46.4312 100 46.1378 100 45.832C100 45.5261 99.8784 45.2327 99.6621 45.0164C99.4458 44.8001 99.1525 44.6786 98.8466 44.6786Z" fill="black"/>
<path d="M96.3452 43.7242C96.4967 43.7243 96.6468 43.6945 96.7868 43.6367C96.9268 43.5788 97.054 43.4939 97.1612 43.3868L97.9772 42.5708C98.1844 42.3527 98.2981 42.0624 98.2943 41.7616C98.2904 41.4609 98.1693 41.1735 97.9566 40.9608C97.7439 40.7481 97.4566 40.627 97.1558 40.6231C96.8551 40.6193 96.5647 40.733 96.3466 40.9402L95.5306 41.7562C95.3692 41.9175 95.2592 42.1231 95.2146 42.347C95.17 42.5708 95.1929 42.8029 95.2802 43.0137C95.3676 43.2246 95.5156 43.4048 95.7054 43.5315C95.8952 43.6582 96.1184 43.7258 96.3466 43.7256L96.3452 43.7242Z" fill="black"/>
<path d="M93.0797 38.9117C92.7738 38.9117 92.4805 39.0332 92.2642 39.2495C92.0479 39.4658 91.9264 39.7592 91.9264 40.0651V41.2185C91.9264 41.5243 92.0479 41.8177 92.2642 42.034C92.4805 42.2503 92.7738 42.3718 93.0797 42.3718C93.3856 42.3718 93.679 42.2503 93.8953 42.034C94.1116 41.8177 94.2331 41.5243 94.2331 41.2185V40.0651C94.2331 39.7592 94.1116 39.4658 93.8953 39.2495C93.679 39.0332 93.3856 38.9117 93.0797 38.9117Z" fill="black"/>
<path d="M89.8186 40.9402C89.6005 40.733 89.3101 40.6193 89.0094 40.6231C88.7086 40.627 88.4213 40.7481 88.2086 40.9608C87.9959 41.1735 87.8747 41.4609 87.8709 41.7616C87.867 42.0624 87.9808 42.3527 88.188 42.5708L89.004 43.3868C89.222 43.594 89.5124 43.7078 89.8132 43.7039C90.1139 43.7001 90.4013 43.5789 90.6139 43.3662C90.8266 43.1535 90.9478 42.8662 90.9517 42.5654C90.9555 42.2646 90.8417 41.9743 90.6346 41.7562L89.8186 40.9402Z" fill="black"/>
<path d="M32.4169 19.0493H35.877V27.5352H32.4169V19.0493Z" fill="#EAEAF0"/>
<path d="M63.7235 34.2997C58.1009 21.6126 52.334 18.8402 44.9813 21.7856C43.5957 22.309 42.3962 23.2311 41.5342 24.4355H26.7566C25.8984 23.2321 24.7037 22.3091 23.3225 21.7828C15.9697 18.8388 10.2029 21.6098 4.58022 34.2968C-1.04246 46.9839 0.327167 62.3381 6.02193 64.7501C11.2452 66.9444 17.0193 61.3044 20.638 55.2881C21.2522 54.2533 22.1241 53.3954 23.1686 52.7978C24.2132 52.2003 25.3947 51.8835 26.598 51.8785H41.6913C42.8949 51.8833 44.0767 52.1999 45.1215 52.7975C46.1663 53.395 47.0384 54.2531 47.6528 55.2881C51.2715 61.3073 57.0427 66.9487 62.2746 64.7559C67.9694 62.341 69.3462 46.9868 63.7235 34.2997Z" fill="#BD57FF"/>
<path d="M22.5037 36.1134H18.4669V32.0766H15.0068V36.1134H10.97V39.5735H15.0068V43.6103H18.4669V39.5735H22.5037V36.1134Z" fill="#EAEAF0"/>
<path d="M49.7275 34.8634C51.0015 34.8634 52.0343 33.8306 52.0343 32.5567C52.0343 31.2827 51.0015 30.2499 49.7275 30.2499C48.4535 30.2499 47.4208 31.2827 47.4208 32.5567C47.4208 33.8306 48.4535 34.8634 49.7275 34.8634Z" fill="#EAEAF0"/>
<path d="M49.7275 45.437C51.0015 45.437 52.0343 44.4042 52.0343 43.1302C52.0343 41.8562 51.0015 40.8235 49.7275 40.8235C48.4535 40.8235 47.4208 41.8562 47.4208 43.1302C47.4208 44.4042 48.4535 45.437 49.7275 45.437Z" fill="#EAEAF0"/>
<path d="M55.0143 40.1502C56.2882 40.1502 57.321 39.1174 57.321 37.8434C57.321 36.5694 56.2882 35.5367 55.0143 35.5367C53.7403 35.5367 52.7075 36.5694 52.7075 37.8434C52.7075 39.1174 53.7403 40.1502 55.0143 40.1502Z" fill="#EAEAF0"/>
<path d="M44.4421 40.1502C45.7161 40.1502 46.7489 39.1174 46.7489 37.8434C46.7489 36.5694 45.7161 35.5367 44.4421 35.5367C43.1681 35.5367 42.1354 36.5694 42.1354 37.8434C42.1354 39.1174 43.1681 40.1502 44.4421 40.1502Z" fill="#EAEAF0"/>
<path d="M65.7291 36.6108C65.6346 36.3642 65.4472 36.1645 65.2071 36.0545C64.9671 35.9446 64.6935 35.9331 64.445 36.0225C64.1966 36.1119 63.9931 36.2951 63.8782 36.5329C63.7632 36.7706 63.7461 37.0439 63.8304 37.2941C68.1555 49.305 66.3735 61.9185 61.8855 63.8216C57.2143 65.7794 51.7647 60.1654 48.5179 54.7648C47.8095 53.5852 46.8096 52.6077 45.6144 51.926C44.4192 51.2443 43.0688 50.8814 41.6929 50.8722H26.5996C25.2237 50.8814 23.8733 51.2443 22.6781 51.926C21.4828 52.6077 20.483 53.5852 19.7745 54.7648C16.5278 60.1654 11.0796 65.778 6.40843 63.823C5.21181 63.3184 4.16945 62.0137 3.39526 60.0458C1.25576 54.6336 1.29036 44.1869 5.49439 34.7019C11.7702 20.5429 17.5889 20.5775 22.9463 22.7213C24.1472 23.1718 25.187 23.9693 25.9335 25.0122C26.026 25.145 26.1491 25.2536 26.2924 25.3289C26.4356 25.4042 26.5949 25.4439 26.7567 25.4447H41.5343C41.6964 25.4441 41.8559 25.4045 41.9995 25.3292C42.143 25.254 42.2663 25.1452 42.3589 25.0122C43.1041 23.9668 44.1434 23.1668 45.3447 22.7141C50.7713 20.5429 54.713 21.8404 58.5335 27.0306C58.6112 27.1394 58.7097 27.2317 58.8234 27.3021C58.937 27.3725 59.0636 27.4197 59.1956 27.4408C59.3276 27.4619 59.4625 27.4566 59.5925 27.4251C59.7224 27.3936 59.8448 27.3366 59.9525 27.2574C60.0603 27.1783 60.1512 27.0785 60.2201 26.9638C60.2889 26.8492 60.3343 26.7221 60.3535 26.5898C60.3728 26.4575 60.3656 26.3226 60.3324 26.1931C60.2991 26.0636 60.2404 25.942 60.1598 25.8354C55.8159 19.9244 50.8751 18.3385 44.6008 20.8529C43.2088 21.3875 41.9793 22.2742 41.0326 23.4263H36.8848V19.0493C36.8848 18.7816 36.7784 18.5249 36.5892 18.3357C36.3999 18.1464 36.1432 18.0401 35.8756 18.0401H35.1547V9.0092C35.1547 8.74154 35.0484 8.48485 34.8591 8.29559C34.6699 8.10633 34.4132 8 34.1455 8C33.8779 8 33.6212 8.10633 33.4319 8.29559C33.2426 8.48485 33.1363 8.74154 33.1363 9.0092V18.0401H32.4155C32.1478 18.0401 31.8911 18.1464 31.7019 18.3357C31.5126 18.5249 31.4063 18.7816 31.4063 19.0493V20.3468C31.4063 20.6145 31.5126 20.8712 31.7019 21.0604C31.8911 21.2497 32.1478 21.356 32.4155 21.356C32.6831 21.356 32.9398 21.2497 33.1291 21.0604C33.3183 20.8712 33.4247 20.6145 33.4247 20.3468V20.0585H34.8664V23.4263H27.2585C26.3144 22.2731 25.0875 21.3845 23.6974 20.8471C15.3196 17.498 9.13615 21.516 3.65765 33.8917C-0.778499 43.8871 -0.774173 54.9911 1.51959 60.7955C2.49995 63.2709 3.91716 64.962 5.62558 65.6857C6.5072 66.0569 7.45441 66.2471 8.41097 66.2451C13.3733 66.2451 18.2723 61.1789 21.5017 55.8014C22.023 54.913 22.7674 54.1763 23.661 53.6642C24.5547 53.1521 25.5667 52.8824 26.5967 52.8819H41.6914C42.7214 52.8824 43.7334 53.1521 44.6271 53.6642C45.5208 54.1763 46.2652 54.913 46.7864 55.8014C50.6243 62.1853 56.8092 68.1309 62.6683 65.6785C68.7005 63.1224 70.1883 48.9936 65.7291 36.6064V36.6108Z" fill="#2D1418"/>
<path d="M62.0021 32.9906C62.1193 33.2297 62.3262 33.4129 62.5778 33.5001C62.8293 33.5874 63.1052 33.5717 63.3453 33.4564C63.5853 33.3411 63.7701 33.1357 63.8593 32.8848C63.9485 32.6339 63.9349 32.3579 63.8216 32.1169C63.4251 31.2923 63.0229 30.5022 62.6235 29.7684C62.4954 29.5332 62.2791 29.3586 62.0223 29.2829C61.7654 29.2072 61.489 29.2366 61.2539 29.3647C61.0187 29.4928 60.8441 29.7091 60.7684 29.9659C60.6927 30.2228 60.7221 30.4992 60.8502 30.7343C61.2351 31.4393 61.6215 32.1977 62.0021 32.9906Z" fill="#2D1418"/>
<path d="M63.7352 53.9459H63.7885C64.0472 53.9462 64.2961 53.8473 64.4839 53.6694C64.6717 53.4915 64.7841 53.2483 64.7977 52.99C64.9276 50.1723 64.7473 47.3488 64.26 44.5704C64.2373 44.4398 64.189 44.3149 64.1181 44.2029C64.0471 44.0909 63.9547 43.994 63.8463 43.9177C63.7378 43.8414 63.6154 43.7872 63.4861 43.7582C63.3567 43.7292 63.2228 43.7259 63.0922 43.7487C62.9616 43.7714 62.8367 43.8196 62.7247 43.8906C62.6127 43.9616 62.5158 44.0539 62.4395 44.1624C62.3631 44.2708 62.3089 44.3932 62.2799 44.5226C62.2509 44.652 62.2477 44.7858 62.2704 44.9164C62.7321 47.5458 62.9033 50.218 62.7808 52.8848C62.7738 53.0172 62.793 53.1498 62.8372 53.2748C62.8815 53.3998 62.95 53.5149 63.0388 53.6135C63.1275 53.712 63.2349 53.7921 63.3546 53.8491C63.4744 53.9062 63.6042 53.9391 63.7366 53.9459H63.7352Z" fill="#2D1418"/>
<path d="M15.0067 44.6195H18.4668C18.7344 44.6195 18.9911 44.5131 19.1804 44.3239C19.3697 44.1346 19.476 43.8779 19.476 43.6103V40.5827H22.5036C22.7712 40.5827 23.0279 40.4764 23.2172 40.2871C23.4065 40.0978 23.5128 39.8411 23.5128 39.5735V36.1134C23.5128 35.8457 23.4065 35.589 23.2172 35.3998C23.0279 35.2105 22.7712 35.1042 22.5036 35.1042H19.476V32.0766C19.476 31.8089 19.3697 31.5522 19.1804 31.363C18.9911 31.1737 18.7344 31.0674 18.4668 31.0674H15.0067C14.739 31.0674 14.4823 31.1737 14.2931 31.363C14.1038 31.5522 13.9975 31.8089 13.9975 32.0766V35.1042H10.9699C10.7022 35.1042 10.4455 35.2105 10.2563 35.3998C10.067 35.589 9.96069 35.8457 9.96069 36.1134V39.5735C9.96069 39.8411 10.067 40.0978 10.2563 40.2871C10.4455 40.4764 10.7022 40.5827 10.9699 40.5827H13.9975V43.6103C13.9975 43.8779 14.1038 44.1346 14.2931 44.3239C14.4823 44.5131 14.739 44.6195 15.0067 44.6195ZM11.9791 38.5643V37.1226H15.0067C15.2743 37.1226 15.531 37.0162 15.7203 36.827C15.9096 36.6377 16.0159 36.381 16.0159 36.1134V33.0858H17.4576V36.1134C17.4576 36.381 17.5639 36.6377 17.7532 36.827C17.9424 37.0162 18.1991 37.1226 18.4668 37.1226H21.4944V38.5643H18.4668C18.1991 38.5643 17.9424 38.6706 17.7532 38.8599C17.5639 39.0491 17.4576 39.3058 17.4576 39.5735V42.6011H16.0159V39.5735C16.0159 39.3058 15.9096 39.0491 15.7203 38.8599C15.531 38.6706 15.2743 38.5643 15.0067 38.5643H11.9791Z" fill="#2D1418"/>
<path d="M30.0423 45.5796C29.7746 45.5796 29.5179 45.6859 29.3287 45.8752C29.1394 46.0645 29.0331 46.3212 29.0331 46.5888C29.0331 46.8565 29.1394 47.1132 29.3287 47.3024C29.5179 47.4917 29.7746 47.598 30.0423 47.598H38.2485C38.5161 47.598 38.7728 47.4917 38.9621 47.3024C39.1514 47.1132 39.2577 46.8565 39.2577 46.5888C39.2577 46.3212 39.1514 46.0645 38.9621 45.8752C38.7728 45.6859 38.5161 45.5796 38.2485 45.5796H30.0423Z" fill="#2D1418"/>
<path d="M49.7274 35.8726C50.3833 35.8726 51.0244 35.6781 51.5697 35.3138C52.115 34.9494 52.54 34.4315 52.7909 33.8256C53.0419 33.2197 53.1076 32.553 52.9796 31.9098C52.8517 31.2666 52.5359 30.6757 52.0721 30.212C51.6084 29.7482 51.0176 29.4324 50.3743 29.3045C49.7311 29.1765 49.0644 29.2422 48.4585 29.4932C47.8526 29.7441 47.3347 30.1691 46.9703 30.7145C46.606 31.2598 46.4115 31.9009 46.4115 32.5567C46.4115 33.4361 46.7609 34.2795 47.3827 34.9014C48.0046 35.5233 48.848 35.8726 49.7274 35.8726ZM49.7274 31.2591C49.9841 31.2591 50.2349 31.3352 50.4483 31.4778C50.6617 31.6204 50.828 31.823 50.9262 32.0601C51.0244 32.2972 51.0501 32.5581 51 32.8098C50.95 33.0615 50.8264 33.2927 50.6449 33.4742C50.4635 33.6556 50.2323 33.7792 49.9806 33.8293C49.7289 33.8794 49.468 33.8537 49.2309 33.7555C48.9938 33.6572 48.7911 33.4909 48.6486 33.2776C48.506 33.0642 48.4299 32.8133 48.4299 32.5567C48.4299 32.2126 48.5666 31.8825 48.8099 31.6392C49.0533 31.3958 49.3833 31.2591 49.7274 31.2591Z" fill="#2D1418"/>
<path d="M49.7274 46.4461C50.3833 46.4461 51.0244 46.2516 51.5697 45.8873C52.115 45.5229 52.54 45.005 52.7909 44.3991C53.0419 43.7932 53.1076 43.1265 52.9796 42.4833C52.8517 41.84 52.5359 41.2492 52.0721 40.7855C51.6084 40.3217 51.0176 40.0059 50.3743 39.878C49.7311 39.75 49.0644 39.8157 48.4585 40.0667C47.8526 40.3176 47.3347 40.7426 46.9703 41.2879C46.606 41.8332 46.4115 42.4743 46.4115 43.1302C46.4115 44.0096 46.7609 44.853 47.3827 45.4749C48.0046 46.0967 48.848 46.4461 49.7274 46.4461ZM49.7274 41.8326C49.9841 41.8326 50.2349 41.9087 50.4483 42.0513C50.6617 42.1939 50.828 42.3965 50.9262 42.6336C51.0244 42.8707 51.0501 43.1316 51 43.3833C50.95 43.635 50.8264 43.8662 50.6449 44.0477C50.4635 44.2291 50.2323 44.3527 49.9806 44.4028C49.7289 44.4528 49.468 44.4271 49.2309 44.3289C48.9938 44.2307 48.7911 44.0644 48.6486 43.851C48.506 43.6377 48.4299 43.3868 48.4299 43.1302C48.4299 42.786 48.5666 42.456 48.8099 42.2127C49.0533 41.9693 49.3833 41.8326 49.7274 41.8326Z" fill="#2D1418"/>
<path d="M58.3301 37.8434C58.3301 37.1876 58.1357 36.5465 57.7713 36.0012C57.4069 35.4559 56.8891 35.0309 56.2832 34.7799C55.6772 34.5289 55.0105 34.4633 54.3673 34.5912C53.7241 34.7192 53.1332 35.035 52.6695 35.4987C52.2057 35.9625 51.8899 36.5533 51.762 37.1965C51.634 37.8398 51.6997 38.5065 51.9507 39.1124C52.2016 39.7183 52.6266 40.2362 53.172 40.6005C53.7173 40.9649 54.3584 41.1594 55.0142 41.1594C55.8936 41.1594 56.7371 40.81 57.3589 40.1881C57.9808 39.5663 58.3301 38.7229 58.3301 37.8434ZM53.7166 37.8434C53.7166 37.5868 53.7927 37.3359 53.9353 37.1226C54.0779 36.9092 54.2805 36.7429 54.5176 36.6447C54.7547 36.5465 55.0156 36.5208 55.2673 36.5708C55.519 36.6209 55.7502 36.7445 55.9317 36.9259C56.1132 37.1074 56.2367 37.3386 56.2868 37.5903C56.3369 37.842 56.3112 38.1029 56.213 38.34C56.1148 38.5771 55.9484 38.7797 55.7351 38.9223C55.5217 39.0649 55.2708 39.141 55.0142 39.141C54.6701 39.141 54.34 39.0043 54.0967 38.7609C53.8534 38.5176 53.7166 38.1876 53.7166 37.8434Z" fill="#2D1418"/>
<path d="M41.1233 37.8434C41.1233 38.4993 41.3178 39.1404 41.6821 39.6857C42.0465 40.231 42.5644 40.656 43.1703 40.9069C43.7762 41.1579 44.4429 41.2236 45.0861 41.0956C45.7294 40.9677 46.3202 40.6519 46.7839 40.1881C47.2477 39.7244 47.5635 39.1336 47.6914 38.4903C47.8194 37.8471 47.7537 37.1804 47.5027 36.5745C47.2518 35.9686 46.8268 35.4507 46.2815 35.0863C45.7362 34.722 45.0951 34.5275 44.4392 34.5275C43.5598 34.5275 42.7164 34.8769 42.0945 35.4987C41.4726 36.1206 41.1233 36.964 41.1233 37.8434ZM45.7368 37.8434C45.7368 38.1001 45.6607 38.3509 45.5181 38.5643C45.3755 38.7777 45.1729 38.944 44.9358 39.0422C44.6987 39.1404 44.4378 39.1661 44.1861 39.116C43.9344 39.066 43.7032 38.9424 43.5217 38.7609C43.3403 38.5795 43.2167 38.3483 43.1666 38.0966C43.1166 37.8449 43.1422 37.584 43.2405 37.3469C43.3387 37.1098 43.505 36.9071 43.7184 36.7646C43.9317 36.622 44.1826 36.5459 44.4392 36.5459C44.7834 36.5459 45.1134 36.6826 45.3567 36.9259C45.6001 37.1693 45.7368 37.4993 45.7368 37.8434Z" fill="#2D1418"/>
</g>
<defs>
<clipPath id="clip0">
<rect y="8" width="100" height="83.9667" fill="white"/>
</clipPath>
</defs>
</svg>
