<svg width="100" height="100" viewBox="0 0 100 100" fill="none" xmlns="http://www.w3.org/2000/svg">
<path d="M70.256 22.0226L72.6481 26.6382L77.997 27.3784L74.1265 30.971L75.0403 36.044L70.256 33.6489L65.4718 36.044L66.3855 30.971L62.515 27.3784L67.864 26.6382L70.256 22.0226Z" fill="#FFD740"/>
<path d="M78.5745 3.99168L85.918 6.44796L92.1681 1.76947L92.0283 9.53756L98.3473 13.9898L90.9173 16.3345L88.5726 23.7645L84.1204 17.4455L76.3523 17.5853L81.0308 11.3352L78.5745 3.99168Z" fill="#FFD740"/>
<path d="M98.0006 69.6403L90.4403 39.4281C90.0197 37.7584 88.3252 36.7459 86.6557 37.1664C86.0683 37.3144 85.5369 37.6301 85.1262 38.0751C80.1602 43.3983 71.502 45.7577 66.6336 46.976C61.7652 48.1943 53.0153 50.1914 46.1272 47.8338C44.5013 47.2675 42.7241 48.1265 42.1578 49.7524C41.9586 50.3246 41.9303 50.9423 42.0766 51.5302L49.6367 81.7424C52.9796 95.0974 79.4919 98.3615 79.4919 98.3615C79.4919 98.3615 101.342 82.9963 98.0006 69.6403ZM57.6817 68.3891C54.0433 67.9548 51.5557 63.7347 51.5557 63.7347C51.5557 63.7347 54.9666 60.2192 58.6053 60.6535C62.2441 61.0878 64.7314 65.3079 64.7314 65.3079C64.7314 65.3079 61.3199 68.8232 57.6817 68.3891ZM74.9577 80.2415C70.7842 81.2857 68.1573 85.155 68.1573 85.155C65.707 75.363 73.359 74.2689 73.4408 74.1801C79.4903 72.6833 82.2265 77.1986 83.2707 81.3731C83.2707 81.3731 79.1312 79.1971 74.9577 80.2415ZM84.7727 61.5402C81.8541 63.5764 77.2595 62.0329 77.2595 62.0329C77.2595 62.0329 77.3959 57.1879 80.3154 55.1516C83.235 53.1154 87.8286 54.659 87.8286 54.659C87.8286 54.659 87.6903 59.5039 84.7719 61.5402H84.7727Z" fill="#E56161"/>
<path d="M53.2879 11.1098C46.4686 13.6545 37.6662 11.896 32.7667 10.8119C27.8672 9.72772 19.1462 7.60464 14.0381 2.41864C12.8362 1.18573 10.8624 1.16041 9.62953 2.36236C9.19584 2.78515 8.89457 3.32517 8.76273 3.91641L2.0295 34.3235C-0.946746 47.7646 21.3149 62.5291 21.3149 62.5291C21.3149 62.5291 47.7284 58.5431 50.7046 45.1017L57.4379 14.6946C57.8075 13.0128 56.7438 11.3499 55.062 10.9801C54.4706 10.8502 53.8542 10.8952 53.2879 11.1098ZM11.79 19.0701C11.79 19.0701 16.412 17.4487 19.473 19.4625C22.5339 21.4763 22.8749 26.3626 22.8749 26.3626C22.8749 26.3626 18.2527 27.9841 15.1918 25.9702C12.1308 23.9564 11.79 19.0701 11.79 19.0701ZM33.6351 42.9185C32.7044 47.1183 28.5457 49.7686 24.3458 48.8387C20.146 47.908 17.4958 43.7493 18.4257 39.5494L19.0993 36.5072L34.3102 39.8762L33.6351 42.9185ZM42.4873 31.9455C38.9665 32.4635 35.5455 29.03 35.5455 29.03C35.5455 29.03 37.8327 24.7568 41.3537 24.2394C44.8746 23.7219 48.2955 27.155 48.2955 27.155C48.2955 27.155 46.009 31.4271 42.488 31.9449L42.4873 31.9455Z" fill="#B2EBF2"/>
<path d="M98 69.6405L95.1928 58.4186C91.9313 65.471 87.1188 71.6954 81.1145 76.6271C82.1696 77.9965 82.8553 79.712 83.2711 81.3741C83.2711 81.3741 80.1116 79.7135 76.5304 79.9901C74.1649 81.5319 71.6761 82.8758 69.0893 84.0078C68.7551 84.371 68.4439 84.7547 68.1577 85.1568C68.1012 84.9309 68.0492 84.7019 68.0019 84.4699C63.3573 86.3757 58.4572 87.5864 53.4595 88.0631C61.7417 96.1747 79.4913 98.3617 79.4913 98.3617C79.4913 98.3617 101.342 82.9965 98 69.6405Z" fill="#D65858"/>
<path d="M21.315 62.5289C21.315 62.5289 47.7285 58.5429 50.7048 45.1016L53.5042 32.4607C47.8354 39.664 39.9702 44.82 31.1036 47.1452C28.8736 49.0603 25.7548 49.5556 23.0412 48.4257C16.6204 48.8286 10.1927 47.7497 4.25537 45.272C9.52822 54.7098 21.315 62.5289 21.315 62.5289Z" fill="#80DEEA"/>
<path d="M11.8825 10.6285C13.6033 10.6285 14.9984 9.23343 14.9984 7.51258C14.9984 5.79173 13.6033 4.3967 11.8825 4.3967C10.1616 4.3967 8.7666 5.79173 8.7666 7.51258C8.7666 9.23343 10.1616 10.6285 11.8825 10.6285Z" fill="#E0F7FA"/>
<path d="M18.1131 13.7444C18.9735 13.7444 19.6711 13.0469 19.6711 12.1865C19.6711 11.3261 18.9735 10.6285 18.1131 10.6285C17.2527 10.6285 16.5552 11.3261 16.5552 12.1865C16.5552 13.0469 17.2527 13.7444 18.1131 13.7444Z" fill="#E0F7FA"/>
<path d="M87.4418 46.9495C89.1627 46.9495 90.5577 45.5545 90.5577 43.8337C90.5577 42.1128 89.1627 40.7178 87.4418 40.7178C85.721 40.7178 84.3259 42.1128 84.3259 43.8337C84.3259 45.5545 85.721 46.9495 87.4418 46.9495Z" fill="#F29C9C"/>
<path d="M81.2099 50.0655C82.0703 50.0655 82.7679 49.368 82.7679 48.5076C82.7679 47.6471 82.0703 46.9496 81.2099 46.9496C80.3495 46.9496 79.652 47.6471 79.652 48.5076C79.652 49.368 80.3495 50.0655 81.2099 50.0655Z" fill="#F29C9C"/>
<path d="M88.5722 23.7646L90.9169 16.3346L98.3469 13.9899L93.8827 10.8446C89.6762 13.9301 84.0563 15.6352 78.0158 15.3626L76.3519 17.5854L84.12 17.4456L88.5722 23.7646Z" fill="#FFC400"/>
<path d="M75.0396 36.0443L74.1259 30.9712L77.9964 27.3782L74.2482 26.8596C72.8643 30.5857 69.683 33.3541 65.8014 34.21L65.4703 36.0441L70.2546 33.6488L75.0396 36.0443Z" fill="#FFC400"/>
<path d="M24.8515 8.82893C25.1566 8.02445 24.7518 7.12493 23.9473 6.81977L23.7742 6.75355C22.9714 6.44352 22.0696 6.84294 21.7596 7.64567C21.009 9.58881 24.1101 10.7839 24.8515 8.82893Z" fill="black"/>
<path d="M52.0288 45.5189C59.0763 13.5132 58.8756 15.0327 58.8756 14.0822C58.8648 11.5009 56.7636 9.41714 54.1823 9.42805C53.6233 9.43038 53.0693 9.53301 52.5464 9.73087C45.9573 12.1891 36.7621 10.421 29.7321 8.62084C28.8986 8.4074 28.0499 8.91003 27.8365 9.74372C27.6231 10.5774 28.1257 11.4259 28.9594 11.6393C47.8689 16.481 52.6933 12.5443 54.2025 12.5443C55.0629 12.5465 55.7587 13.2458 55.7566 14.1062C55.7564 14.2179 55.7439 14.3291 55.7199 14.4382L48.9867 44.8453C46.5112 56.0249 25.3276 60.2847 21.4815 60.968C18.4931 58.8722 3.11686 47.5664 3.11686 36.9425C3.11686 34.9366 3.00332 36.7109 10.0871 4.33377C10.2738 3.49385 11.106 2.96434 11.9459 3.15091C12.2456 3.21751 12.5188 3.37116 12.7315 3.59258C13.9562 4.81576 15.3202 5.89094 16.7956 6.79629C17.5218 7.25783 18.4846 7.04342 18.9461 6.31723C19.4077 5.59103 19.1932 4.62822 18.4671 4.16668C18.4595 4.16182 18.4519 4.15714 18.4443 4.15247C17.1767 3.37642 16.0043 2.4547 14.9514 1.40582C12.35 -1.23509 7.8491 0.0289881 7.04482 3.66094C0.0689415 35.654 0.000976562 34.3549 0.000976562 36.9425C0.000976562 50.3201 19.4299 63.3597 20.2569 63.9081C20.5788 64.1215 20.9685 64.2078 21.3504 64.1501C22.4719 63.9807 48.8576 59.8395 52.0288 45.5189Z" fill="black"/>
<path d="M18.0633 35.2741C17.1732 35.8418 17.4059 36.6594 16.7062 39.2932C15.573 44.3299 18.7375 49.3315 23.7742 50.4647C28.8108 51.5979 33.8124 48.4333 34.9456 43.3967C34.9503 43.3762 34.9547 43.3556 34.9592 43.3351L35.633 40.2929C35.819 39.4527 35.2889 38.621 34.4488 38.435C18.5786 35.0868 19.0386 34.6519 18.0633 35.2741ZM19.7485 39.9674L20.0852 38.4463L32.254 41.141L31.9171 42.6621C31.1832 46.0247 27.8622 48.1554 24.4998 47.4214C21.1374 46.6874 19.0065 43.3665 19.7405 40.0041C19.743 39.9918 19.7457 39.9797 19.7485 39.9674Z" fill="black"/>
<path d="M49.4722 27.9695C49.7957 27.365 49.6863 26.6203 49.2023 26.1347C49.0399 25.9717 45.1793 22.1506 40.9301 22.7773C36.6808 23.404 34.0837 28.1717 33.975 28.3748C33.6516 28.9793 33.7612 29.7241 34.2451 30.2096C34.3951 30.3602 37.7067 33.6359 41.5628 33.6359C45.0029 33.6359 48.0199 30.6834 49.4722 27.9695ZM37.3935 28.8094C39.9713 25.308 42.5712 24.9202 46.0537 27.5352C43.4753 31.0365 40.8767 31.4237 37.3935 28.8094Z" fill="black"/>
<path d="M11.0764 17.6805C10.4139 17.9128 9.98878 18.5596 10.0381 19.2599C10.054 19.4906 10.4747 24.9432 14.1378 27.3532C16.6831 29.028 20.5298 28.8469 23.1933 27.914C23.8554 27.6817 24.2806 27.0354 24.2317 26.3355C24.2157 26.1047 23.7953 20.6523 20.1319 18.2423C16.4686 15.8324 11.2951 17.6046 11.0764 17.6805ZM20.9263 25.291C16.5613 26.1372 14.2875 24.6094 13.3434 20.3027C17.6671 19.4665 19.9723 20.9411 20.9263 25.291Z" fill="black"/>
<path d="M69.9317 44.4984C65.8403 45.7143 60.2888 47.0378 55.7768 47.3611C54.9186 47.4219 54.2721 48.1669 54.3328 49.0252C54.3907 49.8406 55.0689 50.4727 55.8865 50.4731C59.1581 50.4731 66.6649 48.7204 70.8191 47.4855C71.6441 47.2405 72.114 46.3732 71.869 45.5482C71.624 44.7233 70.7566 44.2534 69.9317 44.4984Z" fill="black"/>
<path d="M91.7538 39.1309C90.856 35.5428 86.3286 34.3712 83.7906 37.0929C82.9341 37.9979 81.988 38.8135 80.9668 39.5272C80.2585 40.0158 80.0805 40.986 80.5691 41.6943C81.0577 42.4026 82.0279 42.5806 82.7362 42.092C82.7465 42.0848 82.7569 42.0776 82.767 42.0702C86.1565 39.6709 85.9785 38.7099 87.2135 38.7099C87.9316 38.7007 88.5608 39.1886 88.7306 39.8863C96.6471 71.9589 96.5929 70.317 96.5929 72.5931C96.5929 83.1381 81.787 94.6575 78.8865 96.8113C75.0227 96.2327 53.7313 92.5529 50.9519 81.4448L45.8165 60.9189C45.6078 60.0842 44.7618 59.5767 43.9271 59.7855C43.0925 59.9943 42.585 60.8402 42.7937 61.6751L47.9291 82.201C51.4896 96.4302 77.9779 99.8499 79.1041 99.9884C79.4875 100.035 79.8747 99.9381 80.1905 99.7157C80.987 99.1562 99.7088 85.8399 99.7088 72.5931C99.7088 69.6591 99.532 70.7657 91.7538 39.1309Z" fill="black"/>
<path d="M77.8476 43.1881C77.501 42.4006 76.5818 42.0432 75.7943 42.3897L75.6248 42.4637C74.8354 42.8054 74.4722 43.7223 74.8137 44.512C75.6422 46.4265 78.6883 45.0991 77.8476 43.1881Z" fill="black"/>
<path d="M69.2466 86.1149C69.2697 86.081 71.6152 82.7157 75.1385 81.8341C78.6618 80.9525 82.3157 82.8166 82.3484 82.8335C83.1112 83.2329 84.0534 82.9383 84.4528 82.1755C84.6299 81.8376 84.6766 81.4464 84.5847 81.0762C82.9294 74.4571 78.5488 71.3429 72.8693 72.7492C67.8703 73.8203 64.6368 78.3745 66.4485 85.6146C66.661 86.4499 67.5102 86.9551 68.3457 86.7426C68.712 86.6493 69.0321 86.4263 69.2466 86.1149ZM73.6214 75.7727C77.1839 74.8933 79.2627 76.5932 80.4764 78.8898C76.1085 77.8497 72.4076 78.7761 69.045 81.7506C69.0318 79.1525 70.0651 76.674 73.6214 75.772V75.7727Z" fill="black"/>
<path d="M89.1873 54.7836C89.2068 54.0983 88.776 53.481 88.1261 53.2627C87.9084 53.1899 82.7471 51.4977 79.2264 53.9548C75.7056 56.4119 75.5111 61.8395 75.5047 62.0695C75.4852 62.7548 75.916 63.3722 76.5658 63.5905C79.2338 64.4849 83.0227 64.6031 85.4655 62.8984C88.9873 60.4415 89.1809 55.0146 89.1873 54.7836ZM78.7561 60.9311C79.4981 56.6497 81.6468 55.1396 85.93 55.9213C85.1296 59.4639 83.0724 61.7211 78.7561 60.9311Z" fill="black"/>
<path d="M50.2395 62.7314C49.7509 63.235 49.6594 64.0031 50.0158 64.6075C50.1326 64.8068 52.9453 69.4969 57.2992 70.0165C60.3237 70.3785 63.6867 68.4962 65.6511 66.4734C66.1397 65.9698 66.2314 65.2015 65.8748 64.597C65.758 64.3978 62.9453 59.7076 58.5915 59.188C54.2376 58.6685 50.4008 62.5649 50.2395 62.7314ZM62.4483 65.1359C59.0059 67.7947 56.269 67.5715 53.4392 64.0648C56.9496 61.3717 59.6674 61.6926 62.4483 65.1359Z" fill="black"/>
<path d="M64.5035 31.6141L63.7409 35.8486C63.5894 36.6961 64.1538 37.506 65.0013 37.6573C65.3314 37.7163 65.6716 37.6673 65.9715 37.5177L70.0584 35.4717L74.1452 37.5177C74.9162 37.9017 75.8526 37.5878 76.2364 36.817C76.3856 36.5175 76.4344 36.1781 76.3758 35.8486L75.6132 31.6141L78.8592 28.6008C79.4894 28.0141 79.5246 27.0275 78.9379 26.3973C78.694 26.1354 78.3675 25.9654 78.013 25.9157L73.4627 25.2861L71.4416 21.3864C71.0444 20.6224 70.103 20.3252 69.339 20.7225C69.0547 20.8703 68.8229 21.1023 68.6751 21.3864L66.6541 25.2861L62.1031 25.9157C61.2504 26.0351 60.656 26.8232 60.7754 27.676C60.825 28.0304 60.9951 28.357 61.257 28.6008L64.5035 31.6141ZM69.0496 27.4357L70.0584 25.4883L71.0671 27.4357C71.6401 28.5412 72.8428 28.2242 74.3318 28.5519L72.8691 29.9099C72.4796 30.2709 72.7577 33.3387 72.7577 33.3387C71.2181 32.7027 70.4492 31.7915 69.361 32.3366L67.359 33.3387C67.359 33.3387 67.6368 30.2709 67.2477 29.9099L65.7849 28.5519C67.2638 28.2265 68.4759 28.5428 69.0496 27.4357Z" fill="black"/>
<path d="M76.1834 19.2234L83.1256 19.0983L87.1023 24.7422C87.5995 25.4454 88.5726 25.6123 89.2758 25.1149C89.5531 24.9188 89.7588 24.6374 89.8616 24.3137L91.9621 17.6567L98.6194 15.5558C99.4402 15.2954 99.8943 14.4189 99.634 13.5982C99.5311 13.2742 99.3253 12.9928 99.0478 12.7965L93.404 8.82001L93.529 1.87783C93.5426 1.01687 92.8559 0.307815 91.995 0.293988C91.6505 0.288536 91.3138 0.397202 91.0376 0.603434L85.4411 4.79176L78.8709 2.59448C78.0538 2.32301 77.1712 2.76547 76.8999 3.5828C76.794 3.90198 76.794 4.24707 76.9001 4.56625L79.0976 11.1357L74.9083 16.732C74.3926 17.4208 74.533 18.3973 75.2218 18.9129C75.4989 19.1203 75.8374 19.2296 76.1834 19.2234ZM82.3114 10.9213L80.846 6.54055L85.2277 8.00579C85.7124 8.16801 90.3568 5.00481 90.3568 5.00481C90.3568 5.00481 90.5126 10.5939 90.9346 10.8915L94.6815 13.5312L90.252 14.9291C89.7675 15.082 87.8372 20.3753 87.8372 20.3753L84.9079 15.9686L79.3104 16.0512C79.3104 16.0512 82.4736 11.4062 82.3114 10.9213Z" fill="black"/>
<path d="M17.1368 87.5365C16.2764 87.5365 15.5789 88.2341 15.5789 89.0944V98.4421C15.5789 99.3025 16.2764 100 17.1368 100C17.9972 100 18.6947 99.3025 18.6947 98.4421V89.0944C18.6947 88.2341 17.9972 87.5365 17.1368 87.5365Z" fill="black"/>
<path d="M17.1368 65.7254C16.2764 65.7254 15.5789 66.4229 15.5789 67.2833V76.631C15.5789 77.4913 16.2764 78.1889 17.1368 78.1889C17.9972 78.1889 18.6947 77.4913 18.6947 76.631V67.2833C18.6947 66.4229 17.9972 65.7254 17.1368 65.7254Z" fill="black"/>
<path d="M17.1368 84.4207C17.9972 84.4207 18.6947 83.7232 18.6947 82.8628C18.6947 82.0023 17.9972 81.3048 17.1368 81.3048C16.2764 81.3048 15.5789 82.0023 15.5789 82.8628C15.5789 83.7232 16.2764 84.4207 17.1368 84.4207Z" fill="black"/>
<path d="M32.7166 81.3048H23.369C22.5086 81.3048 21.811 82.0024 21.811 82.8628C21.811 83.7231 22.5086 84.4207 23.369 84.4207H32.7166C33.577 84.4207 34.2746 83.7231 34.2746 82.8628C34.2746 82.0024 33.577 81.3048 32.7166 81.3048Z" fill="black"/>
<path d="M25.384 72.4135L22.2681 75.5294C21.6607 76.1401 21.6632 77.1276 22.2739 77.735C22.5651 78.0248 22.9588 78.1878 23.3697 78.189C24.4749 78.189 24.7349 77.285 27.5873 74.6168C28.1957 74.0084 28.1957 73.0219 27.5873 72.4135C26.9789 71.8051 25.9923 71.8051 25.384 72.4135Z" fill="black"/>
<path d="M10.5164 78.189C11.3777 78.1866 12.0741 77.4865 12.072 76.6252C12.0708 76.2145 11.9078 75.8207 11.618 75.5294L8.50213 72.4135C7.89375 71.8051 6.90719 71.8051 6.29881 72.4135C5.69044 73.0219 5.69044 74.0084 6.29881 74.6168L9.41469 77.7327C9.70661 78.0254 10.1031 78.1896 10.5164 78.189Z" fill="black"/>
<path d="M24.4706 87.9929C23.8623 87.3845 22.8757 87.3845 22.2673 87.9929C21.6589 88.6013 21.6589 89.5878 22.2673 90.1962C25.2126 92.9505 25.3875 93.7684 26.4849 93.7684C27.3462 93.766 28.0426 93.0659 28.0405 92.2046C28.0393 91.7939 27.8763 91.4001 27.5865 91.1088L24.4706 87.9929Z" fill="black"/>
<path d="M9.41448 87.9929L6.2986 91.1088C5.6912 91.7195 5.69373 92.707 6.30445 93.3144C6.59559 93.6042 6.98936 93.7672 7.40026 93.7684C8.50543 93.7684 8.76541 92.8644 11.6178 90.1962C12.2262 89.5878 12.2262 88.6013 11.6178 87.9929C11.0094 87.3845 10.0229 87.3845 9.41448 87.9929Z" fill="black"/>
<path d="M10.9056 81.3048H1.55794C0.697568 81.3048 0 82.0024 0 82.8628C0 83.7231 0.697568 84.4207 1.55794 84.4207H10.9056C11.766 84.4207 12.4635 83.7231 12.4635 82.8628C12.4635 82.0024 11.766 81.3048 10.9056 81.3048Z" fill="black"/>
<path d="M28.0425 33.0086C28.7377 33.0083 29.3484 32.5475 29.5397 31.8791L32.6555 20.9735C32.8922 20.1463 32.4133 19.2838 31.586 19.0472C30.7587 18.8105 29.8962 19.2894 29.6596 20.1167L26.5437 31.0223C26.3071 31.8495 26.786 32.712 27.6133 32.9487C27.7527 32.9886 27.8972 33.0086 28.0425 33.0086Z" fill="black"/>
<path d="M68.1203 54.8797C67.293 55.1161 66.8139 55.9785 67.0504 56.8057L70.1662 67.7113C70.4028 68.5386 71.2654 69.0175 72.0926 68.7808C72.9199 68.5442 73.3988 67.6817 73.1622 66.8545L70.0463 55.9489C69.8095 55.122 68.9473 54.6433 68.1203 54.8797Z" fill="black"/>
</svg>
