<svg width="386" height="142" viewBox="0 0 386 142" fill="none" xmlns="http://www.w3.org/2000/svg">
<path d="M384.741 130.679C384.741 136.327 380.374 140.901 374.988 140.901H10.8471C5.452 140.901 1.09045 136.318 1.09045 130.679V11.3212C1.09045 5.67055 5.45484 1.09888 10.8471 1.09888H374.988C380.383 1.09888 384.741 5.6819 384.741 11.3212V130.679Z" fill="#F4475C"/>
<path d="M374.988 142H10.8471C4.86698 142 0 136.923 0 130.679V11.3213C0 5.07995 4.86698 0 10.8471 0H374.988C380.965 0 385.829 5.07995 385.829 11.3213V130.679C385.829 136.923 380.965 142 374.988 142ZM10.8471 2.17793C6.06811 2.17793 2.17793 6.27823 2.17793 11.3213V130.679C2.17793 135.719 6.06811 139.822 10.8471 139.822H374.988C379.767 139.822 383.651 135.722 383.651 130.679V11.3213C383.651 6.27823 379.764 2.17793 374.988 2.17793H10.8471Z" fill="#311234"/>
<path d="M361.443 111.072C361.443 116.722 356.928 121.294 351.363 121.294H34.4692C28.9094 121.294 24.3945 116.714 24.3945 111.072V33.2028C24.3945 27.5521 28.9094 22.9805 34.4692 22.9805H351.363C356.928 22.9805 361.443 27.5578 361.443 33.2028V111.072Z" fill="#FFC929"/>
<path d="M351.362 122.384H34.4691C28.313 122.384 23.3069 117.307 23.3069 111.066V33.2028C23.3069 26.9558 28.3158 21.8844 34.4691 21.8844H351.362C357.521 21.8844 362.53 26.9615 362.53 33.2028V111.072C362.53 117.31 357.519 122.384 351.362 122.384ZM34.4635 24.0623C29.5085 24.0623 25.4763 28.1626 25.4763 33.2028V111.072C25.4763 116.112 29.5085 120.212 34.4635 120.212H351.357C356.315 120.212 360.35 116.112 360.35 111.072V33.2028C360.35 28.1626 356.317 24.0623 351.357 24.0623H34.4635Z" fill="#311234"/>
<path d="M48.0337 13.2407C48.0337 16.6482 45.3986 19.4224 42.1388 19.4224C38.879 19.4224 36.2467 16.6539 36.2467 13.2407C36.2467 9.82761 38.9017 7.06189 42.1388 7.06189C45.3758 7.06189 48.0337 9.82477 48.0337 13.2407Z" fill="#FFC929"/>
<path d="M42.1389 20.51C38.2885 20.51 35.1593 17.2474 35.1593 13.2408C35.1593 9.23417 38.2885 5.96301 42.1389 5.96301C45.9893 5.96301 49.1242 9.23133 49.1242 13.2408C49.1242 17.2502 46.0007 20.51 42.1389 20.51ZM42.1389 8.14946C39.4896 8.14946 37.3344 10.4211 37.3344 13.2408C37.3344 16.0604 39.4896 18.3321 42.1389 18.3321C44.7882 18.3321 46.9463 16.0604 46.9463 13.2408C46.9463 10.4211 44.7882 8.14946 42.1389 8.14946Z" fill="#311234"/>
<path d="M80.8136 13.2407C80.8136 16.6482 78.1756 19.4224 74.9215 19.4224C71.6674 19.4224 69.0266 16.6539 69.0266 13.2407C69.0266 9.82761 71.6731 7.06189 74.9215 7.06189C78.17 7.06189 80.8136 9.82477 80.8136 13.2407Z" fill="#FFC929"/>
<path d="M74.9214 20.51C71.071 20.51 67.9362 17.2474 67.9362 13.2408C67.9362 9.2342 71.0597 5.97156 74.9214 5.97156C78.7832 5.97156 81.901 9.23136 81.901 13.2408C81.901 17.2502 78.7719 20.51 74.9214 20.51ZM74.9214 8.14949C72.2721 8.14949 70.1141 10.4211 70.1141 13.2408C70.1141 16.0605 72.2693 18.3321 74.9214 18.3321C77.5736 18.3321 79.7259 16.0605 79.7259 13.2408C79.7259 10.4211 77.5707 8.14949 74.9214 8.14949Z" fill="#311234"/>
<path d="M113.602 13.2407C113.602 16.6482 110.964 19.4224 107.707 19.4224C104.45 19.4224 101.812 16.6539 101.812 13.2407C101.812 9.82761 104.453 7.06189 107.707 7.06189C110.961 7.06189 113.602 9.82477 113.602 13.2407Z" fill="#FFC929"/>
<path d="M107.707 20.51C103.856 20.51 100.724 17.2474 100.724 13.2408C100.724 9.2342 103.848 5.97156 107.707 5.97156C111.566 5.97156 114.692 9.23136 114.692 13.2408C114.692 17.2502 111.557 20.51 107.707 20.51ZM107.707 8.14949C105.058 8.14949 102.902 10.4211 102.902 13.2408C102.902 16.0605 105.063 18.3321 107.707 18.3321C110.35 18.3321 112.514 16.0605 112.514 13.2408C112.514 10.4211 110.356 8.14949 107.707 8.14949Z" fill="#311234"/>
<path d="M146.381 13.2407C146.381 16.6482 143.746 19.4224 140.487 19.4224C137.227 19.4224 134.594 16.6539 134.594 13.2407C134.594 9.82761 137.232 7.06189 140.487 7.06189C143.741 7.06189 146.381 9.82477 146.381 13.2407Z" fill="#FFC929"/>
<path d="M140.489 20.51C136.639 20.51 133.507 17.2474 133.507 13.2408C133.507 9.23417 136.639 5.96301 140.489 5.96301C144.34 5.96301 147.472 9.22281 147.472 13.2322C147.472 17.2417 144.34 20.51 140.489 20.51ZM140.489 8.14946C137.84 8.14946 135.685 10.4211 135.685 13.2408C135.685 16.0604 137.84 18.3321 140.489 18.3321C143.139 18.3321 145.294 16.0604 145.294 13.2408C145.294 10.4211 143.139 8.14946 140.489 8.14946Z" fill="#311234"/>
<path d="M179.175 13.2407C179.175 16.6482 176.532 19.4224 173.28 19.4224C170.029 19.4224 167.388 16.6539 167.388 13.2407C167.388 9.82761 170.032 7.06189 173.28 7.06189C176.529 7.06189 179.175 9.82477 179.175 13.2407Z" fill="#FFC929"/>
<path d="M173.272 20.51C169.421 20.51 166.292 17.2474 166.292 13.2408C166.292 9.2342 169.416 5.97156 173.272 5.97156C177.128 5.97156 180.257 9.23136 180.257 13.2408C180.257 17.2502 177.122 20.51 173.272 20.51ZM173.272 8.14949C170.623 8.14949 168.467 10.4211 168.467 13.2408C168.467 16.0605 170.623 18.3321 173.272 18.3321C175.921 18.3321 178.079 16.0605 178.079 13.2408C178.079 10.4211 175.921 8.14949 173.272 8.14949Z" fill="#311234"/>
<path d="M206.057 19.4225C209.313 19.4225 211.952 16.6548 211.952 13.2408C211.952 9.82672 209.313 7.05908 206.057 7.05908C202.801 7.05908 200.162 9.82672 200.162 13.2408C200.162 16.6548 202.801 19.4225 206.057 19.4225Z" fill="#FFC929"/>
<path d="M206.057 20.51C202.207 20.51 199.072 17.2474 199.072 13.2408C199.072 9.2342 202.196 5.97156 206.057 5.97156C209.919 5.97156 213.04 9.23136 213.04 13.2408C213.04 17.2502 209.908 20.51 206.057 20.51ZM206.057 8.14949C203.408 8.14949 201.25 10.4211 201.25 13.2408C201.25 16.0605 203.405 18.3321 206.057 18.3321C208.709 18.3321 210.862 16.0605 210.862 13.2408C210.862 10.4211 208.707 8.14949 206.057 8.14949Z" fill="#311234"/>
<path d="M244.732 13.2407C244.732 16.6482 242.088 19.4224 238.837 19.4224C235.586 19.4224 232.945 16.6539 232.945 13.2407C232.945 9.82761 235.583 7.06189 238.837 7.06189C242.091 7.06189 244.732 9.82477 244.732 13.2407Z" fill="#FFC929"/>
<path d="M238.837 20.51C234.987 20.51 231.857 17.2474 231.857 13.2408C231.857 9.2342 234.981 5.97156 238.837 5.97156C242.693 5.97156 245.822 9.23136 245.822 13.2408C245.822 17.2502 242.687 20.51 238.837 20.51ZM238.837 8.14949C236.188 8.14949 234.033 10.4211 234.033 13.2408C234.033 16.0605 236.188 18.3321 238.837 18.3321C241.486 18.3321 243.633 16.0491 243.633 13.2408C243.633 10.4325 241.489 8.14949 238.837 8.14949Z" fill="#311234"/>
<path d="M277.517 13.2407C277.517 16.6482 274.871 19.4224 271.622 19.4224C268.374 19.4224 265.73 16.6539 265.73 13.2407C265.73 9.82761 268.368 7.06189 271.622 7.06189C274.877 7.06189 277.517 9.82477 277.517 13.2407Z" fill="#FFC929"/>
<path d="M271.622 20.51C267.769 20.51 264.646 17.2502 264.646 13.2408C264.646 9.23133 267.769 5.96301 271.622 5.96301C275.476 5.96301 278.605 9.22281 278.605 13.2322C278.605 17.2417 275.473 20.51 271.622 20.51ZM271.622 8.14946C268.973 8.14946 266.818 10.4211 266.818 13.2408C266.818 16.0604 268.973 18.3321 271.622 18.3321C274.272 18.3321 276.427 16.0604 276.427 13.2408C276.427 10.4211 274.272 8.14946 271.622 8.14946Z" fill="#311234"/>
<path d="M310.297 13.2407C310.297 16.6482 307.656 19.4224 304.399 19.4224C301.142 19.4224 298.51 16.6539 298.51 13.2407C298.51 9.82761 301.148 7.06189 304.399 7.06189C307.651 7.06189 310.297 9.82477 310.297 13.2407Z" fill="#FFC929"/>
<path d="M304.399 20.51C300.552 20.51 297.42 17.2474 297.42 13.2408C297.42 9.23417 300.552 5.96301 304.399 5.96301C308.247 5.96301 311.384 9.22281 311.384 13.2322C311.384 17.2417 308.252 20.51 304.399 20.51ZM304.399 8.14946C301.753 8.14946 299.597 10.4211 299.597 13.2408C299.597 16.0604 301.75 18.3321 304.399 18.3321C307.048 18.3321 309.207 16.0604 309.207 13.2408C309.207 10.4211 307.051 8.14946 304.399 8.14946Z" fill="#311234"/>
<path d="M343.077 13.2407C343.077 16.6482 340.439 19.4224 337.19 19.4224C333.942 19.4224 331.29 16.6539 331.29 13.2407C331.29 9.82761 333.933 7.06189 337.19 7.06189C340.447 7.06189 343.077 9.82477 343.077 13.2407Z" fill="#FFC929"/>
<path d="M337.19 20.51C333.337 20.51 330.199 17.2474 330.199 13.2408C330.199 9.2342 333.323 5.97156 337.19 5.97156C341.058 5.97156 344.153 9.23136 344.153 13.2408C344.153 17.2502 341.029 20.51 337.19 20.51ZM337.19 8.14949C334.538 8.14949 332.377 10.4211 332.377 13.2408C332.377 16.0605 334.535 18.3321 337.19 18.3321C339.845 18.3321 341.989 16.0605 341.989 13.2408C341.989 10.4211 339.837 8.14949 337.19 8.14949Z" fill="#311234"/>
<path d="M48.0337 130.903C48.0337 134.311 45.3986 137.085 42.1388 137.085C38.879 137.085 36.2467 134.311 36.2467 130.903C36.2467 127.496 38.8903 124.721 42.1388 124.721C45.3872 124.721 48.0337 127.479 48.0337 130.903Z" fill="#FFC929"/>
<path d="M42.1389 138.161C38.2885 138.161 35.1593 134.901 35.1593 130.892C35.1593 126.882 38.2828 123.622 42.1389 123.622C45.995 123.622 49.1242 126.885 49.1242 130.903C49.1242 134.921 46.0007 138.161 42.1389 138.161ZM42.1389 125.798C39.4896 125.798 37.3344 128.069 37.3344 130.889C37.3344 133.709 39.4896 135.98 42.1389 135.98C44.7882 135.98 46.9463 133.709 46.9463 130.889C46.9463 128.069 44.7882 125.792 42.1389 125.792V125.798Z" fill="#311234"/>
<path d="M80.8136 130.903C80.8136 134.311 78.1756 137.085 74.9215 137.085C71.6674 137.085 69.0266 134.311 69.0266 130.903C69.0266 127.496 71.6731 124.721 74.9215 124.721C78.17 124.721 80.8136 127.479 80.8136 130.903Z" fill="#FFC929"/>
<path d="M74.9214 138.161C71.071 138.161 67.9362 134.901 67.9362 130.892C67.9362 126.882 71.0597 123.622 74.9214 123.622C78.7832 123.622 81.901 126.885 81.901 130.892C81.901 134.898 78.7719 138.161 74.9214 138.161ZM74.9214 125.798C72.2721 125.798 70.1141 128.069 70.1141 130.889C70.1141 133.709 72.2693 135.98 74.9214 135.98C77.5736 135.98 79.7259 133.709 79.7259 130.889C79.7259 128.069 77.5707 125.792 74.9214 125.792V125.798Z" fill="#311234"/>
<path d="M113.602 130.903C113.602 134.311 110.964 137.085 107.707 137.085C104.45 137.085 101.812 134.311 101.812 130.903C101.812 127.496 104.453 124.721 107.707 124.721C110.961 124.721 113.602 127.479 113.602 130.903Z" fill="#FFC929"/>
<path d="M107.707 138.161C103.856 138.161 100.724 134.901 100.724 130.892C100.724 126.882 103.848 123.622 107.707 123.622C111.566 123.622 114.692 126.885 114.692 130.892C114.692 134.898 111.557 138.161 107.707 138.161ZM107.707 125.798C105.058 125.798 102.902 128.069 102.902 130.889C102.902 133.709 105.058 135.98 107.707 135.98C110.356 135.98 112.514 133.709 112.514 130.889C112.514 128.069 110.356 125.792 107.707 125.792V125.798Z" fill="#311234"/>
<path d="M146.381 130.903C146.381 134.311 143.746 137.085 140.487 137.085C137.227 137.085 134.594 134.311 134.594 130.903C134.594 127.496 137.232 124.721 140.487 124.721C143.741 124.721 146.381 127.479 146.381 130.903Z" fill="#FFC929"/>
<path d="M140.489 138.161C136.639 138.161 133.507 134.901 133.507 130.892C133.507 126.882 136.63 123.622 140.489 123.622C144.348 123.622 147.472 126.885 147.472 130.892C147.472 134.898 144.34 138.161 140.489 138.161ZM140.489 125.798C137.84 125.798 135.685 128.069 135.685 130.889C135.685 133.709 137.84 135.98 140.489 135.98C143.139 135.98 145.294 133.709 145.294 130.889C145.294 128.069 143.139 125.792 140.489 125.792V125.798Z" fill="#311234"/>
<path d="M179.175 130.903C179.175 134.311 176.532 137.085 173.28 137.085C170.029 137.085 167.38 134.311 167.38 130.903C167.38 127.496 170.023 124.721 173.272 124.721C176.52 124.721 179.175 127.479 179.175 130.903Z" fill="#FFC929"/>
<path d="M173.272 138.161C169.421 138.161 166.292 134.901 166.292 130.892C166.292 126.882 169.416 123.622 173.272 123.622C177.128 123.622 180.257 126.885 180.257 130.892C180.257 134.898 177.122 138.161 173.272 138.161ZM173.272 125.798C170.623 125.798 168.467 128.069 168.467 130.889C168.467 133.709 170.623 135.98 173.272 135.98C175.921 135.98 178.079 133.709 178.079 130.889C178.079 128.069 175.921 125.792 173.272 125.792V125.798Z" fill="#311234"/>
<path d="M206.057 137.073C209.313 137.073 211.952 134.306 211.952 130.892C211.952 127.478 209.313 124.71 206.057 124.71C202.801 124.71 200.162 127.478 200.162 130.892C200.162 134.306 202.801 137.073 206.057 137.073Z" fill="#FFC929"/>
<path d="M206.057 138.161C202.207 138.161 199.072 134.901 199.072 130.892C199.072 126.882 202.196 123.622 206.057 123.622C209.919 123.622 213.04 126.885 213.04 130.892C213.04 134.898 209.908 138.161 206.057 138.161ZM206.057 125.798C203.408 125.798 201.25 128.069 201.25 130.889C201.25 133.709 203.405 135.98 206.057 135.98C208.709 135.98 210.862 133.709 210.862 130.889C210.862 128.069 208.707 125.792 206.057 125.792V125.798Z" fill="#311234"/>
<path d="M244.732 130.903C244.732 134.311 242.088 137.085 238.837 137.085C235.586 137.085 232.945 134.311 232.945 130.903C232.945 127.496 235.583 124.721 238.837 124.721C242.091 124.721 244.732 127.479 244.732 130.903Z" fill="#FFC929"/>
<path d="M238.837 138.161C234.987 138.161 231.857 134.901 231.857 130.892C231.857 126.882 234.981 123.622 238.837 123.622C242.693 123.622 245.822 126.885 245.822 130.892C245.822 134.898 242.687 138.161 238.837 138.161ZM238.837 125.798C236.188 125.798 234.033 128.069 234.033 130.889C234.033 133.709 236.188 135.98 238.837 135.98C241.486 135.98 243.633 133.7 243.633 130.903C243.633 128.106 241.489 125.792 238.837 125.792V125.798Z" fill="#311234"/>
<path d="M277.517 130.903C277.517 134.311 274.871 137.085 271.622 137.085C268.374 137.085 265.728 134.311 265.728 130.903C265.728 127.496 268.365 124.721 271.62 124.721C274.874 124.721 277.517 127.479 277.517 130.903Z" fill="#FFC929"/>
<path d="M271.622 138.161C267.769 138.161 264.646 134.901 264.646 130.903C264.646 126.905 267.769 123.634 271.628 123.634C275.487 123.634 278.611 126.896 278.611 130.903C278.611 134.91 275.473 138.161 271.622 138.161ZM271.622 125.798C268.973 125.798 266.818 128.069 266.818 130.889C266.818 133.709 268.973 135.98 271.622 135.98C274.272 135.98 276.427 133.709 276.427 130.889C276.427 128.069 274.272 125.792 271.622 125.792V125.798Z" fill="#311234"/>
<path d="M310.297 130.903C310.297 134.311 307.656 137.085 304.399 137.085C301.142 137.085 298.51 134.311 298.51 130.903C298.51 127.496 301.148 124.721 304.399 124.721C307.651 124.721 310.297 127.479 310.297 130.903Z" fill="#FFC929"/>
<path d="M304.399 138.161C300.552 138.161 297.42 134.901 297.42 130.892C297.42 126.882 300.543 123.622 304.399 123.622C308.255 123.622 311.384 126.885 311.384 130.892C311.384 134.898 308.252 138.161 304.399 138.161ZM304.399 125.798C301.753 125.798 299.597 128.069 299.597 130.889C299.597 133.709 301.75 135.98 304.399 135.98C307.048 135.98 309.207 133.709 309.207 130.889C309.207 128.069 307.051 125.792 304.399 125.792V125.798Z" fill="#311234"/>
<path d="M343.077 130.903C343.077 134.311 340.439 137.085 337.19 137.085C333.942 137.085 331.29 134.311 331.29 130.903C331.29 127.496 333.933 124.721 337.19 124.721C340.447 124.721 343.077 127.479 343.077 130.903Z" fill="#FFC929"/>
<path d="M337.19 138.161C333.337 138.161 330.199 134.901 330.199 130.892C330.199 126.882 333.323 123.622 337.19 123.622C341.058 123.622 344.153 126.885 344.153 130.903C344.153 134.921 341.029 138.161 337.19 138.161ZM337.19 125.798C334.538 125.798 332.377 128.069 332.377 130.889C332.377 133.709 334.535 135.98 337.19 135.98C339.845 135.98 341.989 133.709 341.989 130.889C341.989 128.069 339.837 125.792 337.19 125.792V125.798Z" fill="#311234"/>
<path d="M19.2464 14.1409C19.2464 17.5483 16.6056 20.3226 13.3543 20.3226C10.1031 20.3226 7.46228 17.554 7.46228 14.1409C7.46228 10.7278 10.0974 7.95068 13.3458 7.95068C16.5943 7.95068 19.2464 10.7278 19.2464 14.1409Z" fill="#FFC929"/>
<path d="M13.3458 21.4102C9.49539 21.4102 6.36621 18.1475 6.36621 14.1409C6.36621 10.1343 9.50391 6.8717 13.3458 6.8717C17.1877 6.8717 20.3368 10.1315 20.3368 14.1409C20.3368 18.1504 17.2048 21.4102 13.3458 21.4102ZM13.3458 9.0468C10.6965 9.0468 8.5413 11.3184 8.5413 14.1381C8.5413 16.9578 10.705 19.2322 13.3458 19.2322C15.9866 19.2322 18.1503 16.9606 18.1503 14.1409C18.1503 11.3213 16.0036 9.04964 13.3458 9.04964V9.0468Z" fill="#311234"/>
<path d="M19.2464 42.8431C19.2464 46.2505 16.6056 49.0248 13.3543 49.0248C10.1031 49.0248 7.46228 46.2562 7.46228 42.8431C7.46228 39.4299 10.0974 36.6614 13.3458 36.6614C16.5943 36.6614 19.2464 39.4299 19.2464 42.8431Z" fill="#FFC929"/>
<path d="M13.3458 50.1151C9.49539 50.1151 6.36621 46.8525 6.36621 42.8459C6.36621 38.8393 9.48971 35.5767 13.3458 35.5767C17.2019 35.5767 20.3283 38.8393 20.3283 42.8459C20.3283 46.8525 17.2048 50.1151 13.3458 50.1151ZM13.3458 37.7518C10.6965 37.7518 8.5413 40.0234 8.5413 42.8431C8.5413 45.6627 10.705 47.9372 13.3458 47.9372C15.9866 47.9372 18.1503 45.6656 18.1503 42.8459C18.1503 40.0262 16.0036 37.7518 13.3458 37.7518Z" fill="#311234"/>
<path d="M19.2464 71.5566C19.2464 74.964 16.6056 77.7383 13.3543 77.7383C10.1031 77.7383 7.46228 74.964 7.46228 71.5566C7.46228 68.1491 10.0974 65.3635 13.3458 65.3635C16.5943 65.3635 19.2464 68.1349 19.2464 71.5566Z" fill="#FFC929"/>
<path d="M13.3458 78.8173C9.49539 78.8173 6.36621 75.5547 6.36621 71.5481C6.36621 67.5415 9.48971 64.276 13.3458 64.276C17.2019 64.276 20.3368 67.5386 20.3368 71.5566C20.3368 75.5746 17.2048 78.8173 13.3458 78.8173ZM13.3458 66.4454C10.6965 66.4454 8.5413 68.7171 8.5413 71.5396C8.5413 74.3621 10.705 76.6394 13.3458 76.6394C15.9866 76.6394 18.1503 74.3677 18.1503 71.5481C18.1503 68.7284 16.0036 66.4454 13.3458 66.4454Z" fill="#311234"/>
<path d="M19.2464 100.236C19.2464 103.643 16.6056 106.418 13.3543 106.418C10.1031 106.418 7.46228 103.663 7.46228 100.236C7.46228 96.8086 10.0974 94.0685 13.3458 94.0685C16.5943 94.0685 19.2464 96.8285 19.2464 100.236Z" fill="#FFC929"/>
<path d="M13.3458 107.519C9.49539 107.519 6.36621 104.26 6.36621 100.25C6.36621 96.2407 9.48971 92.981 13.3458 92.981C17.2019 92.981 20.3368 96.2408 20.3368 100.236C20.3368 104.231 17.2048 107.519 13.3458 107.519ZM13.3458 95.156C10.6965 95.156 8.5413 97.4277 8.5413 100.247C8.5413 103.067 10.705 105.347 13.3458 105.347C15.9866 105.347 18.1503 103.076 18.1503 100.256C18.1503 97.4362 16.0036 95.1589 13.3458 95.1589V95.156Z" fill="#311234"/>
<path d="M19.2464 128.955C19.2464 132.363 16.6056 135.134 13.3543 135.134C10.1031 135.134 7.46228 132.368 7.46228 128.955C7.46228 125.542 10.0974 122.773 13.3458 122.773C16.5943 122.773 19.2464 125.539 19.2464 128.955Z" fill="#FFC929"/>
<path d="M13.3458 136.222C9.49539 136.222 6.36621 132.962 6.36621 128.952C6.36621 124.943 9.48971 121.683 13.3458 121.683C17.2019 121.683 20.3368 124.94 20.3368 128.955C20.3368 132.97 17.2048 136.222 13.3458 136.222ZM13.3458 123.861C10.6965 123.861 8.5413 126.133 8.5413 128.952C8.5413 131.772 10.705 134.044 13.3458 134.044C15.9866 134.044 18.1503 131.772 18.1503 128.952C18.1503 126.133 16.0036 123.861 13.3458 123.861Z" fill="#311234"/>
<path d="M377.77 14.1409C377.77 17.5483 375.127 20.3226 371.875 20.3226C368.624 20.3226 365.983 17.554 365.983 14.1409C365.983 10.7278 368.621 7.95068 371.878 7.95068C375.135 7.95068 377.77 10.7278 377.77 14.1409Z" fill="#FFC929"/>
<path d="M371.878 21.4102C368.028 21.4102 364.899 18.1475 364.899 14.1409C364.899 10.1343 368.022 6.8717 371.878 6.8717C375.734 6.8717 378.861 10.1343 378.861 14.1409C378.861 18.1475 375.729 21.4102 371.878 21.4102ZM371.878 9.0468C369.229 9.0468 367.074 11.3184 367.074 14.1381C367.074 16.9578 369.229 19.2294 371.878 19.2294C374.528 19.2294 376.683 16.9578 376.683 14.1381C376.683 11.3184 374.536 9.04964 371.878 9.04964V9.0468Z" fill="#311234"/>
<path d="M377.77 42.8431C377.77 46.2505 375.127 49.0248 371.875 49.0248C368.624 49.0248 365.983 46.2562 365.983 42.8431C365.983 39.4299 368.621 36.6614 371.875 36.6614C375.129 36.6614 377.77 39.4299 377.77 42.8431Z" fill="#FFC929"/>
<path d="M371.878 50.1151C368.028 50.1151 364.899 46.8525 364.899 42.8459C364.899 38.8393 368.022 35.5767 371.878 35.5767C375.734 35.5767 378.861 38.8393 378.861 42.8459C378.861 46.8525 375.729 50.1151 371.878 50.1151ZM371.878 37.7518C369.229 37.7518 367.074 40.0234 367.074 42.8431C367.074 45.6627 369.229 47.9344 371.878 47.9344C374.528 47.9344 376.683 45.6627 376.683 42.8431C376.683 40.0234 374.536 37.7518 371.878 37.7518Z" fill="#311234"/>
<path d="M377.77 71.5566C377.77 74.964 375.127 77.7383 371.875 77.7383C368.624 77.7383 365.986 74.964 365.986 71.5566C365.986 68.1491 368.624 65.3749 371.878 65.3749C375.132 65.3749 377.77 68.1349 377.77 71.5566Z" fill="#FFC929"/>
<path d="M371.878 78.8173C368.028 78.8173 364.899 75.5547 364.899 71.5481C364.899 67.5415 368.022 64.276 371.878 64.276C375.734 64.276 378.861 67.5386 378.861 71.5481C378.861 75.5575 375.729 78.8173 371.878 78.8173ZM371.878 66.4539C369.229 66.4539 367.074 68.7256 367.074 71.5481C367.074 74.3706 369.229 76.6394 371.878 76.6394C374.528 76.6394 376.683 74.3677 376.683 71.5481C376.683 68.7284 374.536 66.4454 371.878 66.4454V66.4539Z" fill="#311234"/>
<path d="M377.77 100.236C377.77 103.643 375.127 106.418 371.875 106.418C368.624 106.418 365.983 103.649 365.983 100.236C365.983 96.8229 368.621 94.0543 371.875 94.0543C375.129 94.0543 377.77 96.8286 377.77 100.236Z" fill="#FFC929"/>
<path d="M371.878 107.519C368.028 107.519 364.899 104.26 364.899 100.25C364.899 96.2407 368.022 92.981 371.878 92.981C375.734 92.981 378.861 96.2436 378.861 100.25C378.861 104.257 375.729 107.519 371.878 107.519ZM371.878 95.156C369.229 95.156 367.074 97.4277 367.074 100.247C367.074 103.067 369.229 105.339 371.878 105.339C374.528 105.339 376.683 103.067 376.683 100.247C376.683 97.4277 374.536 95.1589 371.878 95.1589V95.156Z" fill="#311234"/>
<path d="M377.77 128.955C377.77 132.363 375.127 135.134 371.875 135.134C368.624 135.134 365.983 132.368 365.983 128.955C365.983 125.542 368.621 122.773 371.875 122.773C375.129 122.773 377.77 125.539 377.77 128.955Z" fill="#FFC929"/>
<path d="M371.878 136.222C368.028 136.222 364.899 132.962 364.899 128.952C364.899 124.943 368.022 121.683 371.878 121.683C375.734 121.683 378.861 124.946 378.861 128.952C378.861 132.959 375.729 136.222 371.878 136.222ZM371.878 123.861C369.229 123.861 367.074 126.133 367.074 128.952C367.074 131.772 369.229 134.044 371.878 134.044C374.528 134.044 376.683 131.772 376.683 128.952C376.683 126.133 374.536 123.861 371.878 123.861Z" fill="#311234"/>
<path d="M149.82 88.792C147.151 88.792 145.127 88.0587 143.748 86.592C142.399 85.1253 141.724 83.2773 141.724 81.048C141.724 79.464 142.047 77.88 142.692 76.296C143.367 74.6827 144.32 73.2747 145.552 72.072C146.784 70.8693 148.221 70.0627 149.864 69.652C148.955 69.0067 148.28 68.2293 147.84 67.32C147.4 66.3813 147.18 65.3987 147.18 64.372C147.18 62.8467 147.591 61.3507 148.412 59.884C149.263 58.4173 150.421 57.2293 151.888 56.32C153.384 55.3813 155.027 54.912 156.816 54.912C158.664 54.912 160.175 55.396 161.348 56.364C162.521 57.332 163.108 58.6813 163.108 60.412C163.108 61.7027 162.785 62.788 162.14 63.668C161.495 64.548 160.732 64.988 159.852 64.988C159.06 64.988 158.371 64.592 157.784 63.8C158.312 63.624 158.767 63.14 159.148 62.348C159.529 61.556 159.72 60.764 159.72 59.972C159.72 59.1213 159.485 58.5053 159.016 58.124C158.547 57.7133 157.975 57.508 157.3 57.508C156.449 57.508 155.672 57.816 154.968 58.432C154.293 59.0187 153.765 59.796 153.384 60.764C153.003 61.7027 152.812 62.6853 152.812 63.712C152.812 65.12 153.179 66.3667 153.912 67.452C154.645 68.508 155.76 69.2267 157.256 69.608C155.76 69.9307 154.411 70.664 153.208 71.808C152.005 72.952 151.067 74.2867 150.392 75.812C149.717 77.308 149.38 78.7453 149.38 80.124C149.38 81.444 149.717 82.5147 150.392 83.336C151.096 84.1573 152.152 84.568 153.56 84.568C155.027 84.568 156.552 84.172 158.136 83.38C159.749 82.5587 160.937 81.4587 161.7 80.08L162.712 80.52C161.568 83.0427 159.808 85.052 157.432 86.548C155.056 88.044 152.519 88.792 149.82 88.792ZM166.627 88.264C164.926 88.264 163.591 87.8387 162.623 86.988C161.685 86.108 161.215 84.8027 161.215 83.072C161.215 82.368 161.289 81.664 161.435 80.96L164.603 66H170.939L167.771 80.96C167.625 81.6933 167.551 82.2213 167.551 82.544C167.551 83.512 168.05 83.996 169.047 83.996C170.397 83.996 171.643 83.1453 172.787 81.444C173.961 79.7427 174.899 77.7187 175.603 75.372C176.307 73.0253 176.659 71.0013 176.659 69.3C176.601 69.4467 176.41 69.564 176.087 69.652C175.765 69.7107 175.486 69.74 175.251 69.74C174.753 69.74 174.357 69.5053 174.063 69.036C173.799 68.5667 173.667 68.0533 173.667 67.496C173.667 66.792 173.887 66.22 174.327 65.78C174.797 65.34 175.486 65.12 176.395 65.12C177.363 65.12 178.067 65.4867 178.507 66.22C178.947 66.924 179.167 67.8333 179.167 68.948C179.167 71.588 178.713 74.4187 177.803 77.44C176.894 80.432 175.501 82.984 173.623 85.096C171.746 87.208 169.414 88.264 166.627 88.264ZM186.122 88.264C183.951 88.264 182.265 87.7067 181.062 86.592C179.859 85.448 179.258 83.6733 179.258 81.268C179.258 79.244 179.654 77.0147 180.446 74.58C181.238 72.1453 182.529 70.048 184.318 68.288C186.107 66.4987 188.381 65.604 191.138 65.604C194.365 65.604 195.978 67.012 195.978 69.828C195.978 71.4707 195.509 72.9813 194.57 74.36C193.631 75.7387 192.385 76.8533 190.83 77.704C189.275 78.5253 187.618 78.9947 185.858 79.112C185.799 79.992 185.77 80.5787 185.77 80.872C185.77 82.3093 186.019 83.292 186.518 83.82C187.017 84.3187 187.823 84.568 188.938 84.568C190.522 84.568 191.871 84.2013 192.986 83.468C194.13 82.7347 195.377 81.62 196.726 80.124H198.222C194.966 85.5507 190.933 88.264 186.122 88.264ZM186.21 77C187.295 76.9413 188.322 76.56 189.29 75.856C190.287 75.152 191.079 74.2573 191.666 73.172C192.282 72.0867 192.59 70.9427 192.59 69.74C192.59 68.5373 192.223 67.936 191.49 67.936C190.434 67.936 189.393 68.86 188.366 70.708C187.369 72.556 186.65 74.6533 186.21 77ZM212.601 88.264C210.811 88.264 209.491 87.7947 208.641 86.856C207.819 85.888 207.409 84.7 207.409 83.292C207.409 82.676 207.482 81.9867 207.629 81.224C207.775 80.432 207.922 79.6693 208.069 78.936C208.245 78.2027 208.362 77.7333 208.421 77.528C208.655 76.5013 208.875 75.4893 209.081 74.492C209.286 73.4947 209.389 72.688 209.389 72.072C209.389 70.576 208.861 69.828 207.805 69.828C207.042 69.828 206.367 70.2093 205.781 70.972C205.194 71.7053 204.725 72.6733 204.373 73.876L201.381 88H195.045L199.709 66H206.045L205.561 68.288C207.027 66.6453 208.743 65.824 210.709 65.824C212.205 65.824 213.393 66.2347 214.273 67.056C215.153 67.8773 215.593 69.124 215.593 70.796C215.593 71.6467 215.49 72.6 215.285 73.656C215.079 74.6827 214.786 75.944 214.405 77.44C214.17 78.3493 213.95 79.244 213.745 80.124C213.569 80.9747 213.481 81.6493 213.481 82.148C213.481 82.7347 213.613 83.1893 213.877 83.512C214.141 83.8347 214.595 83.996 215.241 83.996C216.121 83.996 216.825 83.688 217.353 83.072C217.881 82.4267 218.409 81.444 218.937 80.124H220.785C219.699 83.3507 218.438 85.5213 217.001 86.636C215.593 87.7213 214.126 88.264 212.601 88.264ZM223.288 88.264C221.88 88.264 220.736 87.824 219.856 86.944C219.005 86.064 218.58 84.744 218.58 82.984C218.58 82.2507 218.697 81.2973 218.932 80.124L221.572 67.76H220.12L220.472 66H221.924L223.244 59.928L229.756 59.048L228.26 66H230.9L230.548 67.76H227.908L225.092 80.96C224.974 81.4 224.916 81.8693 224.916 82.368C224.916 82.9547 225.048 83.38 225.312 83.644C225.605 83.8787 226.074 83.996 226.72 83.996C227.57 83.996 228.362 83.644 229.096 82.94C229.829 82.2067 230.357 81.268 230.68 80.124H232.528C231.442 83.292 230.049 85.448 228.348 86.592C226.646 87.7067 224.96 88.264 223.288 88.264ZM235.678 88.264C234.27 88.264 233.082 88 232.114 87.472C231.146 86.9147 230.427 86.2107 229.958 85.36C229.489 84.48 229.254 83.5707 229.254 82.632C229.254 81.664 229.489 80.828 229.958 80.124C230.398 79.3907 230.941 78.8627 231.586 78.54C232.73 76.4867 233.727 74.4187 234.578 72.336C235.429 70.224 236.235 67.9507 236.998 65.516L243.51 64.636C243.657 68.3907 243.906 72.4533 244.258 76.824C244.405 78.584 244.478 79.86 244.478 80.652C244.478 82.4413 244.023 83.908 243.114 85.052C242.205 86.196 241.075 87.0173 239.726 87.516C238.406 88.0147 237.057 88.264 235.678 88.264ZM234.27 84.788C235.355 84.788 236.265 84.4653 236.998 83.82C237.731 83.1747 238.098 82.1333 238.098 80.696C238.098 79.816 238.01 78.584 237.834 77C237.541 73.656 237.35 71.412 237.262 70.268C236.558 72.5853 235.37 75.3573 233.698 78.584C234.373 78.936 234.71 79.4493 234.71 80.124C234.71 80.6813 234.519 81.18 234.138 81.62C233.786 82.06 233.331 82.28 232.774 82.28C232.158 82.28 231.762 82.0893 231.586 81.708C231.586 82.764 231.791 83.5413 232.202 84.04C232.642 84.5387 233.331 84.788 234.27 84.788Z" fill="black"/>
</svg>
