<svg width="100" height="100" viewBox="0 0 100 100" fill="none" xmlns="http://www.w3.org/2000/svg">
<g clip-path="url(#clip0)">
<path d="M46.0688 42.6821C61.4945 66.9803 25.4171 46.2071 36.0648 60.282C40.453 66.0845 48.8268 69.0239 50.1197 70.3132C57.3366 77.512 53.3836 82.9138 60.1889 89.6828C67.9662 97.4238 81.731 96.2742 90.9335 87.1152C99.835 78.2554 101.463 64.4272 93.5084 56.5103C86.6867 49.7213 81.1779 53.6852 74.0136 46.5208C71.2102 43.7229 63.6469 25.1275 46.0688 42.6821Z" fill="#FF803C"/>
<path d="M36.0648 60.2837C40.453 66.0863 48.8268 69.0257 50.1197 70.3149C57.3366 77.5137 53.3837 82.9155 60.189 89.6846C64.2943 93.77 70.066 95.3784 75.9556 94.6404C72.0625 94.1308 68.4522 92.4934 65.6289 89.6846C58.8272 82.9155 60.9342 74.3858 53.7173 67.187C52.4244 65.8977 45.8947 66.0863 41.5047 60.2837C39.015 56.9926 39.0803 55.6072 40.4439 55.1049C35.5498 54.6244 31.4844 54.2291 36.0648 60.2837Z" fill="#F76328"/>
<path d="M51.748 60.7044L64.5264 47.9859L69.319 52.7549L56.5406 65.4734L51.748 60.7044Z" fill="#595959"/>
<path d="M51.748 60.7044L55.6122 56.9001L60.3975 61.6763L56.5316 65.4806L51.748 60.7044Z" fill="#464646"/>
<path d="M61.7574 70.6631L74.5358 57.9446L79.3284 62.7136L66.55 75.4321L61.7574 70.6631Z" fill="#595959"/>
<path d="M61.7574 70.6631L65.5944 66.886L70.3797 71.6622L66.5428 75.4393L61.7574 70.6631Z" fill="#464646"/>
<path d="M71.2973 89.9077C72.9998 89.9077 74.3799 88.5276 74.3799 86.8251C74.3799 85.1226 72.9998 83.7425 71.2973 83.7425C69.5948 83.7425 68.2147 85.1226 68.2147 86.8251C68.2147 88.5276 69.5948 89.9077 71.2973 89.9077Z" fill="#FFDEA9"/>
<path d="M73.8921 78.5002L82.3693 70.0339L85.7257 73.3849L77.2485 81.853L73.8921 78.5002Z" fill="#595959"/>
<path d="M20.3797 22.1699L25.8105 16.7645L60.8526 51.6433L55.4218 57.047L20.3797 22.1699Z" fill="#FFDEA9"/>
<path d="M8.69295 10.0807L12.5009 6.27273L13.9062 4.86924C14.1873 4.58818 14.7204 4.65346 15.1374 5.01793L24.9927 13.1778L28.9766 18.2333L25.8686 21.334L22.028 25.1692L16.9689 21.1944L8.83802 11.3119C8.47717 10.8894 8.4137 10.3599 8.69295 10.0807Z" fill="#595959"/>
<path d="M8.69295 10.0807L12.5009 6.27277C12.2507 6.55745 12.3196 7.06518 12.6677 7.46773L20.7967 17.3575L25.8577 21.3341L22.0171 25.1692L16.9689 21.1944L8.83802 11.3119C8.47717 10.8894 8.4137 10.36 8.69295 10.0807Z" fill="#464646"/>
<path d="M61.7303 91.0972C61.5328 91.3988 61.4631 91.7664 61.5365 92.1194C61.61 92.4723 61.8205 92.7817 62.122 92.9794C65.4058 95.1336 69.241 96.1744 73.2049 96.1744C79.711 96.1744 86.5635 93.3675 91.8928 88.0654C97.0444 82.9392 100 76.1338 100 69.3974C100 64.0101 98.0362 59.0888 94.4677 55.5365C92.7984 53.8253 90.7881 52.4841 88.5672 51.5998C88.4004 51.5297 88.2213 51.4935 88.0403 51.4934C87.8594 51.4933 87.6802 51.5294 87.5134 51.5994C87.3465 51.6695 87.1953 51.7721 87.0686 51.9013C86.942 52.0305 86.8423 52.1837 86.7756 52.3519C86.7089 52.5201 86.6764 52.6999 86.68 52.8808C86.6837 53.0618 86.7234 53.2401 86.7969 53.4055C86.8703 53.5709 86.9761 53.7199 87.1079 53.8439C87.2397 53.9679 87.3949 54.0643 87.5644 54.1276C89.4413 54.8784 91.1396 56.0151 92.5492 57.4641C95.6445 60.5467 97.2801 64.6701 97.2801 69.3956C97.2801 75.4139 94.6164 81.5157 89.9743 86.136C86.2262 89.866 81.4735 92.3611 76.5921 93.1589C71.8286 93.9386 67.2192 93.0664 63.6143 90.7055C63.4649 90.6074 63.2977 90.5398 63.1221 90.5064C62.9465 90.473 62.7661 90.4745 62.5911 90.5109C62.4161 90.5473 62.2501 90.6178 62.1023 90.7184C61.9546 90.819 61.8282 90.9477 61.7303 91.0972Z" fill="black"/>
<path d="M67.5092 76.3841L80.2876 63.6674C80.4145 63.541 80.5152 63.3908 80.584 63.2255C80.6527 63.0601 80.688 62.8827 80.688 62.7036C80.688 62.5245 80.6527 62.3472 80.584 62.1818C80.5152 62.0164 80.4145 61.8662 80.2876 61.7399L75.495 56.9709C75.2402 56.7173 74.8953 56.575 74.5358 56.575C74.1763 56.575 73.8314 56.7173 73.5766 56.9709L60.7982 69.6876C60.6713 69.8139 60.5706 69.9641 60.5019 70.1295C60.4331 70.2949 60.3978 70.4722 60.3978 70.6513C60.3978 70.8304 60.4331 71.0078 60.5019 71.1732C60.5706 71.3385 60.6713 71.4887 60.7982 71.6151L65.5908 76.3841C65.8456 76.6377 66.1905 76.78 66.55 76.78C66.9095 76.78 67.2544 76.6377 67.5092 76.3841ZM77.399 62.7045L66.5482 73.5082L63.685 70.6577L74.5358 59.8595L77.399 62.7045Z" fill="black"/>
<path d="M66.8982 86.1904C66.7337 87.3568 67.0392 88.5408 67.7475 89.4821C68.4558 90.4233 69.5089 91.0447 70.6753 91.2096C70.8843 91.2394 71.0952 91.2546 71.3063 91.2549C72.158 91.2532 72.9913 91.0066 73.7068 90.5446C74.4223 90.0826 74.9899 89.4247 75.3421 88.6492C75.6942 87.8737 75.816 87.0133 75.693 86.1705C75.5699 85.3277 75.2072 84.5381 74.648 83.8956C74.0889 83.2532 73.3568 82.785 72.5391 82.5469C71.7213 82.3088 70.8523 82.3108 70.0357 82.5526C69.219 82.7944 68.4891 83.2659 67.9328 83.9108C67.3765 84.5558 67.0174 85.3471 66.8982 86.1904ZM69.5909 86.5712C69.6455 86.176 69.8356 85.8121 70.1286 85.5415C70.4217 85.2709 70.7995 85.1103 71.1978 85.0873C71.596 85.0642 71.9898 85.1801 72.3122 85.4151C72.6345 85.65 72.8653 85.9896 72.9651 86.3758C73.065 86.762 73.0277 87.1708 72.8597 87.5326C72.6917 87.8944 72.4033 88.1867 72.0439 88.3595C71.6844 88.5324 71.276 88.5751 70.8886 88.4805C70.5011 88.3858 70.1584 88.1596 69.9191 87.8405C69.7827 87.66 69.6834 87.4542 69.6271 87.2351C69.5707 87.016 69.5584 86.7878 69.5909 86.5639V86.5712Z" fill="black"/>
<path d="M27.6837 31.3543L48.5965 52.162C48.5512 52.7767 48.3336 53.0686 48.1577 53.2318C46.9718 54.3724 43.434 54.0242 40.5908 53.745C36.9642 53.3823 34.1118 53.1067 33.0293 55.0379C32.0429 56.7986 33.4627 59.087 34.9804 61.0943C38.2607 65.4263 43.5918 68.2296 46.7832 69.9051C47.7841 70.431 48.9193 71.0276 49.1623 71.2669C52.5549 74.6505 53.2694 77.5446 54.0255 80.6109C54.6656 83.2003 55.3257 85.8694 57.5651 88.7617C57.6746 88.9027 57.8109 89.0209 57.9661 89.1093C58.1213 89.1977 58.2924 89.2547 58.4696 89.2771C58.6468 89.2994 58.8267 89.2866 58.9989 89.2393C59.1712 89.1921 59.3325 89.1115 59.4736 89.0019C59.6147 88.8924 59.7328 88.7561 59.8212 88.6009C59.9097 88.4457 59.9667 88.2747 59.989 88.0974C60.0113 87.9202 59.9985 87.7403 59.9513 87.5681C59.9041 87.3958 59.8234 87.2345 59.7139 87.0934C57.828 84.6654 57.2641 82.3788 56.6657 79.9599C55.8914 76.8211 55.012 73.2634 51.0825 69.343C50.5549 68.8171 49.5576 68.2931 48.0471 67.4989C44.8665 65.8288 40.0685 63.3029 37.1509 59.4551C35.6405 57.4604 35.4464 56.6263 35.4283 56.3852C36.1065 56.037 38.7321 56.2963 40.3242 56.4522C44.0741 56.8149 47.9528 57.2029 50.0435 55.192C50.3175 54.9287 50.5526 54.6277 50.7416 54.298L53.4924 57.0379L50.7888 59.7271C50.6619 59.8534 50.5611 60.0036 50.4924 60.169C50.4237 60.3344 50.3883 60.5117 50.3883 60.6908C50.3883 60.8699 50.4237 61.0473 50.4924 61.2127C50.5611 61.3781 50.6619 61.5282 50.7888 61.6546L55.5813 66.4236C55.8362 66.6772 56.1811 66.8195 56.5406 66.8195C56.9001 66.8195 57.245 66.6772 57.4998 66.4236L70.2782 53.7069C70.4051 53.5805 70.5058 53.4303 70.5745 53.265C70.6432 53.0996 70.6786 52.9222 70.6786 52.7431C70.6786 52.564 70.6432 52.3867 70.5745 52.2213C70.5058 52.0559 70.4051 51.9057 70.2782 51.7794L65.4856 47.0104C65.2308 46.7568 64.8859 46.6145 64.5264 46.6145C64.1669 46.6145 63.822 46.7568 63.5671 47.0104L60.8472 49.7122L51.1351 40.0491C54.7418 37.3799 58.0783 36.2412 61.0684 36.6727C65.9933 37.3799 69.1956 42.0691 71.3135 45.1717C72.0008 46.1763 72.543 46.9723 73.0452 47.4746C76.34 50.7512 79.3574 51.8809 82.1426 52.6135C82.3169 52.6644 82.4997 52.6798 82.6801 52.659C82.8605 52.6381 83.035 52.5813 83.1931 52.4919C83.3512 52.4025 83.4898 52.2823 83.6007 52.1385C83.7116 51.9947 83.7926 51.8301 83.8388 51.6545C83.8851 51.4788 83.8957 51.2957 83.8701 51.1159C83.8444 50.9361 83.783 50.7633 83.6895 50.6076C83.5959 50.4519 83.4722 50.3165 83.3254 50.2095C83.1787 50.1024 83.0121 50.0258 82.8353 49.9842C80.5886 49.3931 77.9394 48.5136 74.98 45.5543C74.6573 45.2315 74.1296 44.4663 73.5711 43.6413C71.3299 40.3574 67.5763 34.8594 61.4655 33.9836C57.6467 33.4396 53.5232 34.825 49.1985 38.1125L35.8871 24.8754L30.05 19.0619C30.2365 18.8232 30.3378 18.5289 30.3378 18.226C30.3378 17.9231 30.2365 17.6288 30.05 17.3901L28.7408 15.7363L30.5886 13.8922C30.8365 13.6358 30.9737 13.2924 30.9708 12.9358C30.9678 12.5792 30.825 12.238 30.5729 11.9858C30.3209 11.7335 29.9799 11.5903 29.6233 11.587C29.2667 11.5838 28.9231 11.7207 28.6665 11.9683L27.0472 13.5858L26.068 12.3418C26.0084 12.2666 25.9409 12.1979 25.8668 12.1369L25.1759 11.5639L26.7172 10.0244C26.9651 9.76807 27.1023 9.4246 27.0994 9.06802C27.0964 8.71143 26.9536 8.37026 26.7015 8.11799C26.4495 7.86572 26.1085 7.72253 25.7519 7.71927C25.3953 7.716 25.0517 7.85292 24.7951 8.10053L23.0725 9.82136L20.9436 8.04795L22.8476 6.15667C22.9833 6.0325 23.0924 5.88209 23.1683 5.71454C23.2442 5.54699 23.2854 5.36578 23.2892 5.18188C23.2931 4.99798 23.2596 4.81521 23.1908 4.64462C23.122 4.47403 23.0193 4.31917 22.8889 4.18941C22.7586 4.05965 22.6032 3.95769 22.4323 3.88969C22.2614 3.82169 22.0785 3.78907 21.8946 3.7938C21.7107 3.79853 21.5297 3.84051 21.3625 3.91721C21.1953 3.99391 21.0454 4.10372 20.9219 4.24001L18.8402 6.31262L16.0242 3.9789C15.0613 3.15203 13.7448 3.11576 12.9542 3.90455L7.73011 9.11779C6.94132 9.90477 6.97034 11.2176 7.79539 12.1805L10.1273 15.0128L8.01298 17.1145C7.76513 17.3708 7.62789 17.7143 7.63082 18.0709C7.63375 18.4275 7.77661 18.7686 8.02865 19.0209C8.28068 19.2732 8.62171 19.4164 8.97829 19.4196C9.33488 19.4229 9.67847 19.286 9.93509 19.0384L11.8626 17.1145L13.6197 19.2523L11.888 20.9822C11.6314 21.2369 11.4865 21.583 11.4852 21.9445C11.4838 22.306 11.6261 22.6532 11.8808 22.9098C12.1354 23.1663 12.4815 23.3112 12.843 23.3126C13.2045 23.314 13.5517 23.1717 13.8083 22.917L15.3532 21.3739L15.9154 22.0575C15.9778 22.1338 16.0483 22.2031 16.1257 22.2642L17.3751 23.2452L15.7576 24.8573C15.5097 25.1136 15.3725 25.4571 15.3754 25.8137C15.3784 26.1703 15.5212 26.5114 15.7733 26.7637C16.0253 27.016 16.3663 27.1592 16.7229 27.1624C17.0795 27.1657 17.4231 27.0288 17.6797 26.7812L19.5293 24.9334L21.1866 26.2354C21.3954 26.3995 21.6476 26.4988 21.9122 26.521C22.1768 26.5432 22.4421 26.4874 22.6753 26.3605L23.582 27.2563C23.7086 27.3847 23.8595 27.4867 24.0258 27.5564C24.1922 27.626 24.3708 27.6618 24.5512 27.6617C24.7315 27.6617 24.9101 27.6257 25.0764 27.556C25.2427 27.4863 25.3936 27.3842 25.5201 27.2557C25.6466 27.1271 25.7462 26.9747 25.8133 26.8072C25.8803 26.6398 25.9134 26.4607 25.9106 26.2804C25.9077 26.1 25.869 25.9221 25.7968 25.7568C25.7245 25.5916 25.6201 25.4423 25.4896 25.3178L24.6355 24.4783L28.1279 20.9931L32.9876 25.8183L29.4861 29.3198C29.2136 29.1049 28.8693 29.0022 28.5236 29.0329C28.1779 29.0636 27.8571 29.2253 27.6267 29.4849C27.3964 29.7444 27.2739 30.0822 27.2845 30.4291C27.2951 30.776 27.4379 31.1057 27.6837 31.3507V31.3543ZM36.8517 36.6365L40.346 33.1422L43.8493 36.6274L40.355 40.1253L36.8517 36.6365ZM42.2826 42.0401L45.7768 38.5459L49.2801 42.031L45.7859 45.5289L42.2826 42.0401ZM53.6737 60.6954L64.5245 49.8972L67.3877 52.7477L56.5369 63.5459L53.6737 60.6954ZM55.42 55.1213L47.7098 47.4492L51.2077 43.9513L58.9323 51.6343L55.42 55.1213ZM34.9115 27.7404L38.4148 31.2256L34.9242 34.7216L31.4209 31.2365L34.9115 27.7404ZM17.9227 20.2134L10.0529 10.641L14.4756 6.23464L24.0208 14.1443L27.1596 18.1335L21.9192 23.3522L17.9227 20.2134Z" fill="black"/>
<path d="M81.4173 69.0601L72.9311 77.5264C72.8064 77.6511 72.7073 77.799 72.6391 77.9616L70.8113 78.404C68.9016 78.8622 66.8883 78.5488 65.2082 77.5318L58.3176 73.3848C58.1646 73.2858 57.9933 73.2186 57.8138 73.1871C57.6343 73.1557 57.4503 73.1606 57.2728 73.2016C57.0952 73.2426 56.9277 73.3189 56.7802 73.4259C56.6327 73.5329 56.5083 73.6685 56.4142 73.8246C56.3201 73.9806 56.2584 74.154 56.2326 74.3344C56.2068 74.5148 56.2176 74.6985 56.2642 74.8747C56.3109 75.0509 56.3924 75.2159 56.5041 75.3599C56.6157 75.5039 56.7552 75.624 56.9141 75.7131L63.8047 79.8619C65.3909 80.8217 67.2093 81.3296 69.0633 81.3307C69.8654 81.3278 70.6645 81.231 71.4441 81.0424L73.9356 80.4494L76.2929 82.8067C76.5479 83.0614 76.8936 83.2045 77.254 83.2045C77.6144 83.2045 77.96 83.0614 78.215 82.8067L86.6922 74.3422C86.8186 74.2159 86.9188 74.066 86.9872 73.9009C87.0556 73.7359 87.0909 73.559 87.0909 73.3803C87.0909 73.2016 87.0556 73.0247 86.9872 72.8596C86.9188 72.6946 86.8186 72.5446 86.6922 72.4183L83.3358 69.0673C83.0819 68.8128 82.7376 68.6692 82.378 68.6678C82.0185 68.6664 81.6731 68.8075 81.4173 69.0601ZM75.8251 78.4893L82.3784 71.9451L83.8109 73.3758L77.2467 79.9182L75.8251 78.4893Z" fill="black"/>
<path d="M2.20859 85.3925L6.36468 85.8876C7.03615 85.9668 7.71684 85.8938 8.35627 85.6741C8.99569 85.4544 9.57744 85.0935 10.0584 84.6183L10.0838 84.5929L12.4955 82.1812L7.23688 76.9226L4.80887 79.376L1.32914 82.8539C1.13131 83.0523 0.993229 83.3022 0.930647 83.5753C0.868064 83.8483 0.883503 84.1335 0.975203 84.3982C1.0669 84.6629 1.23117 84.8965 1.44926 85.0723C1.66734 85.2481 1.93046 85.3591 2.20859 85.3925Z" fill="#AAAAAA"/>
<path d="M4.80884 79.376L10.0674 84.6346L10.0928 84.6092L12.5045 82.1975L7.24592 76.939L4.80884 79.376Z" fill="#929292"/>
<path d="M34.5923 54.842C36.3273 56.5744 38.5782 57.6963 41.006 58.0387C43.4338 58.3811 45.9072 57.9255 48.0536 56.7405C50.2001 55.5555 51.9035 53.7052 52.9074 51.4683C53.9112 49.2314 54.1612 46.7289 53.6197 44.3376C53.0781 41.9463 51.7744 39.7957 49.9048 38.2095C48.0351 36.6233 45.7008 35.6875 43.2532 35.5428C40.8056 35.3982 38.3773 36.0526 36.3339 37.4076C34.2904 38.7626 32.7425 40.7447 31.9231 43.0556C31.2089 45.0717 31.0806 47.2488 31.553 49.3348C32.0254 51.4209 33.0792 53.3303 34.5923 54.842Z" fill="#AAAAAA"/>
<path d="M34.5924 54.842C36.1041 56.3551 38.0135 57.4089 40.0996 57.8813C42.1856 58.3537 44.3628 58.2254 46.3788 57.5112C46.2229 57.2318 46.0288 56.9754 45.8022 56.7496L32.6902 43.6376C32.4644 43.411 32.208 43.2169 31.9286 43.061C31.2147 45.0758 31.086 47.2516 31.5574 49.3366C32.0288 51.4215 33.0811 53.3303 34.5924 54.842Z" fill="#929292"/>
<path d="M4.86688 77.4177L12.0167 84.5675L39.4484 60.2239L42.5691 57.4568L31.9776 46.8635L29.2087 49.9842L4.86688 77.4177Z" fill="#679AF4"/>
<path d="M29.2086 49.9842L39.4483 60.2239L42.569 57.4568L31.9775 46.8635L29.2086 49.9842Z" fill="#277AF4"/>
<path d="M4.86688 77.4177L6.0274 78.5782L33.1381 48.024L31.9776 46.8635L4.86688 77.4177Z" fill="#98B6E2"/>
<path d="M28.7807 47.5399L41.8872 60.6537C42.0774 60.8447 42.3035 60.9962 42.5525 61.0997C42.8014 61.2031 43.0683 61.2563 43.3379 61.2563C43.6074 61.2563 43.8744 61.2031 44.1233 61.0997C44.3722 60.9962 44.5983 60.8447 44.7885 60.6537C44.9795 60.4634 45.1311 60.2374 45.2345 59.9884C45.3379 59.7395 45.3912 59.4726 45.3912 59.203C45.3912 58.9334 45.3379 58.6665 45.2345 58.4176C45.1311 58.1686 44.9795 57.9426 44.7885 57.7524L31.6765 44.6404C31.4863 44.4494 31.2603 44.2978 31.0113 44.1944C30.7624 44.091 30.4955 44.0377 30.2259 44.0377C29.9563 44.0377 29.6894 44.091 29.4405 44.1944C29.1915 44.2978 28.9655 44.4494 28.7752 44.6404C28.5849 44.8309 28.4339 45.0572 28.3312 45.3061C28.2284 45.5551 28.1757 45.8219 28.1762 46.0912C28.1767 46.3606 28.2304 46.6272 28.3341 46.8758C28.4378 47.1244 28.5896 47.35 28.7807 47.5399Z" fill="#679AF4"/>
<path d="M29.6964 62.9076C30.1128 62.9088 30.5254 62.8273 30.9101 62.668C31.2948 62.5086 31.6441 62.2745 31.9377 61.9792L33.9468 59.9701C34.2441 59.6764 34.4803 59.3268 34.642 58.9415C34.8036 58.5562 34.8875 58.1427 34.8888 57.7248C34.89 57.307 34.8087 56.893 34.6493 56.5067C34.49 56.1204 34.2559 55.7694 33.9604 55.474C33.6649 55.1785 33.314 54.9444 32.9277 54.785C32.5414 54.6257 32.1274 54.5443 31.7095 54.5456C31.2917 54.5469 30.8782 54.6307 30.4929 54.7924C30.1076 54.9541 29.758 55.1903 29.4643 55.4876L27.4552 57.4967C27.0119 57.94 26.7101 58.5048 26.5878 59.1196C26.4655 59.7345 26.5282 60.3717 26.7681 60.9509C27.008 61.5301 27.4143 62.0251 27.9355 62.3734C28.4567 62.7217 29.0695 62.9076 29.6964 62.9076Z" fill="#277AF4"/>
<path d="M28.4688 60.971C28.6308 61.1331 28.8232 61.2617 29.0349 61.3495C29.2466 61.4372 29.4736 61.4824 29.7027 61.4824C29.9319 61.4824 30.1589 61.4372 30.3706 61.3495C30.5823 61.2617 30.7747 61.1331 30.9367 60.971L32.9458 58.9618C33.108 58.7998 33.2366 58.6075 33.3243 58.3958C33.4121 58.184 33.4572 57.9571 33.4572 57.7279C33.4572 57.4987 33.4121 57.2718 33.3243 57.06C33.2366 56.8483 33.108 56.6559 32.9458 56.4939C32.7838 56.3318 32.5915 56.2032 32.3798 56.1155C32.168 56.0277 31.9411 55.9825 31.7119 55.9825C31.4827 55.9825 31.2558 56.0277 31.044 56.1155C30.8323 56.2032 30.6399 56.3318 30.4779 56.4939L28.4688 58.5031C28.3067 58.6651 28.1781 58.8574 28.0903 59.0692C28.0026 59.2809 27.9574 59.5078 27.9574 59.737C27.9574 59.9662 28.0026 60.1932 28.0903 60.4049C28.1781 60.6166 28.3067 60.809 28.4688 60.971Z" fill="#4E7693"/>
<path d="M25.3354 67.1054C26.031 67.1057 26.7052 66.8648 27.2431 66.4238C27.781 65.9828 28.1493 65.3689 28.2853 64.6867C28.4213 64.0046 28.3165 63.2964 27.9889 62.6828C27.6612 62.0692 27.131 61.5882 26.4885 61.3218C25.8459 61.0553 25.1309 61.0199 24.4652 61.2216C23.7995 61.4233 23.2243 61.8495 22.8377 62.4277C22.451 63.0059 22.2768 63.7003 22.3448 64.3926C22.4127 65.0848 22.7186 65.7321 23.2103 66.2241C23.4887 66.5041 23.8199 66.7262 24.1846 66.8775C24.5494 67.0287 24.9406 67.1062 25.3354 67.1054Z" fill="#277AF4"/>
<path d="M25.3355 65.682C26.2097 65.682 26.9185 64.9732 26.9185 64.0989C26.9185 63.2247 26.2097 62.5159 25.3355 62.5159C24.4612 62.5159 23.7524 63.2247 23.7524 64.0989C23.7524 64.9732 24.4612 65.682 25.3355 65.682Z" fill="#679AF4"/>
<path d="M12.1872 94.528H16.7332C17.166 94.528 17.5811 94.3561 17.8871 94.05C18.1932 93.7439 18.3651 93.3288 18.3651 92.896C18.3651 92.4632 18.1932 92.0481 17.8871 91.742C17.5811 91.436 17.166 91.264 16.7332 91.264H12.1872C11.7544 91.264 11.3393 91.436 11.0332 91.742C10.7272 92.0481 10.5552 92.4632 10.5552 92.896C10.5552 93.3288 10.7272 93.7439 11.0332 94.05C11.3393 94.3561 11.7544 94.528 12.1872 94.528Z" fill="#AAAAAA"/>
<path d="M49.8966 88.1379H6.24321C5.96538 88.1374 5.69908 88.0268 5.50263 87.8304C5.30618 87.6339 5.1956 87.3676 5.19512 87.0898V86.6456L6.25771 86.7725C6.47316 86.798 6.68993 86.8107 6.90688 86.8106C7.61454 86.8113 8.31535 86.672 8.96891 86.4006C9.62246 86.1292 10.2158 85.7312 10.7148 85.2294L11.0612 84.8776L11.3803 85.1967C11.5408 85.3571 11.7565 85.4502 11.9833 85.457C12.2101 85.4637 12.4309 85.3836 12.6006 85.233L19.8539 78.7921C19.9505 78.7177 20.0307 78.6242 20.0897 78.5174C20.1487 78.4106 20.1851 78.2929 20.1966 78.1715C20.2082 78.0501 20.1947 77.9276 20.157 77.8116C20.1193 77.6956 20.0581 77.5886 19.9773 77.4972C19.8965 77.4058 19.7978 77.332 19.6873 77.2804C19.5768 77.2288 19.4569 77.2004 19.335 77.197C19.2131 77.1936 19.0918 77.2153 18.9786 77.2608C18.8654 77.3062 18.7627 77.3744 18.677 77.4612L12.053 83.3453L6.08908 77.3814L15.8809 66.3474C16.0326 66.17 16.1085 65.9401 16.0923 65.7073C16.0762 65.4744 15.9692 65.2572 15.7945 65.1024C15.6197 64.9477 15.3912 64.8677 15.1581 64.8798C14.925 64.8919 14.7059 64.995 14.5481 65.167L4.20143 76.8265C4.05082 76.9962 3.97071 77.2171 3.97745 77.4439C3.98419 77.6707 4.07728 77.8864 4.2377 78.0469L4.55684 78.366L0.699944 82.2247C0.383114 82.5409 0.161757 82.94 0.0612316 83.3761C-0.039294 83.8123 -0.0149222 84.268 0.131555 84.6909C0.278032 85.1139 0.54069 85.4871 0.889438 85.7677C1.23819 86.0482 1.65892 86.2249 2.10344 86.2775L3.41446 86.4334V87.0898C3.41542 87.8398 3.71375 88.5587 4.24404 89.089C4.77433 89.6193 5.49327 89.9176 6.24321 89.9186H49.8966C50.1746 89.9186 50.4412 90.029 50.6378 90.2255C50.8343 90.4221 50.9447 90.6887 50.9447 90.9667C50.9447 91.2446 50.8343 91.5112 50.6378 91.7078C50.4412 91.9043 50.1746 92.0147 49.8966 92.0147H19.0796C18.9002 91.5364 18.5795 91.1241 18.16 90.8325C17.7405 90.541 17.2422 90.3841 16.7313 90.3828H12.1872C11.6764 90.3841 11.1781 90.541 10.7586 90.8325C10.3391 91.1241 10.0183 91.5364 9.83899 92.0147H3.08262C2.84649 92.0147 2.62003 92.1085 2.45306 92.2755C2.28609 92.4425 2.19229 92.6689 2.19229 92.9051C2.19229 93.1412 2.28609 93.3677 2.45306 93.5346C2.62003 93.7016 2.84649 93.7954 3.08262 93.7954H9.8408C10.0202 94.2737 10.3409 94.6861 10.7604 94.9776C11.1799 95.2691 11.6782 95.426 12.189 95.4274H16.7332C17.244 95.426 17.7423 95.2691 18.1618 94.9776C18.5813 94.6861 18.902 94.2737 19.0814 93.7954H49.8966C50.6469 93.7954 51.3664 93.4974 51.8969 92.9669C52.4274 92.4364 52.7254 91.7169 52.7254 90.9667C52.7254 90.2164 52.4274 89.4969 51.8969 88.9664C51.3664 88.4359 50.6469 88.1379 49.8966 88.1379ZM1.81331 84.1069C1.77433 84.0002 1.76712 83.8845 1.79254 83.7738C1.81797 83.6631 1.87494 83.5622 1.95656 83.4832L5.81346 79.6263L9.80272 83.6155L9.45094 83.9673C9.065 84.3555 8.59549 84.6504 8.07822 84.8296C7.56096 85.0087 7.00961 85.0673 6.46624 85.0009L2.31016 84.5059C2.19774 84.4942 2.09108 84.4504 2.00296 84.3796C1.91483 84.3088 1.84898 84.2142 1.81331 84.1069ZM16.7332 93.6358H12.1872C11.9929 93.6358 11.8066 93.5587 11.6692 93.4213C11.5318 93.2839 11.4546 93.0976 11.4546 92.9033C11.4546 92.709 11.5318 92.5226 11.6692 92.3853C11.8066 92.2479 11.9929 92.1707 12.1872 92.1707H16.7332C16.9275 92.1707 17.1138 92.2479 17.2512 92.3853C17.3886 92.5226 17.4657 92.709 17.4657 92.9033C17.4657 93.0976 17.3886 93.2839 17.2512 93.4213C17.1138 93.5587 16.9275 93.6358 16.7332 93.6358Z" fill="black"/>
<path d="M17.3225 63.3809C17.499 63.5376 17.7305 63.6178 17.9662 63.6039C18.2018 63.5899 18.4223 63.483 18.5791 63.3065L30.1951 50.2145L39.2199 59.2393L21.7234 74.763C21.6359 74.8406 21.5645 74.9347 21.5134 75.0399C21.4622 75.1451 21.4323 75.2594 21.4253 75.3762C21.4183 75.4929 21.4344 75.6099 21.4726 75.7205C21.5109 75.8311 21.5705 75.933 21.6481 76.0205C21.7258 76.108 21.8199 76.1794 21.9251 76.2305C22.0303 76.2817 22.1445 76.3116 22.2613 76.3186C22.3781 76.3256 22.4951 76.3095 22.6056 76.2713C22.7162 76.233 22.8181 76.1734 22.9056 76.0958L40.4802 60.5014L41.2635 61.2847C41.7173 61.7375 42.3066 62.0296 42.9417 62.1164C43.5769 62.2032 44.223 62.08 44.7816 61.7656C45.3402 61.4512 45.7808 60.9627 46.036 60.3747C46.2913 59.7867 46.3474 59.1314 46.1957 58.5085C47.8599 57.9982 49.3957 57.1379 50.7002 55.9854C52.0047 54.8328 53.0477 53.4148 53.7593 51.8262C54.4708 50.2376 54.8346 48.5152 54.826 46.7746C54.8175 45.0339 54.4369 43.3152 53.7098 41.7337C52.9826 40.1521 51.9258 38.7443 50.61 37.6047C49.2943 36.465 47.7501 35.6198 46.081 35.1258C44.4119 34.6318 42.6565 34.5003 40.9324 34.7402C39.2084 34.9801 37.5555 35.5858 36.0847 36.5168C35.8852 36.643 35.7439 36.8434 35.692 37.0738C35.6402 37.3042 35.682 37.5457 35.8082 37.7453C35.9344 37.9449 36.1348 38.0861 36.3652 38.138C36.5956 38.1899 36.8371 38.1481 37.0367 38.0218C38.3093 37.2187 39.7407 36.7005 41.2326 36.5028C42.7244 36.3051 44.2413 36.4327 45.6792 36.8767C47.1171 37.3207 48.4418 38.0706 49.5625 39.075C50.6831 40.0794 51.5731 41.3145 52.1713 42.6953C52.7696 44.0762 53.0618 45.5702 53.0281 47.0747C52.9943 48.5792 52.6353 50.0585 51.9758 51.4112C51.3162 52.7638 50.3717 53.9577 49.2072 54.9108C48.0426 55.8639 46.6856 56.5537 45.2292 56.9328L32.5125 44.2161C32.8499 42.8905 33.4478 41.6453 34.2714 40.5532C34.414 40.3649 34.476 40.1277 34.4437 39.8938C34.4114 39.6598 34.2874 39.4482 34.0992 39.3057C33.9109 39.1631 33.6737 39.1011 33.4397 39.1334C33.2058 39.1657 32.9942 39.2896 32.8516 39.4779C31.9938 40.608 31.3419 41.8805 30.9259 43.2369C30.6967 43.1813 30.4618 43.1533 30.226 43.1535C29.6447 43.1531 29.0764 43.3252 28.593 43.648C28.1096 43.9707 27.7328 44.4297 27.5103 44.9666C27.2879 45.5036 27.2297 46.0945 27.3432 46.6646C27.4567 47.2347 27.7367 47.7583 28.1479 48.1691L28.9313 48.9524L17.2463 62.1243C17.0898 62.301 17.0099 62.5327 17.0242 62.7683C17.0385 63.004 17.1458 63.2243 17.3225 63.3809ZM29.4118 45.2732C29.6286 45.0575 29.9219 44.9364 30.2278 44.9364C30.5336 44.9364 30.827 45.0575 31.0438 45.2732L44.1557 58.3852C44.3475 58.6063 44.4483 58.8918 44.4379 59.1843C44.4276 59.4767 44.3068 59.7544 44.0998 59.9613C43.8929 60.1682 43.6153 60.289 43.3228 60.2994C43.0304 60.3098 42.7448 60.2089 42.5238 60.0172L29.4118 46.9052C29.1968 46.6885 29.0761 46.3957 29.0757 46.0905C29.0754 45.7853 29.1955 45.4922 29.41 45.2751L29.4118 45.2732Z" fill="black"/>
<path d="M29.6965 62.3708C30.3925 62.3698 31.0596 62.0926 31.5515 61.6002L33.5606 59.591C33.8053 59.3464 33.9994 59.0559 34.1318 58.7362C34.2642 58.4165 34.3324 58.0739 34.3324 57.7279C34.3324 57.3819 34.2642 57.0392 34.1318 56.7195C33.9994 56.3999 33.8053 56.1094 33.5606 55.8647C33.3159 55.62 33.0255 55.4259 32.7058 55.2935C32.3861 55.1611 32.0435 55.093 31.6974 55.093C31.3514 55.093 31.0088 55.1611 30.6891 55.2935C30.3694 55.4259 30.0789 55.62 29.8343 55.8647L27.8251 57.8738C27.4569 58.2424 27.2061 58.7119 27.1047 59.223C27.0032 59.734 27.0555 60.2637 27.255 60.745C27.4545 61.2263 27.7923 61.6377 28.2255 61.9271C28.6588 62.2165 29.1682 62.3709 29.6892 62.3708H29.6965ZM29.0926 60.3418C28.9325 60.1816 28.8426 59.9644 28.8426 59.7379C28.8426 59.5114 28.9325 59.2943 29.0926 59.1341L29.468 58.7587L30.6756 59.9664L30.3003 60.3418C30.1401 60.5019 29.9229 60.5918 29.6965 60.5918C29.47 60.5918 29.2528 60.5019 29.0926 60.3418ZM32.3094 57.1249C32.4691 57.2853 32.5587 57.5025 32.5587 57.7288C32.5587 57.9551 32.4691 58.1722 32.3094 58.3326L31.9359 58.7061L30.7282 57.4985L31.1018 57.1249C31.2622 56.9653 31.4793 56.8756 31.7056 56.8756C31.9319 56.8756 32.149 56.9653 32.3094 57.1249Z" fill="black"/>
<path d="M23.5875 62.3491C23.1831 62.754 22.9315 63.2865 22.8757 63.856C22.82 64.4255 22.9634 64.9968 23.2816 65.4724C23.5998 65.948 24.073 66.2986 24.6207 66.4644C25.1684 66.6302 25.7567 66.6009 26.2852 66.3816C26.8138 66.1623 27.2499 65.7665 27.5194 65.2617C27.7888 64.7568 27.8748 64.1742 27.7628 63.613C27.6508 63.0518 27.3477 62.5468 26.905 62.1841C26.4624 61.8214 25.9078 61.6234 25.3355 61.6238C25.0107 61.6231 24.6889 61.6869 24.3889 61.8114C24.0888 61.9359 23.8164 62.1187 23.5875 62.3491ZM26.0282 64.0971C26.0286 64.2113 26.0007 64.3237 25.9472 64.4245C25.8936 64.5252 25.8159 64.6112 25.7211 64.6748C25.6263 64.7383 25.5173 64.7774 25.4037 64.7887C25.2902 64.7999 25.1756 64.7829 25.0701 64.7392C24.9647 64.6955 24.8717 64.6264 24.7995 64.538C24.7272 64.4497 24.6778 64.3449 24.6558 64.2329C24.6338 64.1209 24.6398 64.0053 24.6733 63.8962C24.7068 63.7871 24.7667 63.6879 24.8477 63.6075C24.9447 63.5114 25.0679 63.446 25.2019 63.4197C25.3359 63.3933 25.4747 63.4072 25.6009 63.4595C25.727 63.5118 25.8349 63.6003 25.9109 63.7137C25.987 63.8272 26.0278 63.9606 26.0282 64.0971Z" fill="black"/>
</g>
<defs>
<clipPath id="clip0">
<rect y="3.33337" width="100" height="92.8411" fill="white"/>
</clipPath>
</defs>
</svg>
