<svg width="100" height="100" viewBox="0 0 100 100" fill="none" xmlns="http://www.w3.org/2000/svg">
<path d="M92.2957 79.7374H26.2185V35.2144C26.2185 34.9182 26.3362 34.6341 26.5456 34.4247C26.755 34.2153 27.0391 34.0976 27.3353 34.0976H91.179C91.4751 34.0976 91.7592 34.2153 91.9686 34.4247C92.1781 34.6341 92.2957 34.9182 92.2957 35.2144V79.7374Z" fill="#DFEAEF"/>
<path d="M91.1786 34.0953H82.8724C83.019 34.0953 83.1642 34.1241 83.2997 34.1803C83.4352 34.2364 83.5584 34.3187 83.6621 34.4224C83.7658 34.5261 83.848 34.6492 83.9042 34.7847C83.9603 34.9202 83.9892 35.0654 83.9892 35.2121V73.1739C83.9892 73.5219 83.8509 73.8557 83.6048 74.1018C83.3587 74.3479 83.025 74.4861 82.6769 74.4861H26.2274V79.7374H92.3047V35.2144C92.305 35.0667 92.276 34.9205 92.2194 34.7841C92.1629 34.6477 92.0798 34.5239 91.9751 34.4199C91.8704 34.3158 91.7461 34.2335 91.6093 34.1778C91.4726 34.1221 91.3262 34.094 91.1786 34.0953Z" fill="#BFCFD6"/>
<path d="M31.1599 71.3103V39.7072C31.1599 39.5276 31.2312 39.3554 31.3582 39.2285C31.4852 39.1015 31.6574 39.0302 31.837 39.0302H86.6834C86.863 39.0302 87.0352 39.1015 87.1622 39.2285C87.2891 39.3554 87.3605 39.5276 87.3605 39.7072V71.3103C87.3605 71.4898 87.2891 71.662 87.1622 71.789C87.0352 71.916 86.863 71.9873 86.6834 71.9873H31.8393C31.7502 71.9876 31.6619 71.9703 31.5795 71.9365C31.4971 71.9026 31.4222 71.8527 31.359 71.7898C31.2959 71.7269 31.2458 71.6522 31.2117 71.5699C31.1775 71.4876 31.1599 71.3994 31.1599 71.3103Z" fill="#E5355F"/>
<path d="M86.6834 39.0302H83.9938V68.1321C83.9938 68.221 83.9763 68.309 83.9422 68.3912C83.9082 68.4733 83.8583 68.5479 83.7955 68.6108C83.7326 68.6737 83.658 68.7236 83.5758 68.7576C83.4937 68.7916 83.4056 68.8091 83.3167 68.8091H31.1599V71.3103C31.1599 71.4898 31.2312 71.6621 31.3582 71.789C31.4852 71.916 31.6574 71.9873 31.837 71.9873H86.6834C86.863 71.9873 87.0352 71.916 87.1622 71.789C87.2891 71.6621 87.3605 71.4898 87.3605 71.3103V39.7072C87.3605 39.5276 87.2891 39.3554 87.1622 39.2285C87.0352 39.1015 86.863 39.0302 86.6834 39.0302Z" fill="#B11239"/>
<path d="M97.2558 94.3466H21.2646C20.8537 94.3466 20.4595 94.1833 20.1689 93.8927C19.8783 93.6021 19.7151 93.208 19.7151 92.797V89.7723H98.8077V92.797C98.8077 93.0007 98.7675 93.2024 98.6895 93.3905C98.6115 93.5787 98.4971 93.7496 98.353 93.8935C98.2089 94.0375 98.0378 94.1515 97.8495 94.2293C97.6612 94.307 97.4595 94.3469 97.2558 94.3466Z" fill="#6F98A3"/>
<path d="M98.8077 89.7678H19.7151L26.2274 76.9222H92.2954L98.8077 89.7678Z" fill="#9EBECC"/>
<path d="M92.2954 76.9222H82.9585L87.2372 85.3634C87.3464 85.5797 87.3985 85.8203 87.3884 86.0624C87.3783 86.3045 87.3063 86.54 87.1794 86.7464C87.0526 86.9529 86.8749 87.1234 86.6635 87.2417C86.452 87.36 86.2138 87.4223 85.9715 87.4225H20.904L19.7151 89.7654H98.8077L92.2954 76.9222Z" fill="#86AEBC"/>
<path d="M69.7314 89.7678L68.1725 84.1186C68.1113 83.8959 67.9787 83.6995 67.795 83.5595C67.6113 83.4195 67.3867 83.3438 67.1557 83.3439H51.3647C51.1337 83.3438 50.9091 83.4195 50.7254 83.5595C50.5417 83.6995 50.4091 83.8959 50.3479 84.1186L48.7891 89.7678H69.7314Z" fill="#DFEAEF"/>
<path d="M49.4359 87.4247L48.7891 89.7677H69.7314L69.0845 87.4247H49.4359Z" fill="#BFCFD6"/>
<path d="M99.9966 89.6932C99.9966 89.6816 99.9966 89.67 99.9966 89.6583C99.9925 89.6114 99.9855 89.5648 99.9757 89.5187V89.5048C99.9663 89.4631 99.9547 89.4219 99.9408 89.3815V89.3489C99.9268 89.3132 99.9121 89.2783 99.8966 89.2442V89.2256L93.5122 76.6337V35.2191C93.5116 34.6065 93.268 34.0192 92.8348 33.5861C92.4017 33.1529 91.8144 32.9093 91.2018 32.9087H27.3442C26.7317 32.9093 26.1444 33.1529 25.7112 33.5861C25.2781 34.0192 25.0345 34.6065 25.0338 35.2191V76.6337L18.6495 89.2279V89.2465C18.6332 89.2814 18.6169 89.3163 18.6053 89.3512V89.3838C18.5915 89.4243 18.5798 89.4654 18.5704 89.5071V89.5211C18.5606 89.5671 18.5536 89.6138 18.5494 89.6607C18.5494 89.6723 18.5494 89.6839 18.5494 89.6956C18.5494 89.7072 18.5494 89.7444 18.5494 89.77V92.7947C18.5507 93.5218 18.8401 94.2188 19.3542 94.733C19.8684 95.2472 20.5654 95.5366 21.2926 95.5378H97.2558C97.983 95.5366 98.68 95.2472 99.1941 94.733C99.7083 94.2188 99.9977 93.5218 99.999 92.7947V89.77C100.001 89.7421 99.9989 89.7188 99.9966 89.6932ZM27.421 35.2912H91.1018V75.7286H27.421V35.2912ZM26.9557 78.1158H91.5625L96.8649 88.5741H70.6411L69.3358 83.8021C69.204 83.3286 68.921 82.9112 68.5299 82.6134C68.1389 82.3156 67.6612 82.1538 67.1697 82.1525H51.3647C50.8732 82.1538 50.3955 82.3156 50.0045 82.6134C49.6135 82.9112 49.3305 83.3286 49.1986 83.8021L47.8817 88.5741H21.6579L26.9557 78.1158ZM68.1725 88.5741H50.3573L51.4694 84.5397H67.058L68.1725 88.5741ZM97.6211 92.7947C97.6211 92.8423 97.6116 92.8895 97.5932 92.9334C97.5747 92.9774 97.5477 93.0172 97.5137 93.0505C97.4797 93.0839 97.4394 93.1102 97.3951 93.1278C97.3508 93.1453 97.3035 93.1539 97.2558 93.153H21.2647C21.1704 93.1524 21.0802 93.1147 21.0136 93.0481C20.947 92.9814 20.9093 92.8912 20.9087 92.797V90.9636H97.6141L97.6211 92.7947Z" fill="black"/>
<path d="M87.3604 57.4992C87.0439 57.4992 86.7403 57.625 86.5164 57.8488C86.2926 58.0726 86.1669 58.3762 86.1669 58.6928V70.7914H32.3535V58.6928C32.3535 58.536 32.3226 58.3808 32.2626 58.236C32.2026 58.0912 32.1147 57.9596 32.0039 57.8488C31.893 57.738 31.7615 57.65 31.6167 57.5901C31.4718 57.5301 31.3166 57.4992 31.1599 57.4992C31.0031 57.4992 30.8479 57.5301 30.7031 57.5901C30.5583 57.65 30.4267 57.738 30.3159 57.8488C30.2051 57.9596 30.1171 58.0912 30.0572 58.236C29.9972 58.3808 29.9663 58.536 29.9663 58.6928V71.3126C29.9694 71.8053 30.1664 72.277 30.5149 72.6254C30.8633 72.9738 31.3349 73.1709 31.8276 73.1739H86.6834C87.1761 73.1709 87.6478 72.9738 87.9962 72.6254C88.3446 72.277 88.5417 71.8053 88.5447 71.3126V58.6928C88.5447 58.3778 88.4202 58.0756 88.1984 57.8521C87.9766 57.6285 87.6754 57.5017 87.3604 57.4992Z" fill="black"/>
<path d="M86.6837 37.8366H31.8396C31.3469 37.8397 30.8752 38.0367 30.5268 38.3852C30.1784 38.7336 29.9813 39.2052 29.9783 39.6979V52.3178C29.9783 52.6343 30.104 52.9379 30.3279 53.1618C30.5517 53.3856 30.8553 53.5113 31.1719 53.5113C31.4884 53.5113 31.792 53.3856 32.0158 53.1618C32.2397 52.9379 32.3654 52.6343 32.3654 52.3178V40.2191H86.1672V52.3178C86.1672 52.6343 86.2929 52.9379 86.5168 53.1618C86.7406 53.3856 87.0442 53.5113 87.3608 53.5113C87.6773 53.5113 87.9809 53.3856 88.2048 53.1618C88.4286 52.9379 88.5544 52.6343 88.5544 52.3178V39.7072C88.5537 39.2113 88.3565 38.7359 88.0058 38.3852C87.6551 38.0345 87.1797 37.8372 86.6837 37.8366Z" fill="black"/>
<path d="M6.00671 31.0613H1.20215V35.8659H6.00671V31.0613Z" fill="#FCFF52"/>
<path d="M54.061 31.0613H49.2565V35.8659H54.061V31.0613Z" fill="#FCFF52"/>
<path d="M30.0337 7.03394H25.2291V11.8385H30.0337V7.03394Z" fill="#FCFF52"/>
<path d="M27.6331 22.5714L11.614 52.6877L19.6247 63.8999H35.6415L43.6522 52.6877L27.6331 22.5714Z" fill="white"/>
<path d="M27.6328 52.6876C29.6232 52.6876 31.2368 51.0741 31.2368 49.0836C31.2368 47.0932 29.6232 45.4796 27.6328 45.4796C25.6424 45.4796 24.0288 47.0932 24.0288 49.0836C24.0288 51.0741 25.6424 52.6876 27.6328 52.6876Z" fill="white"/>
<path d="M38.8449 83.1228H16.4205L19.6243 67.9041H35.6411L38.8449 83.1228Z" fill="#CA5AF9"/>
<path d="M41.2481 63.8998H14.0168V67.904H41.2481V63.8998Z" fill="#FCFF52"/>
<path d="M45.4713 15.6263C43.411 13.5676 41.0102 11.8807 38.375 10.6403H48.2633C48.5468 11.4417 49.1044 12.1172 49.8378 12.5473C50.5711 12.9774 51.4328 13.1344 52.2707 12.9906C53.1086 12.8468 53.8686 12.4114 54.4166 11.7614C54.9645 11.1114 55.265 10.2887 55.265 9.43854C55.265 8.58841 54.9645 7.76564 54.4166 7.11565C53.8686 6.46565 53.1086 6.03028 52.2707 5.88647C51.4328 5.74267 50.5711 5.89968 49.8378 6.32977C49.1044 6.75986 48.5468 7.43534 48.2633 8.23682H31.2368V5.83337H24.0241V8.23682H7.00224C6.71877 7.43534 6.1611 6.75986 5.42779 6.32977C4.69447 5.89968 3.83273 5.74267 2.99484 5.88647C2.15696 6.03028 1.39689 6.46565 0.848951 7.11565C0.301013 7.76564 0.000488281 8.58841 0.000488281 9.43854C0.000488281 10.2887 0.301013 11.1114 0.848951 11.7614C1.39689 12.4114 2.15696 12.8468 2.99484 12.9906C3.83273 13.1344 4.69447 12.9774 5.42779 12.5473C6.1611 12.1172 6.71877 11.4417 7.00224 10.6403H16.8882C13.1151 12.4222 9.84143 15.1099 7.359 18.4639C4.87658 21.818 3.26252 25.734 2.66068 29.8632H0.00130789V37.0758H7.21397V29.8632H5.08972C5.85506 25.1162 8.09699 20.7312 11.4969 17.3313C14.8969 13.9314 19.2818 11.6895 24.0288 10.9241V13.046H31.2414V10.9288C35.9894 11.6901 40.376 13.9304 43.7763 17.3306C47.1765 20.7309 49.4169 25.1175 50.1781 29.8655H48.0609V37.0781H55.2735V29.8655H52.6049C51.8244 24.4741 49.3222 19.4794 45.4713 15.6263ZM4.80587 34.6677H2.40475V32.2643H4.80587V34.6677ZM51.6532 8.23682C51.8907 8.23682 52.1228 8.30723 52.3202 8.43915C52.5177 8.57107 52.6716 8.75857 52.7624 8.97794C52.8533 9.19731 52.8771 9.43871 52.8307 9.67159C52.7844 9.90448 52.6701 10.1184 52.5022 10.2863C52.3343 10.4542 52.1203 10.5685 51.8875 10.6149C51.6546 10.6612 51.4132 10.6374 51.1938 10.5465C50.9744 10.4557 50.7869 10.3018 50.655 10.1044C50.5231 9.90694 50.4527 9.67482 50.4527 9.43738C50.4533 9.11916 50.58 8.81415 50.805 8.58913C51.03 8.36412 51.335 8.23743 51.6532 8.23682ZM3.60531 10.6379C3.36786 10.6379 3.13575 10.5675 2.93832 10.4356C2.74088 10.3037 2.58701 10.1162 2.49614 9.89681C2.40527 9.67744 2.3815 9.43604 2.42782 9.20316C2.47414 8.97027 2.58849 8.75635 2.75639 8.58845C2.92429 8.42055 3.13821 8.30621 3.37109 8.25989C3.60398 8.21356 3.84537 8.23734 4.06474 8.3282C4.28412 8.41907 4.47162 8.57295 4.60354 8.77038C4.73546 8.96781 4.80587 9.19993 4.80587 9.43738C4.80525 9.75559 4.67857 10.0606 4.45355 10.2856C4.22854 10.5106 3.92353 10.6373 3.60531 10.6379ZM28.8333 10.6379H26.4322V8.23682H28.8357L28.8333 10.6379ZM52.8608 34.6677H50.4597V32.2643H52.8631L52.8608 34.6677Z" fill="black"/>
<path d="M38.9074 61.3941L45.0591 52.7854L27.6324 20.0143L10.2034 52.7807L17.2881 62.6993H12.8162V69.1069H18.1489L14.9381 84.3233H40.3267L37.1229 69.1069H42.4509V62.6993H20.2429L13.0303 52.5993L26.4318 27.3899V42.5946H28.8353V27.3899L42.2415 52.5993L36.953 59.9981L38.9074 61.3941ZM37.3648 81.9152H17.9L20.5989 69.1H34.6682L37.3648 81.9152ZM40.0475 66.6988H15.2173V65.0981H40.0475V66.6988Z" fill="black"/>
<path d="M22.8281 49.0837C22.8281 50.0339 23.1099 50.9628 23.6378 51.7529C24.1658 52.543 24.9161 53.1589 25.7941 53.5225C26.672 53.8862 27.638 53.9813 28.57 53.7959C29.502 53.6105 30.3581 53.1529 31.03 52.481C31.7019 51.8091 32.1595 50.953 32.3449 50.021C32.5303 49.089 32.4352 48.123 32.0715 47.245C31.7079 46.3671 31.0921 45.6168 30.302 45.0888C29.5118 44.5609 28.5829 44.2791 27.6327 44.2791C26.359 44.281 25.138 44.7877 24.2374 45.6884C23.3368 46.589 22.83 47.81 22.8281 49.0837ZM30.0408 49.0837C30.0408 49.559 29.8998 50.0237 29.6357 50.419C29.3716 50.8142 28.9963 51.1223 28.5571 51.3042C28.1179 51.4861 27.6347 51.5337 27.1684 51.4409C26.7022 51.3482 26.274 51.1193 25.9378 50.7832C25.6017 50.447 25.3728 50.0188 25.2801 49.5526C25.1873 49.0863 25.2349 48.6031 25.4168 48.1639C25.5988 47.7247 25.9068 47.3494 26.3021 47.0853C26.6973 46.8212 27.162 46.6802 27.6373 46.6802C28.2738 46.6821 28.8835 46.936 29.3331 47.3865C29.7827 47.837 30.0355 48.4472 30.0361 49.0837H30.0408Z" fill="black"/>
</svg>
