<svg width="100" height="100" viewBox="0 0 100 100" fill="none" xmlns="http://www.w3.org/2000/svg">
<path d="M67.9581 28.9666C67.9581 18.9934 59.8738 10.9066 49.8981 10.9066C39.9249 10.9066 31.8406 18.9934 31.8406 28.9666C31.8406 34.1335 34.0139 38.7905 37.4922 42.0827C40.8143 45.3554 42.8768 49.9056 42.8768 54.939H56.9219C56.9219 49.9595 58.9395 45.453 62.198 42.1859C65.7403 38.8885 67.9581 34.1873 67.9581 28.9666Z" fill="#F8AF23"/>
<path d="M49.8981 10.9066C49.3437 10.9066 48.7962 10.9358 48.2544 10.9843C57.4588 11.8155 64.6703 19.5478 64.6703 28.9666C64.6703 34.1873 62.4525 38.8885 58.9102 42.1855C55.6517 45.453 53.6341 49.9595 53.6341 54.9386H56.9218C56.9218 49.9595 58.9394 45.4526 62.198 42.1855C65.7402 38.8881 67.958 34.1869 67.958 28.9666C67.958 18.9938 59.8737 10.9066 49.8981 10.9066Z" fill="#F8D323"/>
<path d="M45.7667 58.1459C45.7667 60.4289 47.6163 62.2789 49.8985 62.2789C52.1807 62.2789 54.0315 60.4293 54.0315 58.1459H45.7667Z" fill="#63BCE7"/>
<path d="M42.8771 54.9391H56.9178V58.1459H42.8771V54.9391Z" fill="#F46275"/>
<path d="M35.1283 28.9671C35.1283 19.5482 42.3398 11.8159 51.5422 10.9848C51.0004 10.9358 50.4529 10.9071 49.8981 10.9071C39.9249 10.9071 31.8406 18.9939 31.8406 28.9671C31.8406 34.134 34.0139 38.791 37.4922 42.0832C40.8143 45.3559 42.8768 49.9061 42.8768 54.9394H46.1645C46.1645 49.9061 44.1024 45.3559 40.7799 42.0832C37.3016 38.791 35.1283 34.134 35.1283 28.9671Z" fill="#F87023"/>
<path d="M49.0544 58.1459H45.7667C45.7667 60.4289 47.6163 62.2785 49.8985 62.2785C50.4832 62.2785 51.0384 62.1555 51.5426 61.937C50.0786 61.3013 49.0544 59.8442 49.0544 58.1459Z" fill="#6377E7"/>
<path d="M42.8771 54.9391H46.1648V58.1459H42.8771V54.9391Z" fill="#F43075"/>
<path d="M53.6299 54.9391H56.9176V58.1459H53.6299V54.9391Z" fill="#F48875"/>
<path d="M11.8335 71.6204C12.6752 75.1934 14.9169 78.5479 14.9169 78.5479C15.536 79.4705 16.0418 81.1416 16.0418 82.2544V92.4393C16.0418 93.552 16.9522 94.4625 18.065 94.4625H33.5668C34.6796 94.4625 35.59 93.552 35.59 92.4393V92.1115C35.59 90.9987 36.5005 90.0883 37.6132 90.0883H41.0244C42.1371 90.0883 43.0476 89.1778 43.0476 88.0651V82.5943C43.0476 81.4815 43.958 80.5711 45.0708 80.5711H45.5119C46.6246 80.5711 47.1264 79.7578 46.6287 78.7624L43.954 73.4535C43.4563 72.4621 43.0435 71.6488 43.0435 71.6488H38.2121C37.767 71.6488 37.4028 72.0129 37.4028 72.458V74.4286C37.4028 74.8737 37.1317 74.9911 36.804 74.6917L34.0848 72.195C33.757 71.8956 33.1258 71.6488 32.6807 71.6488H12.0439C11.9711 71.6488 11.9023 71.6407 11.8335 71.6204Z" fill="#F46275"/>
<path d="M21.3143 94.4625H18.065C16.9522 94.4625 16.0418 93.552 16.0418 92.4393V82.2544C16.0418 81.1416 15.536 79.4705 14.9169 78.5479C14.9169 78.5479 12.6752 75.1934 11.8335 71.6204C11.9023 71.6407 11.9711 71.6488 12.0439 71.6488H15.0909C15.9366 75.2096 18.1661 78.5479 18.1661 78.5479C18.7852 79.4705 19.2911 81.1416 19.2911 82.2544V92.4393C19.2911 93.552 20.2015 94.4625 21.3143 94.4625Z" fill="#F43075"/>
<path d="M87.9889 71.6204C87.1472 75.1934 84.9055 78.5479 84.9055 78.5479C84.2864 79.4705 83.7806 81.1416 83.7806 82.2544V92.4393C83.7806 93.552 82.8702 94.4625 81.7574 94.4625H66.2556C65.1428 94.4625 64.2323 93.552 64.2323 92.4393V92.1115C64.2323 90.9987 63.3219 90.0883 62.2091 90.0883H58.798C57.6852 90.0883 56.7748 89.1778 56.7748 88.0651V82.5943C56.7748 81.4815 55.8643 80.5711 54.7516 80.5711H54.3105C53.1978 80.5711 52.696 79.7578 53.1937 78.7624L55.8684 73.4535C56.3661 72.4621 56.7788 71.6488 56.7788 71.6488H61.6103C62.0554 71.6488 62.4195 72.0129 62.4195 72.458V74.4286C62.4195 74.8737 62.6907 74.9911 63.0184 74.6917L65.7376 72.195C66.0654 71.8956 66.6966 71.6488 67.1417 71.6488H87.7785C87.8513 71.6488 87.9201 71.6407 87.9889 71.6204Z" fill="#63BCE7"/>
<path d="M88.3084 69.1359C88.3084 69.9492 88.187 70.7909 87.9888 71.6204C87.92 71.6406 87.8512 71.6487 87.7784 71.6487H67.1416C66.6965 71.6487 66.0653 71.8956 65.7375 72.195L63.0183 74.6916C62.6905 74.9911 62.4194 74.8737 62.4194 74.4286V72.458C62.4194 72.0129 62.0553 71.6487 61.6101 71.6487H56.7787C56.7787 71.6487 56.6897 70.9042 56.5804 69.9937C56.5804 69.9937 56.5804 69.9937 56.5804 69.1359C56.5804 60.3754 63.6819 53.2739 72.4424 53.2739C81.207 53.2739 88.3084 60.3754 88.3084 69.1359Z" fill="#F46275"/>
<path d="M64.7628 66.3035C65.9175 66.3035 66.8536 65.3674 66.8536 64.2127C66.8536 63.058 65.9175 62.1219 64.7628 62.1219C63.6081 62.1219 62.672 63.058 62.672 64.2127C62.672 65.3674 63.6081 66.3035 64.7628 66.3035Z" fill="#F8AF23"/>
<path d="M72.3836 66.3035C73.5383 66.3035 74.4744 65.3674 74.4744 64.2127C74.4744 63.058 73.5383 62.1219 72.3836 62.1219C71.2289 62.1219 70.2928 63.058 70.2928 64.2127C70.2928 65.3674 71.2289 66.3035 72.3836 66.3035Z" fill="#F8AF23"/>
<path d="M80.0048 66.3035C81.1596 66.3035 82.0956 65.3674 82.0956 64.2127C82.0956 63.058 81.1596 62.1219 80.0048 62.1219C78.8501 62.1219 77.9141 63.058 77.9141 64.2127C77.9141 65.3674 78.8501 66.3035 80.0048 66.3035Z" fill="#F8AF23"/>
<path d="M11.5138 69.1359C11.5138 69.9492 11.6352 70.7909 11.8335 71.6204C11.9022 71.6406 11.971 71.6487 12.0439 71.6487H32.6806C33.1257 71.6487 33.757 71.8956 34.0847 72.195L36.8039 74.6916C37.1317 74.9911 37.4028 74.8737 37.4028 74.4286V72.458C37.4028 72.0129 37.767 71.6487 38.2121 71.6487H43.0435C43.0435 71.6487 43.1325 70.9042 43.2418 69.9937C43.2418 69.9937 43.2418 69.9937 43.2418 69.1359C43.2418 60.3754 36.1403 53.2739 27.3798 53.2739C18.6153 53.2739 11.5138 60.3754 11.5138 69.1359Z" fill="#63BCE7"/>
<path d="M43.2415 69.1359V69.9937C43.1323 70.9042 43.0433 71.6487 43.0433 71.6487H39.7819C39.7819 71.6487 39.8709 70.9042 39.9801 69.9937C39.9801 69.9937 39.9801 69.9937 39.9801 69.1359C39.9801 60.9298 33.7486 54.1763 25.757 53.3549C26.2911 53.3022 26.8333 53.2739 27.3796 53.2739C36.1401 53.2739 43.2415 60.3754 43.2415 69.1359Z" fill="#63E2E7"/>
<path d="M14.7631 69.1359C14.7631 69.9492 14.8845 70.7909 15.0827 71.6204C15.0868 71.6285 15.0868 71.6406 15.0908 71.6487H12.0439C11.971 71.6487 11.9022 71.6406 11.8335 71.6204C11.6352 70.7909 11.5138 69.9492 11.5138 69.1359C11.5138 60.3754 18.6153 53.2739 27.3798 53.2739C27.9261 53.2739 28.4683 53.3022 29.0024 53.3549C21.0027 54.1722 14.7631 60.9257 14.7631 69.1359Z" fill="#6377E7"/>
<path d="M78.5083 94.4625H81.7576C82.8703 94.4625 83.7808 93.552 83.7808 92.4393V82.2544C83.7808 81.1416 84.2866 79.4705 84.9057 78.5479C84.9057 78.5479 87.1474 75.1934 87.9891 71.6204C87.9203 71.6407 87.8515 71.6488 87.7787 71.6488H84.7317C83.886 75.2096 81.6564 78.5479 81.6564 78.5479C81.0373 79.4705 80.5315 81.1416 80.5315 82.2544V92.4393C80.5315 93.552 79.6211 94.4625 78.5083 94.4625Z" fill="#63E2E7"/>
<path d="M85.0589 69.1359C85.0589 69.9492 84.9375 70.7909 84.7393 71.6204C84.7352 71.6285 84.7352 71.6406 84.7312 71.6487H87.7781C87.851 71.6487 87.9198 71.6406 87.9885 71.6204C88.1868 70.7909 88.3082 69.9492 88.3082 69.1359C88.3082 60.3754 81.2067 53.2739 72.4422 53.2739C71.8959 53.2739 71.3537 53.3022 70.8196 53.3549C78.8194 54.1722 85.0589 60.9257 85.0589 69.1359Z" fill="#F48875"/>
<path d="M35.0595 66.3035C36.2142 66.3035 37.1503 65.3674 37.1503 64.2127C37.1503 63.058 36.2142 62.1219 35.0595 62.1219C33.9048 62.1219 32.9688 63.058 32.9688 64.2127C32.9688 65.3674 33.9048 66.3035 35.0595 66.3035Z" fill="#F8AF23"/>
<path d="M27.4384 66.3035C28.5932 66.3035 29.5292 65.3674 29.5292 64.2127C29.5292 63.058 28.5932 62.1219 27.4384 62.1219C26.2837 62.1219 25.3477 63.058 25.3477 64.2127C25.3477 65.3674 26.2837 66.3035 27.4384 66.3035Z" fill="#F8AF23"/>
<path d="M19.8182 66.3035C20.9729 66.3035 21.909 65.3674 21.909 64.2127C21.909 63.058 20.9729 62.1219 19.8182 62.1219C18.6635 62.1219 17.7274 63.058 17.7274 64.2127C17.7274 65.3674 18.6635 66.3035 19.8182 66.3035Z" fill="#F8AF23"/>
<path d="M84.28 95.0678C84.615 95.0678 84.887 94.7959 84.887 94.4609C84.887 94.1258 84.615 93.8539 84.28 93.8539H83.9713C84.2335 93.4448 84.3876 92.9601 84.3876 92.4393V82.2544C84.3876 81.2542 84.8554 79.7117 85.4098 78.885C85.5008 78.749 87.579 75.607 88.4895 72.1064L88.4972 72.104L88.5789 71.7617C88.8023 70.8282 88.9152 69.9448 88.9152 69.136C88.9152 60.055 81.5252 52.667 72.4422 52.667C63.3612 52.667 55.9733 60.055 55.9733 69.136V69.9938L56.1549 71.5363C56.0113 71.8204 55.6924 72.4508 55.3258 73.1803L52.6503 78.4909C52.3169 79.1577 52.31 79.8391 52.6317 80.3595C52.9534 80.8795 53.5652 81.1777 54.3102 81.1777H54.7512C55.5322 81.1777 56.1675 81.813 56.1675 82.5939V88.0651C56.1675 89.5153 57.3474 90.6953 58.7977 90.6953H62.2088C62.9898 90.6953 63.625 91.3306 63.625 92.1115V92.4393C63.625 92.9601 63.7792 93.4448 64.0414 93.8539H35.7808C36.043 93.4448 36.1972 92.9601 36.1972 92.4393V92.1115C36.1972 91.3306 36.8325 90.6953 37.6134 90.6953H41.0246C42.4748 90.6953 43.6547 89.5153 43.6547 88.0651V82.5939C43.6547 81.813 44.29 81.1777 45.071 81.1777H45.5121C46.2574 81.1777 46.8692 80.8795 47.1905 80.3595C47.5122 79.8391 47.5053 79.1577 47.1711 78.4893L44.4968 73.1812C44.131 72.4528 43.8126 71.8236 43.6685 71.5383L43.8449 70.0662L43.8494 69.136C43.8494 60.055 36.4614 52.667 27.3804 52.667C18.2974 52.667 10.9075 60.055 10.9075 69.136C10.9075 69.9448 11.0204 70.8286 11.2437 71.7617L11.3255 72.104L11.3332 72.1064C12.2436 75.607 14.3218 78.749 14.4133 78.8862C14.9672 79.7117 15.435 81.2546 15.435 82.2544V92.4393C15.435 92.9641 15.5912 93.4525 15.8575 93.8636C15.5677 93.9098 15.3456 94.1586 15.3456 94.4609C15.3456 94.7959 15.6175 95.0678 15.9525 95.0678H18.0344C18.045 95.0678 18.0551 95.0695 18.0656 95.0695H33.5678C33.5784 95.0695 33.5885 95.0678 33.599 95.0678H66.2249C66.2354 95.0678 66.2455 95.0695 66.256 95.0695H81.7583C81.7688 95.0695 81.7789 95.0678 81.7894 95.0678H84.28ZM57.1872 69.136C57.1872 60.7243 64.0305 53.8809 72.4422 53.8809C80.8559 53.8809 87.7013 60.7243 87.7013 69.136C87.7013 69.7247 87.6321 70.364 87.4949 71.0418H67.1414C66.5478 71.0418 65.7676 71.3449 65.3266 71.7483L63.0262 73.8602V72.4581C63.0262 71.6771 62.3909 71.0418 61.6099 71.0418H57.3171L57.1872 69.9574V69.136ZM64.8394 92.4393V92.1115C64.8394 90.6613 63.6594 89.4814 62.2092 89.4814H58.7981C58.0171 89.4814 57.3818 88.8461 57.3818 88.0651V82.5939C57.3818 81.1437 56.2019 79.9638 54.7517 79.9638H54.3106C53.9958 79.9638 53.7603 79.8752 53.6648 79.7206C53.5693 79.566 53.5952 79.3155 53.7356 79.0351L56.4107 73.7254C56.715 73.1197 56.9861 72.5827 57.1516 72.2553H61.6103C61.72 72.2553 61.8127 72.348 61.8127 72.4577V74.4283C61.8127 75.0858 62.189 75.3225 62.3504 75.3941C62.4196 75.4245 62.5378 75.4637 62.6879 75.4637C62.8898 75.4637 63.15 75.3933 63.4288 75.1384L66.1468 72.643C66.3649 72.4439 66.8484 72.2553 67.1418 72.2553H87.1902C86.2729 75.3788 84.4208 78.1801 84.401 78.2092C83.7127 79.2358 83.1737 81.0126 83.1737 82.254V92.4389C83.1737 93.2146 82.5465 93.845 81.7732 93.8535H66.2398C65.4662 93.845 64.8394 93.2146 64.8394 92.4393ZM27.38 53.8809C35.7917 53.8809 42.635 60.7243 42.635 69.136V69.9574L42.5052 71.0418H38.2123C37.4314 71.0418 36.7961 71.6771 36.7961 72.4581V73.8602L34.4945 71.7471C34.0542 71.3449 33.2741 71.0418 32.6809 71.0418L12.3266 71.0382C12.1902 70.3616 12.121 69.7235 12.121 69.136C12.121 60.7243 18.9663 53.8809 27.38 53.8809ZM15.4221 78.2109C15.4018 78.1805 13.5506 75.384 12.6325 72.2557H32.6813C32.9746 72.2557 33.4582 72.4443 33.6751 72.6422L36.3955 75.14C36.6739 75.3941 36.9332 75.4641 37.1343 75.4641C37.2849 75.4641 37.403 75.4249 37.4726 75.3946C37.6341 75.3229 38.0104 75.0862 38.0104 74.4287V72.4581C38.0104 72.3484 38.1031 72.2557 38.2127 72.2557H42.6711C42.8366 72.5831 43.1081 73.1201 43.4124 73.7266L46.0862 79.0339C46.2275 79.3159 46.2534 79.5664 46.1579 79.721C46.0628 79.8756 45.8273 79.9642 45.5121 79.9642H45.071C43.6208 79.9642 42.4408 81.1441 42.4408 82.5943V88.0655C42.4408 88.8465 41.8055 89.4818 41.0246 89.4818H37.6134C36.1632 89.4818 34.9833 90.6617 34.9833 92.1119V92.4397C34.9833 93.2154 34.3561 93.8458 33.5828 93.8543H18.0494C17.2761 93.8458 16.6489 93.215 16.6489 92.4397V82.2549C16.6489 81.013 16.11 79.2362 15.4221 78.2109Z" fill="#231F20"/>
<path d="M12.5903 94.4608C12.5903 94.1258 12.3183 93.8539 11.9833 93.8539H8.60696C8.27192 93.8539 8 94.1258 8 94.4608C8 94.7959 8.27192 95.0678 8.60696 95.0678H11.9833C12.3183 95.0678 12.5903 94.7959 12.5903 94.4608Z" fill="#231F20"/>
<path d="M91.2153 93.8539H87.8382C87.5031 93.8539 87.2312 94.1258 87.2312 94.4608C87.2312 94.7959 87.5031 95.0678 87.8382 95.0678H91.2153C91.5504 95.0678 91.8223 94.7959 91.8223 94.4608C91.8223 94.1258 91.5504 93.8539 91.2153 93.8539Z" fill="#231F20"/>
<path d="M80.2065 98.7861H20.0257C19.6906 98.7861 19.4187 99.058 19.4187 99.393C19.4187 99.7281 19.6906 100 20.0257 100H80.2069C80.5419 100 80.8138 99.7281 80.8138 99.393C80.8138 99.058 80.5415 98.7861 80.2065 98.7861Z" fill="#231F20"/>
<path d="M16.38 98.7861H13.0037C12.6686 98.7861 12.3967 99.058 12.3967 99.393C12.3967 99.7281 12.6686 100 13.0037 100H16.38C16.7151 100 16.987 99.7281 16.987 99.393C16.987 99.058 16.7151 98.7861 16.38 98.7861Z" fill="#231F20"/>
<path d="M87.3117 98.7861H83.9346C83.5996 98.7861 83.3276 99.058 83.3276 99.393C83.3276 99.7281 83.5996 100 83.9346 100H87.3117C87.6468 100 87.9187 99.7281 87.9187 99.393C87.9187 99.058 87.6468 98.7861 87.3117 98.7861Z" fill="#231F20"/>
<path d="M64.7625 66.9104C66.25 66.9104 67.4603 65.7001 67.4603 64.2127C67.4603 62.7252 66.25 61.5153 64.7625 61.5153C63.2751 61.5153 62.0652 62.7252 62.0652 64.2127C62.0652 65.7001 63.2751 66.9104 64.7625 66.9104ZM64.7625 62.7292C65.5807 62.7292 66.2463 63.3949 66.2463 64.2127C66.2463 65.0308 65.5807 65.6965 64.7625 65.6965C63.9447 65.6965 63.2791 65.0308 63.2791 64.2127C63.2791 63.3949 63.9447 62.7292 64.7625 62.7292Z" fill="#231F20"/>
<path d="M72.3842 66.9104C73.8716 66.9104 75.0815 65.7001 75.0815 64.2127C75.0815 62.7252 73.8716 61.5153 72.3842 61.5153C70.8967 61.5153 69.6864 62.7252 69.6864 64.2127C69.6864 65.7001 70.8967 66.9104 72.3842 66.9104ZM72.3842 62.7292C73.2019 62.7292 73.8676 63.3949 73.8676 64.2127C73.8676 65.0308 73.2019 65.6965 72.3842 65.6965C71.566 65.6965 70.9003 65.0308 70.9003 64.2127C70.9003 63.3949 71.566 62.7292 72.3842 62.7292Z" fill="#231F20"/>
<path d="M80.0044 66.9104C81.4919 66.9104 82.7021 65.7001 82.7021 64.2127C82.7021 62.7252 81.4919 61.5153 80.0044 61.5153C78.5169 61.5153 77.3066 62.7252 77.3066 64.2127C77.3066 65.7001 78.5169 66.9104 80.0044 66.9104ZM80.0044 62.7292C80.8226 62.7292 81.4882 63.3949 81.4882 64.2127C81.4882 65.0308 80.8226 65.6965 80.0044 65.6965C79.1862 65.6965 78.5206 65.0308 78.5206 64.2127C78.5206 63.3949 79.1862 62.7292 80.0044 62.7292Z" fill="#231F20"/>
<path d="M35.0599 66.9104C36.5474 66.9104 37.7573 65.7001 37.7573 64.2127C37.7573 62.7252 36.5474 61.5153 35.0599 61.5153C33.5725 61.5153 32.3622 62.7252 32.3622 64.2127C32.3622 65.7001 33.5725 66.9104 35.0599 66.9104ZM35.0599 62.7292C35.8777 62.7292 36.5433 63.3949 36.5433 64.2127C36.5433 65.0308 35.8777 65.6965 35.0599 65.6965C34.2417 65.6965 33.5761 65.0308 33.5761 64.2127C33.5761 63.3949 34.2413 62.7292 35.0599 62.7292Z" fill="#231F20"/>
<path d="M27.4383 66.9104C28.9258 66.9104 30.1361 65.7001 30.1361 64.2127C30.1361 62.7252 28.9258 61.5153 27.4383 61.5153C25.9508 61.5153 24.741 62.7252 24.741 64.2127C24.741 65.7001 25.9508 66.9104 27.4383 66.9104ZM27.4383 62.7292C28.2565 62.7292 28.9221 63.3949 28.9221 64.2127C28.9221 65.0308 28.2565 65.6965 27.4383 65.6965C26.6205 65.6965 25.9549 65.0308 25.9549 64.2127C25.9549 63.3949 26.6201 62.7292 27.4383 62.7292Z" fill="#231F20"/>
<path d="M19.818 66.9104C21.3055 66.9104 22.5157 65.7001 22.5157 64.2127C22.5157 62.7252 21.3055 61.5153 19.818 61.5153C18.3305 61.5153 17.1202 62.7252 17.1202 64.2127C17.1202 65.7001 18.3305 66.9104 19.818 66.9104ZM19.818 62.7292C20.6362 62.7292 21.3018 63.3949 21.3018 64.2127C21.3018 65.0308 20.6362 65.6965 19.818 65.6965C18.9998 65.6965 18.3342 65.0308 18.3342 64.2127C18.3342 63.3949 18.9994 62.7292 19.818 62.7292Z" fill="#231F20"/>
<path d="M49.9112 8.36031C50.2462 8.36031 50.5181 8.08839 50.5181 7.75335V0.606963C50.5181 0.271919 50.2462 0 49.9112 0C49.5761 0 49.3042 0.271919 49.3042 0.606963V7.75335C49.3042 8.08839 49.5761 8.36031 49.9112 8.36031Z" fill="#231F20"/>
<path d="M34.5764 43.3113L29.5228 48.3648C29.2857 48.602 29.2857 48.986 29.5228 49.2231C29.6414 49.3416 29.7968 49.4007 29.9521 49.4007C30.1075 49.4007 30.2629 49.3416 30.3815 49.2231L35.435 44.1695C35.6722 43.9324 35.6722 43.5484 35.435 43.3113C35.1979 43.0741 34.8131 43.0741 34.5764 43.3113Z" fill="#231F20"/>
<path d="M64.8168 14.5351C64.9722 14.5351 65.1276 14.476 65.2462 14.3574L70.3002 9.30345C70.5373 9.06633 70.5373 8.68232 70.3002 8.4452C70.063 8.20808 69.679 8.20808 69.4419 8.4452L64.3879 13.4992C64.1508 13.7363 64.1508 14.1203 64.3879 14.3574C64.5061 14.476 64.6615 14.5351 64.8168 14.5351Z" fill="#231F20"/>
<path d="M21.6836 29.4409H28.8304C29.1655 29.4409 29.4374 29.169 29.4374 28.834C29.4374 28.4989 29.1655 28.227 28.8304 28.227H21.6836C21.3486 28.227 21.0767 28.4989 21.0767 28.834C21.0767 29.169 21.3486 29.4409 21.6836 29.4409Z" fill="#231F20"/>
<path d="M70.992 29.4409H78.1392C78.4742 29.4409 78.7461 29.169 78.7461 28.834C78.7461 28.4989 78.4742 28.227 78.1392 28.227H70.992C70.6569 28.227 70.385 28.4989 70.385 28.834C70.385 29.169 70.6569 29.4409 70.992 29.4409Z" fill="#231F20"/>
<path d="M34.576 14.3566C34.6946 14.4752 34.85 14.5343 35.0053 14.5343C35.1607 14.5343 35.3161 14.4752 35.4347 14.3566C35.6718 14.1195 35.6718 13.7355 35.4347 13.4984L30.3807 8.4452C30.1436 8.20808 29.7596 8.20808 29.5224 8.4452C29.2853 8.68232 29.2853 9.06633 29.5224 9.30345L34.576 14.3566Z" fill="#231F20"/>
<path d="M65.2452 43.3105C65.0081 43.0734 64.6241 43.0734 64.3869 43.3105C64.1498 43.5476 64.1498 43.9316 64.3869 44.1687L69.4413 49.2231C69.5599 49.3417 69.7153 49.4008 69.8707 49.4008C70.026 49.4008 70.1814 49.3417 70.3 49.2231C70.5371 48.986 70.5371 48.602 70.3 48.3649L65.2452 43.3105Z" fill="#231F20"/>
<path d="M42.0019 30.3386H45.6846L48.2023 36.8128C48.2941 37.0479 48.5199 37.1997 48.7676 37.1997C48.7894 37.1997 48.8104 37.1985 48.8323 37.196C49.105 37.1673 49.3243 36.9585 49.3672 36.6878L51.019 26.3043L52.6821 30.5259C52.7735 30.7578 52.9973 30.9103 53.2469 30.9103H57.821C58.1561 30.9103 58.428 30.6384 58.428 30.3034C58.428 29.9683 58.1561 29.6964 57.821 29.6964H53.6605L51.3338 23.791C51.2334 23.5357 50.9712 23.3795 50.703 23.4103C50.431 23.4398 50.2125 23.6482 50.1696 23.9185L48.5211 34.2826L46.6658 29.5115C46.5748 29.2784 46.3502 29.1246 46.1002 29.1246H42.0023C41.6673 29.1246 41.3954 29.3966 41.3954 29.7316C41.3954 30.0666 41.6669 30.3386 42.0019 30.3386Z" fill="#231F20"/>
<path d="M37.0663 42.5153C40.422 45.8209 42.2696 50.2331 42.2696 54.9391C42.2696 54.9403 42.27 54.9415 42.27 54.9431V58.1459C42.27 58.4809 42.5419 58.7528 42.8769 58.7528H45.2032C45.5027 61.0799 47.4919 62.8858 49.8987 62.8858C52.3063 62.8858 54.2955 61.0803 54.5954 58.7528H56.9176C57.2527 58.7528 57.5246 58.4809 57.5246 58.1459V54.9824C57.5258 54.9678 57.529 54.954 57.529 54.9395C57.529 50.2885 59.3398 45.9115 62.6117 42.6307C66.3951 39.1091 68.5652 34.1287 68.5652 28.9671C68.5652 18.6738 60.1916 10.3002 49.8983 10.3002C39.6066 10.3002 31.2338 18.6738 31.2338 28.9671C31.2334 34.1441 33.308 38.9589 37.0663 42.5153ZM49.8987 61.6719C48.162 61.6719 46.7146 60.409 46.4261 58.7528H53.3725C53.0836 60.409 51.6358 61.6719 49.8987 61.6719ZM56.3102 57.5389H54.0313H45.7665H43.4835V55.546H56.3098V57.5389H56.3102ZM49.8979 11.5141C59.5215 11.5141 67.3509 19.3435 67.3509 28.9671C67.3509 33.7929 65.3216 38.4491 61.7676 41.7574C58.395 45.1394 56.4753 49.5848 56.3244 54.3321H43.4742C43.3216 49.527 41.362 45.0435 37.9095 41.6421C34.3871 38.3091 32.4473 33.8074 32.4473 28.9671C32.4473 19.3431 40.2755 11.5141 49.8979 11.5141Z" fill="#231F20"/>
</svg>
