<svg width="100" height="100" viewBox="0 0 100 100" fill="none" xmlns="http://www.w3.org/2000/svg">
<g clip-path="url(#clip0)">
<path d="M72.0983 10.5608H65.5751V6.20959C65.5751 5.92124 65.6896 5.64471 65.8935 5.44081C66.0974 5.23692 66.3739 5.12238 66.6623 5.12238H71.0111C71.2995 5.12238 71.576 5.23692 71.7799 5.44081C71.9838 5.64471 72.0983 5.92124 72.0983 6.20959V10.5608Z" fill="#DCE6EB"/>
<path d="M71.011 5.1224H69.0536C69.1969 5.12147 69.3391 5.1489 69.4718 5.20312C69.6045 5.25734 69.7252 5.33727 69.8269 5.43832C69.9286 5.53937 70.0093 5.65954 70.0644 5.79191C70.1195 5.92428 70.1478 6.06624 70.1478 6.20961V7.98783C69.7155 7.96267 69.2807 7.9501 68.8437 7.9501C67.7521 7.94878 66.662 8.02761 65.582 8.18593V10.5443H72.1053V6.20961C72.1053 6.06624 72.0769 5.92428 72.0219 5.79191C71.9668 5.65954 71.8861 5.53937 71.7844 5.43832C71.6827 5.33727 71.562 5.25734 71.4292 5.20312C71.2965 5.1489 71.1544 5.12147 71.011 5.1224Z" fill="#C8D2DC"/>
<path d="M67.2047 0.77356H70.4664V5.12241H67.2047V0.77356Z" fill="#828282"/>
<path d="M69.0537 0.77356H70.4687V5.12241H69.0537V0.77356Z" fill="#5A5A5A"/>
<path d="M89.4866 30.1307H82.9704C82.9843 26.8362 82.4257 23.5645 81.3196 20.4613H86.9797L87.0552 20.4212C88.6531 23.408 89.4883 26.7433 89.4866 30.1307Z" fill="#40C1FA"/>
<path d="M82.9705 30.1307H89.4867C89.4954 33.5224 88.665 36.8637 87.0693 39.8566L86.9938 39.8165H81.3337C82.4369 36.7073 82.9908 33.4298 82.9705 30.1307Z" fill="#07A9F0"/>
<path d="M87.0693 20.4142L86.9939 20.4543H81.3338C78.9589 13.9215 74.2586 9.47363 68.8344 9.47363C72.5803 9.47207 76.2561 10.4893 79.4682 12.4165C82.6803 14.3437 85.3078 17.1083 87.0693 20.4142Z" fill="#07A9F0"/>
<path d="M86.9938 39.8071L87.0693 39.8472C85.308 43.1527 82.6808 45.917 79.4692 47.8442C76.2575 49.7714 72.5822 50.7888 68.8367 50.7877C74.2609 50.7877 78.9541 46.3398 81.3361 39.8071H86.9938Z" fill="#40C1FA"/>
<path d="M82.9704 30.1307H74.8152C74.8227 26.8943 74.5862 23.6621 74.1077 20.4613H81.3266C82.4304 23.5649 82.9866 26.8367 82.9704 30.1307Z" fill="#72D1FB"/>
<path d="M74.8151 30.1307H82.9704C82.9842 33.4251 82.4257 36.6968 81.3195 39.8H74.1194C74.5942 36.599 74.8268 33.3667 74.8151 30.1307Z" fill="#40C1FA"/>
<path d="M81.3266 20.4542H74.1194C73.1148 13.9215 71.1267 9.47357 68.8367 9.47357C74.2491 9.47357 78.9517 13.9144 81.3266 20.4542Z" fill="#40C1FA"/>
<path d="M74.1195 39.8071H81.3267C78.9518 46.3398 74.2515 50.7877 68.8273 50.7877C71.1267 50.7877 73.1172 46.3398 74.1195 39.8071Z" fill="#72D1FB"/>
<path d="M74.8152 30.1307H62.8559C62.8484 26.8943 63.0849 23.6621 63.5634 20.4613H74.1313C74.6022 23.6626 74.8308 26.8949 74.8152 30.1307Z" fill="#B4E7FD"/>
<path d="M62.8558 30.1307H74.8152C74.8229 33.367 74.5864 36.5993 74.1076 39.8H63.5445C63.0722 36.5988 62.842 33.3665 62.8558 30.1307Z" fill="#72D1FB"/>
<path d="M74.1194 20.4542H63.5444C64.5491 13.9215 66.5372 9.47357 68.8296 9.47357C71.1219 9.47357 73.1171 13.9144 74.1194 20.4542Z" fill="#72D1FB"/>
<path d="M63.5444 39.8071H74.1123C73.1077 46.3398 71.1196 50.7877 68.8296 50.7877C66.5396 50.7877 64.5562 46.3398 63.5444 39.8071Z" fill="#B4E7FD"/>
<path d="M68.8367 9.47357C66.5467 9.47357 64.5562 13.9215 63.5516 20.4542H56.3444C58.7192 13.9144 63.4219 9.47357 68.8367 9.47357Z" fill="#B4E7FD"/>
<path d="M63.5445 39.8071C64.5492 46.3398 66.5373 50.7877 68.8296 50.7877C63.4053 50.7877 58.7122 46.3398 56.3302 39.8071H63.5445Z" fill="#93DCFC"/>
<path d="M56.3443 20.4542H63.5445C63.0659 23.655 62.8294 26.8873 62.837 30.1236H54.7005C54.6844 26.8296 55.2406 23.5578 56.3443 20.4542Z" fill="#93DCFC"/>
<path d="M63.5445 39.807H56.3444C55.2382 36.7039 54.6796 33.4321 54.6935 30.1377H62.8488C62.8373 33.3737 63.0699 36.606 63.5445 39.807Z" fill="#B4E7FD"/>
<path d="M68.8367 9.47363C63.4124 9.47363 58.7192 13.9215 56.3373 20.4543H50.6772L50.6017 20.4142C52.3632 17.1083 54.9907 14.3437 58.2028 12.4165C61.415 10.4893 65.0908 9.47207 68.8367 9.47363Z" fill="#93DCFC"/>
<path d="M56.3443 39.8071C58.7169 46.3398 63.4195 50.7877 68.8438 50.7877C65.0976 50.7914 61.421 49.7762 58.2076 47.8506C54.9942 45.9251 52.365 43.1618 50.6017 39.8566L50.6772 39.8165L56.3443 39.8071Z" fill="#B4E7FD"/>
<path d="M50.6772 20.4542H56.3373C55.2311 23.5574 54.6725 26.8292 54.6864 30.1236H48.1773C48.1723 26.7344 49.0052 23.3966 50.6017 20.407L50.6772 20.4542Z" fill="#B4E7FD"/>
<path d="M56.3443 39.8071H50.6842L50.6088 39.8472C49.0121 36.8577 48.1793 33.5198 48.1843 30.1307H54.7005C54.6836 33.427 55.2398 36.7013 56.3443 39.8071Z" fill="#93DCFC"/>
<path d="M85.2533 47.8539L86.8028 48.4506C87.0373 48.5409 87.2499 48.6801 87.4264 48.8591C87.6029 49.038 87.7392 49.2525 87.8263 49.4882L88.7791 52.0943L89.7389 49.4882C89.826 49.2525 89.9624 49.038 90.1388 48.8591C90.3153 48.6801 90.5279 48.5409 90.7625 48.4506L92.3119 47.8539L90.7625 47.2572C90.5279 47.167 90.3152 47.0278 90.1387 46.8489C89.9622 46.6699 89.8259 46.4554 89.7389 46.2195L88.7791 43.6135L87.8357 46.2243C87.7488 46.4601 87.6125 46.6746 87.436 46.8536C87.2595 47.0325 87.0468 47.1717 86.8122 47.2619L85.2533 47.8539Z" fill="#FFE046"/>
<path d="M90.772 47.2572C90.3438 47.0919 89.997 46.7662 89.8051 46.3492C89.7087 46.9572 89.4611 47.5311 89.0848 48.0183C88.7085 48.5054 88.2158 48.8901 87.6519 49.1369C87.7237 49.2471 87.783 49.3649 87.8287 49.4882L88.7792 52.0943L89.739 49.4882C89.8261 49.2525 89.9624 49.038 90.1389 48.8591C90.3154 48.6801 90.528 48.5409 90.7626 48.4506L92.312 47.8539L90.772 47.2572Z" fill="#FFD508"/>
<path d="M45.3519 11.648L46.9014 12.2447C47.136 12.3349 47.3487 12.4741 47.5252 12.653C47.7017 12.832 47.838 13.0465 47.9249 13.2824L48.8848 15.8884L49.8446 13.2824C49.9317 13.0466 50.0681 12.8321 50.2446 12.6532C50.421 12.4743 50.6336 12.335 50.8682 12.2447L52.4176 11.648L50.8682 11.0513C50.6336 10.9612 50.4209 10.8219 50.2444 10.643C50.0679 10.464 49.9316 10.2495 49.8446 10.0137L48.8848 7.40765L47.9249 10.0137C47.838 10.2495 47.7017 10.464 47.5252 10.643C47.3487 10.8219 47.136 10.9612 46.9014 11.0513L45.3519 11.648Z" fill="#FFE046"/>
<path d="M50.8681 11.0513C50.4401 10.8858 50.0933 10.5601 49.9012 10.1434C49.8044 10.7518 49.556 11.3261 49.1789 11.8133C48.8018 12.3004 48.3081 12.6848 47.7433 12.931C47.8151 13.0412 47.8745 13.159 47.9202 13.2824L48.88 15.8884L49.8399 13.2824C49.927 13.0466 50.0633 12.8321 50.2398 12.6532C50.4163 12.4743 50.6289 12.335 50.8634 12.2447L52.4129 11.648L50.8681 11.0513Z" fill="#FFD508"/>
<path d="M87.7533 40.2127C89.3323 37.2501 90.1933 33.9579 90.2669 30.6015C90.3405 27.245 89.6245 23.9183 88.1768 20.8893C86.7291 17.8602 84.59 15.2137 81.932 13.1628C79.274 11.112 76.1714 9.71419 72.8743 9.08212V6.20962C72.8737 5.75588 72.7077 5.31792 72.4072 4.97794C72.1067 4.63795 71.6925 4.41929 71.2423 4.36301V0.773552C71.2423 0.67177 71.2222 0.570988 71.1831 0.476982C71.1441 0.382977 71.0869 0.297597 71.0149 0.225735C70.9428 0.153874 70.8572 0.0969437 70.7631 0.0582082C70.669 0.0194727 70.5681 -0.000306717 70.4664 3.59542e-06H67.2047C66.9995 3.59542e-06 66.8028 0.0815022 66.6577 0.226571C66.5127 0.371639 66.4312 0.568394 66.4312 0.773552V4.36537C65.9809 4.42165 65.5667 4.6403 65.2662 4.98029C64.9658 5.32028 64.7997 5.75824 64.7992 6.21198V9.07505C61.5022 9.70053 58.4009 11.0997 55.7501 13.1574C55.5874 13.2825 55.4812 13.4671 55.4546 13.6705C55.4281 13.874 55.4835 14.0796 55.6086 14.2423C55.7337 14.4049 55.9182 14.5112 56.1217 14.5377C56.3251 14.5642 56.5308 14.5089 56.6934 14.3838C58.0341 13.3466 59.5019 12.4851 61.0611 11.8202C58.9032 13.7069 57.0825 16.3907 55.8067 19.6807H51.9153C52.5631 18.6357 53.306 17.6528 54.1346 16.7445C54.203 16.6692 54.256 16.5812 54.2904 16.4855C54.3248 16.3898 54.3401 16.2882 54.3353 16.1866C54.3304 16.085 54.3057 15.9853 54.2623 15.8933C54.219 15.8013 54.1579 15.7187 54.0827 15.6502C54.0074 15.5818 53.9194 15.5288 53.8237 15.4944C53.728 15.4599 53.6264 15.4447 53.5248 15.4495C53.4232 15.4543 53.3235 15.4791 53.2315 15.5225C53.1394 15.5658 53.0568 15.6268 52.9884 15.7021C50.1914 18.7729 48.347 22.5904 47.6797 26.6902C47.0124 30.7899 47.5509 34.9952 49.2297 38.7946C50.9085 42.5939 53.6553 45.8235 57.1358 48.0905C60.6163 50.3574 64.6806 51.5641 68.8343 51.5636C73.5718 51.5799 78.1785 50.0109 81.921 47.1063C82.0015 47.0443 82.0691 46.9671 82.1197 46.8791C82.1704 46.7911 82.2033 46.6939 82.2164 46.5932C82.2296 46.4924 82.2227 46.3901 82.1963 46.292C82.1699 46.1939 82.1244 46.102 82.0625 46.0214C82.0006 45.9409 81.9234 45.8734 81.8353 45.8227C81.7473 45.772 81.6501 45.7391 81.5494 45.726C81.4486 45.7129 81.3463 45.7197 81.2482 45.7461C81.1501 45.7725 81.0582 45.818 80.9776 45.8799C79.637 46.9171 78.1692 47.7786 76.6099 48.4435C78.7678 46.5568 80.5885 43.8729 81.8644 40.583H85.7557C85.1094 41.6278 84.3681 42.6107 83.5412 43.5192C83.4728 43.5944 83.4198 43.6824 83.3854 43.7782C83.3509 43.8739 83.3357 43.9755 83.3405 44.0771C83.3502 44.2823 83.4411 44.4752 83.5931 44.6135C83.7451 44.7517 83.9458 44.8239 84.151 44.8142C84.3562 44.8044 84.5491 44.7136 84.6874 44.5616C85.8854 43.2445 86.9153 41.7837 87.7533 40.2127ZM75.018 39.0336C75.3746 36.3349 75.5644 33.6168 75.5864 30.8948H82.1899C82.1239 33.659 81.647 36.3979 80.7748 39.0218L75.018 39.0336ZM68.8391 50.0142C67.4877 50.0142 65.5821 47.052 64.4666 40.5807H73.2139C72.0913 47.052 70.1881 50.0142 68.8367 50.0142H68.8391ZM51.0451 39.0336C49.7828 36.499 49.0752 33.7244 48.9697 30.8948H53.9388C54.0011 33.6524 54.448 36.3877 55.2666 39.0218L51.0451 39.0336ZM51.0451 21.2254H55.2666C54.448 23.8594 54.0011 26.5948 53.9388 29.3524H48.9697C49.0769 26.5268 49.7844 23.7564 51.0451 21.2254ZM62.6483 21.2254C62.2914 23.9201 62.1008 26.6343 62.0776 29.3524H55.4741C55.5401 26.5882 56.017 23.8492 56.8892 21.2254H62.6483ZM68.8273 10.2448C70.1786 10.2448 72.0818 13.2069 73.1997 19.6783H64.4643C65.5798 13.2069 67.4854 10.2472 68.8367 10.2472L68.8273 10.2448ZM86.6165 21.2254C87.8804 23.7557 88.5911 26.5261 88.7013 29.3524H83.7346C83.6736 26.5951 83.2283 23.8597 82.4115 21.2254H86.6165ZM82.1757 29.3571H75.5722C75.5531 26.6376 75.3665 23.9219 75.0133 21.2254H80.7772C81.6442 23.8516 82.1155 26.5922 82.1757 29.3571ZM74.7704 19.6878C74.3506 17.202 73.4733 13.2069 71.879 10.7825C75.294 11.9782 78.2938 15.1526 80.1829 19.6878H74.7704ZM73.4497 21.2254C73.8171 23.9193 74.0132 26.6337 74.0369 29.3524H63.6365C63.6596 26.6338 63.855 23.9193 64.2214 21.2254H73.4497ZM55.4859 30.8948H62.0894C62.1128 33.6129 62.3034 36.327 62.6601 39.0218H56.8939C56.0243 36.3975 55.5498 33.6586 55.4859 30.8948ZM62.8912 40.5641C63.3087 43.0499 64.1883 47.045 65.7826 49.4694C62.3677 48.2737 59.3678 45.0993 57.4788 40.5641H62.8912ZM64.219 39.0147C63.8529 36.3231 63.6575 33.611 63.6341 30.8948H74.0346C74.0122 33.6174 73.8168 36.3357 73.4497 39.0336L64.219 39.0147ZM83.7346 30.8948H88.7037C88.5936 33.7211 87.8829 36.4915 86.6189 39.0218H82.4115C83.2285 36.3875 83.6738 33.6521 83.7346 30.8948ZM85.7534 19.6689H81.862C80.5909 16.3837 78.7749 13.7069 76.6217 11.8202C80.4055 13.4314 83.5961 16.177 85.7534 19.6783V19.6689ZM67.9806 1.54946H69.6928V4.34886H67.9806V1.54946ZM66.3486 6.21198C66.3483 6.17059 66.3562 6.12955 66.3718 6.09122C66.3874 6.05289 66.4105 6.01803 66.4397 5.98866C66.4688 5.95928 66.5035 5.93596 66.5417 5.92005C66.5799 5.90414 66.6209 5.89595 66.6623 5.89595H71.0111C71.0525 5.89564 71.0936 5.90353 71.1319 5.91915C71.1702 5.93477 71.2051 5.95783 71.2345 5.98699C71.2638 6.01614 71.2871 6.05083 71.3031 6.08904C71.319 6.12725 71.3272 6.16823 71.3272 6.20962V8.84157C69.6747 8.65091 68.0058 8.65091 66.3533 8.84157L66.3486 6.21198ZM65.7826 10.7754C64.1907 13.2069 63.3087 17.1926 62.8912 19.6783H57.467C59.3678 15.1455 62.3653 11.9711 65.7826 10.7754ZM51.9177 40.583H55.809C57.0802 43.8682 58.8985 46.545 61.0493 48.4317C57.2669 46.823 54.0765 44.0808 51.9177 40.583ZM71.8885 49.4882C73.4827 47.0638 74.36 43.0687 74.7798 40.583H80.2041C78.3032 45.1158 75.3034 48.2902 71.8885 49.4859V49.4882Z" fill="black"/>
<path d="M92.5997 47.1299L91.0503 46.5332C90.9185 46.4826 90.799 46.4045 90.6997 46.304C90.6005 46.2036 90.5238 46.0831 90.4748 45.9507L89.515 43.3447C89.4605 43.1958 89.3616 43.0673 89.2317 42.9766C89.1018 42.8858 88.9471 42.8371 88.7886 42.8371C88.6301 42.8371 88.4755 42.8858 88.3455 42.9766C88.2156 43.0673 88.1167 43.1958 88.0622 43.3447L87.1024 45.9389C87.0534 46.0713 86.9767 46.1918 86.8775 46.2922C86.7783 46.3927 86.6587 46.4708 86.5269 46.5214L84.9775 47.1181C84.831 47.1739 84.7049 47.2729 84.616 47.402C84.527 47.5311 84.4794 47.6841 84.4794 47.8409C84.4794 47.9977 84.527 48.1507 84.616 48.2798C84.7049 48.4089 84.831 48.5079 84.9775 48.5637L86.5269 49.1604C86.6587 49.211 86.7783 49.2891 86.8775 49.3896C86.9767 49.49 87.0534 49.6105 87.1024 49.7429L88.0717 52.356C88.1262 52.5048 88.2251 52.6333 88.355 52.7241C88.4849 52.8149 88.6395 52.8636 88.798 52.8636C88.9565 52.8636 89.1112 52.8149 89.2411 52.7241C89.371 52.6333 89.4699 52.5048 89.5244 52.356L90.4748 49.7618C90.5238 49.6294 90.6005 49.5089 90.6997 49.4085C90.799 49.308 90.9185 49.2299 91.0503 49.1793L92.5997 48.5826C92.7462 48.5268 92.8723 48.4278 92.9613 48.2987C93.0502 48.1696 93.0978 48.0165 93.0978 47.8598C93.0978 47.703 93.0502 47.5499 92.9613 47.4209C92.8723 47.2918 92.7462 47.1928 92.5997 47.1369V47.1299ZM89.015 49.2194L88.7792 49.8538L88.5433 49.2194C88.3269 48.633 87.9021 48.1469 87.35 47.8539C87.9021 47.5609 88.3269 47.0748 88.5433 46.4884L88.7792 45.854L89.015 46.4884C89.2314 47.0748 89.6562 47.5609 90.2083 47.8539C89.6562 48.1469 89.2314 48.633 89.015 49.2194Z" fill="black"/>
<path d="M47.1985 13.5489L48.1584 16.1431C48.2129 16.2919 48.3118 16.4204 48.4417 16.5112C48.5716 16.602 48.7263 16.6506 48.8848 16.6506C49.0432 16.6506 49.1979 16.602 49.3278 16.5112C49.4577 16.4204 49.5566 16.2919 49.6111 16.1431L50.571 13.5489C50.6205 13.4173 50.6975 13.2978 50.7967 13.1982C50.8959 13.0986 51.0151 13.0211 51.1464 12.9711L52.6959 12.3697C52.8424 12.3139 52.9685 12.2148 53.0574 12.0858C53.1464 11.9567 53.194 11.8036 53.194 11.6468C53.194 11.4901 53.1464 11.337 53.0574 11.2079C52.9685 11.0788 52.8424 10.9798 52.6959 10.924L51.1464 10.3273C51.0151 10.2764 50.896 10.1982 50.7972 10.0977C50.6984 9.99731 50.6221 9.877 50.5734 9.7448L49.6135 7.13879C49.559 6.98996 49.4601 6.86147 49.3302 6.77069C49.2003 6.67991 49.0456 6.63123 48.8871 6.63123C48.7286 6.63123 48.574 6.67991 48.444 6.77069C48.3141 6.86147 48.2152 6.98996 48.1607 7.13879L47.2009 9.7448C47.1519 9.87723 47.0752 9.99769 46.976 10.0981C46.8768 10.1986 46.7573 10.2767 46.6254 10.3273L45.076 10.924C44.9295 10.9798 44.8034 11.0788 44.7145 11.2079C44.6255 11.337 44.5779 11.4901 44.5779 11.6468C44.5779 11.8036 44.6255 11.9567 44.7145 12.0858C44.8034 12.2148 44.9295 12.3139 45.076 12.3697L46.6231 12.9711C46.7544 13.0211 46.8737 13.0986 46.9729 13.1982C47.0721 13.2978 47.149 13.4173 47.1985 13.5489ZM48.6513 10.2802L48.8871 9.64575L49.123 10.2802C49.3392 10.8667 49.764 11.3528 50.3163 11.6457C49.764 11.9385 49.3392 12.4247 49.123 13.0112L48.8871 13.6456L48.6513 13.0112C48.4349 12.4248 48.01 11.9387 47.4579 11.6457C48.01 11.3527 48.4349 10.8665 48.6513 10.2802Z" fill="black"/>
<path d="M88.8428 12.4216C89.048 12.4216 89.2447 12.3401 89.3898 12.195C89.5348 12.0499 89.6163 11.8532 89.6163 11.648V10.9948C89.6163 10.7893 89.5347 10.5922 89.3894 10.4469C89.2441 10.3017 89.0471 10.22 88.8416 10.22C88.6362 10.22 88.4391 10.3017 88.2938 10.4469C88.1485 10.5922 88.0669 10.7893 88.0669 10.9948V11.648C88.0669 11.7498 88.087 11.8506 88.126 11.9446C88.165 12.0386 88.2222 12.124 88.2943 12.1958C88.3664 12.2677 88.4519 12.3246 88.546 12.3634C88.6402 12.4021 88.741 12.4219 88.8428 12.4216Z" fill="black"/>
<path d="M89.3711 12.9522C89.3711 13.1574 89.4526 13.3542 89.5977 13.4992C89.7427 13.6443 89.9395 13.7258 90.1446 13.7258H90.7979C90.8996 13.7258 91.0004 13.7057 91.0944 13.6668C91.1884 13.6279 91.2738 13.5708 91.3457 13.4989C91.4177 13.4269 91.4747 13.3415 91.5137 13.2475C91.5526 13.1535 91.5726 13.0528 91.5726 12.9511C91.5726 12.8493 91.5526 12.7486 91.5137 12.6546C91.4747 12.5606 91.4177 12.4752 91.3457 12.4032C91.2738 12.3313 91.1884 12.2742 91.0944 12.2353C91.0004 12.1964 90.8996 12.1763 90.7979 12.1763H90.147C90.045 12.176 89.944 12.1959 89.8497 12.2348C89.7554 12.2736 89.6698 12.3308 89.5977 12.4029C89.5255 12.475 89.4684 12.5607 89.4295 12.6549C89.3906 12.7492 89.3708 12.8503 89.3711 12.9522Z" fill="black"/>
<path d="M88.8427 13.4829C88.638 13.4835 88.4418 13.5653 88.2973 13.7103C88.1527 13.8553 88.0715 14.0517 88.0715 14.2564V14.9097C88.0715 15.1152 88.1532 15.3122 88.2984 15.4575C88.4437 15.6028 88.6408 15.6844 88.8463 15.6844C89.0517 15.6844 89.2488 15.6028 89.3941 15.4575C89.5394 15.3122 89.621 15.1152 89.621 14.9097V14.2564C89.621 14.1544 89.6008 14.0535 89.5617 13.9593C89.5225 13.8651 89.4651 13.7796 89.3928 13.7078C89.3204 13.6359 89.2346 13.579 89.1402 13.5404C89.0458 13.5018 88.9447 13.4822 88.8427 13.4829Z" fill="black"/>
<path d="M86.8924 13.7258H87.5457C87.6474 13.7258 87.7482 13.7057 87.8422 13.6668C87.9362 13.6279 88.0216 13.5708 88.0935 13.4989C88.1654 13.4269 88.2225 13.3415 88.2614 13.2475C88.3004 13.1535 88.3204 13.0528 88.3204 12.9511C88.3204 12.8493 88.3004 12.7486 88.2614 12.6546C88.2225 12.5606 88.1654 12.4752 88.0935 12.4032C88.0216 12.3313 87.9362 12.2742 87.8422 12.2353C87.7482 12.1964 87.6474 12.1763 87.5457 12.1763H86.8924C86.7907 12.1763 86.6899 12.1964 86.5959 12.2353C86.5019 12.2742 86.4165 12.3313 86.3446 12.4032C86.2726 12.4752 86.2156 12.5606 86.1766 12.6546C86.1377 12.7486 86.1177 12.8493 86.1177 12.9511C86.1177 13.0528 86.1377 13.1535 86.1766 13.2475C86.2156 13.3415 86.2726 13.4269 86.3446 13.4989C86.4165 13.5708 86.5019 13.6279 86.5959 13.6668C86.6899 13.7057 86.7907 13.7258 86.8924 13.7258Z" fill="black"/>
<path d="M48.8305 46.3445C49.0356 46.3445 49.2324 46.263 49.3775 46.1179C49.5225 45.9729 49.604 45.7761 49.604 45.5709V44.9177C49.604 44.7122 49.5224 44.5151 49.3771 44.3699C49.2318 44.2246 49.0348 44.1429 48.8293 44.1429C48.6238 44.1429 48.4268 44.2246 48.2815 44.3699C48.1362 44.5151 48.0546 44.7122 48.0546 44.9177V45.5709C48.0546 45.6727 48.0747 45.7735 48.1137 45.8675C48.1527 45.9615 48.2099 46.0469 48.282 46.1188C48.354 46.1906 48.4396 46.2476 48.5337 46.2863C48.6279 46.325 48.7287 46.3448 48.8305 46.3445Z" fill="black"/>
<path d="M50.788 46.0992H50.1347C49.9292 46.0992 49.7322 46.1809 49.5869 46.3262C49.4416 46.4714 49.36 46.6685 49.36 46.874C49.36 47.0794 49.4416 47.2765 49.5869 47.4218C49.7322 47.5671 49.9292 47.6487 50.1347 47.6487H50.788C50.9935 47.6487 51.1905 47.5671 51.3358 47.4218C51.4811 47.2765 51.5627 47.0794 51.5627 46.874C51.5627 46.6685 51.4811 46.4714 51.3358 46.3262C51.1905 46.1809 50.9935 46.0992 50.788 46.0992Z" fill="black"/>
<path d="M48.8306 47.4034C48.6254 47.4034 48.4286 47.4849 48.2836 47.63C48.1385 47.7751 48.057 47.9718 48.057 48.177V48.8303C48.057 49.0357 48.1386 49.2328 48.2839 49.3781C48.4292 49.5234 48.6263 49.605 48.8317 49.605C49.0372 49.605 49.2343 49.5234 49.3796 49.3781C49.5249 49.2328 49.6065 49.0357 49.6065 48.8303V48.177C49.6065 48.0752 49.5864 47.9744 49.5474 47.8804C49.5083 47.7864 49.4512 47.701 49.3791 47.6292C49.307 47.5573 49.2214 47.5004 49.1273 47.4616C49.0332 47.4229 48.9323 47.4031 48.8306 47.4034Z" fill="black"/>
<path d="M48.2999 46.8752C48.2999 46.67 48.2184 46.4733 48.0734 46.3282C47.9283 46.1831 47.7315 46.1016 47.5264 46.1016H46.8731C46.6676 46.1016 46.4706 46.1832 46.3253 46.3285C46.18 46.4738 46.0984 46.6709 46.0984 46.8764C46.0984 47.0818 46.18 47.2789 46.3253 47.4242C46.4706 47.5695 46.6676 47.6511 46.8731 47.6511H47.5264C47.6282 47.6511 47.7289 47.631 47.823 47.592C47.917 47.5529 48.0023 47.4958 48.0742 47.4237C48.1461 47.3516 48.203 47.266 48.2417 47.1719C48.2805 47.0778 48.3002 46.977 48.2999 46.8752Z" fill="black"/>
<path d="M42.8779 36.1493C47.1332 36.1493 50.5827 32.6997 50.5827 28.4445C50.5827 24.1892 47.1332 20.7396 42.8779 20.7396C38.6227 20.7396 35.1731 24.1892 35.1731 28.4445C35.1731 32.6997 38.6227 36.1493 42.8779 36.1493Z" fill="#7D7D8C"/>
<path d="M49.0427 39.2316H35.1872L35.1731 39.2198V58.4925H49.0427V39.2316Z" fill="#FFE17A"/>
<path d="M71.6078 92.7221C71.6078 92.7221 52.9766 61.6787 52.8964 61.575V48.368L58.5376 52.3985L56.092 62.1811C55.9693 62.6718 55.9445 63.1819 56.019 63.6822C56.0935 64.1825 56.2658 64.6632 56.5261 65.097C56.7864 65.5307 57.1295 65.9089 57.536 66.21C57.9424 66.5111 58.4042 66.7292 58.8949 66.8518C59.3856 66.9745 59.8957 66.9993 60.396 66.9248C60.8963 66.8503 61.3771 66.678 61.8108 66.4177C62.2445 66.1574 62.6227 65.8143 62.9238 65.4078C63.2249 65.0014 63.443 64.5396 63.5657 64.0489L66.6481 51.7217C66.8357 50.9716 66.7932 50.1824 66.5261 49.4568C66.259 48.7313 65.7797 48.1029 65.1505 47.6534L54.3633 39.9486C53.3209 39.2034 50.1984 39.2411 49.814 39.2411H48.0169L41.338 49.2571L35.7722 39.2411H35.185L13.7968 20.8976C13.4128 20.5684 12.9677 20.3181 12.4869 20.1609C12.0061 20.0037 11.499 19.9427 10.9947 19.9815C9.97612 20.0598 9.03036 20.5395 8.36548 21.3151C7.70059 22.0907 7.37104 23.0986 7.44932 24.1172C7.52761 25.1358 8.00731 26.0815 8.78291 26.7464C8.78291 26.7464 30.98 45.6913 31.3219 45.8493V61.2778L20.0347 68.3246C19.5641 68.6175 19.1622 69.0084 18.8566 69.4708C18.5509 69.9331 18.3486 70.4561 18.2636 71.0038L15.1977 91.0335C15.1203 91.5335 15.1421 92.0439 15.2619 92.5355C15.3817 93.0271 15.5972 93.4902 15.896 93.8986C16.1948 94.3069 16.5711 94.6523 17.0035 94.9152C17.4358 95.1781 17.9157 95.3532 18.4157 95.4307C18.9157 95.5081 19.4261 95.4863 19.9177 95.3665C20.4093 95.2467 20.8725 95.0312 21.2808 94.7324C21.6891 94.4335 22.0346 94.0572 22.2974 93.6249C22.5603 93.1926 22.7355 92.7127 22.8129 92.2127L25.6264 73.9258L36.4561 67.1572C36.5481 67.0983 36.6354 67.037 36.7203 66.9733H47.1797L65.0114 96.6889C65.2691 97.1277 65.6112 97.5111 66.0179 97.8169C66.4247 98.1227 66.888 98.3448 67.3811 98.4705C67.8743 98.5962 68.3874 98.6229 68.8909 98.549C69.3944 98.4752 69.8783 98.3024 70.3146 98.0404C70.7509 97.7785 71.1309 97.4327 71.4328 97.023C71.7346 96.6133 71.9523 96.1479 72.0732 95.6536C72.1941 95.1593 72.2159 94.6459 72.1372 94.1431C72.0585 93.6404 71.881 93.1582 71.6148 92.7244L71.6078 92.7221Z" fill="#9D5CAD"/>
<path d="M35.1732 26.1332C37.6145 27.1506 40.2332 27.6744 42.878 27.6744C45.5229 27.6744 48.1415 27.1506 50.5828 26.1332C50.3682 26.3549 48.6348 28.2039 49.0428 30.7556C49.2298 31.8681 49.7658 32.8923 50.5734 33.68C51.7937 32.4333 52.6971 30.912 53.2077 29.2439C53.7568 27.4219 53.8141 25.487 53.3738 23.6357C52.9335 21.7844 52.0114 20.0825 50.7009 18.7027C49.3904 17.3229 47.7382 16.3143 45.912 15.7793C44.0858 15.2443 42.1505 15.2019 40.3026 15.6565C38.4548 16.111 36.76 17.0463 35.3904 18.3674C34.0207 19.6885 33.0249 21.3484 32.504 23.1787C31.9831 25.009 31.9557 26.9445 32.4245 28.7888C32.8932 30.6331 33.8416 32.3206 35.1732 33.68C35.9838 32.8943 36.5232 31.8708 36.7132 30.758C37.1306 28.2039 35.3878 26.3549 35.1732 26.1332Z" fill="#525266"/>
<path d="M42.878 79.9703C44.7459 79.9705 46.6096 79.7929 48.4438 79.4397C48.7945 79.3428 49.0957 79.1173 49.2874 78.8082C49.4792 78.499 49.5473 78.1289 49.4783 77.7718C49.4092 77.4146 49.2081 77.0966 48.9149 76.8812C48.6217 76.6658 48.2582 76.5688 47.8967 76.6096C46.2426 76.9259 44.5621 77.0839 42.878 77.0813C39.2485 77.0888 35.6573 76.3394 32.3337 74.8809C32.1587 74.7962 31.9684 74.7477 31.7742 74.7382C31.58 74.7287 31.3859 74.7585 31.2035 74.8258C31.0211 74.893 30.8541 74.9964 30.7126 75.1297C30.571 75.263 30.4578 75.4235 30.3798 75.6016C30.3017 75.7796 30.2603 75.9716 30.2581 76.166C30.256 76.3605 30.2931 76.5533 30.3671 76.7331C30.4412 76.9128 30.5508 77.0758 30.6894 77.2122C30.8279 77.3486 30.9925 77.4557 31.1734 77.527C34.8626 79.1464 38.8491 79.9785 42.878 79.9703Z" fill="black"/>
<path d="M72.8459 91.9768C65.759 80.1708 61.3512 72.8315 58.6084 68.268C59.9656 68.5928 61.3962 68.3684 62.5888 67.6436C63.7813 66.9188 64.6393 65.7523 64.976 64.3979L68.0584 52.0707C68.3202 51.0394 68.2637 49.953 67.8962 48.9545C67.5287 47.956 66.8674 47.0921 65.9995 46.4766L55.2029 38.7718C54.8609 38.5359 53.8232 37.786 49.9083 37.786H48.0216C47.969 37.7831 47.9162 37.7831 47.8636 37.786C47.8094 37.783 47.7551 37.783 47.7009 37.786H35.9514H35.8453H35.7675H35.7156L26.7042 30.0599C27.9592 29.0753 29.3011 28.207 30.7135 27.4657C31.0073 30.1886 32.2124 32.7324 34.1331 34.6847C34.4067 34.9575 34.7774 35.1106 35.1637 35.1106C35.5501 35.1106 35.9207 34.9575 36.1943 34.6847C37.0485 35.6003 38.0819 36.3304 39.2303 36.8296C40.3787 37.3288 41.6175 37.5864 42.8697 37.5864C44.1219 37.5864 45.3607 37.3288 46.5091 36.8296C47.6575 36.3304 48.6909 35.6003 49.5451 34.6847C49.6807 34.8205 49.8417 34.9282 50.019 35.0017C50.1962 35.0752 50.3862 35.113 50.5781 35.113C50.77 35.113 50.96 35.0752 51.1372 35.0017C51.3145 34.9282 51.4755 34.8205 51.6111 34.6847C52.9879 33.2711 54.0067 31.5488 54.5826 29.6614C55.0686 28.0556 55.2191 26.367 55.0248 24.7006C54.8304 23.0342 54.2954 21.4256 53.4529 19.9748C52.6104 18.524 51.4785 17.262 50.1276 16.2672C48.7766 15.2724 47.2355 14.5662 45.5999 14.1924C43.9644 13.8185 42.2695 13.7851 40.6205 14.0942C38.9715 14.4033 37.4038 15.0483 36.0147 15.989C34.6255 16.9298 33.4448 18.1462 32.5458 19.5627C31.6468 20.9792 31.0488 22.5655 30.7889 24.2229C28.5224 25.2556 26.3974 26.5745 24.4661 28.1473L14.726 19.8104C14.1993 19.3573 13.5885 19.0125 12.9285 18.7956C12.2685 18.5787 11.5722 18.494 10.8794 18.5464C10.1867 18.5987 9.511 18.7871 8.89106 19.1007C8.27113 19.4143 7.71907 19.847 7.26645 20.3741C6.81241 20.9019 6.46709 21.5143 6.25032 22.1759C6.03355 22.8376 5.9496 23.5356 6.00329 24.2298C6.05698 24.924 6.24724 25.6007 6.56317 26.2212C6.87909 26.8417 7.31445 27.3936 7.84425 27.8454C11.7309 31.1613 14.9477 33.9064 17.6174 36.1776C15.1626 40.4255 13.8173 45.2232 13.7056 50.1281C13.5939 55.033 14.7194 59.8871 16.9783 64.2423C17.0627 64.4161 17.1812 64.5711 17.3266 64.6984C17.472 64.8256 17.6414 64.9224 17.8249 64.983C18.0084 65.0436 18.2021 65.0669 18.3947 65.0514C18.5873 65.0358 18.7748 64.9818 18.9462 64.8926C19.1176 64.8034 19.2693 64.6807 19.3925 64.5318C19.5156 64.3829 19.6077 64.2109 19.6632 64.0258C19.7187 63.8407 19.7366 63.6464 19.7158 63.4543C19.6949 63.2622 19.6358 63.0763 19.5418 62.9074C17.5479 59.0621 16.5337 54.7842 16.5892 50.453C16.6447 46.1219 17.7683 41.8713 19.8602 38.0784C26.2066 43.472 28.7867 45.6252 29.8786 46.5191V60.4689L19.2659 67.0983C18.6217 67.5029 18.0723 68.0416 17.6552 68.6777C17.238 69.3138 16.9629 70.0324 16.8485 70.7844L13.7591 90.8165C13.5457 92.2047 13.8924 93.6208 14.723 94.7535C15.5536 95.8861 16.8 96.6425 18.1881 96.8563C18.4566 96.8973 18.7278 96.9178 18.9994 96.9176C20.264 96.9233 21.4885 96.4736 22.4489 95.6509C23.4094 94.8281 24.0417 93.6872 24.2303 92.4367L26.9424 74.8055L37.1542 68.4213H46.3519L63.7614 97.4294C64.4845 98.6341 65.6565 99.5022 67.0196 99.8427C68.3827 100.183 69.8253 99.9684 71.03 99.2454C72.2346 98.5223 73.1027 97.3503 73.4433 95.9872C73.7839 94.6241 73.569 93.1815 72.8459 91.9768ZM42.878 34.7036C41.8972 34.7005 40.9306 34.4681 40.0556 34.0251C39.1805 33.582 38.4212 32.9405 37.8381 32.1518C38.2592 31.0076 38.3411 29.7661 38.074 28.5765C41.2419 29.3023 44.5329 29.3023 47.7009 28.5765C47.522 29.3677 47.4963 30.1859 47.6254 30.9868C47.6892 31.3886 47.7911 31.7834 47.9296 32.166C47.3447 32.9545 46.5829 33.5948 45.7056 34.0355C44.8283 34.4763 43.8598 34.7051 42.878 34.7036ZM42.878 16.7799C44.5661 16.7755 46.2238 17.2295 47.6741 18.0934C49.1244 18.9572 50.3131 20.1986 51.1132 21.6851C51.9133 23.1716 52.2949 24.8473 52.2173 26.5337C52.1397 28.22 51.6057 29.8537 50.6724 31.2603C50.5769 31.0202 50.508 30.7703 50.4673 30.5151C50.1725 28.6779 51.4696 27.2794 51.6181 27.1261C51.8483 26.887 51.9893 26.5761 52.0173 26.2454C52.0453 25.9147 51.9587 25.5844 51.772 25.3101C51.5853 25.0357 51.3099 24.8339 50.992 24.7386C50.6741 24.6433 50.3331 24.6602 50.0262 24.7866C47.7608 25.7305 45.331 26.2165 42.8768 26.2165C40.4226 26.2165 37.9928 25.7305 35.7274 24.7866C35.4205 24.6602 35.0795 24.6433 34.7616 24.7386C34.4437 24.8339 34.1683 25.0357 33.9816 25.3101C33.7949 25.5844 33.7083 25.9147 33.7363 26.2454C33.7644 26.5761 33.9053 26.887 34.1355 27.1261C34.284 27.2794 35.5812 28.6779 35.2864 30.5151C35.2451 30.7728 35.1755 31.0251 35.0788 31.2674C34.1524 29.8593 33.6243 28.2267 33.5504 26.5428C33.4765 24.8588 33.8596 23.1863 34.6591 21.7024C35.4586 20.2185 36.6446 18.9786 38.0916 18.1141C39.5385 17.2495 41.1924 16.7926 42.878 16.7917V16.7799ZM45.3165 40.6632L41.4512 46.4625L38.2296 40.6632H45.3165ZM69.5418 96.7691C69.2709 96.9318 68.9705 97.0395 68.6579 97.0861C68.3453 97.1327 68.0265 97.1172 67.7199 97.0405C67.4133 96.9639 67.1248 96.8276 66.8708 96.6393C66.6169 96.4511 66.4026 96.2147 66.2401 95.9436L48.4084 66.228C48.2808 66.0131 48.0996 65.835 47.8826 65.711C47.6656 65.587 47.4202 65.5214 47.1702 65.5205H36.7108C36.3996 65.521 36.0969 65.6219 35.8477 65.8083C35.7911 65.8507 35.7297 65.8955 35.6802 65.9262L24.8505 72.6947C24.6743 72.8046 24.5238 72.9513 24.4095 73.1247C24.2951 73.2981 24.2195 73.4941 24.1878 73.6994L21.3743 91.9768C21.2844 92.5433 20.9963 93.0596 20.5614 93.4336C20.1265 93.8076 19.573 94.0151 18.9994 94.0192C18.8754 94.0191 18.7517 94.0096 18.6291 93.9909C17.9998 93.8937 17.4345 93.5515 17.0567 93.0389C16.6789 92.5263 16.5193 91.885 16.6127 91.2552L19.6951 71.2231C19.7478 70.881 19.8737 70.5543 20.0642 70.2654C20.2546 69.9764 20.5052 69.7319 20.7988 69.5486L32.086 62.4971C32.2936 62.3673 32.4649 62.1869 32.5837 61.9728C32.7025 61.7587 32.7649 61.5179 32.7653 61.2731V45.8422C32.7654 45.6022 32.7057 45.3659 32.5917 45.1546C32.4776 44.9434 32.3128 44.7639 32.112 44.6324C31.1262 43.8824 18.2235 32.9041 9.72152 25.6498C9.47584 25.4457 9.2732 25.1948 9.12541 24.9116C8.97763 24.6285 8.88765 24.3188 8.86071 24.0006C8.83377 23.6823 8.87041 23.3619 8.96851 23.0579C9.0666 22.754 9.22418 22.4726 9.43207 22.2301C9.63996 21.9877 9.89401 21.789 10.1794 21.6457C10.4648 21.5023 10.7759 21.4172 11.0945 21.3953C11.4132 21.3733 11.733 21.415 12.0354 21.5178C12.3377 21.6206 12.6166 21.7826 12.8558 21.9943L34.2463 40.3283C34.4351 40.4904 34.6626 40.6008 34.9067 40.6491L40.0739 49.9505C40.1967 50.164 40.3716 50.343 40.5823 50.4706C40.793 50.5982 41.0326 50.6703 41.2788 50.6802C41.5249 50.6901 41.7696 50.6374 41.9898 50.5272C42.2101 50.4169 42.3988 50.2526 42.5384 50.0496L48.7881 40.6774H49.906C52.3257 40.6774 53.3374 41.0005 53.5214 41.1254L64.3086 48.8185C64.7045 49.0971 65.0065 49.4893 65.175 49.9432C65.3434 50.3971 65.3702 50.8914 65.2519 51.3608L62.1695 63.6881C62.0132 64.3076 61.6171 64.8396 61.0684 65.1672C60.5198 65.4947 59.8635 65.5908 59.244 65.4344C58.6244 65.2781 58.0924 64.882 57.7649 64.3333C57.4374 63.7847 57.3412 63.1284 57.4976 62.5089L59.9432 52.7263C60.0135 52.445 59.9975 52.1491 59.8974 51.877C59.7973 51.6049 59.6177 51.3692 59.3819 51.2004L53.7336 47.1912C53.5173 47.0369 53.2626 46.9451 52.9975 46.9261C52.7324 46.9071 52.4673 46.9615 52.2311 47.0834C51.9949 47.2052 51.7969 47.3898 51.6588 47.6169C51.5208 47.8439 51.4479 48.1046 51.4483 48.3704V61.5773C51.4504 61.8548 51.5323 62.1258 51.6842 62.3579C52.0804 62.9971 64.068 82.9631 70.3743 93.4697C70.7003 94.0179 70.7958 94.6729 70.6397 95.2914C70.4837 95.9098 70.0889 96.4412 69.5418 96.7691ZM56.8962 52.9999L54.7029 61.7754L54.3468 61.174V51.1769L56.8962 52.9999Z" fill="black"/>
<path d="M41.5289 50.8844H41.3355C40.9625 50.8995 40.6098 51.0583 40.3512 51.3275C40.0927 51.5968 39.9482 51.9556 39.9482 52.3289C39.9482 52.7022 40.0927 53.0611 40.3512 53.3303C40.6098 53.5996 40.9625 53.7583 41.3355 53.7734H41.5289C41.9019 53.7583 42.2547 53.5996 42.5132 53.3303C42.7718 53.0611 42.9162 52.7022 42.9162 52.3289C42.9162 51.9556 42.7718 51.5968 42.5132 51.3275C42.2547 51.0583 41.9019 50.8995 41.5289 50.8844Z" fill="black"/>
<path d="M41.5289 55.5068H41.3355C40.9625 55.5219 40.6098 55.6807 40.3512 55.9499C40.0927 56.2192 39.9482 56.578 39.9482 56.9513C39.9482 57.3247 40.0927 57.6835 40.3512 57.9527C40.6098 58.222 40.9625 58.3808 41.3355 58.3958H41.5289C41.9019 58.3808 42.2547 58.222 42.5132 57.9527C42.7718 57.6835 42.9162 57.3247 42.9162 56.9513C42.9162 56.578 42.7718 56.2192 42.5132 55.9499C42.2547 55.6807 41.9019 55.5219 41.5289 55.5068Z" fill="black"/>
</g>
<defs>
<clipPath id="clip0">
<rect x="6" width="87.0949" height="100" fill="white"/>
</clipPath>
</defs>
</svg>
