<svg width="100" height="100" viewBox="0 0 100 100" fill="none" xmlns="http://www.w3.org/2000/svg">
<g clip-path="url(#clip0)">
<path d="M50.4531 74.5879L46.9648 71.0996L53.0195 62.1484C50.9043 60.0332 54.3593 56.582 56.4726 58.6953L56.373 58.5957L71.832 45.0312C71.1699 30.0742 60.9648 37.0605 59.6504 38.0254L53.6523 42.5273C52.7652 43.2197 51.749 43.7283 50.663 44.0232C49.5771 44.3182 48.4432 44.3937 47.3277 44.2453C46.2122 44.0969 45.1376 43.7276 44.1665 43.1589C43.1955 42.5903 42.3475 41.8337 41.6723 40.9335C40.9971 40.0332 40.5082 39.0074 40.2341 37.916C39.9601 36.8246 39.9064 35.6895 40.0762 34.577C40.246 33.4646 40.6359 32.3972 41.2231 31.4373C41.8103 30.4773 42.583 29.6441 43.4961 28.9863L49.4922 24.4844C50.7929 23.4863 60.4472 15.5664 45.957 10.7558C41.1664 9.43284 36.1503 9.13668 31.2373 9.88674C26.3243 10.6368 21.6251 12.4162 17.4475 15.1083C13.2698 17.8005 9.70796 21.3447 6.9951 25.5089C4.28224 29.6732 2.47956 34.3634 1.70512 39.2727C0.930675 44.1819 1.20193 49.1994 2.50112 53.9965C3.80031 58.7936 6.09814 63.2623 9.24413 67.1097C12.3901 70.9572 16.3133 74.0968 20.7569 76.3229C25.2004 78.5489 30.064 79.8113 35.0293 80.0273C38.2363 71.75 46.2343 70.3691 50.4531 74.5879Z" fill="#E8E8E8"/>
<path d="M46.9648 71.0976L51.457 64.4453C46.8697 63.3527 42.8107 60.6863 39.9863 56.9101C33.5683 48.3574 34.6816 35.5879 44.0273 28.5703L49.4922 24.4824C50.7929 23.4844 60.4472 15.5644 45.957 10.7539C41.1664 9.43089 36.1503 9.13473 31.2373 9.88479C26.3243 10.6349 21.6251 12.4142 17.4475 15.1064C13.2698 17.7985 9.70796 21.3428 6.9951 25.507C4.28223 29.6712 2.47956 34.3615 1.70512 39.2707C0.930675 44.18 1.20193 49.1974 2.50112 53.9945C3.80031 58.7917 6.09814 63.2603 9.24413 67.1078C12.3901 70.9552 16.3133 74.0948 20.7569 76.3209C25.2004 78.547 30.064 79.8093 35.0293 80.0254C38.2363 71.748 46.2343 70.3672 50.459 74.5859L46.9648 71.0976Z" fill="#D8D8D8"/>
<path d="M12.2422 19.1953C-0.58594 31.3594 -2.53907 51.4707 8.33398 65.9492C11.4626 70.127 15.4806 73.5571 20.0975 75.9916C24.7144 78.426 29.8146 79.8038 35.0293 80.0254C36.0273 77.4492 37.9746 74.7988 40.334 73.459C13.4883 72.1894 -2.37891 42.5 12.2422 19.1953Z" fill="#C1BFBD"/>
<path d="M30.1464 27.3574C32.595 27.3574 34.58 25.3724 34.58 22.9238C34.58 20.4752 32.595 18.4902 30.1464 18.4902C27.6978 18.4902 25.7128 20.4752 25.7128 22.9238C25.7128 25.3724 27.6978 27.3574 30.1464 27.3574Z" fill="#EF5552"/>
<path d="M30.1445 22.9238C30.144 22.1455 30.3487 21.3807 30.7379 20.7066C31.127 20.0325 31.687 19.4728 32.3613 19.084C31.6873 18.6946 30.9227 18.4895 30.1443 18.4893C29.3659 18.4891 28.6012 18.6938 27.927 19.0829C27.2529 19.472 26.693 20.0317 26.3038 20.7057C25.9145 21.3798 25.7096 22.1445 25.7096 22.9229C25.7096 23.7012 25.9145 24.4659 26.3038 25.14C26.693 25.814 27.2529 26.3737 27.927 26.7628C28.6012 27.1519 29.3659 27.3566 30.1443 27.3564C30.9227 27.3563 31.6873 27.1511 32.3613 26.7617C31.6874 26.3729 31.1278 25.8135 30.7386 25.1398C30.3495 24.4661 30.1446 23.7018 30.1445 22.9238Z" fill="#CE2C28"/>
<path d="M17.7148 41.0859C20.8365 41.0859 23.3672 38.5553 23.3672 35.4336C23.3672 32.3119 20.8365 29.7812 17.7148 29.7812C14.5931 29.7812 12.0625 32.3119 12.0625 35.4336C12.0625 38.5553 14.5931 41.0859 17.7148 41.0859Z" fill="#FE8727"/>
<path d="M20.539 30.5371C16.791 28.3692 12.0585 31.0742 12.0585 35.4316C12.0585 39.7891 16.7968 42.4961 20.539 40.3281C19.6825 39.8297 18.9717 39.1153 18.4777 38.2563C17.9837 37.3972 17.7237 36.4236 17.7237 35.4326C17.7237 34.4417 17.9837 33.468 18.4777 32.609C18.9717 31.7499 19.6825 31.0355 20.539 30.5371Z" fill="#E56813"/>
<path d="M29.9941 70.8652C33.1158 70.8652 35.6465 68.3346 35.6465 65.2129C35.6465 62.0912 33.1158 59.5605 29.9941 59.5605C26.8724 59.5605 24.3418 62.0912 24.3418 65.2129C24.3418 68.3346 26.8724 70.8652 29.9941 70.8652Z" fill="#5ABCE2"/>
<path d="M32.8125 60.3183C31.9532 59.8218 30.9784 59.5602 29.9859 59.5599C28.9935 59.5597 28.0185 59.8207 27.1589 60.3168C26.2994 60.8129 25.5856 61.5265 25.0894 62.386C24.5931 63.2455 24.3319 64.2204 24.332 65.2129C24.332 69.5762 29.0645 72.2754 32.8125 70.1074C31.9565 69.6089 31.2461 68.8945 30.7524 68.0357C30.2587 67.1768 29.9989 66.2035 29.9989 65.2129C29.9989 64.2222 30.2587 63.2489 30.7524 62.3901C31.2461 61.5312 31.9565 60.8169 32.8125 60.3183Z" fill="#3CA5C6"/>
<path d="M16.3281 58.7832C19.4908 58.7832 22.0547 56.2193 22.0547 53.0566C22.0547 49.8939 19.4908 47.3301 16.3281 47.3301C13.1654 47.3301 10.6016 49.8939 10.6016 53.0566C10.6016 56.2193 13.1654 58.7832 16.3281 58.7832Z" fill="#58C445"/>
<path d="M19.1895 48.0996C15.3945 45.9023 10.5957 48.6426 10.5957 53.0566C10.5957 57.4707 15.3887 60.209 19.1895 58.0137C18.32 57.5107 17.5981 56.788 17.0962 55.9179C16.5944 55.0478 16.3302 54.0611 16.3302 53.0566C16.3302 52.0522 16.5944 51.0654 17.0962 50.1954C17.5981 49.3253 18.32 48.6025 19.1895 48.0996Z" fill="#3FA529"/>
<path d="M51.3808 73.2519C47.9218 69.791 42.1152 69.9863 38.416 73.6875C33.9687 78.1347 32.7753 84.5312 34.9355 89.7031C40.1035 91.8632 46.4999 90.6699 50.9511 86.2226C54.6464 82.5175 54.8398 76.7128 51.3808 73.2519Z" fill="#CC7954"/>
<path d="M53.6933 77.6582C52.371 70.6933 43.7109 68.3906 38.414 73.6875C33.9667 78.1347 32.7734 84.5312 34.9335 89.7031C37.1214 90.6048 39.5033 90.9329 41.8535 90.6562C40.1581 82.9258 46.9589 74.7969 53.6933 77.6582Z" fill="#B25F42"/>
<path d="M52.8242 61.9512L46.7695 70.9023L53.7461 77.8789L62.6973 71.8242L52.8242 61.9512Z" fill="#989898"/>
<path d="M55.7129 64.8359L52.8242 61.9473L46.7695 70.8984L49.6582 73.7871L55.7129 64.8359Z" fill="#777371"/>
<path d="M97.121 27.5313C94.4824 24.8926 90.5761 28.2227 90.4941 28.2949L56.1796 58.3906L66.2499 68.4688L96.3574 34.1543C96.4296 34.0723 99.7597 30.166 97.121 27.5313Z" fill="#EF5552"/>
<path d="M59.0605 61.2305L93.3749 31.123C93.4394 31.0664 95.8027 29.0527 98.0917 29.3809C97.9748 28.6738 97.6322 28.0236 97.1152 27.5273C94.4765 24.8887 90.5702 28.2188 90.4882 28.291L56.1796 58.3906L66.2499 68.4688L66.2734 68.4434L59.0605 61.2305Z" fill="#CE2C28"/>
<path d="M66.289 68.2324L56.416 58.3594C56.1908 58.133 55.923 57.9536 55.6279 57.8316C55.3329 57.7096 55.0165 57.6473 54.6973 57.6485C53.6074 57.6485 53.0527 58.2871 52.6855 58.6543C52.2305 59.1102 51.975 59.728 51.975 60.3721C51.975 61.0162 52.2305 61.634 52.6855 62.0899L62.5586 71.9629C64.8437 74.2559 68.6152 70.5586 66.289 68.2324Z" fill="#CECECE"/>
<path d="M64.3711 70.1484L54.4922 60.2754C54.1711 59.9552 53.9461 59.5515 53.8426 59.11C53.739 58.6686 53.7611 58.2069 53.9062 57.7773C53.2969 57.9824 53.0137 58.3125 52.6738 58.6523C52.2188 59.1082 51.9633 59.726 51.9633 60.3701C51.9633 61.0142 52.2188 61.632 52.6738 62.0879L62.5469 71.9609C63.9726 73.3867 66.2578 72.4785 66.8594 70.7285C66.4318 70.8738 65.9721 70.8965 65.5324 70.794C65.0926 70.6914 64.6903 70.4678 64.3711 70.1484Z" fill="#B5B4B4"/>
<path d="M30.3456 28.8223C31.5122 28.8223 32.6526 28.4763 33.6226 27.8282C34.5926 27.1801 35.3486 26.2589 35.7951 25.1811C36.2415 24.1033 36.3583 22.9173 36.1307 21.7731C35.9031 20.6289 35.3414 19.5779 34.5165 18.753C33.6916 17.9281 32.6406 17.3663 31.4964 17.1387C30.3522 16.9111 29.1662 17.0279 28.0884 17.4744C27.0106 17.9208 26.0894 18.6768 25.4413 19.6468C24.7931 20.6168 24.4472 21.7572 24.4472 22.9238C24.4488 24.4877 25.0707 25.9871 26.1765 27.0929C27.2824 28.1988 28.7818 28.8207 30.3456 28.8223ZM30.3456 19.9551C30.9328 19.9551 31.5068 20.1292 31.995 20.4554C32.4832 20.7816 32.8637 21.2453 33.0884 21.7877C33.3131 22.3302 33.3719 22.9271 33.2573 23.503C33.1428 24.0789 32.86 24.6079 32.4449 25.0231C32.0297 25.4382 31.5007 25.721 30.9248 25.8355C30.3489 25.9501 29.752 25.8913 29.2095 25.6666C28.6671 25.4419 28.2034 25.0614 27.8772 24.5732C27.551 24.085 27.3769 23.511 27.3769 22.9238C27.3779 22.1368 27.691 21.3823 28.2476 20.8257C28.8041 20.2692 29.5586 19.9561 30.3456 19.9551Z" fill="#231F20"/>
<path d="M17.9141 42.5508C19.3217 42.5508 20.6977 42.1334 21.8682 41.3513C23.0386 40.5693 23.9508 39.4577 24.4895 38.1572C25.0282 36.8567 25.1691 35.4257 24.8945 34.0451C24.6199 32.6645 23.942 31.3963 22.9467 30.401C21.9513 29.4056 20.6832 28.7278 19.3026 28.4532C17.922 28.1785 16.4909 28.3195 15.1904 28.8582C13.8899 29.3969 12.7784 30.3091 11.9963 31.4795C11.2143 32.6499 10.7969 34.0259 10.7969 35.4336C10.7989 37.3206 11.5495 39.1296 12.8837 40.4639C14.218 41.7982 16.0271 42.5487 17.9141 42.5508ZM17.9141 31.2441C18.7423 31.2441 19.5519 31.4897 20.2405 31.9499C20.9291 32.41 21.4659 33.064 21.7828 33.8292C22.0997 34.5943 22.1827 35.4363 22.0211 36.2486C21.8595 37.0609 21.4607 37.807 20.8751 38.3926C20.2894 38.9783 19.5433 39.3771 18.731 39.5387C17.9187 39.7003 17.0767 39.6173 16.3116 39.3004C15.5464 38.9834 14.8924 38.4467 14.4323 37.7581C13.9722 37.0695 13.7266 36.2598 13.7266 35.4316C13.7276 34.3212 14.169 33.2565 14.9541 32.4711C15.7391 31.6857 16.8036 31.2437 17.9141 31.2422V31.2441Z" fill="#231F20"/>
<path d="M37.3046 65.2129C37.3046 63.8052 36.8872 62.4292 36.1052 61.2588C35.3231 60.0884 34.2116 59.1762 32.9111 58.6375C31.6106 58.0988 30.1795 57.9578 28.7989 58.2325C27.4184 58.5071 26.1502 59.1849 25.1548 60.1803C24.1595 61.1756 23.4816 62.4438 23.207 63.8244C22.9324 65.205 23.0733 66.636 23.612 67.9365C24.1507 69.237 25.0629 70.3486 26.2333 71.1306C27.4038 71.9127 28.7798 72.3301 30.1874 72.3301C32.0744 72.328 33.8835 71.5775 35.2178 70.2432C36.5521 68.9089 37.3026 67.0999 37.3046 65.2129ZM30.1874 69.4004C29.3592 69.4004 28.5496 69.1548 27.861 68.6947C27.1724 68.2346 26.6356 67.5806 26.3187 66.8154C26.0018 66.0502 25.9188 65.2083 26.0804 64.396C26.242 63.5837 26.6408 62.8375 27.2264 62.2519C27.8121 61.6663 28.5582 61.2674 29.3705 61.1059C30.1828 60.9443 31.0248 61.0272 31.7899 61.3441C32.5551 61.6611 33.2091 62.1978 33.6692 62.8864C34.1294 63.5751 34.3749 64.3847 34.3749 65.2129C34.3734 66.322 33.9325 67.3853 33.1488 68.1701C32.3651 68.9549 31.3024 69.3973 30.1933 69.4004H30.1874Z" fill="#231F20"/>
<path d="M16.5273 45.8672C15.1054 45.8672 13.7154 46.2888 12.5331 47.0788C11.3508 47.8688 10.4293 48.9917 9.88516 50.3054C9.34101 51.6191 9.19863 53.0646 9.47604 54.4592C9.75344 55.8539 10.4382 57.1349 11.4436 58.1404C12.4491 59.1458 13.7301 59.8305 15.1248 60.108C16.5194 60.3854 17.9649 60.243 19.2786 59.6988C20.5923 59.1547 21.7152 58.2332 22.5052 57.0509C23.2951 55.8686 23.7168 54.4786 23.7168 53.0566C23.7147 51.1505 22.9566 49.323 21.6088 47.9752C20.2609 46.6274 18.4335 45.8693 16.5273 45.8672ZM16.5273 57.3184C15.6848 57.3184 14.8613 57.0685 14.1607 56.6005C13.4602 56.1324 12.9142 55.4671 12.5918 54.6887C12.2694 53.9104 12.1851 53.0539 12.3494 52.2276C12.5138 51.4012 12.9195 50.6422 13.5152 50.0465C14.111 49.4507 14.87 49.045 15.6963 48.8807C16.5226 48.7163 17.3791 48.8007 18.1575 49.1231C18.9359 49.4455 19.6011 49.9915 20.0692 50.692C20.5373 51.3925 20.7871 52.2161 20.7871 53.0586C20.7856 54.1879 20.3363 55.2705 19.5377 56.069C18.7392 56.8675 17.6566 57.3168 16.5273 57.3184Z" fill="#231F20"/>
<path d="M98.5526 26.6884C95.6581 23.7939 91.6425 25.8798 89.9237 27.3876L73.2167 42.0478C72.203 35.5595 68.9198 34.0947 66.1854 34.0947C62.9862 34.0947 59.869 36.2001 58.9764 36.8544L52.9745 41.3583C52.2411 41.933 51.4004 42.3555 50.5017 42.601C49.6029 42.8465 48.6642 42.9102 47.7405 42.7882C46.8168 42.6662 45.9268 42.361 45.1225 41.8906C44.3183 41.4202 43.6161 40.7939 43.0571 40.0486C42.498 39.3032 42.0934 38.4538 41.8669 37.55C41.6405 36.6463 41.5967 35.7064 41.7381 34.7855C41.8796 33.8646 42.2035 32.9812 42.6908 32.1871C43.1781 31.393 43.8191 30.7042 44.5761 30.1611L50.5858 25.6454C59.2538 18.995 56.7069 10.1396 40.9159 8.26262C21.8124 5.95793 3.25966 19.3642 0.374894 39.581C-2.60753 60.4794 12.5331 79.3954 33.2929 81.3583C32.5065 84.4052 32.7236 87.6244 33.912 90.538C34.0605 90.8904 34.3408 91.1708 34.6933 91.3193C43.6483 95.0673 55.078 88.5771 54.3944 79.5165C54.8339 79.4404 54.2343 79.7802 63.0975 73.7861C66.1542 75.2275 69.6014 71.997 68.4296 68.8525L89.203 45.1767C89.4465 44.8831 89.5659 44.5061 89.5358 44.1259C89.5056 43.7456 89.3284 43.3921 89.0417 43.1406C88.755 42.889 88.3815 42.7591 88.0005 42.7786C87.6196 42.7982 87.2613 42.9655 87.0018 43.245L66.5761 66.5243L58.7167 58.665L91.8495 29.5946C91.8788 29.5693 94.8143 27.0907 96.4823 28.7587C98.1503 30.4267 95.6718 33.3622 95.6522 33.3837L90.1366 39.6708C89.9072 39.9661 89.7994 40.338 89.8353 40.7103C89.8713 41.0825 90.0482 41.4269 90.3299 41.6729C90.6116 41.9188 90.9767 42.0478 91.3504 42.0332C91.724 42.0187 92.078 41.8618 92.3397 41.5947L97.8514 35.3154C99.3612 33.5868 101.443 29.579 98.5526 26.6884ZM34.289 78.5087C14.8183 77.079 0.499894 59.4775 3.27528 39.9989C5.77919 22.4423 21.1268 10.3661 37.9276 10.9697C45.6151 11.2353 52.0077 14.0165 52.539 17.1806C53.0136 19.9931 49.2323 22.9872 48.8124 23.3095L42.8124 27.8154C41.7435 28.5878 40.8392 29.5655 40.1522 30.6912C39.4653 31.817 39.0095 33.0684 38.8114 34.3722C38.6134 35.6761 38.677 37.0063 38.9987 38.2853C39.3204 39.5643 39.8936 40.7664 40.6849 41.8214C41.4762 42.8764 42.4697 43.7633 43.6075 44.4301C44.7453 45.097 46.0045 45.5305 47.3117 45.7054C48.6188 45.8803 49.9477 45.7931 51.2208 45.4488C52.4939 45.1045 53.6856 44.51 54.7265 43.7001L60.7147 39.2079C62.0819 38.2001 64.3417 37.0243 66.1835 37.0243C68.7401 37.0243 70.2011 39.5068 70.5331 44.4032L56.3925 56.8114C53.289 55.6513 50.0175 59.0829 51.455 62.1474C45.6347 70.7509 45.8104 70.3661 45.7245 70.8407C40.5975 70.4462 36.4472 73.8837 34.289 78.5087ZM49.2186 85.6825C45.8065 89.0947 40.7714 90.3915 36.4042 88.8427C34.1405 82.4423 38.4765 73.7372 44.9667 73.7372C45.8267 73.7301 46.6796 73.8932 47.4764 74.217C48.2731 74.5408 48.998 75.019 49.6093 75.6239C52.2792 78.2861 52.0975 82.8056 49.2186 85.6825ZM54.33 76.1845L49.0565 70.9111L53.4393 64.4462L60.8026 71.8095L54.33 76.1845ZM65.2245 70.9833C65.0787 71.1247 64.8836 71.2038 64.6806 71.2038C64.4775 71.2038 64.2824 71.1247 64.1366 70.9833L54.2636 61.1103C54.1194 60.966 54.0384 60.7703 54.0384 60.5663C54.0384 60.3623 54.1194 60.1667 54.2636 60.0224L54.5585 59.7275C54.7043 59.5861 54.8993 59.507 55.1024 59.507C55.3055 59.507 55.5006 59.5861 55.6464 59.7275C66.3456 70.4267 65.744 69.6884 65.744 70.1435C65.7362 70.5302 65.5057 70.6962 65.2167 70.9853L65.2245 70.9833Z" fill="#231F20"/>
</g>
<defs>
<clipPath id="clip0">
<rect y="8" width="100" height="84.4043" fill="white"/>
</clipPath>
</defs>
</svg>
