<svg width="100" height="100" viewBox="0 0 100 100" fill="none" xmlns="http://www.w3.org/2000/svg">
<g clip-path="url(#clip0)">
<path d="M2.57808 59.7789L1.99524 72.3275V75.7779C1.99524 76.5544 2.3037 77.2991 2.85277 77.8482C3.40184 78.3973 4.14654 78.7057 4.92304 78.7057H44.1929C43.9208 77.7644 43.8712 76.7727 44.0482 75.8089C44.2252 74.8451 44.6238 73.9357 45.2127 73.1525C45.8015 72.3692 46.5644 71.7337 47.4411 71.296C48.3178 70.8582 49.2843 70.6304 50.2642 70.6304C51.2441 70.6304 52.2106 70.8582 53.0873 71.296C53.964 71.7337 54.7269 72.3692 55.3157 73.1525C55.9046 73.9357 56.3032 74.8451 56.4802 75.8089C56.6572 76.7727 56.6076 77.7644 56.3355 78.7057H95.6112C96.3877 78.7057 97.1324 78.3973 97.6814 77.8482C98.2305 77.2991 98.539 76.5544 98.539 75.7779V72.5218L97.9561 59.7789H2.57808Z" fill="#E49824"/>
<path d="M89.7362 59.7789V75.7779C89.7362 76.5544 89.4277 77.2991 88.8786 77.8482C88.3296 78.3973 87.5849 78.7057 86.8083 78.7057H95.6112C96.3877 78.7057 97.1324 78.3973 97.6815 77.8482C98.2305 77.2991 98.539 76.5544 98.539 75.7779V72.65L97.9562 59.7809L89.7362 59.7789Z" fill="#DF751C"/>
<path d="M96.5865 55.3124H89.2193C83.9015 55.3379 78.6056 54.6272 73.4826 53.2006C70.8197 52.4422 68.0644 52.0571 65.2956 52.0563C60.022 52.0656 54.8417 53.4476 50.2642 56.0662V70.6295C51.2291 70.6288 52.1814 70.8494 53.0476 71.2745C53.9139 71.6995 54.6712 72.3177 55.2611 73.0813C61.1251 70.9952 67.4935 70.7881 73.4807 72.4887C78.6036 73.9161 83.8994 74.6275 89.2174 74.6025H96.5826C97.0978 74.6025 97.592 74.3978 97.9563 74.0335C98.3207 73.6691 98.5254 73.175 98.5254 72.6597V57.263C98.5254 56.7477 98.3207 56.2536 97.9563 55.8892C97.592 55.5249 97.0978 55.3202 96.5826 55.3202L96.5865 55.3124Z" fill="#EAEAEA"/>
<path d="M50.2643 70.6275V56.0682C45.6875 53.4492 40.5078 52.0666 35.2347 52.0563C32.4668 52.0553 29.7122 52.4385 27.0497 53.1948C21.9268 54.6221 16.6309 55.3335 11.313 55.3085H3.9439C3.42864 55.3085 2.93448 55.5132 2.57013 55.8776C2.20579 56.2419 2.0011 56.7361 2.0011 57.2513V72.65C2.0011 73.1653 2.20579 73.6594 2.57013 74.0238C2.93448 74.3881 3.42864 74.5928 3.9439 74.5928H11.311C16.6289 74.6183 21.9247 73.9076 27.0477 72.481C33.0356 70.7822 39.4039 70.9913 45.2674 73.0794C45.8573 72.3157 46.6145 71.6976 47.4808 71.2725C48.3471 70.8475 49.2993 70.6268 50.2643 70.6275Z" fill="#EAEAEA"/>
<path d="M50.2642 70.6275V56.0682C47.5281 54.5135 44.5708 53.3853 41.4944 52.7227V62.6309C41.4946 62.7111 41.4771 62.7904 41.4432 62.8631C41.4093 62.9357 41.3598 63.0001 41.2982 63.0514C41.2366 63.1028 41.1645 63.14 41.0869 63.1603C41.0093 63.1807 40.9282 63.1837 40.8494 63.1691C36.2671 62.2922 31.5432 62.4998 27.0555 63.7753C21.9326 65.2026 16.6367 65.914 11.3187 65.889H1.99329V72.65C1.99329 73.1652 2.19797 73.6594 2.56232 74.0237C2.92667 74.3881 3.42083 74.5928 3.93609 74.5928H11.311C16.6289 74.6183 21.9247 73.9076 27.0477 72.481C33.0355 70.7822 39.4038 70.9913 45.2673 73.0793C45.8572 72.3157 46.6144 71.6976 47.4807 71.2725C48.347 70.8475 49.2992 70.6268 50.2642 70.6275Z" fill="#C6D0DA"/>
<path d="M96.5865 55.3124H89.7576V65.3334C89.7576 65.4787 89.6998 65.618 89.5971 65.7208C89.4944 65.8235 89.355 65.8812 89.2097 65.8812C83.8918 65.9067 78.596 65.196 73.473 63.7694C70.8104 63.0131 68.0558 62.63 65.2879 62.6309C60.0143 62.6403 54.834 64.0222 50.2565 66.6409V70.6294C51.2214 70.6287 52.1737 70.8494 53.0399 71.2744C53.9062 71.6995 54.6635 72.3176 55.2534 73.0813C61.1174 70.9952 67.4858 70.788 73.473 72.4887C78.5959 73.9161 83.8917 74.6274 89.2097 74.6025H96.5749C97.0901 74.6025 97.5843 74.3978 97.9486 74.0334C98.313 73.6691 98.5177 73.1749 98.5177 72.6597V57.263C98.5177 56.7477 98.313 56.2535 97.9486 55.8892C97.5843 55.5248 97.0901 55.3202 96.5749 55.3202L96.5865 55.3124Z" fill="#C6D0DA"/>
<path d="M96.5865 53.8475H89.8061C89.4179 53.8475 89.0455 54.0018 88.771 54.2763C88.4964 54.5508 88.3422 54.9232 88.3422 55.3114C88.3422 55.6997 88.4964 56.072 88.771 56.3466C89.0455 56.6211 89.4179 56.7753 89.8061 56.7753H96.5865C96.7158 56.7753 96.8399 56.8267 96.9313 56.9182C97.0228 57.0096 97.0741 57.1336 97.0741 57.263V72.65C97.0741 72.7793 97.0228 72.9034 96.9313 72.9948C96.8399 73.0863 96.7158 73.1376 96.5865 73.1376H89.2194C84.0329 73.1634 78.8678 72.471 73.8712 71.0802C67.9152 69.3876 61.5914 69.495 55.6963 71.3891C54.6049 70.3191 53.2223 69.5947 51.7213 69.3064V56.9346C58.2663 53.414 65.9242 52.5779 73.0747 54.6033C76.2487 55.4975 79.4943 56.1144 82.7751 56.447C82.9665 56.4666 83.1598 56.4484 83.3441 56.3933C83.5284 56.3383 83.7001 56.2474 83.8492 56.126C83.9984 56.0046 84.1223 55.855 84.2136 55.6857C84.305 55.5164 84.3622 55.3308 84.3818 55.1395C84.4014 54.9481 84.3832 54.7548 84.3281 54.5705C84.2731 54.3862 84.1822 54.2145 84.0608 54.0653C83.9394 53.9162 83.7898 53.7923 83.6205 53.701C83.4512 53.6096 83.2656 53.5524 83.0743 53.5328C79.9624 53.2174 76.8838 52.6324 73.8732 51.7843C65.9622 49.5419 57.4883 50.4789 50.2584 54.3954C43.0285 50.4789 34.5545 49.5419 26.6436 51.7843C22.495 52.9447 18.2248 53.6156 13.9202 53.7834V53.6843H10.9982V53.8417H8.07235V53.6843H5.14454V53.8417H3.94389C3.03736 53.8427 2.16835 54.2037 1.52788 54.8453C0.887417 55.4868 0.527927 56.3564 0.528443 57.263V75.7779C0.529472 76.9421 0.992396 78.0583 1.8156 78.8815C2.6388 79.7047 3.755 80.1676 4.91918 80.1686H28.6894C29.0776 80.1686 29.45 80.0144 29.7245 79.7399C29.9991 79.4653 30.1533 79.093 30.1533 78.7047C30.1533 78.3165 29.9991 77.9441 29.7245 77.6696C29.45 77.3951 29.0776 77.2408 28.6894 77.2408H4.91918C4.57442 77.2404 4.24086 77.1185 3.97718 76.8963C3.7135 76.6742 3.5366 76.3663 3.47762 76.0266C3.63141 76.0488 3.78656 76.0605 3.94195 76.0616H11.311C16.7649 76.0869 22.196 75.3572 27.4499 73.8934C32.5649 72.4398 37.9849 72.4486 43.0953 73.9186C42.6891 74.8767 42.4803 75.9069 42.4813 76.9475C42.4813 77.0446 42.4813 77.1424 42.4813 77.2408H35.9224C35.5342 77.2408 35.1618 77.3951 34.8873 77.6696C34.6128 77.9441 34.4585 78.3165 34.4585 78.7047C34.4585 79.093 34.6128 79.4653 34.8873 79.7399C35.1618 80.0144 35.5342 80.1686 35.9224 80.1686H44.193C44.4168 80.1602 44.636 80.102 44.8346 79.9982C45.0331 79.8944 45.206 79.7477 45.3407 79.5687C45.4754 79.3897 45.5686 79.1829 45.6134 78.9634C45.6581 78.7439 45.6534 78.5171 45.5995 78.2997C45.3884 77.5758 45.3487 76.8127 45.4836 76.0709C45.6185 75.329 45.9243 74.6287 46.3767 74.0255C46.8291 73.4223 47.4157 72.9327 48.0902 72.5955C48.7646 72.2582 49.5083 72.0827 50.2623 72.0827C51.0163 72.0827 51.76 72.2582 52.4344 72.5955C53.1088 72.9327 53.6955 73.4223 54.1479 74.0255C54.6003 74.6287 54.9061 75.329 55.0409 76.0709C55.1758 76.8127 55.1361 77.5758 54.925 78.2997C54.871 78.5179 54.8665 78.7455 54.9118 78.9657C54.9571 79.1859 55.0511 79.3931 55.1869 79.5723C55.3227 79.7515 55.4968 79.898 55.6966 80.0012C55.8963 80.1044 56.1166 80.1616 56.3413 80.1686H95.6093C96.7734 80.1676 97.8896 79.7047 98.7128 78.8815C99.536 78.0583 99.999 76.9421 100 75.7779V57.263C99.999 56.3578 99.6391 55.49 98.9992 54.8497C98.3593 54.2095 97.4917 53.8491 96.5865 53.8475ZM48.7935 69.3045C47.2919 69.5924 45.9085 70.3168 44.8166 71.3872C38.9215 69.4931 32.5977 69.3856 26.6417 71.0783C21.6451 72.4692 16.48 73.1616 11.2935 73.1357H3.94389C3.8149 73.1357 3.69116 73.0846 3.59976 72.9935C3.50837 72.9025 3.45676 72.779 3.45625 72.65V57.263C3.45625 57.1336 3.50762 57.0096 3.59908 56.9182C3.69053 56.8267 3.81456 56.7753 3.94389 56.7753H11.311C16.7649 56.8006 22.196 56.071 27.4499 54.6072C34.6002 52.5807 42.2586 53.4169 48.8032 56.9385L48.7935 69.3045ZM95.6015 77.2408H58.0432C58.0432 77.1437 58.0432 77.0459 58.0432 76.9475C58.0443 75.9069 57.8354 74.8767 57.4293 73.9186C62.5396 72.4486 67.9596 72.4398 73.0747 73.8934C78.3285 75.3572 83.7597 76.0869 89.2136 76.0616H96.5787C96.7341 76.0605 96.8893 76.0488 97.0431 76.0266C96.9844 76.3646 96.8089 76.6713 96.5472 76.8932C96.2855 77.1151 95.9543 77.2382 95.6112 77.2408H95.6015Z" fill="black"/>
<path d="M49.0209 57.4961V44.7765H44.8341C44.2077 46.584 43.3405 48.2987 42.256 49.8745C40.933 51.8173 38.623 53.5425 35.1939 55.1414C31.8445 56.6956 27.2401 57.4941 21.5088 57.4941C16.203 57.4941 11.4354 56.1109 7.32635 53.3812C3.10852 50.57 0.971436 47.4246 0.971436 44.0344C0.971436 43.403 0.971436 41.4835 2.2906 40.7841C2.98418 40.4169 4.08186 40.244 5.7449 40.244H38.7279V40.2051C38.7493 39.8166 38.759 39.428 38.759 39.0278C38.759 34.6487 37.6224 31.2041 35.3804 28.7912C33.2103 26.4598 30.2942 25.2747 26.4746 25.1892C27.0525 25.496 27.5957 25.864 28.0949 26.2869C29.6744 27.6119 30.4749 29.4401 30.4749 31.7267C30.4943 32.7839 30.2886 33.833 29.8712 34.8045C29.4538 35.7759 28.8344 36.6473 28.0541 37.3609C26.4669 38.851 24.2637 39.6067 21.5069 39.6067C19.0181 39.6067 17.054 38.8063 15.6649 37.2288C14.3267 35.7352 13.5974 33.7941 13.621 31.7889C13.621 28.6804 14.9111 26.0537 17.4561 24.0021C19.9429 21.9875 22.9154 20.9714 26.2959 20.9714C32.5945 20.9714 37.4728 22.7199 40.795 26.1703C44.1172 29.6207 45.7861 33.9104 45.7861 38.9559C45.7861 39.3445 45.7686 39.733 45.7336 40.1216L45.7239 40.244H49.0267V21.3599H55.9528L55.8829 57.4961H49.0209ZM6.53757 44.7765C6.52786 44.8776 6.52008 45.0194 6.52008 45.2137C6.52008 47.0438 8.13261 48.8292 11.313 50.5175C14.6083 52.2904 18.2914 53.2196 22.0334 53.2219C25.6623 53.2082 29.2396 52.3614 32.4895 50.7468C35.3435 49.3557 37.1523 47.3954 38.0149 44.7746L6.53757 44.7765ZM20.788 29.0768C20.4314 29.0682 20.077 29.1352 19.7482 29.2735C19.4193 29.4118 19.1235 29.6182 18.8802 29.8791C18.618 30.1462 18.4126 30.4636 18.2764 30.8122C18.1402 31.1608 18.0759 31.5333 18.0875 31.9074C18.0793 32.2796 18.1465 32.6497 18.285 32.9953C18.4236 33.3408 18.6307 33.6548 18.8938 33.9182C19.134 34.1806 19.4269 34.3892 19.7533 34.5305C20.0798 34.6718 20.4324 34.7425 20.788 34.7381C21.1351 34.7399 21.4784 34.6672 21.7949 34.5247C22.1113 34.3823 22.3934 34.1734 22.622 33.9124C22.8813 33.6476 23.0855 33.3341 23.2228 32.99C23.3602 32.6458 23.4281 32.2779 23.4225 31.9074C23.4306 31.5347 23.3632 31.1643 23.2243 30.8183C23.0854 30.4724 22.8779 30.1582 22.6143 29.8947C22.3843 29.6379 22.1028 29.4323 21.7882 29.2914C21.4735 29.1505 21.1328 29.0774 20.788 29.0768Z" fill="#679AF4"/>
<path d="M26.2959 21.9428C32.3483 21.9428 36.9463 23.5761 40.0898 26.8426C43.2332 30.1091 44.8062 34.1462 44.8088 38.954C44.8088 39.3037 44.7926 39.6644 44.7603 40.0361C44.7279 40.4079 44.7026 40.801 44.6845 41.2154H49.9942V22.3314H54.9814L54.9153 56.5247H49.9922V43.8052H44.125C43.5254 45.7757 42.6242 47.6416 41.4536 49.3363C40.24 51.1121 38.0142 52.7537 34.7762 54.2614C31.5382 55.769 27.1157 56.5234 21.5088 56.5247C16.3746 56.5247 11.8297 55.2081 7.87419 52.575C3.91864 49.9419 1.94151 47.095 1.9428 44.0344C1.9428 42.7237 2.21026 41.9258 2.74518 41.6409C3.2801 41.356 4.28 41.2141 5.74487 41.2154H39.6021C39.6547 40.8939 39.6878 40.5695 39.7012 40.244C39.7232 39.8399 39.7342 39.43 39.7342 39.0142C39.7342 34.3593 38.5219 30.7262 36.0973 28.1151C33.6727 25.504 30.3181 24.2003 26.0336 24.2042C25.0954 24.2339 24.1623 24.355 23.2476 24.5656C22.0884 24.8065 21.422 25.1018 21.2484 25.4515C21.2388 25.4598 21.2309 25.4699 21.2253 25.4812C21.2196 25.4925 21.2162 25.5049 21.2154 25.5176L21.2484 25.5836C21.5198 25.4735 21.8071 25.4079 22.0994 25.3893C22.4586 25.3475 22.8199 25.3255 23.1815 25.3233C24.6892 25.3233 26.1204 25.8912 27.4751 27.0271C28.8299 28.163 29.5073 29.7257 29.5073 31.7151C29.5269 32.6399 29.3484 33.5582 28.9838 34.4083C28.6192 35.2584 28.077 36.0207 27.3935 36.644C25.9844 37.9677 24.0234 38.6289 21.5107 38.6276C19.3089 38.6276 17.6044 37.945 16.3973 36.5799C15.2137 35.2635 14.5699 33.5493 14.5943 31.7792C14.5943 28.9596 15.7523 26.6159 18.0681 24.7482C20.3839 22.8805 23.1265 21.9454 26.2959 21.9428ZM20.788 35.7095C21.2682 35.7115 21.7433 35.6109 22.1815 35.4146C22.6197 35.2183 23.011 34.9307 23.3292 34.571C24.0232 33.8563 24.406 32.8958 24.3938 31.8997C24.4017 31.4033 24.3101 30.9104 24.1246 30.45C23.9391 29.9896 23.6634 29.5709 23.3137 29.2186C22.9934 28.8674 22.6033 28.587 22.1684 28.3953C21.7334 28.2036 21.2633 28.1049 20.788 28.1054C20.3013 28.0969 19.8181 28.1902 19.3695 28.3792C18.9209 28.5682 18.5166 28.8488 18.1827 29.2031C17.8331 29.5596 17.5586 29.9827 17.3754 30.4472C17.1922 30.9117 17.104 31.4083 17.1161 31.9074C17.1075 32.4049 17.1989 32.8991 17.3848 33.3606C17.5707 33.8221 17.8473 34.2417 18.1982 34.5943C18.5283 34.9506 18.9292 35.2338 19.3752 35.4258C19.8212 35.6179 20.3024 35.7145 20.788 35.7095ZM39.2738 43.8052H6.46565C6.11595 43.8052 5.87569 43.8926 5.74487 44.0675C5.61406 44.2423 5.5493 44.625 5.55059 45.2157C5.55059 47.4447 7.32049 49.4989 10.8603 51.3782C14.2934 53.2289 18.1331 54.1964 22.0333 54.1934C25.8094 54.1837 29.5324 53.3034 32.913 51.6211C36.4308 49.9062 38.5504 47.3003 39.2718 43.8032L39.2738 43.8052ZM26.2959 20C22.6881 20 19.5096 21.088 16.8499 23.2328C14.064 25.4787 12.6515 28.3541 12.6515 31.7773C12.6249 34.0204 13.4409 36.1918 14.9382 37.8621C15.4168 38.4082 15.9709 38.8832 16.5838 39.2726H5.74487C3.89144 39.2726 2.6869 39.4669 1.83595 39.9254C0 40.8987 0 43.2593 0 44.0344C0 47.7704 2.28668 51.1878 6.79981 54.1934C11.0623 57.0298 16.0106 58.4675 21.5107 58.4675C27.3858 58.4675 32.1282 57.6457 35.6058 56.0235C39.198 54.3488 41.6285 52.5167 43.0603 50.4224C44.0593 48.9666 44.8835 47.3983 45.516 45.7499H48.0417V58.4675H56.8406V56.5247L56.9242 22.3314V20.3886H48.0494V39.2726H46.7516C46.7516 39.1664 46.7516 39.0602 46.7516 38.954C46.7516 33.6501 44.9817 29.1215 41.4886 25.4962C37.9954 21.8709 32.8664 20 26.2959 20ZM27.073 39.2726C28.4123 38.5186 29.5252 37.4196 30.2959 36.0898C31.0667 34.7601 31.4673 33.2482 31.4559 31.7112C31.4559 29.6771 30.8867 27.9558 29.7599 26.5744C31.6464 27.0247 33.3577 28.0223 34.6791 29.442C36.7481 31.6704 37.7973 34.8819 37.7973 39.0181C37.7973 39.1023 37.7973 39.1865 37.7973 39.2707L27.073 39.2726ZM20.788 33.7667C20.5626 33.7719 20.3388 33.7276 20.1324 33.637C19.926 33.5464 19.7419 33.4116 19.5932 33.2422C19.4167 33.0688 19.2783 32.8606 19.1866 32.6308C19.095 32.401 19.0522 32.1547 19.0609 31.9074C19.0476 31.6573 19.0867 31.4071 19.1756 31.1729C19.2646 30.9387 19.4016 30.7257 19.5776 30.5475C19.7309 30.3812 19.9186 30.2504 20.1277 30.1642C20.3367 30.0779 20.5621 30.0383 20.788 30.0482C21.095 30.0482 21.4699 30.1104 21.9187 30.5727C22.0951 30.7462 22.2334 30.9544 22.3251 31.1842C22.4167 31.4139 22.4596 31.6602 22.451 31.9074C22.4572 32.1556 22.4129 32.4024 22.3207 32.6328C22.2285 32.8633 22.0904 33.0726 21.9148 33.248C21.7775 33.4129 21.605 33.545 21.4101 33.6348C21.2151 33.7245 21.0026 33.7696 20.788 33.7667ZM7.55751 45.748H36.5577C35.6582 47.4965 34.172 48.8565 32.064 49.8764C28.9462 51.4249 25.5145 52.2371 22.0333 52.2505C18.4499 52.2477 14.9229 51.3573 11.7676 49.6588C10.019 48.7263 7.9519 47.3275 7.55751 45.746V45.748Z" fill="black"/>
</g>
<defs>
<clipPath id="clip0">
<rect y="20" width="100" height="60.1686" fill="white"/>
</clipPath>
</defs>
</svg>
