<svg width="1060" height="240" viewBox="0 0 1060 240" fill="none" xmlns="http://www.w3.org/2000/svg">
<path d="M1056.14 62.0854V56.5578C1026.85 56.5578 1002.23 32.8452 1000.72 3.83533H57.8554C57.0955 33.0455 32.9978 57.1787 3.83057 57.9598V65.0896C17.8292 65.5502 17.8292 87.24 3.83057 87.7106V93.8691H4.46051C19.0591 93.8691 19.0591 116.53 4.46051 116.53C4.25053 116.53 4.04055 116.53 3.83057 116.53V124.171H3.92056C18.5192 124.171 18.5192 146.842 3.92056 146.842H3.83057V152.46C17.4593 153.181 17.4593 174.33 3.83057 175.051V179.176C33.4378 179.967 57.8854 204.912 57.8854 234.733C57.8854 235.213 57.8854 235.734 57.8854 236.165H999.226C999.996 206.504 1024.9 182 1054.68 182C1055.16 182 1055.68 182 1056.14 182V169.984C1055.87 169.984 1055.61 169.984 1055.32 169.984C1040.75 169.984 1040.75 147.323 1055.32 147.323C1055.61 147.323 1055.87 147.323 1056.14 147.323V140.864C1055.87 140.878 1055.59 140.878 1055.32 140.864C1040.75 140.864 1040.75 118.203 1055.32 118.203C1055.61 118.203 1055.87 118.203 1056.14 118.203V112.485H1055.68C1041.09 112.485 1041.09 89.8236 1055.68 89.8236H1056.14V84.7165C1041.9 84.4261 1041.9 62.3658 1056.14 62.0854Z" fill="#EF485D"/>
<path d="M999.226 240H57.8549C57.3373 240.001 56.825 239.896 56.349 239.693C55.8729 239.489 55.4429 239.192 55.085 238.817C54.7271 238.443 54.4486 238 54.2665 237.515C54.0843 237.029 54.0023 236.512 54.0252 235.995V235.614C54.0252 235.304 54.0252 234.993 54.0252 234.683C53.9316 221.23 48.6428 208.336 39.267 198.702C29.8912 189.067 17.156 183.441 3.72999 183.002C2.73174 182.976 1.78315 182.56 1.08644 181.844C0.389728 181.127 3.50339e-06 180.166 0.000343938 179.166V175.041C0.00905299 174.063 0.389168 173.126 1.0634 172.419C1.73763 171.712 2.65537 171.289 3.63 171.235C8.49954 170.975 10.2194 167.05 10.2194 163.765C10.2194 160.481 8.48954 156.565 3.63 156.305C2.64503 156.251 1.71859 155.819 1.04281 155.1C0.367021 154.38 -0.0062688 153.427 0.000343938 152.44V146.822C0.000343938 145.805 0.403822 144.829 1.12202 144.11C1.84022 143.391 2.8143 142.987 3.82998 142.987H4.04996C9.19947 142.917 11.0493 138.921 11.0493 135.486C11.0493 132.052 9.23947 128.096 4.14995 127.996H3.82998C2.81603 127.996 1.84346 127.593 1.12555 126.876C0.407638 126.159 0.00299133 125.186 0.000343938 124.171V116.41C0.00124152 115.892 0.106594 115.38 0.31008 114.904C0.513566 114.428 0.810993 113.998 1.18451 113.639C1.55804 113.281 1.99996 113.002 2.48376 112.819C2.96756 112.636 3.48328 112.553 3.99997 112.575H4.45992H4.55991C9.73942 112.575 11.5593 108.569 11.5593 105.085C11.5593 101.6 9.71942 97.6343 4.45992 97.6343H3.99997C3.48328 97.6558 2.96756 97.5727 2.48376 97.3898C1.99996 97.2068 1.55804 96.9279 1.18451 96.5697C0.810993 96.2116 0.513566 95.7815 0.31008 95.3054C0.106594 94.8293 0.00124152 94.3169 0.000343938 93.799V87.6606C-0.000144672 86.6639 0.386822 85.7061 1.07927 84.9902C1.77172 84.2743 2.71525 83.8565 3.70999 83.8253C8.70952 83.655 10.4994 79.6896 10.4994 76.345C10.4994 73.0004 8.71952 69.045 3.70999 68.8747C2.72384 68.8438 1.78763 68.433 1.09653 67.7278C0.405421 67.0226 0.0127423 66.0775 0.000343938 65.0895V57.9597C-0.0131473 56.951 0.370737 55.9776 1.06884 55.2504C1.76693 54.5231 2.72303 54.1006 3.72999 54.0744C30.7274 53.3534 53.3153 30.7523 54.0152 3.6951C54.0515 2.70068 54.4724 1.75933 55.1888 1.06985C55.9053 0.380375 56.8613 -0.0032423 57.8549 2.06459e-05H1000.69C1001.67 -0.00132103 1002.61 0.375145 1003.33 1.05164C1004.04 1.72813 1004.46 2.65295 1004.52 3.63502C1005.93 30.6722 1029.07 52.7025 1056.11 52.7025C1057.13 52.7025 1058.11 53.1056 1058.83 53.824C1059.55 54.5424 1059.96 55.5178 1059.97 56.5378V62.0854C1059.97 63.0905 1059.58 64.0556 1058.87 64.7729C1058.17 65.4901 1057.21 65.9023 1056.21 65.9207C1051.12 66.0208 1049.31 70.0063 1049.31 73.3909C1049.31 76.7756 1051.12 80.7711 1056.22 80.8712C1057.22 80.8921 1058.18 81.3051 1058.88 82.0218C1059.58 82.7386 1059.98 83.7021 1059.98 84.7065V90.0338C1059.98 91.051 1059.58 92.0265 1058.86 92.7458C1058.14 93.465 1057.17 93.8691 1056.15 93.8691H1055.68C1050.45 93.8691 1048.59 97.8746 1048.59 101.359C1048.59 104.844 1050.45 108.85 1055.7 108.85C1056.24 108.798 1056.79 108.86 1057.31 109.032C1057.82 109.205 1058.3 109.484 1058.7 109.851C1059.1 110.209 1059.43 110.648 1059.65 111.14C1059.88 111.632 1059.99 112.165 1060 112.705V118.423C1059.99 118.942 1059.87 119.454 1059.66 119.928C1059.44 120.401 1059.14 120.826 1058.75 121.176C1058.37 121.526 1057.92 121.795 1057.43 121.965C1056.94 122.136 1056.42 122.205 1055.9 122.168H1055.75H1055.31C1050.07 122.168 1048.21 126.174 1048.21 129.658C1048.21 133.143 1050.07 137.149 1055.31 137.149H1055.74C1056.27 137.095 1056.81 137.155 1057.32 137.323C1057.83 137.491 1058.3 137.764 1058.7 138.124C1059.09 138.485 1059.41 138.924 1059.63 139.415C1059.85 139.906 1059.96 140.437 1059.96 140.974V147.433C1059.95 147.951 1059.84 148.463 1059.63 148.937C1059.42 149.411 1059.12 149.837 1058.74 150.19C1058.36 150.543 1057.91 150.815 1057.42 150.99C1056.94 151.165 1056.42 151.239 1055.9 151.208H1055.75H1055.31C1050.07 151.208 1048.21 155.213 1048.21 158.698C1048.21 162.183 1050.07 166.189 1055.31 166.189H1055.61H1055.9C1056.42 166.157 1056.95 166.233 1057.44 166.412C1057.93 166.59 1058.38 166.868 1058.76 167.227C1059.14 167.586 1059.44 168.02 1059.65 168.501C1059.85 168.982 1059.96 169.5 1059.96 170.024V182.04C1059.96 182.557 1059.85 183.068 1059.65 183.543C1059.45 184.018 1059.15 184.447 1058.78 184.804C1058.41 185.168 1057.97 185.451 1057.49 185.635C1057 185.82 1056.49 185.901 1055.97 185.876H1055.76C1055.39 185.876 1055.03 185.876 1054.67 185.876C1041.23 185.965 1028.34 191.266 1018.71 200.667C1009.09 210.067 1003.47 222.837 1003.05 236.295C1003.01 237.288 1002.59 238.229 1001.88 238.92C1001.17 239.611 1000.22 239.998 999.226 240ZM61.6745 232.319H995.586C996.967 217.985 1003.46 204.628 1013.87 194.697C1024.29 184.766 1037.93 178.925 1052.29 178.245V173.669C1044.56 172.267 1040.54 165.478 1040.54 158.768C1040.54 152.54 1044.01 146.241 1050.68 144.248C1044 142.246 1040.54 135.957 1040.54 129.728C1040.54 123.78 1043.7 117.762 1049.81 115.499C1043.94 113.136 1040.89 107.247 1040.89 101.409C1040.89 95.5714 1043.98 89.5932 1049.94 87.26C1044.45 84.7365 1041.62 79.0287 1041.62 73.441C1041.56 70.7344 1042.23 68.0618 1043.56 65.7029C1044.88 63.344 1046.82 61.3855 1049.16 60.0326C1022.36 56.748 1000.3 34.8079 997.166 7.74066H61.4645C58.8948 35.8293 35.787 58.9811 7.66962 61.5747V61.7549C14.569 63.6575 18.1586 70.0964 18.1586 76.355C18.1586 82.2231 14.9989 88.2614 8.9095 90.5545C15.7189 92.4772 19.2485 98.8359 19.2485 105.145C19.2485 111.804 15.2489 118.543 7.66962 120.015V120.756C14.9389 122.438 18.6686 129.017 18.6686 135.516C18.6686 141.525 15.4389 147.603 9.20947 149.816C14.8989 152.279 17.8387 158.117 17.8487 163.745C17.8851 166.116 17.3766 168.464 16.3623 170.607C15.348 172.749 13.8551 174.63 11.9992 176.102C39.2766 180.648 60.5246 204.201 61.6745 232.319Z" fill="#311234"/>
<path d="M1020.37 67.8433C996.266 67.8433 976.048 48.3365 974.788 24.4837H83.9922C83.5799 36.1486 78.7697 47.2238 70.5302 55.4791C62.2907 63.7345 51.234 68.5567 39.5864 68.9749V168.652C63.9241 169.303 83.9922 189.801 83.9922 214.295C83.9922 214.695 83.9922 215.086 83.9922 215.486H973.578C974.208 191.093 994.706 170.935 1019.19 170.935C1019.59 170.935 1019.98 170.935 1020.38 170.935V67.7933L1020.37 67.8433Z" fill="#FFC929"/>
<path d="M973.578 219.572H83.9925C83.4527 219.572 82.9183 219.463 82.4216 219.252C81.9249 219.04 81.4762 218.729 81.1025 218.339C80.7288 217.949 80.4378 217.487 80.2471 216.981C80.0564 216.476 79.97 215.936 79.9929 215.396C79.9929 215.046 79.9929 214.695 79.9929 214.335C79.9185 203.498 75.6582 193.111 68.105 185.35C60.5518 177.59 50.2922 173.059 39.4767 172.707C38.4264 172.692 37.4244 172.263 36.6873 171.513C35.9501 170.764 35.537 169.754 35.5371 168.702V68.9748C35.537 67.9229 35.9501 66.913 36.6873 66.1636C37.4244 65.4141 38.4264 64.9851 39.4767 64.9693C61.2347 64.3485 79.403 46.1635 79.9929 24.3735C80.0087 23.3216 80.437 22.3182 81.1854 21.58C81.9337 20.8417 82.9421 20.428 83.9925 20.4281H974.788C975.82 20.4272 976.813 20.8257 977.558 21.5405C978.303 22.2552 978.744 23.2308 978.788 24.2634C979.938 46.0533 998.576 63.7877 1020.33 63.7877C1021.39 63.7877 1022.41 64.2097 1023.16 64.9609C1023.91 65.7121 1024.33 66.7309 1024.33 67.7932V170.935C1024.34 171.477 1024.23 172.014 1024.02 172.513C1023.8 173.013 1023.49 173.464 1023.1 173.839C1022.71 174.214 1022.25 174.508 1021.75 174.704C1021.24 174.9 1020.7 174.994 1020.16 174.981H1019.71H1019.09C1008.27 175.055 997.89 179.326 990.138 186.896C982.387 194.467 977.864 204.749 977.518 215.586C977.513 216.635 977.097 217.64 976.361 218.385C975.624 219.13 974.625 219.556 973.578 219.572ZM87.9921 211.461H969.799C971.116 199.759 976.5 188.893 985.009 180.765C993.518 172.637 1004.61 167.764 1016.34 167V71.7286C1005.06 70.6598 994.456 65.8173 986.25 57.981C978.044 50.1446 972.711 39.7705 971.109 28.5292H87.7922C86.4573 39.7952 81.3763 50.2837 73.3668 58.3068C65.3574 66.3298 54.8854 71.4207 43.6363 72.7601V164.887C55.3085 166.211 66.1448 171.601 74.2523 180.114C82.3598 188.627 87.2229 199.722 87.9921 211.461Z" fill="#311234"/>
<path d="M103.801 37.9822C102.787 37.9769 101.817 37.5691 101.102 36.8483C100.388 36.1275 99.9886 35.1524 99.9912 34.1369V29.4705C99.9912 28.452 100.395 27.4752 101.114 26.755C101.834 26.0348 102.809 25.6302 103.826 25.6302C104.843 25.6302 105.819 26.0348 106.538 26.755C107.257 27.4752 107.661 28.452 107.661 29.4705V34.1369C107.663 34.644 107.563 35.1462 107.37 35.6147C107.176 36.0831 106.891 36.5085 106.532 36.8661C106.173 37.2237 105.747 37.5064 105.278 37.698C104.81 37.8896 104.308 37.9862 103.801 37.9822Z" fill="#311234"/>
<path d="M103.801 200.666C102.785 200.666 101.811 200.262 101.093 199.543C100.375 198.823 99.9712 197.848 99.9712 196.831V187.818C99.9712 186.8 100.375 185.823 101.094 185.103C101.814 184.383 102.789 183.978 103.806 183.978C104.823 183.978 105.799 184.383 106.518 185.103C107.237 185.823 107.641 186.8 107.641 187.818V196.831C107.641 197.335 107.542 197.835 107.349 198.301C107.156 198.767 106.873 199.19 106.516 199.546C106.159 199.902 105.736 200.185 105.27 200.377C104.804 200.569 104.305 200.667 103.801 200.666ZM103.801 182.591C102.785 182.591 101.811 182.187 101.093 181.468C100.375 180.748 99.9712 179.773 99.9712 178.756V169.743C99.9712 168.725 100.375 167.748 101.094 167.028C101.814 166.308 102.789 165.903 103.806 165.903C104.823 165.903 105.799 166.308 106.518 167.028C107.237 167.748 107.641 168.725 107.641 169.743V178.756C107.641 179.26 107.542 179.76 107.349 180.226C107.156 180.692 106.873 181.115 106.516 181.471C106.159 181.828 105.736 182.11 105.27 182.302C104.804 182.494 104.305 182.592 103.801 182.591ZM103.801 164.516C102.785 164.516 101.811 164.112 101.093 163.393C100.375 162.674 99.9712 161.698 99.9712 160.681V151.669C99.9712 150.65 100.375 149.673 101.094 148.953C101.814 148.233 102.789 147.828 103.806 147.828C104.823 147.828 105.799 148.233 106.518 148.953C107.237 149.673 107.641 150.65 107.641 151.669V160.681C107.641 161.185 107.542 161.685 107.349 162.151C107.156 162.617 106.873 163.04 106.516 163.396C106.159 163.753 105.736 164.035 105.27 164.227C104.804 164.419 104.305 164.518 103.801 164.516ZM103.801 146.441C102.787 146.436 101.817 146.028 101.102 145.307C100.388 144.587 99.9885 143.612 99.9912 142.596V133.584C99.9912 132.565 100.395 131.588 101.114 130.868C101.834 130.148 102.809 129.743 103.826 129.743C104.843 129.743 105.819 130.148 106.538 130.868C107.257 131.588 107.661 132.565 107.661 133.584V142.596C107.663 143.103 107.563 143.605 107.37 144.074C107.176 144.542 106.891 144.968 106.532 145.325C106.173 145.683 105.747 145.966 105.278 146.157C104.81 146.349 104.308 146.445 103.801 146.441ZM103.801 128.367C102.785 128.367 101.811 127.962 101.093 127.243C100.375 126.524 99.9712 125.548 99.9712 124.531V115.519C99.9712 114.5 100.375 113.524 101.094 112.803C101.814 112.083 102.789 111.679 103.806 111.679C104.823 111.679 105.799 112.083 106.518 112.803C107.237 113.524 107.641 114.5 107.641 115.519V124.531C107.641 125.036 107.542 125.535 107.349 126.001C107.156 126.467 106.873 126.89 106.516 127.247C106.159 127.603 105.736 127.885 105.27 128.077C104.804 128.27 104.305 128.368 103.801 128.367ZM103.801 110.292C102.787 110.286 101.817 109.879 101.102 109.158C100.388 108.437 99.9885 107.462 99.9912 106.446V97.434C99.9912 96.4155 100.395 95.4387 101.114 94.7185C101.834 93.9983 102.809 93.5937 103.826 93.5937C104.843 93.5937 105.819 93.9983 106.538 94.7185C107.257 95.4387 107.661 96.4155 107.661 97.434V106.446C107.661 106.953 107.561 107.454 107.367 107.921C107.172 108.388 106.888 108.812 106.529 109.169C106.17 109.526 105.744 109.807 105.276 109.998C104.808 110.189 104.307 110.286 103.801 110.282V110.292ZM103.801 92.2168C102.787 92.2115 101.817 91.8037 101.102 91.0829C100.388 90.362 99.9885 89.387 99.9912 88.3715V79.3591C99.9912 78.3406 100.395 77.3638 101.114 76.6436C101.834 75.9234 102.809 75.5188 103.826 75.5188C104.843 75.5188 105.819 75.9234 106.538 76.6436C107.257 77.3638 107.661 78.3406 107.661 79.3591V88.3715C107.661 88.8777 107.561 89.3789 107.367 89.8462C107.172 90.3135 106.888 90.7376 106.529 91.0941C106.17 91.4507 105.744 91.7326 105.276 91.9235C104.808 92.1145 104.307 92.2108 103.801 92.2068V92.2168ZM103.801 74.142C102.787 74.1367 101.817 73.7289 101.102 73.008C100.388 72.2872 99.9885 71.3121 99.9912 70.2967V61.2843C99.9912 60.2658 100.395 59.289 101.114 58.5688C101.834 57.8486 102.809 57.444 103.826 57.444C104.843 57.444 105.819 57.8486 106.538 58.5688C107.257 59.289 107.661 60.2658 107.661 61.2843V70.2967C107.657 70.8003 107.554 71.2983 107.358 71.7621C107.162 72.2259 106.877 72.6465 106.518 72.9999C106.16 73.3532 105.735 73.6324 105.269 73.8215C104.803 74.0106 104.304 74.1059 103.801 74.1019V74.142ZM103.801 56.0671C102.787 56.0618 101.817 55.654 101.102 54.9332C100.388 54.2123 99.9885 53.2373 99.9912 52.2218V43.2094C99.9912 42.1909 100.395 41.2141 101.114 40.4939C101.834 39.7737 102.809 39.3691 103.826 39.3691C104.843 39.3691 105.819 39.7737 106.538 40.4939C107.257 41.2141 107.661 42.1909 107.661 43.2094V52.2218C107.664 52.7297 107.566 53.233 107.373 53.7026C107.179 54.1723 106.895 54.5988 106.536 54.9574C106.177 55.3161 105.75 55.5998 105.281 55.792C104.811 55.9842 104.308 56.0811 103.801 56.0771V56.0671Z" fill="#311234"/>
<path d="M103.801 214.375C103.298 214.375 102.8 214.276 102.336 214.083C101.871 213.89 101.449 213.608 101.093 213.251C100.737 212.895 100.455 212.472 100.263 212.007C100.07 211.542 99.9712 211.043 99.9712 210.539V205.873C99.9712 204.855 100.375 203.878 101.094 203.158C101.814 202.437 102.789 202.033 103.806 202.033C104.823 202.033 105.799 202.437 106.518 203.158C107.237 203.878 107.641 204.855 107.641 205.873V210.539C107.641 211.044 107.542 211.544 107.349 212.009C107.156 212.475 106.873 212.899 106.516 213.255C106.159 213.611 105.736 213.894 105.27 214.086C104.804 214.278 104.305 214.376 103.801 214.375Z" fill="#311234"/>
<path d="M957.25 37.6118C956.234 37.6118 955.26 37.2077 954.542 36.4884C953.823 35.7692 953.42 34.7937 953.42 33.7765V29.1C953.42 28.0815 953.824 27.1047 954.543 26.3846C955.262 25.6644 956.238 25.2598 957.255 25.2598C958.272 25.2598 959.247 25.6644 959.967 26.3846C960.686 27.1047 961.09 28.0815 961.09 29.1V33.7665C961.091 34.2718 960.993 34.7724 960.8 35.2396C960.608 35.7067 960.325 36.1311 959.968 36.4884C959.611 36.8458 959.187 37.129 958.721 37.3217C958.254 37.5145 957.755 37.6131 957.25 37.6118Z" fill="#311234"/>
<path d="M957.25 200.275C956.234 200.275 955.26 199.871 954.542 199.152C953.823 198.433 953.42 197.457 953.42 196.44V187.428C953.42 186.409 953.824 185.432 954.543 184.712C955.262 183.992 956.238 183.587 957.255 183.587C958.272 183.587 959.247 183.992 959.967 184.712C960.686 185.432 961.09 186.409 961.09 187.428V196.44C961.09 196.945 960.991 197.444 960.797 197.91C960.604 198.376 960.321 198.799 959.965 199.156C959.608 199.512 959.185 199.794 958.719 199.986C958.253 200.178 957.754 200.277 957.25 200.275ZM957.25 182.201C956.234 182.201 955.26 181.796 954.542 181.077C953.823 180.358 953.42 179.382 953.42 178.365V169.353C953.42 168.334 953.824 167.358 954.543 166.637C955.262 165.917 956.238 165.513 957.255 165.513C958.272 165.513 959.247 165.917 959.967 166.637C960.686 167.358 961.09 168.334 961.09 169.353V178.365C961.097 178.874 961.002 179.379 960.812 179.851C960.622 180.322 960.34 180.752 959.982 181.113C959.625 181.475 959.199 181.762 958.73 181.957C958.261 182.152 957.758 182.252 957.25 182.251V182.201ZM957.25 164.126C956.234 164.126 955.26 163.722 954.542 163.002C953.823 162.283 953.42 161.308 953.42 160.29V151.278C953.42 150.259 953.824 149.283 954.543 148.562C955.262 147.842 956.238 147.438 957.255 147.438C958.272 147.438 959.247 147.842 959.967 148.562C960.686 149.283 961.09 150.259 961.09 151.278V160.29C961.093 160.797 960.995 161.298 960.803 161.767C960.611 162.235 960.329 162.66 959.972 163.019C959.615 163.377 959.19 163.661 958.723 163.855C958.256 164.048 957.755 164.147 957.25 164.146V164.126ZM957.25 146.051C956.234 146.051 955.26 145.647 954.542 144.927C953.823 144.208 953.42 143.233 953.42 142.216V133.203C953.42 132.185 953.824 131.208 954.543 130.488C955.262 129.767 956.238 129.363 957.255 129.363C958.272 129.363 959.247 129.767 959.967 130.488C960.686 131.208 961.09 132.185 961.09 133.203V142.216C961.093 142.722 960.995 143.223 960.803 143.692C960.611 144.16 960.329 144.586 959.972 144.944C959.615 145.302 959.19 145.586 958.723 145.78C958.256 145.973 957.755 146.072 957.25 146.071V146.051ZM957.25 127.976C956.234 127.976 955.26 127.572 954.542 126.853C953.823 126.133 953.42 125.158 953.42 124.141V115.128C953.42 114.11 953.824 113.133 954.543 112.413C955.262 111.693 956.238 111.288 957.255 111.288C958.272 111.288 959.247 111.693 959.967 112.413C960.686 113.133 961.09 114.11 961.09 115.128V124.141C961.093 124.647 960.995 125.149 960.803 125.617C960.611 126.085 960.329 126.511 959.972 126.869C959.615 127.228 959.19 127.512 958.723 127.705C958.256 127.898 957.755 127.997 957.25 127.996V127.976ZM957.25 109.901C956.234 109.901 955.26 109.497 954.542 108.778C953.823 108.059 953.42 107.083 953.42 106.066V97.0534C953.42 96.0349 953.824 95.0581 954.543 94.3379C955.262 93.6177 956.238 93.2131 957.255 93.2131C958.272 93.2131 959.247 93.6177 959.967 94.3379C960.686 95.0581 961.09 96.0349 961.09 97.0534V106.066C961.093 106.572 960.995 107.074 960.803 107.542C960.611 108.01 960.329 108.436 959.972 108.794C959.615 109.153 959.19 109.437 958.723 109.63C958.256 109.824 957.755 109.922 957.25 109.921V109.901ZM957.25 91.8262C956.234 91.8262 955.26 91.4222 954.542 90.7029C953.823 89.9837 953.42 89.0081 953.42 87.991V78.9786C953.42 77.9601 953.824 76.9833 954.543 76.2631C955.262 75.5429 956.238 75.1383 957.255 75.1383C958.272 75.1383 959.247 75.5429 959.967 76.2631C960.686 76.9833 961.09 77.9601 961.09 78.9786V87.991C961.091 88.4963 960.993 88.9969 960.8 89.4641C960.608 89.9312 960.325 90.3556 959.968 90.7129C959.611 91.0703 959.187 91.3535 958.721 91.5462C958.254 91.739 957.755 91.8376 957.25 91.8362V91.8262ZM957.25 73.7514C956.234 73.7514 955.26 73.3473 954.542 72.6281C953.823 71.9088 953.42 70.9333 953.42 69.9161V60.9037C953.42 59.8852 953.824 58.9084 954.543 58.1882C955.262 57.468 956.238 57.0634 957.255 57.0634C958.272 57.0634 959.247 57.468 959.967 58.1882C960.686 58.9084 961.09 59.8852 961.09 60.9037V69.9161C961.091 70.4214 960.993 70.9221 960.8 71.3892C960.608 71.8563 960.325 72.2808 959.968 72.6381C959.611 72.9954 959.187 73.2786 958.721 73.4714C958.254 73.6642 957.755 73.7627 957.25 73.7614V73.7514ZM957.25 55.6765C956.234 55.6765 955.26 55.2725 954.542 54.5532C953.823 53.834 953.42 52.8584 953.42 51.8413V42.8289C953.42 41.8104 953.824 40.8336 954.543 40.1134C955.262 39.3932 956.238 38.9886 957.255 38.9886C958.272 38.9886 959.247 39.3932 959.967 40.1134C960.686 40.8336 961.09 41.8104 961.09 42.8289V51.8413C961.091 52.3466 960.993 52.8472 960.8 53.3143C960.608 53.7815 960.325 54.2059 959.968 54.5632C959.611 54.9206 959.187 55.2038 958.721 55.3965C958.254 55.5893 957.755 55.6879 957.25 55.6865V55.6765Z" fill="#311234"/>
<path d="M957.25 214.014C956.234 214.014 955.26 213.61 954.542 212.891C953.823 212.172 953.42 211.196 953.42 210.179V205.513C953.42 204.494 953.824 203.517 954.543 202.797C955.262 202.077 956.238 201.672 957.255 201.672C958.272 201.672 959.247 202.077 959.967 202.797C960.686 203.517 961.09 204.494 961.09 205.513V210.179C961.09 210.683 960.991 211.183 960.797 211.649C960.604 212.115 960.321 212.538 959.965 212.894C959.608 213.251 959.185 213.533 958.719 213.725C958.253 213.917 957.754 214.016 957.25 214.014Z" fill="#311234"/>
</svg>
