<svg width="100" height="100" viewBox="0 0 100 100" fill="none" xmlns="http://www.w3.org/2000/svg">
<path d="M56.2983 83.746C58.9075 83.746 61.0308 81.6235 61.0308 79.0135C61.0308 76.4043 58.9075 74.281 56.2983 74.281H5.4232V83.746H56.2983Z" fill="#DDF5FF"/>
<path d="M8.57783 74.281V78.6198C8.57783 79.7086 9.46055 80.5913 10.55 80.5913H60.759C60.1082 82.4277 58.3542 83.7468 56.2981 83.7468H5.42308V74.281H8.57783Z" fill="#C1E9F4"/>
<path d="M56.2981 83.7461C58.9073 83.7461 61.0306 81.6236 61.0306 79.0136C61.0306 76.4043 58.9073 74.2811 56.2981 74.2811H1.47939V68.3652H56.2981C62.1788 68.3652 66.9464 73.1328 66.9464 79.0136C66.9464 84.8943 62.1788 89.6619 56.2981 89.6619H1.47939V83.7461H56.2981Z" fill="#FF6969"/>
<path d="M5.22546 68.3652H1.47944V74.2811H5.22546V68.3652Z" fill="#EA4747"/>
<path d="M5.22546 83.7461H1.47944V89.6619H5.22546V83.7461Z" fill="#EA4747"/>
<path d="M56.298 79.0143V89.2682L51.5655 87.296L47.0298 89.2682V79.0143H56.298Z" fill="#FFD664"/>
<path d="M56.2983 41.1535C58.9075 41.1535 61.0308 39.0302 61.0308 36.421C61.0308 33.8109 58.9075 31.6877 56.2983 31.6877H5.4232V41.1535H56.2983Z" fill="#DDF5FF"/>
<path d="M8.57783 31.6884V36.0265C8.57783 37.1152 9.46055 37.9987 10.55 37.9987H60.759C60.1082 39.8343 58.3542 41.1534 56.2981 41.1534H5.42308V31.6884H8.57783Z" fill="#C1E9F4"/>
<path d="M56.2981 41.1535C58.9073 41.1535 61.0306 39.0302 61.0306 36.421C61.0306 33.811 58.9073 31.6877 56.2981 31.6877H1.47939V25.7726H56.2981C62.1788 25.7726 66.9464 30.5395 66.9464 36.421C66.9464 42.3017 62.1788 47.0686 56.2981 47.0686H1.47939V41.1535H56.2981Z" fill="#FF933B"/>
<path d="M5.22546 25.7726H1.47944V31.6885H5.22546V25.7726Z" fill="#F27D27"/>
<path d="M5.22546 41.1534H1.47944V47.0685H5.22546V41.1534Z" fill="#F27D27"/>
<path d="M56.298 36.421V46.6749L51.5655 44.7027L47.0298 46.6749V36.421H56.298Z" fill="#FFD664"/>
<path d="M12.1271 62.4501C9.51787 62.4501 7.39461 60.3269 7.39461 57.7176C7.39461 55.1076 9.51787 52.9844 12.1271 52.9844H63.0029V62.4501H12.1271Z" fill="#DDF5FF"/>
<path d="M12.1271 52.9844H12.2019C12.0264 53.4788 11.9303 54.009 11.9303 54.5621C11.9303 57.1721 14.0535 59.2946 16.6628 59.2946H63.0029V62.4501H12.1271C9.51787 62.4501 7.39461 60.3269 7.39461 57.7176C7.39537 55.1076 9.51787 52.9844 12.1271 52.9844Z" fill="#C1E9F4"/>
<path d="M12.127 62.4502C9.51772 62.4502 7.39446 60.3269 7.39446 57.7177C7.39446 55.1077 9.51772 52.9844 12.127 52.9844H66.9464V47.0693H12.127C6.24623 47.0693 1.47939 51.8362 1.47939 57.7177C1.47939 63.5984 6.24623 68.3653 12.127 68.3653H66.9464V62.4502H12.127Z" fill="#8DB0FF"/>
<path d="M12.127 47.0693H15.4794C9.59864 47.0693 4.83104 51.8362 4.83104 57.7177C4.83104 63.5984 9.59864 68.3653 15.4794 68.3653H12.127C6.24629 68.3653 1.47945 63.5984 1.47945 57.7177C1.47945 51.8362 6.24629 47.0693 12.127 47.0693Z" fill="#669AF7"/>
<path d="M12.127 57.7177V67.9716L16.8602 65.9994L21.3951 67.9716V57.7177H12.127Z" fill="#FFD664"/>
<path d="M98.5223 18.4049L86.9531 15.9261L80.0127 48.3183L91.5819 50.797L98.5223 18.4049Z" fill="#8DB0FF"/>
<path d="M89.8445 16.5449L83.8943 44.3098C83.6662 45.3749 84.3445 46.4231 85.4095 46.6513L92.1577 48.0978L91.5794 50.7971L80.0102 48.3175L86.9522 15.9254L89.8445 16.5449Z" fill="#669AF7"/>
<path d="M73.0275 80.9026L77.2007 89.6619L84.5967 83.3822L91.5798 50.7971L80.0106 48.3175L73.0275 80.9026Z" fill="#8DB0FF"/>
<path d="M82.9026 48.9378L76.4817 78.8992C76.117 80.6005 76.3253 82.3743 77.073 83.9445L79.049 88.0918L77.1996 89.6619L73.0271 80.9026L80.0103 48.3175L82.9026 48.9378Z" fill="#669AF7"/>
<path d="M97.6953 10.967L90.7541 9.48004L89.2671 16.4213L96.2083 17.9082L97.6953 10.967Z" fill="#FFD664"/>
<path d="M93.2609 10.0172L90.7538 9.48004L89.2669 16.4213L91.7731 16.9584L93.2609 10.0172Z" fill="#F9C646"/>
<path d="M97.2412 24.3818L85.6728 21.903L84.2682 28.4589L95.8366 30.9377L97.2412 24.3818Z" fill="#FFD664"/>
<path d="M88.5636 22.5218L88.0265 25.0288C87.7984 26.0939 88.4767 27.1414 89.5417 27.3703L96.2899 28.816L95.8352 30.937L84.2668 28.4582L85.6713 21.9023L88.5636 22.5218Z" fill="#F9C646"/>
<path d="M1.47945 33.1663C0.662338 33.1663 0.000106812 32.504 0.000106812 31.6877V25.7718C0.000106812 24.9555 0.662338 24.2933 1.47945 24.2933H11.4862C12.3033 24.2933 12.9655 24.9555 12.9655 25.7718C12.9655 26.589 12.3033 27.2512 11.4862 27.2512H2.95802V30.2083H56.2981C59.723 30.2083 62.5092 32.9954 62.5092 36.4202C62.5092 39.3354 60.4905 41.7867 57.7767 42.4527V45.4694C59.6642 45.1658 61.4037 44.283 62.7808 42.9052C64.5135 41.1725 65.4671 38.87 65.4671 36.4202C65.4671 31.3642 61.3541 27.2512 56.2981 27.2512H18.3389C17.5218 27.2512 16.8603 26.589 16.8603 25.7718C16.8603 24.9555 17.5218 24.2933 18.3389 24.2933H56.2981C62.9853 24.2933 68.425 29.733 68.425 36.4202C68.425 39.6596 67.1631 42.7053 64.872 44.9964C64.6653 45.2039 64.4501 45.3992 64.2312 45.5892H66.9465C67.7628 45.5892 68.425 46.2514 68.425 47.0685V52.9844C68.425 53.8007 67.7628 54.4629 66.9465 54.4629H64.4814V60.97H66.9465C67.7628 60.97 68.425 61.6323 68.425 62.4494V68.3644C68.425 69.1816 67.7628 69.8438 66.9465 69.8438H64.2213C66.7931 72.0693 68.425 75.353 68.425 79.0128C68.425 82.2522 67.1631 85.2986 64.872 87.5897C62.5825 89.8793 59.5376 91.1405 56.2981 91.1405H34.1058C33.2887 91.1405 32.6272 90.4782 32.6272 89.6611C32.6272 88.844 33.2887 88.1826 34.1058 88.1826H45.5514V85.2246H5.43452C5.43071 85.2246 5.42689 85.2254 5.42308 85.2254C5.41926 85.2254 5.41545 85.2246 5.41163 85.2246H2.95802V88.1826H27.2065C28.0229 88.1826 28.6851 88.8448 28.6851 89.6619C28.6851 90.4782 28.0229 91.1405 27.2065 91.1405H1.47945C0.662338 91.1405 0.000106812 90.4782 0.000106812 89.6619V83.7461C0.000106812 82.929 0.662338 82.2667 1.47945 82.2667H3.94374V75.7596H1.47945C0.662338 75.7596 0.000106812 75.0974 0.000106812 74.281V68.3652C0.000106812 67.5489 0.662338 66.8866 1.47945 66.8866H4.19398C3.97502 66.6967 3.75987 66.5006 3.55312 66.2938C1.26201 64.002 0.000106812 60.9563 0.000106812 57.7169C0.000106812 54.0571 1.63203 50.7726 4.2039 48.5471H1.47945C0.662338 48.5471 0.000106812 47.8849 0.000106812 47.0685V41.1527C0.000106812 40.3364 0.662338 39.6741 1.47945 39.6741H3.94374V33.167H1.47945V33.1663ZM48.5093 44.4188L50.9759 43.3462C51.3444 43.1859 51.7632 43.1829 52.134 43.3378L54.8188 44.4562V37.8995H48.5085V44.4188H48.5093ZM61.5235 54.4629H12.1278C10.3334 54.4629 8.87385 55.9232 8.87385 57.7169C8.87385 58.978 9.59636 60.0713 10.6484 60.6115V57.7176C10.6484 56.9005 11.3107 56.2383 12.1278 56.2383H21.3952C22.2123 56.2383 22.8745 56.9005 22.8745 57.7176V60.9708H61.5235V54.4629ZM13.6064 65.7529L16.2911 64.6344C16.4735 64.5581 16.6665 64.5208 16.8603 64.5208C17.0609 64.5208 17.2616 64.5612 17.4493 64.6428L19.9166 65.7155V59.1962H13.6064V65.7529ZM65.4671 66.8859V63.928H63.0135C63.0097 63.928 63.0059 63.9287 63.0021 63.9287C62.9983 63.9287 62.9944 63.928 62.9906 63.928H22.8738V66.8859H65.4671ZM48.5093 87.0122L50.9759 85.9395C51.3444 85.7793 51.7632 85.7755 52.134 85.9304L54.8188 87.0496V80.4929H48.5085V87.0122H48.5093ZM6.90165 82.2667H45.5514V79.0143C45.5514 78.1972 46.2136 77.535 47.03 77.535H56.2981C57.1145 77.535 57.7767 78.1972 57.7767 79.0143V81.9074C58.8288 81.368 59.5521 80.2747 59.5521 79.0135C59.5521 77.2191 58.0918 75.7596 56.2981 75.7596H6.90165V82.2667ZM2.95802 69.8438V72.8017H56.2981C59.723 72.8017 62.5092 75.5887 62.5092 79.0135C62.5092 81.9287 60.4905 84.3801 57.7767 85.0453V88.0628C59.6642 87.7584 61.4037 86.8756 62.7808 85.4985C64.5135 83.7659 65.4671 81.4626 65.4671 79.0135C65.4671 73.9576 61.3541 69.8438 56.2981 69.8438H2.95802ZM2.95802 57.7169C2.95802 60.1659 3.9117 62.4692 5.64433 64.2019C7.0222 65.579 8.7617 66.4617 10.6484 66.7661V63.7487C7.93544 63.0834 5.91594 60.6321 5.91594 57.7169C5.91594 54.292 8.70219 51.505 12.127 51.505H65.4671V48.5471H12.127C7.07103 48.5471 2.95802 52.6609 2.95802 57.7169ZM2.95802 45.5892H45.5514V42.632H5.43452H5.42308H5.41163H2.95802V45.5892ZM6.90165 39.6741H45.5514V36.421C45.5514 35.6038 46.2136 34.9416 47.03 34.9416H56.2981C57.1145 34.9416 57.7767 35.6038 57.7767 36.421V39.3148C58.8288 38.7746 59.5521 37.6813 59.5521 36.4202C59.5521 34.6265 58.0918 33.1663 56.2981 33.1663H6.90165V39.6741Z" fill="black"/>
<path d="M78.5644 48.0077C78.5644 48.0062 78.5652 48.0054 78.5652 48.0039L83.2511 26.1365L84.2254 21.5925C84.2254 21.5925 84.2254 21.5917 84.2254 21.591L85.5064 15.6149C85.6773 14.8168 86.4646 14.3079 87.2619 14.4788L88.1301 14.665L89.3073 9.16955C89.479 8.37075 90.2656 7.86111 91.0636 8.03353L98.0048 9.52126C98.3886 9.6029 98.7235 9.83407 98.9364 10.1637C99.1492 10.4932 99.2232 10.8938 99.1409 11.2768L97.9636 16.7722L98.8311 16.9584C99.2141 17.04 99.5498 17.2712 99.7626 17.6008C99.9755 17.9304 100.05 18.3309 99.9671 18.7139L98.6861 24.6908L97.2816 31.2467C97.2816 31.2482 97.2808 31.2498 97.2808 31.2505L93.0251 51.1068L92.0646 55.5883C91.8937 56.3871 91.1071 56.8975 90.3091 56.7243C89.5103 56.5534 89.0014 55.7676 89.1723 54.9688L89.8231 51.933L81.1469 50.0737L74.5788 80.721L77.7084 87.2907L83.2549 82.5803L87.7364 61.6712C87.9073 60.8724 88.6947 60.3627 89.4927 60.5352C90.2915 60.7061 90.7996 61.4919 90.6287 62.2907L86.042 83.6919C85.9741 84.0116 85.8016 84.2984 85.5537 84.5098L78.1577 90.7895C77.8877 91.0184 77.5474 91.1412 77.2003 91.1412C77.0973 91.1412 76.9935 91.1305 76.8905 91.1084C76.4419 91.0123 76.0627 90.7125 75.8651 90.2982L71.6926 81.5389C71.5522 81.2444 71.5133 80.9117 71.5812 80.5928L78.5644 48.0077ZM90.4433 49.0407L94.0788 32.073L91.1872 31.4535L88.6871 43.1188C88.5383 43.8123 87.9249 44.2876 87.2421 44.2876C87.1398 44.2876 87.0353 44.2769 86.9308 44.2548C86.132 44.0832 85.6239 43.2973 85.7948 42.4985L88.2949 30.8332L85.4026 30.2137L81.7664 47.1814L90.4433 49.0407ZM96.7651 19.5402L95.8991 19.3548H95.8976L88.9564 17.8671H88.9549L88.0882 17.6817L87.4275 20.7662L91.764 21.6955C91.764 21.6955 91.7648 21.6955 91.7655 21.6955C91.7663 21.6955 91.767 21.6962 91.767 21.6962L96.1036 22.6255L96.7651 19.5402ZM86.0229 27.3222L88.9152 27.9417L89.7002 24.278L86.8079 23.6578L86.6462 24.4115L86.0229 27.3222ZM95.4841 25.5178L92.5918 24.8975L91.8067 28.5612L94.699 29.1814L95.4658 25.6048L95.4841 25.5178ZM95.0713 16.152L95.9388 12.103L91.8899 11.2356L91.0224 15.2845L92.7222 15.6484L95.0713 16.152Z" fill="black"/>
</svg>
