<svg width="100" height="100" viewBox="0 0 100 100" fill="none" xmlns="http://www.w3.org/2000/svg">
<g clip-path="url(#clip0)">
<path d="M23.2601 40.9313C30.1147 40.9313 35.6715 35.3707 35.6715 28.5113C35.6715 21.6519 30.1147 16.0913 23.2601 16.0913C16.4055 16.0913 10.8488 21.6519 10.8488 28.5113C10.8488 35.3707 16.4055 40.9313 23.2601 40.9313Z" fill="#6165A8"/>
<path d="M23.2601 16.0913C21.5028 16.0828 19.7637 16.4473 18.1577 17.1606C16.5517 17.8739 15.1153 18.9199 13.9434 20.2294C12.7715 21.5389 11.8909 23.0822 11.3596 24.7573C10.8282 26.4323 10.6584 28.2011 10.8612 29.9466C11.064 31.6922 11.6349 33.3748 12.5362 34.8835C13.4374 36.3921 14.6485 37.6923 16.0894 38.6982C17.5304 39.7041 19.1683 40.3929 20.8951 40.7189C22.6219 41.045 24.3982 41.0009 26.1067 40.5897C23.3856 39.9449 20.9617 38.4008 19.2272 36.2073C17.4927 34.0138 16.5491 31.2991 16.5491 28.5027C16.5491 25.7063 17.4927 22.9916 19.2272 20.7981C20.9617 18.6045 23.3856 17.0605 26.1067 16.4157C25.1739 16.1952 24.2186 16.0835 23.2601 16.0827V16.0913Z" fill="#4E5291"/>
<path d="M16.0883 54.314H8.73364V48.1497H16.0883V54.314Z" fill="#6165A8"/>
<path d="M82.9585 67.6621H67.4694V51.5294H82.9585V67.6621Z" fill="#6165A8"/>
<path d="M84.2938 48.5706C83.3952 48.8124 82.6013 49.3437 82.0353 50.0822C81.4692 50.8208 81.1624 51.7254 81.1625 52.656V66.1922C81.1624 67.1228 81.4692 68.0274 82.0353 68.7659C82.6013 69.5045 83.3952 70.0358 84.2938 70.2776L92.7043 72.5376C92.9044 72.5913 93.1141 72.5982 93.3173 72.558C93.5206 72.5177 93.7118 72.4313 93.8763 72.3055C94.0409 72.1796 94.1743 72.0177 94.2663 71.8321C94.3584 71.6465 94.4065 71.4422 94.4071 71.2351L94.4727 47.5993C94.4732 47.3916 94.4258 47.1865 94.3342 47.0001C94.2426 46.8136 94.1093 46.6507 93.9446 46.5241C93.78 46.3975 93.5883 46.3104 93.3846 46.2698C93.1809 46.2292 92.9705 46.2361 92.7699 46.2898L84.2938 48.5689V48.5706Z" fill="#3BE7B3"/>
<path d="M14.1405 75.2618V43.564C14.1405 42.8836 14.4108 42.231 14.8919 41.7499C15.373 41.2688 16.0255 40.9985 16.7059 40.9985H66.6412C66.9783 40.9983 67.3121 41.0645 67.6235 41.1933C67.935 41.3221 68.218 41.5111 68.4564 41.7493C68.6948 41.9876 68.8839 42.2705 69.0129 42.5818C69.142 42.8932 69.2084 43.2269 69.2084 43.564V75.2635C69.2084 75.6004 69.142 75.934 69.0131 76.2452C68.8842 76.5565 68.6952 76.8393 68.457 77.0775C68.2188 77.3157 67.936 77.5047 67.6247 77.6336C67.3135 77.7626 66.9799 77.8289 66.643 77.8289H16.7059C16.3689 77.8289 16.0352 77.7625 15.7238 77.6335C15.4124 77.5044 15.1295 77.3153 14.8913 77.0769C14.653 76.8385 14.4641 76.5555 14.3353 76.244C14.2065 75.9326 14.1403 75.5988 14.1405 75.2618Z" fill="#3BE7B3"/>
<path d="M14.1405 43.564V75.2618C14.1405 75.9423 14.4107 76.595 14.8918 77.0764C15.3729 77.5578 16.0254 77.8284 16.7059 77.8289H22.3992C21.719 77.8284 21.0667 77.558 20.5857 77.077C20.1047 76.596 19.8342 75.9437 19.8338 75.2635V43.564C19.8342 42.8837 20.1047 42.2314 20.5857 41.7504C21.0667 41.2694 21.719 40.999 22.3992 40.9985H16.7059C16.0257 40.999 15.3734 41.2694 14.8924 41.7504C14.4114 42.2314 14.141 42.8837 14.1405 43.564Z" fill="#0FA678"/>
<path d="M39.1892 60.6559H20.881V47.972H39.1892V60.6559Z" fill="#FEF5E4"/>
<path d="M54.7715 40.9296C65.709 40.9296 74.5756 32.0568 74.5756 21.1118C74.5756 10.1667 65.709 1.29395 54.7715 1.29395C43.8341 1.29395 34.9675 10.1667 34.9675 21.1118C34.9675 32.0568 43.8341 40.9296 54.7715 40.9296Z" fill="#6165A8"/>
<path d="M34.9675 21.1118C34.9664 23.954 35.5769 26.7633 36.7575 29.3487C37.9381 31.9342 39.6612 34.2353 41.8098 36.0959C43.9585 37.9565 46.4823 39.333 49.21 40.1319C51.9376 40.9308 54.8053 41.1334 57.6182 40.726C52.9073 40.0383 48.6013 37.678 45.4875 34.0766C42.3737 30.4753 40.6602 25.8735 40.6602 21.1126C40.6602 16.3518 42.3737 11.75 45.4875 8.14865C48.6013 4.54729 52.9073 2.18698 57.6182 1.49926C54.8054 1.09187 51.9379 1.29445 49.2104 2.09325C46.4828 2.89206 43.9591 4.26838 41.8105 6.12879C39.6619 7.9892 37.9387 10.2901 36.758 12.8754C35.5773 15.4606 34.9666 18.2697 34.9675 21.1118Z" fill="#4E5291"/>
<path d="M54.7716 28.9288C59.086 28.9288 62.5835 25.429 62.5835 21.1117C62.5835 16.7945 59.086 13.2947 54.7716 13.2947C50.4572 13.2947 46.9597 16.7945 46.9597 21.1117C46.9597 25.429 50.4572 28.9288 54.7716 28.9288Z" fill="#373E7A"/>
<path d="M23.2602 32.3655C25.3869 32.3655 27.1109 30.6399 27.1109 28.5113C27.1109 26.3827 25.3869 24.6571 23.2602 24.6571C21.1335 24.6571 19.4094 26.3827 19.4094 28.5113C19.4094 30.6399 21.1335 32.3655 23.2602 32.3655Z" fill="#373E7A"/>
<path d="M7.44482 45.4186V57.045C7.44482 58.7133 10.0327 58.7133 10.0327 57.045V55.6079H12.8465V75.2618C12.8479 76.285 13.255 77.2658 13.9784 77.9893C14.7019 78.7127 15.6828 79.1198 16.7059 79.1212H52.301C53.9693 79.1212 53.9693 76.5333 52.301 76.5333H16.7076C16.3705 76.5329 16.0474 76.3987 15.809 76.1604C15.5707 75.922 15.4366 75.5989 15.4361 75.2618V43.564C15.4366 43.2266 15.5709 42.9032 15.8097 42.6648C16.0484 42.4264 16.372 42.2925 16.7094 42.2925H66.6412C66.9783 42.293 67.3014 42.4271 67.5398 42.6654C67.7781 42.9038 67.9123 43.2269 67.9127 43.564V75.2635C67.9123 75.6006 67.7781 75.9238 67.5398 76.1621C67.3014 76.4005 66.9783 76.5346 66.6412 76.535H60.2371C58.5688 76.535 58.5688 79.1229 60.2371 79.1229H66.6464C67.6695 79.1215 68.6504 78.7145 69.3738 77.991C70.0973 77.2675 70.5044 76.2867 70.5057 75.2635V68.9561H74.2116V69.3718C74.2116 71.0401 76.7994 71.0401 76.7994 69.3718V68.9561H80.6122C81.343 70.222 82.546 71.1464 83.9574 71.5267L94.0656 74.2439C94.2566 74.2889 94.4553 74.291 94.6472 74.25C94.8391 74.209 95.0195 74.126 95.1755 74.0068C95.3314 73.8877 95.459 73.7354 95.549 73.561C95.639 73.3866 95.6892 73.1944 95.696 72.9983L95.7391 58.5425C95.7391 56.8897 93.1512 56.8552 93.1512 58.5425L93.1133 71.3093L84.6303 69.0268C84.0067 68.8579 83.456 68.4885 83.0631 67.9756C82.6703 67.4627 82.4571 66.8348 82.4565 66.1888V52.656C82.456 52.0103 82.6686 51.3825 83.0614 50.87C83.4541 50.3575 84.005 49.9889 84.6285 49.8214L93.1806 47.5217V50.427C93.1806 52.0798 95.7684 52.1126 95.7684 50.427L95.7805 45.8292C95.7786 45.6312 95.7317 45.4361 95.6432 45.2589C95.5548 45.0816 95.4273 44.9268 95.2702 44.8061C95.1131 44.6855 94.9306 44.6021 94.7366 44.5623C94.5425 44.5226 94.342 44.5275 94.1501 44.5767L83.9712 47.3147C83.2046 47.518 82.4908 47.8842 81.8784 48.3882C81.266 48.8922 80.7694 49.5223 80.4224 50.2355H76.7994V49.8197C76.7994 48.1514 74.2116 48.1514 74.2116 49.8197V50.2355H70.5006V43.564C70.4992 42.5409 70.0921 41.56 69.3687 40.8365C68.6452 40.1131 67.6644 39.706 66.6412 39.7046H64.759C68.1161 37.8962 70.9214 35.2132 72.8774 31.9399C74.8335 28.6665 75.8673 24.925 75.8695 21.1117C75.8695 9.46983 66.4049 0 54.7716 0C43.6231 0 34.469 8.69693 33.7237 19.6677C31.7779 17.358 29.123 15.7565 26.1724 15.1124C23.2218 14.4684 20.1411 14.818 17.4098 16.1068C15.8985 16.8194 17.0078 19.1501 18.5174 18.4463C19.9995 17.7437 21.6199 17.3812 23.2601 17.3852C25.7306 17.3846 28.131 18.2069 30.0823 19.7221C32.0336 21.2373 33.4247 23.3592 34.0361 25.7529C34.6474 28.1466 34.4441 30.6758 33.4584 32.9411C32.4726 35.2064 30.7604 37.079 28.5922 38.2631C26.4239 39.4472 23.9231 39.8755 21.4843 39.4804C19.0456 39.0853 16.8079 37.8892 15.1245 36.081C13.4411 34.2728 12.4078 31.9555 12.1877 29.4948C11.9677 27.0341 12.5734 24.5701 13.9093 22.4919C14.8133 21.0893 12.6378 19.6867 11.7338 21.091C9.79653 24.1047 9.11536 27.7568 9.83594 31.2662C10.5565 34.7756 12.6216 37.8638 15.5897 39.8703C14.7968 40.111 14.1022 40.6 13.6084 41.2654C13.1145 41.9307 12.8474 42.7371 12.8465 43.5657V46.8558H10.0327V45.4186C10.0327 45.0755 9.89636 44.7463 9.6537 44.5037C9.41104 44.261 9.08192 44.1247 8.73875 44.1247C8.39558 44.1247 8.06647 44.261 7.82381 44.5037C7.58115 44.7463 7.44482 45.0755 7.44482 45.4186ZM76.7994 66.3682V52.8234H79.7668V66.3682H76.7994ZM70.6558 52.8234H74.2116V66.3682H70.661L70.6558 52.8234ZM54.7664 39.6374C51.1024 39.6391 47.5202 38.5541 44.4729 36.5198C41.4256 34.4855 39.05 31.5932 37.6466 28.2086C36.2432 24.8241 35.875 21.0994 36.5886 17.5056C37.3023 13.9118 39.0656 10.6103 41.6557 8.01877C44.2458 5.42722 47.5463 3.662 51.1397 2.94636C54.7331 2.23072 58.458 2.5968 61.8434 3.99831C65.2287 5.39982 68.1224 7.7738 70.1584 10.82C72.1944 13.8662 73.2813 17.4478 73.2816 21.1117C73.278 26.0211 71.3271 30.7285 67.857 34.2012C64.3869 37.6739 59.6809 39.6283 54.7716 39.6356L54.7664 39.6374ZM36.5651 31.7772C38.5279 35.1223 41.3684 37.8667 44.779 39.7133H31.1496C33.8472 37.8038 35.7667 34.9864 36.5565 31.7772H36.5651ZM10.0327 53.02V49.4436H12.8465V53.0218L10.0327 53.02Z" fill="black"/>
<path d="M20.881 46.678C20.5378 46.678 20.2087 46.8144 19.966 47.057C19.7234 47.2997 19.587 47.6288 19.587 47.972V60.6559C19.587 60.9991 19.7234 61.3282 19.966 61.5709C20.2087 61.8135 20.5378 61.9499 20.881 61.9499H39.1892C39.5324 61.9499 39.8615 61.8135 40.1041 61.5709C40.3468 61.3282 40.4831 60.9991 40.4831 60.6559V47.972C40.4831 47.6288 40.3468 47.2997 40.1041 47.057C39.8615 46.8144 39.5324 46.678 39.1892 46.678H20.881ZM22.1749 49.2659H37.8953V59.362H22.1749V49.2659Z" fill="black"/>
<path d="M31.398 70.0205C29.7297 70.0205 29.7332 72.6084 31.398 72.6084C33.0629 72.6084 33.0629 70.0205 31.398 70.0205Z" fill="black"/>
<path d="M26.1171 70.0205C24.4488 70.0205 24.4523 72.6084 26.1171 72.6084C27.782 72.6084 27.782 70.0205 26.1171 70.0205Z" fill="black"/>
<path d="M20.8361 72.6084C22.5044 72.6084 22.5009 70.0205 20.8361 70.0205C19.1712 70.0205 19.1764 72.6084 20.8361 72.6084Z" fill="black"/>
<path d="M45.6658 21.1117C45.6668 22.9125 46.2017 24.6725 47.2029 26.1692C48.2041 27.666 49.6266 28.8323 51.2905 29.5207C52.9545 30.2091 54.7852 30.3887 56.5512 30.0368C58.3172 29.6848 59.9393 28.8172 61.2122 27.5435C62.4852 26.2698 63.3519 24.6473 63.7028 22.8811C64.0538 21.1149 63.8731 19.2843 63.1838 17.6207C62.4944 15.9571 61.3273 14.5353 59.83 13.535C58.3326 12.5346 56.5723 12.0007 54.7716 12.0007C52.3567 12.0039 50.0416 12.965 48.3345 14.6731C46.6274 16.3812 45.6676 18.6968 45.6658 21.1117ZM61.2896 21.1117C61.2885 22.4006 60.9054 23.6603 60.1886 24.7315C59.4717 25.8027 58.4534 26.6373 57.2623 27.1298C56.0712 27.6224 54.7609 27.7507 53.4968 27.4986C52.2328 27.2465 51.0719 26.6254 50.1609 25.7136C49.2498 24.8018 48.6296 23.6404 48.3785 22.3762C48.1274 21.112 48.2568 19.8017 48.7503 18.611C49.2438 17.4203 50.0792 16.4027 51.1509 15.6867C52.2227 14.9707 53.4827 14.5886 54.7716 14.5886C56.5003 14.5913 58.1574 15.2796 59.3793 16.5025C60.6012 17.7254 61.2882 19.383 61.2896 21.1117Z" fill="black"/>
<path d="M18.1155 28.5113C18.1162 29.5286 18.4185 30.523 18.9842 31.3685C19.5499 32.2141 20.3536 32.873 21.2938 33.2619C22.2339 33.6507 23.2682 33.7521 24.2659 33.5532C25.2637 33.3543 26.18 32.864 26.8992 32.1444C27.6183 31.4248 28.108 30.5081 28.3062 29.5102C28.5044 28.5124 28.4023 27.4781 28.0129 26.5382C27.6234 25.5984 26.964 24.7951 26.118 24.23C25.272 23.6648 24.2775 23.3632 23.2601 23.3632C21.8957 23.365 20.5876 23.9081 19.6231 24.8732C18.6586 25.8384 18.1164 27.1468 18.1155 28.5113ZM20.7033 28.5113C20.704 28.0057 20.8546 27.5117 21.1359 27.0917C21.4173 26.6717 21.8168 26.3445 22.2841 26.1516C22.7513 25.9586 23.2653 25.9084 23.7611 26.0075C24.2568 26.1065 24.7121 26.3503 25.0693 26.708C25.4265 27.0657 25.6697 27.5213 25.7681 28.0172C25.8664 28.5131 25.8156 29.027 25.622 29.494C25.4284 29.961 25.1007 30.3601 24.6803 30.6409C24.2599 30.9217 23.7657 31.0715 23.2601 31.0715C22.5817 31.0706 21.9314 30.8005 21.452 30.3204C20.9726 29.8404 20.7033 29.1897 20.7033 28.5113Z" fill="black"/>
<path d="M45.4622 63.7493C45.3954 63.3675 45.2441 63.0054 45.0193 62.6895C44.7945 62.3737 44.502 62.1122 44.1631 61.924C43.8499 61.7315 43.4965 61.6142 43.1304 61.5813C42.7643 61.5484 42.3956 61.6007 42.0531 61.7342C42.0531 61.679 42.0686 61.6273 42.0686 61.5721C42.0709 61.1597 41.9728 60.753 41.783 60.3869C41.5932 60.0208 41.3173 59.7064 40.979 59.4706C40.6407 59.2348 40.2501 59.0848 39.841 59.0334C39.4318 58.982 39.0163 59.0309 38.6302 59.1757C38.6302 59.1205 38.6458 59.0687 38.6458 59.0135C38.6467 58.6762 38.5811 58.3421 38.4528 58.0302C38.3245 57.7183 38.1361 57.4347 37.8981 57.1956C37.6602 56.9566 37.3775 56.7668 37.0662 56.637C36.7549 56.5073 36.4211 56.4401 36.0838 56.4395C36.0838 55.7586 35.8133 55.1056 35.3319 54.6242C34.8504 54.1428 34.1975 53.8723 33.5166 53.8723C33.4614 53.8723 33.4097 53.8844 33.3545 53.8878C33.4682 53.5974 33.5231 53.2872 33.516 52.9753C33.5089 52.6635 33.4399 52.3561 33.313 52.0712C33.1322 51.6365 32.8385 51.2579 32.4625 50.9747C32.0864 50.6914 31.6415 50.5136 31.1738 50.4598C30.7848 50.4263 30.3933 50.4826 30.0296 50.6244C29.6658 50.7662 29.3395 50.9896 29.0759 51.2775C28.8701 50.7103 28.4708 50.2339 27.9482 49.9322C27.4255 49.6306 26.8132 49.5231 26.2191 49.6286C25.625 49.7342 25.0873 50.0461 24.7006 50.5094C24.3139 50.9726 24.1032 51.5575 24.1055 52.1609C24.1063 51.6048 23.9263 51.0636 23.5925 50.6189C23.2588 50.1743 22.7894 49.8502 22.2552 49.6957C21.7211 49.5413 21.1512 49.5647 20.6316 49.7626C20.112 49.9605 19.6709 50.3221 19.3748 50.7928C18.8157 50.4655 18.1511 50.369 17.5219 50.5236C17.0409 50.6423 16.6037 50.896 16.262 51.2549C15.9203 51.6137 15.6882 52.0627 15.5931 52.549C15.5215 52.9395 15.5422 53.3414 15.6537 53.7224C15.7651 54.1035 15.9642 54.4532 16.2349 54.7435C15.8339 54.7698 15.4447 54.8904 15.099 55.0954C14.7534 55.3005 14.461 55.5842 14.2457 55.9236C13.9323 55.7402 13.5827 55.6275 13.2213 55.5932C12.8598 55.559 12.4952 55.604 12.153 55.7252C11.7889 55.8515 11.4576 56.0576 11.1833 56.3283C10.909 56.599 10.6986 56.9276 10.5675 57.29C10.3525 57.8799 10.3648 58.5288 10.602 59.1101C10.0586 59.2557 9.57821 59.5762 9.23518 60.0222C8.89215 60.4681 8.70556 61.0146 8.70425 61.5772C8.70425 61.6324 8.71633 61.6842 8.71978 61.7394C8.37817 61.6065 8.01046 61.5543 7.64536 61.5869C7.28025 61.6195 6.92762 61.7361 6.61499 61.9274C6.27498 62.1153 5.98135 62.3769 5.75566 62.6931C5.52996 63.0092 5.37792 63.3719 5.31071 63.7545C5.23402 64.2552 5.30788 64.7674 5.5229 65.226C5.73793 65.6846 6.08443 66.069 6.51837 66.3303L6.99281 66.7115H9.9861V70.0602H39.9293V66.7064H43.7783L43.6593 66.5873C44.2521 66.4121 44.7614 66.0281 45.0928 65.5063C45.4243 64.9846 45.5555 64.3604 45.4622 63.7493Z" fill="#F7B74F"/>
<path d="M12.5533 99.1443L5.12438 69.8049C4.9894 69.2206 4.988 68.6135 5.12028 68.0286C5.25257 67.4437 5.51514 66.8962 5.88842 66.4269C6.2617 65.9576 6.73608 65.5786 7.27619 65.3181C7.81631 65.0577 8.40825 64.9224 9.00789 64.9225H9.04585C10.0149 64.9226 10.9507 65.2757 11.6782 65.9159C12.4057 66.5561 12.875 67.4394 12.9984 68.4006L17.6858 99.1443H12.5533Z" fill="#F4475C"/>
<path d="M17.6858 99.1443L13.1277 69.4167C13.0567 68.8557 13.1059 68.286 13.2721 67.7455C13.4382 67.2049 13.7175 66.7059 14.0914 66.2816C14.4652 65.8574 14.9251 65.5175 15.4404 65.2847C15.9558 65.0518 16.5147 64.9313 17.0802 64.9311H17.2217C18.261 64.9312 19.2591 65.3373 20.0033 66.0627C20.7474 66.7882 21.1787 67.7757 21.2053 68.8146L22.8167 99.1529H17.6858V99.1443Z" fill="#FCE9CC"/>
<path d="M21.2123 69.0095L22.8185 99.1426H27.9511L29.4468 69.1131C29.4741 68.5904 29.3981 68.0675 29.2232 67.5741C29.0483 67.0808 28.7779 66.6268 28.4276 66.238C28.0772 65.8492 27.6537 65.5332 27.1812 65.308C26.7087 65.0829 26.1964 64.9531 25.6738 64.9259C25.6059 64.9259 25.5375 64.9259 25.4684 64.9259H25.1976C24.1415 64.9259 23.1286 65.3451 22.3814 66.0913C21.6341 66.8376 21.2137 67.85 21.2123 68.906C21.2123 68.9417 21.2123 68.9768 21.2123 69.0113V69.0095Z" fill="#F4475C"/>
<path d="M29.4692 68.7059L27.9528 99.146H33.0853L37.5123 69.5168C37.5996 68.9489 37.5631 68.3689 37.4053 67.8164C37.2474 67.264 36.972 66.7522 36.5979 66.3162C36.2238 65.8802 35.7599 65.5302 35.2379 65.2902C34.7158 65.0502 34.1481 64.9259 33.5736 64.9259H33.4494C32.4279 64.9259 31.4455 65.318 30.7048 66.0215C29.9642 66.7249 29.5219 67.6858 29.4692 68.7059Z" fill="#FCE9CC"/>
<path d="M41.6408 64.9242C42.2484 64.9243 42.848 65.0634 43.3936 65.3308C43.9392 65.5982 44.4165 65.9868 44.7889 66.4669C45.1613 66.947 45.419 67.506 45.5423 68.1009C45.6655 68.6959 45.6511 69.3112 45.5002 69.8998L38.2179 99.1443H33.0853L37.6986 68.3022C37.8437 67.361 38.3211 66.5029 39.0442 65.8833C39.7674 65.2636 40.6885 64.9234 41.6408 64.9242Z" fill="#F4475C"/>
<path d="M14.2629 77.7565H36.5064V88.0234H14.2629V77.7565Z" fill="#F7B74F"/>
<path d="M46.3075 63.6251C46.2214 63.1148 46.0216 62.6305 45.723 62.2079C45.4243 61.7854 45.0345 61.4354 44.5823 61.1839C44.0467 60.868 43.4338 60.7073 42.8122 60.7198C42.6137 59.9692 42.1678 59.3075 41.5467 58.8416C40.9256 58.3758 40.1655 58.133 39.3893 58.1526C39.2315 57.5461 38.9109 56.9944 38.462 56.5571C38.0132 56.1198 37.4532 55.8136 36.8429 55.6717C36.7005 55.061 36.3937 54.5009 35.9558 54.052C35.5179 53.6031 34.9655 53.2827 34.3585 53.1253C34.374 52.646 34.2809 52.1694 34.0859 51.7313C33.8414 51.1563 33.4482 50.6568 32.9467 50.2841C32.4452 49.9115 31.8535 49.6791 31.2324 49.611C30.5665 49.5538 29.8986 49.6942 29.3122 50.0147C29.0004 49.627 28.6074 49.3123 28.161 49.0927C27.7146 48.8732 27.2255 48.754 26.7281 48.7437C26.2307 48.7333 25.7371 48.832 25.2819 49.0328C24.8267 49.2336 24.421 49.5316 24.0933 49.906C23.4964 49.2259 22.6538 48.8108 21.7508 48.7519C20.8478 48.693 19.9584 48.9952 19.2782 49.592C19.2184 49.6449 19.1609 49.6995 19.1057 49.7559C18.527 49.5687 17.908 49.5449 17.3166 49.6869C16.6756 49.8461 16.0934 50.1851 15.6386 50.664C15.1838 51.143 14.8753 51.7419 14.7495 52.3903C14.6384 53.0042 14.6981 53.6368 14.922 54.2191C14.5768 54.3851 14.2619 54.6079 13.9904 54.8781C13.3019 54.6578 12.5603 54.6687 11.8787 54.9092C11.3915 55.0765 10.9483 55.3513 10.5818 55.7133C10.2153 56.0753 9.93508 56.5151 9.76179 57.0002C9.5775 57.5107 9.51833 58.0579 9.58927 58.596C9.18899 58.8242 8.83869 59.1306 8.5592 59.4969C8.27972 59.8633 8.07675 60.282 7.96237 60.7284C7.34063 60.7064 6.726 60.8665 6.194 61.189C5.74185 61.4415 5.35212 61.7922 5.05353 62.2153C4.75494 62.6384 4.55511 63.1231 4.46876 63.6337C4.33655 64.5077 4.55005 65.3988 5.06397 66.118C4.66572 66.6758 4.39107 67.3121 4.25838 67.9845C4.12569 68.6569 4.13801 69.3498 4.29451 70.0171L11.8856 100H38.8855L46.3282 70.1102C46.4984 69.4473 46.5249 68.7557 46.4059 68.0817C46.2869 67.4078 46.0251 66.7671 45.6381 66.2026C45.9175 65.8403 46.1203 65.425 46.2342 64.9819C46.3481 64.5388 46.3707 64.0772 46.3006 63.6251H46.3075ZM7.03937 62.6641C7.24327 62.5359 7.47464 62.4578 7.71454 62.4362C7.95444 62.4146 8.19604 62.4501 8.41956 62.5399C8.55342 62.5866 8.69675 62.5996 8.83684 62.5778C8.97693 62.5559 9.10948 62.4999 9.22274 62.4146C9.33601 62.3293 9.4265 62.2174 9.48622 62.0888C9.54594 61.9602 9.57304 61.8188 9.56512 61.6773C9.56512 61.6566 9.55304 61.591 9.55131 61.5686C9.55353 61.194 9.67861 60.8304 9.90736 60.5337C10.1361 60.237 10.4559 60.0236 10.8176 59.9262C11.0355 59.8652 11.2207 59.7211 11.3333 59.5249C11.4459 59.3287 11.477 59.0961 11.4197 58.8772C11.4113 58.845 11.4009 58.8133 11.3887 58.7823C11.2304 58.3968 11.2218 57.9662 11.3645 57.5747C11.4526 57.3348 11.5929 57.1176 11.7752 56.9385C11.9575 56.7595 12.1773 56.6232 12.4187 56.5395C12.6461 56.4583 12.8886 56.4283 13.129 56.4516C13.3693 56.4748 13.6016 56.5508 13.8092 56.6741C14.0006 56.7804 14.2253 56.81 14.4377 56.7568C14.6501 56.7036 14.8343 56.5717 14.953 56.3877C15.096 56.161 15.2909 55.9715 15.5216 55.835C15.7523 55.6985 16.0122 55.6189 16.2797 55.6027C16.4391 55.589 16.5914 55.5312 16.7198 55.4358C16.8482 55.3405 16.9476 55.2114 17.0068 55.0628C17.0661 54.9143 17.0828 54.7522 17.0553 54.5947C17.0277 54.4371 16.9569 54.2904 16.8508 54.1708C16.6693 53.9771 16.5359 53.7435 16.4616 53.4887C16.3873 53.2339 16.374 52.9652 16.4229 52.7043C16.4867 52.3797 16.6423 52.0803 16.8715 51.8417C17.1006 51.6031 17.3934 51.4354 17.7151 51.3586C18.1327 51.2546 18.5744 51.3203 18.9435 51.5415C19.1349 51.6478 19.3596 51.6774 19.572 51.6242C19.7844 51.5711 19.9686 51.4391 20.0873 51.2551C20.2864 50.9447 20.5805 50.7068 20.9257 50.5771C21.2709 50.4473 21.6488 50.4325 22.0031 50.5349C22.3574 50.6373 22.6692 50.8514 22.8919 51.1453C23.1147 51.4392 23.2366 51.7972 23.2394 52.166C23.2659 52.3743 23.3674 52.5657 23.5249 52.7045C23.6824 52.8432 23.8852 52.9198 24.0951 52.9198C24.305 52.9198 24.5077 52.8432 24.6652 52.7045C24.8228 52.5657 24.9243 52.3743 24.9508 52.166C24.9471 51.7619 25.0869 51.3697 25.3454 51.059C25.6039 50.7484 25.9643 50.5396 26.3623 50.4698C26.7603 50.4 27.1702 50.4738 27.519 50.6779C27.8677 50.8821 28.1327 51.2034 28.2667 51.5846C28.3178 51.7216 28.4029 51.8433 28.5139 51.9384C28.625 52.0334 28.7584 52.0987 28.9016 52.1281C29.0451 52.1578 29.1938 52.1498 29.3332 52.1047C29.4727 52.0597 29.598 51.9791 29.6969 51.871C29.873 51.6797 30.0904 51.531 30.3325 51.4362C30.5746 51.3415 30.8352 51.3031 31.0944 51.3241C31.4091 51.3645 31.7074 51.4879 31.9588 51.6816C32.2101 51.8754 32.4054 52.1325 32.5246 52.4265C32.6085 52.6117 32.6537 52.812 32.6572 53.0153C32.6608 53.2185 32.6227 53.4204 32.5453 53.6083C32.5001 53.7375 32.4863 53.8756 32.5051 54.0112C32.5238 54.1468 32.5746 54.276 32.6531 54.3881C32.7317 54.5002 32.8358 54.592 32.9568 54.6559C33.0779 54.7198 33.2124 54.754 33.3492 54.7556C33.3872 54.7556 33.4735 54.7435 33.5114 54.7401C33.9653 54.7401 34.4006 54.9204 34.7216 55.2414C35.0425 55.5623 35.2229 55.9976 35.2229 56.4515C35.2229 56.6803 35.3137 56.8997 35.4755 57.0615C35.6373 57.2233 35.8567 57.3141 36.0855 57.3141C36.5352 57.3141 36.9669 57.4911 37.2872 57.8068C37.6075 58.1226 37.7906 58.5517 37.7969 59.0014C37.7969 59.0221 37.7848 59.1136 37.7831 59.1343C37.7752 59.2758 37.8023 59.4172 37.862 59.5458C37.9217 59.6744 38.0122 59.7863 38.1255 59.8716C38.2388 59.9568 38.3713 60.0129 38.5114 60.0348C38.6515 60.0566 38.7948 60.0436 38.9287 59.9969C39.1139 59.9261 39.3101 59.8888 39.5083 59.8865C39.9581 59.8864 40.3898 60.0634 40.7101 60.3792C41.0303 60.6949 41.2134 61.1241 41.2198 61.5738C41.2198 61.5945 41.2077 61.6859 41.206 61.7066C41.1981 61.8482 41.2252 61.9895 41.2849 62.1181C41.3446 62.2467 41.4351 62.3586 41.5484 62.4439C41.6616 62.5292 41.7942 62.5852 41.9343 62.6071C42.0744 62.629 42.2177 62.6159 42.3515 62.5692C42.5768 62.4787 42.8202 62.4429 43.062 62.4648C43.3037 62.4867 43.5368 62.5656 43.7421 62.6952C43.9694 62.8182 44.1664 62.9905 44.3186 63.1995C44.4709 63.4084 44.5745 63.6487 44.622 63.9028C44.6782 64.2724 44.6109 64.6502 44.4305 64.9777L44.4097 64.9656C44.2328 64.8428 44.0478 64.7321 43.8559 64.6343L43.7162 64.567C43.5332 64.4791 43.3448 64.403 43.1521 64.3393L43.102 64.3221C42.8934 64.2582 42.6807 64.2086 42.4654 64.1737L42.3101 64.1495C42.0907 64.1174 41.8694 64.1001 41.6476 64.0978C40.851 64.0986 40.067 64.2964 39.3654 64.6735C38.6637 65.0507 38.0662 65.5955 37.6261 66.2595L37.6158 66.2768L37.6071 66.2595C37.1667 65.5945 36.5685 65.0489 35.8659 64.6714C35.1632 64.2938 34.3781 64.0962 33.5804 64.0961H33.4562C32.6687 64.0979 31.8937 64.2922 31.1985 64.662C30.5033 65.0319 29.909 65.5661 29.4675 66.2181C29.0259 65.5661 28.4317 65.0319 27.7365 64.662C27.0413 64.2922 26.2662 64.0979 25.4787 64.0961H25.2078C24.4215 64.0965 23.6471 64.289 22.952 64.6567C22.2568 65.0244 21.662 65.5562 21.2191 66.206C20.7764 65.5565 20.1818 65.0248 19.487 64.6571C18.7922 64.2894 18.0182 64.0968 17.2321 64.0961H17.0906C16.2942 64.0967 15.5102 64.2942 14.8086 64.6711C14.107 65.0479 13.5094 65.5924 13.0691 66.2561C12.5458 65.4655 11.8005 64.8472 10.9269 64.4789C10.0534 64.1105 9.0904 64.0085 8.15905 64.1858C8.07278 64.1996 7.98652 64.222 7.91234 64.241C7.70922 64.2853 7.50924 64.343 7.31368 64.4135C7.23432 64.4428 7.15323 64.4722 7.0756 64.5067C6.83576 64.6111 6.60495 64.7352 6.3855 64.8776L6.33202 64.9086C6.17687 64.5952 6.12263 64.2414 6.17675 63.8959C6.22489 63.6414 6.32936 63.4008 6.4825 63.1919C6.63563 62.9829 6.83356 62.8108 7.06179 62.6883L7.03937 62.6641ZM36.6652 69.3925L35.5437 76.9042H29.9195L30.3266 68.7525C30.3571 68.1918 30.5402 67.6501 30.8563 67.186C31.1391 66.7574 31.5232 66.4053 31.9746 66.1606C32.426 65.9159 32.9307 65.7864 33.4441 65.7833H33.5684C34.0197 65.7843 34.4655 65.8827 34.8753 66.0719C35.2851 66.2611 35.6493 66.5365 35.9428 66.8793C36.2364 67.2222 36.4524 67.6244 36.5762 68.0584C36.7 68.4925 36.7285 68.9481 36.66 69.3943L36.6652 69.3925ZM22.0714 68.9543C22.0654 68.5438 22.1404 68.1361 22.2921 67.7545C22.4437 67.373 22.669 67.025 22.9552 66.7306C23.2413 66.4361 23.5826 66.2009 23.9597 66.0384C24.3367 65.8759 24.7421 65.7892 25.1526 65.7833H25.4701C25.8938 65.7862 26.3125 65.8744 26.7013 66.0429C27.0901 66.2113 27.4409 66.4564 27.7328 66.7636C28.0246 67.0707 28.2515 67.4336 28.3999 67.8305C28.5482 68.2274 28.615 68.6501 28.5962 69.0734L28.2029 76.9042H22.4923L22.0731 69.0009L22.0714 68.9543ZM14.4803 67.1842C14.765 66.7541 15.1517 66.401 15.6059 66.1566C16.0602 65.9122 16.5679 65.7839 17.0837 65.7833H17.2252C18.0434 65.7885 18.8274 66.1119 19.4113 66.6851C19.9951 67.2583 20.3329 68.0363 20.353 68.8543V68.9474V68.9802L20.7705 76.9008H15.1601L13.9627 69.0216C13.9359 68.3687 14.1172 67.7241 14.4803 67.1808V67.1842ZM13.2209 98.2937L5.95764 69.6134C5.86901 69.1997 5.86477 68.7723 5.94517 68.3569C6.02557 67.9415 6.18896 67.5466 6.42555 67.1959C6.66214 66.8451 6.96708 66.5457 7.3221 66.3155C7.67712 66.0853 8.07493 65.9292 8.49172 65.8564C8.90851 65.7836 9.33571 65.7956 9.74774 65.8917C10.1598 65.9879 10.5482 66.1662 10.8897 66.416C11.2312 66.6657 11.5188 66.9819 11.7353 67.3454C11.9517 67.7089 12.0926 68.1124 12.1495 68.5316L12.2496 69.1872C12.2496 69.2994 12.2617 69.4115 12.2789 69.5461L13.4072 76.9025V88.8791H15.2463L15.4292 90.0764L16.6886 98.2903H13.2174L13.2209 98.2937ZM18.4225 98.2937L17.5461 92.5435L16.9854 88.8791H21.4192L21.9213 98.2903L18.4225 98.2937ZM27.1401 98.2937H23.6293L23.1289 88.8826H27.6146L27.1401 98.2937ZM32.3503 98.2937H28.8516L29.3208 88.8826H33.7547L32.3503 98.2937ZM29.4174 87.1711H15.1187V78.6122H35.649V87.1677L29.4174 87.1711ZM44.6685 69.6996L37.5485 98.2886H34.079L35.4868 88.8774H37.3639V76.9008L38.5457 68.4316C38.6096 68.0256 38.7528 67.6361 38.9672 67.2855C39.1816 66.9349 39.4629 66.6299 39.7952 66.388C40.1275 66.1461 40.5041 65.972 40.9037 65.8756C41.3032 65.7793 41.7178 65.7626 42.1238 65.8265C42.5298 65.8904 42.9192 66.0336 43.2699 66.248C43.6205 66.4624 43.9255 66.7437 44.1674 67.076C44.4093 67.4083 44.5834 67.7849 44.6798 68.1845C44.7761 68.584 44.7928 68.9986 44.7289 69.4046C44.714 69.5012 44.6944 69.5967 44.6703 69.691L44.6685 69.6996Z" fill="black"/>
</g>
<defs>
<clipPath id="clip0">
<rect x="4.16687" width="91.605" height="100" fill="white"/>
</clipPath>
</defs>
</svg>
