<svg width="100" height="100" viewBox="0 0 100 100" fill="none" xmlns="http://www.w3.org/2000/svg">
<g clip-path="url(#clip0)">
<path d="M98.6814 48.7762H22.1432V88.3649H98.6814V48.7762Z" fill="#FFAA7A"/>
<path d="M60.4113 38.2176L55.133 40.8567H24.7823C24.0824 40.8567 23.4111 41.1348 22.9162 41.6297C22.4212 42.1246 22.1432 42.7959 22.1432 43.4958V48.774H98.6877V40.8588C98.688 40.5114 98.6197 40.1673 98.4867 39.8463C98.3536 39.5253 98.1585 39.2337 97.9125 38.9883C97.6666 38.7429 97.3745 38.5485 97.0532 38.4163C96.7319 38.284 96.3877 38.2165 96.0402 38.2176H60.4113Z" fill="white"/>
<path d="M60.6741 82.2328C68.2731 82.2328 74.4332 76.0727 74.4332 68.4738C74.4332 60.8748 68.2731 54.7147 60.6741 54.7147C53.0752 54.7147 46.915 60.8748 46.915 68.4738C46.915 76.0727 53.0752 82.2328 60.6741 82.2328Z" fill="#FCB641"/>
<path d="M60.6741 75.9642C64.811 75.9642 68.1646 72.6106 68.1646 68.4738C68.1646 64.3369 64.811 60.9833 60.6741 60.9833C56.5373 60.9833 53.1837 64.3369 53.1837 68.4738C53.1837 72.6106 56.5373 75.9642 60.6741 75.9642Z" fill="white"/>
<path d="M60.6721 65.7653C61.3771 65.7849 62.0467 66.0788 62.5384 66.5844C63.0301 67.09 63.3052 67.7674 63.3052 68.4727C63.3052 69.178 63.0301 69.8554 62.5384 70.361C62.0467 70.8666 61.3771 71.1605 60.6721 71.1801" fill="white"/>
<path d="M96.0402 93.6431H24.7823C24.4354 93.6431 24.0918 93.5747 23.7714 93.4418C23.4509 93.3089 23.1598 93.1141 22.9147 92.8686C22.6696 92.6231 22.4753 92.3317 22.3429 92.011C22.2105 91.6903 22.1426 91.3467 22.1432 90.9998V88.3649H98.6878V90.9998C98.6883 91.3474 98.6202 91.6917 98.4873 92.0129C98.3544 92.3342 98.1593 92.626 97.9133 92.8716C97.6673 93.1172 97.3752 93.3118 97.0537 93.4442C96.7323 93.5766 96.3879 93.6442 96.0402 93.6431Z" fill="white"/>
<path d="M90.7621 68.5705H82.8532C82.1533 68.5705 81.482 68.2925 80.9871 67.7975C80.4922 67.3026 80.2141 66.6313 80.2141 65.9314C80.2141 65.2315 80.4922 64.5602 80.9871 64.0653C81.482 63.5703 82.1533 63.2923 82.8532 63.2923H90.7705C91.4704 63.2923 92.1417 63.5703 92.6366 64.0653C93.1316 64.5602 93.4096 65.2315 93.4096 65.9314C93.4096 66.2787 93.3411 66.6226 93.2079 66.9433C93.0748 67.264 92.8796 67.5553 92.6337 67.8005C92.3877 68.0457 92.0958 68.2399 91.7746 68.372C91.4535 68.5042 91.1094 68.5716 90.7621 68.5705Z" fill="white"/>
<path d="M82.4305 68.5705C83.888 68.5705 85.0696 67.3889 85.0696 65.9314C85.0696 64.4739 83.888 63.2923 82.4305 63.2923C80.9729 63.2923 79.7914 64.4739 79.7914 65.9314C79.7914 67.3889 80.9729 68.5705 82.4305 68.5705Z" fill="#E66032"/>
<path d="M96.0402 36.8991H84.1632V35.5785C84.1703 35.4008 84.1414 35.2235 84.0783 35.0572C84.0152 34.8909 83.9191 34.7391 83.7959 34.6108C83.6726 34.4826 83.5248 34.3805 83.3611 34.3108C83.1975 34.2411 83.0215 34.2052 82.8436 34.2052C82.6658 34.2052 82.4897 34.2411 82.3261 34.3108C82.1625 34.3805 82.0146 34.4826 81.8914 34.6108C81.7681 34.7391 81.6721 34.8909 81.609 35.0572C81.5459 35.2235 81.517 35.4008 81.5241 35.5785V36.8991H70.9677V35.5785C70.9748 35.4008 70.9459 35.2235 70.8828 35.0572C70.8196 34.8909 70.7236 34.7391 70.6004 34.6108C70.4771 34.4826 70.3293 34.3805 70.1656 34.3108C70.002 34.2411 69.826 34.2052 69.6481 34.2052C69.4702 34.2052 69.2942 34.2411 69.1306 34.3108C68.9669 34.3805 68.8191 34.4826 68.6959 34.6108C68.5726 34.7391 68.4766 34.8909 68.4134 35.0572C68.3503 35.2235 68.3215 35.4008 68.3285 35.5785V36.8991H60.4112C60.2062 36.8989 60.0039 36.9464 59.8203 37.0379L54.8218 39.5382H51.1733V38.2176C51.1736 38.0441 51.1396 37.8722 51.0734 37.7119C51.0071 37.5515 50.9098 37.4059 50.7871 37.2832C50.6645 37.1605 50.5188 37.0632 50.3584 36.997C50.1981 36.9307 50.0262 36.8967 49.8527 36.897H45.8951C45.5458 36.8981 45.2112 37.0378 44.9648 37.2854C44.7183 37.533 44.5803 37.8683 44.5808 38.2176V39.5382H39.3026V38.2176C39.3029 38.0441 39.2689 37.8722 39.2026 37.7119C39.1364 37.5515 39.0391 37.4059 38.9164 37.2832C38.7937 37.1605 38.6481 37.0632 38.4877 36.997C38.3274 36.9307 38.1555 36.8967 37.982 36.897H28.7399C28.5666 36.897 28.3949 36.9312 28.2348 36.9976C28.0747 37.0639 27.9293 37.1613 27.8068 37.2839C27.6844 37.4066 27.5873 37.5522 27.5211 37.7124C27.455 37.8726 27.4211 38.0443 27.4214 38.2176V39.5382H24.7823C23.7317 39.5382 22.7241 39.9552 21.9808 40.6977C21.2376 41.4402 20.8195 42.4473 20.8184 43.4979V90.9997C20.8195 92.0495 21.237 93.056 21.9794 93.7984C22.7217 94.5407 23.7282 94.9583 24.7781 94.9594H96.0402C97.09 94.9583 98.0966 94.5407 98.8389 93.7984C99.5813 93.056 99.9988 92.0495 99.9999 90.9997V40.8588C99.9988 39.809 99.5813 38.8024 98.8389 38.0601C98.0966 37.3177 97.09 36.9002 96.0402 36.8991ZM23.4617 50.0967H97.3629V87.0442H23.4617V50.0967ZM23.4617 43.4979C23.4617 43.1477 23.6008 42.8118 23.8485 42.5641C24.0961 42.3164 24.432 42.1773 24.7823 42.1773H55.133C55.3381 42.1775 55.5404 42.13 55.7239 42.0385L60.7246 39.5382H96.0528C96.4031 39.5382 96.739 39.6773 96.9866 39.925C97.2343 40.1727 97.3734 40.5086 97.3734 40.8588V47.4576H23.4617V43.4979ZM97.3629 90.9997C97.3629 91.3499 97.2238 91.6858 96.9761 91.9335C96.7285 92.1812 96.3925 92.3203 96.0423 92.3203H24.7823C24.432 92.3203 24.0961 92.1812 23.8485 91.9335C23.6008 91.6858 23.4617 91.3499 23.4617 90.9997V89.6791H97.3629V90.9997Z" fill="#4D4D4D"/>
<path d="M60.672 53.394C57.6895 53.394 54.774 54.2785 52.2942 55.9354C49.8143 57.5924 47.8815 59.9475 46.7402 62.703C45.5988 65.4584 45.3002 68.4905 45.882 71.4156C46.4639 74.3408 47.9001 77.0278 50.009 79.1367C52.118 81.2456 54.8049 82.6818 57.7301 83.2637C60.6553 83.8455 63.6873 83.5469 66.4427 82.4056C69.1982 81.2642 71.5533 79.3314 73.2103 76.8516C74.8673 74.3717 75.7517 71.4562 75.7517 68.4737C75.7472 64.4757 74.1571 60.6427 71.33 57.8157C68.503 54.9887 64.67 53.3985 60.672 53.394ZM60.672 80.9122C58.2114 80.9122 55.806 80.1826 53.7601 78.8155C51.7143 77.4484 50.1197 75.5053 49.1782 73.232C48.2366 70.9586 47.9904 68.4571 48.4706 66.0438C48.9508 63.6305 50.1358 61.4138 51.8759 59.6741C53.616 57.9343 55.8329 56.7496 58.2462 56.2698C60.6596 55.79 63.1611 56.0367 65.4343 56.9786C67.7074 57.9206 69.6503 59.5154 71.017 61.5615C72.3837 63.6077 73.113 66.0131 73.1126 68.4737C73.107 71.7707 71.7943 74.9309 69.4622 77.2614C67.1301 79.592 63.969 80.9026 60.672 80.9059V80.9122Z" fill="#4D4D4D"/>
<path d="M60.672 59.6669C58.9294 59.6669 57.226 60.1836 55.7771 61.1517C54.3282 62.1198 53.1988 63.4958 52.5319 65.1056C51.8649 66.7155 51.6903 68.487 52.0301 70.1961C52.3699 71.9053 53.2089 73.4752 54.4409 74.7076C55.673 75.9399 57.2427 76.7792 58.9518 77.1194C60.6608 77.4597 62.4323 77.2855 64.0424 76.6189C65.6524 75.9523 67.0287 74.8233 67.9971 73.3746C68.9655 71.926 69.4826 70.2226 69.483 68.4801C69.4781 66.1446 68.5482 63.9061 66.897 62.2545C65.2457 60.6029 63.0075 59.6725 60.672 59.6669ZM60.672 74.6499C59.4513 74.6499 58.258 74.2879 57.2431 73.6097C56.2281 72.9316 55.437 71.9676 54.9699 70.8399C54.5027 69.7121 54.3805 68.4711 54.6187 67.2739C54.8568 66.0766 55.4446 64.9769 56.3078 64.1138C57.171 63.2506 58.2707 62.6628 59.4679 62.4246C60.6652 62.1865 61.9061 62.3087 63.0339 62.7758C64.1617 63.243 65.1256 64.0341 65.8038 65.049C66.482 66.064 66.8439 67.2573 66.8439 68.478C66.8412 70.1136 66.1899 71.6814 65.0329 72.8376C63.8759 73.9938 62.3077 74.644 60.672 74.6457V74.6499Z" fill="#4D4D4D"/>
<path d="M60.672 64.4468C60.4943 64.4397 60.317 64.4686 60.1507 64.5317C59.9844 64.5948 59.8326 64.6909 59.7043 64.8141C59.5761 64.9373 59.474 65.0852 59.4043 65.2488C59.3346 65.4125 59.2987 65.5885 59.2987 65.7663C59.2987 65.9442 59.3346 66.1202 59.4043 66.2839C59.474 66.4475 59.5761 66.5954 59.7043 66.7186C59.8326 66.8418 59.9844 66.9379 60.1507 67.001C60.317 67.0641 60.4943 67.093 60.672 67.0859C61.0404 67.0859 61.3937 67.2322 61.6541 67.4927C61.9146 67.7532 62.0609 68.1065 62.0609 68.4748C62.0609 68.8432 61.9146 69.1965 61.6541 69.457C61.3937 69.7175 61.0404 69.8638 60.672 69.8638C60.3311 69.8774 60.0088 70.0224 59.7724 70.2683C59.5361 70.5143 59.4041 70.8422 59.4041 71.1833C59.4041 71.5245 59.5361 71.8524 59.7724 72.0983C60.0088 72.3443 60.3311 72.4893 60.672 72.5029C61.7244 72.4788 62.7255 72.0439 63.4613 71.2911C64.1971 70.5383 64.6091 69.5275 64.6091 68.4748C64.6091 67.4222 64.1971 66.4113 63.4613 65.6586C62.7255 64.9058 61.7244 64.4708 60.672 64.4468Z" fill="#4D4D4D"/>
<path d="M76.246 81.7534C76.9742 81.7534 77.5645 81.1631 77.5645 80.4349C77.5645 79.7067 76.9742 79.1164 76.246 79.1164C75.5178 79.1164 74.9275 79.7067 74.9275 80.4349C74.9275 81.1631 75.5178 81.7534 76.246 81.7534Z" fill="#4D4D4D"/>
<path d="M40.6169 79.1269H31.379C31.2013 79.1198 31.024 79.1487 30.8577 79.2118C30.6914 79.2749 30.5396 79.371 30.4113 79.4942C30.2831 79.6174 30.1811 79.7653 30.1114 79.9289C30.0417 80.0926 30.0057 80.2686 30.0057 80.4465C30.0057 80.6243 30.0417 80.8003 30.1114 80.964C30.1811 81.1276 30.2831 81.2755 30.4113 81.3987C30.5396 81.5219 30.6914 81.618 30.8577 81.6811C31.024 81.7442 31.2013 81.7731 31.379 81.766H40.6169C40.9578 81.7524 41.2802 81.6074 41.5165 81.3614C41.7529 81.1155 41.8849 80.7876 41.8849 80.4465C41.8849 80.1053 41.7529 79.7774 41.5165 79.5315C41.2802 79.2855 40.9578 79.1405 40.6169 79.1269Z" fill="#4D4D4D"/>
<path d="M97.3804 67.5011H89.4715C89.4 67.5011 89.3348 67.5179 89.2612 67.5221C89.1876 67.5263 89.1246 67.5011 89.051 67.5011C88.5234 67.489 87.9988 67.5824 87.5078 67.7758C87.0169 67.9693 86.5696 68.259 86.1922 68.6278C85.8148 68.9966 85.5149 69.4371 85.3102 69.9234C85.1055 70.4097 85 70.9321 85 71.4598C85 71.9874 85.1055 72.5098 85.3102 72.9961C85.5149 73.4825 85.8148 73.923 86.1922 74.2918C86.5696 74.6606 87.0169 74.9502 87.5078 75.1437C87.9988 75.3372 88.5234 75.4306 89.051 75.4184C89.1225 75.4184 89.1876 75.4016 89.2612 75.3974C89.3348 75.3932 89.3958 75.4184 89.4715 75.4184H97.3889C97.9164 75.4306 98.441 75.3372 98.932 75.1437C99.4229 74.9502 99.8702 74.6606 100.248 74.2918C100.625 73.923 100.925 73.4825 101.13 72.9961C101.334 72.5098 101.44 71.9874 101.44 71.4598C101.44 70.9321 101.334 70.4097 101.13 69.9234C100.925 69.4371 100.625 68.9966 100.248 68.6278C99.8702 68.259 99.4229 67.9693 98.932 67.7758C98.441 67.5824 97.9164 67.489 97.3889 67.5011H97.3804ZM89.2612 72.7289C89.0012 72.7644 88.7365 72.7197 88.5026 72.6008C88.2686 72.4819 88.0766 72.2944 87.952 72.0633C87.8275 71.8323 87.7764 71.5688 87.8057 71.308C87.8349 71.0472 87.9431 70.8015 88.1157 70.6038C88.2883 70.4061 88.5172 70.2658 88.7716 70.2017C89.0261 70.1376 89.2941 70.1526 89.5398 70.2449C89.7855 70.3371 89.9972 70.5022 90.1466 70.7179C90.296 70.9337 90.3759 71.19 90.3758 71.4524C90.3725 71.7631 90.2585 72.0624 90.0542 72.2964C89.8498 72.5304 89.5686 72.6838 89.2612 72.7289ZM97.3846 72.7709H92.7667C93.0904 71.921 93.0904 70.9817 92.7667 70.1318H97.3804C97.7213 70.1454 98.0437 70.2904 98.28 70.5364C98.5164 70.7823 98.6484 71.1102 98.6484 71.4514C98.6484 71.7925 98.5164 72.1204 98.28 72.3663C98.0437 72.6123 97.7213 72.7573 97.3804 72.7709H97.3846Z" fill="#4D4D4D"/>
<path d="M56.111 12.0243C57.2767 12.1743 58.3371 12.7754 59.0644 13.6986C59.7918 14.6218 60.1282 15.7934 60.0013 16.9618L56.5673 47.4114C56.4398 48.5748 55.8557 49.64 54.9433 50.373C54.0309 51.106 52.8648 51.4469 51.7013 51.3206L51.5562 51.3017H51.3312V23.3945C51.3312 22.2038 50.8582 21.0618 50.0162 20.2198C49.1742 19.3779 48.0323 18.9049 46.8415 18.9049H9.42932L10.3272 11.4228C10.4385 10.2573 11.0081 9.18372 11.9107 8.43803C12.8134 7.69235 13.9752 7.33563 15.1407 7.4463L15.269 7.46102L56.111 12.0243Z" fill="#00ACEA"/>
<path d="M51.3227 51.2996V53.9891C51.3227 55.1799 50.8496 56.3218 50.0077 57.1638C49.1657 58.0058 48.0238 58.4788 46.833 58.4788H5.76182C4.57146 58.4782 3.43005 58.005 2.58853 57.1631C1.74702 56.3211 1.27429 55.1795 1.27429 53.9891V47.71L13.6182 38.7328C14.5673 38.0104 15.7402 37.6445 16.9318 37.699C18.1234 37.7536 19.2579 38.2252 20.1371 39.0314L28.3551 46.2085C29.1959 46.9222 30.238 47.3564 31.3368 47.451C32.4356 47.5456 33.5366 47.2958 34.4871 46.7363L51.31 36.8528L51.3227 51.2996Z" fill="#00CEB4"/>
<path d="M51.3227 23.3945V36.8529L34.4997 46.7364C33.5479 47.2988 32.4444 47.5502 31.3429 47.4555C30.2415 47.3609 29.197 46.925 28.3551 46.2086L20.1265 39.0315C19.2474 38.2253 18.1129 37.7537 16.9213 37.6991C15.7297 37.6445 14.5568 38.0104 13.6076 38.7329L1.27429 47.71V23.3945C1.27485 22.2045 1.74782 21.0634 2.58927 20.222C3.43073 19.3805 4.57183 18.9075 5.76182 18.907H46.8351C48.0251 18.9075 49.1662 19.3805 50.0077 20.222C50.8491 21.0634 51.3221 22.2045 51.3227 23.3945ZM35.9864 31.1751C35.9864 29.9052 35.4819 28.6873 34.584 27.7893C33.686 26.8914 32.4681 26.3869 31.1982 26.3869C29.9282 26.3869 28.7103 26.8914 27.8124 27.7893C26.9144 28.6873 26.4099 29.9052 26.4099 31.1751C26.4099 32.4451 26.9144 33.663 27.8124 34.5609C28.7103 35.4589 29.9282 35.9634 31.1982 35.9634C32.4681 35.9634 33.686 35.4589 34.584 34.5609C35.4819 33.663 35.9864 32.4451 35.9864 31.1751Z" fill="#00EFD1"/>
<path d="M31.1982 35.9634C33.8426 35.9634 35.9864 33.8196 35.9864 31.1751C35.9864 28.5307 33.8426 26.3869 31.1982 26.3869C28.5537 26.3869 26.4099 28.5307 26.4099 31.1751C26.4099 33.8196 28.5537 35.9634 31.1982 35.9634Z" fill="#D4E1F4"/>
<path d="M31.1982 37.4606C29.9554 37.4606 28.7406 37.0921 27.7073 36.4017C26.674 35.7113 25.8687 34.7299 25.3931 33.5818C24.9175 32.4337 24.7931 31.1703 25.0355 29.9514C25.278 28.7326 25.8764 27.613 26.7552 26.7342C27.6339 25.8555 28.7535 25.257 29.9724 25.0146C31.1912 24.7722 32.4546 24.8966 33.6027 25.3722C34.7509 25.8477 35.7322 26.6531 36.4226 27.6864C37.113 28.7197 37.4816 29.9345 37.4816 31.1772C37.4816 32.8437 36.8196 34.4419 35.6412 35.6203C34.4628 36.7986 32.8646 37.4606 31.1982 37.4606ZM31.1982 27.8841C30.5472 27.8837 29.9107 28.0764 29.3692 28.4378C28.8277 28.7991 28.4056 29.313 28.1562 29.9143C27.9068 30.5156 27.8413 31.1774 27.9681 31.8159C28.0948 32.4544 28.4081 33.041 28.8682 33.5015C29.3284 33.9619 29.9148 34.2756 30.5533 34.4027C31.1917 34.5299 31.8535 34.4649 32.455 34.2158C33.0565 33.9668 33.5706 33.545 33.9323 33.0037C34.294 32.4625 34.4871 31.8261 34.4871 31.1751C34.4871 30.3023 34.1403 29.4652 33.5232 28.8481C32.906 28.2309 32.0689 27.8841 31.1961 27.8841H31.1982Z" fill="#083863"/>
<path d="M60.2254 12.7726C59.251 11.5309 57.8255 10.7245 56.2594 10.5288L15.4132 5.88985C14.6298 5.77674 13.8313 5.83069 13.0701 6.04814C12.309 6.2656 11.6026 6.64165 10.9972 7.15158C10.3917 7.62158 9.88758 8.20931 9.51534 8.87936C9.14309 9.54941 8.91036 10.2879 8.83119 11.0503L8.08047 17.1886H5.76731C2.47001 17.1886 -0.000869151 20.1032 -0.000869151 23.3942V53.9889C-0.0215746 54.7354 0.105207 55.4787 0.372214 56.1762C0.639221 56.8736 1.04121 57.5116 1.55515 58.0535C2.06909 58.5953 2.68488 59.0305 3.36726 59.334C4.04964 59.6375 4.78519 59.8034 5.53179 59.8222H46.8343C50.1253 59.8222 53.1177 57.2778 53.1177 53.9868V52.7902C54.1382 52.5932 55.1065 52.1857 55.9608 51.5937C57.1731 50.5733 57.9494 49.1282 58.1309 47.5541L61.5712 17.1886C61.6546 16.3999 61.5785 15.6024 61.3472 14.8438C61.116 14.0851 60.7345 13.3807 60.2254 12.7726ZM5.761 20.1789H46.8343C47.6832 20.2145 48.489 20.5628 49.0965 21.1567C49.7041 21.7507 50.0705 22.5484 50.1253 23.3963V35.9651L33.8154 45.4659C33.132 45.8712 32.3392 46.053 31.5475 45.9859C30.7558 45.9187 30.0048 45.6061 29.3994 45.0916L21.1709 37.9103C20.0408 36.9025 18.5979 36.3151 17.0853 36.2469C15.5727 36.1787 14.0828 36.634 12.8666 37.536L2.98311 44.7173V23.3942C2.99362 21.7497 4.11656 20.1789 5.761 20.1789ZM46.8343 56.8361H5.761C5.40738 56.8465 5.05519 56.7871 4.72452 56.6614C4.39386 56.5356 4.0912 56.346 3.83383 56.1033C3.57646 55.8605 3.36942 55.5695 3.22454 55.2468C3.07965 54.924 2.99976 54.5759 2.98942 54.2223C2.98942 54.1466 2.98942 54.0688 2.98942 53.9931V48.4583L14.5847 39.9291C15.2593 39.4113 16.0959 39.1497 16.9454 39.1909C17.7949 39.2321 18.6022 39.5734 19.2236 40.1541L27.3785 47.3354C28.6173 48.3759 30.177 48.9574 31.7946 48.9819C33.059 48.9973 34.3027 48.6601 35.3863 48.0083L50.1253 39.479V53.9889C50.1253 55.6396 48.4809 56.8361 46.8343 56.8361ZM58.5788 16.8122L55.0628 47.1861C55.0658 47.5749 54.9795 47.9593 54.8107 48.3096C54.642 48.6599 54.3951 48.9669 54.0892 49.2069C53.7906 49.5055 53.1156 49.6548 53.1156 49.8062V23.3942C53.0576 21.7538 52.3749 20.1976 51.2072 19.0441C50.0396 17.8905 48.4752 17.2267 46.8343 17.1886H11.0729L11.7458 11.3531C11.8921 10.5974 12.2875 9.91256 12.8687 9.40796C13.5246 8.95415 14.3177 8.74229 15.1125 8.80864L55.8872 13.5191C56.2851 13.5495 56.6717 13.6656 57.0205 13.8594C57.3693 14.0532 57.6721 14.3202 57.908 14.642C58.1592 14.9405 58.348 15.2864 58.4632 15.6592C58.5784 16.0319 58.6178 16.424 58.5788 16.8122Z" fill="#083863"/>
</g>
<defs>
<clipPath id="clip0">
<rect y="5.83337" width="100" height="89.1302" fill="white"/>
</clipPath>
</defs>
</svg>
