<svg width="699" height="322" viewBox="0 0 699 322" fill="none" xmlns="http://www.w3.org/2000/svg">
<path d="M403.673 316.877C379.454 291.505 374.931 267.005 374.236 255.769V3.4725H363.115V0H334.558V3.4725H323.436V255.808C322.742 267.043 318.219 291.544 294 316.916H308.502C314.321 308.584 319.322 299.709 323.436 290.417V316.916H330.668V252.513H334.527V318.49H363.084V252.513H366.943V316.885H374.175V290.378C378.289 299.671 383.29 308.545 389.109 316.877H403.673ZM367.005 145.567H363.146V54.6109H367.005V145.567ZM330.668 54.6109H334.527V145.536H330.668V54.6109ZM367.005 9.08252V46.9714H363.146V9.09796L367.005 9.08252ZM334.589 9.08252V46.9714H330.73V9.09796L334.589 9.08252ZM330.73 244.858V153.176H334.589V244.873L330.73 244.858ZM363.146 244.858V153.176H367.005V244.873L363.146 244.858Z" fill="#777777"/>
<path d="M342.664 20.5262H336.374V22.3937H342.664V20.5262Z" fill="black"/>
<path d="M362.237 20.5262H355.947V22.3937H362.237V20.5262Z" fill="black"/>
<path d="M348.607 6.08079V12.3699H350.475V6.08079H348.607Z" fill="black"/>
<path d="M348.615 30.5503V36.8394H350.482V30.5503H348.615Z" fill="black"/>
<path d="M344.408 8.55786L349.193 21.3984L342.317 9.5456L344.408 8.55786Z" fill="black"/>
<path d="M348.56 21.6993L343.359 9.05164L349.818 21.1051L348.56 21.6993Z" fill="black"/>
<path d="M349.865 21.5758L347.557 27.6951L348.514 21.2208L349.865 21.5758Z" fill="black"/>
<path d="M358.47 282.585V205.788H385.244L423.649 261.641L430.634 309.354L361.967 307.023L358.47 282.585Z" fill="#51474C"/>
<path d="M373.605 297.717V230.219H473.7V302.37H374.771L373.605 297.717Z" fill="#D3D3D3"/>
<path d="M441.107 189.491L375.928 284.915V321.014H471.369V188.325L441.107 189.491ZM448.053 302.37H406.191L405.025 284.915L428.303 251.17H448.092L448.053 302.37Z" fill="#686365"/>
<path d="M444.603 144.109L420.16 181.35L420.971 185.771L445.761 153.415L444.603 144.109Z" fill="#A3A0A2"/>
<path d="M445.761 153.415L420.971 185.771L616.159 200.086L698.325 169.713L445.761 153.415Z" fill="#2B2A2A"/>
<path d="M611.266 299.577H629.774L654.217 171.804L642.694 170.407L611.266 299.577Z" fill="#51474C"/>
<path d="M642.694 170.407L637.453 172.506L608.472 300.271L611.266 299.577L642.694 170.407Z" fill="#A3A0A2"/>
<path d="M566.223 166.564H570.762L632.567 201.829V205.317L566.223 166.564Z" fill="#51474C"/>
<path d="M629.774 299.577H611.266V308.999H629.774V299.577Z" fill="#2D2E29"/>
<path d="M605.331 299.924H611.266V308.999H605.678L605.331 299.924Z" fill="#51474C"/>
<path d="M593.461 192.4H584.384L557.842 298.874H572.514L593.461 192.4Z" fill="#51474C"/>
<path d="M584.384 192.4H580.888L555.056 298.18L557.842 298.874L584.384 192.4Z" fill="#A3A0A2"/>
<path d="M529.91 191.373L575.3 219.3V222.093L523.975 191.026C523.975 191.026 530.96 191.373 529.91 191.373Z" fill="#51474C"/>
<path d="M655.961 159.234L679.007 48.5687H673.072L647.232 158.539L655.961 159.234Z" fill="#51474C"/>
<path d="M673.072 48.5687H668.881L642.346 158.539H647.232L673.072 48.5687Z" fill="#A3A0A2"/>
<path d="M613.365 96.0494L601.495 155.398L595.205 155.051L609.521 96.0494H613.365Z" fill="#51474C"/>
<path d="M609.521 96.0495L607.43 95.355L593.46 154.696L595.205 155.051L609.521 96.0495Z" fill="#A3A0A2"/>
<path d="M573.556 153.299L655.961 109.314V112.455L577.052 154.696L573.556 153.299Z" fill="#51474C"/>
<path d="M626.632 157.49L592.758 145.621L597.304 143.53L629.071 156.795L626.632 157.49Z" fill="#A3A0A2"/>
<path d="M621.739 157.49L654.217 123.282V120.141L618.598 158.539L621.739 157.49Z" fill="#51474C"/>
<path d="M602.884 144.225L652.82 115.604L651.77 118.042L603.239 146.324L602.884 144.225Z" fill="#51474C"/>
<path d="M445.761 153.415L444.603 144.109L698.325 160.399V169.713L445.761 153.415Z" fill="#51474C"/>
<path d="M590.149 299.646H522.408V300.341H590.149V299.646Z" fill="white"/>
<path d="M590.149 297.763H522.408V298.458H590.149V297.763Z" fill="white"/>
<path d="M590.149 295.873H522.408V296.567H590.149V295.873Z" fill="white"/>
<path d="M590.149 293.99H522.408V294.684H590.149V293.99Z" fill="white"/>
<path d="M590.149 292.107H522.408V292.801H590.149V292.107Z" fill="white"/>
<path d="M590.149 290.224H522.408V290.919H590.149V290.224Z" fill="white"/>
<path d="M590.149 288.333H522.408V289.028H590.149V288.333Z" fill="white"/>
<path d="M590.149 286.451H522.408V287.145H590.149V286.451Z" fill="white"/>
<path d="M590.149 284.568H522.408V285.262H590.149V284.568Z" fill="white"/>
<path d="M590.149 282.677H522.408V283.372H590.149V282.677Z" fill="white"/>
<path d="M590.149 280.794H522.408V281.489H590.149V280.794Z" fill="white"/>
<path d="M590.149 278.911H522.408V279.606H590.149V278.911Z" fill="white"/>
<path d="M590.149 277.021H522.408V277.715H590.149V277.021Z" fill="white"/>
<path d="M590.149 275.138H522.408V275.832H590.149V275.138Z" fill="white"/>
<path d="M594.51 283.341V281.419H591.971V272.815H520.718V302.841H591.971V294.692H594.533V292.77H591.971V283.341H594.51ZM547.839 300.734H522.81V274.906H547.832L547.839 300.734ZM573.849 300.734H549.923V274.906H573.849V300.734ZM577.978 300.734H575.941V274.906H577.978V300.734ZM589.848 300.734H582.13C582.069 296.637 581.829 280.161 581.999 274.899H589.825L589.848 300.734Z" fill="black"/>
<path d="M617.201 233.599H596.949V309.354H673.782L617.201 233.599ZM611.96 272.352H622.071L645.464 298.882H613.01L611.96 272.352Z" fill="#51474C"/>
<path d="M596.949 233.599H593.113V309.701L596.949 309.354V233.599Z" fill="#A3A0A2"/>
<path d="M339.854 282.585V205.788H313.081L274.676 261.641L267.691 309.354L336.358 307.023L339.854 282.585Z" fill="#51474C"/>
<path d="M324.719 297.717V230.219H224.625V302.37H323.554L324.719 297.717Z" fill="#D3D3D3"/>
<path d="M226.956 188.325V321.014H322.396V284.915L257.218 189.491L226.956 188.325ZM250.233 251.162H270.022L293.284 284.915L292.119 302.37H250.233V251.162Z" fill="#686365"/>
<path d="M253.722 144.109L278.164 181.35L277.354 185.771L252.564 153.415L253.722 144.109Z" fill="#A3A0A2"/>
<path d="M252.564 153.415L277.354 185.771L82.1736 200.086L0 169.713L252.564 153.415Z" fill="#2B2A2A"/>
<path d="M87.0591 299.577H68.5513L44.1084 171.804L55.6314 170.407L87.0591 299.577Z" fill="#51474C"/>
<path d="M55.6312 170.407L60.8717 172.506L89.8528 300.271L87.0589 299.577L55.6312 170.407Z" fill="#A3A0A2"/>
<path d="M132.101 166.564H127.563L65.7574 201.829V205.317L132.101 166.564Z" fill="#51474C"/>
<path d="M87.0592 299.577H68.5514V308.999H87.0592V299.577Z" fill="#2D2E29"/>
<path d="M92.9942 299.924H87.0591V308.999H92.6469L92.9942 299.924Z" fill="#51474C"/>
<path d="M104.865 192.4H113.941L140.483 298.874H125.811L104.865 192.4Z" fill="#51474C"/>
<path d="M113.941 192.4H117.437L143.269 298.18L140.483 298.874L113.941 192.4Z" fill="#A3A0A2"/>
<path d="M168.415 191.374L123.025 219.285V222.078L174.35 191.011C174.35 191.011 167.365 191.374 168.415 191.374Z" fill="#51474C"/>
<path d="M42.3639 159.234L19.318 48.5687H25.2531L51.093 158.539L42.3639 159.234Z" fill="#51474C"/>
<path d="M25.2533 48.5687H29.4442L55.9787 158.539H51.0932L25.2533 48.5687Z" fill="#A3A0A2"/>
<path d="M84.9598 96.0494L96.8378 155.398L103.12 155.051L88.8034 96.0494H84.9598Z" fill="#51474C"/>
<path d="M88.8033 96.0495L90.9026 95.355L104.865 154.696L103.12 155.051L88.8033 96.0495Z" fill="#A3A0A2"/>
<path d="M124.769 153.299L42.3641 109.314V112.455L121.273 154.696L124.769 153.299Z" fill="#51474C"/>
<path d="M71.6927 157.49L105.567 145.621L101.021 143.53L69.2538 156.795L71.6927 157.49Z" fill="#A3A0A2"/>
<path d="M76.5858 157.49L44.1084 123.282V120.141L79.727 158.539L76.5858 157.49Z" fill="#51474C"/>
<path d="M95.4407 144.225L45.5052 115.604L46.5549 118.042L95.0857 146.324L95.4407 144.225Z" fill="#51474C"/>
<path d="M252.564 153.415L253.722 144.109L0 160.399V169.713L252.564 153.415Z" fill="#51474C"/>
<path d="M175.924 299.646H108.183V300.341H175.924V299.646Z" fill="white"/>
<path d="M175.924 297.763H108.183V298.458H175.924V297.763Z" fill="white"/>
<path d="M175.924 295.873H108.183V296.567H175.924V295.873Z" fill="white"/>
<path d="M175.924 293.99H108.183V294.684H175.924V293.99Z" fill="white"/>
<path d="M175.924 292.107H108.183V292.801H175.924V292.107Z" fill="white"/>
<path d="M175.924 290.224H108.183V290.919H175.924V290.224Z" fill="white"/>
<path d="M175.924 288.333H108.183V289.028H175.924V288.333Z" fill="white"/>
<path d="M175.924 286.451H108.183V287.145H175.924V286.451Z" fill="white"/>
<path d="M175.924 284.568H108.183V285.262H175.924V284.568Z" fill="white"/>
<path d="M175.924 282.677H108.183V283.372H175.924V282.677Z" fill="white"/>
<path d="M175.924 280.794H108.183V281.489H175.924V280.794Z" fill="white"/>
<path d="M175.924 278.911H108.183V279.606H175.924V278.911Z" fill="white"/>
<path d="M175.924 277.021H108.183V277.715H175.924V277.021Z" fill="white"/>
<path d="M175.924 275.138H108.183V275.832H175.924V275.138Z" fill="white"/>
<path d="M106.377 283.341V292.77H103.815V294.692H106.377V302.841H177.607V272.815H106.377V281.427H103.815V283.348L106.377 283.341ZM150.501 274.906H175.523V300.742H150.501V274.906ZM124.491 274.906H148.417V300.742H124.491V274.906ZM120.362 274.906H122.4V300.742H120.362V274.906ZM108.492 274.906H116.318C116.488 280.169 116.249 296.644 116.187 300.742H108.469L108.492 274.906Z" fill="black"/>
<path d="M24.5586 309.354H101.376V233.599H81.1238L24.5586 309.354ZM85.3147 298.882H52.8374L76.2306 272.352H86.3566L85.3147 298.882Z" fill="#51474C"/>
<path d="M101.376 233.599H105.212V309.701L101.376 309.354V233.599Z" fill="#A3A0A2"/>
<rect x="321.003" y="285.604" width="56.3163" height="35.3988" fill="#686365"/>
</svg>
