<svg width="414" height="81" viewBox="0 0 414 81" fill="none" xmlns="http://www.w3.org/2000/svg">
<rect x="22" y="1" width="369" height="80" fill="#EC2A44"/>
<path d="M154.301 66.108C152.159 66.108 150.429 65.5507 149.109 64.436C147.818 63.3507 147.173 61.9133 147.173 60.124C147.173 59.0093 147.437 57.9827 147.965 57.044C148.493 56.1053 149.211 55.372 150.121 54.844C151.03 54.2867 152.027 54.008 153.113 54.008C154.227 54.008 155.122 54.2867 155.797 54.844C156.501 55.4013 156.853 56.1347 156.853 57.044C156.853 57.748 156.691 58.3053 156.369 58.716C156.105 58.364 155.738 58.0853 155.269 57.88C154.829 57.6747 154.359 57.572 153.861 57.572C152.981 57.572 152.262 57.8653 151.705 58.452C151.147 59.0387 150.869 59.8013 150.869 60.74C150.869 61.6787 151.133 62.4413 151.661 63.028C152.218 63.6147 152.907 63.908 153.729 63.908C154.755 63.908 155.635 63.4533 156.369 62.544C157.102 61.6347 157.659 60.2853 158.041 58.496L160.241 48.772H160.065C159.273 49.8867 158.305 50.7373 157.161 51.324C156.046 51.9107 154.814 52.204 153.465 52.204C151.763 52.204 150.267 51.7493 148.977 50.84C147.686 49.9307 146.689 48.64 145.985 46.968C145.31 45.2667 144.973 43.3013 144.973 41.072C144.973 37.8453 145.677 34.912 147.085 32.272C148.493 29.6027 150.429 27.5053 152.893 25.98C155.357 24.4547 158.07 23.692 161.033 23.692C163.526 23.692 165.491 24.2347 166.929 25.32C168.395 26.4053 169.129 27.8867 169.129 29.764C169.129 31.0253 168.821 32.0373 168.205 32.8C167.589 33.5627 166.782 33.944 165.785 33.944C165.227 33.944 164.699 33.8267 164.201 33.592C163.731 33.3573 163.335 33.02 163.013 32.58C163.541 32.228 163.981 31.6707 164.333 30.908C164.714 30.116 164.905 29.324 164.905 28.532C164.905 27.652 164.641 26.9773 164.113 26.508C163.614 26.0093 162.895 25.76 161.957 25.76C160.255 25.76 158.613 26.5227 157.029 28.048C155.445 29.544 154.169 31.5093 153.201 33.944C152.233 36.3787 151.749 38.9307 151.749 41.6C151.749 43.8 152.101 45.4867 152.805 46.66C153.509 47.804 154.521 48.376 155.841 48.376C157.425 48.376 158.818 47.54 160.021 45.868C161.253 44.196 162.235 41.7613 162.969 38.564L168.161 38.608L164.949 53.392C164.01 57.7627 162.675 60.9747 160.945 63.028C159.243 65.0813 157.029 66.108 154.301 66.108ZM174.854 57.264C173.182 57.264 171.789 56.692 170.674 55.548C169.56 54.404 169.002 52.6147 169.002 50.18C169.002 48.0093 169.428 45.736 170.278 43.36C171.158 40.9547 172.449 38.9307 174.15 37.288C175.881 35.616 177.934 34.78 180.31 34.78C181.513 34.78 182.408 34.9853 182.994 35.396C183.581 35.8067 183.874 36.3493 183.874 37.024V37.332L184.358 35H190.694L187.526 49.96C187.409 50.4 187.35 50.8693 187.35 51.368C187.35 52.6293 187.952 53.26 189.154 53.26C189.976 53.26 190.68 52.8787 191.266 52.116C191.882 51.3533 192.366 50.356 192.718 49.124H194.566C193.481 52.292 192.132 54.448 190.518 55.592C188.934 56.7067 187.336 57.264 185.722 57.264C184.49 57.264 183.493 56.9267 182.73 56.252C181.997 55.548 181.557 54.536 181.41 53.216C180.56 54.4187 179.606 55.4013 178.55 56.164C177.524 56.8973 176.292 57.264 174.854 57.264ZM177.714 52.996C178.448 52.996 179.166 52.6587 179.87 51.984C180.604 51.28 181.102 50.3267 181.366 49.124L183.478 39.18C183.478 38.7987 183.332 38.432 183.038 38.08C182.745 37.6987 182.29 37.508 181.674 37.508C180.501 37.508 179.445 38.1973 178.506 39.576C177.568 40.9253 176.834 42.568 176.306 44.504C175.778 46.4107 175.514 48.0973 175.514 49.564C175.514 51.0307 175.72 51.9693 176.13 52.38C176.57 52.7907 177.098 52.996 177.714 52.996ZM197.09 57.264C195.682 57.264 194.538 56.824 193.658 55.944C192.808 55.064 192.382 53.744 192.382 51.984C192.382 51.2507 192.5 50.2973 192.734 49.124L197.442 27.08L203.954 26.2L198.894 49.96C198.777 50.4 198.718 50.8693 198.718 51.368C198.718 51.9547 198.85 52.38 199.114 52.644C199.408 52.8787 199.877 52.996 200.522 52.996C201.373 52.996 202.165 52.644 202.898 51.94C203.632 51.2067 204.16 50.268 204.482 49.124H206.33C205.245 52.292 203.852 54.448 202.15 55.592C200.449 56.7067 198.762 57.264 197.09 57.264ZM208.821 57.264C207.413 57.264 206.269 56.824 205.389 55.944C204.538 55.064 204.113 53.744 204.113 51.984C204.113 51.2507 204.23 50.2973 204.465 49.124L209.173 27.08L215.685 26.2L210.625 49.96C210.508 50.4 210.449 50.8693 210.449 51.368C210.449 51.9547 210.581 52.38 210.845 52.644C211.138 52.8787 211.608 52.996 212.253 52.996C213.104 52.996 213.896 52.644 214.629 51.94C215.362 51.2067 215.89 50.268 216.213 49.124H218.061C216.976 52.292 215.582 54.448 213.881 55.592C212.18 56.7067 210.493 57.264 208.821 57.264ZM222.487 57.264C220.317 57.264 218.63 56.7067 217.427 55.592C216.225 54.448 215.623 52.6733 215.623 50.268C215.623 48.244 216.019 46.0147 216.811 43.58C217.603 41.1453 218.894 39.048 220.683 37.288C222.473 35.4987 224.746 34.604 227.503 34.604C230.73 34.604 232.343 36.012 232.343 38.828C232.343 40.4707 231.874 41.9813 230.935 43.36C229.997 44.7387 228.75 45.8533 227.195 46.704C225.641 47.5253 223.983 47.9947 222.223 48.112C222.165 48.992 222.135 49.5787 222.135 49.872C222.135 51.3093 222.385 52.292 222.883 52.82C223.382 53.3187 224.189 53.568 225.303 53.568C226.887 53.568 228.237 53.2013 229.351 52.468C230.495 51.7347 231.742 50.62 233.091 49.124H234.587C231.331 54.5507 227.298 57.264 222.487 57.264ZM222.575 46C223.661 45.9413 224.687 45.56 225.655 44.856C226.653 44.152 227.445 43.2573 228.031 42.172C228.647 41.0867 228.955 39.9427 228.955 38.74C228.955 37.5373 228.589 36.936 227.855 36.936C226.799 36.936 225.758 37.86 224.731 39.708C223.734 41.556 223.015 43.6533 222.575 46ZM236.074 35H242.41L241.838 37.728C242.835 36.848 243.73 36.1733 244.522 35.704C245.343 35.2347 246.223 35 247.162 35C248.101 35 248.834 35.3227 249.362 35.968C249.919 36.6133 250.198 37.3907 250.198 38.3C250.198 39.1507 249.919 39.8987 249.362 40.544C248.805 41.1893 248.027 41.512 247.03 41.512C246.385 41.512 245.945 41.3653 245.71 41.072C245.505 40.7493 245.343 40.2947 245.226 39.708C245.138 39.3267 245.05 39.048 244.962 38.872C244.874 38.696 244.713 38.608 244.478 38.608C243.862 38.608 243.334 38.74 242.894 39.004C242.483 39.2387 241.941 39.664 241.266 40.28L237.746 57H231.41L236.074 35ZM256.489 68C255.11 68 253.893 67.5453 252.837 66.636C251.81 65.756 251.297 64.6267 251.297 63.248C251.297 61.9573 251.62 60.9013 252.265 60.08C252.91 59.2587 253.746 58.6133 254.773 58.144C255.8 57.6747 257.178 57.176 258.909 56.648L259.349 54.712C257.853 56.4133 256.064 57.264 253.981 57.264C252.573 57.264 251.429 56.824 250.549 55.944C249.698 55.064 249.273 53.744 249.273 51.984C249.273 51.2507 249.39 50.2973 249.625 49.124L252.617 35H258.953L255.785 49.96C255.697 50.312 255.653 50.6787 255.653 51.06C255.653 52.3507 256.093 52.996 256.973 52.996C257.794 52.996 258.498 52.6587 259.085 51.984C259.672 51.28 260.141 50.3267 260.493 49.124L263.485 35H269.865L264.497 60.52C263.91 63.336 262.869 65.2867 261.373 66.372C259.906 67.4573 258.278 68 256.489 68ZM255.477 64.084C256.005 64.084 256.504 63.8053 256.973 63.248C257.442 62.72 257.809 61.8547 258.073 60.652L258.601 58.056C257.046 58.584 255.844 59.2 254.993 59.904C254.142 60.608 253.717 61.5173 253.717 62.632C253.717 62.984 253.893 63.3067 254.245 63.6C254.597 63.9227 255.008 64.084 255.477 64.084Z" fill="black"/>
<path d="M77.3333 34.3334C75.8651 34.3225 74.6776 33.1349 74.6667 31.6667C74.6667 29.4575 72.8759 27.6667 70.6668 27.6667H40.0007V53H76C77.4709 52.9956 78.6623 51.8043 78.6666 50.3334V35.6667C78.6666 34.9303 78.0697 34.3334 77.3333 34.3334Z" fill="#624421"/>
<path d="M73.3334 37C71.8652 36.9891 70.6777 35.8015 70.6668 34.3333C70.6668 32.1242 68.876 30.3333 66.6669 30.3333H40.0007V53H74.6667V38.3333C74.6667 37.5969 74.0698 37 73.3334 37Z" fill="#825A2C"/>
<path d="M44.0006 67.6667C43.9342 68.5654 43.4758 69.3895 42.7472 69.92C39.7873 72.4933 31.9208 74.3333 22.6676 74.3333C13.4145 74.3333 5.54797 72.4933 2.58803 69.92C1.85945 69.3895 1.40109 68.5654 1.33472 67.6667C1.41891 66.6392 1.89655 65.6838 2.66802 65V64.2133C2.87248 64.836 3.25774 65.3837 3.77467 65.7867C6.56128 68.2133 13.9611 69.9467 22.6676 69.9467C31.3741 69.9467 38.774 68.2133 41.5606 65.7867C42.0775 65.3837 42.4628 64.836 42.6672 64.2133V65C43.4387 65.6838 43.9164 66.6392 44.0006 67.6667Z" fill="#35495E"/>
<path d="M44.0008 67.6667V73C44.0008 75.0934 40.9075 76.96 36.0808 78.1867C38.5475 77.0934 40.0008 75.7734 40.0008 74.3334V71.5467C40.9928 71.1453 41.9187 70.5969 42.7475 69.92C43.4761 69.3896 43.9344 68.5655 44.0008 67.6667Z" fill="#37474F"/>
<path d="M40.0006 71.5467V74.3334C40.0006 75.7734 38.5473 77.0934 36.0807 78.1867C31.6846 79.2125 27.1816 79.7094 22.6676 79.6667C10.8812 79.6667 1.33472 76.68 1.33472 73V67.6667C1.40109 68.5655 1.85945 69.3896 2.58803 69.92C5.54797 72.4934 13.4145 74.3334 22.6676 74.3334C27.1773 74.3761 31.6758 73.8793 36.0674 72.8534C37.4128 72.5288 38.7285 72.0917 40.0006 71.5467Z" fill="#607D8B"/>
<path d="M42.6674 21.9866V67.6666C42.463 68.2893 42.0777 68.8371 41.5608 69.24C38.7742 71.6666 31.3743 73.4 22.6678 73.4C21.9878 73.4 21.3212 73.3866 20.6679 73.3733C12.8413 73.12 6.34814 71.48 3.77486 69.24C3.25792 68.8371 2.87267 68.2893 2.66821 67.6666V21.9866C5.45482 24.3333 12.3747 26.0666 20.6679 26.2933C21.3212 26.32 21.9878 26.3333 22.6678 26.3333C28.0882 26.4429 33.4908 25.6776 38.6675 24.0666C40.1124 23.6132 41.4664 22.9091 42.6674 21.9866Z" fill="#DD354B"/>
<path d="M38.6675 21.9866V67.6666C38.4631 68.2893 38.0778 68.8371 37.5609 69.24C34.9876 71.48 28.4944 73.12 20.6679 73.3733C12.8413 73.12 6.34814 71.48 3.77486 69.24C3.25792 68.8371 2.87267 68.2893 2.66821 67.6666V24.0666C7.84488 25.6776 13.2475 26.4429 18.6679 26.3333C19.3479 26.3333 20.0145 26.32 20.6679 26.2933C28.961 26.0666 35.8809 24.3333 38.6675 21.9866Z" fill="#DD354B"/>
<path d="M44.0006 18.3333C43.9342 19.2321 43.4758 20.0562 42.7472 20.5866C39.7873 23.16 31.9208 25 22.6676 25C21.9876 25 21.321 24.9866 20.6677 24.96C12.2945 24.7333 5.33464 22.9733 2.58803 20.5866C1.85945 20.0562 1.40109 19.2321 1.33472 18.3333C1.33472 15.6933 6.22795 13.4266 13.3345 12.3333H32.0008C39.1073 13.4266 44.0006 15.6933 44.0006 18.3333Z" fill="#545C60"/>
<path d="M40.0006 18.3333C39.9343 19.2321 39.4759 20.0562 38.7473 20.5866C36.0007 22.9733 29.0408 24.7333 20.6677 24.96C12.2945 24.7333 5.33464 22.9733 2.58803 20.5866C1.85945 20.0562 1.40109 19.2321 1.33472 18.3333C1.33472 15.6933 6.22795 13.4266 13.3345 12.3333H28.0009C35.1074 13.4266 40.0006 15.6933 40.0006 18.3333Z" fill="#7F8E94"/>
<path d="M32.001 5V15.6667C32.001 16.6533 30.1344 17.5067 27.3478 17.9733C25.8 18.2189 24.235 18.3393 22.6679 18.3333C17.508 18.3333 13.3347 17.1333 13.3347 15.6667V5H32.001Z" fill="#37474F"/>
<path d="M28.0011 6.33331V17C27.9585 17.4128 27.7137 17.7775 27.3478 17.9733C25.8 18.2188 24.235 18.3392 22.6679 18.3333C17.508 18.3333 13.3347 17.1333 13.3347 15.6666V6.33331H28.0011Z" fill="#607D8B"/>
<path d="M44.001 18.3333V23.6666C43.9346 24.5654 43.4763 25.3895 42.7477 25.92C42.721 25.9466 42.6943 25.96 42.6677 25.9866C40.706 27.3858 38.4703 28.3537 36.1077 28.8266C37.0304 28.4529 37.893 27.9452 38.6677 27.32C38.6943 27.2933 38.721 27.28 38.7477 27.2533C39.4763 26.7229 39.9346 25.8988 40.001 25V22.2133C40.993 21.8119 41.9189 21.2636 42.7477 20.5866C43.4763 20.0562 43.9346 19.2321 44.001 18.3333Z" fill="#37474F"/>
<path d="M40.0006 22.2133V25C39.9343 25.8988 39.4759 26.7229 38.7473 27.2533C38.7207 27.28 38.694 27.2933 38.6673 27.32C37.8926 27.9452 37.0301 28.4529 36.1074 28.8266C31.7059 29.8763 27.1923 30.3823 22.6676 30.3333C13.4945 30.3333 5.6813 28.52 2.66802 25.9866C2.64136 25.96 2.61469 25.9466 2.58803 25.92C1.85945 25.3895 1.40109 24.5654 1.33472 23.6666V18.3333C1.40109 19.2321 1.85945 20.0562 2.58803 20.5866C5.54797 23.16 13.4145 25 22.6676 25C27.1773 25.0428 31.6758 24.5459 36.0674 23.52C37.4128 23.1954 38.7285 22.7583 40.0006 22.2133Z" fill="#607D8B"/>
<path d="M32.001 4.99998C32.001 5.98665 30.1344 6.83998 27.3478 7.30665C25.8 7.55218 24.235 7.67257 22.6679 7.66665C17.508 7.66665 13.3347 6.46665 13.3347 4.99998C13.3773 4.58716 13.6221 4.22244 13.988 4.02665C15.3613 3.03998 18.7213 2.33331 22.6679 2.33331C27.8278 2.33331 32.001 3.53331 32.001 4.99998Z" fill="#545C60"/>
<path d="M28.0011 6.33332C27.9585 6.74614 27.7137 7.11086 27.3478 7.30665C25.8 7.55219 24.235 7.67258 22.6679 7.66665C17.508 7.66665 13.3347 6.46665 13.3347 4.99998C13.3773 4.58716 13.6221 4.22244 13.988 4.02665C15.5358 3.78112 17.1008 3.66073 18.6679 3.66665C23.8278 3.66665 28.0011 4.86665 28.0011 6.33332Z" fill="#7F8E94"/>
<path d="M22.6679 26.3334C13.2508 26.3334 5.02561 24.4667 1.71368 21.5934C0.683534 20.818 0.0552648 19.6216 0.00170898 18.3334C0.00170898 13.552 9.1842 11.6227 13.1321 11.016C13.6116 10.925 14.1025 11.1033 14.4119 11.4808C14.7213 11.8583 14.7996 12.3747 14.6163 12.827C14.4329 13.2793 14.017 13.5952 13.5321 13.6507C5.61893 14.8667 2.66832 17.1694 2.66832 18.3334C2.76232 18.8373 3.04936 19.2846 3.46831 19.58C5.72693 21.548 12.7015 23.6667 22.6679 23.6667C32.6344 23.6667 39.6089 21.548 41.8676 19.58C42.2865 19.2846 42.5735 18.8373 42.6675 18.3334C42.6675 17.1694 39.7169 14.8667 31.7984 13.6507C31.3135 13.5952 30.8977 13.2793 30.7143 12.827C30.5309 12.3747 30.6093 11.8583 30.9186 11.4808C31.228 11.1033 31.7189 10.925 32.1984 11.016C36.1517 11.6227 45.3342 13.552 45.3342 18.3334C45.2806 19.6216 44.6523 20.818 43.6222 21.5934C40.3103 24.4667 32.0851 26.3334 22.6679 26.3334Z" fill="black"/>
<path d="M22.6679 31.6666C13.2521 31.6666 5.02828 29.8 1.71501 26.9266C0.683626 26.1522 0.0546475 24.9554 0.00170898 23.6666C0.00170898 22.9303 0.598651 22.3333 1.33502 22.3333C2.07138 22.3333 2.66832 22.9303 2.66832 23.6666C2.76211 24.1703 3.04924 24.6173 3.46831 24.912C5.73493 26.8813 12.7041 29 22.6679 29C32.6317 29 39.6009 26.8813 41.8676 24.9133C42.287 24.6184 42.5742 24.1708 42.6675 23.6666C42.6675 22.9303 43.2645 22.3333 44.0008 22.3333C44.7372 22.3333 45.3342 22.9303 45.3342 23.6666C45.281 24.9563 44.6509 26.1537 43.6182 26.928C40.3076 29.8 32.0837 31.6666 22.6679 31.6666Z" fill="black"/>
<path d="M22.6679 81C11.4042 81 0.00170898 78.252 0.00170898 73C0.00170898 72.2636 0.598651 71.6667 1.33502 71.6667C2.07138 71.6667 2.66832 72.2636 2.66832 73C2.66832 75.1747 10.4588 78.3334 22.6679 78.3334C34.877 78.3334 42.6675 75.1747 42.6675 73C42.6675 72.2636 43.2645 71.6667 44.0008 71.6667C44.7372 71.6667 45.3342 72.2636 45.3342 73C45.3342 78.252 33.9317 81 22.6679 81Z" fill="black"/>
<path d="M22.6678 75.6667C13.252 75.6667 5.02813 73.8 1.71486 70.9267C0.641329 70.1884 0 68.969 0 67.666C0 66.3631 0.641329 65.1437 1.71486 64.4054C2.27155 63.9212 3.11533 63.98 3.59949 64.5367C4.08365 65.0934 4.02485 65.9372 3.46816 66.4214C3.04909 66.7161 2.76196 67.163 2.66817 67.6667C2.76196 68.1704 3.04909 68.6173 3.46816 68.912C5.73478 70.8814 12.704 73 22.6678 73C32.6316 73 39.6008 70.8814 41.8674 68.9134C42.2869 68.6185 42.5741 68.1709 42.6674 67.6667C42.5736 67.163 42.2865 66.7161 41.8674 66.4214C41.3192 65.9374 41.2631 65.102 41.7418 64.5491C42.2205 63.9962 43.0552 63.9321 43.6127 64.4054C44.6868 65.1436 45.3285 66.3634 45.3285 67.6667C45.3285 68.97 44.6868 70.1898 43.6127 70.928C40.3074 73.8 32.0836 75.6667 22.6678 75.6667Z" fill="black"/>
<path d="M22.6679 71.28C13.7894 71.28 6.02954 69.5187 2.89893 66.792C2.17864 66.2182 1.64915 65.4395 1.38029 64.5587C1.18958 63.8473 1.61161 63.1161 2.32294 62.9253C3.03427 62.7346 3.76553 63.1567 3.95624 63.868C4.09202 64.2313 4.33118 64.547 4.64423 64.776C6.76952 66.6267 13.3121 68.6133 22.6679 68.6133C32.0237 68.6133 38.5662 66.6267 40.6849 64.7813C41.0007 64.5513 41.2421 64.2338 41.3795 63.868C41.5029 63.4078 41.8624 63.0485 42.3226 62.9252C42.7828 62.802 43.2737 62.9336 43.6105 63.2706C43.9474 63.6075 44.0788 64.0985 43.9555 64.5587C43.6853 65.4421 43.1534 66.2227 42.4302 66.7973C39.3062 69.5187 31.5464 71.28 22.6679 71.28Z" fill="black"/>
<path d="M1.33504 25C0.598663 25 0.00170898 24.403 0.00170898 23.6667V18.3333C0.00170898 17.597 0.598663 17 1.33504 17C2.07142 17 2.66838 17.597 2.66838 18.3333V23.6667C2.66838 24.403 2.07142 25 1.33504 25Z" fill="black"/>
<path d="M1.33504 74.3333C0.598663 74.3333 0.00170898 73.7364 0.00170898 73V67.6666C0.00170898 66.9303 0.598663 66.3333 1.33504 66.3333C2.07142 66.3333 2.66838 66.9303 2.66838 67.6666V73C2.66838 73.7364 2.07142 74.3333 1.33504 74.3333Z" fill="black"/>
<path d="M44.0006 74.3333C43.2642 74.3333 42.6672 73.7364 42.6672 73V67.6666C42.6672 66.9303 43.2642 66.3333 44.0006 66.3333C44.7369 66.3333 45.3339 66.9303 45.3339 67.6666V73C45.3339 73.7364 44.7369 74.3333 44.0006 74.3333Z" fill="black"/>
<path d="M44.0006 25C43.2642 25 42.6672 24.403 42.6672 23.6667V18.3333C42.6672 17.597 43.2642 17 44.0006 17C44.7369 17 45.3339 17.597 45.3339 18.3333V23.6667C45.3339 24.403 44.7369 25 44.0006 25Z" fill="black"/>
<path d="M2.66805 67.12C1.93167 67.12 1.33472 66.5231 1.33472 65.7867V25.92C1.33472 25.1836 1.93167 24.5867 2.66805 24.5867C3.40443 24.5867 4.00138 25.1836 4.00138 25.92V65.7867C4.00138 66.5231 3.40443 67.12 2.66805 67.12Z" fill="black"/>
<path d="M42.6676 67.12C41.9312 67.12 41.3342 66.523 41.3342 65.7867V25.9867C41.3342 25.2503 41.9312 24.6533 42.6676 24.6533C43.4039 24.6533 44.0009 25.2503 44.0009 25.9867V65.7867C44.0009 66.523 43.4039 67.12 42.6676 67.12Z" fill="black"/>
<path d="M22.6677 19.6666C21.5757 19.6666 12.0012 19.5546 12.0012 15.6666C12.0027 14.9674 12.5441 14.388 13.2416 14.3393C13.9392 14.2906 14.5559 14.789 14.6545 15.4813C15.1865 16.0266 18.0011 17 22.6677 17C27.3343 17 30.1489 16.0266 30.6809 15.4813C30.7795 14.789 31.3962 14.2906 32.0937 14.3393C32.7913 14.388 33.3327 14.9674 33.3341 15.6666C33.3341 19.5546 23.7597 19.6666 22.6677 19.6666Z" fill="black"/>
<path d="M22.6677 9C21.5757 9 12.0012 8.888 12.0012 5C12.0012 1.112 21.5757 1 22.6677 1C23.7597 1 33.3341 1.112 33.3341 5C33.3341 8.888 23.7597 9 22.6677 9ZM14.8958 5C17.35 6.03419 20.0091 6.49038 22.6677 6.33333C25.3262 6.49038 27.9853 6.03419 30.4395 5C27.9853 3.96582 25.3262 3.50962 22.6677 3.66667C20.0091 3.50962 17.35 3.96582 14.8958 5Z" fill="black"/>
<path d="M13.3346 17C12.5982 17 12.0012 16.4031 12.0012 15.6667V5.00002C12.0012 4.26364 12.5982 3.66669 13.3346 3.66669C14.0709 3.66669 14.6679 4.26364 14.6679 5.00002V15.6667C14.6679 16.4031 14.0709 17 13.3346 17Z" fill="black"/>
<path d="M32.0011 17C31.2647 17 30.6677 16.4031 30.6677 15.6667V5.00002C30.6677 4.26364 31.2647 3.66669 32.0011 3.66669C32.7374 3.66669 33.3344 4.26364 33.3344 5.00002V15.6667C33.3344 16.4031 32.7374 17 32.0011 17Z" fill="black"/>
<path d="M8.00155 39.6667C7.26517 39.6667 6.66821 39.0697 6.66821 38.3333V34.3333C6.66821 33.597 7.26517 33 8.00155 33C8.73793 33 9.33488 33.597 9.33488 34.3333V38.3333C9.33488 39.0697 8.73793 39.6667 8.00155 39.6667Z" fill="black"/>
<path d="M8.00155 55.6666C7.26517 55.6666 6.66821 55.0697 6.66821 54.3333V43.6666C6.66821 42.9303 7.26517 42.3333 8.00155 42.3333C8.73793 42.3333 9.33488 42.9303 9.33488 43.6666V54.3333C9.33488 55.0697 8.73793 55.6666 8.00155 55.6666Z" fill="black"/>
<path d="M76 54.3333H42.7474C42.011 54.3333 41.4141 53.7364 41.4141 53C41.4141 52.2636 42.011 51.6666 42.7474 51.6666H76C76.7364 51.6666 77.3334 51.0697 77.3334 50.3333V35.6666C75.1288 35.6557 73.3444 33.8712 73.3334 31.6666C73.3334 30.1939 72.1396 29 70.6668 29H42.7474C42.011 29 41.4141 28.403 41.4141 27.6666C41.4141 26.9303 42.011 26.3333 42.7474 26.3333H70.6668C73.6123 26.3333 76 28.7211 76 31.6666C75.9974 32.0141 76.1354 32.3479 76.3827 32.592C76.6298 32.8532 76.9738 33.0009 77.3334 33C78.8061 33 80 34.1939 80 35.6666V50.3333C80 52.5425 78.2091 54.3333 76 54.3333Z" fill="black"/>
<path d="M58.6671 35.6667C57.9307 35.6667 57.3337 35.0697 57.3337 34.3334V33C57.3337 32.2636 57.9307 31.6667 58.6671 31.6667C59.4035 31.6667 60.0004 32.2636 60.0004 33V34.3334C60.0004 35.0697 59.4035 35.6667 58.6671 35.6667Z" fill="black"/>
<path d="M64.0003 35.6667C63.2639 35.6667 62.667 35.0697 62.667 34.3334V33C62.667 32.2636 63.2639 31.6667 64.0003 31.6667C64.7367 31.6667 65.3337 32.2636 65.3337 33V34.3334C65.3337 35.0697 64.7367 35.6667 64.0003 35.6667Z" fill="black"/>
<path d="M69.3336 35.6667C68.5972 35.6667 68.0002 35.0697 68.0002 34.3334V33C68.0002 32.2636 68.5972 31.6667 69.3336 31.6667C70.07 31.6667 70.6669 32.2636 70.6669 33V34.3334C70.6669 35.0697 70.07 35.6667 69.3336 35.6667Z" fill="black"/>
<path d="M53.3338 35.6667C52.5974 35.6667 52.0005 35.0697 52.0005 34.3334V33C52.0005 32.2636 52.5974 31.6667 53.3338 31.6667C54.0702 31.6667 54.6672 32.2636 54.6672 33V34.3334C54.6672 35.0697 54.0702 35.6667 53.3338 35.6667Z" fill="black"/>
<path d="M48.0006 35.6667C47.2642 35.6667 46.6672 35.0697 46.6672 34.3334V33C46.6672 32.2636 47.2642 31.6667 48.0006 31.6667C48.7369 31.6667 49.3339 32.2636 49.3339 33V34.3334C49.3339 35.0697 48.7369 35.6667 48.0006 35.6667Z" fill="black"/>
<path d="M336.667 33.3334C338.135 33.3225 339.322 32.1349 339.333 30.6667C339.333 28.4575 341.124 26.6667 343.333 26.6667H373.999V52H338C336.529 51.9956 335.338 50.8043 335.333 49.3334V34.6667C335.333 33.9303 335.93 33.3334 336.667 33.3334Z" fill="#624421"/>
<path d="M340.667 36C342.135 35.9891 343.322 34.8015 343.333 33.3333C343.333 31.1242 345.124 29.3333 347.333 29.3333H373.999V52H339.333V37.3333C339.333 36.5969 339.93 36 340.667 36Z" fill="#825A2C"/>
<path d="M369.999 66.6667C370.066 67.5654 370.524 68.3895 371.253 68.92C374.213 71.4933 382.079 73.3333 391.332 73.3333C400.586 73.3333 408.452 71.4933 411.412 68.92C412.141 68.3895 412.599 67.5654 412.665 66.6667C412.581 65.6392 412.103 64.6838 411.332 64V63.2133C411.128 63.836 410.742 64.3837 410.225 64.7867C407.439 67.2133 400.039 68.9467 391.332 68.9467C382.626 68.9467 375.226 67.2133 372.439 64.7867C371.922 64.3837 371.537 63.836 371.333 63.2133V64C370.561 64.6838 370.084 65.6392 369.999 66.6667Z" fill="#35495E"/>
<path d="M369.999 66.6667V72C369.999 74.0934 373.093 75.96 377.919 77.1867C375.453 76.0934 373.999 74.7734 373.999 73.3334V70.5467C373.007 70.1453 372.081 69.5969 371.253 68.92C370.524 68.3896 370.066 67.5655 369.999 66.6667Z" fill="#37474F"/>
<path d="M373.999 70.5467V73.3334C373.999 74.7734 375.453 76.0934 377.919 77.1867C382.315 78.2125 386.818 78.7094 391.332 78.6667C403.119 78.6667 412.665 75.68 412.665 72V66.6667C412.599 67.5655 412.141 68.3896 411.412 68.92C408.452 71.4934 400.586 73.3334 391.332 73.3334C386.823 73.3761 382.324 72.8793 377.933 71.8534C376.587 71.5288 375.272 71.0917 373.999 70.5467Z" fill="#607D8B"/>
<path d="M371.333 20.9866V66.6666C371.537 67.2893 371.922 67.8371 372.439 68.24C375.226 70.6666 382.626 72.4 391.332 72.4C392.012 72.4 392.679 72.3866 393.332 72.3733C401.159 72.12 407.652 70.48 410.225 68.24C410.742 67.8371 411.127 67.2893 411.332 66.6666V20.9866C408.545 23.3333 401.625 25.0666 393.332 25.2933C392.679 25.32 392.012 25.3333 391.332 25.3333C385.912 25.4429 380.509 24.6776 375.332 23.0666C373.888 22.6132 372.534 21.9091 371.333 20.9866Z" fill="#DD354B"/>
<path d="M375.332 20.9866V66.6666C375.537 67.2893 375.922 67.8371 376.439 68.24C379.012 70.48 385.506 72.12 393.332 72.3733C401.159 72.12 407.652 70.48 410.225 68.24C410.742 67.8371 411.127 67.2893 411.332 66.6666V23.0666C406.155 24.6776 400.753 25.4429 395.332 25.3333C394.652 25.3333 393.985 25.32 393.332 25.2933C385.039 25.0666 378.119 23.3333 375.332 20.9866Z" fill="#DD354B"/>
<path d="M369.999 17.3333C370.066 18.2321 370.524 19.0562 371.253 19.5866C374.213 22.16 382.079 24 391.332 24C392.012 24 392.679 23.9866 393.332 23.96C401.705 23.7333 408.665 21.9733 411.412 19.5866C412.141 19.0562 412.599 18.2321 412.665 17.3333C412.665 14.6933 407.772 12.4266 400.666 11.3333H381.999C374.893 12.4266 369.999 14.6933 369.999 17.3333Z" fill="#545C60"/>
<path d="M373.999 17.3333C374.066 18.2321 374.524 19.0562 375.253 19.5866C377.999 21.9733 384.959 23.7333 393.332 23.96C401.705 23.7333 408.665 21.9733 411.412 19.5866C412.141 19.0562 412.599 18.2321 412.665 17.3333C412.665 14.6933 407.772 12.4266 400.666 11.3333H385.999C378.893 12.4266 373.999 14.6933 373.999 17.3333Z" fill="#7F8E94"/>
<path d="M381.999 4V14.6667C381.999 15.6533 383.866 16.5067 386.652 16.9733C388.2 17.2189 389.765 17.3393 391.332 17.3333C396.492 17.3333 400.665 16.1333 400.665 14.6667V4H381.999Z" fill="#37474F"/>
<path d="M385.999 5.33331V16C386.042 16.4128 386.286 16.7775 386.652 16.9733C388.2 17.2188 389.765 17.3392 391.332 17.3333C396.492 17.3333 400.665 16.1333 400.665 14.6666V5.33331H385.999Z" fill="#607D8B"/>
<path d="M369.999 17.3333V22.6666C370.065 23.5654 370.524 24.3895 371.252 24.92C371.279 24.9466 371.306 24.96 371.332 24.9866C373.294 26.3858 375.53 27.3537 377.892 27.8266C376.97 27.4529 376.107 26.9452 375.332 26.32C375.306 26.2933 375.279 26.28 375.252 26.2533C374.524 25.7229 374.065 24.8988 373.999 24V21.2133C373.007 20.8119 372.081 20.2636 371.252 19.5866C370.524 19.0562 370.065 18.2321 369.999 17.3333Z" fill="#37474F"/>
<path d="M373.999 21.2133V24C374.066 24.8988 374.524 25.7229 375.253 26.2533C375.279 26.28 375.306 26.2933 375.333 26.32C376.107 26.9452 376.97 27.4529 377.893 27.8266C382.294 28.8763 386.808 29.3823 391.332 29.3333C400.506 29.3333 408.319 27.52 411.332 24.9866C411.359 24.96 411.385 24.9466 411.412 24.92C412.141 24.3895 412.599 23.5654 412.665 22.6666V17.3333C412.599 18.2321 412.141 19.0562 411.412 19.5866C408.452 22.16 400.586 24 391.332 24C386.823 24.0428 382.324 23.5459 377.933 22.52C376.587 22.1954 375.272 21.7583 373.999 21.2133Z" fill="#607D8B"/>
<path d="M381.999 3.99998C381.999 4.98665 383.866 5.83998 386.652 6.30665C388.2 6.55218 389.765 6.67257 391.332 6.66665C396.492 6.66665 400.665 5.46665 400.665 3.99998C400.623 3.58716 400.378 3.22244 400.012 3.02665C398.639 2.03998 395.279 1.33331 391.332 1.33331C386.172 1.33331 381.999 2.53331 381.999 3.99998Z" fill="#545C60"/>
<path d="M385.999 5.33332C386.042 5.74614 386.286 6.11086 386.652 6.30665C388.2 6.55219 389.765 6.67258 391.332 6.66665C396.492 6.66665 400.665 5.46665 400.665 3.99998C400.623 3.58716 400.378 3.22244 400.012 3.02665C398.464 2.78112 396.899 2.66073 395.332 2.66665C390.172 2.66665 385.999 3.86665 385.999 5.33332Z" fill="#7F8E94"/>
<path d="M391.332 25.3334C400.749 25.3334 408.974 23.4667 412.286 20.5934C413.316 19.818 413.945 18.6216 413.998 17.3334C413.998 12.552 404.816 10.6227 400.868 10.016C400.388 9.92504 399.897 10.1033 399.588 10.4808C399.279 10.8583 399.2 11.3747 399.384 11.827C399.567 12.2793 399.983 12.5952 400.468 12.6507C408.381 13.8667 411.332 16.1694 411.332 17.3334C411.238 17.8373 410.951 18.2846 410.532 18.58C408.273 20.548 401.299 22.6667 391.332 22.6667C381.366 22.6667 374.391 20.548 372.132 18.58C371.713 18.2846 371.426 17.8373 371.332 17.3334C371.332 16.1694 374.283 13.8667 382.202 12.6507C382.686 12.5952 383.102 12.2793 383.286 11.827C383.469 11.3747 383.391 10.8583 383.081 10.4808C382.772 10.1033 382.281 9.92504 381.802 10.016C377.848 10.6227 368.666 12.552 368.666 17.3334C368.719 18.6216 369.348 19.818 370.378 20.5934C373.69 23.4667 381.915 25.3334 391.332 25.3334Z" fill="black"/>
<path d="M391.332 30.6666C400.748 30.6666 408.972 28.8 412.285 25.9266C413.316 25.1522 413.945 23.9554 413.998 22.6666C413.998 21.9303 413.401 21.3333 412.665 21.3333C411.929 21.3333 411.332 21.9303 411.332 22.6666C411.238 23.1703 410.951 23.6173 410.532 23.912C408.265 25.8813 401.296 28 391.332 28C381.368 28 374.399 25.8813 372.132 23.9133C371.713 23.6184 371.426 23.1708 371.332 22.6666C371.332 21.9303 370.736 21.3333 369.999 21.3333C369.263 21.3333 368.666 21.9303 368.666 22.6666C368.719 23.9563 369.349 25.1537 370.382 25.928C373.692 28.8 381.916 30.6666 391.332 30.6666Z" fill="black"/>
<path d="M391.332 80C402.596 80 413.998 77.252 413.998 72C413.998 71.2636 413.401 70.6667 412.665 70.6667C411.929 70.6667 411.332 71.2636 411.332 72C411.332 74.1747 403.541 77.3334 391.332 77.3334C379.123 77.3334 371.332 74.1747 371.332 72C371.332 71.2636 370.736 70.6667 369.999 70.6667C369.263 70.6667 368.666 71.2636 368.666 72C368.666 77.252 380.068 80 391.332 80Z" fill="black"/>
<path d="M391.332 74.6667C400.748 74.6667 408.972 72.8 412.285 69.9267C413.359 69.1884 414 67.969 414 66.666C414 65.3631 413.359 64.1437 412.285 63.4054C411.728 62.9212 410.885 62.98 410.401 63.5367C409.916 64.0934 409.975 64.9372 410.532 65.4214C410.951 65.7161 411.238 66.163 411.332 66.6667C411.238 67.1704 410.951 67.6173 410.532 67.912C408.265 69.8814 401.296 72 391.332 72C381.368 72 374.399 69.8814 372.133 67.9134C371.713 67.6185 371.426 67.1709 371.333 66.6667C371.426 66.163 371.714 65.7161 372.133 65.4214C372.681 64.9374 372.737 64.102 372.258 63.5491C371.78 62.9962 370.945 62.9321 370.387 63.4054C369.313 64.1436 368.671 65.3634 368.671 66.6667C368.671 67.97 369.313 69.1898 370.387 69.928C373.693 72.8 381.916 74.6667 391.332 74.6667Z" fill="black"/>
<path d="M391.332 70.28C400.211 70.28 407.97 68.5187 411.101 65.792C411.821 65.2182 412.351 64.4395 412.62 63.5587C412.81 62.8473 412.388 62.1161 411.677 61.9253C410.966 61.7346 410.234 62.1567 410.044 62.868C409.908 63.2313 409.669 63.547 409.356 63.776C407.23 65.6267 400.688 67.6133 391.332 67.6133C381.976 67.6133 375.434 65.6267 373.315 63.7813C372.999 63.5513 372.758 63.2338 372.62 62.868C372.497 62.4078 372.138 62.0485 371.677 61.9252C371.217 61.802 370.726 61.9336 370.389 62.2706C370.053 62.6075 369.921 63.0985 370.045 63.5587C370.315 64.4421 370.847 65.2227 371.57 65.7973C374.694 68.5187 382.454 70.28 391.332 70.28Z" fill="black"/>
<path d="M412.665 24C413.401 24 413.998 23.403 413.998 22.6667V17.3333C413.998 16.597 413.401 16 412.665 16C411.929 16 411.332 16.597 411.332 17.3333V22.6667C411.332 23.403 411.929 24 412.665 24Z" fill="black"/>
<path d="M412.665 73.3333C413.401 73.3333 413.998 72.7364 413.998 72V66.6666C413.998 65.9303 413.401 65.3333 412.665 65.3333C411.929 65.3333 411.332 65.9303 411.332 66.6666V72C411.332 72.7364 411.929 73.3333 412.665 73.3333Z" fill="black"/>
<path d="M369.999 73.3333C370.736 73.3333 371.333 72.7364 371.333 72V66.6666C371.333 65.9303 370.736 65.3333 369.999 65.3333C369.263 65.3333 368.666 65.9303 368.666 66.6666V72C368.666 72.7364 369.263 73.3333 369.999 73.3333Z" fill="black"/>
<path d="M369.999 24C370.736 24 371.333 23.403 371.333 22.6667V17.3333C371.333 16.597 370.736 16 369.999 16C369.263 16 368.666 16.597 368.666 17.3333V22.6667C368.666 23.403 369.263 24 369.999 24Z" fill="black"/>
<path d="M411.332 66.12C412.068 66.12 412.665 65.5231 412.665 64.7867V24.92C412.665 24.1836 412.068 23.5867 411.332 23.5867C410.596 23.5867 409.999 24.1836 409.999 24.92V64.7867C409.999 65.5231 410.596 66.12 411.332 66.12Z" fill="black"/>
<path d="M371.332 66.12C372.069 66.12 372.666 65.523 372.666 64.7867V24.9867C372.666 24.2503 372.069 23.6533 371.332 23.6533C370.596 23.6533 369.999 24.2503 369.999 24.9867V64.7867C369.999 65.523 370.596 66.12 371.332 66.12Z" fill="black"/>
<path d="M391.332 18.6666C392.424 18.6666 401.999 18.5546 401.999 14.6666C401.997 13.9674 401.456 13.388 400.758 13.3393C400.061 13.2906 399.444 13.789 399.345 14.4813C398.814 15.0266 395.999 16 391.332 16C386.666 16 383.851 15.0266 383.319 14.4813C383.221 13.789 382.604 13.2906 381.906 13.3393C381.209 13.388 380.667 13.9674 380.666 14.6666C380.666 18.5546 390.24 18.6666 391.332 18.6666Z" fill="black"/>
<path d="M391.332 8C392.424 8 401.999 7.888 401.999 4C401.999 0.112 392.424 0 391.332 0C390.24 0 380.666 0.112 380.666 4C380.666 7.888 390.24 8 391.332 8ZM399.104 4C396.65 5.03419 393.991 5.49038 391.332 5.33333C388.674 5.49038 386.015 5.03419 383.56 4C386.015 2.96582 388.674 2.50962 391.332 2.66667C393.991 2.50962 396.65 2.96582 399.104 4Z" fill="black"/>
<path d="M400.665 16C401.402 16 401.999 15.4031 401.999 14.6667V4.00002C401.999 3.26364 401.402 2.66669 400.665 2.66669C399.929 2.66669 399.332 3.26364 399.332 4.00002V14.6667C399.332 15.4031 399.929 16 400.665 16Z" fill="black"/>
<path d="M381.999 16C382.735 16 383.332 15.4031 383.332 14.6667V4.00002C383.332 3.26364 382.735 2.66669 381.999 2.66669C381.263 2.66669 380.666 3.26364 380.666 4.00002V14.6667C380.666 15.4031 381.263 16 381.999 16Z" fill="black"/>
<path d="M405.998 38.6667C406.735 38.6667 407.332 38.0697 407.332 37.3333V33.3333C407.332 32.597 406.735 32 405.998 32C405.262 32 404.665 32.597 404.665 33.3333V37.3333C404.665 38.0697 405.262 38.6667 405.998 38.6667Z" fill="black"/>
<path d="M405.998 54.6666C406.735 54.6666 407.332 54.0697 407.332 53.3333V42.6666C407.332 41.9303 406.735 41.3333 405.998 41.3333C405.262 41.3333 404.665 41.9303 404.665 42.6666V53.3333C404.665 54.0697 405.262 54.6666 405.998 54.6666Z" fill="black"/>
<path d="M338 53.3333H371.253C371.989 53.3333 372.586 52.7364 372.586 52C372.586 51.2636 371.989 50.6666 371.253 50.6666H338C337.264 50.6666 336.667 50.0697 336.667 49.3333V34.6666C338.871 34.6557 340.656 32.8712 340.667 30.6666C340.667 29.1939 341.86 28 343.333 28H371.253C371.989 28 372.586 27.403 372.586 26.6666C372.586 25.9303 371.989 25.3333 371.253 25.3333H343.333C340.388 25.3333 338 27.7211 338 30.6666C338.003 31.0141 337.865 31.3479 337.617 31.592C337.37 31.8532 337.026 32.0009 336.667 32C335.194 32 334 33.1939 334 34.6666V49.3333C334 51.5425 335.791 53.3333 338 53.3333Z" fill="black"/>
<path d="M355.333 34.6667C356.069 34.6667 356.666 34.0697 356.666 33.3334V32C356.666 31.2636 356.069 30.6667 355.333 30.6667C354.597 30.6667 354 31.2636 354 32V33.3334C354 34.0697 354.597 34.6667 355.333 34.6667Z" fill="black"/>
<path d="M350 34.6667C350.736 34.6667 351.333 34.0697 351.333 33.3334V32C351.333 31.2636 350.736 30.6667 350 30.6667C349.263 30.6667 348.666 31.2636 348.666 32V33.3334C348.666 34.0697 349.263 34.6667 350 34.6667Z" fill="black"/>
<path d="M344.666 34.6667C345.403 34.6667 346 34.0697 346 33.3334V32C346 31.2636 345.403 30.6667 344.666 30.6667C343.93 30.6667 343.333 31.2636 343.333 32V33.3334C343.333 34.0697 343.93 34.6667 344.666 34.6667Z" fill="black"/>
<path d="M360.666 34.6667C361.403 34.6667 362 34.0697 362 33.3334V32C362 31.2636 361.403 30.6667 360.666 30.6667C359.93 30.6667 359.333 31.2636 359.333 32V33.3334C359.333 34.0697 359.93 34.6667 360.666 34.6667Z" fill="black"/>
<path d="M365.999 34.6667C366.736 34.6667 367.333 34.0697 367.333 33.3334V32C367.333 31.2636 366.736 30.6667 365.999 30.6667C365.263 30.6667 364.666 31.2636 364.666 32V33.3334C364.666 34.0697 365.263 34.6667 365.999 34.6667Z" fill="black"/>
</svg>
