<svg width="187" height="44" viewBox="0 0 187 44" fill="none" xmlns="http://www.w3.org/2000/svg">
<path d="M11.0378 3.08C9.07248 3.90133 7.54715 5.13333 6.46181 6.776C5.40581 8.41867 4.87781 10.3987 4.87781 12.716C4.87781 13.8013 4.98048 14.564 5.18581 15.004C5.39115 15.4147 5.49381 15.6493 5.49381 15.708C3.90981 15.708 2.72181 15.3853 1.92981 14.74C1.16715 14.0653 0.785813 12.9653 0.785813 11.44C0.785813 9.56267 1.54848 7.744 3.07381 5.984C4.62848 4.19467 6.60848 2.75733 9.01381 1.672C11.4191 0.557331 13.8245 -2.6226e-06 16.2298 -2.6226e-06C16.6405 -2.6226e-06 17.2271 0.0293312 17.9898 0.0879989L15.1738 13.2H21.6418L24.4578 0.0879989H30.7938L23.7978 33H17.4618L20.9818 16.456H14.5138L10.9938 33H4.65781L11.0378 3.08ZM53.3675 33.264C51.0209 33.264 49.4075 32.7067 48.5275 31.592C47.6769 30.4773 47.2515 29.084 47.2515 27.412C47.2515 26.18 47.5742 25.1827 48.2195 24.42C48.8649 23.628 49.5982 23.232 50.4195 23.232C51.9449 23.232 52.7075 23.848 52.7075 25.08C52.7075 25.608 52.5022 26.0773 52.0915 26.488C51.6809 26.8693 51.1822 27.06 50.5955 27.06C49.9795 27.06 49.5835 26.8693 49.4075 26.488C49.4075 27.544 49.6129 28.3653 50.0235 28.952C50.4635 29.5093 51.1089 29.788 51.9595 29.788C52.9569 29.788 53.6609 29.4947 54.0715 28.908C54.5115 28.292 54.7315 27.2213 54.7315 25.696C54.7315 24.816 54.6435 23.7013 54.4675 22.352C54.1742 19.536 53.9395 16.6613 53.7635 13.728C51.6809 16.9253 49.2169 18.9493 46.3715 19.8C46.1955 22.4987 45.6235 24.86 44.6555 26.884C43.6875 28.908 42.4409 30.4627 40.9155 31.548C39.4195 32.6333 37.7622 33.176 35.9435 33.176C33.7729 33.176 32.0569 32.6187 30.7955 31.504C29.5342 30.3893 28.9035 28.6293 28.9035 26.224C28.9035 24.2 29.2995 21.9853 30.0915 19.58C30.8835 17.1453 32.1742 15.048 33.9635 13.288C35.7529 11.4987 38.0409 10.604 40.8275 10.604C44.5529 10.604 46.4302 12.9067 46.4595 17.512C48.6302 17.3947 51.0209 15.0627 53.6315 10.516L60.1435 9.636C60.2902 13.3907 60.5395 17.4533 60.8915 21.824C61.0382 23.584 61.1115 24.86 61.1115 25.652C61.1115 26.2387 61.0675 26.7813 60.9795 27.28C61.8595 26.7813 62.9009 26.0627 64.1035 25.124H65.9515C64.3382 27.0013 62.2995 28.7173 59.8355 30.272C59.1022 31.328 58.1635 32.0907 57.0195 32.56C55.9049 33.0293 54.6875 33.264 53.3675 33.264ZM37.7035 29.216C38.7889 29.216 39.8009 28.3507 40.7395 26.62C41.6782 24.86 42.3235 22.6893 42.6755 20.108C41.9715 19.844 41.6195 19.184 41.6195 18.128C41.6195 16.984 42.0302 16.2213 42.8515 15.84C42.7929 14.9013 42.6315 14.2413 42.3675 13.86C42.1329 13.4787 41.7369 13.288 41.1795 13.288C40.2115 13.288 39.2875 13.992 38.4075 15.4C37.5275 16.7787 36.8089 18.4653 36.2515 20.46C35.7235 22.4253 35.4595 24.156 35.4595 25.652C35.4595 27.06 35.6209 28.0133 35.9435 28.512C36.2662 28.9813 36.8529 29.216 37.7035 29.216ZM67.4534 9.372H73.7894L73.0854 12.672C74.552 11.4107 76.268 10.78 78.2334 10.78C79.876 10.78 81.1814 11.3227 82.1494 12.408C83.1174 13.4933 83.6014 15.268 83.6014 17.732C83.6014 20.0493 83.264 22.396 82.5894 24.772C81.9147 27.1187 80.7707 29.128 79.1574 30.8C77.544 32.4427 75.4174 33.264 72.7774 33.264C70.9 33.264 69.6534 32.736 69.0374 31.68L66.7494 42.416L60.1054 44L67.4534 9.372ZM71.4134 29.436C72.8214 29.436 73.98 28.776 74.8894 27.456C75.828 26.136 76.5027 24.5667 76.9134 22.748C77.3534 20.9 77.5734 19.184 77.5734 17.6C77.5734 15.1653 76.84 13.948 75.3734 13.948C74.8454 13.948 74.3027 14.1387 73.7454 14.52C73.2174 14.9013 72.748 15.4293 72.3374 16.104L69.7414 28.424C69.976 29.0987 70.5334 29.436 71.4134 29.436ZM92.0394 8.624C91.0714 8.624 90.2501 8.28667 89.5754 7.612C88.9007 6.93733 88.5634 6.116 88.5634 5.148C88.5634 4.18 88.9007 3.35867 89.5754 2.684C90.2501 1.98 91.0714 1.628 92.0394 1.628C93.0074 1.628 93.8287 1.98 94.5034 2.684C95.2074 3.35867 95.5594 4.18 95.5594 5.148C95.5594 6.116 95.2074 6.93733 94.5034 7.612C93.8287 8.28667 93.0074 8.624 92.0394 8.624ZM89.0474 33.264C87.6394 33.264 86.4954 32.824 85.6154 31.944C84.7647 31.064 84.3394 29.744 84.3394 27.984C84.3394 27.2507 84.4567 26.2973 84.6914 25.124L87.6834 11H94.0194L90.8514 25.96C90.7341 26.4 90.6754 26.8693 90.6754 27.368C90.6754 27.9547 90.8074 28.38 91.0714 28.644C91.3647 28.8787 91.8341 28.996 92.4794 28.996C93.3301 28.996 94.1221 28.644 94.8554 27.94C95.5887 27.2067 96.1167 26.268 96.4394 25.124H98.2874C97.2021 28.292 95.8087 30.448 94.1074 31.592C92.4061 32.7067 90.7194 33.264 89.0474 33.264ZM100.778 33.264C99.3699 33.264 98.2259 32.824 97.3459 31.944C96.4952 31.064 96.0699 29.744 96.0699 27.984C96.0699 27.2507 96.1872 26.2973 96.4219 25.124L99.0619 12.76H97.6099L97.9619 11H99.4139L100.734 4.928L107.246 4.048L105.75 11H108.39L108.038 12.76H105.398L102.582 25.96C102.465 26.4 102.406 26.8693 102.406 27.368C102.406 27.9547 102.538 28.38 102.802 28.644C103.095 28.8787 103.565 28.996 104.21 28.996C105.061 28.996 105.853 28.644 106.586 27.94C107.319 27.2067 107.847 26.268 108.17 25.124H110.018C108.933 28.292 107.539 30.448 105.838 31.592C104.137 32.7067 102.45 33.264 100.778 33.264ZM113.432 33.264C111.76 33.264 110.367 32.692 109.252 31.548C108.138 30.404 107.58 28.6147 107.58 26.18C107.58 24.0093 108.006 21.736 108.856 19.36C109.736 16.9547 111.027 14.9307 112.728 13.288C114.459 11.616 116.512 10.78 118.888 10.78C120.091 10.78 120.986 10.9853 121.572 11.396C122.159 11.8067 122.452 12.3493 122.452 13.024V13.332L122.936 11H129.272L126.104 25.96C125.987 26.4 125.928 26.8693 125.928 27.368C125.928 28.6293 126.53 29.26 127.732 29.26C128.554 29.26 129.258 28.8787 129.844 28.116C130.46 27.3533 130.944 26.356 131.296 25.124H133.144C132.059 28.292 130.71 30.448 129.096 31.592C127.512 32.7067 125.914 33.264 124.3 33.264C123.068 33.264 122.071 32.9267 121.308 32.252C120.575 31.548 120.135 30.536 119.988 29.216C119.138 30.4187 118.184 31.4013 117.128 32.164C116.102 32.8973 114.87 33.264 113.432 33.264ZM116.292 28.996C117.026 28.996 117.744 28.6587 118.448 27.984C119.182 27.28 119.68 26.3267 119.944 25.124L122.056 15.18C122.056 14.7987 121.91 14.432 121.616 14.08C121.323 13.6987 120.868 13.508 120.252 13.508C119.079 13.508 118.023 14.1973 117.084 15.576C116.146 16.9253 115.412 18.568 114.884 20.504C114.356 22.4107 114.092 24.0973 114.092 25.564C114.092 27.0307 114.298 27.9693 114.708 28.38C115.148 28.7907 115.676 28.996 116.292 28.996ZM135.669 33.264C134.261 33.264 133.117 32.824 132.237 31.944C131.386 31.064 130.96 29.744 130.96 27.984C130.96 27.2507 131.078 26.2973 131.312 25.124L136.021 3.08L142.533 2.2L137.473 25.96C137.355 26.4 137.297 26.8693 137.297 27.368C137.297 27.9547 137.429 28.38 137.693 28.644C137.986 28.8787 138.455 28.996 139.101 28.996C139.951 28.996 140.743 28.644 141.477 27.94C142.21 27.2067 142.738 26.268 143.061 25.124H144.909C143.823 28.292 142.43 30.448 140.729 31.592C139.027 32.7067 137.341 33.264 135.669 33.264ZM150.391 8.624C149.423 8.624 148.602 8.28667 147.927 7.612C147.252 6.93733 146.915 6.116 146.915 5.148C146.915 4.18 147.252 3.35867 147.927 2.684C148.602 1.98 149.423 1.628 150.391 1.628C151.359 1.628 152.18 1.98 152.855 2.684C153.559 3.35867 153.911 4.18 153.911 5.148C153.911 6.116 153.559 6.93733 152.855 7.612C152.18 8.28667 151.359 8.624 150.391 8.624ZM147.399 33.264C145.991 33.264 144.847 32.824 143.967 31.944C143.116 31.064 142.691 29.744 142.691 27.984C142.691 27.2507 142.808 26.2973 143.043 25.124L146.035 11H152.371L149.203 25.96C149.086 26.4 149.027 26.8693 149.027 27.368C149.027 27.9547 149.159 28.38 149.423 28.644C149.716 28.8787 150.186 28.996 150.831 28.996C151.682 28.996 152.474 28.644 153.207 27.94C153.94 27.2067 154.468 26.268 154.791 25.124H156.639C155.554 28.292 154.16 30.448 152.459 31.592C150.758 32.7067 149.071 33.264 147.399 33.264ZM159.129 33.264C157.721 33.264 156.577 32.824 155.697 31.944C154.847 31.064 154.421 29.744 154.421 27.984C154.421 27.2507 154.539 26.2973 154.773 25.124L157.413 12.76H155.961L156.313 11H157.765L159.085 4.928L165.597 4.048L164.101 11H166.741L166.389 12.76H163.749L160.933 25.96C160.816 26.4 160.757 26.8693 160.757 27.368C160.757 27.9547 160.889 28.38 161.153 28.644C161.447 28.8787 161.916 28.996 162.561 28.996C163.412 28.996 164.204 28.644 164.937 27.94C165.671 27.2067 166.199 26.268 166.521 25.124H168.369C167.284 28.292 165.891 30.448 164.189 31.592C162.488 32.7067 160.801 33.264 159.129 33.264ZM173.368 44C171.989 44 170.772 43.5453 169.716 42.636C168.689 41.756 168.176 40.6267 168.176 39.248C168.176 37.9573 168.499 36.9013 169.144 36.08C169.789 35.2587 170.625 34.6133 171.652 34.144C172.679 33.6747 174.057 33.176 175.788 32.648L176.228 30.712C174.732 32.4133 172.943 33.264 170.86 33.264C169.452 33.264 168.308 32.824 167.428 31.944C166.577 31.064 166.152 29.744 166.152 27.984C166.152 27.2507 166.269 26.2973 166.504 25.124L169.496 11H175.832L172.664 25.96C172.576 26.312 172.532 26.6787 172.532 27.06C172.532 28.3507 172.972 28.996 173.852 28.996C174.673 28.996 175.377 28.6587 175.964 27.984C176.551 27.28 177.02 26.3267 177.372 25.124L180.364 11H186.744L181.376 36.52C180.789 39.336 179.748 41.2867 178.252 42.372C176.785 43.4573 175.157 44 173.368 44ZM172.356 40.084C172.884 40.084 173.383 39.8053 173.852 39.248C174.321 38.72 174.688 37.8547 174.952 36.652L175.48 34.056C173.925 34.584 172.723 35.2 171.872 35.904C171.021 36.608 170.596 37.5173 170.596 38.632C170.596 38.984 170.772 39.3067 171.124 39.6C171.476 39.9227 171.887 40.084 172.356 40.084Z" fill="black"/>
</svg>
