<svg width="350" height="152" viewBox="0 0 350 152" fill="none" xmlns="http://www.w3.org/2000/svg">
<path d="M311.48 34.56C303.633 31.28 295.86 28.34 288.16 25.74C266.83 18.3946 244.821 13.1923 222.46 10.21L220.6 9.99H220.36C206.559 8.16272 192.661 7.16094 178.74 6.99H171.24C157.321 7.13441 143.423 8.10947 129.62 9.91H129.38L127.51 10.16C105.149 13.1423 83.14 18.3446 61.81 25.69C54.1233 28.33 46.3533 31.2867 38.5 34.56C38.5 34.56 43 56.26 7 60.4V91.07C43 95.21 38.5 116.91 38.5 116.91C46.3467 120.19 54.12 123.13 61.82 125.73C83.15 133.075 105.159 138.278 127.52 141.26L129.39 141.51H129.63C143.433 143.311 157.331 144.286 171.25 144.43H178.75C192.669 144.286 206.567 143.311 220.37 141.51H220.61L222.48 141.26C244.841 138.278 266.85 133.075 288.18 125.73C295.873 123.117 303.647 120.177 311.5 116.91C311.5 116.91 307 95.21 343 91.07V60.4C307 56.26 311.48 34.56 311.48 34.56Z" fill="#FCF7DA"/>
<path d="M175 146.48H171.23C157.231 146.334 143.253 145.355 129.37 143.55H129.13L127.25 143.3C104.758 140.29 82.6196 135.058 61.16 127.68C53.3 124.99 45.41 121.99 37.73 118.76L36.21 118.12L36.54 116.5C37.0767 112.346 35.9518 108.149 33.41 104.82C28.79 98.52 19.83 94.56 6.77 93.06L5 92.85V58.62L6.77 58.42C19.89 56.91 28.87 52.93 33.46 46.57C35.9546 43.2579 37.0595 39.1037 36.54 34.99L36.21 33.37L37.73 32.73C45.42 29.52 53.31 26.54 61.18 23.86C82.6323 16.4758 104.764 11.2368 127.25 8.22L129.13 7.99H129.37C143.248 6.16179 157.223 5.16002 171.22 4.99H178.75C192.754 5.15927 206.735 6.16104 220.62 7.99H220.86L222.74 8.24C245.232 11.2493 267.37 16.4816 288.83 23.86C296.69 26.53 304.58 29.51 312.26 32.72L313.78 33.36L313.44 34.99C312.904 39.1436 314.029 43.3408 316.57 46.67C321.19 52.98 330.15 56.95 343.21 58.45L344.98 58.65V92.85L343.21 93.05C330.15 94.55 321.21 98.51 316.57 104.83C314.027 108.162 312.902 112.363 313.44 116.52L313.75 118.12L312.25 118.76C304.57 121.97 296.68 124.95 288.81 127.63C267.354 135.008 245.219 140.24 222.73 143.25L220.85 143.5H220.61C206.727 145.305 192.749 146.284 178.75 146.43H175V146.48ZM40.65 115.64C47.82 118.64 55.15 121.35 62.46 123.84C83.6727 131.134 105.556 136.306 127.79 139.28L129.65 139.53H129.88C143.604 141.316 157.421 142.284 171.26 142.43H178.72C192.559 142.284 206.376 141.316 220.1 139.53H220.33L222.19 139.28C244.42 136.305 266.301 131.133 287.51 123.84C294.84 121.35 302.17 118.59 309.33 115.64C309.104 110.957 310.495 106.339 313.27 102.56C318.33 95.56 327.65 91.1 340.98 89.3V62.17C327.65 60.37 318.33 55.91 313.27 48.91C310.495 45.1309 309.104 40.5128 309.33 35.83C302.17 32.83 294.84 30.12 287.52 27.63C266.311 20.3367 244.43 15.1647 222.2 12.19L220.34 11.94H220.1C206.377 10.1377 192.56 9.1526 178.72 8.99H171.26C157.421 9.13585 143.604 10.1042 129.88 11.89H129.64L127.78 12.14C105.552 15.1281 83.6747 20.3134 62.47 27.62C55.14 30.11 47.81 32.86 40.64 35.82C40.8656 40.5028 39.4745 45.1209 36.7 48.9C31.65 55.9 22.33 60.36 9 62.17V89.3C22.33 91.1 31.65 95.56 36.71 102.56C39.4845 106.339 40.8756 110.957 40.65 115.64Z" fill="black"/>
<path d="M175 149.48H171.2C157.08 149.317 142.981 148.316 128.98 146.48H128.74L126.84 146.23C104.15 143.193 81.8178 137.914 60.17 130.47C52.27 127.79 44.32 124.78 36.57 121.54L32.76 119.95L33.6 115.95C33.9488 112.582 32.9813 109.21 30.9 106.54C26.83 100.99 18.37 97.41 6.43 95.99L2 95.53V55.99L6.43 55.48C18.5 54.05 27 50.37 31 44.8C32.9806 42.1529 33.8976 38.8598 33.57 35.57L32.73 31.57L36.57 29.99C44.32 26.75 52.27 23.75 60.21 21.05C81.8467 13.5942 104.169 8.30165 126.85 5.25L128.74 4.99H129C143.001 3.15401 157.1 2.15225 171.22 1.99H178.81C192.92 2.15365 207.008 3.15541 221 4.99H221.24L223.14 5.24C245.829 8.27403 268.162 13.5498 289.81 20.99C297.71 23.67 305.66 26.68 313.41 29.92L317.22 31.51L316.39 35.51C316.021 38.8995 316.986 42.2996 319.08 44.99C323.15 50.46 331.62 54.07 343.56 55.44L348 55.99V95.53L343.57 96.04C331.63 97.41 323.17 101.04 319.09 106.49C316.995 109.18 316.034 112.581 316.41 115.97L317.25 119.97L313.43 121.49C305.68 124.73 297.73 127.74 289.79 130.43C268.152 137.869 245.829 143.145 223.15 146.18L221.26 146.43H221.02C207.019 148.266 192.92 149.268 178.8 149.43H175V149.48ZM43.67 113.64C50.18 116.28 56.81 118.76 63.43 121C84.4606 128.233 106.157 133.361 128.2 136.31L130.05 136.56H130.28C143.878 138.328 157.569 139.286 171.28 139.43H178.58C192.331 139.29 206.062 138.332 219.7 136.56H219.94L221.78 136.32C243.814 133.363 265.5 128.228 286.52 120.99C293.17 118.73 299.81 116.26 306.32 113.61C306.532 108.98 308.108 104.516 310.85 100.78C316.06 93.57 325.18 88.84 337.99 86.7V64.7C325.18 62.56 316.07 57.83 310.85 50.62C308.108 46.8836 306.532 42.4198 306.32 37.79C299.81 35.15 293.18 32.67 286.56 30.43C265.533 23.1982 243.84 18.0698 221.8 15.12L219.95 14.87H219.72C206.122 13.1022 192.431 12.1439 178.72 12H171.32C157.609 12.1439 143.918 13.1022 130.32 14.87H130.09L128.25 15.12C106.221 18.0681 84.538 23.1932 63.52 30.42C56.87 32.68 50.23 35.15 43.72 37.8C43.5082 42.4298 41.9321 46.8936 39.19 50.63C33.92 57.87 24.81 62.6 12 64.74V86.74C24.81 88.88 33.92 93.61 39.14 100.82C41.8808 104.553 43.4568 109.014 43.67 113.64Z" fill="#DD354B"/>
<path d="M175 151.48H171.18C156.98 151.322 142.801 150.32 128.72 148.48H128.48L126.57 148.23C103.747 145.173 81.2841 139.86 59.51 132.37C51.58 129.67 43.59 126.65 35.8 123.37L30.47 121.14L31.64 115.49C31.8739 112.685 31.038 109.895 29.3 107.68C25.56 102.68 17.57 99.33 6.2 98.02L0 97.31V54.16L6.2 53.45C17.7 52.13 25.73 48.74 29.41 43.63C31.0788 41.4161 31.8664 38.6615 31.62 35.9L30.46 30.32L35.79 28.09C43.58 24.84 51.57 21.81 59.55 19.09C81.3051 11.6093 103.748 6.30333 126.55 3.25L128.45 3H128.69C142.771 1.15934 156.95 0.157575 171.15 0H178.78C192.98 0.157881 207.159 1.15965 221.24 3H221.48L223.39 3.25C246.212 6.30774 268.676 11.6204 290.45 19.11C298.39 21.81 306.37 24.83 314.16 28.11L319.49 30.34L318.33 35.95C318.081 38.7707 318.914 41.5805 320.66 43.81C324.4 48.81 332.38 52.17 343.76 53.47L349.96 54.18V97.31L343.76 98.02C332.38 99.33 324.39 102.67 320.66 107.68C318.888 109.926 318.056 112.773 318.34 115.62L319.51 121.24L314.13 123.38C306.37 126.62 298.37 129.65 290.4 132.38C268.645 139.861 246.202 145.167 223.4 148.22L221.5 148.47H221.26C207.179 150.311 193 151.313 178.8 151.47H175V151.48ZM35.06 118.73L37.34 119.73C45.05 122.95 52.95 125.94 60.81 128.61C82.3372 136.016 104.546 141.268 127.11 144.29L129 144.54H129.24C143.169 146.352 157.194 147.334 171.24 147.48H178.79C192.836 147.334 206.861 146.352 220.79 144.54H221.03L222.91 144.29C245.457 141.273 267.649 136.027 289.16 128.63C297.06 125.94 304.97 122.95 312.68 119.73L314.97 118.82L314.47 116.42C313.961 112.475 315.04 108.489 317.47 105.34C321.88 99.42 330.82 95.53 343.32 94.09L345.98 93.78V57.78L343.32 57.47C330.82 56.03 321.88 52.15 317.47 46.22C315.054 43.0927 313.956 39.1454 314.41 35.22L314.92 32.77L312.64 31.77C304.93 28.55 297.04 25.56 289.17 22.89C267.645 15.4922 245.44 10.2466 222.88 7.23L221 6.99H220.77C206.841 5.17804 192.816 4.1963 178.77 4.05H171.22C157.174 4.19614 143.149 5.17787 129.22 6.99H129L127.12 7.24C104.574 10.254 82.3818 15.4963 60.87 22.89C53 25.58 45 28.57 37.34 31.79L35.06 32.79L35.56 35.21C36.0162 39.0426 34.9776 42.9036 32.66 45.99C28.3 51.99 19.31 55.99 6.66 57.44L4 57.72V93.72L6.66 94.03C19.16 95.47 28.1 99.35 32.51 105.28C34.9098 108.385 36.0105 112.3 35.58 116.2L35.06 118.73ZM175 141.48H171.28C157.475 141.329 143.69 140.357 130 138.57L127.91 138.29C105.738 135.322 83.9144 130.164 62.76 122.89C56.13 120.64 49.45 118.15 42.91 115.49L41.72 114.99L41.67 113.71C41.4676 109.481 40.0242 105.404 37.52 101.99C32.63 95.23 23.93 90.76 11.67 88.71L10 88.42V63.05L11.67 62.77C23.93 60.72 32.67 56.25 37.52 49.49C40.0279 46.07 41.4714 41.9863 41.67 37.75L41.72 36.47L42.91 35.99C49.45 33.33 56.15 30.84 62.82 28.57C83.9614 21.3009 105.771 16.1457 127.93 13.18L129.78 12.93H130.01C143.693 11.1332 157.471 10.1514 171.27 9.99H178.71C192.519 10.1405 206.307 11.1122 220 12.9L222.09 13.18C244.262 16.1479 266.086 21.3064 287.24 28.58C293.87 30.83 300.55 33.32 307.09 35.98L308.28 36.46L308.33 37.74C308.528 41.9764 309.972 46.0603 312.48 49.48C317.37 56.24 326.06 60.71 338.33 62.76L340 63.04V88.42L338.33 88.7C326.07 90.75 317.33 95.22 312.48 101.98C309.972 105.4 308.528 109.484 308.33 113.72L308.28 115L307.09 115.48C300.55 118.14 293.85 120.63 287.18 122.9C266.039 130.17 244.229 135.325 222.07 138.29L219.99 138.57C206.273 140.352 192.462 141.317 178.63 141.46H175V141.48ZM45.57 112.25C51.67 114.7 57.89 117.01 64.06 119.11C84.9675 126.299 106.536 131.398 128.45 134.33L130.52 134.61C144.048 136.371 157.669 137.326 171.31 137.47H178.57C192.241 137.328 205.892 136.373 219.45 134.61L221.51 134.34C243.41 131.41 264.966 126.315 285.86 119.13C292.08 117.02 298.31 114.71 304.41 112.26C304.857 107.702 306.518 103.348 309.22 99.65C314.51 92.33 323.51 87.43 335.98 85.06V66.42C323.51 64.06 314.51 59.15 309.22 51.83C306.518 48.1321 304.857 43.7777 304.41 39.22C298.31 36.77 292.09 34.46 285.91 32.36C265.003 25.1709 243.434 20.0726 221.52 17.14L219.45 16.87C205.926 15.1028 192.308 14.1411 178.67 13.99H171.31C157.672 14.1344 144.055 15.0894 130.53 16.85H130.3L128.47 17.09C106.569 20.0333 85.013 25.1416 64.12 32.34C57.9 34.45 51.67 36.76 45.57 39.22C45.122 43.7776 43.4611 48.1319 40.76 51.83C35.47 59.15 26.47 64.06 14 66.42V85.05C26.47 87.41 35.47 92.32 40.76 99.64C43.4615 103.338 45.1225 107.692 45.57 112.25Z" fill="black"/>
</svg>
