<svg width="1309" height="689" viewBox="0 0 1309 689" fill="none" xmlns="http://www.w3.org/2000/svg">
<path d="M1175.07 1.99714H2.93237V333.003H1175.07V1.99714Z" fill="#FCF7DA"/>
<path d="M1178 335H0V0H1178V335ZM5.86464 331.006H1172.14V3.99428H5.86464V331.006Z" fill="black"/>
<path d="M803.41 337H3.94995V686.48H803.41V337Z" fill="#F8DFBE"/>
<path d="M805.41 688.48H2V335H805.41V688.48ZM6 684.48H801.41V339H6V684.48Z" fill="black"/>
<path d="M682 337H617V686.48H682V337Z" fill="#DD354B"/>
<path d="M684 688.48H615V335H684V688.48ZM619 684.48H680V339H619V684.48Z" fill="black"/>
<path d="M559 337H494V686.48H559V337Z" fill="#DD354B"/>
<path d="M561 688.48H492V335H561V688.48ZM496 684.48H557V339H496V684.48Z" fill="black"/>
<path d="M436 337H371V686.48H436V337Z" fill="#DD354B"/>
<path d="M438 688.48H369V335H438V688.48ZM373 684.48H434V339H373V684.48Z" fill="black"/>
<path d="M313 337H248V686.48H313V337Z" fill="#DD354B"/>
<path d="M315 688.48H246V335H315V688.48ZM250 684.48H311V339H250V684.48Z" fill="black"/>
<path d="M190 337H125V686.48H190V337Z" fill="#DD354B"/>
<path d="M192 688.48H123V335H192V688.48ZM127 684.48H188V339H127V684.48Z" fill="black"/>
<path d="M67 337H2V686.48H67V337Z" fill="#DD354B"/>
<path d="M69 688.48H0V335H69V688.48ZM4 684.48H65V339H4V684.48Z" fill="black"/>
<path d="M1542.41 337H742.95V686.48H1542.41V337Z" fill="#F8DFBE"/>
<path d="M1544.41 688.48H741V335H1544.41V688.48ZM745 684.48H1540.41V339H745V684.48Z" fill="black"/>
<path d="M1298 337H1233V686.48H1298V337Z" fill="#DD354B"/>
<path d="M1300 688.48H1231V335H1300V688.48ZM1235 684.48H1296V339H1235V684.48Z" fill="black"/>
<path d="M1175 337H1110V686.48H1175V337Z" fill="#DD354B"/>
<path d="M1177 688.48H1108V335H1177V688.48ZM1112 684.48H1173V339H1112V684.48Z" fill="black"/>
<path d="M1052 337H987V686.48H1052V337Z" fill="#DD354B"/>
<path d="M1054 688.48H985V335H1054V688.48ZM989 684.48H1050V339H989V684.48Z" fill="black"/>
<path d="M929 337H864V686.48H929V337Z" fill="#DD354B"/>
<path d="M931 688.48H862V335H931V688.48ZM866 684.48H927V339H866V684.48Z" fill="black"/>
<path d="M806 337H741V686.48H806V337Z" fill="#DD354B"/>
<path d="M808 688.48H739V335H808V688.48ZM743 684.48H804V339H743V684.48Z" fill="black"/>
</svg>
