<svg width="25" height="70" viewBox="0 0 25 70" fill="none" xmlns="http://www.w3.org/2000/svg">
<g opacity="0.5">
<g opacity="0.5">
<path opacity="0.5" d="M14.551 1.22218C15.4869 1.5897 16.1322 2.30766 16.7775 3.03417C17.4423 3.71301 17.9742 4.5102 18.3459 5.38462C18.6367 6.17318 18.7599 7.01369 18.7076 7.85253C18.6554 8.69136 18.4289 9.51009 18.0425 10.2565C17.6077 11.0995 17.063 11.8813 16.4228 12.5813C14.9228 14.3463 13.3501 16.0429 11.7219 17.7096C10.6953 18.7155 10.0195 20.025 9.79453 21.4447C9.62896 22.5478 9.75568 23.6751 10.1621 24.7139L10.2005 24.825C10.2005 24.825 10.2005 24.825 10.2005 24.8592C9.78787 24.7497 9.38483 24.6068 8.99538 24.4319C7.89553 23.9987 6.9163 23.3068 6.14064 22.4148C5.49651 21.6841 5.16638 20.729 5.22183 19.7566C5.30011 18.956 5.59566 18.192 6.07654 17.5472C6.72452 16.679 7.51838 15.9299 8.42272 15.3335C10.1749 14.0713 11.9327 12.8064 13.6963 11.5385C14.7379 10.839 15.6407 9.95214 16.3587 8.92313C16.702 8.41619 16.9118 7.83079 16.9685 7.22119C17.0253 6.61159 16.9273 5.99752 16.6835 5.4359C16.6536 5.36325 16.6151 5.2906 16.5596 5.17949L16.41 5.63676C16.1199 6.68251 15.6148 7.65625 14.9271 8.49577C14.2889 9.18867 13.5815 9.81444 12.8159 10.3633C11.0999 11.6728 9.27073 12.8269 7.35006 13.8121C7.07817 13.9508 6.79144 14.0584 6.49535 14.1326C6.41717 14.1539 6.33695 14.1668 6.25603 14.1711C6.11928 14.1711 5.95688 14.2052 5.89278 14.03C5.86878 13.9589 5.86739 13.8821 5.88882 13.8102C5.91025 13.7382 5.95343 13.6747 6.01244 13.6283C6.58082 13.0642 7.14066 12.4915 7.72186 11.9189C9.0723 10.6069 10.4826 9.35476 11.8886 8.10688C13.0729 7.09823 13.8779 5.71588 14.1707 4.18803C14.3392 3.30624 14.2982 2.39719 14.051 1.53415C14.024 1.47369 14.0196 1.4056 14.0384 1.34213C14.0572 1.27867 14.098 1.224 14.1536 1.18799L14.551 1.22218Z" fill="#452919"/>
</g>
<g opacity="0.5">
<path opacity="0.5" d="M9.34606 67.6803C9.38879 66.676 9.41871 65.7102 9.46999 64.7486C9.49991 64.2144 9.52555 63.676 9.55119 63.1418C9.59392 62.2871 9.64093 61.3896 9.67512 60.5093C9.69649 59.9665 9.72641 59.4238 9.75205 58.881C9.79478 58.0263 9.84179 57.1374 9.87598 56.2699C9.87598 55.7272 9.93154 55.1844 9.9529 54.6417C9.97427 54.0989 10.017 53.5733 10.0341 53.0348C10.0387 52.9487 10.0192 52.8631 9.97764 52.7876C9.9361 52.712 9.87423 52.6496 9.79906 52.6075C9.23459 52.2373 8.71163 51.8075 8.23921 51.3254C7.27971 50.3909 6.63454 49.1812 6.39303 47.8638C6.18363 46.7185 5.91866 45.586 5.64943 44.445C5.3802 43.3039 5.11951 42.3082 4.79472 41.227C4.29959 39.7307 3.60838 38.3066 2.73914 36.9919C2.11805 36.0204 1.49981 35.046 0.884413 34.0688C0.807489 33.9448 0.653641 33.7824 0.777574 33.6414C0.901507 33.5004 1.04253 33.6841 1.16219 33.7568C1.68763 34.0927 2.18757 34.467 2.65794 34.8765C3.22205 35.338 3.78189 35.8124 4.34172 36.2825C5.37727 37.1172 6.17103 38.2134 6.6409 39.4577C7.04261 40.556 7.34176 41.68 7.68792 42.7954C8.06876 44.1462 8.57229 45.4594 9.19221 46.7185C9.57782 47.5035 10.092 48.2185 10.7136 48.8339C11.1468 49.2595 11.712 49.5248 12.3162 49.5861C12.9085 49.6667 13.5117 49.5946 14.0683 49.3766C14.5104 49.1753 14.8974 48.8704 15.1966 48.4877C16.3291 47.1629 16.906 45.5689 17.4573 43.945C17.8846 42.6372 18.218 41.3039 18.624 39.9919C18.9397 38.8284 19.5337 37.7592 20.3547 36.8765C20.8932 36.3295 21.483 35.8466 22.0642 35.338C22.6454 34.8295 23.2223 34.3209 23.8377 33.8594C24.0274 33.7089 24.2322 33.5786 24.4488 33.4705C24.5044 33.4448 24.5642 33.4064 24.6198 33.4491C24.6405 33.476 24.6518 33.5091 24.6518 33.5431C24.6518 33.5771 24.6405 33.6102 24.6198 33.6371C24.5462 33.7957 24.4634 33.9498 24.3719 34.0987C23.6454 35.291 22.889 36.462 22.1924 37.6714C21.5102 38.862 20.9777 40.1323 20.6069 41.4535C20.077 43.2954 19.7094 45.1715 19.3248 47.0433C19.2094 47.5989 19.1325 48.163 18.9701 48.71C18.7364 49.4473 18.362 50.1323 17.8675 50.7271C17.2734 51.4567 16.5682 52.0884 15.7778 52.5989C15.717 52.6332 15.6691 52.6864 15.6413 52.7505C15.6136 52.8145 15.6074 52.8858 15.6239 52.9536C15.6666 53.1972 15.6496 53.4451 15.6709 53.6972C15.7222 54.2656 15.7265 54.834 15.7649 55.4066C15.829 56.2913 15.8803 57.1716 15.9316 58.0562C15.9701 58.6759 16.0128 59.2999 16.047 59.9195C16.0983 60.817 16.1453 61.7101 16.2137 62.6076C16.2607 63.2273 16.2949 63.8512 16.3291 64.4709C16.3803 65.3769 16.4273 66.2786 16.5 67.1803C16.5 67.394 16.5299 67.6076 16.5299 67.8213C16.5374 68.0274 16.4848 68.2313 16.3786 68.408C16.2724 68.5848 16.1171 68.7269 15.9316 68.8171C15.3959 69.0845 14.8172 69.2552 14.2222 69.3214C13.8504 69.3769 13.4786 69.4025 13.1068 69.441C12.7984 69.4527 12.4897 69.4384 12.1837 69.3983C11.6155 69.3675 11.0538 69.2626 10.5127 69.0863C10.2795 69.0226 10.0565 68.9262 9.85034 68.8C9.66713 68.682 9.52201 68.5134 9.43252 68.3148C9.34303 68.1161 9.313 67.8957 9.34606 67.6803Z" fill="#452919"/>
</g>
<g opacity="0.5">
<path opacity="0.5" d="M15.474 34.8211C15.8672 34.5476 16.2689 34.2783 16.6535 33.9963C18.4142 32.7142 20.145 31.3638 21.816 29.9578C22.7394 29.2366 23.4426 28.2714 23.8459 27.1714C23.9742 26.7327 24.0643 26.2837 24.1152 25.8295C24.1217 25.7122 24.1515 25.5974 24.2028 25.4917C24.2542 25.3861 24.3261 25.2917 24.4143 25.2141C24.5299 25.5557 24.6031 25.9102 24.6323 26.2697C24.7976 27.4013 24.7273 28.5548 24.4258 29.6579C24.1243 30.761 23.5981 31.7899 22.8801 32.68C21.9088 33.8465 20.7201 34.8131 19.3801 35.5262C17.9624 36.3168 16.4273 36.8752 14.833 37.1801C14.5692 37.2379 14.2973 37.2495 14.0296 37.2143C13.8274 37.1887 13.6386 37.0997 13.4904 36.9599C13.3421 36.8201 13.2421 36.6368 13.2048 36.4365C13.1113 36.023 13.0682 35.5997 13.0766 35.1758C13.0152 33.674 13.2579 32.1753 13.7903 30.7697C14.3372 29.409 15.1743 28.184 16.2433 27.18C17.2689 26.1842 18.3801 25.2868 19.4314 24.3295C20.5584 23.3312 21.4427 22.0888 22.0169 20.697C22.0169 20.6457 22.0596 20.5987 22.0852 20.5517C22.1109 20.5047 22.2134 20.4192 22.3075 20.5089C22.9909 21.1229 23.4321 21.9612 23.5511 22.8722C23.6425 23.7646 23.5368 24.6662 23.2414 25.5132C22.9461 26.3602 22.4682 27.132 21.8416 27.774C20.5339 29.2056 19.1792 30.5903 17.8288 31.9792C17.0075 32.8492 16.2329 33.7622 15.5082 34.7142C15.4911 34.739 15.4754 34.7646 15.4612 34.7912L15.4911 34.8168" fill="#452919"/>
</g>
<g opacity="0.5">
<path opacity="0.5" d="M0.986633 25.3977C1.07866 25.4716 1.15376 25.5644 1.20684 25.6699C1.25992 25.7753 1.28976 25.8909 1.29433 26.0088C1.45245 27.8208 2.43964 29.1371 3.80291 30.2183C5.83712 31.8294 7.88416 33.4235 10.0551 34.8508L10.162 34.8978C9.78589 34.4363 9.44828 34.0175 9.10212 33.6158C8.07647 32.3807 6.89696 31.2952 5.77729 30.1542C4.92258 29.2995 4.06787 28.4448 3.28581 27.5388C2.25608 26.3703 1.72256 24.8464 1.79861 23.2908C1.84943 22.2911 2.28422 21.3496 3.0123 20.6626C3.13623 20.5387 3.20034 20.5558 3.28581 20.7481C3.60831 21.5074 4.02158 22.2249 4.51659 22.8849C5.26026 23.7977 6.10626 24.6222 7.03799 25.3422C8.29664 26.3034 9.44344 27.4029 10.4568 28.62C11.5297 30.0263 12.1924 31.7022 12.3714 33.4619C12.4743 34.3129 12.4886 35.1722 12.4141 36.0261C12.4 36.1707 12.3728 36.3137 12.3329 36.4534C12.2921 36.6751 12.1729 36.8747 11.9972 37.0159C11.8215 37.1571 11.6009 37.2305 11.3757 37.2226C10.8235 37.2227 10.2745 37.1391 9.74743 36.9748C7.46333 36.45 5.34651 35.363 3.58923 33.8124C2.59599 32.9506 1.82101 31.8658 1.32778 30.6468C0.834551 29.4279 0.637095 28.1094 0.751587 26.7994C0.776804 26.3248 0.855655 25.8546 0.986633 25.3977Z" fill="#452919"/>
</g>
<g opacity="0.5">
<path opacity="0.5" d="M10.7352 20.56C10.9659 20.7523 11.1924 20.9404 11.436 21.107C12.1051 21.5877 12.8809 21.8986 13.6967 22.013C14.1985 22.0742 14.7075 22.0298 15.191 21.8826C15.6746 21.7354 16.122 21.4887 16.5045 21.1583L16.7182 20.9745L16.7994 20.8848C16.4674 21.0212 16.1149 21.1007 15.7566 21.1198C15.1771 21.1408 14.5994 21.0437 14.0587 20.8343C13.518 20.6249 13.0255 20.3077 12.6113 19.9019C12.5127 19.8093 12.4387 19.6936 12.3962 19.5653C12.3537 19.4369 12.3439 19.2999 12.3677 19.1668C12.4955 18.3238 12.8618 17.535 13.4232 16.8933C13.7224 16.5258 13.7267 16.53 14.0344 16.8933C14.357 17.2645 14.7416 17.5768 15.1711 17.8164C15.56 18.0475 16.0051 18.167 16.4574 18.1617C16.9097 18.1564 17.3519 18.0266 17.7353 17.7865C18.3082 17.4319 18.805 16.9671 19.1968 16.4189C19.3635 16.2052 19.3934 16.2052 19.5259 16.4189C20.0321 17.2363 20.3164 18.1714 20.3509 19.1322C20.3853 20.093 20.1688 21.0461 19.7225 21.8976C18.8421 23.6583 17.3378 24.5942 15.4489 24.9319C14.7446 25.0741 14.0201 25.0842 13.3121 24.9618C12.7201 24.8597 12.1719 24.5836 11.7373 24.1688C11.3028 23.7541 11.0015 23.2193 10.8719 22.6327C10.6999 22.029 10.6448 21.398 10.7095 20.7737C10.7138 20.7263 10.7209 20.6792 10.7309 20.6327C10.7309 20.6327 10.7309 20.5985 10.7651 20.5728" fill="#452919"/>
</g>
<g opacity="0.5">
<path opacity="0.5" d="M12.7647 40.4193C13.2342 40.4207 13.6988 40.5146 14.1319 40.6955C14.5651 40.8765 14.9584 41.141 15.2894 41.4739C15.6204 41.8069 15.8825 42.2017 16.0608 42.636C16.2392 43.0703 16.3303 43.5354 16.3289 44.0048C16.3275 44.4743 16.2336 44.9389 16.0527 45.3721C15.8717 45.8052 15.6072 46.1985 15.2743 46.5295C14.9413 46.8605 14.5465 47.1226 14.1122 47.301C13.6779 47.4793 13.2128 47.5704 12.7434 47.569C11.7953 47.5662 10.8871 47.1868 10.2187 46.5144C9.5503 45.842 9.17638 44.9316 9.17922 43.9835C9.18205 43.0354 9.5614 42.1272 10.2338 41.4588C10.9062 40.7904 11.8166 40.4165 12.7647 40.4193Z" fill="#452919"/>
</g>
</g>
<path d="M14.5511 0C15.487 0.367526 16.1323 1.08548 16.7776 1.81199C17.4426 2.49071 17.9745 3.28793 18.346 4.16245C18.6386 4.95373 18.7624 5.79749 18.7094 6.63947C18.6564 7.48146 18.4278 8.30304 18.0383 9.0514C17.6034 9.89439 17.0587 10.6761 16.4187 11.3762C14.9186 13.1369 13.346 14.8335 11.7178 16.5045C10.6909 17.5102 10.0151 18.8199 9.79038 20.2396C9.63214 21.3432 9.76623 22.469 10.1793 23.5046L10.2177 23.6157C10.2177 23.6157 10.2177 23.6157 10.2177 23.6499C9.80509 23.5404 9.40204 23.3974 9.01259 23.2225C7.91258 22.7896 6.93328 22.0977 6.15786 21.2054C5.51372 20.4748 5.18359 19.5197 5.23904 18.5472C5.31754 17.7467 5.61306 16.9828 6.09375 16.3378C6.73441 15.4632 7.52256 14.7068 8.42284 14.1027C10.1807 12.8406 11.9414 11.5813 13.705 10.3249C14.7468 9.62556 15.6496 8.7387 16.3674 7.7095C16.7107 7.20256 16.9204 6.61716 16.9772 6.00756C17.034 5.39796 16.9359 4.78389 16.6922 4.22228C16.6623 4.14963 16.6238 4.07697 16.5682 3.96586L16.4187 4.41886C16.1288 5.4647 15.6237 6.43849 14.9357 7.27787C14.2977 7.97088 13.5903 8.59666 12.8246 9.14541C11.1052 10.4602 9.27162 11.6187 7.3459 12.607C7.07393 12.7456 6.78722 12.8531 6.49119 12.9275C6.41298 12.9487 6.33277 12.9616 6.25187 12.966C6.11512 12.966 5.95272 13.0002 5.88862 12.8249C5.86558 12.7544 5.8647 12.6785 5.8861 12.6075C5.90749 12.5364 5.95013 12.4736 6.00828 12.4275C6.57666 11.8634 7.1365 11.2907 7.7177 10.7181C9.06815 9.4061 10.4784 8.15395 11.8844 6.90607C13.0679 5.89851 13.8728 4.5178 14.1665 2.99149C14.3338 2.11247 14.2929 1.20648 14.0468 0.346158C14.0199 0.285702 14.0154 0.217609 14.0342 0.154144C14.053 0.0906803 14.0939 0.0360167 14.1494 0L14.5511 0Z" fill="#F09C00"/>
<path d="M9.34606 66.458C9.38879 65.4537 9.41871 64.4879 9.46999 63.5263C9.49991 62.9879 9.52555 62.4537 9.55119 61.9195C9.59392 61.0434 9.64093 60.1631 9.67512 59.287C9.69649 58.7442 9.72641 58.2015 9.75205 57.6587C9.79478 56.804 9.84179 55.9194 9.87598 55.0476C9.87598 54.5049 9.93153 53.9621 9.9529 53.4237C9.97427 52.8852 10.017 52.3553 10.0341 51.8168C10.0387 51.7307 10.0192 51.6451 9.97764 51.5695C9.9361 51.494 9.87423 51.4316 9.79906 51.3894C9.23475 51.0191 8.7118 50.5893 8.23921 50.1074C7.28183 49.1736 6.63819 47.9655 6.3973 46.6501C6.1879 45.5048 5.92294 44.3723 5.6537 43.2312C5.38447 42.0902 5.12378 41.0731 4.79899 40.0132C4.30331 38.5137 3.61063 37.0867 2.73914 35.7696C2.11805 34.7981 1.49981 33.8237 0.884413 32.8465C0.807489 32.7225 0.653641 32.5601 0.777574 32.4191C0.901507 32.2781 1.04253 32.4618 1.16219 32.5345C1.68725 32.871 2.18715 33.2452 2.65794 33.6542C3.22205 34.1328 3.78189 34.6157 4.33745 35.073C5.37345 35.9073 6.16731 37.0036 6.63662 38.2482C7.03834 39.3466 7.33749 40.4748 7.68364 41.5859C8.06453 42.9367 8.56806 44.2499 9.18794 45.509C9.57369 46.294 10.0879 47.009 10.7093 47.6244C11.1429 48.0495 11.7079 48.3147 12.3119 48.3766C12.9043 48.4564 13.5072 48.3844 14.0641 48.1672C14.5061 47.9659 14.8931 47.661 15.1923 47.2783C16.3248 45.9535 16.9017 44.3594 17.453 42.7355C17.8804 41.4278 18.2137 40.0944 18.6197 38.7824C18.9352 37.6189 19.5292 36.5496 20.3505 35.667C20.8889 35.12 21.4787 34.6371 22.0599 34.1328C22.6411 33.6285 23.218 33.1157 23.8334 32.6499C24.0234 32.4999 24.2282 32.3696 24.4445 32.261C24.5001 32.2353 24.5599 32.1969 24.6155 32.2396C24.6363 32.2666 24.6475 32.2996 24.6475 32.3336C24.6475 32.3677 24.6363 32.4007 24.6155 32.4277C24.5477 32.5915 24.4707 32.7513 24.3847 32.9063C23.6582 34.0986 22.9018 35.2696 22.2052 36.479C21.5198 37.6651 20.983 38.931 20.6069 40.2483C20.077 42.0902 19.7094 43.9663 19.3248 45.8381C19.2094 46.3937 19.1325 46.9578 18.9701 47.5048C18.7364 48.2421 18.362 48.9271 17.8675 49.5219C17.2734 50.2515 16.5682 50.8832 15.7778 51.3937C15.717 51.428 15.6691 51.4812 15.6413 51.5453C15.6136 51.6093 15.6074 51.6806 15.6239 51.7484C15.6666 51.992 15.6496 52.2442 15.6709 52.4877C15.7222 53.0561 15.7265 53.6245 15.7649 54.1972C15.829 55.0775 15.8803 55.9621 15.9316 56.8425C15.9701 57.4664 16.0128 58.0861 16.047 58.7058C16.0983 59.6032 16.1453 60.5007 16.2137 61.3938C16.2607 62.0135 16.2949 62.6374 16.3291 63.2614C16.3803 64.1631 16.4273 65.0648 16.5 65.9665C16.5 66.1802 16.5299 66.3939 16.5299 66.6119C16.5374 66.818 16.4848 67.0218 16.3786 67.1986C16.2724 67.3753 16.1171 67.5174 15.9316 67.6076C15.3954 67.8737 14.817 68.0443 14.2222 68.1119C13.8504 68.1674 13.4786 68.1931 13.1068 68.2315C12.7984 68.2438 12.4896 68.2295 12.1837 68.1888C11.6153 68.1594 11.0534 68.0545 10.5127 67.8768C10.2795 67.8131 10.0565 67.7167 9.85034 67.5905C9.66751 67.4721 9.52271 67.3035 9.43326 67.1049C9.34382 66.9064 9.31355 66.6862 9.34606 66.4708" fill="#F8F8F9"/>
<path d="M15.4743 33.5988C15.8674 33.3252 16.2692 33.056 16.6538 32.774C18.4145 31.4919 20.1453 30.1414 21.8162 28.7354C22.74 28.0146 23.4432 27.0493 23.8462 25.9491C23.9744 25.5104 24.0645 25.0614 24.1154 24.6072C24.133 24.3784 24.2387 24.1654 24.4103 24.0132C24.5257 24.3548 24.5989 24.7093 24.6282 25.0687C24.7936 26.2003 24.7233 27.3538 24.4218 28.4569C24.1203 29.56 23.594 30.5889 22.8761 31.4791C21.9045 32.6453 20.7159 33.6119 19.376 34.3253C17.9583 35.1067 16.4246 35.6564 14.8332 35.9535C14.5694 36.0109 14.2976 36.0225 14.0298 35.9877C13.8277 35.9621 13.6388 35.8731 13.4906 35.7333C13.3424 35.5935 13.2424 35.4102 13.205 35.2099C13.1116 34.7964 13.0685 34.3731 13.0768 33.9492C13.0107 32.4469 13.2491 30.9467 13.7777 29.5389C14.3251 28.1796 15.1622 26.9561 16.2307 25.9534C17.2563 24.9576 18.3675 24.0602 19.4188 23.1029C20.5458 22.1046 21.4301 20.8622 22.0043 19.4704C22.0245 19.4208 22.0474 19.3723 22.0726 19.3251C22.1282 19.2182 22.2009 19.1883 22.2949 19.2823C22.9784 19.8963 23.4195 20.7346 23.5385 21.6456C23.6299 22.538 23.5242 23.4396 23.2289 24.2866C22.9335 25.1336 22.4556 25.9054 21.8291 26.5474C20.5171 27.979 19.1624 29.3637 17.8247 30.7697C17.0032 31.641 16.2286 32.5554 15.5042 33.509C15.4869 33.5336 15.4712 33.5593 15.4572 33.5859L15.4871 33.6158" fill="#4197D3"/>
<path d="M0.98689 24.1757C1.07992 24.249 1.15597 24.3416 1.20982 24.4471C1.26367 24.5525 1.29405 24.6684 1.29886 24.7868C1.45698 26.5945 2.44417 27.915 3.80744 28.992C5.84165 30.6031 7.88869 32.1971 10.0597 33.6245L10.1665 33.6715C9.79042 33.21 9.45281 32.7912 9.10665 32.3894C8.081 31.1587 6.90149 30.0732 5.78182 28.9279C4.92711 28.0732 4.0724 27.2184 3.29034 26.3167C2.26105 25.1478 1.72626 23.6246 1.79887 22.0688C1.85077 21.0706 2.28547 20.1308 3.01256 19.4448C3.13649 19.3209 3.20059 19.338 3.28606 19.5303C3.6086 20.2896 4.02187 21.0071 4.51685 21.6671C5.26074 22.5798 6.10672 23.4042 7.03825 24.1244C8.2969 25.0856 9.44369 26.1851 10.4571 27.4022C11.533 28.8105 12.1972 30.4895 12.3759 32.2527C12.4788 33.1036 12.4931 33.9629 12.4187 34.8168C12.4043 34.9614 12.3771 35.1044 12.3375 35.2442C12.2966 35.4659 12.1775 35.6655 12.0018 35.8067C11.8261 35.9479 11.6055 36.0213 11.3802 36.0134C10.828 36.0134 10.2791 35.9299 9.75196 35.7656C7.46792 35.2406 5.35115 34.1536 3.59376 32.6031C2.5979 31.7405 1.821 30.6538 1.32694 29.4324C0.83289 28.211 0.635788 26.8898 0.751844 25.5774C0.777024 25.1028 0.855875 24.6325 0.98689 24.1757Z" fill="#52B162"/>
<path d="M10.7349 19.338C10.9657 19.5303 11.1922 19.7183 11.4358 19.885C12.105 20.3653 12.8808 20.6762 13.6965 20.791C14.1982 20.8522 14.7072 20.8078 15.1908 20.6606C15.6743 20.5134 16.1217 20.2666 16.5042 19.9363L16.7179 19.7525L16.7991 19.6585C16.4671 19.7945 16.1146 19.8739 15.7564 19.8935C15.1769 19.9145 14.5992 19.8174 14.0584 19.608C13.5177 19.3986 13.0252 19.0813 12.611 18.6756C12.5124 18.583 12.4385 18.4673 12.396 18.3389C12.3534 18.2106 12.3436 18.0736 12.3674 17.9405C12.4953 17.0975 12.8615 16.3086 13.423 15.667C13.7221 15.2994 13.7264 15.3037 14.0341 15.667C14.3571 16.0378 14.7417 16.3501 15.1709 16.5901C15.5599 16.8207 16.0049 16.9399 16.4571 16.9346C16.9094 16.9294 17.3515 16.7998 17.735 16.5601C18.3081 16.2058 18.805 15.7409 19.1966 15.1926C19.3632 14.9789 19.3932 14.9789 19.5256 15.1926C20.0322 16.0098 20.3168 16.945 20.3513 17.9059C20.3858 18.8667 20.1689 19.8199 19.7222 20.6713C18.8419 22.4363 17.3376 23.3679 15.4487 23.7055C14.7445 23.8484 14.0198 23.8585 13.3119 23.7354C12.7196 23.6339 12.1711 23.358 11.7365 22.9432C11.3018 22.5283 11.0007 21.9932 10.8717 21.4064C10.6996 20.8027 10.6445 20.1717 10.7093 19.5474C10.7136 19.5 10.7208 19.4529 10.7307 19.4063C10.7307 19.4063 10.7307 19.3721 10.7648 19.3465" fill="#E14030"/>
<path d="M12.7648 39.197C13.7123 39.1999 14.6199 39.579 15.2879 40.251C15.9559 40.923 16.3296 41.8329 16.3268 42.7804C16.324 43.728 15.9448 44.6356 15.2728 45.3036C14.6008 45.9716 13.691 46.3453 12.7434 46.3424C12.2743 46.341 11.8099 46.2472 11.377 46.0664C10.9441 45.8855 10.551 45.6212 10.2203 45.2885C9.55227 44.6164 9.17858 43.7066 9.18141 42.759C9.18425 41.8115 9.56337 40.9039 10.2354 40.2359C10.9074 39.5679 11.8173 39.1942 12.7648 39.197Z" fill="#F8F8F9"/>
</svg>
