<svg width="1119" height="845" viewBox="0 0 1119 845" fill="none" xmlns="http://www.w3.org/2000/svg">
<path opacity="0.3" d="M794.5 845L887.5 290.5L828.5 181.5L0 280L794.5 845Z" fill="#FFC929"/>
<path d="M918.69 362.376L1090.48 360.526L1095.68 367.136H912.75L918.69 362.376Z" fill="#990404"/>
<path d="M1098.76 368.636H908.48L918.15 360.886H918.67L1091.2 359.026L1098.76 368.636ZM917 365.636H1092.59L1089.76 362.036L919.22 363.866L917 365.636Z" fill="black"/>
<path d="M917.77 363.297L1005.88 399.727V408.036L912.75 367.137L917.77 363.297Z" fill="#FF3600"/>
<path d="M1007.38 410.336L909.82 367.486L917.54 361.586L1007.37 398.726L1007.38 410.336ZM915.68 366.776L1004.37 405.776V400.776L918 365.016L915.68 366.776Z" fill="black"/>
<path d="M894.41 413.576L890.35 412.816L975.33 194.056L989.35 195.156L894.41 413.576Z" fill="#990404"/>
<path d="M895.31 415.266L888.31 413.946L974.31 192.466L991.54 193.816L895.31 415.266ZM892.41 411.666L893.51 411.876L987.14 196.476L976.33 195.636L892.41 411.666Z" fill="black"/>
<path d="M1113.38 414.087L1117.44 412.337L1029.6 195.906L1015.58 196.076L1113.38 414.087Z" fill="#990404"/>
<path d="M1112.62 416.056L1112.01 414.706L1013.27 194.606L1030.6 194.396L1119.37 413.126L1112.62 416.056ZM1017.89 197.546L1114.15 412.126L1115.5 411.536L1028.6 197.416L1017.89 197.546Z" fill="black"/>
<path d="M967.39 200.086C969.694 207.514 974.314 214.01 980.575 218.623C986.835 223.236 994.408 225.725 1002.19 225.725C1009.96 225.725 1017.53 223.236 1023.8 218.623C1030.06 214.01 1034.68 207.514 1036.98 200.086H967.39Z" fill="#990404"/>
<path d="M1002.18 227.266C994.078 227.285 986.185 224.695 979.669 219.879C973.153 215.063 968.36 208.278 966 200.526L965.4 198.586H1039L1038.4 200.526C1036.04 208.284 1031.24 215.074 1024.72 219.891C1018.19 224.707 1010.29 227.294 1002.18 227.266ZM969.48 201.626C971.979 208.28 976.448 214.013 982.291 218.061C988.134 222.108 995.072 224.276 1002.18 224.276C1009.29 224.276 1016.23 222.108 1022.07 218.061C1027.91 214.013 1032.38 208.28 1034.88 201.626H969.48Z" fill="black"/>
<path d="M1006.12 460.146L1011.59 459.816L1013.55 220.816L994.51 220.776L1006.12 460.146Z" fill="#FF3600"/>
<path d="M1004.69 461.736L992.94 219.266H1015.06V220.776L1013.06 461.176L1004.69 461.736ZM996.09 222.266L1007.55 458.536L1010.11 458.386L1012 222.266H996.09Z" fill="black"/>
<path d="M1004.03 230.076C1009.29 230.076 1013.55 225.913 1013.55 220.776C1013.55 215.64 1009.29 211.476 1004.03 211.476C998.772 211.476 994.51 215.64 994.51 220.776C994.51 225.913 998.772 230.076 1004.03 230.076Z" fill="#474747"/>
<path d="M1004 231.576C1001.87 231.537 999.805 230.87 998.055 229.66C996.306 228.45 994.953 226.749 994.166 224.773C993.379 222.796 993.193 220.631 993.633 218.55C994.072 216.468 995.116 214.562 996.634 213.072C998.152 211.581 1000.08 210.572 1002.17 210.172C1004.25 209.771 1006.42 209.996 1008.38 210.819C1010.34 211.642 1012.01 213.026 1013.19 214.798C1014.37 216.569 1015 218.649 1015 220.776C1014.97 223.666 1013.79 226.425 1011.73 228.449C1009.67 230.473 1006.89 231.598 1004 231.576ZM1004 212.986C1002.47 213.026 1000.98 213.516 999.722 214.397C998.466 215.278 997.498 216.509 996.938 217.938C996.378 219.366 996.252 220.927 996.575 222.427C996.898 223.927 997.656 225.298 998.755 226.369C999.853 227.44 1001.24 228.163 1002.75 228.448C1004.26 228.733 1005.82 228.567 1007.23 227.972C1008.64 227.376 1009.85 226.376 1010.7 225.098C1011.55 223.82 1012 222.321 1012 220.786C1011.97 218.691 1011.11 216.693 1009.61 215.229C1008.11 213.765 1006.1 212.955 1004 212.976V212.986Z" fill="black"/>
<path d="M1089.74 362.376L1012.71 399.726V407.116L1091.06 367.136L1089.74 362.376Z" fill="#FF3600"/>
<path d="M1011.21 409.566V398.786L1090.7 360.266L1092.83 367.936L1011.21 409.566ZM1014.21 400.666V404.666L1089.28 366.356L1088.77 364.516L1014.21 400.666Z" fill="black"/>
<path d="M911.01 175.186L891.835 187.034L918.947 230.914L938.122 219.066L911.01 175.186Z" fill="#990404"/>
<path d="M940.18 219.566L918.45 232.986L889.77 186.556L911.49 173.136L940.18 219.566ZM919.43 228.856L936 218.596L910.52 177.266L893.9 187.526L919.43 228.856Z" fill="black"/>
<path d="M1058.68 86.3144L1036.68 99.9069L1049.19 120.154L1071.19 106.562L1058.68 86.3144Z" fill="#990404"/>
<path d="M1073.26 107.066L1048.7 122.266L1034.61 99.4665L1059.17 84.2665L1073.26 107.066ZM1049.68 118.066L1069.13 106.066L1058.2 88.3665L1038.75 100.366L1049.68 118.066Z" fill="black"/>
<path d="M1082.5 109.086L1066.35 113.096L1049.02 85.0365L1062.5 76.7065L1082.5 109.086Z" fill="#FF3600"/>
<path d="M1084.86 110.046L1065.65 114.816L1047 84.5465L1063 74.6465L1084.86 110.046ZM1067.06 111.376L1080.15 108.126L1062 78.7765L1051.07 85.5265L1067.06 111.376Z" fill="black"/>
<path d="M1020.11 89.4752L910.393 157.264C903.886 161.285 901.87 169.82 905.89 176.327L941.023 233.189C945.043 239.696 953.578 241.712 960.085 237.691L1069.8 169.902C1076.31 165.882 1078.33 157.347 1074.31 150.84L1039.17 93.9779C1035.15 87.4706 1026.62 85.4547 1020.11 89.4752Z" fill="#FF3600"/>
<path d="M1070.58 171.206L960.87 238.986C957.404 241.121 953.232 241.794 949.271 240.856C945.31 239.919 941.882 237.448 939.74 233.986L904.61 177.126C902.475 173.66 901.803 169.489 902.74 165.528C903.678 161.566 906.148 158.138 909.61 155.996L1019.31 88.2665C1022.78 86.1319 1026.95 85.4595 1030.91 86.3969C1034.87 87.3342 1038.3 89.8048 1040.44 93.2665L1075.57 150.126C1077.69 153.587 1078.35 157.746 1077.42 161.695C1076.49 165.644 1074.03 169.063 1070.58 171.206ZM911.18 158.546C908.4 160.274 906.417 163.034 905.668 166.22C904.918 169.407 905.462 172.76 907.18 175.546L942.31 232.406C944.038 235.187 946.797 237.169 949.984 237.919C953.17 238.669 956.524 238.125 959.31 236.406L1069 168.656C1071.78 166.929 1073.76 164.169 1074.51 160.983C1075.26 157.796 1074.72 154.443 1073 151.656L1037.89 94.7865C1036.16 92.0061 1033.4 90.0238 1030.22 89.2741C1027.03 88.5243 1023.68 89.0682 1020.89 90.7865L911.18 158.546Z" fill="black"/>
<path d="M887.74 288.446L918.88 230.826L891.72 186.867L822.78 183.286L887.74 288.446Z" fill="#FF3600"/>
<path d="M887.83 291.436L820 181.646L892.59 185.416L920.59 230.776L887.83 291.436ZM825.56 184.936L887.65 285.446L917.14 230.866L890.86 188.326L825.56 184.936Z" fill="black"/>
<path d="M1062.2 165.611C1066.66 162.854 1068.04 157 1065.29 152.536C1062.53 148.073 1056.67 146.69 1052.21 149.448C1047.75 152.205 1046.36 158.059 1049.12 162.523C1051.88 166.986 1057.73 168.369 1062.2 165.611Z" fill="#990404"/>
<path d="M1063 166.906C1061.15 168.049 1059 168.618 1056.83 168.54C1054.65 168.462 1052.55 167.741 1050.79 166.468C1049.02 165.195 1047.67 163.428 1046.91 161.389C1046.15 159.351 1046.02 157.133 1046.52 155.015C1047.02 152.898 1048.13 150.977 1049.73 149.495C1051.32 148.013 1053.32 147.036 1055.46 146.688C1057.61 146.34 1059.81 146.637 1061.79 147.541C1063.77 148.445 1065.44 149.916 1066.58 151.766C1067.34 152.996 1067.85 154.362 1068.08 155.788C1068.31 157.214 1068.26 158.672 1067.93 160.078C1067.59 161.484 1066.99 162.811 1066.14 163.982C1065.3 165.154 1064.23 166.148 1063 166.906ZM1053 150.746C1051.65 151.577 1050.58 152.789 1049.92 154.228C1049.26 155.667 1049.05 157.27 1049.3 158.832C1049.55 160.395 1050.26 161.848 1051.34 163.006C1052.42 164.165 1053.82 164.978 1055.36 165.342C1056.9 165.706 1058.51 165.605 1059.99 165.052C1061.48 164.498 1062.76 163.518 1063.69 162.233C1064.61 160.949 1065.14 159.419 1065.19 157.837C1065.25 156.255 1064.83 154.692 1064 153.346C1062.88 151.545 1061.1 150.259 1059.04 149.771C1056.98 149.284 1054.8 149.635 1053 150.746Z" fill="black"/>
<path d="M944.427 129.315C950.54 103.434 934.515 77.4986 908.635 71.3856C882.755 65.2725 856.819 81.297 850.706 107.177C844.593 133.058 860.617 158.993 886.498 165.107C912.378 171.22 938.314 155.195 944.427 129.315Z" fill="#FF3600"/>
<path d="M923.65 160.466C913.881 166.489 902.326 168.939 890.953 167.398C879.58 165.857 869.094 160.421 861.28 152.015C853.466 143.61 848.808 132.755 848.099 121.3C847.391 109.845 850.675 98.4994 857.394 89.1949C864.113 79.8905 873.849 73.2032 884.945 70.2723C896.041 67.3414 907.81 68.3483 918.247 73.1214C928.684 77.8945 937.143 86.1385 942.184 96.449C947.224 106.759 948.534 118.499 945.89 129.666C944.394 136.012 941.66 142 937.843 147.285C934.026 152.571 929.203 157.051 923.65 160.466ZM873.07 78.5865C866.549 82.6214 861.123 88.2019 857.274 94.834C853.424 101.466 851.269 108.945 851 116.609C850.73 124.272 852.354 131.884 855.728 138.771C859.103 145.657 864.123 151.605 870.344 156.088C876.566 160.571 883.797 163.451 891.397 164.472C898.997 165.494 906.732 164.626 913.916 161.945C921.101 159.264 927.513 154.853 932.586 149.103C937.659 143.352 941.236 136.439 943 128.976C945.127 119.999 944.543 110.591 941.321 101.946C938.098 93.3001 932.383 85.8051 924.899 80.4096C917.414 75.0141 908.497 71.9608 899.276 71.6363C890.055 71.3117 880.945 73.7305 873.1 78.5865H873.07Z" fill="black"/>
<path d="M904.856 119.978C905.807 115.952 903.314 111.918 899.288 110.967C895.262 110.016 891.228 112.508 890.277 116.534C889.326 120.56 891.819 124.595 895.845 125.545C899.87 126.496 903.905 124.004 904.856 119.978Z" fill="#303030"/>
<path d="M902.3 125.896C900.532 126.999 898.437 127.453 896.371 127.183C894.306 126.913 892.398 125.935 890.973 124.415C889.548 122.895 888.694 120.928 888.558 118.85C888.421 116.771 889.01 114.709 890.224 113.016C891.437 111.323 893.201 110.103 895.213 109.565C897.226 109.027 899.363 109.203 901.26 110.065C903.156 110.926 904.696 112.419 905.615 114.288C906.534 116.158 906.776 118.288 906.3 120.316C906.034 121.464 905.544 122.549 904.858 123.506C904.171 124.464 903.302 125.276 902.3 125.896ZM894.43 113.156C893.247 113.884 892.354 115 891.901 116.313C891.449 117.626 891.466 119.055 891.95 120.357C892.434 121.659 893.354 122.752 894.555 123.451C895.755 124.15 897.16 124.411 898.531 124.19C899.902 123.968 901.154 123.278 902.073 122.237C902.992 121.196 903.521 119.868 903.57 118.48C903.62 117.092 903.186 115.73 902.344 114.626C901.501 113.522 900.302 112.745 898.95 112.426C898.186 112.244 897.393 112.214 896.617 112.339C895.841 112.465 895.098 112.742 894.43 113.156Z" fill="black"/>
<path d="M881.09 106.434C882.245 101.543 879.217 96.6412 874.325 95.4858C869.434 94.3305 864.533 97.359 863.377 102.25C862.222 107.141 865.25 112.043 870.142 113.198C875.033 114.354 879.935 111.325 881.09 106.434Z" fill="#474747"/>
<path d="M877.8 113.356C875.714 114.647 873.246 115.174 870.815 114.848C868.384 114.522 866.142 113.363 864.469 111.569C862.797 109.775 861.799 107.457 861.644 105.009C861.49 102.562 862.189 100.136 863.623 98.1463C865.056 96.1563 867.135 94.725 869.506 94.0962C871.876 93.4675 874.392 93.6802 876.623 94.6981C878.854 95.716 880.663 97.4762 881.742 99.6786C882.821 101.881 883.103 104.389 882.54 106.776C882.224 108.132 881.642 109.412 880.829 110.541C880.015 111.67 878.986 112.627 877.8 113.356ZM868.24 97.8764C867.176 98.5332 866.291 99.4422 865.663 100.523C865.034 101.604 864.682 102.823 864.637 104.072C864.593 105.321 864.857 106.562 865.407 107.685C865.956 108.808 866.775 109.778 867.789 110.508C868.803 111.239 869.982 111.709 871.22 111.875C872.459 112.042 873.72 111.9 874.891 111.463C876.063 111.026 877.108 110.306 877.934 109.368C878.761 108.43 879.343 107.303 879.63 106.086C879.975 104.624 879.878 103.092 879.352 101.684C878.827 100.277 877.896 99.0565 876.677 98.1779C875.458 97.2993 874.006 96.8017 872.504 96.748C871.002 96.6944 869.519 97.0871 868.24 97.8764Z" fill="black"/>
<path d="M905.333 91.4696C906.489 86.5784 903.46 81.6767 898.569 80.5214C893.678 79.366 888.776 82.3945 887.621 87.2857C886.465 92.1769 889.494 97.0786 894.385 98.2339C899.276 99.3893 904.178 96.3607 905.333 91.4696Z" fill="#474747"/>
<path d="M902 98.3865C899.914 99.6767 897.446 100.204 895.015 99.878C892.584 99.5521 890.342 98.3935 888.669 96.5994C886.997 94.8054 885.999 92.487 885.844 90.0394C885.69 87.5917 886.389 85.1662 887.823 83.1763C889.256 81.1863 891.335 79.755 893.706 79.1263C896.076 78.4975 898.592 78.7102 900.823 79.7281C903.054 80.7461 904.864 82.5062 905.942 84.7086C907.021 86.9111 907.303 89.4195 906.74 91.8065C906.424 93.1621 905.842 94.4416 905.029 95.5711C904.215 96.7005 903.186 97.6574 902 98.3865ZM892.48 82.9065C891.416 83.5632 890.531 84.4722 889.903 85.5529C889.274 86.6335 888.922 87.8525 888.878 89.1018C888.833 90.3511 889.097 91.5922 889.647 92.7149C890.196 93.8377 891.015 94.8075 892.029 95.5385C893.043 96.2695 894.222 96.739 895.46 96.9055C896.699 97.072 897.96 96.9303 899.131 96.493C900.303 96.0556 901.348 95.3362 902.174 94.3983C903.001 93.4605 903.583 92.3332 903.87 91.1165C904.215 89.6539 904.118 88.1221 903.592 86.7144C903.067 85.3068 902.136 84.0865 900.917 83.2079C899.698 82.3293 898.246 81.8317 896.744 81.7781C895.242 81.7244 893.759 82.1171 892.48 82.9065Z" fill="black"/>
<path d="M907.52 149.228C908.675 144.337 905.646 139.436 900.755 138.28C895.864 137.125 890.962 140.153 889.807 145.045C888.652 149.936 891.68 154.837 896.571 155.993C901.463 157.148 906.364 154.12 907.52 149.228Z" fill="#474747"/>
<path d="M904.24 156.156C902.151 157.441 899.682 157.962 897.253 157.63C894.823 157.298 892.584 156.135 890.916 154.337C889.249 152.54 888.256 150.22 888.106 147.772C887.957 145.325 888.661 142.901 890.098 140.915C891.536 138.928 893.617 137.501 895.988 136.877C898.359 136.253 900.874 136.47 903.103 137.491C905.332 138.513 907.138 140.275 908.213 142.479C909.288 144.683 909.567 147.191 909 149.576C908.682 150.934 908.097 152.214 907.28 153.344C906.463 154.473 905.43 155.429 904.24 156.156ZM894.68 140.676C893.184 141.6 892.054 143.014 891.484 144.678C890.914 146.341 890.938 148.151 891.552 149.798C892.166 151.446 893.333 152.829 894.853 153.713C896.373 154.597 898.153 154.926 899.889 154.645C901.624 154.364 903.209 153.489 904.372 152.171C905.535 150.852 906.206 149.171 906.268 147.414C906.331 145.657 905.782 143.932 904.716 142.534C903.65 141.136 902.131 140.151 900.42 139.746C899.448 139.513 898.439 139.475 897.452 139.635C896.465 139.794 895.519 140.148 894.67 140.676H894.68Z" fill="black"/>
<path d="M931.765 134.254C932.921 129.363 929.892 124.461 925.001 123.306C920.11 122.151 915.208 125.179 914.053 130.07C912.897 134.962 915.926 139.863 920.817 141.019C925.708 142.174 930.61 139.145 931.765 134.254Z" fill="#474747"/>
<path d="M928.48 141.176C926.394 142.467 923.926 142.994 921.495 142.668C919.064 142.342 916.822 141.183 915.149 139.389C913.477 137.595 912.479 135.277 912.324 132.829C912.17 130.382 912.869 127.956 914.303 125.966C915.736 123.976 917.815 122.545 920.186 121.916C922.556 121.287 925.072 121.5 927.303 122.518C929.534 123.536 931.343 125.296 932.422 127.499C933.501 129.701 933.783 132.209 933.22 134.596C932.904 135.952 932.322 137.232 931.509 138.361C930.695 139.49 929.666 140.447 928.48 141.176ZM918.92 125.696C917.424 126.62 916.294 128.034 915.724 129.698C915.154 131.361 915.178 133.171 915.792 134.818C916.406 136.466 917.573 137.849 919.093 138.733C920.613 139.617 922.393 139.946 924.129 139.665C925.864 139.384 927.449 138.509 928.612 137.191C929.775 135.872 930.446 134.191 930.508 132.434C930.571 130.677 930.022 128.952 928.956 127.554C927.89 126.156 926.371 125.171 924.66 124.766C923.689 124.534 922.682 124.497 921.697 124.657C920.712 124.816 919.768 125.17 918.92 125.696Z" fill="black"/>
<path d="M931.142 105.082C932.297 100.191 929.269 95.2889 924.377 94.1335C919.486 92.9782 914.584 96.0067 913.429 100.898C912.274 105.789 915.302 110.691 920.194 111.846C925.085 113.001 929.986 109.973 931.142 105.082Z" fill="#474747"/>
<path d="M927.85 112.006C925.764 113.297 923.296 113.824 920.865 113.498C918.434 113.172 916.192 112.013 914.519 110.219C912.847 108.425 911.849 106.107 911.694 103.659C911.54 101.212 912.239 98.7862 913.673 96.7963C915.106 94.8063 917.185 93.375 919.556 92.7462C921.926 92.1175 924.442 92.3302 926.673 93.3481C928.904 94.366 930.713 96.1262 931.792 98.3286C932.871 100.531 933.153 103.04 932.59 105.426C932.274 106.782 931.692 108.062 930.879 109.191C930.065 110.32 929.036 111.277 927.85 112.006ZM918.29 96.5165C916.794 97.4403 915.664 98.8544 915.094 100.518C914.524 102.181 914.548 103.991 915.162 105.638C915.776 107.286 916.943 108.669 918.463 109.553C919.983 110.437 921.763 110.766 923.499 110.485C925.234 110.204 926.819 109.329 927.982 108.011C929.145 106.692 929.816 105.011 929.878 103.254C929.941 101.497 929.392 99.772 928.326 98.3739C927.26 96.9757 925.741 95.9907 924.03 95.5865C923.059 95.3544 922.052 95.3171 921.067 95.4767C920.082 95.6363 919.138 95.9897 918.29 96.5165Z" fill="black"/>
<path d="M881.726 135.597C882.881 130.706 879.853 125.804 874.961 124.649C870.07 123.493 865.168 126.522 864.013 131.413C862.858 136.304 865.886 141.206 870.777 142.361C875.669 143.516 880.57 140.488 881.726 135.597Z" fill="#474747"/>
<path d="M878.44 142.526C876.354 143.817 873.886 144.344 871.455 144.018C869.024 143.692 866.782 142.533 865.109 140.739C863.437 138.945 862.439 136.627 862.284 134.179C862.13 131.732 862.829 129.306 864.263 127.316C865.696 125.326 867.775 123.895 870.146 123.266C872.516 122.638 875.032 122.85 877.263 123.868C879.494 124.886 881.304 126.646 882.382 128.849C883.461 131.051 883.743 133.56 883.18 135.946C882.864 137.302 882.282 138.582 881.469 139.711C880.655 140.841 879.626 141.797 878.44 142.526ZM868.88 127.046C867.384 127.97 866.254 129.384 865.684 131.048C865.114 132.711 865.138 134.521 865.752 136.168C866.366 137.816 867.533 139.199 869.053 140.083C870.573 140.967 872.353 141.296 874.089 141.015C875.824 140.734 877.409 139.86 878.572 138.541C879.735 137.222 880.406 135.541 880.468 133.784C880.531 132.027 879.982 130.302 878.916 128.904C877.85 127.506 876.331 126.521 874.62 126.116C873.648 125.883 872.639 125.845 871.652 126.005C870.665 126.164 869.719 126.518 868.87 127.046H868.88Z" fill="black"/>
<path d="M1058.76 160.056C1060.16 159.194 1060.59 157.364 1059.73 155.968C1058.87 154.573 1057.04 154.141 1055.64 155.003C1054.25 155.865 1053.81 157.695 1054.68 159.091C1055.54 160.486 1057.37 160.918 1058.76 160.056Z" fill="#6D6D6D"/>
<path d="M1059.56 161.356C1058.81 161.821 1057.94 162.052 1057.05 162.02C1056.17 161.989 1055.32 161.696 1054.6 161.18C1053.88 160.663 1053.33 159.945 1053.02 159.118C1052.72 158.29 1052.66 157.389 1052.86 156.529C1053.06 155.669 1053.52 154.888 1054.16 154.285C1054.81 153.682 1055.62 153.284 1056.49 153.142C1057.36 152.999 1058.26 153.118 1059.06 153.484C1059.87 153.85 1060.54 154.446 1061.01 155.196C1061.63 156.206 1061.83 157.421 1061.56 158.576C1061.29 159.731 1060.57 160.731 1059.56 161.356ZM1056.44 156.266C1056.19 156.416 1055.99 156.638 1055.86 156.902C1055.74 157.166 1055.7 157.462 1055.74 157.75C1055.79 158.039 1055.92 158.308 1056.11 158.523C1056.31 158.738 1056.57 158.889 1056.85 158.957C1057.14 159.025 1057.43 159.007 1057.71 158.906C1057.98 158.804 1058.22 158.623 1058.39 158.385C1058.56 158.148 1058.66 157.866 1058.66 157.574C1058.67 157.282 1058.6 156.994 1058.44 156.746C1058.24 156.421 1057.91 156.188 1057.54 156.098C1057.16 156.009 1056.77 156.069 1056.44 156.266Z" fill="black"/>
<path d="M1042.52 68.9979C1048.64 43.1176 1032.61 17.1818 1006.73 11.0687C980.851 4.95564 954.915 20.9802 948.802 46.8605C942.689 72.7408 958.714 98.6766 984.594 104.79C1010.47 110.903 1036.41 94.8783 1042.52 68.9979Z" fill="#FF3600"/>
<path d="M1021.75 100.146C1010.55 107.065 997.063 109.251 984.252 106.224C971.442 103.197 960.358 95.2052 953.44 84.0065C946.522 72.8077 944.336 59.3194 947.363 46.5088C950.389 33.6982 958.381 22.6147 969.58 15.6965C977.934 10.5343 987.631 7.96537 997.445 8.31448C1007.26 8.66358 1016.75 11.9151 1024.71 17.6578C1032.68 23.4005 1038.76 31.3764 1042.2 40.5769C1045.63 49.7775 1046.26 59.7894 1044 69.3465C1042.5 75.693 1039.77 81.6812 1035.95 86.9669C1032.13 92.2525 1027.3 96.7315 1021.75 100.146ZM971.15 18.2665C961.967 23.938 955.035 32.618 951.535 42.8276C948.035 53.0372 948.183 64.1447 951.954 74.2573C955.726 84.3699 962.887 92.8619 972.217 98.2864C981.548 103.711 992.471 105.732 1003.13 104.006C1013.78 102.28 1023.5 96.9126 1030.65 88.8193C1037.79 80.7259 1041.9 70.4071 1042.28 59.621C1042.67 48.8349 1039.3 38.249 1032.76 29.6671C1026.21 21.0851 1016.89 15.0381 1006.39 12.5565C1000.43 11.131 994.247 10.9016 988.198 11.8818C982.149 12.8619 976.355 15.032 971.15 18.2665Z" fill="black"/>
<path d="M1002.95 59.6487C1003.9 55.6229 1001.41 51.5884 997.385 50.6375C993.359 49.6866 989.325 52.1793 988.374 56.2051C987.423 60.2309 989.915 64.2654 993.941 65.2163C997.967 66.1672 1002 63.6745 1002.95 59.6487Z" fill="#303030"/>
<path d="M1000.39 65.5765C998.622 66.6787 996.527 67.1335 994.461 66.8633C992.395 66.5932 990.487 65.6148 989.063 64.095C987.638 62.5753 986.784 60.6083 986.648 58.5295C986.511 56.4507 987.1 54.389 988.314 52.6958C989.527 51.0026 991.291 49.783 993.303 49.2448C995.316 48.7067 997.453 48.8833 999.35 49.7447C1001.25 50.6061 1002.79 52.0989 1003.7 53.9684C1004.62 55.8379 1004.87 57.9684 1004.39 59.9965C1004.12 61.1445 1003.63 62.2286 1002.95 63.1862C1002.26 64.1439 1001.39 64.9563 1000.39 65.5765ZM992.52 52.8365C991.681 53.356 990.983 54.0744 990.488 54.9282C989.993 55.782 989.716 56.7448 989.682 57.7312C989.648 58.7175 989.857 59.6971 990.293 60.583C990.728 61.4688 991.374 62.2337 992.176 62.8098C992.977 63.3859 993.908 63.7554 994.887 63.8856C995.865 64.0158 996.86 63.9027 997.784 63.5562C998.709 63.2097 999.533 62.6406 1000.18 61.8993C1000.84 61.158 1001.29 60.2674 1001.52 59.3065C1001.79 58.1516 1001.71 56.9424 1001.3 55.8317C1000.88 54.721 1000.14 53.7587 999.18 53.0663C998.217 52.3739 997.07 51.9825 995.885 51.9416C994.7 51.9007 993.529 52.2121 992.52 52.8365Z" fill="black"/>
<path d="M979.174 46.1246C980.329 41.2334 977.301 36.3317 972.41 35.1764C967.519 34.0211 962.617 37.0496 961.462 41.9408C960.306 46.832 963.335 51.7336 968.226 52.889C973.117 54.0443 978.019 51.0158 979.174 46.1246Z" fill="#474747"/>
<path d="M975.89 53.0464C973.804 54.3367 971.336 54.8638 968.905 54.538C966.474 54.2121 964.232 53.0534 962.559 51.2594C960.887 49.4654 959.889 47.147 959.734 44.6993C959.58 42.2517 960.279 39.8262 961.713 37.8363C963.146 35.8463 965.225 34.415 967.596 33.7862C969.966 33.1575 972.482 33.3702 974.713 34.3881C976.944 35.406 978.753 37.1662 979.832 39.3686C980.911 41.571 981.193 44.0795 980.63 46.4664C980.314 47.8221 979.732 49.1016 978.919 50.231C978.105 51.3605 977.076 52.3174 975.89 53.0464ZM966.33 37.5664C964.834 38.4903 963.704 39.9044 963.134 41.5677C962.564 43.231 962.588 45.0406 963.202 46.6882C963.816 48.3358 964.983 49.7194 966.503 50.6032C968.023 51.487 969.803 51.8163 971.539 51.5351C973.274 51.2539 974.859 50.3795 976.022 49.0609C977.185 47.7423 977.856 46.0611 977.918 44.3039C977.981 42.5466 977.432 40.8219 976.366 39.4238C975.299 38.0257 973.781 37.0406 972.07 36.6364C971.099 36.4044 970.092 36.367 969.107 36.5267C968.122 36.6863 967.178 37.0397 966.33 37.5664Z" fill="black"/>
<path d="M1003.42 31.1404C1004.58 26.2492 1001.55 21.3476 996.656 20.1923C991.764 19.0369 986.863 22.0654 985.707 26.9566C984.552 31.8478 987.581 36.7495 992.472 37.9048C997.363 39.0602 1002.26 36.0316 1003.42 31.1404Z" fill="#474747"/>
<path d="M1000.14 38.0665C998.054 39.3567 995.586 39.8838 993.155 39.558C990.724 39.2321 988.482 38.0735 986.809 36.2794C985.137 34.4854 984.139 32.167 983.984 29.7194C983.83 27.2717 984.529 24.8462 985.963 22.8563C987.396 20.8663 989.475 19.435 991.846 18.8062C994.216 18.1775 996.732 18.3902 998.963 19.4081C1001.19 20.426 1003 22.1862 1004.08 24.3886C1005.16 26.5911 1005.44 29.0995 1004.88 31.4865C1004.56 32.8421 1003.98 34.1216 1003.17 35.2511C1002.36 36.3805 1001.33 37.3374 1000.14 38.0665ZM990.58 22.5865C989.084 23.5103 987.954 24.9244 987.384 26.5877C986.814 28.251 986.838 30.0606 987.452 31.7082C988.066 33.3558 989.233 34.7394 990.753 35.6232C992.273 36.507 994.053 36.8364 995.789 36.5551C997.524 36.2739 999.109 35.3995 1000.27 34.0809C1001.44 32.7623 1002.11 31.0812 1002.17 29.3239C1002.23 27.5666 1001.68 25.842 1000.62 24.4439C999.549 23.0457 998.031 22.0606 996.32 21.6565C995.349 21.4244 994.342 21.3871 993.357 21.5467C992.372 21.7063 991.428 22.0597 990.58 22.5865Z" fill="black"/>
<path d="M1005.62 88.9093C1006.77 84.0181 1003.74 79.1164 998.852 77.9611C993.961 76.8057 989.059 79.8342 987.904 84.7254C986.748 89.6166 989.777 94.5183 994.668 95.6736C999.559 96.829 1004.46 93.8005 1005.62 88.9093Z" fill="#474747"/>
<path d="M1002.33 95.8365C1000.24 97.1263 997.774 97.6526 995.343 97.3257C992.912 96.9988 990.67 95.8389 988.998 94.0438C987.327 92.2486 986.33 89.9293 986.177 87.4811C986.024 85.033 986.725 82.6076 988.16 80.6184C989.595 78.6291 991.676 77.1992 994.047 76.5723C996.418 75.9454 998.934 76.1604 1001.16 77.1805C1003.4 78.2007 1005.2 79.9629 1006.28 82.1668C1007.36 84.3707 1007.64 86.8798 1007.07 89.2665C1006.75 90.6203 1006.17 91.8979 1005.36 93.0256C1004.54 94.1532 1003.51 95.1086 1002.33 95.8365ZM992.77 80.3565C991.274 81.2803 990.144 82.6944 989.574 84.3577C989.004 86.021 989.028 87.8307 989.642 89.4782C990.256 91.1258 991.423 92.5094 992.943 93.3932C994.463 94.277 996.243 94.6064 997.979 94.3251C999.714 94.0439 1001.3 93.1695 1002.46 91.8509C1003.63 90.5323 1004.3 88.8512 1004.36 87.0939C1004.42 85.3366 1003.87 83.612 1002.81 82.2139C1001.74 80.8158 1000.22 79.8307 998.51 79.4265C997.539 79.1944 996.532 79.1571 995.547 79.3167C994.562 79.4763 993.618 79.8297 992.77 80.3565Z" fill="black"/>
<path d="M1029.86 73.9251C1031.02 69.0339 1027.99 64.1322 1023.1 62.9769C1018.21 61.8215 1013.3 64.8501 1012.15 69.7412C1010.99 74.6324 1014.02 79.5341 1018.91 80.6894C1023.8 81.8448 1028.71 78.8163 1029.86 73.9251Z" fill="#474747"/>
<path d="M1026.58 80.8564C1024.5 82.1471 1022.03 82.6751 1019.6 82.3503C1017.17 82.0254 1014.92 80.868 1013.25 79.0751C1011.58 77.2822 1010.58 74.9648 1010.42 72.5176C1010.27 70.0704 1010.96 67.6448 1012.4 65.6542C1013.83 63.6635 1015.9 62.2308 1018.27 61.6002C1020.64 60.9696 1023.16 61.18 1025.39 62.1957C1027.62 63.2114 1029.43 64.9695 1030.51 67.1705C1031.6 69.3715 1031.88 71.8792 1031.32 74.2664C1031.01 75.6239 1030.42 76.9053 1029.61 78.0366C1028.8 79.1678 1027.77 80.1263 1026.58 80.8564ZM1017 65.3764C1015.5 66.3003 1014.37 67.7144 1013.8 69.3777C1013.23 71.041 1013.26 72.8506 1013.87 74.4982C1014.49 76.1458 1015.65 77.5294 1017.17 78.4132C1018.69 79.297 1020.47 79.6263 1022.21 79.3451C1023.94 79.0639 1025.53 78.1895 1026.69 76.8709C1027.86 75.5523 1028.53 73.8711 1028.59 72.1139C1028.65 70.3566 1028.1 68.632 1027.04 67.2338C1025.97 65.8357 1024.45 64.8506 1022.74 64.4464C1021.77 64.2144 1020.76 64.177 1019.78 64.3367C1018.79 64.4963 1017.85 64.8497 1017 65.3764Z" fill="black"/>
<path d="M1029.23 44.7526C1030.38 39.8614 1027.36 34.9598 1022.46 33.8044C1017.57 32.6491 1012.67 35.6776 1011.52 40.5688C1010.36 45.46 1013.39 50.3617 1018.28 51.517C1023.17 52.6723 1028.07 49.6438 1029.23 44.7526Z" fill="#474747"/>
<path d="M1025.95 51.6865C1023.86 52.9767 1021.4 53.5038 1018.96 53.178C1016.53 52.8521 1014.29 51.6935 1012.62 49.8994C1010.95 48.1054 1009.95 45.787 1009.79 43.3394C1009.64 40.8917 1010.34 38.4662 1011.77 36.4763C1013.21 34.4863 1015.29 33.055 1017.66 32.4262C1020.03 31.7975 1022.54 32.0102 1024.77 33.0281C1027 34.046 1028.81 35.8062 1029.89 38.0086C1030.97 40.2111 1031.25 42.7195 1030.69 45.1065C1030.37 46.4621 1029.79 47.7416 1028.98 48.8711C1028.17 50.0005 1027.14 50.9574 1025.95 51.6865ZM1016.39 36.2065C1014.89 37.1303 1013.76 38.5444 1013.19 40.2077C1012.62 41.871 1012.65 43.6806 1013.26 45.3282C1013.88 46.9758 1015.04 48.3594 1016.56 49.2432C1018.08 50.127 1019.86 50.4563 1021.6 50.1751C1023.33 49.8939 1024.92 49.0195 1026.08 47.7009C1027.25 46.3823 1027.92 44.7011 1027.98 42.9439C1028.04 41.1866 1027.49 39.462 1026.43 38.0638C1025.36 36.6657 1023.84 35.6806 1022.13 35.2765C1021.16 35.043 1020.15 35.005 1019.16 35.1646C1018.17 35.3243 1017.23 35.6784 1016.38 36.2065H1016.39Z" fill="black"/>
<path d="M979.82 75.2874C980.975 70.3962 977.947 65.4945 973.056 64.3392C968.164 63.1838 963.263 66.2123 962.107 71.1035C960.952 75.9947 963.981 80.8964 968.872 82.0517C973.763 83.2071 978.665 80.1785 979.82 75.2874Z" fill="#474747"/>
<path d="M976.53 82.2065C974.444 83.4967 971.976 84.0239 969.545 83.698C967.114 83.3722 964.872 82.2135 963.199 80.4195C961.527 78.6254 960.529 76.307 960.374 73.8594C960.22 71.4117 960.919 68.9863 962.353 66.9963C963.786 65.0063 965.865 63.575 968.236 62.9463C970.606 62.3175 973.122 62.5302 975.353 63.5481C977.584 64.5661 979.393 66.3262 980.472 68.5286C981.551 70.7311 981.833 73.2395 981.27 75.6265C980.954 76.9821 980.372 78.2616 979.559 79.3911C978.745 80.5205 977.716 81.4774 976.53 82.2065ZM967 66.7265C965.504 67.6503 964.374 69.0644 963.804 70.7277C963.234 72.391 963.258 74.2007 963.872 75.8482C964.486 77.4958 965.653 78.8794 967.173 79.7632C968.693 80.647 970.473 80.9764 972.209 80.6951C973.944 80.4139 975.529 79.5395 976.692 78.2209C977.855 76.9023 978.526 75.2212 978.588 73.4639C978.651 71.7066 978.102 69.982 977.036 68.5839C975.97 67.1857 974.451 66.2007 972.74 65.7965C971.769 65.5644 970.762 65.5271 969.777 65.6867C968.792 65.8463 967.848 66.1997 967 66.7265Z" fill="black"/>
<path d="M886.059 163.276L886.047 164.196L1056.69 166.37L1056.7 165.45L886.059 163.276Z" fill="#990404"/>
<path d="M1042.4 67.2743L1041.51 67.5046L1065.23 159.227L1066.12 158.997L1042.4 67.2743Z" fill="#990404"/>
<path d="M935.39 89.5132L934.932 90.3114L1055.41 159.368L1055.87 158.57L935.39 89.5132Z" fill="#990404"/>
<path d="M954.377 79.4713L953.832 80.2131L1058.99 157.374L1059.53 156.633L954.377 79.4713Z" fill="#990404"/>
<path d="M974 188.866L945.21 206.656C944.689 206.979 944.061 207.081 943.465 206.94C942.868 206.799 942.352 206.428 942.03 205.906C941.708 205.385 941.606 204.758 941.746 204.161C941.887 203.565 942.259 203.049 942.78 202.726L971.57 184.936C972.091 184.614 972.719 184.512 973.315 184.653C973.912 184.794 974.428 185.165 974.75 185.686C975.072 186.208 975.174 186.835 975.034 187.432C974.893 188.028 974.521 188.544 974 188.866Z" fill="#990404"/>
<path d="M979.69 198.056L950.9 215.846C950.379 216.169 949.751 216.271 949.155 216.13C948.558 215.989 948.042 215.618 947.72 215.096C947.398 214.575 947.296 213.947 947.436 213.351C947.577 212.755 947.949 212.239 948.47 211.916L977.26 194.126C977.781 193.804 978.409 193.702 979.005 193.843C979.602 193.983 980.118 194.355 980.44 194.876C980.762 195.398 980.864 196.025 980.724 196.622C980.583 197.218 980.211 197.734 979.69 198.056Z" fill="#990404"/>
<path d="M985.37 207.266L956.58 225.056C956.059 225.379 955.431 225.481 954.835 225.34C954.238 225.199 953.722 224.828 953.4 224.306C953.078 223.785 952.976 223.157 953.116 222.561C953.257 221.965 953.629 221.449 954.15 221.126L982.94 203.336C983.461 203.014 984.089 202.912 984.685 203.053C985.282 203.194 985.798 203.565 986.12 204.086C986.442 204.608 986.544 205.235 986.404 205.832C986.263 206.428 985.891 206.944 985.37 207.266Z" fill="#990404"/>
</svg>
