<svg width="1119" height="845" viewBox="0 0 1119 845" fill="none" xmlns="http://www.w3.org/2000/svg">
<path opacity="0.3" d="M324.5 845L231.5 290.5L290.5 181.5L1119 280L324.5 845Z" fill="#FFC929"/>
<path d="M200.31 362.376L28.52 360.526L23.32 367.136H206.25L200.31 362.376Z" fill="#990404"/>
<path d="M20.24 368.636H210.52L200.85 360.886H200.33L27.8 359.026L20.24 368.636ZM202 365.636H26.41L29.24 362.036L199.78 363.866L202 365.636Z" fill="black"/>
<path d="M201.23 363.297L113.12 399.727V408.036L206.25 367.137L201.23 363.297Z" fill="#FF3600"/>
<path d="M111.62 410.336L209.18 367.486L201.46 361.586L111.63 398.726L111.62 410.336ZM203.32 366.776L114.63 405.776V400.776L201 365.016L203.32 366.776Z" fill="black"/>
<path d="M224.59 413.576L228.65 412.816L143.67 194.056L129.65 195.156L224.59 413.576Z" fill="#990404"/>
<path d="M223.69 415.266L230.69 413.946L144.69 192.466L127.46 193.816L223.69 415.266ZM226.59 411.666L225.49 411.876L131.86 196.476L142.67 195.636L226.59 411.666Z" fill="black"/>
<path d="M5.62004 414.087L1.56004 412.337L89.4 195.906L103.42 196.076L5.62004 414.087Z" fill="#990404"/>
<path d="M6.37999 416.056L6.98997 414.706L105.73 194.606L88.4 194.396L-0.37001 413.126L6.37999 416.056ZM101.11 197.546L4.84999 412.126L3.49998 411.536L90.4 197.416L101.11 197.546Z" fill="black"/>
<path d="M151.61 200.086C149.306 207.514 144.686 214.01 138.425 218.623C132.165 223.236 124.592 225.725 116.815 225.725C109.038 225.725 101.465 223.236 95.2046 218.623C88.9438 214.01 84.3237 207.514 82.02 200.086H151.61Z" fill="#990404"/>
<path d="M116.82 227.266C124.922 227.285 132.815 224.695 139.331 219.879C145.847 215.063 150.64 208.278 153 200.526L153.6 198.586H80L80.6 200.526C82.962 208.284 87.7606 215.074 94.2846 219.891C100.809 224.707 108.711 227.294 116.82 227.266ZM149.52 201.626C147.021 208.28 142.552 214.013 136.709 218.061C130.866 222.108 123.928 224.276 116.82 224.276C109.712 224.276 102.774 222.108 96.931 218.061C91.0881 214.013 86.6189 208.28 84.12 201.626H149.52Z" fill="black"/>
<path d="M112.88 460.146L107.41 459.816L105.45 220.816L124.49 220.776L112.88 460.146Z" fill="#FF3600"/>
<path d="M114.31 461.736L126.06 219.266H103.94V220.776L105.94 461.176L114.31 461.736ZM122.91 222.266L111.45 458.536L108.89 458.386L107 222.266H122.91Z" fill="black"/>
<path d="M114.97 230.076C109.712 230.076 105.45 225.913 105.45 220.776C105.45 215.64 109.712 211.476 114.97 211.476C120.228 211.476 124.49 215.64 124.49 220.776C124.49 225.913 120.228 230.076 114.97 230.076Z" fill="#474747"/>
<path d="M115 231.576C117.127 231.537 119.195 230.87 120.945 229.66C122.694 228.45 124.047 226.749 124.834 224.773C125.621 222.796 125.807 220.631 125.367 218.55C124.928 216.468 123.884 214.562 122.366 213.072C120.848 211.581 118.924 210.572 116.834 210.172C114.745 209.771 112.584 209.996 110.622 210.819C108.66 211.642 106.985 213.026 105.807 214.798C104.629 216.569 104 218.649 104 220.776C104.032 223.666 105.207 226.425 107.269 228.449C109.331 230.473 112.111 231.598 115 231.576ZM115 212.986C116.534 213.026 118.021 213.516 119.278 214.397C120.534 215.278 121.502 216.509 122.062 217.938C122.622 219.366 122.748 220.927 122.425 222.427C122.102 223.927 121.344 225.298 120.245 226.369C119.147 227.44 117.757 228.163 116.25 228.448C114.742 228.733 113.184 228.567 111.771 227.972C110.357 227.376 109.15 226.376 108.302 225.098C107.453 223.82 107 222.321 107 220.786C107.029 218.691 107.887 216.693 109.387 215.229C110.886 213.765 112.905 212.955 115 212.976V212.986Z" fill="black"/>
<path d="M29.2601 362.376L106.29 399.726V407.116L27.94 367.136L29.2601 362.376Z" fill="#FF3600"/>
<path d="M107.79 409.566V398.786L28.3 360.266L26.1701 367.936L107.79 409.566ZM104.79 400.666V404.666L29.72 366.356L30.2301 364.516L104.79 400.666Z" fill="black"/>
<path d="M207.99 175.186L227.165 187.034L200.054 230.914L180.878 219.066L207.99 175.186Z" fill="#990404"/>
<path d="M178.82 219.566L200.55 232.986L229.23 186.556L207.51 173.136L178.82 219.566ZM199.57 228.856L183 218.596L208.48 177.266L225.1 187.526L199.57 228.856Z" fill="black"/>
<path d="M60.3244 86.3144L82.324 99.9069L69.8142 120.154L47.8146 106.562L60.3244 86.3144Z" fill="#990404"/>
<path d="M45.74 107.066L70.3 122.266L84.39 99.4665L59.83 84.2665L45.74 107.066ZM69.32 118.066L49.87 106.066L60.8 88.3665L80.25 100.366L69.32 118.066Z" fill="black"/>
<path d="M36.5 109.086L52.65 113.096L69.98 85.0365L56.5 76.7065L36.5 109.086Z" fill="#FF3600"/>
<path d="M34.14 110.046L53.35 114.816L72 84.5465L56 74.6465L34.14 110.046ZM51.94 111.376L38.85 108.126L57 78.7765L67.93 85.5265L51.94 111.376Z" fill="black"/>
<path d="M98.8898 89.4752L208.607 157.264C215.114 161.285 217.13 169.82 213.11 176.327L177.977 233.189C173.957 239.696 165.422 241.712 158.915 237.691L49.1976 169.902C42.6904 165.882 40.6745 157.347 44.695 150.84L79.8275 93.9779C83.848 87.4706 92.3825 85.4547 98.8898 89.4752Z" fill="#FF3600"/>
<path d="M48.42 171.206L158.13 238.986C161.596 241.121 165.768 241.794 169.729 240.856C173.69 239.919 177.118 237.448 179.26 233.986L214.39 177.126C216.525 173.66 217.197 169.489 216.26 165.528C215.322 161.566 212.852 158.138 209.39 155.996L99.69 88.2665C96.2238 86.1319 92.0524 85.4595 88.091 86.3969C84.1296 87.3342 80.7019 89.8048 78.56 93.2665L43.43 150.126C41.3103 153.587 40.6453 157.746 41.5801 161.695C42.515 165.644 44.9737 169.063 48.42 171.206ZM207.82 158.546C210.6 160.274 212.583 163.034 213.332 166.22C214.082 169.407 213.538 172.76 211.82 175.546L176.69 232.406C174.962 235.187 172.203 237.169 169.016 237.919C165.83 238.669 162.476 238.125 159.69 236.406L50 168.656C47.2196 166.929 45.2374 164.169 44.4876 160.983C43.7378 157.796 44.2817 154.443 46 151.656L81.11 94.7865C82.8377 92.0061 85.5971 90.0238 88.7836 89.2741C91.97 88.5243 95.3238 89.0682 98.11 90.7865L207.82 158.546Z" fill="black"/>
<path d="M231.26 288.446L200.12 230.826L227.28 186.867L296.22 183.286L231.26 288.446Z" fill="#FF3600"/>
<path d="M231.17 291.436L299 181.646L226.41 185.416L198.41 230.776L231.17 291.436ZM293.44 184.936L231.35 285.446L201.86 230.866L228.14 188.326L293.44 184.936Z" fill="black"/>
<path d="M56.8028 165.611C52.3394 162.854 50.9566 157 53.7144 152.536C56.4722 148.073 62.3262 146.69 66.7896 149.448C71.2531 152.205 72.6358 158.059 69.8781 162.523C67.1203 166.986 61.2663 168.369 56.8028 165.611Z" fill="#990404"/>
<path d="M55.9999 166.906C57.8511 168.049 59.9995 168.618 62.1736 168.54C64.3478 168.462 66.4499 167.741 68.2143 166.468C69.9786 165.195 71.326 163.428 72.0859 161.389C72.8458 159.351 72.9842 157.133 72.4836 155.015C71.983 152.898 70.8658 150.977 69.2734 149.495C67.6809 148.013 65.6847 147.036 63.5372 146.688C61.3896 146.34 59.1872 146.637 57.2084 147.541C55.2295 148.445 53.5631 149.916 52.4199 151.766C51.6608 152.996 51.1512 154.362 50.9203 155.788C50.6893 157.214 50.7416 158.672 51.074 160.078C51.4064 161.484 52.0126 162.811 52.8578 163.982C53.703 165.154 54.7707 166.148 55.9999 166.906ZM65.9999 150.746C67.3474 151.577 68.4183 152.789 69.0769 154.228C69.7356 155.667 69.9524 157.27 69.7 158.832C69.4477 160.395 68.7374 161.848 67.6591 163.006C66.5808 164.165 65.183 164.978 63.6426 165.342C62.1021 165.706 60.4883 165.605 59.0053 165.052C57.5223 164.498 56.2368 163.518 55.3115 162.233C54.3863 160.949 53.8628 159.419 53.8073 157.837C53.7518 156.255 54.1669 154.692 54.9999 153.346C56.1152 151.545 57.8999 150.259 59.9622 149.771C62.0245 149.284 64.1959 149.635 65.9999 150.746Z" fill="black"/>
<path d="M174.573 129.315C168.46 103.434 184.485 77.4986 210.365 71.3856C236.245 65.2725 262.181 81.297 268.294 107.177C274.407 133.058 258.383 158.993 232.502 165.107C206.622 171.22 180.686 155.195 174.573 129.315Z" fill="#FF3600"/>
<path d="M195.35 160.466C205.119 166.489 216.674 168.939 228.047 167.398C239.42 165.857 249.906 160.421 257.72 152.015C265.534 143.61 270.192 132.755 270.901 121.3C271.609 109.845 268.325 98.4994 261.606 89.1949C254.888 79.8905 245.151 73.2032 234.055 70.2723C222.959 67.3414 211.19 68.3483 200.753 73.1214C190.316 77.8945 181.857 86.1385 176.816 96.449C171.776 106.759 170.466 118.499 173.11 129.666C174.606 136.012 177.34 142 181.157 147.285C184.974 152.571 189.797 157.051 195.35 160.466ZM245.93 78.5865C252.451 82.6214 257.877 88.2019 261.726 94.834C265.576 101.466 267.731 108.945 268.001 116.609C268.27 124.272 266.646 131.884 263.272 138.771C259.897 145.657 254.877 151.605 248.656 156.088C242.434 160.571 235.203 163.451 227.603 164.472C220.003 165.494 212.269 164.626 205.084 161.945C197.899 159.264 191.487 154.853 186.414 149.103C181.341 143.352 177.764 136.439 176 128.976C173.873 119.999 174.457 110.591 177.679 101.946C180.902 93.3001 186.617 85.8051 194.102 80.4096C201.586 75.0141 210.503 71.9608 219.724 71.6363C228.945 71.3117 238.055 73.7305 245.9 78.5865H245.93Z" fill="black"/>
<path d="M214.144 119.978C213.193 115.952 215.686 111.918 219.712 110.967C223.738 110.016 227.772 112.508 228.723 116.534C229.674 120.56 227.181 124.595 223.155 125.545C219.13 126.496 215.095 124.004 214.144 119.978Z" fill="#303030"/>
<path d="M216.7 125.896C218.468 126.999 220.563 127.453 222.629 127.183C224.695 126.913 226.603 125.935 228.027 124.415C229.452 122.895 230.306 120.928 230.442 118.85C230.579 116.771 229.99 114.709 228.777 113.016C227.563 111.323 225.799 110.103 223.787 109.565C221.774 109.027 219.637 109.203 217.74 110.065C215.844 110.926 214.304 112.419 213.385 114.288C212.466 116.158 212.224 118.288 212.7 120.316C212.966 121.464 213.456 122.549 214.142 123.506C214.829 124.464 215.698 125.276 216.7 125.896ZM224.57 113.156C225.753 113.884 226.647 115 227.099 116.313C227.551 117.626 227.534 119.055 227.05 120.357C226.566 121.659 225.646 122.752 224.446 123.451C223.246 124.15 221.84 124.411 220.469 124.19C219.098 123.968 217.846 123.278 216.927 122.237C216.008 121.196 215.479 119.868 215.43 118.48C215.38 117.092 215.814 115.73 216.656 114.626C217.499 113.522 218.698 112.745 220.05 112.426C220.814 112.244 221.607 112.214 222.383 112.339C223.159 112.465 223.902 112.742 224.57 113.156Z" fill="black"/>
<path d="M237.91 106.434C236.755 101.543 239.783 96.6412 244.675 95.4858C249.566 94.3305 254.467 97.359 255.623 102.25C256.778 107.141 253.75 112.043 248.858 113.198C243.967 114.354 239.066 111.325 237.91 106.434Z" fill="#474747"/>
<path d="M241.2 113.356C243.286 114.647 245.754 115.174 248.185 114.848C250.616 114.522 252.858 113.363 254.531 111.569C256.203 109.775 257.201 107.457 257.356 105.009C257.51 102.562 256.811 100.136 255.377 98.1463C253.944 96.1563 251.865 94.725 249.494 94.0962C247.124 93.4675 244.608 93.6802 242.377 94.6981C240.146 95.716 238.337 97.4762 237.258 99.6786C236.179 101.881 235.897 104.389 236.46 106.776C236.776 108.132 237.358 109.412 238.171 110.541C238.985 111.67 240.014 112.627 241.2 113.356ZM250.76 97.8764C251.824 98.5332 252.709 99.4422 253.337 100.523C253.966 101.604 254.318 102.823 254.363 104.072C254.407 105.321 254.143 106.562 253.593 107.685C253.044 108.808 252.226 109.778 251.211 110.508C250.197 111.239 249.019 111.709 247.78 111.875C246.541 112.042 245.28 111.9 244.109 111.463C242.938 111.026 241.892 110.306 241.066 109.368C240.239 108.43 239.657 107.303 239.37 106.086C239.025 104.624 239.122 103.092 239.648 101.684C240.173 100.277 241.104 99.0565 242.323 98.1779C243.542 97.2993 244.994 96.8017 246.496 96.748C247.998 96.6944 249.482 97.0871 250.76 97.8764Z" fill="black"/>
<path d="M213.667 91.4696C212.511 86.5784 215.54 81.6767 220.431 80.5214C225.322 79.366 230.224 82.3945 231.379 87.2857C232.535 92.1769 229.506 97.0786 224.615 98.2339C219.724 99.3893 214.822 96.3607 213.667 91.4696Z" fill="#474747"/>
<path d="M217 98.3865C219.086 99.6767 221.554 100.204 223.985 99.878C226.416 99.5521 228.658 98.3935 230.331 96.5994C232.003 94.8054 233.001 92.487 233.156 90.0394C233.31 87.5917 232.611 85.1662 231.177 83.1763C229.744 81.1863 227.665 79.755 225.294 79.1263C222.924 78.4975 220.408 78.7102 218.177 79.7281C215.946 80.7461 214.136 82.5062 213.058 84.7086C211.979 86.9111 211.697 89.4195 212.26 91.8065C212.576 93.1621 213.158 94.4416 213.971 95.5711C214.785 96.7005 215.814 97.6574 217 98.3865ZM226.52 82.9065C227.584 83.5632 228.469 84.4722 229.097 85.5529C229.726 86.6335 230.078 87.8525 230.122 89.1018C230.167 90.3511 229.903 91.5922 229.353 92.7149C228.804 93.8377 227.985 94.8075 226.971 95.5385C225.957 96.2695 224.778 96.739 223.54 96.9055C222.301 97.072 221.04 96.9303 219.869 96.493C218.697 96.0556 217.652 95.3362 216.826 94.3983C215.999 93.4605 215.417 92.3332 215.13 91.1165C214.785 89.6539 214.882 88.1221 215.408 86.7144C215.933 85.3068 216.864 84.0865 218.083 83.2079C219.302 82.3293 220.754 81.8317 222.256 81.7781C223.758 81.7244 225.241 82.1171 226.52 82.9065Z" fill="black"/>
<path d="M211.48 149.228C210.325 144.337 213.354 139.436 218.245 138.28C223.136 137.125 228.038 140.153 229.193 145.045C230.348 149.936 227.32 154.837 222.429 155.993C217.537 157.148 212.636 154.12 211.48 149.228Z" fill="#474747"/>
<path d="M214.76 156.156C216.849 157.441 219.318 157.962 221.747 157.63C224.177 157.298 226.416 156.135 228.084 154.337C229.751 152.54 230.744 150.22 230.894 147.772C231.043 145.325 230.339 142.901 228.902 140.915C227.464 138.928 225.383 137.501 223.012 136.877C220.641 136.253 218.126 136.47 215.897 137.491C213.668 138.513 211.862 140.275 210.787 142.479C209.712 144.683 209.433 147.191 210 149.576C210.318 150.934 210.903 152.214 211.72 153.344C212.537 154.473 213.57 155.429 214.76 156.156ZM224.32 140.676C225.816 141.6 226.946 143.014 227.516 144.678C228.086 146.341 228.062 148.151 227.448 149.798C226.834 151.446 225.667 152.829 224.147 153.713C222.627 154.597 220.847 154.926 219.111 154.645C217.376 154.364 215.791 153.489 214.628 152.171C213.465 150.852 212.794 149.171 212.732 147.414C212.669 145.657 213.218 143.932 214.284 142.534C215.35 141.136 216.869 140.151 218.58 139.746C219.552 139.513 220.561 139.475 221.548 139.635C222.535 139.794 223.481 140.148 224.33 140.676H224.32Z" fill="black"/>
<path d="M187.235 134.254C186.079 129.363 189.108 124.461 193.999 123.306C198.89 122.151 203.792 125.179 204.947 130.07C206.103 134.962 203.074 139.863 198.183 141.019C193.292 142.174 188.39 139.145 187.235 134.254Z" fill="#474747"/>
<path d="M190.52 141.176C192.606 142.467 195.074 142.994 197.505 142.668C199.936 142.342 202.178 141.183 203.851 139.389C205.523 137.595 206.521 135.277 206.676 132.829C206.83 130.382 206.131 127.956 204.697 125.966C203.264 123.976 201.185 122.545 198.814 121.916C196.444 121.287 193.928 121.5 191.697 122.518C189.466 123.536 187.657 125.296 186.578 127.499C185.499 129.701 185.217 132.209 185.78 134.596C186.096 135.952 186.678 137.232 187.491 138.361C188.305 139.49 189.334 140.447 190.52 141.176ZM200.08 125.696C201.576 126.62 202.706 128.034 203.276 129.698C203.846 131.361 203.822 133.171 203.208 134.818C202.594 136.466 201.427 137.849 199.907 138.733C198.387 139.617 196.607 139.946 194.871 139.665C193.136 139.384 191.551 138.509 190.388 137.191C189.225 135.872 188.554 134.191 188.492 132.434C188.429 130.677 188.978 128.952 190.044 127.554C191.11 126.156 192.629 125.171 194.34 124.766C195.311 124.534 196.318 124.497 197.303 124.657C198.288 124.816 199.232 125.17 200.08 125.696Z" fill="black"/>
<path d="M187.858 105.082C186.703 100.191 189.732 95.2889 194.623 94.1335C199.514 92.9782 204.416 96.0067 205.571 100.898C206.726 105.789 203.698 110.691 198.807 111.846C193.915 113.001 189.014 109.973 187.858 105.082Z" fill="#474747"/>
<path d="M191.15 112.006C193.236 113.297 195.704 113.824 198.135 113.498C200.566 113.172 202.808 112.013 204.481 110.219C206.153 108.425 207.151 106.107 207.306 103.659C207.46 101.212 206.761 98.7862 205.327 96.7963C203.894 94.8063 201.815 93.375 199.444 92.7462C197.074 92.1175 194.558 92.3302 192.327 93.3481C190.096 94.366 188.287 96.1262 187.208 98.3286C186.129 100.531 185.847 103.04 186.41 105.426C186.726 106.782 187.308 108.062 188.121 109.191C188.935 110.32 189.964 111.277 191.15 112.006ZM200.71 96.5165C202.206 97.4403 203.336 98.8544 203.906 100.518C204.476 102.181 204.452 103.991 203.838 105.638C203.224 107.286 202.057 108.669 200.537 109.553C199.017 110.437 197.237 110.766 195.501 110.485C193.766 110.204 192.181 109.329 191.018 108.011C189.855 106.692 189.184 105.011 189.122 103.254C189.059 101.497 189.608 99.772 190.674 98.3739C191.74 96.9757 193.259 95.9907 194.97 95.5865C195.941 95.3544 196.948 95.3171 197.933 95.4767C198.918 95.6363 199.862 95.9897 200.71 96.5165Z" fill="black"/>
<path d="M237.274 135.597C236.119 130.706 239.147 125.804 244.039 124.649C248.93 123.493 253.832 126.522 254.987 131.413C256.142 136.304 253.114 141.206 248.222 142.361C243.331 143.516 238.43 140.488 237.274 135.597Z" fill="#474747"/>
<path d="M240.56 142.526C242.646 143.817 245.114 144.344 247.545 144.018C249.976 143.692 252.218 142.533 253.891 140.739C255.563 138.945 256.561 136.627 256.716 134.179C256.87 131.732 256.171 129.306 254.737 127.316C253.304 125.326 251.225 123.895 248.854 123.266C246.484 122.638 243.968 122.85 241.737 123.868C239.506 124.886 237.697 126.646 236.618 128.849C235.539 131.051 235.257 133.56 235.82 135.946C236.136 137.302 236.718 138.582 237.531 139.711C238.345 140.841 239.374 141.797 240.56 142.526ZM250.12 127.046C251.616 127.97 252.746 129.384 253.316 131.048C253.886 132.711 253.862 134.521 253.248 136.168C252.634 137.816 251.467 139.199 249.947 140.083C248.427 140.967 246.647 141.296 244.911 141.015C243.176 140.734 241.591 139.86 240.428 138.541C239.265 137.222 238.595 135.541 238.532 133.784C238.469 132.027 239.018 130.302 240.084 128.904C241.151 127.506 242.669 126.521 244.38 126.116C245.352 125.883 246.361 125.845 247.348 126.005C248.335 126.164 249.281 126.518 250.13 127.046H250.12Z" fill="black"/>
<path d="M60.2352 160.056C58.8398 159.194 58.4075 157.364 59.2697 155.968C60.1318 154.573 61.962 154.141 63.3574 155.003C64.7528 155.865 65.1851 157.695 64.3229 159.091C63.4608 160.486 61.6306 160.918 60.2352 160.056Z" fill="#6D6D6D"/>
<path d="M59.4399 161.356C60.1918 161.821 61.0645 162.052 61.9476 162.02C62.8307 161.989 63.6847 161.696 64.4016 161.18C65.1185 160.663 65.6662 159.945 65.9755 159.118C66.2848 158.29 66.3419 157.389 66.1394 156.529C65.9369 155.669 65.484 154.888 64.838 154.285C64.1919 153.682 63.3816 153.284 62.5095 153.142C61.6374 152.999 60.7427 153.118 59.9382 153.484C59.1338 153.85 58.4558 154.446 57.99 155.196C57.3668 156.206 57.1694 157.421 57.4412 158.576C57.7131 159.731 58.4319 160.731 59.4399 161.356ZM62.5599 156.266C62.8106 156.416 63.0108 156.638 63.1352 156.902C63.2595 157.166 63.3023 157.462 63.2582 157.75C63.214 158.039 63.0848 158.308 62.8871 158.523C62.6894 158.738 62.4321 158.889 62.1481 158.957C61.8641 159.025 61.5663 159.007 61.2925 158.906C61.0188 158.804 60.7816 158.623 60.6112 158.385C60.4408 158.148 60.3449 157.866 60.3358 157.574C60.3267 157.282 60.4047 156.994 60.5599 156.746C60.7643 156.421 61.0881 156.188 61.462 156.098C61.8359 156.009 62.23 156.069 62.5599 156.266Z" fill="black"/>
<path d="M76.4768 68.9979C70.3637 43.1176 86.3882 17.1818 112.269 11.0687C138.149 4.95564 164.085 20.9802 170.198 46.8605C176.311 72.7408 160.286 98.6766 134.406 104.79C108.526 110.903 82.5898 94.8783 76.4768 68.9979Z" fill="#FF3600"/>
<path d="M97.2501 100.146C108.449 107.065 121.937 109.251 134.748 106.224C147.558 103.197 158.642 95.2052 165.56 84.0065C172.478 72.8077 174.664 59.3194 171.638 46.5088C168.611 33.6982 160.619 22.6147 149.42 15.6965C141.066 10.5343 131.369 7.96537 121.555 8.31448C111.741 8.66358 102.251 11.9151 94.2856 17.6578C86.3197 23.4005 80.2356 31.3764 76.8028 40.5769C73.37 49.7775 72.7426 59.7894 75.0001 69.3465C76.4968 75.693 79.2331 81.6812 83.0515 86.9669C86.8699 92.2525 91.6952 96.7315 97.2501 100.146ZM147.85 18.2665C157.033 23.938 163.965 32.618 167.465 42.8276C170.965 53.0372 170.817 64.1447 167.046 74.2573C163.274 84.3699 156.113 92.8619 146.783 98.2864C137.452 103.711 126.529 105.732 115.875 104.006C105.221 102.28 95.4951 96.9126 88.3547 88.8193C81.2143 80.7259 77.1012 70.4071 76.7161 59.621C76.331 48.8349 79.6979 38.249 86.2429 29.6671C92.788 21.0851 102.106 15.0381 112.61 12.5565C118.57 11.131 124.753 10.9016 130.802 11.8818C136.851 12.8619 142.645 15.032 147.85 18.2665Z" fill="black"/>
<path d="M116.048 59.6487C115.097 55.6229 117.589 51.5884 121.615 50.6375C125.641 49.6866 129.675 52.1793 130.626 56.2051C131.577 60.2309 129.085 64.2654 125.059 65.2163C121.033 66.1672 116.998 63.6745 116.048 59.6487Z" fill="#303030"/>
<path d="M118.61 65.5765C120.378 66.6787 122.473 67.1335 124.539 66.8633C126.604 66.5932 128.512 65.6148 129.937 64.095C131.362 62.5753 132.216 60.6083 132.352 58.5295C132.489 56.4507 131.9 54.389 130.686 52.6958C129.473 51.0026 127.709 49.783 125.697 49.2448C123.684 48.7067 121.547 48.8833 119.65 49.7447C117.754 50.6061 116.214 52.0989 115.295 53.9684C114.376 55.8379 114.134 57.9684 114.61 59.9965C114.876 61.1445 115.366 62.2286 116.052 63.1862C116.739 64.1439 117.608 64.9563 118.61 65.5765ZM126.48 52.8365C127.319 53.356 128.017 54.0744 128.512 54.9282C129.007 55.782 129.284 56.7448 129.318 57.7312C129.352 58.7175 129.142 59.6971 128.707 60.583C128.272 61.4688 127.625 62.2337 126.824 62.8098C126.023 63.3859 125.092 63.7554 124.113 63.8856C123.135 64.0158 122.14 63.9027 121.215 63.5562C120.291 63.2097 119.467 62.6406 118.815 61.8993C118.164 61.158 117.705 60.2674 117.48 59.3065C117.209 58.1516 117.287 56.9424 117.704 55.8317C118.12 54.721 118.856 53.7587 119.82 53.0663C120.783 52.3739 121.929 51.9825 123.115 51.9416C124.3 51.9007 125.471 52.2121 126.48 52.8365Z" fill="black"/>
<path d="M139.826 46.1246C138.671 41.2334 141.699 36.3317 146.59 35.1764C151.481 34.0211 156.383 37.0496 157.538 41.9408C158.694 46.832 155.665 51.7336 150.774 52.889C145.883 54.0443 140.981 51.0158 139.826 46.1246Z" fill="#474747"/>
<path d="M143.11 53.0464C145.196 54.3367 147.664 54.8638 150.095 54.538C152.526 54.2121 154.768 53.0534 156.441 51.2594C158.113 49.4654 159.111 47.147 159.266 44.6993C159.42 42.2517 158.721 39.8262 157.287 37.8363C155.854 35.8463 153.775 34.415 151.404 33.7862C149.034 33.1575 146.518 33.3702 144.287 34.3881C142.056 35.406 140.246 37.1662 139.168 39.3686C138.089 41.571 137.807 44.0795 138.37 46.4664C138.686 47.8221 139.268 49.1016 140.081 50.231C140.895 51.3605 141.924 52.3174 143.11 53.0464ZM152.67 37.5664C154.166 38.4903 155.296 39.9044 155.866 41.5677C156.436 43.231 156.412 45.0406 155.798 46.6882C155.184 48.3358 154.017 49.7194 152.497 50.6032C150.977 51.487 149.197 51.8163 147.461 51.5351C145.726 51.2539 144.141 50.3795 142.978 49.0609C141.815 47.7423 141.144 46.0611 141.082 44.3039C141.019 42.5466 141.568 40.8219 142.634 39.4238C143.7 38.0257 145.219 37.0406 146.93 36.6364C147.901 36.4044 148.908 36.367 149.893 36.5267C150.878 36.6863 151.822 37.0397 152.67 37.5664Z" fill="black"/>
<path d="M115.58 31.1404C114.425 26.2492 117.453 21.3476 122.344 20.1923C127.236 19.0369 132.137 22.0654 133.293 26.9566C134.448 31.8478 131.419 36.7495 126.528 37.9048C121.637 39.0602 116.735 36.0316 115.58 31.1404Z" fill="#474747"/>
<path d="M118.86 38.0665C120.946 39.3567 123.414 39.8838 125.845 39.558C128.276 39.2321 130.518 38.0735 132.191 36.2794C133.863 34.4854 134.861 32.167 135.016 29.7194C135.17 27.2717 134.471 24.8462 133.037 22.8563C131.604 20.8663 129.525 19.435 127.154 18.8062C124.784 18.1775 122.268 18.3902 120.037 19.4081C117.806 20.426 115.996 22.1862 114.918 24.3886C113.839 26.5911 113.557 29.0995 114.12 31.4865C114.436 32.8421 115.018 34.1216 115.831 35.2511C116.645 36.3805 117.674 37.3374 118.86 38.0665ZM128.42 22.5865C129.916 23.5103 131.046 24.9244 131.616 26.5877C132.186 28.251 132.162 30.0606 131.548 31.7082C130.934 33.3558 129.767 34.7394 128.247 35.6232C126.727 36.507 124.947 36.8364 123.211 36.5551C121.476 36.2739 119.891 35.3995 118.728 34.0809C117.565 32.7623 116.894 31.0812 116.832 29.3239C116.769 27.5666 117.318 25.842 118.384 24.4439C119.45 23.0457 120.969 22.0606 122.68 21.6565C123.651 21.4244 124.658 21.3871 125.643 21.5467C126.628 21.7063 127.572 22.0597 128.42 22.5865Z" fill="black"/>
<path d="M113.384 88.9093C112.228 84.0181 115.257 79.1164 120.148 77.9611C125.039 76.8057 129.941 79.8342 131.096 84.7254C132.252 89.6166 129.223 94.5183 124.332 95.6736C119.441 96.829 114.539 93.8005 113.384 88.9093Z" fill="#474747"/>
<path d="M116.67 95.8365C118.756 97.1263 121.226 97.6526 123.657 97.3257C126.088 96.9988 128.33 95.8389 130.002 94.0438C131.673 92.2486 132.67 89.9293 132.823 87.4811C132.976 85.033 132.275 82.6076 130.84 80.6184C129.405 78.6291 127.324 77.1992 124.953 76.5723C122.582 75.9454 120.066 76.1604 117.835 77.1805C115.605 78.2007 113.797 79.9629 112.72 82.1668C111.643 84.3707 111.364 86.8798 111.93 89.2665C112.247 90.6203 112.829 91.8979 113.643 93.0256C114.456 94.1532 115.485 95.1086 116.67 95.8365ZM126.23 80.3565C127.726 81.2803 128.856 82.6944 129.426 84.3577C129.996 86.021 129.972 87.8307 129.358 89.4782C128.744 91.1258 127.577 92.5094 126.057 93.3932C124.537 94.277 122.757 94.6064 121.021 94.3251C119.286 94.0439 117.701 93.1695 116.538 91.8509C115.375 90.5323 114.704 88.8512 114.642 87.0939C114.579 85.3366 115.128 83.612 116.194 82.2139C117.26 80.8158 118.779 79.8307 120.49 79.4265C121.461 79.1944 122.468 79.1571 123.453 79.3167C124.438 79.4763 125.382 79.8297 126.23 80.3565Z" fill="black"/>
<path d="M89.138 73.9251C87.9827 69.0339 91.0112 64.1322 95.9024 62.9769C100.794 61.8215 105.695 64.8501 106.851 69.7412C108.006 74.6324 104.977 79.5341 100.086 80.6894C95.195 81.8448 90.2933 78.8163 89.138 73.9251Z" fill="#474747"/>
<path d="M92.42 80.8564C94.5049 82.1471 96.9729 82.6751 99.4034 82.3503C101.834 82.0254 104.077 80.868 105.75 79.0751C107.422 77.2822 108.422 74.9648 108.578 72.5176C108.734 70.0704 108.036 67.6448 106.605 65.6542C105.173 63.6635 103.095 62.2308 100.725 61.6002C98.3557 60.9696 95.8406 61.18 93.6087 62.1957C91.3768 63.2114 89.5661 64.9695 88.4851 67.1705C87.404 69.3715 87.1195 71.8792 87.6799 74.2664C87.9947 75.6239 88.5758 76.9053 89.3894 78.0366C90.2031 79.1678 91.2331 80.1263 92.42 80.8564ZM102 65.3764C103.496 66.3003 104.626 67.7144 105.196 69.3777C105.766 71.041 105.742 72.8506 105.128 74.4982C104.514 76.1458 103.347 77.5294 101.827 78.4132C100.307 79.297 98.5272 79.6263 96.7914 79.3451C95.0556 79.0639 93.4711 78.1895 92.3078 76.8709C91.1445 75.5523 90.4744 73.8711 90.4117 72.1139C90.3491 70.3566 90.8977 68.632 91.9641 67.2338C93.0304 65.8357 94.5486 64.8506 96.2599 64.4464C97.2307 64.2144 98.2378 64.177 99.2231 64.3367C100.208 64.4963 101.152 64.8497 102 65.3764Z" fill="black"/>
<path d="M89.7717 44.7526C88.6163 39.8614 91.6449 34.9598 96.5361 33.8044C101.427 32.6491 106.329 35.6776 107.484 40.5688C108.64 45.46 105.611 50.3617 100.72 51.517C95.8287 52.6723 90.927 49.6438 89.7717 44.7526Z" fill="#474747"/>
<path d="M93.05 51.6865C95.1357 52.9767 97.6043 53.5038 100.035 53.178C102.466 52.8521 104.708 51.6935 106.381 49.8994C108.053 48.1054 109.051 45.787 109.206 43.3394C109.36 40.8917 108.661 38.4662 107.227 36.4763C105.794 34.4863 103.715 33.055 101.344 32.4262C98.9737 31.7975 96.4584 32.0102 94.2271 33.0281C91.9958 34.046 90.1865 35.8062 89.1076 38.0086C88.0286 40.2111 87.7468 42.7195 88.31 45.1065C88.626 46.4621 89.2076 47.7416 90.0212 48.8711C90.8348 50.0005 91.8643 50.9574 93.05 51.6865ZM102.61 36.2065C104.106 37.1303 105.236 38.5444 105.806 40.2077C106.376 41.871 106.352 43.6806 105.738 45.3282C105.124 46.9758 103.957 48.3594 102.437 49.2432C100.917 50.127 99.1372 50.4563 97.4015 50.1751C95.6657 49.8939 94.0812 49.0195 92.9179 47.7009C91.7546 46.3823 91.0845 44.7011 91.0218 42.9439C90.9591 41.1866 91.5077 39.462 92.5741 38.0638C93.6405 36.6657 95.1587 35.6806 96.87 35.2765C97.8423 35.043 98.8513 35.005 99.8383 35.1646C100.825 35.3243 101.771 35.6784 102.62 36.2065H102.61Z" fill="black"/>
<path d="M139.18 75.2874C138.025 70.3962 141.053 65.4945 145.944 64.3392C150.835 63.1838 155.737 66.2123 156.892 71.1035C158.048 75.9947 155.019 80.8964 150.128 82.0517C145.237 83.2071 140.335 80.1785 139.18 75.2874Z" fill="#474747"/>
<path d="M142.47 82.2065C144.556 83.4967 147.024 84.0239 149.455 83.698C151.886 83.3722 154.128 82.2135 155.801 80.4195C157.473 78.6254 158.471 76.307 158.626 73.8594C158.78 71.4117 158.081 68.9863 156.647 66.9963C155.214 65.0063 153.135 63.575 150.764 62.9463C148.394 62.3175 145.878 62.5302 143.647 63.5481C141.416 64.5661 139.607 66.3262 138.528 68.5286C137.449 70.7311 137.167 73.2395 137.73 75.6265C138.046 76.9821 138.628 78.2616 139.441 79.3911C140.255 80.5205 141.284 81.4774 142.47 82.2065ZM152 66.7265C153.496 67.6503 154.626 69.0644 155.196 70.7277C155.766 72.391 155.742 74.2007 155.128 75.8482C154.514 77.4958 153.347 78.8794 151.827 79.7632C150.307 80.647 148.527 80.9764 146.792 80.6951C145.056 80.4139 143.471 79.5395 142.308 78.2209C141.145 76.9023 140.475 75.2212 140.412 73.4639C140.349 71.7066 140.898 69.982 141.964 68.5839C143.031 67.1857 144.549 66.2007 146.26 65.7965C147.231 65.5644 148.238 65.5271 149.223 65.6867C150.208 65.8463 151.152 66.1997 152 66.7265Z" fill="black"/>
<path d="M232.941 163.276L232.953 164.196L62.307 166.37L62.2953 165.45L232.941 163.276Z" fill="#990404"/>
<path d="M76.6027 67.2743L77.4934 67.5046L53.7724 159.227L52.8817 158.997L76.6027 67.2743Z" fill="#990404"/>
<path d="M183.61 89.5132L184.068 90.3114L63.585 159.368L63.1275 158.57L183.61 89.5132Z" fill="#990404"/>
<path d="M164.623 79.4713L165.168 80.2131L60.0101 157.374L59.4658 156.633L164.623 79.4713Z" fill="#990404"/>
<path d="M145 188.866L173.79 206.656C174.311 206.979 174.939 207.081 175.535 206.94C176.132 206.799 176.648 206.428 176.97 205.906C177.292 205.385 177.394 204.758 177.254 204.161C177.113 203.565 176.741 203.049 176.22 202.726L147.43 184.936C146.909 184.614 146.281 184.512 145.685 184.653C145.088 184.794 144.572 185.165 144.25 185.686C143.928 186.208 143.826 186.835 143.966 187.432C144.107 188.028 144.479 188.544 145 188.866Z" fill="#990404"/>
<path d="M139.31 198.056L168.1 215.846C168.621 216.169 169.249 216.271 169.845 216.13C170.442 215.989 170.958 215.618 171.28 215.096C171.602 214.575 171.704 213.947 171.564 213.351C171.423 212.755 171.051 212.239 170.53 211.916L141.74 194.126C141.219 193.804 140.591 193.702 139.995 193.843C139.398 193.983 138.882 194.355 138.56 194.876C138.238 195.398 138.136 196.025 138.276 196.622C138.417 197.218 138.789 197.734 139.31 198.056Z" fill="#990404"/>
<path d="M133.63 207.266L162.42 225.056C162.941 225.379 163.569 225.481 164.165 225.34C164.762 225.199 165.278 224.828 165.6 224.306C165.922 223.785 166.024 223.157 165.884 222.561C165.743 221.965 165.371 221.449 164.85 221.126L136.06 203.336C135.539 203.014 134.911 202.912 134.315 203.053C133.718 203.194 133.202 203.565 132.88 204.086C132.558 204.608 132.456 205.235 132.596 205.832C132.737 206.428 133.109 206.944 133.63 207.266Z" fill="#990404"/>
</svg>
