<svg width="383" height="240" viewBox="0 0 383 240" fill="none" xmlns="http://www.w3.org/2000/svg">
<path d="M332.911 132.022C333.156 133.169 333.265 134.582 333.249 136.067C333.233 137.822 332.985 139.356 332.513 140.589C332.044 141.814 331.344 142.808 330.42 143.402C329.069 144.375 327.408 144.505 325.809 144.619C325.76 144.631 325.736 144.639 325.687 144.647C324.364 144.753 322.98 144.826 321.995 145.213C321.596 145.4 321.535 145.514 321.474 145.669C321.442 145.746 321.38 145.982 321.319 146.426C325.154 147.187 328.988 147.952 332.822 148.714C332.822 150.887 332.822 151.974 332.822 154.143C327.974 152.613 323.127 151.082 318.279 149.552C318.267 149.426 318.259 149.365 318.246 149.239C318.234 148.632 318.226 148.327 318.214 147.724C318.181 145.759 318.34 144.476 318.735 143.495C319.26 142.189 320.151 141.603 320.855 141.273C322.117 140.646 323.648 140.345 325.312 140.036C326.55 139.808 328.174 139.478 329.155 138.729C329.903 138.159 330.168 137.472 330.168 136.177C330.168 136.157 330.168 136.145 330.168 136.124C330.229 134.724 330.013 133.597 329.492 132.811C328.784 131.647 327.616 131.244 326.077 131.549C326.041 131.558 326.021 131.562 325.984 131.566C324.201 132.107 322.972 132.917 322.357 133.987C321.686 135.152 321.771 136.629 321.836 137.883C321.836 138.017 321.836 138.082 321.836 138.216C321.836 138.343 321.836 138.469 321.836 138.595C321.836 138.929 321.836 139.1 321.836 139.433C321.739 139.433 321.69 139.433 321.592 139.433C320.583 139.482 320.078 139.507 319.073 139.547C318.963 139.547 318.906 139.547 318.796 139.547C318.796 139.21 318.796 139.043 318.796 138.705C318.796 138.66 318.796 138.636 318.796 138.591C318.796 138.477 318.767 138.359 318.763 138.208C318.747 137.573 318.662 136.56 318.796 135.485C318.967 134.093 319.398 132.811 320.086 131.659C320.664 130.691 321.47 129.758 322.394 129.001C323.359 128.204 324.547 127.483 325.898 126.962C325.911 126.958 325.919 126.958 325.931 126.954C326.016 126.926 326.061 126.913 326.147 126.885C327.254 126.535 328.308 126.49 329.191 126.738C330.233 127.027 331.031 127.727 331.682 128.733C332.248 129.612 332.647 130.776 332.911 132.022Z" fill="#D81F27"/>
<path d="M349.363 146.658C349.135 149.218 348.785 151.258 348.289 152.82C347.658 154.795 346.836 156.064 345.798 156.773C344.792 157.456 343.551 157.538 342.077 157.07C340.633 156.614 339.342 155.657 338.296 154.343C337.34 153.146 336.481 151.612 335.866 149.731C334.942 147.086 334.482 143.874 334.482 140.068C334.482 137.74 334.552 135.97 334.698 134.362C334.889 132.241 335.252 130.442 335.744 128.945C336.347 127.109 337.157 125.542 338.268 124.305C339.31 123.144 340.576 122.29 342.082 121.814C343.559 121.35 344.731 121.378 345.68 121.866C346.742 122.416 347.527 123.727 348.138 125.587C348.618 127.052 349.033 129.075 349.278 131.94C349.465 134.142 349.571 136.694 349.587 139.812C349.595 142.637 349.53 144.827 349.363 146.658ZM346.534 139.942C346.49 135.441 346.258 132.001 345.671 130.133C345.427 129.4 345.049 128.912 344.625 128.647C344.023 128.265 343.209 128.171 342.102 128.391C342.09 128.395 342.082 128.395 342.069 128.399C340.962 128.619 340.071 129.067 339.424 129.738C338.911 130.271 338.532 130.89 338.284 131.725C338.284 131.749 338.284 131.761 338.284 131.786C337.608 133.788 337.515 137.093 337.515 140.113C337.515 142.832 337.824 145.083 338.345 146.756C338.654 147.72 339.049 148.506 339.574 149.129C340.205 149.878 341.08 150.37 342.065 150.566C343.111 150.773 343.974 150.582 344.589 150.106C345.085 149.719 345.48 149.157 345.757 148.286C346.29 146.744 346.579 144.09 346.534 139.942Z" fill="#D81F27"/>
<path d="M365.51 126.84C365.758 128.826 365.864 131.208 365.848 133.723C365.831 136.706 365.583 139.283 365.111 141.395C364.639 143.504 363.943 145.225 363.019 146.316C361.667 148.095 360.007 148.494 358.407 148.876C358.358 148.905 358.334 148.917 358.285 148.946C356.962 149.279 355.578 149.585 354.593 150.472C354.195 150.891 354.133 151.119 354.072 151.428C354.04 151.583 353.979 152.051 353.918 152.914C357.752 153.675 361.586 154.44 365.42 155.201C365.42 158.893 365.42 160.741 365.42 164.433C360.573 162.902 355.725 161.372 350.873 159.841C350.861 159.593 350.853 159.471 350.841 159.223C350.828 158.002 350.82 157.391 350.808 156.17C350.776 152.21 350.934 149.585 351.329 147.566C351.854 144.875 352.746 143.675 353.45 142.999C354.711 141.721 356.25 141.119 357.911 140.532C359.124 140.105 360.764 139.507 361.753 138.188C362.494 137.203 362.766 136.006 362.766 133.755C362.766 133.719 362.766 133.703 362.766 133.666C362.827 131.228 362.612 129.258 362.091 127.821C361.383 125.696 360.214 124.797 358.676 125.102C358.639 125.11 358.619 125.114 358.582 125.118C356.799 125.81 355.57 127.125 354.952 129.075C354.28 131.195 354.365 134.057 354.431 136.462C354.431 136.719 354.431 136.849 354.431 137.105C354.431 137.345 354.431 137.586 354.431 137.83C354.431 138.473 354.431 138.794 354.431 139.438C354.333 139.438 354.284 139.438 354.186 139.438C353.177 139.535 352.672 139.58 351.663 139.669C351.553 139.669 351.496 139.669 351.386 139.669C351.386 138.994 351.386 138.656 351.386 137.98C351.386 137.887 351.386 137.842 351.386 137.752C351.386 137.52 351.358 137.288 351.354 136.987C351.337 135.701 351.252 133.69 351.386 131.537C351.557 128.765 351.976 126.323 352.676 124.182C353.254 122.416 354.056 120.816 354.984 119.603C355.941 118.35 357.137 117.316 358.489 116.722C358.501 116.718 358.509 116.718 358.521 116.713C358.607 116.685 358.651 116.673 358.737 116.644C359.844 116.294 360.902 116.481 361.781 117.112C362.823 117.857 363.617 119.213 364.272 121.065C364.846 122.66 365.237 124.671 365.51 126.84Z" fill="#D81F27"/>
<path d="M381.962 150.378C381.734 154.282 381.384 157.395 380.887 159.841C380.256 162.927 379.446 164.978 378.396 166.252C377.399 167.461 376.149 167.823 374.676 167.355C373.231 166.899 371.949 165.629 370.895 163.667C369.942 161.901 369.079 159.516 368.465 156.484C367.362 151.2 367.13 145.815 367.081 140.488C367.044 136.621 367.15 133.625 367.296 130.943C367.488 127.402 367.85 124.447 368.343 122.033C368.953 119.046 369.755 116.632 370.866 114.821C371.904 113.123 373.174 112 374.68 111.524C376.157 111.06 377.342 111.329 378.278 112.232C379.352 113.27 380.122 115.358 380.736 118.293C381.221 120.6 381.632 123.702 381.876 128.061C382.1 132.03 382.177 136.031 382.185 140.003C382.181 144.297 382.124 147.59 381.962 150.378ZM379.133 140.211C379.072 135.196 379.12 130.027 378.27 125.029C378.026 123.873 377.639 123.071 377.224 122.619C376.605 121.948 375.807 121.72 374.7 121.94C374.688 121.944 374.68 121.944 374.668 121.944C373.561 122.163 372.673 122.766 372.022 123.779C371.509 124.581 371.131 125.546 370.882 126.877C370.882 126.917 370.882 126.938 370.882 126.979C370.072 131.427 370.105 136.035 370.113 140.528C370.121 144.965 370.422 148.648 370.943 151.314C371.253 152.853 371.639 154.07 372.173 155.03C372.795 156.15 373.679 156.85 374.664 157.045C375.71 157.253 376.564 156.862 377.187 156.048C377.68 155.397 378.078 154.485 378.355 153.117C379.177 148.901 379.182 144.456 379.133 140.211Z" fill="#D81F27"/>
<path d="M56.6452 106.815C56.6452 101.821 56.4824 97.5592 56.3156 94.0384H67.1261L67.7 99.5251H67.9442C69.5804 96.9853 73.675 93.1389 80.3095 93.1389C88.4988 93.1389 94.6407 98.5442 94.6407 110.336V134.085H82.194V111.89C82.194 106.729 80.3909 103.209 75.8892 103.209C72.4499 103.209 70.4026 105.582 69.5845 107.877C69.2588 108.614 69.092 109.843 69.092 110.991V134.085H56.6452V106.815Z" fill="#D81F27"/>
<path d="M99.3134 122.603C101.605 123.967 106.355 125.574 110.042 125.574C113.812 125.574 115.366 124.288 115.366 122.282C115.366 120.275 114.137 119.31 109.469 117.784C101.198 115.053 98.0028 110.637 98.0842 105.98C98.0842 98.6743 104.47 93.1348 114.381 93.1348C119.05 93.1348 123.226 94.1767 125.684 95.3815L123.474 103.811C121.671 102.846 118.232 101.564 114.792 101.564C111.764 101.564 110.042 102.769 110.042 104.776C110.042 106.623 111.597 107.584 116.51 109.273C124.125 111.842 127.321 115.615 127.402 121.398C127.402 128.704 121.504 134.085 110.042 134.085C104.8 134.085 100.132 132.962 97.1033 131.354L99.3134 122.603Z" fill="#D81F27"/>
<path d="M286.027 122.603C288.318 123.967 293.068 125.574 296.756 125.574C300.525 125.574 302.079 124.288 302.079 122.282C302.079 120.275 300.85 119.31 296.182 117.784C287.911 115.053 284.716 110.637 284.797 105.98C284.797 98.6743 291.183 93.1348 301.094 93.1348C305.763 93.1348 309.939 94.1767 312.397 95.3815L310.187 103.811C308.384 102.846 304.945 101.564 301.506 101.564C298.477 101.564 296.756 102.769 296.756 104.776C296.756 106.623 298.31 107.584 303.223 109.273C310.839 111.842 314.034 115.615 314.115 121.398C314.115 128.704 308.217 134.085 296.756 134.085C291.513 134.085 286.845 132.962 283.816 131.354L286.027 122.603Z" fill="#D81F27"/>
<path d="M147.387 82.5726V93.8593H156.313V102.887H147.387V117.157C147.387 121.911 148.535 124.089 152.3 124.089C153.854 124.089 155.084 123.926 155.983 123.767L156.064 133.039C154.428 133.682 151.477 134.085 147.957 134.085C143.943 134.085 140.585 132.714 138.62 130.699C136.328 128.363 135.18 124.573 135.18 119.009V102.887H129.856V93.8593H135.18V85.316L147.387 82.5726Z" fill="#D81F27"/>
<path d="M180.018 106.815C180.018 101.821 179.855 97.5592 179.688 94.0384H190.498L191.072 99.5251H191.317C192.953 96.9853 197.047 93.1389 203.682 93.1389C211.871 93.1389 218.013 98.5442 218.013 110.336V134.085H205.566V111.89C205.566 106.729 203.763 103.209 199.262 103.209C195.822 103.209 193.775 105.582 192.957 107.877C192.631 108.614 192.464 109.843 192.464 110.991V134.085H180.018V106.815Z" fill="#D81F27"/>
<path d="M252.659 132.319C250.449 133.283 246.273 134.085 241.523 134.085C228.584 134.085 220.313 126.376 220.313 114.015C220.313 102.533 228.339 93.1389 243.244 93.1389C246.521 93.1389 250.123 93.7006 252.744 94.6652L250.778 103.738C249.305 103.095 247.095 102.533 243.818 102.533C237.265 102.533 233.008 107.108 233.089 113.531C233.089 120.755 238.002 124.528 244.063 124.528C247.009 124.528 249.305 124.048 251.185 123.324L252.659 132.319Z" fill="#D81F27"/>
<path d="M272.721 82.5726V93.8593H281.647V102.887H272.721V117.157C272.721 121.911 273.869 124.089 277.634 124.089C279.189 124.089 280.418 123.926 281.317 123.767L281.399 133.039C279.762 133.682 276.812 134.085 273.291 134.085C269.278 134.085 265.92 132.714 263.954 130.699C261.662 128.363 260.514 124.573 260.514 119.009V102.887H255.191V93.8593H260.514V85.316L272.721 82.5726Z" fill="#D81F27"/>
<path d="M35.7935 138.278C35.7935 153.427 35.7935 168.576 35.7935 183.73C127.524 205.298 222.417 205.298 314.152 183.73C314.152 168.58 314.152 153.431 314.152 138.278C221.363 138.282 128.578 138.282 35.7935 138.278ZM123.222 183.986C97.4614 182.175 71.8637 179.171 46.3842 174.962C46.4086 166.492 46.433 158.022 46.4534 149.552C72.0835 150.846 97.7259 151.77 123.385 152.324C123.332 162.874 123.279 173.432 123.222 183.986ZM213.752 184.743C187.21 185.977 160.696 185.944 134.158 184.637C134.203 173.933 134.252 163.224 134.297 152.519C160.737 152.918 187.177 152.93 213.617 152.552C213.666 163.285 213.711 174.014 213.752 184.743ZM303.557 174.958C277.341 179.289 250.998 182.338 224.485 184.129C224.432 173.538 224.379 162.951 224.326 152.361C250.73 151.811 277.113 150.875 303.488 149.544C303.508 158.018 303.533 166.488 303.557 174.958Z" fill="#D81F27"/>
<path d="M63.1739 169.187C65.0665 169.403 66.0108 169.508 67.9035 169.72C67.8994 170.29 67.8994 170.575 67.8953 171.145C65.3514 170.852 64.0775 170.701 61.5336 170.392C61.558 166 61.5783 161.608 61.6028 157.216C62.254 157.261 62.5837 157.285 63.2349 157.334C63.2146 161.282 63.1942 165.235 63.1739 169.187Z" fill="#D81F27"/>
<path d="M71.237 171.519C70.5858 171.446 70.2561 171.409 69.6049 171.336C69.6333 166.814 69.6578 162.296 69.6863 157.774C70.3416 157.819 70.6672 157.839 71.3184 157.88C71.294 162.43 71.2655 166.977 71.237 171.519Z" fill="#D81F27"/>
<path d="M81.1114 170.729C80.8305 171.238 80.3828 171.666 79.7682 172.016C79.1536 172.366 78.3721 172.488 77.4115 172.386C76.1905 172.256 75.2055 171.71 74.4647 170.754C73.7239 169.797 73.3576 168.519 73.3657 166.899C73.3779 165.271 73.382 164.453 73.3902 162.825C73.3983 161.234 73.7687 160.029 74.5013 159.203C75.2299 158.372 76.1986 157.994 77.3993 158.067C78.5838 158.14 79.4996 158.56 80.1386 159.329C80.7776 160.102 81.0829 161.128 81.0544 162.402C81.0462 162.426 81.0462 162.434 81.0381 162.459C80.4235 162.414 80.1142 162.394 79.4996 162.349C79.5036 161.51 79.3327 160.843 78.9786 160.359C78.6245 159.87 78.1075 159.606 77.4237 159.561C76.687 159.512 76.1091 159.777 75.6817 160.354C75.2543 160.928 75.0386 161.791 75.0345 162.943C75.0223 164.588 75.0182 165.414 75.0101 167.058C75.002 168.234 75.2136 169.15 75.6491 169.814C76.0806 170.473 76.6748 170.848 77.4237 170.921C77.9773 170.978 78.4169 170.917 78.7506 170.746C79.0803 170.575 79.3245 170.347 79.4751 170.066C79.4833 168.764 79.4873 168.112 79.4955 166.806C78.6326 166.733 78.2012 166.696 77.3383 166.619C77.3423 166.053 77.3423 165.772 77.3464 165.206C78.8646 165.332 79.6257 165.393 81.148 165.516C81.1317 167.599 81.1276 168.641 81.1114 170.729Z" fill="#D81F27"/>
<path d="M91.1282 173.518C90.4729 173.461 90.1473 173.428 89.492 173.371C89.5082 170.831 89.5164 169.561 89.5327 167.022C87.697 166.883 86.7771 166.814 84.9415 166.667C84.9252 169.175 84.917 170.428 84.9008 172.936C84.2454 172.874 83.9198 172.842 83.2645 172.777C83.2971 168.059 83.3256 163.342 83.3581 158.625C84.0134 158.661 84.3391 158.682 84.9944 158.718C84.9781 161.291 84.9699 162.581 84.9496 165.153C86.7853 165.292 87.7051 165.357 89.5408 165.487C89.5571 162.882 89.5652 161.576 89.5856 158.971C90.2409 159.007 90.5665 159.024 91.2218 159.056C91.1933 163.879 91.1607 168.698 91.1282 173.518Z" fill="#D81F27"/>
<path d="M100.241 161.095C98.9959 161.034 98.3732 161.002 97.1277 160.937C97.0992 165.3 97.0707 169.667 97.0422 174.03C96.3829 173.978 96.0532 173.949 95.3979 173.892C95.4264 169.545 95.4548 165.194 95.4833 160.847C94.2501 160.782 93.6314 160.745 92.394 160.676C92.3981 160.053 92.4022 159.744 92.4063 159.121C95.5444 159.284 97.1114 159.361 100.25 159.512C100.25 160.143 100.245 160.46 100.241 161.095Z" fill="#D81F27"/>
<path d="M106.815 171.023C106.819 170.339 106.668 169.765 106.367 169.301C106.062 168.841 105.512 168.369 104.751 167.994C103.697 167.473 102.81 166.875 102.219 166.155C101.633 165.434 101.344 164.506 101.348 163.366C101.357 162.202 101.69 161.258 102.346 160.53C103.005 159.805 103.844 159.459 104.865 159.504C105.952 159.553 106.819 160.013 107.47 160.892C108.121 161.771 108.431 162.858 108.402 164.144C108.394 164.168 108.394 164.181 108.386 164.205C107.755 164.172 107.442 164.156 106.811 164.124C106.815 163.244 106.636 162.528 106.273 161.97C105.911 161.413 105.431 161.12 104.833 161.091C104.251 161.063 103.799 161.274 103.477 161.722C103.156 162.17 102.989 162.74 102.985 163.432C102.981 164.079 103.148 164.62 103.481 165.064C103.819 165.503 104.393 165.963 105.183 166.358C106.216 166.875 107.063 167.494 107.617 168.247C108.17 169 108.447 169.952 108.439 171.104C108.431 172.329 108.097 173.282 107.433 173.961C106.77 174.641 105.903 174.938 104.833 174.857C103.799 174.779 102.903 174.319 102.146 173.489C101.389 172.655 101.027 171.523 101.064 170.082C101.072 170.058 101.072 170.046 101.08 170.021C101.711 170.066 102.028 170.086 102.659 170.131C102.651 171.137 102.859 171.902 103.278 172.431C103.697 172.96 104.218 173.245 104.841 173.29C105.447 173.334 105.927 173.151 106.273 172.74C106.619 172.329 106.811 171.755 106.815 171.023Z" fill="#D81F27"/>
<path d="M154.098 172.244C154.107 172.268 154.107 172.284 154.115 172.309C154.131 173.876 153.805 175.085 153.134 175.935C152.462 176.786 151.542 177.197 150.37 177.164C149.161 177.132 148.201 176.582 147.484 175.524C146.772 174.466 146.414 172.997 146.422 171.12C146.426 169.366 146.43 168.487 146.434 166.732C146.438 164.864 146.796 163.415 147.505 162.377C148.213 161.339 149.161 160.831 150.354 160.847C151.555 160.867 152.491 161.299 153.162 162.149C153.834 163 154.155 164.233 154.131 165.849C154.123 165.874 154.123 165.89 154.115 165.914C153.484 165.906 153.17 165.898 152.54 165.89C152.544 164.754 152.36 163.92 151.998 163.379C151.632 162.837 151.082 162.565 150.35 162.552C149.629 162.54 149.068 162.894 148.673 163.619C148.278 164.343 148.079 165.381 148.075 166.745C148.07 168.515 148.066 169.398 148.062 171.169C148.058 172.545 148.258 173.607 148.661 174.348C149.064 175.093 149.633 175.471 150.374 175.492C151.086 175.508 151.62 175.26 151.978 174.739C152.336 174.222 152.515 173.379 152.519 172.215C153.154 172.227 153.468 172.231 154.098 172.244Z" fill="#D81F27"/>
<path d="M161.103 173.127C159.695 173.107 158.991 173.098 157.583 173.074C157.241 174.678 157.07 175.479 156.724 177.083C156.04 177.071 155.698 177.063 155.014 177.046C156.207 171.759 157.395 166.472 158.58 161.181C159.215 161.189 159.536 161.189 160.171 161.197C161.331 166.529 162.491 171.857 163.651 177.189C162.967 177.181 162.626 177.177 161.942 177.169C161.612 175.549 161.441 174.743 161.103 173.127ZM157.961 171.316C159.076 171.332 159.63 171.34 160.745 171.356C160.204 168.755 159.935 167.457 159.398 164.856C159.378 164.856 159.369 164.856 159.349 164.856C158.791 167.445 158.515 168.735 157.961 171.316Z" fill="#D81F27"/>
<path d="M169.923 174.303C169.944 174.303 169.952 174.303 169.972 174.303C170.917 169.956 171.857 165.613 172.801 161.266C173.644 161.266 174.063 161.266 174.901 161.266C174.901 166.598 174.901 171.926 174.901 177.258C174.246 177.258 173.92 177.258 173.265 177.258C173.265 173.42 173.265 169.578 173.269 165.735C173.249 165.731 173.241 165.727 173.22 165.723C172.321 169.565 171.417 173.408 170.514 177.246C170.062 177.242 169.838 177.242 169.386 177.242C168.474 173.335 167.563 169.431 166.651 165.524C166.631 165.528 166.623 165.532 166.602 165.536C166.598 169.431 166.594 173.326 166.59 177.222C165.935 177.218 165.609 177.213 164.954 177.205C164.958 171.881 164.966 166.558 164.97 161.234C165.825 161.238 166.256 161.242 167.111 161.246C168.055 165.601 168.987 169.952 169.923 174.303Z" fill="#D81F27"/>
<path d="M182.741 169.81C181.141 169.822 180.343 169.826 178.744 169.83C178.744 172.122 178.744 173.269 178.748 175.561C180.632 175.553 181.576 175.549 183.461 175.532C183.461 176.208 183.461 176.546 183.461 177.222C180.917 177.246 179.647 177.25 177.103 177.258C177.103 171.926 177.099 166.598 177.099 161.266C179.623 161.262 180.88 161.258 183.404 161.246C183.404 161.93 183.404 162.272 183.404 162.96C181.54 162.972 180.604 162.976 178.74 162.98C178.74 165.039 178.74 166.069 178.744 168.129C180.343 168.125 181.141 168.121 182.741 168.108C182.741 168.788 182.741 169.126 182.741 169.81Z" fill="#D81F27"/>
<path d="M186.742 170.31C186.746 173.062 186.746 174.434 186.75 177.185C186.09 177.193 185.765 177.197 185.105 177.205C185.101 171.886 185.093 166.566 185.089 161.246C186.477 161.238 187.169 161.234 188.557 161.222C189.688 161.213 190.564 161.596 191.182 162.369C191.801 163.143 192.11 164.258 192.114 165.719C192.114 166.549 191.972 167.278 191.687 167.909C191.398 168.536 190.987 169.024 190.45 169.374C191.052 169.643 191.492 170.099 191.76 170.734C192.029 171.373 192.163 172.166 192.163 173.111C192.163 173.668 192.163 173.945 192.167 174.499C192.167 174.987 192.204 175.443 192.277 175.862C192.346 176.285 192.472 176.611 192.652 176.839C192.652 176.941 192.652 176.99 192.652 177.091C191.976 177.104 191.638 177.112 190.958 177.12C190.775 176.884 190.653 176.517 190.596 176.025C190.539 175.532 190.511 175.024 190.507 174.499C190.507 173.961 190.507 173.693 190.503 173.151C190.503 172.26 190.348 171.56 190.043 171.043C189.737 170.53 189.314 170.274 188.777 170.282C187.959 170.298 187.552 170.302 186.742 170.31ZM186.738 168.613C187.438 168.605 187.788 168.601 188.484 168.597C189.163 168.589 189.664 168.34 189.986 167.852C190.307 167.364 190.47 166.672 190.466 165.784C190.466 164.873 190.307 164.164 189.99 163.664C189.672 163.163 189.196 162.915 188.553 162.923C187.82 162.931 187.458 162.931 186.725 162.939C186.733 165.206 186.733 166.342 186.738 168.613Z" fill="#D81F27"/>
<path d="M199.53 172.927C198.122 172.96 197.418 172.976 196.01 173.005C195.672 174.621 195.505 175.427 195.167 177.042C194.483 177.059 194.141 177.063 193.458 177.079C194.626 171.759 195.79 166.439 196.958 161.116C197.593 161.107 197.914 161.103 198.549 161.091C199.726 166.35 200.91 171.609 202.095 176.867C201.411 176.888 201.069 176.896 200.385 176.916C200.043 175.321 199.872 174.523 199.53 172.927ZM196.376 171.242C197.487 171.222 198.045 171.21 199.16 171.185C198.61 168.617 198.334 167.331 197.784 164.758C197.764 164.758 197.756 164.758 197.735 164.758C197.194 167.347 196.921 168.646 196.376 171.242Z" fill="#D81F27"/>
<path d="M245.153 170.868C243.749 170.961 243.049 171.006 241.641 171.096C241.311 172.634 241.144 173.408 240.815 174.954C240.135 175.003 239.793 175.028 239.109 175.072C240.249 169.993 241.393 164.909 242.544 159.833C243.179 159.805 243.497 159.793 244.136 159.764C245.324 164.661 246.517 169.553 247.726 174.446C247.046 174.498 246.704 174.523 246.024 174.576C245.678 173.094 245.503 172.353 245.153 170.868ZM242.007 169.415C243.118 169.346 243.672 169.313 244.783 169.244C244.225 166.851 243.949 165.65 243.391 163.244C243.371 163.244 243.363 163.244 243.342 163.248C242.805 165.703 242.54 166.94 242.007 169.415Z" fill="#D81F27"/>
<path d="M256.306 169.358C256.314 169.382 256.314 169.395 256.322 169.415C256.355 170.848 256.037 171.983 255.378 172.834C254.718 173.685 253.803 174.161 252.634 174.258C251.43 174.36 250.469 173.953 249.745 173.037C249.024 172.122 248.658 170.782 248.646 169.028C248.633 167.384 248.629 166.562 248.617 164.921C248.605 163.171 248.951 161.787 249.647 160.77C250.343 159.756 251.287 159.223 252.476 159.162C253.672 159.105 254.613 159.447 255.288 160.18C255.964 160.916 256.298 162.019 256.285 163.501C256.277 163.525 256.277 163.537 256.269 163.562C255.642 163.603 255.325 163.619 254.698 163.66C254.69 162.618 254.503 161.861 254.136 161.388C253.766 160.916 253.216 160.701 252.488 160.737C251.767 160.774 251.214 161.14 250.827 161.84C250.441 162.54 250.249 163.525 250.257 164.795C250.27 166.444 250.274 167.27 250.286 168.918C250.294 170.2 250.502 171.169 250.909 171.82C251.316 172.472 251.89 172.765 252.626 172.708C253.335 172.651 253.868 172.366 254.218 171.849C254.568 171.336 254.743 170.546 254.735 169.476C255.362 169.431 255.675 169.407 256.306 169.358Z" fill="#D81F27"/>
<path d="M264.821 160.249C263.575 160.326 262.957 160.363 261.711 160.436C261.74 164.706 261.768 168.975 261.797 173.245C261.137 173.306 260.812 173.334 260.152 173.395C260.124 169.11 260.095 164.82 260.067 160.534C258.833 160.603 258.215 160.639 256.981 160.709C256.977 160.086 256.973 159.777 256.969 159.154C260.107 158.991 261.674 158.905 264.808 158.73C264.817 159.337 264.817 159.642 264.821 160.249Z" fill="#D81F27"/>
<path d="M268.085 172.638C267.43 172.703 267.104 172.736 266.449 172.801C266.416 168.08 266.388 163.358 266.355 158.637C267.011 158.6 267.336 158.58 267.991 158.543C268.024 163.24 268.057 167.941 268.085 172.638Z" fill="#D81F27"/>
<path d="M278.33 166.619C278.338 168.238 277.972 169.537 277.227 170.522C276.482 171.507 275.481 172.077 274.219 172.211C272.973 172.345 271.98 171.987 271.239 171.136C270.499 170.286 270.124 169.024 270.112 167.363C270.104 165.825 270.096 165.056 270.088 163.513C270.075 161.856 270.438 160.534 271.166 159.553C271.895 158.572 272.88 158.047 274.121 157.973C275.383 157.896 276.392 158.291 277.154 159.154C277.915 160.017 278.297 161.25 278.305 162.87C278.313 164.368 278.318 165.117 278.33 166.619ZM276.681 162.972C276.673 161.779 276.449 160.888 276.01 160.297C275.57 159.707 274.943 159.439 274.133 159.492C273.348 159.544 272.75 159.894 272.33 160.554C271.911 161.209 271.708 162.145 271.716 163.358C271.724 164.901 271.732 165.674 271.74 167.217C271.748 168.442 271.964 169.354 272.395 169.944C272.823 170.534 273.429 170.786 274.211 170.705C275.021 170.624 275.639 170.245 276.071 169.582C276.502 168.918 276.714 167.982 276.706 166.769C276.694 165.251 276.689 164.49 276.681 162.972Z" fill="#D81F27"/>
<path d="M288.119 170.424C287.463 170.506 287.138 170.542 286.482 170.624C284.651 166.924 283.731 165.039 281.895 161.205C281.875 161.213 281.867 161.217 281.846 161.226C281.871 165.198 281.883 167.184 281.903 171.157C281.252 171.23 280.927 171.271 280.271 171.344C280.243 166.822 280.218 162.3 280.19 157.778C280.845 157.733 281.171 157.713 281.822 157.668C283.662 161.515 284.578 163.407 286.413 167.119C286.434 167.115 286.442 167.111 286.462 167.103C286.442 163.204 286.429 161.254 286.409 157.351C287.064 157.306 287.394 157.282 288.049 157.233C288.074 161.633 288.094 166.028 288.119 170.424Z" fill="#D81F27"/>
<path d="M51.0202 95.6136C50.601 95.1455 50.4056 94.6204 50.4056 94.1035H39.6073C39.6073 95.6339 37.8938 96.8753 35.7854 96.8753V131.318C37.035 131.318 38.2601 131.757 38.9927 132.575C39.412 133.043 39.6073 133.568 39.6073 134.085H50.4097C50.4097 133.178 51.0162 132.29 52.1436 131.761C52.7867 131.456 53.5112 131.318 54.2276 131.318V96.8713C52.9739 96.8672 51.7529 96.4276 51.0202 95.6136ZM52.7338 128.529C52.1355 128.529 51.5249 128.647 50.9877 128.904C50.0434 129.348 49.5346 130.092 49.5346 130.854H40.4784C40.4784 130.418 40.3156 129.978 39.9655 129.588C39.3509 128.904 38.3252 128.534 37.2792 128.534V99.6553C39.0497 99.6553 40.4865 98.6133 40.4865 97.3312H49.5387C49.5387 97.7667 49.7015 98.2063 50.0515 98.597C50.6661 99.2808 51.6918 99.6512 52.7379 99.6512V128.529H52.7338Z" fill="#D81F27"/>
<path d="M50.2876 101.658V126.535C50.2876 126.535 48.8956 126.954 47.8536 128.387H42.1553C41.1052 126.954 39.7213 126.535 39.7213 126.535V101.658C39.7213 101.658 41.1052 101.239 42.1553 99.8059H47.8536C48.8956 101.239 50.2876 101.658 50.2876 101.658Z" fill="#D81F27"/>
<path d="M174.01 95.6136C173.591 95.1455 173.396 94.6204 173.396 94.1035H162.597C162.597 95.6339 160.884 96.8753 158.775 96.8753V131.318C160.025 131.318 161.25 131.757 161.983 132.575C162.402 133.043 162.597 133.568 162.597 134.085H173.4C173.4 133.178 174.006 132.29 175.133 131.761C175.777 131.456 176.501 131.318 177.217 131.318V96.8713C175.964 96.8672 174.739 96.4276 174.01 95.6136ZM175.724 128.529C175.125 128.529 174.515 128.647 173.978 128.904C173.033 129.348 172.524 130.092 172.524 130.854H163.468C163.468 130.418 163.305 129.978 162.955 129.588C162.341 128.904 161.315 128.534 160.269 128.534V99.6553C162.04 99.6553 163.476 98.6133 163.476 97.3312H172.529C172.529 97.7667 172.691 98.2063 173.041 98.597C173.656 99.2808 174.682 99.6512 175.728 99.6512V128.529H175.724Z" fill="#D81F27"/>
<path d="M173.277 101.658V126.535C173.277 126.535 171.885 126.954 170.843 128.387H165.145C164.095 126.954 162.711 126.535 162.711 126.535V101.658C162.711 101.658 164.095 101.239 165.145 99.8059H170.843C171.885 101.239 173.277 101.658 173.277 101.658Z" fill="#D81F27"/>
<path d="M46.8442 89.7606C46.8442 89.7606 25.7523 89.321 19.3295 94.5716C12.9067 99.8222 9.86627 109.017 9.14991 111.903C8.43762 114.788 5.27913 104.796 8.47019 99.9484C11.6612 95.1007 17.6404 82.4831 37.5153 88.3483C57.3902 94.2134 47.4141 77.1796 47.4141 77.1796L46.8442 89.7606Z" fill="#D81F27"/>
<path d="M45.0044 0C20.1517 0 0 20.1476 0 45.0044C0 69.8572 20.1476 90.0089 45.0044 90.0089C69.8613 90.0089 90.0088 69.8613 90.0088 45.0044C90.0088 20.1517 69.8613 0 45.0044 0ZM46.7668 8.19336C52.9658 8.3928 57.8338 13.5823 57.6343 19.7813C57.4349 25.9802 52.2453 30.8482 46.0464 30.6488C39.8475 30.4493 34.9795 25.2598 35.1789 19.0608C35.3784 12.8619 40.5679 7.99392 46.7668 8.19336ZM10.3424 32.9077C12.4508 27.071 18.8858 24.0469 24.7225 26.1552C30.5592 28.2636 33.5834 34.6986 31.475 40.5353C29.3666 46.372 22.9316 49.3962 17.0949 47.2878C11.2582 45.1835 8.23812 38.7485 10.3424 32.9077ZM38.3537 73.2111C34.548 78.1116 27.4903 78.9989 22.5897 75.1933C17.6892 71.3876 16.8019 64.3298 20.6116 59.4293C24.4173 54.5287 31.475 53.6414 36.3756 57.4512C41.2761 61.2528 42.1593 68.3105 38.3537 73.2111ZM45.444 49.3636C43.3763 49.2985 41.7564 47.5687 41.8215 45.501C41.8866 43.4333 43.6165 41.8134 45.6842 41.8785C47.7518 41.9436 49.3718 43.6735 49.3066 45.7411C49.2415 47.8088 47.5117 49.4288 45.444 49.3636ZM66.5888 76.6056C61.4563 80.0897 54.4677 78.7506 50.9836 73.6181C47.4995 68.4855 48.8386 61.501 53.9711 58.0129C59.1077 54.5287 66.0922 55.8678 69.5763 61.0004C73.0605 66.137 71.7214 73.1215 66.5888 76.6056ZM73.8664 49.1153C67.9076 50.8411 61.676 47.4099 59.9503 41.4511C58.2245 35.4923 61.6557 29.2608 67.6145 27.535C73.5733 25.8093 79.8048 29.2405 81.5306 35.1993C83.2564 41.1581 79.8252 47.3896 73.8664 49.1153Z" fill="#D81F27"/>
<path d="M176.163 88.6045C176.163 88.6045 184.475 84.1191 188.105 84.8966C191.736 85.674 194.829 88.7185 195.7 89.7198C196.571 90.721 195.79 86.0973 193.527 84.8192C191.264 83.5412 186.306 79.7355 179.586 86.1339C172.866 92.5323 173.363 83.7081 173.363 83.7081L176.163 88.6045Z" fill="#D81F27"/>
<path d="M149.825 79.5972C154.904 89.496 167.046 93.4075 176.949 88.3279C186.847 83.2482 190.759 71.1068 185.679 61.2039C180.6 51.3051 168.458 47.3936 158.555 52.4733C148.653 57.5529 144.745 69.6944 149.825 79.5972ZM166.362 58.0576C167.709 60.4875 166.83 63.5484 164.4 64.8956C161.97 66.2428 158.909 65.3637 157.562 62.9338C156.215 60.5038 157.094 57.443 159.524 56.0958C161.954 54.7485 165.019 55.6277 166.362 58.0576ZM179.334 65.6079C177.441 67.6389 174.258 67.7488 172.227 65.8562C170.196 63.9635 170.086 60.7806 171.979 58.7496C173.872 56.7185 177.055 56.6086 179.086 58.5013C181.121 60.3939 181.231 63.5769 179.334 65.6079ZM173.733 73.5937C174.905 71.0742 177.901 69.9874 180.417 71.1597C182.936 72.3319 184.023 75.3235 182.851 77.843C181.678 80.3584 178.683 81.4492 176.167 80.277C173.648 79.1007 172.557 76.1091 173.733 73.5937ZM166.187 71.5708C165.739 70.7608 166.032 69.7392 166.842 69.2914C167.652 68.8437 168.674 69.1368 169.122 69.9467C169.569 70.7567 169.276 71.7783 168.466 72.2261C167.656 72.6738 166.639 72.3807 166.187 71.5708ZM161.234 81.7952C161.571 79.0396 164.079 77.0778 166.838 77.4156C169.594 77.7534 171.556 80.2648 171.218 83.0203C170.88 85.7758 168.369 87.7377 165.613 87.3998C162.854 87.062 160.896 84.5507 161.234 81.7952ZM151.196 73.96C150.667 71.2329 152.446 68.5954 155.173 68.0622C157.9 67.5331 160.538 69.3118 161.071 72.0388C161.6 74.7659 159.821 77.4034 157.094 77.9366C154.367 78.4657 151.73 76.687 151.196 73.96Z" fill="#D81F27"/>
<path d="M144.633 212.52L147.887 220.641L151.141 212.52H152.843V222.473H151.531V218.597L151.654 214.414L148.386 222.473H147.381L144.12 214.434L144.25 218.597V222.473H142.938V212.52H144.633ZM159.529 222.473C159.456 222.328 159.397 222.068 159.351 221.694C158.763 222.305 158.061 222.61 157.245 222.61C156.516 222.61 155.917 222.405 155.448 221.995C154.983 221.58 154.75 221.056 154.75 220.423C154.75 219.652 155.042 219.055 155.625 218.632C156.213 218.203 157.038 217.989 158.1 217.989H159.33V217.408C159.33 216.966 159.198 216.615 158.934 216.355C158.67 216.091 158.28 215.959 157.765 215.959C157.314 215.959 156.936 216.073 156.63 216.301C156.325 216.528 156.172 216.804 156.172 217.128H154.901C154.901 216.759 155.031 216.403 155.29 216.061C155.555 215.715 155.91 215.441 156.357 215.241C156.808 215.04 157.302 214.94 157.84 214.94C158.692 214.94 159.36 215.154 159.843 215.583C160.326 216.007 160.577 216.592 160.595 217.34V220.744C160.595 221.423 160.682 221.963 160.855 222.364V222.473H159.529ZM157.43 221.51C157.827 221.51 158.203 221.407 158.558 221.202C158.913 220.997 159.171 220.73 159.33 220.402V218.885H158.339C156.79 218.885 156.015 219.338 156.015 220.245C156.015 220.641 156.147 220.951 156.412 221.175C156.676 221.398 157.015 221.51 157.43 221.51ZM166.153 216.212C165.961 216.18 165.754 216.164 165.531 216.164C164.701 216.164 164.138 216.517 163.842 217.223V222.473H162.578V215.077H163.808L163.828 215.931C164.243 215.271 164.831 214.94 165.592 214.94C165.838 214.94 166.025 214.972 166.153 215.036V216.212ZM170.152 221.578C170.603 221.578 170.997 221.441 171.334 221.168C171.672 220.894 171.858 220.552 171.895 220.142H173.091C173.068 220.566 172.923 220.969 172.654 221.352C172.385 221.735 172.025 222.04 171.574 222.268C171.127 222.496 170.653 222.61 170.152 222.61C169.145 222.61 168.342 222.275 167.745 221.605C167.153 220.931 166.857 220.01 166.857 218.844V218.632C166.857 217.912 166.989 217.271 167.253 216.711C167.518 216.15 167.896 215.715 168.388 215.405C168.885 215.095 169.47 214.94 170.145 214.94C170.974 214.94 171.662 215.189 172.209 215.685C172.761 216.182 173.055 216.827 173.091 217.62H171.895C171.858 217.141 171.676 216.749 171.348 216.444C171.024 216.134 170.623 215.979 170.145 215.979C169.502 215.979 169.003 216.212 168.648 216.677C168.297 217.137 168.121 217.804 168.121 218.679V218.919C168.121 219.771 168.297 220.427 168.648 220.887C168.999 221.348 169.5 221.578 170.152 221.578ZM175.778 215.972C176.338 215.284 177.067 214.94 177.965 214.94C179.528 214.94 180.317 215.822 180.33 217.586V222.473H179.066V217.579C179.061 217.046 178.938 216.651 178.697 216.396C178.46 216.141 178.088 216.013 177.582 216.013C177.172 216.013 176.812 216.123 176.502 216.342C176.192 216.56 175.951 216.847 175.778 217.203V222.473H174.513V211.973H175.778V215.972ZM186.148 217.483L186.654 212.52H191.753V213.689H187.727L187.426 216.403C187.914 216.116 188.467 215.972 189.087 215.972C189.994 215.972 190.714 216.273 191.247 216.875C191.781 217.472 192.047 218.281 192.047 219.302C192.047 220.327 191.769 221.136 191.213 221.728C190.662 222.316 189.889 222.61 188.896 222.61C188.016 222.61 187.299 222.366 186.743 221.879C186.187 221.391 185.87 220.717 185.792 219.855H186.989C187.066 220.425 187.269 220.856 187.597 221.147C187.925 221.434 188.358 221.578 188.896 221.578C189.484 221.578 189.944 221.377 190.277 220.976C190.614 220.575 190.783 220.022 190.783 219.315C190.783 218.65 190.6 218.117 190.236 217.716C189.876 217.31 189.395 217.107 188.793 217.107C188.242 217.107 187.809 217.228 187.495 217.469L187.16 217.743L186.148 217.483ZM193.517 224.456L192.799 223.964C193.228 223.367 193.451 222.751 193.469 222.118V220.976H194.706V221.968C194.706 222.428 194.592 222.888 194.365 223.348C194.141 223.809 193.859 224.178 193.517 224.456ZM204.612 212.513V213.587H204.379C203.395 213.605 202.611 213.897 202.028 214.462C201.444 215.027 201.107 215.822 201.016 216.847C201.54 216.246 202.256 215.945 203.162 215.945C204.028 215.945 204.719 216.25 205.234 216.861C205.753 217.472 206.013 218.26 206.013 219.226C206.013 220.252 205.733 221.072 205.172 221.687C204.616 222.302 203.869 222.61 202.93 222.61C201.978 222.61 201.205 222.246 200.613 221.516C200.02 220.783 199.724 219.839 199.724 218.686V218.201C199.724 216.369 200.114 214.97 200.893 214.004C201.677 213.033 202.841 212.536 204.386 212.513H204.612ZM202.951 216.998C202.518 216.998 202.119 217.128 201.754 217.387C201.39 217.647 201.137 217.973 200.995 218.365V218.83C200.995 219.65 201.18 220.311 201.549 220.812C201.918 221.314 202.379 221.564 202.93 221.564C203.5 221.564 203.946 221.355 204.27 220.935C204.598 220.516 204.762 219.967 204.762 219.288C204.762 218.604 204.596 218.053 204.263 217.634C203.935 217.21 203.497 216.998 202.951 216.998ZM207.599 224.456L206.881 223.964C207.31 223.367 207.533 222.751 207.551 222.118V220.976H208.788V221.968C208.788 222.428 208.675 222.888 208.447 223.348C208.223 223.809 207.941 224.178 207.599 224.456ZM220.157 213.231L216.035 222.473H214.708L218.817 213.559H213.43V212.52H220.157V213.231Z" fill="#D81F27"/>
</svg>
