<svg width="794" height="356" viewBox="0 0 794 356" fill="none" xmlns="http://www.w3.org/2000/svg">
<path d="M694.28 3.52002C695.89 2.45002 694.8 1.65002 694.28 0.650024C694.52 1.52002 694 2.67002 694.28 3.52002Z" fill="#D4CFB0"/>
<path d="M81.3101 0V13.42L82.2101 14.18L81.5901 0H81.3101Z" fill="#D4CFB0"/>
<path d="M570 8.35999L569.14 15.7C570.057 13.3689 570.353 10.8399 570 8.35999Z" fill="#D4CFB0"/>
<path d="M570.49 0H569.1C569.22 1.68 571.42 3.36 569.19 5C569.618 6.07584 569.891 7.20721 570 8.36L571 0.62C570.788 0.45158 570.614 0.240296 570.49 0V0Z" fill="#D4CFB0"/>
<path d="M464.64 1.22997H463.75C465.45 3.05997 463.22 4.42997 464.64 6.55997L465.2 0.839966C465.041 1.00606 464.851 1.13867 464.64 1.22997Z" fill="#D4CFB0"/>
<path d="M433.19 0L432.48 7.33C434.91 6.17 434.65 2.68 433.95 0H433.19Z" fill="#D4CFB0"/>
<path d="M366.41 0C366.32 0.913794 366.3 1.83314 366.35 2.75C367.16 2.45 367.6 3.13 368.14 3.52L367.55 0H366.41Z" fill="#D4CFB0"/>
<path d="M392.15 0L391.37 1.99L392.26 4.28V0H392.15Z" fill="#D4CFB0"/>
<path d="M78.55 0L77.74 2.75L78.63 3.52V0H78.55Z" fill="#D4CFB0"/>
<path d="M105.44 1.22996C107.76 2.82996 104.28 4.34996 105.44 6.55996C106.51 5.48996 107.14 1.90996 106.33 0.459961L105.44 1.22996Z" fill="#D4CFB0"/>
<path d="M482.51 6.56L481.61 7.33C482.06 8.24 483.4 3.97 481.61 2.75C479.3 4 482.16 5.34 482.51 6.56Z" fill="#D4CFB0"/>
<path d="M415.5 22.56C415.86 20.56 414.69 17.99 416.4 16.46L415.5 15.7L416.4 14.94L415.5 14.18L416.4 13.42C414.7 12.67 415.86 10.83 415.5 9.61L416.4 8.85C413.4 6.85 418.54 4.73 415.5 2.75V22.56Z" fill="#D4CFB0"/>
<path d="M233.22 2.75H232.32V9.61H233.22V2.75Z" fill="#D4CFB0"/>
<path d="M85.78 8.09002L86.67 3.52002L85.78 5.04002V8.09002Z" fill="#D4CFB0"/>
<path d="M533.44 7.33003L532.55 4.28003L533.44 5.04003V7.33003Z" fill="#D4CFB0"/>
<path d="M695.18 12.66C695.54 10.37 694.38 7.66004 696.08 5.80004L695.18 5.04004V12.66Z" fill="#D4CFB0"/>
<path d="M159 11.1301C161.69 9.60006 157.67 8.54006 159 6.56006C156.37 8.09006 160.38 9.16006 159 11.1301Z" fill="#D4CFB0"/>
<path d="M437.84 19.51C435.15 15.4 439.18 11.89 437.84 7.32996C436.503 11.28 436.503 15.56 437.84 19.51Z" fill="#D4CFB0"/>
<path d="M108.12 10.37C108.66 10.75 109.12 11.44 109.91 11.13L109.02 8.13C107.85 8.54 108.12 9.53 108.12 10.37Z" fill="#D4CFB0"/>
<path d="M410.14 18.75C410.5 17.23 409.33 15.24 411.03 14.18H412.82C411.57 14.48 409.87 13.88 410.14 12.66L411 8.84998C408 11.21 409.16 15.86 410.14 18.75Z" fill="#D4CFB0"/>
<path d="M432.48 23.32V25.61H433.37C430.69 20.61 434.71 14.95 433.37 10.37C435.51 15.7 429.34 18.29 432.48 23.32Z" fill="#D4CFB0"/>
<path d="M401.21 13.42C402.01 13.73 402.45 13.04 402.99 12.67L402.1 10.38C401.74 11.44 402.9 12.81 401.21 13.42Z" fill="#D4CFB0"/>
<path d="M147.44 16.47L148.33 15.71C147.651 15.3639 147.108 14.8011 146.785 14.1109C146.463 13.4207 146.38 12.6426 146.55 11.9H145.65L147.44 16.47Z" fill="#D4CFB0"/>
<path d="M106.33 17.23C106.06 18.52 106.87 12.96 106.33 11.9V17.23Z" fill="#D4CFB0"/>
<path d="M233.22 14.18C231.52 14.94 232.68 16.77 232.32 17.99L233.22 12.66L232.32 13.41L233.22 14.18Z" fill="#D4CFB0"/>
<path d="M528.08 14.1801H527.19V18.7501H528.08V14.1801Z" fill="#D4CFB0"/>
<path d="M288.61 14.1801C289.69 15.4001 289.5 17.1801 289.5 18.7501V14.1801H288.61Z" fill="#D4CFB0"/>
<path d="M537.91 17.23L538.8 17.99H539.7V14.99H538.8C538.81 15.78 539 16.77 537.91 17.23Z" fill="#D4CFB0"/>
<path d="M391.37 18.7499V27.8899C393.07 24.0799 391.91 18.2899 392.26 14.9399C390.57 15.6999 391.73 17.5299 391.37 18.7499Z" fill="#D4CFB0"/>
<path d="M693.39 34.75C693.74 29.34 692.59 21.57 694.28 15.75C692.59 21.57 693.75 28.35 693.39 34.75Z" fill="#D4CFB0"/>
<path d="M282.36 20.28C283.79 19.14 283.43 16.85 282.36 15.71V20.28Z" fill="#D4CFB0"/>
<path d="M473.57 16.47H472.68V30.19H473.57V16.47Z" fill="#D4CFB0"/>
<path d="M569.19 36.9999C571.43 41.2699 569.55 44.3099 570.08 49.1899C573.08 43.5499 567.94 35.9399 570.98 29.3799L570.08 28.6199C570.62 28.2299 571.08 27.5499 571.87 27.8499C570.71 23.6599 571.07 21.7599 570.98 17.1899L569.19 36.9999Z" fill="#D4CFB0"/>
<path d="M596 26.37C598.68 24.23 594.66 21.19 596 17.99C594.3 20.43 596.89 23.32 596 26.37Z" fill="#D4CFB0"/>
<path d="M310.95 17.99H310.06V22.56H310.95V17.99Z" fill="#D4CFB0"/>
<path d="M33.0601 21.8L33.9601 17.99L33.0601 18.75V21.8Z" fill="#D4CFB0"/>
<path d="M581.7 22.57L582.59 18.75L581.7 19.51V22.57Z" fill="#D4CFB0"/>
<path d="M141.18 24.08C142.07 24.54 142.52 25.9 143.86 25.6C144.387 24.9782 144.746 24.2314 144.902 23.4312C145.058 22.631 145.005 21.8042 144.75 21.03C144.4 22.09 145.56 23.46 143.86 24.03C141.63 23.03 142.17 21.13 142.07 19.46C142.88 21.42 140.29 22.18 141.18 24.08Z" fill="#D4CFB0"/>
<path d="M410.14 24.0799C410.5 23.0099 409.33 21.5699 411.03 21.0799L410.14 20.3199V24.0799Z" fill="#D4CFB0"/>
<path d="M288.61 24.08L289.5 24.84V21C287.81 21.57 289 23 288.61 24.08Z" fill="#D4CFB0"/>
<path d="M502.17 21.8H501.28V27.89H502.17V21.8Z" fill="#D4CFB0"/>
<path d="M452.13 24.85C452.414 24.7154 452.654 24.503 452.822 24.2375C452.99 23.9719 453.079 23.6642 453.079 23.35C453.079 23.0358 452.99 22.728 452.822 22.4625C452.654 22.197 452.414 21.9846 452.13 21.85V24.85Z" fill="#D4CFB0"/>
<path d="M138.5 25.6101C140.65 24.0101 137.61 23.4 137.61 21.8L138.5 25.6101Z" fill="#D4CFB0"/>
<path d="M513.79 25.6099L514.68 23.3199H513.79V25.6099Z" fill="#D4CFB0"/>
<path d="M480.73 26.3699L481.62 23.3199L480.73 24.0899V26.3699Z" fill="#D4CFB0"/>
<path d="M364.56 28.6599C366.8 27.9699 367.7 25.6099 367.24 23.3199C366.35 25.1499 367.33 27.5099 364.56 28.6599Z" fill="#D4CFB0"/>
<path d="M85.78 24.08H84.88V28.65H85.78V24.08Z" fill="#D4CFB0"/>
<path d="M410.14 46.94V26.37C408.35 33.76 409.6 40.24 410.14 46.94Z" fill="#D4CFB0"/>
<path d="M514.68 32.47V27.13L513.79 27.89L514.68 32.47Z" fill="#D4CFB0"/>
<path d="M282.36 30.94C287.18 30.1 279.85 29.79 282.36 27.13V30.94Z" fill="#D4CFB0"/>
<path d="M154.58 27.13C154.58 27.97 154.31 28.96 155.48 29.42L156.37 27.13H154.58Z" fill="#D4CFB0"/>
<path d="M646.93 27.89L647.82 38.56L646.93 27.89Z" fill="#D4CFB0"/>
<path d="M401.21 27.89C400.85 28.58 401.65 28.96 402.1 29.42C400.4 29.95 401.56 31.42 401.21 32.42L402.1 27.85L401.21 27.89Z" fill="#D4CFB0"/>
<path d="M234.1 33.23L233.21 27.9C236.25 29.72 231.07 31.4 234.1 33.23Z" fill="#D4CFB0"/>
<path d="M531.66 29.42L532.55 33.23L531.66 29.42Z" fill="#D4CFB0"/>
<path d="M359.2 43.1301C358.4 39.6301 360.46 37.0001 361 34.0001C358.49 32.5501 361.8 31.2601 361 29.4301C358 33.1501 359.29 39.3201 359.2 43.1301Z" fill="#D4CFB0"/>
<path d="M380.65 40.08C381.72 40.54 381.54 41.53 381.54 42.36L382.43 42.28L381.54 30.09L380.65 30.17V40.08Z" fill="#D4CFB0"/>
<path d="M367.24 32.4699L364.56 31.7099C364.21 32.9299 365.37 34.7099 363.67 35.5199C366.35 35.0599 365.46 31.3999 369.03 31.7099L368.14 30.1899C368.14 30.9999 368.32 31.9999 367.24 32.4699Z" fill="#D4CFB0"/>
<path d="M597.78 36.2799L596.88 30.9399V36.2799H597.78Z" fill="#D4CFB0"/>
<path d="M290.41 37.8C293.08 35.8 289.07 34.15 290.41 31.71V37.8Z" fill="#D4CFB0"/>
<path d="M181.38 34L179.6 39.33L181.38 34Z" fill="#D4CFB0"/>
<path d="M414.6 38.56L415.49 39.32H416.39V34.75H415.49C415.14 36 416.31 37.8 414.6 38.56Z" fill="#D4CFB0"/>
<path d="M584.38 36.28H583.48V41.61H584.38V36.28Z" fill="#D4CFB0"/>
<path d="M376.18 40.85C376.53 39.63 379.4 38.27 377.07 37.04C375.38 37.11 376.54 39.63 376.18 40.85Z" fill="#D4CFB0"/>
<path d="M674.62 38.5601H673.73V41.6101H674.62V38.5601Z" fill="#D4CFB0"/>
<path d="M438.73 43.89H436.94L438.73 45.42C438.46 46.64 436.23 45.5 436.94 46.94V49.94C435.6 45.94 442.75 46.05 439.62 42.32C438.73 40.42 441.41 40.11 439.62 38.51C439.26 40.38 440.43 42.52 438.73 43.89Z" fill="#D4CFB0"/>
<path d="M190.32 39.3199C192.02 41.1499 190.86 43.8899 191.22 46.1799L189.43 47.6999C192.03 49.5999 192.03 54.6999 191.22 57.6099V63.6999C194.22 60.6999 189.07 57.6099 192.11 54.5599C191.66 54.0999 190.86 53.7199 191.22 53.0399L192.11 52.2699C191.75 49.2699 192.92 46.6399 191.22 43.1299C193.54 41.9099 190.68 39.8599 190.32 39.3199Z" fill="#D4CFB0"/>
<path d="M82.2101 43.1299V39.3199H81.3101L82.2101 43.1299Z" fill="#D4CFB0"/>
<path d="M429.79 43.89L432.47 45.42C433 43.82 435.14 41.61 433.36 40.09C434.62 42.75 431.49 43.05 429.79 43.89Z" fill="#D4CFB0"/>
<path d="M289.51 53.8L290.41 54.56C291.75 52.73 291.75 43.97 290.41 40.85C290 45.11 291.21 50 289.51 53.8Z" fill="#D4CFB0"/>
<path d="M418.18 43.13C418.62 43.58 419.43 43.97 419.07 44.65C419.88 44.96 420.32 44.27 420.86 43.89L419.07 41.6C419.43 42.29 418.62 42.67 418.18 43.13Z" fill="#D4CFB0"/>
<path d="M426.22 45.42V42.37L425.32 44.65L426.22 45.42Z" fill="#D4CFB0"/>
<path d="M413.71 42.37C412.38 44.05 416.39 44.96 413.71 46.18C415.41 46.71 414.25 48.18 414.6 49.18C414.16 46.86 417.37 43.28 413.71 42.37Z" fill="#D4CFB0"/>
<path d="M376.18 50C375.18 50.91 378.05 47 377.07 44.66C375.38 46 376.54 48.16 376.18 50Z" fill="#D4CFB0"/>
<path d="M380.65 46.1801H379.75V50.7501H380.65V46.1801Z" fill="#D4CFB0"/>
<path d="M234.1 53.7999V46.9399C231.43 49.2299 235.45 51.0499 234.1 53.7999Z" fill="#D4CFB0"/>
<path d="M452.13 47.7C453.83 48.23 452.67 49.7 453.02 50.7V47.7H452.13Z" fill="#D4CFB0"/>
<path d="M420.86 51.5099L421.75 47.7L420.86 48.4599V51.5099Z" fill="#D4CFB0"/>
<path d="M669.27 48.46H668.37V53.79H669.27V48.46Z" fill="#D4CFB0"/>
<path d="M322.56 51.51L321.67 48.46L322.56 49.23V51.51Z" fill="#D4CFB0"/>
<path d="M349.38 50C349.02 50.69 349.82 51.07 350.28 51.52L349.38 52.28L350.28 53.05V50H349.38Z" fill="#D4CFB0"/>
<path d="M570.08 59.89C569.37 56.47 572.23 53.8 570.08 50.75V59.89Z" fill="#D4CFB0"/>
<path d="M149.22 60.65V63.65C150.22 59.84 151.37 54.05 148.32 50.65C148.69 53.11 147.52 57.76 149.22 60.65Z" fill="#D4CFB0"/>
<path d="M358.31 52.27L360.09 58.37V51.51C359.29 51.21 358.85 51.89 358.31 52.27Z" fill="#D4CFB0"/>
<path d="M415.5 57.61L416.39 53.04L415.5 54.56V57.61Z" fill="#D4CFB0"/>
<path d="M354.73 53.8H353.84V57.6101H354.73V53.8Z" fill="#D4CFB0"/>
<path d="M729.13 56.0799C732.13 57.2999 726.99 58.6699 730.03 59.8899V55.3199L729.13 56.0799Z" fill="#D4CFB0"/>
<path d="M480.73 60.65C482.43 59.65 479.84 58.36 480.73 56.85V60.65Z" fill="#D4CFB0"/>
<path d="M473.58 65.23C475.91 62.86 472.42 60.58 473.58 57.61V65.23Z" fill="#D4CFB0"/>
<path d="M152.8 62.94C153.6 61.72 155.12 59.66 153.7 57.61C151.37 59.13 155.48 61.34 152.8 62.94Z" fill="#D4CFB0"/>
<path d="M410.13 60.65L411.03 58.37H410.13V60.65Z" fill="#D4CFB0"/>
<path d="M354.74 62.17L355.63 59.13H354.74V62.17Z" fill="#D4CFB0"/>
<path d="M349.38 63.7C351.17 64.62 349.82 66.37 349.38 67.51L350.28 59.89C349.91 61.11 351.07 62.94 349.38 63.7Z" fill="#D4CFB0"/>
<path d="M233.22 81.22L234.11 59.89C233.75 66.37 230.89 74.06 233.22 81.22Z" fill="#D4CFB0"/>
<path d="M722.88 67.51H723.77C722.52 64.77 725.64 63.09 727.34 60.65C726.54 64.16 720.64 62.71 722.88 67.51Z" fill="#D4CFB0"/>
<path d="M692.5 64.46L693.39 60.65V63.7L692.5 64.46Z" fill="#D4CFB0"/>
<path d="M320.79 62.17L321.68 62.94H322.57V60.65H321.68C322 61.34 321.22 61.72 320.79 62.17Z" fill="#D4CFB0"/>
<path d="M631.73 65.2301C634.05 64.3901 630.57 63.6301 631.73 62.1801V65.2301Z" fill="#D4CFB0"/>
<path d="M456.6 65.23L455.71 62.17V65.23H456.6Z" fill="#D4CFB0"/>
<path d="M290.41 67.51V80.46C292.73 74.37 288.62 68.95 291.3 62.94L290.41 62.17C291.48 64.38 288.08 65.91 290.41 67.51Z" fill="#D4CFB0"/>
<path d="M386.9 71.32C389.04 68.58 393.78 68.32 391.37 63.7C390.12 66.29 390.66 69.57 386.9 71.32Z" fill="#D4CFB0"/>
<path d="M354.74 75.8899V63.7C352.06 67.82 356.07 71.3199 354.74 75.8899Z" fill="#D4CFB0"/>
<path d="M251.98 68.2699L252.87 63.7L251.98 65.98V68.2699Z" fill="#D4CFB0"/>
<path d="M40.2099 64.46H39.3199V67.51H40.2099V64.46Z" fill="#D4CFB0"/>
<path d="M414.6 71.32H415.49L414.6 65.23C411.92 67.21 415.94 68.8 414.6 71.32Z" fill="#D4CFB0"/>
<path d="M411 75.89C410.64 73.89 411.81 71.32 410.11 69.8C412.52 68.35 409.3 67.05 410.11 65.23L411 75.89Z" fill="#D4CFB0"/>
<path d="M152.8 69.8L153.7 70.56L154.59 65.99C152.88 66.14 154.23 68.8 152.8 69.8Z" fill="#D4CFB0"/>
<path d="M693.39 66.75H692.5V71.32H693.39V66.75Z" fill="#D4CFB0"/>
<path d="M521.83 66.75H520.94V69.8H521.83V66.75Z" fill="#D4CFB0"/>
<path d="M570.08 75.89C570.17 79.01 570.62 82.06 569.19 85.79L570.08 86.55C572.49 82.36 568.83 74.36 570.08 67.55C571 70.56 568.38 73.38 570.08 75.89Z" fill="#D4CFB0"/>
<path d="M57.1899 71.32L58.0799 67.51L57.1899 69.8V71.32Z" fill="#D4CFB0"/>
<path d="M714.84 72.84L715.73 69.04L714.84 71.32V72.84Z" fill="#D4CFB0"/>
<path d="M359.2 69C359.11 70.9 360.64 72.2 360.09 74.33V69H359.2Z" fill="#D4CFB0"/>
<path d="M722 72.84C722.9 70.1 727.81 75.2 724.68 71.32L723.79 72.08L722.9 69.8L722 72.84Z" fill="#D4CFB0"/>
<path d="M336 75.89C335.1 73.6 337.7 71.47 336 69.8V75.89Z" fill="#D4CFB0"/>
<path d="M726.45 75.8901L724.66 74.3601V76.6501C728.77 77.7201 725.73 73.3701 729.13 72.8401L728.24 70.5601C728.77 72.7701 727.43 74.2901 726.45 75.8901Z" fill="#D4CFB0"/>
<path d="M251.08 70.5601L250.19 74.3701L251.08 70.5601Z" fill="#D4CFB0"/>
<path d="M242.15 73.6101L243.04 70.5601H242.15V73.6101Z" fill="#D4CFB0"/>
<path d="M692.5 79.7C694.2 77.87 693.04 75.12 693.39 72.84L691.6 72.08C693.3 74.13 692.14 77.11 692.5 79.7Z" fill="#D4CFB0"/>
<path d="M382.43 75.89C382.97 74.06 386.43 75.28 385.11 72.84C384.67 73.3 382.43 74.52 382.43 75.89Z" fill="#D4CFB0"/>
<path d="M414.6 74.36C414.96 78.93 417.82 83.51 415.49 88.08L416.39 73.61C415.59 73.3 415.14 74 414.6 74.36Z" fill="#D4CFB0"/>
<path d="M363.67 82C368.05 80.47 362.78 77.12 365.46 74.38C363.58 75.82 365.55 79.85 363.67 82Z" fill="#D4CFB0"/>
<path d="M331.5 84.27C333.2 83.44 332.04 80.16 332.39 78.18L331.5 77.42L332.39 76.66C330.25 75.9 333.02 75.52 332.39 74.37C330.7 77.18 331.86 80.92 331.5 84.27Z" fill="#D4CFB0"/>
<path d="M241.26 75.1201C241.26 75.9601 240.99 76.9501 242.15 77.4101H243.05C241.17 77.1101 243.13 74.7501 241.26 75.1201Z" fill="#D4CFB0"/>
<path d="M526.3 79.7L527.19 75.89L526.3 76.65V79.7Z" fill="#D4CFB0"/>
<path d="M475.36 75.89H474.47V78.94H475.36V75.89Z" fill="#D4CFB0"/>
<path d="M56.29 80.46C56.7313 79.9232 56.9725 79.2499 56.9725 78.555C56.9725 77.8601 56.7313 77.1868 56.29 76.65V80.46Z" fill="#D4CFB0"/>
<path d="M546.84 77.42H545.95V80.46H546.84V77.42Z" fill="#D4CFB0"/>
<path d="M679.09 78.9399H678.2V85.0299H679.09V78.9399Z" fill="#D4CFB0"/>
<path d="M410.14 79.7C409.61 79.32 409.14 78.63 408.35 78.94L411 80.46V78.94L410.14 79.7Z" fill="#D4CFB0"/>
<path d="M252 78.9399L252.89 84.2699L252 78.9399Z" fill="#D4CFB0"/>
<path d="M44.68 80.46C44.32 85.57 45.49 93.1 43.78 98.75C46.37 100.04 43.33 104.16 45.56 106.37C43.86 107.44 45.03 109.37 44.67 110.94L45.56 111.7L44.67 112.46C44.31 115.28 45.48 120.54 43.77 123.89L45.55 136.08C44.21 131.08 48.23 126.94 45.55 122.37L47.34 120.85C47.7 122.37 50.56 123.85 48.23 125.42C51.8 125.49 48.68 121.91 50.91 120.85C49.5717 116.378 49.5717 111.612 50.91 107.14C54.48 107.52 51.36 111.71 53.59 113.23C52.43 113.69 52.7 114.68 52.7 115.52L53.59 116.28C53.95 115.22 52.78 113.77 54.48 113.28C57.69 113.97 55.73 117.85 56.26 120.14C55.91 121.97 57.07 126.24 55.37 128.52C58.59 133.52 52.6 139.19 57.16 143.76C55.46 145.06 56.63 147.27 56.26 149.09C59.48 141.55 53.5 130.35 58.05 121.67C56.7088 118.24 56.7088 114.43 58.05 111L56.26 114C51.53 113.23 53.95 107.6 53.59 105.62L50.91 106.38C49.22 100.82 50.37 96.17 50.02 91.15C48.6787 95.88 48.6787 100.89 50.02 105.62L48.23 107.91C49.23 111.48 50.37 116.97 47.34 120.09L44.66 117.09C44.75 108.4 48.32 98.95 45.55 91.19V80.46H44.68Z" fill="#D4CFB0"/>
<path d="M411.03 92.65L411.92 92.57L411.03 81.91L410.13 81.98L411.03 89.6V92.65Z" fill="#D4CFB0"/>
<path d="M402.09 85.79L402.99 81.98L402.09 82.75V85.79Z" fill="#D4CFB0"/>
<path d="M273.42 88.84C276.19 87.24 274.05 84.43 273.42 81.98C270.75 84.27 274.77 86.1 273.42 88.84Z" fill="#D4CFB0"/>
<path d="M514.68 88.84V82.75C514.23 84.65 512.89 87.09 514.68 88.84Z" fill="#D4CFB0"/>
<path d="M369.93 83.51L372.61 84.27V82.75C371.62 82.75 370.46 82.52 369.93 83.51Z" fill="#D4CFB0"/>
<path d="M233.22 93.41L234.11 82.74C231.07 85.57 236.25 89.91 233.22 93.41Z" fill="#D4CFB0"/>
<path d="M474.47 88.84L475.36 89.6V83.51C474.47 85 472.32 87.24 474.47 88.84Z" fill="#D4CFB0"/>
<path d="M433.37 90.36C432.03 87.62 436.05 85.79 433.37 83.51V90.36Z" fill="#D4CFB0"/>
<path d="M520.94 92.65H521.83C519.15 89.91 523.17 87.46 521.83 84.27C520.13 86.55 521.3 89.91 520.94 92.65Z" fill="#D4CFB0"/>
<path d="M55.4 84.27C56.404 85.0783 57.057 86.2431 57.2228 87.5213C57.3886 88.7995 57.0545 90.0923 56.29 91.13C55.12 90.82 59.42 85.34 55.4 84.27Z" fill="#D4CFB0"/>
<path d="M658.54 91.13C657.54 92.73 660.41 88.08 659.43 85.79L658.54 91.13Z" fill="#D4CFB0"/>
<path d="M468.22 90.3599C469.02 90.0499 469.47 90.7399 470.01 91.1299C470.37 92.5699 469.01 88.1299 471.79 88.8399L470 87.3199L468.22 90.3599Z" fill="#D4CFB0"/>
<path d="M403.88 97.9999C401.56 96.4799 404.42 94.9999 404.77 93.4299C405.58 93.1199 406.03 93.8099 406.56 94.1899L407.45 93.4299C406.65 93.7299 406.2 93.0399 405.67 92.6699C405.67 91.8299 405.4 90.8399 406.56 90.3799H407.45L405.67 88.8599C405.67 89.6999 405.85 90.6899 404.77 91.1499C404.09 90.8001 403.547 90.2332 403.226 89.5393C402.906 88.8454 402.826 88.0643 403 87.3199V97.9999H403.88Z" fill="#D4CFB0"/>
<path d="M190.32 101L192.11 104.05C193.45 102.05 189.43 101 192.11 99.48L190.32 87.29C191.661 91.7616 191.661 96.5284 190.32 101Z" fill="#D4CFB0"/>
<path d="M39.32 100.27C41.02 99.5099 39.85 97.6799 40.21 96.4599L39.32 95.6999L41.1 94.1799C40.3 94.4899 39.85 93.7999 39.32 93.4199C44.22 92.0399 37.62 89.6799 38.42 87.3199C39.94 91.9999 39.23 94.9999 39.32 100.27Z" fill="#D4CFB0"/>
<path d="M570.08 89.6C571.78 90.14 570.62 91.6 570.98 92.65C570.62 93.94 571.78 97.65 570.08 99.5C571.08 102.32 572.23 107.04 569.19 109.4C570.26 109.86 570.08 110.85 570.08 111.69L569.19 112.45L570.08 113.21C573.08 105.14 571.96 97.37 570.98 88.83L570.08 89.6Z" fill="#D4CFB0"/>
<path d="M464.64 94.94C464.64 92.94 464.28 90.14 466.43 89.6C462 90.29 465.72 92.42 464.64 94.94Z" fill="#D4CFB0"/>
<path d="M415.5 93.41L416.4 94.17V89.6C415.94 90.82 415.14 92 415.5 93.41Z" fill="#D4CFB0"/>
<path d="M398.52 90.36H397.63V94.93H398.52V90.36Z" fill="#D4CFB0"/>
<path d="M258.24 103.32C261.24 99.0499 256.09 94.6399 259.13 90.3199L258.24 103.32Z" fill="#D4CFB0"/>
<path d="M291.3 91.13H290.41V100.27H291.3V91.13Z" fill="#D4CFB0"/>
<path d="M105.44 101C108.44 98.86 107.31 94.45 106.33 91.86L105.44 91.11C106.78 94.94 102.75 97.68 105.44 101Z" fill="#D4CFB0"/>
<path d="M470 96.46C468.84 98.36 471.07 94.09 469.1 93.46C470.81 93.94 469.65 95.39 470 96.46Z" fill="#D4CFB0"/>
<path d="M435.15 93.41H434.26V97.22H435.15V93.41Z" fill="#D4CFB0"/>
<path d="M55.3999 104.84C56.4699 105.3 56.2899 106.28 56.2899 107.13C56.6599 105.3 55.4899 101.03 57.1899 98.75L56.2899 93.42C53.2599 97.22 58.4399 101 55.3999 104.84Z" fill="#D4CFB0"/>
<path d="M674.62 94.17H673.73V100.26H674.62V94.17Z" fill="#D4CFB0"/>
<path d="M109.01 97.22L109.9 94.17H109.01V97.22Z" fill="#D4CFB0"/>
<path d="M691.6 107.13C695.71 109.19 690.88 111.7 692.49 114.75C692.85 108.04 693.74 102.26 693.38 94.9399C691.51 98.5199 693.48 103.47 691.6 107.13Z" fill="#D4CFB0"/>
<path d="M344.02 94.9399H343.12V98.7499H344.02V94.9399Z" fill="#D4CFB0"/>
<path d="M513.79 101.79C515.93 100.19 513.52 98.29 513.79 96.46V101.79Z" fill="#D4CFB0"/>
<path d="M233.22 99.5C232.22 101.33 233.75 97.68 233.22 96.5V99.5Z" fill="#D4CFB0"/>
<path d="M631.74 101.03V97.98L630.84 100.27L631.74 101.03Z" fill="#D4CFB0"/>
<path d="M440.51 101.79L441.41 97.98L440.51 98.75V101.79Z" fill="#D4CFB0"/>
<path d="M302 99.5C302.657 99.8703 303.183 100.436 303.504 101.119C303.824 101.802 303.925 102.568 303.79 103.31C307.11 102.56 305.5 97.76 302 99.5Z" fill="#D4CFB0"/>
<path d="M742.53 101C741.19 99.4799 738.96 103.29 737.17 101L736.28 101.76L737.17 102.52C737.08 105.19 736.37 108.23 736.28 111.66C739.14 111.28 733.06 96.7299 745.21 100.99L744.32 100.23C743.78 100.65 743.34 101.34 742.53 101Z" fill="#D4CFB0"/>
<path d="M269.85 100.27H268.96V107.89H269.85V100.27Z" fill="#D4CFB0"/>
<path d="M38.42 101.79C41.1 105.68 36.99 110.17 39.32 113.98C37.62 109.41 42.8 104.76 38.42 101.79Z" fill="#D4CFB0"/>
<path d="M513.79 104.84C514.24 105.3 515.04 105.68 514.68 106.37L513.79 107.13L514.68 103.32C515 104 514.23 104.38 513.79 104.84Z" fill="#D4CFB0"/>
<path d="M185 104.84L185.89 112.46L185 104.84Z" fill="#D4CFB0"/>
<path d="M658.54 105.6H657.65V108.65H658.54V105.6Z" fill="#D4CFB0"/>
<path d="M600.46 107.13C601.46 107.13 602.61 106.9 603.14 107.89H602.25V109.41H603.14V107.13H600.46Z" fill="#D4CFB0"/>
<path d="M521.83 110.17L520.94 107.13V109.41L521.83 110.17Z" fill="#D4CFB0"/>
<path d="M314.52 120.07L313.63 119.31V120.07H314.52Z" fill="#D4CFB0"/>
<path d="M106.33 107.89H105.44V112.46H106.33V107.89Z" fill="#D4CFB0"/>
<path d="M505.75 114L506.64 114.76L508.43 108.66C506.19 109.34 509.32 113.75 505.75 114Z" fill="#D4CFB0"/>
<path d="M452.13 113.22L453.02 108.65L452.13 110.17V113.22Z" fill="#D4CFB0"/>
<path d="M271.64 116.26C269.94 113.6 271.64 112.07 269.85 109.41C271.73 112.15 265.74 116.26 271.64 116.26Z" fill="#D4CFB0"/>
<path d="M292.18 114.74V110.17C289.51 111.7 293.53 112.76 292.18 114.74Z" fill="#D4CFB0"/>
<path d="M520.94 117.79C519.94 122.13 518.79 128.38 521.83 132.26C524.15 130.74 521.3 129.26 520.94 127.69C519.6 122.36 523.62 118.09 520.94 113.21L521.83 112.45L520.94 111.69C519.24 113.37 521.83 115.51 520.94 117.79Z" fill="#D4CFB0"/>
<path d="M335.97 117.79L337.76 111.7L335.97 117.03V117.79Z" fill="#D4CFB0"/>
<path d="M607.61 114.74V112.46H606.72L607.61 114.74Z" fill="#D4CFB0"/>
<path d="M485.19 116.26C485.64 116.72 486.44 117.1 486.09 117.79C483.77 119.69 487.16 117.18 486.09 116.26C486.62 115.88 487.09 115.2 487.87 115.5L487 114C487.34 115.12 485.73 115.51 485.19 116.26Z" fill="#D4CFB0"/>
<path d="M398.52 113.98H397.63V117.02H398.52V113.98Z" fill="#D4CFB0"/>
<path d="M569.19 135.31L566.51 136.83L569.19 139.11C565.98 141.7 567.94 146.27 567.4 149.78C568.65 144.9 568.4 139.65 570.98 135.3C567.05 130.3 570.98 124.02 570.98 118.54H571.87L570.08 114.73C569.64 120.84 567.13 128.53 569.19 135.31Z" fill="#D4CFB0"/>
<path d="M453 123.88C451.3 129.67 452.47 134.55 452.11 139.88C455.11 141.1 449.97 142.47 453 143.69C452.64 135.77 453.81 127.46 452.11 120.07L453 119.31C450 117.79 455.15 116.26 452.11 114.74C453.2 117.1 451 121.22 453 123.88Z" fill="#D4CFB0"/>
<path d="M469.11 117L466.43 119.29L467.32 120.05C466.78 118.61 468.13 117.84 469.11 117.05L474.47 117.81V116.28C473.22 117.73 470.9 116.74 469.11 117.04L468.22 115.52C467.86 116.19 468.66 116.57 469.11 117Z" fill="#D4CFB0"/>
<path d="M350.28 115.51H349.38V119.32H350.28V115.51Z" fill="#D4CFB0"/>
<path d="M463.75 116.26C463.66 117.41 465.18 117.94 464.64 119.31C462.32 121.21 465.72 118.7 464.64 117.79L465.53 117.03C467.24 117.49 464.55 116.19 463.75 116.26Z" fill="#D4CFB0"/>
<path d="M291.3 120.84C291.66 119.32 294.52 117.84 292.19 116.27C291 117.49 291.3 119.24 291.3 120.84Z" fill="#D4CFB0"/>
<path d="M344.01 120.84L343.12 117.03V120.84H344.01Z" fill="#D4CFB0"/>
<path d="M39.3199 125.41C41.1999 124.19 39.4899 120.07 40.2099 118.55L39.3199 117V125.41Z" fill="#D4CFB0"/>
<path d="M714.83 117.79H713.94V120.84H714.83V117.79Z" fill="#D4CFB0"/>
<path d="M478.94 123.12C481.17 122.12 480.64 120.22 480.73 118.55C480.19 120.07 478.14 121.14 478.94 123.12Z" fill="#D4CFB0"/>
<path d="M692.5 128.45C693.04 130.66 691.69 132.19 690.71 133.79L691.61 133.03C693.93 134.25 691.07 135.62 690.71 136.84C694.02 135.62 691.25 130.84 693.4 128.46C692.95 128.01 692.15 127.62 692.51 126.94L693.4 126.18C691.61 124.43 692.95 121.99 693.4 120.08C690.71 121.14 693.3 125.48 692.5 128.45Z" fill="#D4CFB0"/>
<path d="M414.6 123.12C415.68 123.57 415.49 124.57 415.49 125.41H416.39V120.84H415.49C415.5 121.67 415.68 122.67 414.6 123.12Z" fill="#D4CFB0"/>
<path d="M317.2 124.64C318.99 123.04 316.31 122.74 317.2 120.83V124.64Z" fill="#D4CFB0"/>
<path d="M411 126.17C411.36 125.1 410.2 123.65 411.89 123.17L411 122.41C408.08 123.58 410.5 124.72 411 126.17Z" fill="#D4CFB0"/>
<path d="M314.52 131.5C313.98 127.69 314.7 126.25 314.52 122.36C315.87 125.86 311.85 128.45 314.52 131.5Z" fill="#D4CFB0"/>
<path d="M361 124.64L359.21 128.45L361 124.64Z" fill="#D4CFB0"/>
<path d="M468.22 128.45C468.507 128.318 468.751 128.107 468.921 127.841C469.092 127.575 469.183 127.266 469.183 126.95C469.183 126.634 469.092 126.325 468.921 126.059C468.751 125.793 468.507 125.582 468.22 125.45V128.45Z" fill="#D4CFB0"/>
<path d="M316.32 129.22L317.21 129.98C319 128.98 317.66 127.31 317.21 126.17C316.85 127.24 318 128.61 316.32 129.22Z" fill="#D4CFB0"/>
<path d="M39.3199 132.26L40.2099 126.94L39.3199 129.22V132.26Z" fill="#D4CFB0"/>
<path d="M350.27 129.22C342.85 127.77 336.5 128.76 329.71 128.46V129.22C331.14 128.92 333.29 129.9 334.18 128.46L336 130C336.53 129.62 337 128.93 337.78 129.24L338.67 130C341.98 129.69 348.15 130.69 352.08 129.24C352.97 130.69 355.08 129.7 356.55 130L351.18 127.71C351.52 128.38 350.71 128.76 350.27 129.22Z" fill="#D4CFB0"/>
<path d="M325.26 128.45C324.9 129.98 328.82 130.82 326.14 132.26H324.36C327.36 133.18 326.5 130.13 327.93 129.26L327.04 127.73C326.5 128.07 326.06 128.76 325.26 128.45Z" fill="#D4CFB0"/>
<path d="M309.16 130H311L310.11 127.71C310.06 128.53 310.24 129.52 309.16 130Z" fill="#D4CFB0"/>
<path d="M730 136.07C731.79 136.38 732.77 133.07 734.46 135.31C735 136.76 733.66 137.52 732.67 138.36C735.98 139.5 736.67 134.55 736.24 130.74C735.44 130.43 734.99 131.12 734.45 131.5L733.56 129.21C732.17 131.42 733.15 135.08 730 136.07Z" fill="#D4CFB0"/>
<path d="M49.15 141.41C51.74 137.14 47.45 132.65 52.72 129.98L51.82 130.74L50 129.22C48.34 133.79 49.51 136.38 49.15 141.41Z" fill="#D4CFB0"/>
<path d="M722.88 133.79C721.54 136.23 725.56 137.91 722.88 139.88C723.68 139.58 724.13 140.26 724.67 140.64V141.4L725.56 140.64C724.76 140.94 724.31 140.26 723.77 139.88C724.77 138.81 726.45 138.88 727.34 137.6H728.23V134.6H727.34C727.7 135.74 726.09 136.12 725.55 136.89C722.87 134.6 726.89 132.77 725.55 130.03C725 131.42 723.06 132.26 722.88 133.79Z" fill="#D4CFB0"/>
<path d="M302 132.26C301.73 129.6 305.31 131.5 306.47 129.98C304.79 130.36 301.22 130 302 132.26Z" fill="#D4CFB0"/>
<path d="M513.79 130.74L512.9 133.74L513.79 130.74Z" fill="#D4CFB0"/>
<path d="M397.63 133.79C398.08 134.25 398.88 134.63 398.52 135.31C401.21 133.79 397.18 132.72 398.52 130.74C398.16 131.81 399.33 133.18 397.63 133.79Z" fill="#D4CFB0"/>
<path d="M381.54 142.17L382.43 144.45V130.74C380.38 134.17 382.61 139 381.54 142.17Z" fill="#D4CFB0"/>
<path d="M316.32 133C317.32 131.17 318.64 133.15 319.89 133L318.1 131.48L316.32 133Z" fill="#D4CFB0"/>
<path d="M720.19 132.26L719.3 141.41L720.19 132.26Z" fill="#D4CFB0"/>
<path d="M473.58 133.79C475.28 134.32 474.12 135.79 474.47 136.79V133L473.58 133.79Z" fill="#D4CFB0"/>
<path d="M310.06 134.55C316.85 131.55 311.75 140.04 314.52 142.17C313.36 141.94 315.59 138.89 313.63 136.84C315.95 135.62 313.1 134.25 312.73 133.03C311.39 132.72 311 134.1 310.06 134.55Z" fill="#D4CFB0"/>
<path d="M62.54 140.65H63.44C60.44 138.06 65.59 135.65 62.54 133.03C61.21 134.47 61.21 138.51 62.54 140.65Z" fill="#D4CFB0"/>
<path d="M541.49 136.84L542.38 133.79H541.49V136.84Z" fill="#D4CFB0"/>
<path d="M520.04 139.12V133.79H519.15L520.04 139.12Z" fill="#D4CFB0"/>
<path d="M192.11 134.55C194.25 135.39 191.84 136.55 192.11 137.55C193.81 139.83 192.64 143.18 193 145.93V133.79L192.11 134.55Z" fill="#D4CFB0"/>
<path d="M419.07 138.36C420.07 138.36 421.22 138.13 421.75 139.12L422.64 138.36C419.87 138.51 421.21 135.84 420.86 134.55L419.07 138.36Z" fill="#D4CFB0"/>
<path d="M369 134.55C368.65 135.23 369.45 135.61 369.89 136.07C368.19 136.83 369.36 138.66 369 139.88C370.07 139.42 369.89 138.43 369.89 137.6C367.57 136.76 370.96 136 369.89 134.6L369 134.55Z" fill="#D4CFB0"/>
<path d="M302.91 135.31C302.38 134.93 301.91 134.25 301.12 134.55V136.84L304.69 134.55C303.9 134.25 303.45 134.93 302.91 135.31Z" fill="#D4CFB0"/>
<path d="M413.71 136.84L415.5 139.12C417.38 138.36 416.4 137.22 416.4 135.31C415.5 135.77 415 137.14 413.71 136.84Z" fill="#D4CFB0"/>
<path d="M433.37 157.4C434 149.48 434.45 143.69 433.37 136.83V157.4Z" fill="#D4CFB0"/>
<path d="M271.64 137.6L269 139.88L277 137.6C274.67 136.46 273.42 139.88 271.64 137.6Z" fill="#D4CFB0"/>
<path d="M43.78 138.36V139.88C44.58 138.51 46.19 139.42 45.56 137.6C45 138 44.58 138.66 43.78 138.36Z" fill="#D4CFB0"/>
<path d="M233.22 142.93C233.75 143.31 234.22 144 235 143.69C232 141.86 237.14 140.19 234.1 138.36C233.75 139.88 234.92 141.86 233.22 142.93Z" fill="#D4CFB0"/>
<path d="M439.62 144.45L440.51 139.88L439.62 141.41V144.45Z" fill="#D4CFB0"/>
<path d="M519.15 149C520.85 149.54 519.69 151 520.04 152C518.7 148 522.72 144.84 520.04 141.34C519.69 144 520.85 146.89 519.15 149Z" fill="#D4CFB0"/>
<path d="M291.3 146C291.66 145.39 294.52 143.41 292.19 142.19L291.3 146Z" fill="#D4CFB0"/>
<path d="M718.41 145.98L720.19 142.93L718.41 145.22V145.98Z" fill="#D4CFB0"/>
<path d="M708.58 151.31L706.79 149C705.54 150.3 703.31 149.46 702.33 151.29C702.24 153.19 703.76 154.49 703.22 156.62C706.22 151.82 713.05 150.45 710.37 143.62C709.83 146.28 711.8 149.71 708.58 151.31Z" fill="#D4CFB0"/>
<path d="M149.22 152.07L151.9 151.31C150.9 151.31 149.75 151.46 149.22 150.55C154.04 148.42 147.52 146.55 149.22 143.69C146.54 145.75 150.56 148.8 149.22 152.07Z" fill="#D4CFB0"/>
<path d="M477.15 149.02L478.05 145.22L476.26 148.26L477.15 149.02Z" fill="#D4CFB0"/>
<path d="M398.52 149.79C399.122 149.182 399.459 148.361 399.459 147.505C399.459 146.649 399.122 145.828 398.52 145.22V149.79Z" fill="#D4CFB0"/>
<path d="M416.39 148.27C417.46 148.73 417.28 149.72 417.28 150.55V147.55L416.39 148.27Z" fill="#D4CFB0"/>
<path d="M382.43 150.55C382.16 149.49 384.57 148.34 382.43 147.55V150.55Z" fill="#D4CFB0"/>
<path d="M292.19 147.5H291.3V150.55H292.19V147.5Z" fill="#D4CFB0"/>
<path d="M755 156.64C756.7 156.64 751.51 152.64 755.89 151.31L754.1 148.31C754.51 150.09 753.35 154.36 755 156.64Z" fill="#D4CFB0"/>
<path d="M271.64 157.4C273.33 158.09 272.18 151.31 272.53 148.26C270.84 150.85 272 154.36 271.64 157.4Z" fill="#D4CFB0"/>
<path d="M195.69 158.93V148.26L194.79 154.36L195.69 158.93Z" fill="#D4CFB0"/>
<path d="M268.07 153.6L269 149C268.6 150.55 265.74 152.07 268.07 153.6Z" fill="#D4CFB0"/>
<path d="M411.92 156.64L411.03 150.55C411.12 153.52 410.32 154.13 411.92 156.64Z" fill="#D4CFB0"/>
<path d="M313.64 151.31H312.74V154.36H313.64V151.31Z" fill="#D4CFB0"/>
<path d="M234.1 158.17L235 151.31C232.23 153 235 155.12 234.1 158.17Z" fill="#D4CFB0"/>
<path d="M755.94 161.21C754.78 160.76 755.05 159.76 755.05 158.93C754.51 160.45 752.46 161.52 753.26 163.5L755 165C755.36 163.94 754.2 162.48 755.89 162C757.14 162.84 756.97 164.29 758.57 165C757.68 162.87 756.34 161.57 758.57 159.67L759.46 158.91H758.57L757.68 152.05C755.85 155.58 757.82 157.71 755.94 161.21Z" fill="#D4CFB0"/>
<path d="M696.96 152.07H696.07V155.12H696.96V152.07Z" fill="#D4CFB0"/>
<path d="M398.52 155.12C397.71 156.8 399.77 157.71 400.31 158.93C398.16 161.6 395.93 155.43 394.05 159.69C395.84 159.99 398.16 159.01 399.41 160.45C399.06 161.52 400.22 162.89 398.52 163.45L399.41 164.21C399.5 162.45 398.96 160.55 401.2 159.64H402.09C400.66 158.27 398.52 157.13 399.41 155.07L398.52 155.12Z" fill="#D4CFB0"/>
<path d="M560.25 157.4C561.95 157.93 560.79 159.4 561.14 160.4H562.04V155.83H561.14C561.5 156.57 560.7 156.95 560.25 157.4Z" fill="#D4CFB0"/>
<path d="M343.12 158.93C341.96 157.71 338.39 158.47 339.55 155.93V158.93H343.12Z" fill="#D4CFB0"/>
<path d="M352.06 158.93C353.31 159.24 354.92 158.24 355.63 159.69C356.25 158.24 357.95 159.23 359.2 158.93L356.52 156.64C356.88 159.46 353 157.1 352.06 158.93Z" fill="#D4CFB0"/>
<path d="M305.59 159.69L306.48 160.45C307.38 159.23 310.15 158.55 309.16 156.64C306.57 155.88 306.84 158.63 305.59 159.69Z" fill="#D4CFB0"/>
<path d="M182.28 161.98L183.17 157.4L182.28 158.93V161.98Z" fill="#D4CFB0"/>
<path d="M412.82 159.69C414.16 159.38 414.61 160.76 415.5 161.21L417.28 159.69C417.82 160.6 418.98 160.45 419.96 160.45C420.32 159.76 419.52 159.38 419.07 158.93L418.18 159.69C415.94 157.79 415.5 158.93 412.82 159.69Z" fill="#D4CFB0"/>
<path d="M379.75 158.93C383.06 158.7 386.19 160.22 390.48 159.69L389.58 158.16C386.1 160.45 383.33 156.95 379.75 158.93Z" fill="#D4CFB0"/>
<path d="M362.78 161.21C362.51 160.15 364.92 159.01 362.78 158.21V161.21Z" fill="#D4CFB0"/>
<path d="M462 162C460.84 160.48 457.26 162.38 457.53 159.72L456.64 162.72C458.08 162.34 459.41 161.65 461.11 161.96C461.56 162.42 462.36 162.8 462 163.49L464.68 162.73L463.79 158.92L462 162Z" fill="#D4CFB0"/>
<path d="M422.64 159.69C424.96 159.99 427.47 162.43 429.79 160.45L428.9 159.69C426.4 162.74 424.88 157 422.64 159.69Z" fill="#D4CFB0"/>
<path d="M406.56 162C406.2 161.31 407.01 160.93 407.45 160.48H409.24L408.34 158.96L405.66 159.72L406.56 162Z" fill="#D4CFB0"/>
<path d="M319.89 159.69C321.68 162.12 321.68 165.33 322.57 168.07C324.9 165.07 321.23 161.29 321.68 158.93C320.87 158.63 320.42 159.31 319.89 159.69Z" fill="#D4CFB0"/>
<path d="M466.43 163.5C468.3 163.04 469.73 161.59 469.11 159.69C468.22 160.91 465.45 161.6 466.43 163.5Z" fill="#D4CFB0"/>
<path d="M351.16 162.74L350.27 159.69V161.98L351.16 162.74Z" fill="#D4CFB0"/>
<path d="M520.04 163.5V160.45L519.15 161.21L520.04 163.5Z" fill="#D4CFB0"/>
<path d="M314.52 164.26C314.8 163.985 315.005 163.642 315.115 163.264C315.225 162.887 315.235 162.488 315.146 162.105C315.056 161.722 314.87 161.369 314.604 161.079C314.339 160.789 314.003 160.573 313.63 160.45C315.33 161.21 314.17 163 314.52 164.26Z" fill="#D4CFB0"/>
<path d="M277.89 163.5L277 160.45V163.5H277.89Z" fill="#D4CFB0"/>
<path d="M504 163.5C503.2 163.8 502.75 163.12 502.21 162.74L501.32 163.5L499.49 162C498.77 163.44 497.16 162.46 495.91 162.76C495.91 163.6 496.09 164.59 495.02 165.05C499.49 166.27 501.63 161.55 504.85 165.81C507.26 164.29 507.44 163.14 505.74 161.23C506.11 162.36 504.49 162.74 504 163.5Z" fill="#D4CFB0"/>
<path d="M478 164.26C479.43 163.65 478.62 161.67 480.68 161.97C481.75 162.43 481.57 163.41 481.57 164.26H482.47C483.54 162.26 480.77 162.12 479.79 161.21L475.32 161.98L478 164.26Z" fill="#D4CFB0"/>
<path d="M271.64 169.59C270.3 166.32 274.32 163.96 271.64 161.21V169.59Z" fill="#D4CFB0"/>
<path d="M192.11 166.55C190.96 167 191.22 168 191.22 168.83C192.55 167.38 192.55 163.27 191.22 161.21C191.58 163 190.41 165.18 192.11 166.55Z" fill="#D4CFB0"/>
<path d="M511.11 164.26H509.33C508.97 164.95 509.78 165.33 510.22 165.78C510.76 165.4 511.22 164.71 512 165.02C512.45 165.47 513.25 165.86 512.9 166.54C513.9 165.7 514.78 164.54 516.47 165.02C517.81 166.24 521.83 168.76 519.15 171.11C520.22 171.87 520.04 167.68 520.04 165.78C516.56 167.68 515.75 161.89 512.89 165.02L511.99 162.02C512 162.81 512.18 163.81 511.11 164.26Z" fill="#D4CFB0"/>
<path d="M487 165.79C488 163.88 491 163.79 492.36 165.03L493.25 162.03C490.2 165 488.05 162 487 165.79Z" fill="#D4CFB0"/>
<path d="M8.93998 165.79C9.82998 167.69 7.14998 171.19 8.93998 173.4C9.93998 172.19 9.82998 164.95 9.82998 161.98C9.37998 163.2 8.57998 164.34 8.93998 165.79Z" fill="#D4CFB0"/>
<path d="M761.3 166.55C761.034 166.5 760.794 166.359 760.622 166.151C760.449 165.942 760.354 165.68 760.354 165.41C760.354 165.14 760.449 164.878 760.622 164.669C760.794 164.461 761.034 164.32 761.3 164.27L759.51 166.55H761.3Z" fill="#D4CFB0"/>
<path d="M56.29 167.31L57.19 168.07H58.08V165.07H57.19C57.19 165.86 57.36 166.85 56.29 167.31Z" fill="#D4CFB0"/>
<path d="M451.24 165.79C450.88 166.47 451.69 166.86 452.13 167.31L451.33 167.23L450.43 186.28L451.23 186.36C452.93 182.24 451.77 171.66 452.12 165.79H451.24Z" fill="#D4CFB0"/>
<path d="M417.28 190.17C415.59 189.17 418.18 187.88 417.28 186.36L416.39 165.79V190.93L417.28 190.17Z" fill="#D4CFB0"/>
<path d="M302.92 169.59L304.7 166.55H302.92V169.59Z" fill="#D4CFB0"/>
<path d="M657.65 168.07V167.31C652.92 167 654.97 170.43 653.18 172.64C657.65 174.32 657.56 167.08 661.18 171.88C661.54 170.36 664.4 168.83 662.07 167.31C660.33 167 659.35 170.36 657.65 168.07Z" fill="#D4CFB0"/>
<path d="M439.62 170.36L440.51 171.12L439.62 167.31C439.36 168.38 441.77 169.52 439.62 170.36Z" fill="#D4CFB0"/>
<path d="M294 173.4L293.1 168.07C290 170.05 295 171.19 294 173.4Z" fill="#D4CFB0"/>
<path d="M351.16 174.17L352.06 168.83C348.57 169.75 352.41 171.8 351.16 174.17Z" fill="#D4CFB0"/>
<path d="M581.7 173.4H579.91L582.59 176.4H583.48V171.83H582.59C582.94 172.57 582.14 172.95 581.7 173.4Z" fill="#D4CFB0"/>
<path d="M432.48 181C431.13 177.5 435.15 174.91 432.48 171.86V181Z" fill="#D4CFB0"/>
<path d="M651.39 184.83C651.75 183.77 650.59 182.32 652.29 181.83C650.59 181.06 651.75 179.24 651.39 178.02C653.09 177.02 650.5 175.73 651.39 174.21V184.83Z" fill="#D4CFB0"/>
<path d="M34.85 178.74L35.74 174.17L34.85 175.69V178.74Z" fill="#D4CFB0"/>
<path d="M708.58 176.45V179.5C710.1 178.35 712.51 176.45 710.37 174.93C709.38 174.62 708.22 175.61 708.58 176.45Z" fill="#D4CFB0"/>
<path d="M642.46 182.55V184.07C643.8 183.77 644.25 185.14 645.14 185.59V189.4L646.03 175.69C640.76 177.52 649.07 181.86 642.46 182.55Z" fill="#D4CFB0"/>
<path d="M610.29 179.5C609.84 178.35 608.5 176.59 610.29 175.69C608.5 176.6 609.84 178.36 610.29 179.5Z" fill="#D4CFB0"/>
<path d="M439.62 182.55C442.3 181.02 438.28 179.96 439.62 177.98V182.55Z" fill="#D4CFB0"/>
<path d="M30.38 182.55L31.27 178.74L30.38 179.5V182.55Z" fill="#D4CFB0"/>
<path d="M749.69 181.79L752.37 180.26C751 179.19 748.79 179.88 749.69 181.79Z" fill="#D4CFB0"/>
<path d="M744.32 181.79C745.75 182.32 744.95 184.38 747 184.07L747.89 183.31C744.41 184.15 747.63 178.74 744.32 181.79Z" fill="#D4CFB0"/>
<path d="M724.67 185.59H725.56C723.77 184.59 725.11 182.92 725.56 181.78C723.86 182.55 725 184.38 724.67 185.59Z" fill="#D4CFB0"/>
<path d="M769.34 188.64C768.18 188.33 769.87 185.29 769.34 182.55C768 183.39 768 187.12 769.34 188.64Z" fill="#D4CFB0"/>
<path d="M623.69 189.4H625.48C622.26 188.03 624.23 184.83 623.69 182.55C623.035 183.572 622.687 184.761 622.687 185.975C622.687 187.189 623.035 188.378 623.69 189.4Z" fill="#D4CFB0"/>
<path d="M389.58 187.88C390.92 188.95 389.5 184.52 388.69 182.55C389 184.38 387.89 186.5 389.58 187.88Z" fill="#D4CFB0"/>
<path d="M688.92 184.07C689.73 183.77 690.17 184.45 690.7 184.83C689.7 188.41 692.4 190.47 688.92 193.21C689.578 193.944 689.942 194.895 689.942 195.88C689.942 196.865 689.578 197.816 688.92 198.55C689.73 198.24 690.17 198.93 690.7 199.31C691.06 199.99 690.26 200.38 689.81 200.84L690.7 201.6C690.7 199.46 688.65 195.2 690.7 192.46C691.77 190.86 689.54 187.51 691.6 185.6C690 185 691.25 181.79 688.92 184.07Z" fill="#D4CFB0"/>
<path d="M582.59 184.83H581.7V187.88H582.59V184.83Z" fill="#D4CFB0"/>
<path d="M781.85 191.69L782.74 192.45C782.475 190.171 782.475 187.869 782.74 185.59C781 186.43 782.21 189.71 781.85 191.69Z" fill="#D4CFB0"/>
<path d="M420.86 187.88L423.54 185.59L420.86 187.12V187.88Z" fill="#D4CFB0"/>
<path d="M193 186.36C193.81 189.71 194.43 186.28 196.57 186.36H193Z" fill="#D4CFB0"/>
<path d="M702.33 187.88C704.02 189.4 702.86 192 703.22 193.97C704.92 193.89 703.76 191.38 704.11 190.16C701.79 189.32 705.19 188.56 704.11 187.16C703.58 187.5 703.13 188.19 702.33 187.88Z" fill="#D4CFB0"/>
<path d="M472.68 190.17L473.58 187.12H472.68V190.17Z" fill="#D4CFB0"/>
<path d="M233.22 190.93L234.11 190.17C231.97 189.4 234.73 189.02 234.11 187.88C234.2 189 232.68 189.55 233.22 190.93Z" fill="#D4CFB0"/>
<path d="M451.24 199.3C449.9 195.8 453.92 193.21 451.24 190.16V199.3Z" fill="#D4CFB0"/>
<path d="M370.82 194.74V190.17L369.93 190.93L370.82 194.74Z" fill="#D4CFB0"/>
<path d="M778.27 194C779.27 194 780.42 194.15 780.96 193.24C778.46 193.7 779.96 190.73 778.27 190.96V194Z" fill="#D4CFB0"/>
<path d="M405.67 194.74L406.56 191.69L405.67 192.45V194.74Z" fill="#D4CFB0"/>
<path d="M783.63 195.5L785.42 192.45L783.63 193.97V195.5Z" fill="#D4CFB0"/>
<path d="M613 193.21L613.89 196.21L613 193.21Z" fill="#D4CFB0"/>
<path d="M416.39 201.59V193.21L415.5 194.74L416.39 201.59Z" fill="#D4CFB0"/>
<path d="M234.1 200.83C233.83 198.24 234.55 194.89 234.1 193.21C234.29 195.8 233.66 199.08 234.1 200.83Z" fill="#D4CFB0"/>
<path d="M360.09 197.78L360.99 193.97L360.09 194.74V197.78Z" fill="#D4CFB0"/>
<path d="M285 196.26C286.7 196.79 285.53 198.26 285.89 199.26L286.78 193.93C287.19 195.12 285.57 195.5 285 196.26Z" fill="#D4CFB0"/>
<path d="M271.64 195.5V198.55L273.42 193.98C272.44 193.67 271.28 194.66 271.64 195.5Z" fill="#D4CFB0"/>
<path d="M100.07 197.02L99.1899 193.97V197.02H100.07Z" fill="#D4CFB0"/>
<path d="M646 197C645.56 197.46 644.75 197.84 645.11 198.53H646L645.11 194.72C645.14 195.57 644.87 196.57 646 197Z" fill="#D4CFB0"/>
<path d="M427.11 209.21C427.47 207 425.86 203.42 429.79 203.12C429.25 203.5 428.79 204.19 428.01 203.88C425.95 201.21 428.18 197.1 427.11 194.74V209.21Z" fill="#D4CFB0"/>
<path d="M439.62 195.5C440.16 199.08 437.3 204.26 439.62 208.45C438.46 208.91 438.73 209.9 438.73 210.74C443.2 208 437.3 204.04 440.51 200.84C438.19 199.24 441.58 197.72 440.51 195.51L439.62 195.5Z" fill="#D4CFB0"/>
<path d="M767.55 200.83L766.66 197.78L767.55 198.55V200.83Z" fill="#D4CFB0"/>
<path d="M398.52 197.78C399.59 198.99 399.41 200.78 399.41 202.35C401.38 200.9 399 198.55 398.52 197.78Z" fill="#D4CFB0"/>
<path d="M785.42 198.55L783.63 205.4L785.42 198.55Z" fill="#D4CFB0"/>
<path d="M369.93 203.12L370.82 199.31L369.93 200.07V203.12Z" fill="#D4CFB0"/>
<path d="M422.64 222.93V254.93C424.34 251.5 423.18 244.79 423.54 241.21C422.639 238.75 422.639 236.05 423.54 233.59C420.32 226.88 426.21 220.94 421.75 213.78C423.09 209.308 423.09 204.542 421.75 200.07C422.11 207.69 421 214.85 422.64 222.93Z" fill="#D4CFB0"/>
<path d="M789 206.16L791.68 206.92L793.47 200.82C790.25 201.29 792.57 205.1 789 206.16Z" fill="#D4CFB0"/>
<path d="M360.09 210.73L360.99 202.36L360.09 207.69V210.73Z" fill="#D4CFB0"/>
<path d="M357.41 202.36L356.52 212.26L357.41 202.36Z" fill="#D4CFB0"/>
<path d="M233.22 219.11C234.92 220.93 233.75 223.68 234.11 225.96V202.36C231.07 208 236.25 213.48 233.22 219.11Z" fill="#D4CFB0"/>
<path d="M696.07 209.21C696.15 211.12 695.35 206.21 696.96 205.4C696.688 205.356 696.441 205.216 696.262 205.007C696.084 204.797 695.986 204.53 695.986 204.255C695.986 203.98 696.084 203.713 696.262 203.503C696.441 203.294 696.688 203.154 696.96 203.11C695.8 204.18 695.27 207.76 696.07 209.21Z" fill="#D4CFB0"/>
<path d="M396.73 206.16L397.63 203.12H396.73V206.16Z" fill="#D4CFB0"/>
<path d="M687.13 219.87C688.2 220.33 688.03 221.32 688.03 222.16C688.84 221.85 689.28 222.55 689.82 222.92L688.93 223.68C689.11 227.19 688.48 229.93 688.93 234.35L688.04 235.11C691.25 237.47 689.29 241.67 689.83 245.01C689.12 240.9 691.83 240.01 693.4 236.63L695.19 242.72C695.64 242.8 693.85 237.54 697.87 236.63C697.34 235.87 695.73 235.49 696.09 234.34C696.71 232.89 698.41 233.88 699.66 233.58C701.36 231.75 700.2 229.01 700.56 226.73L697 232.07C695.12 230.55 697.09 227.5 695.21 225.97C694.41 225.52 688.6 227.27 689.85 223.68L690.74 222.92C686.37 221.47 691.55 218.35 689.85 215.3C689.4 213.3 688.6 211.41 688.96 209.2C691.73 208.36 690.96 205.2 689.85 203.87C687.58 207.76 690.71 215.46 687.13 219.87Z" fill="#D4CFB0"/>
<path d="M637.99 209.21L638.88 204.64L637.99 206.93V209.21Z" fill="#D4CFB0"/>
<path d="M656.75 213.78V206.93C658 209.67 654.26 211.42 656.75 213.78Z" fill="#D4CFB0"/>
<path d="M399.41 210.73L400.31 206.93L399.41 207.69V210.73Z" fill="#D4CFB0"/>
<path d="M452.13 213.78L451.24 208.45V213.02L452.13 213.78Z" fill="#D4CFB0"/>
<path d="M76 210.73C78.68 211.95 74.66 212.78 76 214.54L78.68 210.73C77.29 211.27 76.84 208.9 76 210.73Z" fill="#D4CFB0"/>
<path d="M457.49 217.59L456.6 211.5C458.92 213.78 454.82 215.38 457.49 217.59Z" fill="#D4CFB0"/>
<path d="M746.11 216.06C747.36 216.22 748.7 214.24 749.68 216.06V216.83H750.57V215.3C748.42 215.45 748.78 213.47 748.78 212.3C746.55 212.33 746.11 214.47 746.11 216.06Z" fill="#D4CFB0"/>
<path d="M645.14 215.31C646.84 217.21 644.24 214.09 645.14 213.02V215.31Z" fill="#D4CFB0"/>
<path d="M398.52 213.78C400.22 214.31 399.06 215.78 399.41 216.83V213L398.52 213.78Z" fill="#D4CFB0"/>
<path d="M650.5 222.93C647.82 219.88 651.84 217.29 650.5 213.79C649.839 215.223 649.497 216.782 649.497 218.36C649.497 219.938 649.839 221.497 650.5 222.93Z" fill="#D4CFB0"/>
<path d="M23.2299 218.35C23.6799 219.26 22.9699 221.85 23.2299 223.68C24.6599 222.23 23.6799 219.26 26.8099 219.11V217.59C25.9999 217.28 25.5599 217.97 25.0199 218.35C22.0199 216.83 27.1699 215.35 24.1299 213.78C23.7599 215.31 24.9299 217.29 23.2299 218.35Z" fill="#D4CFB0"/>
<path d="M84.88 215.31C87.88 217.6 82.74 219.88 85.78 222.17L84.88 222.93L86.67 215.31H84.88Z" fill="#D4CFB0"/>
<path d="M567.4 226C569.1 227.52 567.94 230.12 568.29 232.1V216.1C567.94 218.43 569.1 223.07 567.4 226Z" fill="#D4CFB0"/>
<path d="M356.53 223.68C356.88 221.4 355.72 218.68 357.42 216.83L356.53 216.06V223.68Z" fill="#D4CFB0"/>
<path d="M89.35 216.06C88.9 217.96 91.59 219.49 88.46 220.63C89.71 219.87 95.25 216.06 89.35 216.06Z" fill="#D4CFB0"/>
<path d="M714.84 229.78C717.52 228.56 713.5 227.65 714.84 225.97L715.73 216.83C716.09 221.4 712.16 225.28 714.84 229.78Z" fill="#D4CFB0"/>
<path d="M638 220.64C639.79 219.04 637.1 218.74 638 216.83V220.64Z" fill="#D4CFB0"/>
<path d="M560.25 219.87L561.14 216.83L560.25 219.12V219.87Z" fill="#D4CFB0"/>
<path d="M412.82 233.59C411.66 234.05 411.92 235.04 411.92 235.88L412.82 235.11L411.92 216.83C409.6 221.48 412.46 228 412.82 233.59Z" fill="#D4CFB0"/>
<path d="M59 220.64L59.89 219.88C59.6028 219.748 59.3594 219.537 59.1887 219.271C59.0181 219.005 58.9274 218.696 58.9274 218.38C58.9274 218.064 59.0181 217.755 59.1887 217.489C59.3594 217.223 59.6028 217.012 59.89 216.88C58.89 217.29 57.09 219.42 59 220.64Z" fill="#D4CFB0"/>
<path d="M445.88 231.3C447.88 227.12 445.61 221.48 446.77 217.59C445.07 222.62 446.24 226.74 445.88 231.3Z" fill="#D4CFB0"/>
<path d="M428 228.26C428.17 224.91 427.55 220.79 428 218.36C427.56 220.79 428.19 224.9 428 228.26Z" fill="#D4CFB0"/>
<path d="M360.99 222.16L360.09 218.35V221.4L360.99 222.16Z" fill="#D4CFB0"/>
<path d="M98.29 226L100.97 223.71C102.66 224.24 101.5 225.71 101.86 226.76C104.18 224.17 101.32 221.76 100.97 219.14C99.19 221 101.06 224.37 98.29 226Z" fill="#D4CFB0"/>
<path d="M94.72 222.93C95.07 222.31 97.93 220.34 95.61 219.12L94.72 222.93Z" fill="#D4CFB0"/>
<path d="M579 222.93C579.8 222.47 581.32 221.17 579.89 219.88L579 222.93Z" fill="#D4CFB0"/>
<path d="M741.64 222.93C741.11 229.78 739.05 236.18 739.85 243.5C740.22 241.21 743.07 238.92 740.75 236.64C742.27 232.22 739.32 228.56 742.54 224.45C742.676 223.708 742.577 222.941 742.256 222.258C741.935 221.575 741.408 221.009 740.75 220.64H739.85L741.64 222.93Z" fill="#D4CFB0"/>
<path d="M458.38 229.78C457.22 230.24 457.49 231.23 457.49 232.07C459.19 229.48 456.95 227.27 458.38 224.45L457.49 220.64C457.85 223.68 456.69 227.19 458.38 229.78Z" fill="#D4CFB0"/>
<path d="M695.18 224.45C695.18 223.61 694.91 222.62 696.08 222.16L695.18 221.4V224.45Z" fill="#D4CFB0"/>
<path d="M623.69 225.97V221.4H622.8L623.69 225.97Z" fill="#D4CFB0"/>
<path d="M404.77 221.4H403.88V224.45H404.77V221.4Z" fill="#D4CFB0"/>
<path d="M636.2 229.78C637.28 230.24 637.09 231.23 637.09 232.07L635.31 233.59L637.99 235.88V222.16C637.45 224.75 639.42 228.18 636.2 229.78Z" fill="#D4CFB0"/>
<path d="M37.53 227.49C40.53 227.26 39.4 223.49 38.42 222.16L37.53 227.49Z" fill="#D4CFB0"/>
<path d="M631.73 232.83L632.62 233.59C630.92 237.86 628.07 230.85 626.37 235.11C627.26 233.59 628.96 235.42 629.94 235.88L628.15 238.16C629.49 238.08 630.15 239.38 631.73 238.92C636.65 234.05 629.5 227.8 634.41 222.92C631.2 225.66 633.7 229 631.73 232.83Z" fill="#D4CFB0"/>
<path d="M418.18 222.93L417.28 236.64L418.18 222.93Z" fill="#D4CFB0"/>
<path d="M642.46 226.74C642.758 226.612 643.012 226.399 643.191 226.128C643.369 225.857 643.464 225.539 643.464 225.215C643.464 224.89 643.369 224.573 643.191 224.302C643.012 224.031 642.758 223.818 642.46 223.69V226.74Z" fill="#D4CFB0"/>
<path d="M468.22 223.68H467.32V228.25H468.22V223.68Z" fill="#D4CFB0"/>
<path d="M452.13 229V223.66C449.81 225.28 453.2 226.8 452.13 229Z" fill="#D4CFB0"/>
<path d="M32.17 229.78L33.06 230.54L32.17 231.3C34.59 232.75 31.37 234.04 32.17 235.87L33.06 223.68C30 225.66 35.21 227.8 32.17 229.78Z" fill="#D4CFB0"/>
<path d="M348.48 227.49L347.59 225.21H346.69L348.48 227.49Z" fill="#D4CFB0"/>
<path d="M335.08 240.45V225.97L333.29 235.11L335.08 240.45Z" fill="#D4CFB0"/>
<path d="M625.48 231.3C628.48 230.92 627.62 229.17 629.05 227.49L628.15 226.73C629.05 228.79 626.91 229.93 625.48 231.3Z" fill="#D4CFB0"/>
<path d="M592.41 226.74H591.52V231.31H592.41V226.74Z" fill="#D4CFB0"/>
<path d="M300.23 228.26C298.1 229.1 300.41 230.26 300.23 231.26C301.31 230.42 300.23 228.52 299.34 227.45L300.23 228.26Z" fill="#D4CFB0"/>
<path d="M23.2299 227.49C23.6799 227.95 24.4899 228.33 24.1299 229.02C23.5899 229.93 22.43 229.78 21.45 229.78C25.91 233.13 25.4499 239.08 24.1299 243.5C25.3799 238.54 26.0899 232.14 23.2299 227.49Z" fill="#D4CFB0"/>
<path d="M766.66 236.64C768.98 233.9 766.13 231 765.77 228.26C763.45 231 768.18 233.21 766.66 236.64Z" fill="#D4CFB0"/>
<path d="M694.28 233.59V228.26L693.39 229.02L694.28 233.59Z" fill="#D4CFB0"/>
<path d="M560.25 228.26H559.36V231.31H560.25V228.26Z" fill="#D4CFB0"/>
<path d="M59 235.11C59.35 234.43 58.55 234.05 58.11 233.59C59.19 233.13 59 232.15 59 231.3L58.11 232.06C55.43 230.61 59.36 229.77 59 228.25C55.49 230.24 58.7 232.75 59 235.11Z" fill="#D4CFB0"/>
<path d="M41.1 235.88L42.88 228.26L41.1 232.83V235.88Z" fill="#D4CFB0"/>
<path d="M462 229.78L462.89 235.11L462 229.78Z" fill="#D4CFB0"/>
<path d="M428 234.35C426.29 233.74 427.46 232.35 427.1 231.35C427.64 230.97 428.1 230.29 428.89 230.59L428 229.83L427.1 235.16L428 234.35Z" fill="#D4CFB0"/>
<path d="M473.58 234.35C475.91 233.13 473.04 231.76 472.69 230.54L473.58 234.35Z" fill="#D4CFB0"/>
<path d="M436.94 231.3C438.64 234.65 437.48 238.92 437.84 242.73V231.3H436.94Z" fill="#D4CFB0"/>
<path d="M293.08 231.3L293.98 233.59L293.08 231.3Z" fill="#D4CFB0"/>
<path d="M607.61 235.11C608.61 235.11 609.75 234.88 610.29 235.88C610.65 234.81 609.49 233.36 611.18 232.88L610.29 232.12L607.61 235.11Z" fill="#D4CFB0"/>
<path d="M36.64 238.16C37.98 237.32 37.98 233.59 36.64 232.07C35.29 234.5 39.32 236.18 36.64 238.16Z" fill="#D4CFB0"/>
<path d="M468.22 239.69C466.88 237.17 470.9 235.57 468.22 233.59V239.69Z" fill="#D4CFB0"/>
<path d="M100.07 242C102.48 243.45 99.27 244.75 100.07 246.57C100.43 242.92 103.29 237.89 100.97 233.57C98.64 236.64 102.75 239 100.07 242Z" fill="#D4CFB0"/>
<path d="M370.82 237.4L369.93 234.35V237.4H370.82Z" fill="#D4CFB0"/>
<path d="M736.28 238.16V235.11L735.38 237.4L736.28 238.16Z" fill="#D4CFB0"/>
<path d="M568.29 239.69V236.64L567.4 238.92L568.29 239.69Z" fill="#D4CFB0"/>
<path d="M17.0001 239.69L17.9001 240.45V236.64C16.1701 237.17 17.3301 238.62 17.0001 239.69Z" fill="#D4CFB0"/>
<path d="M479.83 242.73C479.56 240.91 481.98 239 479.83 237.4V242.73Z" fill="#D4CFB0"/>
<path d="M433.37 253.4C436.37 248.07 431.23 242.73 434.26 237.4L433.37 253.4Z" fill="#D4CFB0"/>
<path d="M30.3799 247.31H31.2699C31.2699 246.47 31.4499 245.48 30.3799 245.02C32.2599 244.34 32.3799 243.42 33.0499 242.02C32.0499 241.02 33.5899 239.13 33.0499 237.45C28.5899 240.37 31.1899 243 30.3799 247.31Z" fill="#D4CFB0"/>
<path d="M411.92 238.16H411.03V241.97H411.92V238.16Z" fill="#D4CFB0"/>
<path d="M57.19 239.69C58.19 241.51 59.51 239.46 60.76 239.69L59.87 238.17C58.7 238.23 57.09 238.85 57.19 239.69Z" fill="#D4CFB0"/>
<path d="M361 249.59C361.8 249.28 362.25 249.96 362.78 250.35V252.64C363.4 247.46 361.62 243.27 361.89 238.93L361 249.59Z" fill="#D4CFB0"/>
<path d="M40.21 239.69C39.86 240.37 40.65 240.76 41.1 241.21C38.42 243.04 42.44 244.26 41.1 246.54C42.18 244.26 42.97 241.13 41.1 238.92L40.21 239.69Z" fill="#D4CFB0"/>
<path d="M35.74 241.2C37.44 241.74 36.28 243.2 36.64 244.25C39.05 242.65 35.39 241.66 36.64 239.68C37 240.37 36.18 240.75 35.74 241.2Z" fill="#D4CFB0"/>
<path d="M631.73 243.5C633.88 242.66 631.46 241.5 631.73 240.5V243.5Z" fill="#D4CFB0"/>
<path d="M635.31 244.26C637.45 244.41 637.09 242.43 637.09 241.21C635.76 241.28 636.11 243.26 635.31 244.26Z" fill="#D4CFB0"/>
<path d="M713.94 245.01L716.62 241.97L713.94 244.26V245.01Z" fill="#D4CFB0"/>
<path d="M58.08 246.54C55.94 247.38 58.25 248.54 58.08 249.59C56.02 253.02 58.25 257.89 57.19 261.01L58.08 261.77L57.19 262.54C59.33 259.64 59.51 255.22 58.08 251.11C59.08 249.96 58.44 248.22 59.87 247.3C59.2122 246.566 58.8484 245.615 58.8484 244.63C58.8484 243.645 59.2122 242.694 59.87 241.96C56.66 241.9 58.53 245.85 58.08 246.54Z" fill="#D4CFB0"/>
<path d="M616.54 247.31V242.73H615.65L616.54 247.31Z" fill="#D4CFB0"/>
<path d="M92.93 245H94.72V242.71C94.17 243.5 92.57 243.87 92.93 245Z" fill="#D4CFB0"/>
<path d="M50 246.54L48.25 245C45.49 246.15 46.55 250.72 43.78 251.86C45.12 254.44 47.35 253.46 50.04 252.62C51.29 253.46 51.12 254.91 52.72 255.62C52.18 256.38 50.57 256.77 50.93 257.9L53.61 255.62C54.05 256.08 54.86 256.46 54.5 257.15H55.39C55.04 255.93 56.2 254.1 54.5 253.34C55.58 252.88 55.39 251.89 55.39 251.06L54.5 250.3C54.86 251.45 53.25 251.82 52.72 252.59C46.82 251.14 52.8 246.04 50.93 243.45C50.57 244.56 51.74 245.93 50 246.54Z" fill="#D4CFB0"/>
<path d="M653.18 250.35C655.33 249.9 655.51 246.47 654.07 245.02L652.29 244.26C655.33 246.23 654.16 247.83 653.18 250.35Z" fill="#D4CFB0"/>
<path d="M412.82 249.59C415.23 247.99 411.57 247 412.82 245.02V249.59Z" fill="#D4CFB0"/>
<path d="M567.4 245.78H566.51V248.83H567.4V245.78Z" fill="#D4CFB0"/>
<path d="M235 245.78L234.1 257.21L235 245.78Z" fill="#D4CFB0"/>
<path d="M657.65 263.3C660.42 259.87 659.08 254.54 659.44 250.3L658.55 246.49L657.65 263.3Z" fill="#D4CFB0"/>
<path d="M480.73 250.35L479.83 246.54V250.35H480.73Z" fill="#D4CFB0"/>
<path d="M711.26 248.82C710.1 249.28 710.37 250.27 710.37 251.11H711.26L710.37 247.3C710 248 710.81 248.37 711.26 248.82Z" fill="#D4CFB0"/>
<path d="M699.64 250.35L700.54 247.31H699.64V250.35Z" fill="#D4CFB0"/>
<path d="M105.44 247.31L106.33 251.12L105.44 247.31Z" fill="#D4CFB0"/>
<path d="M60.76 250.35L61.66 251.11L62.54 247.3C61.21 247.38 61.56 249.36 60.76 250.35Z" fill="#D4CFB0"/>
<path d="M647.82 255.68L649.6 248.06L647.82 252.63V255.68Z" fill="#D4CFB0"/>
<path d="M590.63 252.63C590.36 251.56 592.78 250.42 590.63 249.63V252.63Z" fill="#D4CFB0"/>
<path d="M386.01 249.59H385.12V252.64H386.01V249.59Z" fill="#D4CFB0"/>
<path d="M36.64 255.68L37.53 256.44L36.64 257.2L37.53 257.95V249.58C35.84 250.43 37 253.71 36.64 255.68Z" fill="#D4CFB0"/>
<path d="M567.4 269.39C566.87 262.3 568.47 257.2 567.4 250.39V269.39Z" fill="#D4CFB0"/>
<path d="M564.72 261.77C563.03 262.3 564.19 263.77 563.83 264.77C566.83 261.11 561.69 256.09 564.72 251.77L563.83 250.25C561.5 254.16 564.36 258 564.72 261.77Z" fill="#D4CFB0"/>
<path d="M573.66 255.68V251.11C573.056 251.717 572.717 252.539 572.717 253.395C572.717 254.251 573.056 255.073 573.66 255.68Z" fill="#D4CFB0"/>
<path d="M453.02 255.68L452.13 251.11V255.68H453.02Z" fill="#D4CFB0"/>
<path d="M412.82 251.11H411.92V254.15H412.82V251.11Z" fill="#D4CFB0"/>
<path d="M116.16 254.93L115.27 251.11H114.37L116.16 254.93Z" fill="#D4CFB0"/>
<path d="M446.77 252.63C449.45 255.38 445.43 257.73 446.77 261.01C446.95 258.88 450.43 254.16 446.77 252.63Z" fill="#D4CFB0"/>
<path d="M596 258C598.32 257.17 594.84 256.4 596 255V258Z" fill="#D4CFB0"/>
<path d="M458.38 267.87C458.83 265.2 460.17 261.93 458.38 259.49C460.8 258.04 457.58 256.74 458.38 254.92C455.71 259.18 459.73 263.07 458.38 267.87Z" fill="#D4CFB0"/>
<path d="M663.9 261.77L664.8 255.68L663.9 259.49V261.77Z" fill="#D4CFB0"/>
<path d="M131.35 260.25L130.46 255.68V260.25H131.35Z" fill="#D4CFB0"/>
<path d="M747 259.49L747.89 256.44L747 258.73V259.49Z" fill="#D4CFB0"/>
<path d="M642.46 269.39C642.1 264.14 643.26 261.16 641.56 256.39C643.26 260.25 642.1 265.13 642.46 269.39Z" fill="#D4CFB0"/>
<path d="M440.51 261C441.94 259.85 441.58 257.57 440.51 256.43C442.66 258 439.8 259.11 440.51 261Z" fill="#D4CFB0"/>
<path d="M422.64 261.77L423.54 257.21L422.64 258.73V261.77Z" fill="#D4CFB0"/>
<path d="M636.2 264.82V259.49C636.38 261.32 634.06 263.22 636.2 264.82Z" fill="#D4CFB0"/>
<path d="M590.63 261.01H589.74V270.15H590.63V261.01Z" fill="#D4CFB0"/>
<path d="M654.07 262.54L652.29 270.92L654.07 262.54Z" fill="#D4CFB0"/>
<path d="M474.47 277C472.15 278.6 475.54 280.13 474.47 282.33V262.53C473.129 267.26 473.129 272.27 474.47 277Z" fill="#D4CFB0"/>
<path d="M125.99 265.58L126.88 262.54H125.99V265.58Z" fill="#D4CFB0"/>
<path d="M646.93 268.63L647.82 264.06L646.93 265.58V268.63Z" fill="#D4CFB0"/>
<path d="M423.54 264.82H422.64V267.87H423.54V264.82Z" fill="#D4CFB0"/>
<path d="M568.29 271.68C567.76 271.3 567.29 270.61 566.5 270.92C566.41 273.51 572.22 271.76 570.07 275.49H571.86C571.5 272.49 568.65 269.4 570.97 266.35L568.29 271.68Z" fill="#D4CFB0"/>
<path d="M562.93 269.39L563.83 266.35L562.93 267.11V269.39Z" fill="#D4CFB0"/>
<path d="M447.66 266.35H446.77V269.39H447.66V266.35Z" fill="#D4CFB0"/>
<path d="M440.51 266.35C440.87 267.57 439.71 269.35 441.4 270.15V266.35H440.51Z" fill="#D4CFB0"/>
<path d="M41.1 270.92C42.18 271.38 41.99 272.37 41.99 273.21H42.88V267.11H42C41.63 268.33 42.8 270.15 41.1 270.92Z" fill="#D4CFB0"/>
<path d="M576.33 273.21C573.33 271.38 578.47 269.71 575.44 267.88V273.21H576.33Z" fill="#D4CFB0"/>
<path d="M479.83 267.87H478.94V273.97H479.83V267.87Z" fill="#D4CFB0"/>
<path d="M235.9 270.92L235 267.87V270.92H235.9Z" fill="#D4CFB0"/>
<path d="M655.86 280.06C657.2 282.8 653.18 284.63 655.86 286.92C655.33 287.3 654.86 287.99 654.07 287.68C657.56 290.42 653.18 293.09 655.86 296.06C653.98 292.25 659.79 291.11 656.75 287.68L657.64 286.92C656.83 287.23 656.39 286.54 655.86 286.15C657.73 280.82 655.77 273.15 657.64 268.63C657.11 271.76 655.06 276.71 655.86 280.06Z" fill="#D4CFB0"/>
<path d="M203.73 271.68L204.62 268.63L203.73 269.39V271.68Z" fill="#D4CFB0"/>
<path d="M58.08 282.34C63.44 278.46 55.4 274.12 58.08 268.63V282.34Z" fill="#D4CFB0"/>
<path d="M458.38 280.06C458.74 278.23 457.58 276.06 459.28 274.73C456.6 272.9 460.62 271.73 459.28 269.4C458.83 272.36 456.24 276.41 458.38 280.06Z" fill="#D4CFB0"/>
<path d="M433.37 286.92L434.26 269.4C432.56 275.64 433.81 280.14 433.37 286.92Z" fill="#D4CFB0"/>
<path d="M423.54 280.82V269.39L422.64 273.97L423.54 280.82Z" fill="#D4CFB0"/>
<path d="M362.78 272.44L363.67 269.39H362.78V272.44Z" fill="#D4CFB0"/>
<path d="M485.19 276.25C488.19 274.25 483.05 272.14 486.09 270.15H484.3L485.19 276.25Z" fill="#D4CFB0"/>
<path d="M437.84 270.15H436.94V273.2H437.84V270.15Z" fill="#D4CFB0"/>
<path d="M641.56 273.97L642.46 270.92L641.56 271.68V273.97Z" fill="#D4CFB0"/>
<path d="M530.77 277C531.57 276.7 532.02 277.38 532.56 277.76C534.88 275.76 532.03 273.64 531.67 271.67L530.77 277Z" fill="#D4CFB0"/>
<path d="M563.83 285.39L564.72 272.44C560.79 276.71 566 281.13 563.83 285.39Z" fill="#D4CFB0"/>
<path d="M235.9 272.44L235 276.25L235.9 272.44Z" fill="#D4CFB0"/>
<path d="M588.85 289.2C586.17 292.02 590.19 296.36 588.85 300.63L590.64 289.2H591.53C592.16 290.11 588.32 286.3 589.75 283.87L590.64 283.11C590.64 281.11 590.73 277.32 589.75 274.73L590.64 273.21L588.85 289.2Z" fill="#D4CFB0"/>
<path d="M467.32 273.21C467.41 274.13 468.13 275.57 469.11 275.49C467.24 275.18 469.2 272.82 467.32 273.21Z" fill="#D4CFB0"/>
<path d="M688.92 280.82C687.22 280.06 688.38 278.23 688.03 277.01C690.17 276.25 687.31 275.87 688.03 274.73V280.82H688.92Z" fill="#D4CFB0"/>
<path d="M64.3299 274.73H63.4399V280.06H64.3299V274.73Z" fill="#D4CFB0"/>
<path d="M447.66 275.49H446.77V279.3H447.66V275.49Z" fill="#D4CFB0"/>
<path d="M566.51 279.3L567.4 280.06C565.7 280.82 566.87 282.65 566.51 283.87C567.76 284.02 569.1 282.04 570.08 283.87C569.73 285.09 570.88 286.87 569.19 287.68L570.08 288.44L567.4 290.73C566.95 290.27 566.15 289.89 566.51 289.21C565.97 291.04 567.94 295.76 564.72 297.59C563.03 296.98 564.19 295.59 563.83 294.59C560.83 298.4 565.97 302.2 562.94 306.01L563.83 306.77C563.29 307.68 562.13 307.53 561.15 307.53C561.96 307.23 562.41 307.91 562.94 308.29C563.3 308.97 562.49 309.36 562.05 309.81C562.49 310.27 563.3 310.65 562.94 311.33C561.94 312.16 561.07 313.33 559.37 312.85C558.92 312.39 558.12 312.02 558.48 311.33L560.27 309.81C557.06 308.36 558.93 302.88 558.48 300.67V297.67L556.69 303C557.49 302.7 557.94 303.39 558.48 303.76C556.78 305.82 558.03 309.76 557.59 311.38L559.38 312.9C560.38 312.9 561.52 313.06 562.06 312.14C563.76 312.9 562.59 314.73 562.95 315.95C561.25 316.41 560.27 318.01 558.48 318.23C560.89 321.28 560.71 324.09 559.37 328.13C558.03 329.8 562.05 330.72 559.37 331.94C564.82 328.94 558.83 322.11 562.05 317.46H563.84C563.48 316.32 565.09 315.94 565.62 315.18C566.16 318.3 568.3 322.04 566.52 325.08C564.38 323.71 563.3 322.08 563.84 319.75C566.84 323.1 561.7 326.3 564.73 329.65C564.28 330.11 563.48 330.49 563.84 331.17C566.07 330.48 562.95 325.98 566.52 325.84C567.181 327.138 567.526 328.574 567.526 330.03C567.526 331.486 567.181 332.922 566.52 334.22C561.07 334.9 565.81 339.86 563.84 341.84C567.06 345.18 565.09 350.52 565.62 354.79C566.16 352.96 564.19 341.99 567.41 339.55L568.3 340.31V323.49C567.642 322.467 567.292 321.276 567.292 320.06C567.292 318.844 567.642 317.653 568.3 316.63C568.84 317.54 570 317.39 570.98 317.39C570.62 316.71 571.43 316.33 571.87 315.87C570.62 316.17 568.92 315.18 568.3 316.63C566.51 314.12 570.53 312.82 571.87 311.3C574.02 312.59 575.09 314.3 574.55 316.63C574.91 314.8 574.2 312.63 572.76 312.06L571.86 311.3C572.926 310.369 573.732 309.178 574.202 307.842C574.671 306.507 574.788 305.073 574.54 303.68C574.19 304.9 575.35 306.73 573.65 307.49C572.84 307.8 572.4 307.11 571.86 306.73C572.94 303 570.7 301.02 572.76 297.59C572.31 297.13 571.51 296.75 571.86 296.07C571.86 296.91 572.04 297.9 570.97 298.36C568.2 298.05 569.18 295.08 567.39 293.79C568.28 293.34 568.73 291.97 570.07 292.27C568.91 291.82 569.18 290.83 569.18 289.98C569.72 289.6 570.18 288.92 570.97 289.22C568.82 288.45 570.07 287.01 570.97 285.41L571.86 286.17C570.7 282.52 574.86 277.41 567.39 276.27C567.49 277.39 566 277.93 566.51 279.3Z" fill="#D4CFB0"/>
<path d="M714.84 279.3C714.39 278.84 713.59 278.46 713.95 277.78L713.05 280.78C711.62 280.48 717.43 280.32 716.62 276.97L714.84 279.3Z" fill="#D4CFB0"/>
<path d="M651.39 277.78H650.5V284.63H651.39V277.78Z" fill="#D4CFB0"/>
<path d="M596.89 277.78L596 280.78L596.89 277.78Z" fill="#D4CFB0"/>
<path d="M537 277.78L537.89 281.59L537 277.78Z" fill="#D4CFB0"/>
<path d="M352.06 291.49H352.95C349.56 286.49 355.36 283.03 353.84 277.78C353.31 282.34 351.25 287.37 352.06 291.49Z" fill="#D4CFB0"/>
<path d="M546.85 284.63C546.41 285.09 545.6 285.47 545.96 286.16L546.85 286.93V278.55C545.51 279.37 545.51 283.11 546.85 284.63Z" fill="#D4CFB0"/>
<path d="M93.82 279.3C98.73 280.52 91.14 283.42 93.82 285.39C94.72 284.93 95.16 283.56 96.5 283.87C96.59 282.73 95.07 282.12 95.61 280.87C97.76 280.11 94.89 279.73 95.61 278.59C94.8 278.23 94.36 278.92 93.82 279.3Z" fill="#D4CFB0"/>
<path d="M704.11 280.82C704.47 281.51 703.66 281.89 703.22 282.34L704.11 283.11L705.9 280.82H704.11Z" fill="#D4CFB0"/>
<path d="M418.18 285.39H419.07L418.18 281.58C418.621 282.117 418.862 282.79 418.862 283.485C418.862 284.18 418.621 284.853 418.18 285.39Z" fill="#D4CFB0"/>
<path d="M534.33 283.11H533.44V286.92H534.33V283.11Z" fill="#D4CFB0"/>
<path d="M88.46 283.87C92.39 285.55 88.46 288.21 89.35 290.73C89 290.05 89.8 289.66 90.24 289.21H92C89.23 288.59 90.57 285.21 90.21 283.12C89.45 282.8 89 283.49 88.46 283.87Z" fill="#D4CFB0"/>
<path d="M235.9 298.35C232.9 293.47 238.04 288.75 235 283.87V298.35H235.9Z" fill="#D4CFB0"/>
<path d="M103.65 283.87L102.76 289.2L103.65 283.87Z" fill="#D4CFB0"/>
<path d="M99.19 286.92C101.33 286.08 98.92 284.92 99.19 283.92V286.92Z" fill="#D4CFB0"/>
<path d="M479.83 284.63H478.94V287.68H479.83V284.63Z" fill="#D4CFB0"/>
<path d="M169.78 290C172.46 288.17 168.43 287 169.78 284.67V290Z" fill="#D4CFB0"/>
<path d="M661.22 290C660.86 289.31 661.67 288.94 662.11 288.47C661.823 288.338 661.579 288.127 661.409 287.861C661.238 287.595 661.147 287.286 661.147 286.97C661.147 286.654 661.238 286.345 661.409 286.079C661.579 285.813 661.823 285.602 662.11 285.47C661.666 285.62 661.27 285.885 660.961 286.237C660.652 286.59 660.442 287.017 660.352 287.477C660.262 287.937 660.294 288.412 660.447 288.855C660.599 289.298 660.866 289.693 661.22 290Z" fill="#D4CFB0"/>
<path d="M558.47 289.2C558.47 288.36 558.2 287.37 559.36 286.91L558.47 286.14L559.36 285.38C557.66 285.47 558.82 288 558.47 289.2Z" fill="#D4CFB0"/>
<path d="M318.1 285.39C318.753 286.273 319.105 287.342 319.105 288.44C319.105 289.538 318.753 290.607 318.1 291.49C320 290.12 321.22 285.93 318.1 285.39Z" fill="#D4CFB0"/>
<path d="M85.78 296.06V288.44C86.31 288.06 86.78 287.37 87.56 287.68L84.88 285.39L85.78 296.06Z" fill="#D4CFB0"/>
<path d="M576.33 290H577.22L575.43 286.19C575.8 287.37 574.64 289.2 576.33 290Z" fill="#D4CFB0"/>
<path d="M697.86 291.49L698.75 286.92L697.86 288.44V291.49Z" fill="#D4CFB0"/>
<path d="M665.69 290C666.69 289.7 667.83 290.69 667.48 291.53V294.53C667.21 292.53 668.37 290.04 669.27 287.67L668.37 286.91C669.44 288.9 666.67 289 665.69 290Z" fill="#D4CFB0"/>
<path d="M687.14 287.68H686.24V295.3H687.14V287.68Z" fill="#D4CFB0"/>
<path d="M528.97 287.68H528.08V290.73H528.97V287.68Z" fill="#D4CFB0"/>
<path d="M413.71 293.77H414.6C415.49 291.11 412.81 290.04 414.6 287.68C412.91 288.52 414.07 291.8 413.71 293.77Z" fill="#D4CFB0"/>
<path d="M419.07 302.91C420.77 303.44 419.61 304.91 419.96 305.96C419.96 305.12 419.7 304.13 420.86 303.67H421.75L420 302.15C420.45 301.7 421.25 301.32 420.9 300.63L420 299.87L421.79 298.35C417.32 295.35 419.92 292.71 419.11 288.44L419.07 302.91Z" fill="#D4CFB0"/>
<path d="M645.14 290.73C644.78 293.85 645.94 299.26 644.24 302.91C644.69 303.37 645.49 303.75 645.14 304.44C645.5 307.02 644.33 312.06 646.03 315.1C647.37 307.86 643.35 299.79 646.03 290.72L644.24 289.2C644.69 289.66 645.5 290 645.14 290.73Z" fill="#D4CFB0"/>
<path d="M95.61 293.77L96.5 289.2L95.61 290.73V293.77Z" fill="#D4CFB0"/>
<path d="M369.03 293.01L370.82 289.96L369.03 291.49V293.01Z" fill="#D4CFB0"/>
<path d="M576.33 291.49C578.03 294.31 576.87 298.04 577.22 301.39H578.11C576.42 300.63 577.58 298.8 577.22 297.58V291.49H576.33Z" fill="#D4CFB0"/>
<path d="M423.54 296.06C423.54 299.56 423.45 304.9 424.43 309.06V311.35C424.07 303.43 429.08 299.35 424.43 291.54C424.07 293 425.24 295 423.54 296.06Z" fill="#D4CFB0"/>
<path d="M632.63 292.25C634.63 296.44 632.36 299.18 633.53 303.68H634.42C631.38 299.94 636.65 294.69 632.63 292.25Z" fill="#D4CFB0"/>
<path d="M54.5 296.82L56.28 292.25L54.5 293.77V296.82Z" fill="#D4CFB0"/>
<path d="M660.33 302.15C663.19 300.15 662.33 297.15 662.12 293.77L660.33 302.15Z" fill="#D4CFB0"/>
<path d="M602.25 303.68C603.05 303.38 603.5 304.07 604.04 304.45C604.4 304.14 603.24 296.83 604.93 293.78L602.25 303.68Z" fill="#D4CFB0"/>
<path d="M369.93 296.82C370.74 296.51 371.18 297.2 371.72 297.58V293.77C370.73 294.61 369.39 295.37 369.93 296.82Z" fill="#D4CFB0"/>
<path d="M37.53 293.77H36.64V298.34H37.53V293.77Z" fill="#D4CFB0"/>
<path d="M409.24 299.87C411.92 298.04 407.9 296.87 409.24 294.54V299.87Z" fill="#D4CFB0"/>
<path d="M722 296.06C723.25 296.37 724.87 295.38 725.58 296.83V295.3L722 296.06Z" fill="#D4CFB0"/>
<path d="M550.42 295.3H549.53V299.11H550.42V295.3Z" fill="#D4CFB0"/>
<path d="M356.53 299.87C353.53 298.35 358.67 296.87 355.63 295.3V299.87H356.53Z" fill="#D4CFB0"/>
<path d="M674.63 297.58L673.73 296.06H672.84L674.63 297.58Z" fill="#D4CFB0"/>
<path d="M667.48 302.15C666.59 299.49 669.27 298.42 667.48 296.06V302.15Z" fill="#D4CFB0"/>
<path d="M375.29 300.63H376.18C375.578 300.022 375.241 299.201 375.241 298.345C375.241 297.49 375.578 296.668 376.18 296.06C375 297.28 375.29 299 375.29 300.63Z" fill="#D4CFB0"/>
<path d="M480.73 304.44L479.83 296.82L478.94 301.39L480.73 304.44Z" fill="#D4CFB0"/>
<path d="M414.6 315.87C414.33 313.87 416.74 311.98 414.6 309.77L415.49 296.82C414.51 303.37 414.6 308.7 414.6 315.87Z" fill="#D4CFB0"/>
<path d="M594.21 300.63L595.1 297.58H594.21V300.63Z" fill="#D4CFB0"/>
<path d="M463.75 297.58C465 302.23 462.5 305.58 464.64 310.53C463.772 311.61 463.298 312.954 463.298 314.34C463.298 315.726 463.772 317.07 464.64 318.15V297.58H463.75Z" fill="#D4CFB0"/>
<path d="M99.1899 304.44C99.3641 302.157 99.3641 299.863 99.1899 297.58V304.44Z" fill="#D4CFB0"/>
<path d="M687.13 310.53C684.13 314.88 689.28 321.2 686.23 326.53C687.93 327.06 686.77 328.53 687.13 329.58C686.6 329.96 686.13 330.65 685.34 330.34L687.13 338.72C685.97 334.84 688.2 329.2 686.23 325.01L688 321.2C686.657 313.639 686.657 305.901 688 298.34C684.37 301.47 687.58 306.5 687.13 310.53Z" fill="#D4CFB0"/>
<path d="M619.22 310.53H618.33V313.58H619.22V310.53Z" fill="#D4CFB0"/>
<path d="M353.84 298.35H352.95V302.16H353.84V298.35Z" fill="#D4CFB0"/>
<path d="M95.61 302.91L96.5 303.67C94.72 304.59 96.06 306.34 96.5 307.48C98.91 304.36 95.25 301.84 96.5 298.34C94.8 299.41 96 301.39 95.61 302.91Z" fill="#D4CFB0"/>
<path d="M707.68 318.15C712.6 316.93 709.47 311.6 710.36 308.25L709.47 309.01C706.47 306.01 711.61 302.91 708.58 299.87L707.68 318.15Z" fill="#D4CFB0"/>
<path d="M469.11 316.63C471.79 311 467.77 305.96 469.11 299.87V316.63Z" fill="#D4CFB0"/>
<path d="M674.62 302.15C676.32 302.69 675.15 304.15 675.51 305.2C678.51 303.67 673.37 302.15 676.4 300.63L674.62 302.15Z" fill="#D4CFB0"/>
<path d="M538.8 305.2L540.6 300.63L538.8 304.44V305.2Z" fill="#D4CFB0"/>
<path d="M236.79 318.92C240.45 312.36 233.58 307.64 235.9 300.64L236.79 318.92Z" fill="#D4CFB0"/>
<path d="M565.61 301.39C565.25 303.75 565.97 304.52 568.29 305.2C566.51 304.21 568.74 301.16 565.61 301.39Z" fill="#D4CFB0"/>
<path d="M544.17 304.44L545.06 301.39L544.17 303.68V304.44Z" fill="#D4CFB0"/>
<path d="M458.38 302.15C458.83 305.28 457.58 310.68 459.28 314.34C458.83 314.8 458.03 315.18 458.38 315.87H459.28C456.6 311.3 460.62 307.18 459.28 302.15H458.38Z" fill="#D4CFB0"/>
<path d="M378.86 303.68L379.75 304.45L378.86 305.21L379.75 302.16C379.31 302.61 378.5 303 378.86 303.68Z" fill="#D4CFB0"/>
<path d="M153.69 309.01L152.8 302.15L151.91 307.49L153.69 309.01Z" fill="#D4CFB0"/>
<path d="M588.85 315.87L589.75 316.63C589.39 313.13 589.21 309.47 588.85 305.96C589.148 305.832 589.402 305.619 589.581 305.348C589.759 305.077 589.854 304.76 589.854 304.435C589.854 304.11 589.759 303.793 589.581 303.522C589.402 303.251 589.148 303.038 588.85 302.91V315.87Z" fill="#D4CFB0"/>
<path d="M598.67 303.68C598.67 304.52 598.4 305.51 599.56 305.97L600.45 303.68H598.67Z" fill="#D4CFB0"/>
<path d="M548.64 303.68C550.34 304.45 549.17 306.27 549.53 307.49C551.85 306.27 549 304.21 548.64 303.68Z" fill="#D4CFB0"/>
<path d="M376.18 303.68H375.29V306.73H376.18V303.68Z" fill="#D4CFB0"/>
<path d="M667.48 324.25C669.89 317.54 666.48 310.61 668.37 304.45C666.67 309.85 667.83 318.61 667.48 324.25Z" fill="#D4CFB0"/>
<path d="M662.12 314.34V304.44C661.455 306.006 661.113 307.689 661.113 309.39C661.113 311.091 661.455 312.774 662.12 314.34Z" fill="#D4CFB0"/>
<path d="M102.75 307.49C106.41 307.26 102.39 305.74 102.75 304.49V307.49Z" fill="#D4CFB0"/>
<path d="M747.9 309.77C748.08 310.84 745.76 311.98 747.9 312.77C746.2 313.53 747.36 315.36 747.01 316.58C747.01 312.77 751.01 308.5 747.01 305.16C746.55 307.41 746.65 307.87 747.9 309.77Z" fill="#D4CFB0"/>
<path d="M735.38 309.01L736.28 305.2L735.38 305.96V309.01Z" fill="#D4CFB0"/>
<path d="M633.52 305.2L634.41 315.1L633.52 305.2Z" fill="#D4CFB0"/>
<path d="M602.25 309C604.39 308.17 601.98 307 602.25 306V309Z" fill="#D4CFB0"/>
<path d="M553.11 307.49C554.81 308.02 553.64 309.49 554 310.49H554.89V306H554C554.36 306.65 553.55 307 553.11 307.49Z" fill="#D4CFB0"/>
<path d="M383.33 317.39L384.22 318.15V306C381.46 309 385.92 313.66 383.33 317.39Z" fill="#D4CFB0"/>
<path d="M700.54 312.06V306.73L699.64 311.3L700.54 312.06Z" fill="#D4CFB0"/>
<path d="M569.19 309.77L570.08 306.73L569.19 307.49V309.77Z" fill="#D4CFB0"/>
<path d="M613.86 309L614.75 309.76C614.31 310.22 613.5 310.6 613.86 311.28L614.75 312.04V307.47C614.31 307.94 613.51 308.32 613.86 309Z" fill="#D4CFB0"/>
<path d="M594.21 314.34C596.08 315.26 597.87 317.85 595.1 319.68V320.44C594.65 316.79 603.59 313.28 597.78 309.01C596.88 309.47 596.44 310.84 595.1 310.53C592.78 309.7 596.17 308.93 595.1 307.53C592.06 309.77 598.58 313.2 594.21 314.34Z" fill="#D4CFB0"/>
<path d="M296.65 309.77C293.44 310.99 295.49 314.03 293.98 315.87L294.87 316.63C297.46 315.03 298.99 309.85 295.77 307.49C295.76 308.32 295.49 309.32 296.65 309.77Z" fill="#D4CFB0"/>
<path d="M158.15 308.25L157.26 307.49V309.78L159.94 307.49C159.41 307.87 159 308.55 158.15 308.25Z" fill="#D4CFB0"/>
<path d="M380.65 312.82L378.86 308.25L377.97 310.53L380.65 312.82Z" fill="#D4CFB0"/>
<path d="M789 309C792.22 310.07 790.25 313.12 790.79 315.1L791.68 309H789Z" fill="#D4CFB0"/>
<path d="M650.5 315.87C652.2 314.12 649.61 312.06 650.5 309.77V315.87Z" fill="#D4CFB0"/>
<path d="M449.45 313.58C447.75 314.11 448.91 315.58 448.56 316.58C451.24 314.58 447.22 312.93 448.56 310.48C448.91 311.6 447.76 313 449.45 313.58Z" fill="#D4CFB0"/>
<path d="M783.63 317.39L785.42 311.3L783.63 314.34V317.39Z" fill="#D4CFB0"/>
<path d="M109.02 311.3H108.12V315.11H109.02V311.3Z" fill="#D4CFB0"/>
<path d="M487 315.11L487.89 315.87V312.06C488 313.2 486.45 313.73 487 315.11Z" fill="#D4CFB0"/>
<path d="M581.7 313.58C583.4 314.34 582.24 316.17 582.59 317.39V312.82L581.7 313.58Z" fill="#D4CFB0"/>
<path d="M424.43 334.15C426.13 337.15 424.96 342.22 425.32 344.81L426.22 331.86C421.66 329.65 427.65 325.31 424.44 321.95C425.102 320.518 425.445 318.958 425.445 317.38C425.445 315.802 425.102 314.243 424.44 312.81L424.43 334.15Z" fill="#D4CFB0"/>
<path d="M438.73 318.15V313.58C436.59 315.11 439.36 316.25 438.73 318.15Z" fill="#D4CFB0"/>
<path d="M433.37 315.11C434.37 315.94 435.69 316.71 435.16 318.11C437.49 316.89 434.63 315.52 434.27 314.3L433.37 315.11Z" fill="#D4CFB0"/>
<path d="M214.45 327.29L215.35 329.58C216.69 327.29 212.66 321.51 215.35 317.39L214.45 314.39C213.29 318.15 215 323.64 214.45 327.29Z" fill="#D4CFB0"/>
<path d="M618.33 322.72C618.33 321.88 618.06 320.89 619.22 320.44H620.12L619.22 315.11C616.9 317.39 621 320.36 618.33 322.72Z" fill="#D4CFB0"/>
<path d="M387.79 315.11H386.9V321.21H387.79V315.11Z" fill="#D4CFB0"/>
<path d="M701.43 320.44L700.54 315.87L701.43 317.39V320.44Z" fill="#D4CFB0"/>
<path d="M576.33 320.44L577.22 321.2C575.79 323.1 579.9 329.2 573.65 328.82C572.84 330.73 570.65 334.53 572.76 337.2C572.67 333.7 572.4 329.5 576.33 328.06H578.12V315.87C575.89 316.78 576.43 318.69 576.33 320.44Z" fill="#D4CFB0"/>
<path d="M545.06 318.92L545.95 315.87H545.06V318.92Z" fill="#D4CFB0"/>
<path d="M483.41 322C484.062 321.119 484.414 320.051 484.414 318.955C484.414 317.859 484.062 316.791 483.41 315.91C485.11 317.54 482.51 319.68 483.41 322Z" fill="#D4CFB0"/>
<path d="M549.53 331.1C553.46 329.27 549.17 324.55 553.11 322.72L554 316.63C555.25 323.1 548.28 324.63 549.53 331.1Z" fill="#D4CFB0"/>
<path d="M65.22 322.72H66.12C64.42 320.72 66.66 318.3 65.22 316.63V322.72Z" fill="#D4CFB0"/>
<path d="M660.33 318.92C661.4 319.38 661.22 320.37 661.22 321.21H662.11V317.4H661.22C661.58 318.08 660.77 318.45 660.33 318.92Z" fill="#D4CFB0"/>
<path d="M599.57 317.39C599.57 318.23 599.31 319.22 600.46 319.68C600.01 320.13 599.21 320.52 599.57 321.2L600.46 317.39H599.57Z" fill="#D4CFB0"/>
<path d="M708.58 325C709.65 325.46 709.47 326.45 709.47 327.28H710.36C707.68 324.28 711.7 321.65 710.36 318.14C710.28 320.59 710.81 323.25 708.58 325Z" fill="#D4CFB0"/>
<path d="M646.93 355.48C645.23 345.88 646.4 338.11 646.03 328.05L646.93 327.29C643.93 326.07 649.07 324.71 646.03 323.48C647.82 321.96 645.67 319.74 645.14 318.15L646.03 355.48H646.93Z" fill="#D4CFB0"/>
<path d="M468.22 318.15L469.11 325.77L468.22 318.15Z" fill="#D4CFB0"/>
<path d="M58.9999 322L59.8899 322.76V318.19C58.1699 318.23 59.3299 320.74 58.9999 322Z" fill="#D4CFB0"/>
<path d="M692.5 322.72L693.39 318.92L691.6 321.96L692.5 322.72Z" fill="#D4CFB0"/>
<path d="M430.69 340.25L431.58 355.49C431.67 354.65 435.51 352.06 431.58 350.92C433.28 347.26 432.12 341.86 432.48 338.73C429.48 336.73 434.35 335.6 433.37 333.4C432.84 330.4 430.42 326.93 431.58 324.26C429.26 322.73 433.37 320.53 430.69 318.93C432 326.53 428 334.08 430.69 340.25Z" fill="#D4CFB0"/>
<path d="M405.67 321.2C407.37 321.58 406.92 324.62 410.13 323.48C409.42 322.72 408.44 318.53 405.67 321.2Z" fill="#D4CFB0"/>
<path d="M237.68 332.63C236.68 340.71 239.56 346.42 238.57 355.49H239.47C239.11 354.27 240.27 352.49 238.57 351.68L239.47 350.92L237.68 320.45C239 325 235 328.51 237.68 332.63Z" fill="#D4CFB0"/>
<path d="M71.48 320.44C72.38 321.88 73.48 323.18 73.27 325.01H74.17C73.27 323.49 72.38 321.28 71.48 320.44Z" fill="#D4CFB0"/>
<path d="M587.06 324.25V321.2H586.16L587.06 324.25Z" fill="#D4CFB0"/>
<path d="M571.87 325L571 321.2C568.65 322.42 571.51 323.79 571.87 325Z" fill="#D4CFB0"/>
<path d="M695.18 328.06V321.96L694.28 325.77L695.18 328.06Z" fill="#D4CFB0"/>
<path d="M420 339.48C420.45 337.65 420.54 335.75 421.79 334.15L420.9 333.38C422.23 330.38 418.22 326.22 420.9 322.72L420 322C419.07 328.06 421.66 333.92 420 339.48Z" fill="#D4CFB0"/>
<path d="M414.6 325.77L415.5 321.96L414.6 322.72V325.77Z" fill="#D4CFB0"/>
<path d="M384.22 323.49V329.58C384.66 327.82 383.95 324.58 384.22 321.96L383.33 322.72L384.22 323.49Z" fill="#D4CFB0"/>
<path d="M17.87 322.72H16.97V328.82H17.87V322.72Z" fill="#D4CFB0"/>
<path d="M595.99 327.29V323.49L594.21 325.01L595.99 327.29Z" fill="#D4CFB0"/>
<path d="M448.56 328.06L449.45 325.01H448.56V328.06Z" fill="#D4CFB0"/>
<path d="M387.8 328.06L388.69 325.01H387.8V328.06Z" fill="#D4CFB0"/>
<path d="M623.69 334.15C624.23 333.77 624.69 333.08 625.48 333.38C627.8 335.21 624.94 336.89 624.58 338.71L625.48 339.47C628.34 336.8 623.34 333.14 627.27 331.09C629.27 333.09 631.02 336.2 629.06 338.71C631.2 336.35 628.79 333.71 629.06 331.09L626.38 328.8L624.59 330.32C621.46 329.18 624.14 327.65 623.7 325.75C623.69 328.51 619.67 331.87 623.69 334.15Z" fill="#D4CFB0"/>
<path d="M516.47 328.06L514.68 326.53C515.75 327.75 515.57 329.53 515.57 331.1L512.89 333.38C513.96 333.84 513.78 334.83 513.78 335.67L516.46 333.38L517.35 334.15C517.71 335.67 516.55 332.15 518.24 331.86C517.79 331.4 516.99 331.02 517.35 330.33L518.24 329.57C516.45 328.57 517.79 326.91 518.24 325.76C518.61 326.92 517 327.29 516.47 328.06Z" fill="#D4CFB0"/>
<path d="M618.33 328.06C618.06 330.06 619.22 332.55 620.12 334.92C619.76 333.7 620.92 331.92 619.22 331.11C621.64 329.66 618.42 328.37 619.22 326.54C619.58 327.22 618.78 327.6 618.33 328.06Z" fill="#D4CFB0"/>
<path d="M581.7 336.44L582.59 337.2C583.13 338.42 581.16 333.55 584.38 334.2L583.48 327.34C580.27 330.34 586.26 333.85 581.7 336.44Z" fill="#D4CFB0"/>
<path d="M414.6 327.29C414.33 329.12 416.74 331.02 414.6 332.62C417.6 334.15 412.45 335.67 415.49 337.19L414.6 337.96C416.74 334.84 414.96 331.63 415.49 327.29H414.6Z" fill="#D4CFB0"/>
<path d="M59.87 331.1C61.66 329.5 58.98 329.2 59.87 327.29V331.1Z" fill="#D4CFB0"/>
<path d="M634.42 333.39C633.08 331.11 637.1 329.89 634.42 328.06V333.39Z" fill="#D4CFB0"/>
<path d="M695.18 334.91L694.28 329.58V334.15L695.18 334.91Z" fill="#D4CFB0"/>
<path d="M578.12 335.68C579.2 333.39 577.59 332.79 578.12 330.34C575.8 331.94 579.2 333.46 578.12 335.68Z" fill="#D4CFB0"/>
<path d="M448.56 334.15C449.63 333.69 449.45 332.7 449.45 331.86L448.56 331.1L449.45 330.34C447.76 330.42 448.91 332.93 448.56 334.15Z" fill="#D4CFB0"/>
<path d="M25.91 334.15L25.02 330.34V334.15H25.91Z" fill="#D4CFB0"/>
<path d="M17.87 330.34H16.97V333.39H17.87V330.34Z" fill="#D4CFB0"/>
<path d="M641.56 333.39C641.92 335.22 640.76 331.87 642.46 331.87L638.89 331.11L641.56 333.39Z" fill="#D4CFB0"/>
<path d="M503.06 336.44C505.38 335.44 505.47 337.89 506.63 338.72C507.43 341.72 503.23 341 502.16 343.3L501.27 342.53L503.95 349.39L505.74 347.11C504.93 347.42 504.48 346.73 503.95 346.35L504.84 345.59C503.84 345.59 502.69 345.74 502.16 344.83C502.16 343.46 503.95 342.83 504.84 341.83C506.18 341.52 506.62 342.89 507.52 343.35C507.08 343.81 506.27 344.19 506.63 344.87L509.31 337.25C504.75 337.41 505.74 332.99 503.05 331.16L503.06 336.44Z" fill="#D4CFB0"/>
<path d="M470 335.68V331.1L469.11 331.87L470 335.68Z" fill="#D4CFB0"/>
<path d="M589.74 337.19L590.63 337.96V334.15C588.94 334.69 590.1 336.13 589.74 337.19Z" fill="#D4CFB0"/>
<path d="M541.49 340.25H542.38V334.92H541.49C541.85 336.06 540.24 336.44 539.7 337.2C537.55 337.36 537.91 335.37 537.91 334.2C536.57 337.73 539.88 338.34 541.49 340.25Z" fill="#D4CFB0"/>
<path d="M440.51 334.15H439.62V338.72H440.51V334.15Z" fill="#D4CFB0"/>
<path d="M459.28 337.96V334.91L458.38 335.68L459.28 337.96Z" fill="#D4CFB0"/>
<path d="M17.87 335.68H16.97V343.3H17.87V335.68Z" fill="#D4CFB0"/>
<path d="M482.51 339.48L481.62 336.44V339.48H482.51Z" fill="#D4CFB0"/>
<path d="M466.43 341.77C465.27 341.54 467.5 338.49 465.53 336.44C468.58 338.27 463.39 339.94 466.43 341.77Z" fill="#D4CFB0"/>
<path d="M708.58 337.19L709.47 340.24L708.58 337.19Z" fill="#D4CFB0"/>
<path d="M386.9 341C388.24 341.31 388.69 339.93 389.58 339.48L387.79 337.19C389.58 338.72 387.44 339.56 386.9 341Z" fill="#D4CFB0"/>
<path d="M674.62 338C676.32 338.53 675.15 340 675.51 341C677.84 339.94 675 338.34 674.62 338Z" fill="#D4CFB0"/>
<path d="M471.79 345.58L470.9 337.96H470L471.79 345.58Z" fill="#D4CFB0"/>
<path d="M436 354C437.25 353.7 438.86 354.68 439.57 353.24C440.64 353.7 440.46 354.68 440.46 355.53C440.82 354.01 439.66 352.02 441.35 350.96L440.46 351.72C437.51 347.72 434.83 342.72 436.89 338L436 354Z" fill="#D4CFB0"/>
<path d="M371.71 342.53C373.5 340.93 370.82 340.63 371.71 338.72V342.53Z" fill="#D4CFB0"/>
<path d="M72.38 343.3C71.7249 344.033 71.3629 344.982 71.3629 345.965C71.3629 346.948 71.7249 347.897 72.38 348.63C72.73 346.04 71.57 343.06 73.27 341.01L70.59 338.73C69.79 340.7 71.84 341.77 72.38 343.3Z" fill="#D4CFB0"/>
<path d="M0.89 338.72H0V345.58H0.89V338.72Z" fill="#D4CFB0"/>
<path d="M476.26 353.2C475.01 348.2 478.67 344.14 476.26 339.49V353.2Z" fill="#D4CFB0"/>
<path d="M393.16 339.48C392.36 341.92 394.41 343.59 394.94 345.57H395.83C392.62 344.5 394.58 341.46 394.04 339.48H393.16Z" fill="#D4CFB0"/>
<path d="M297.55 350.14H298.45V339.48H297.55V350.14Z" fill="#D4CFB0"/>
<path d="M629.95 354C628.95 355.22 631.83 351.41 630.84 349.43C631.02 346.16 629.23 342.73 629.95 340.29C627.27 344.81 631.29 348.92 629.95 354Z" fill="#D4CFB0"/>
<path d="M685.35 355.48L686.24 341C687.13 345.35 684.37 350.14 685.35 355.48Z" fill="#D4CFB0"/>
<path d="M650.5 344.06H649.61C650.5 345.51 651.61 346.8 651.4 348.63H652.3V341H651.4C651 342.08 652.2 343.44 650.5 344.06Z" fill="#D4CFB0"/>
<path d="M545.06 342.53L547.74 341L545.06 341.77V342.53Z" fill="#D4CFB0"/>
<path d="M619.22 344.06C620.03 343.75 620.47 344.44 621.01 344.82C621.37 345.97 619.76 346.34 619.22 347.11C616.99 347.11 620.12 347.26 620.12 346.35L621.01 347.11L622.8 345.59C622.119 345.246 621.574 344.683 621.249 343.993C620.925 343.303 620.841 342.524 621.01 341.78L619.22 344.06Z" fill="#D4CFB0"/>
<path d="M569.19 344.06C570 343.75 570.44 344.44 570.98 344.82L571.87 341.82L569.19 344.06Z" fill="#D4CFB0"/>
<path d="M481.62 347.1C483.77 345.5 481.36 343.6 481.62 341.77C482.69 344 479.3 345.5 481.62 347.1Z" fill="#D4CFB0"/>
<path d="M416.39 355.48C418.53 353.66 415.94 349.31 417.28 347.1C415.59 346.34 416.75 344.51 416.39 343.29L418.17 341.77C412.28 345.35 418.27 351.37 416.39 355.48Z" fill="#D4CFB0"/>
<path d="M408.35 347.1C407.46 345.19 410.14 344.89 408.35 343.29V347.1Z" fill="#D4CFB0"/>
<path d="M512 347.1C512.81 346.8 513.25 347.48 513.79 347.86V350.14L514.68 344.05L512 347.1Z" fill="#D4CFB0"/>
<path d="M578.12 348.63C576.78 346.88 580.8 346.04 578.12 344.82V348.63Z" fill="#D4CFB0"/>
<path d="M456.6 344.81H455.71V348.62H456.6V344.81Z" fill="#D4CFB0"/>
<path d="M62.12 344.89L59 355.48L62.12 344.89Z" fill="#D4CFB0"/>
<path d="M17 346.34C17 347.18 16.74 348.17 17.9 348.63V355.49C17 352.59 19.77 349.39 18.79 345.58C18 345.27 17.52 346 17 346.34Z" fill="#D4CFB0"/>
<path d="M13.41 349.38L12.51 345.58V349.38H13.41Z" fill="#D4CFB0"/>
<path d="M641.56 354.72L640.67 347.86L641.56 353.2V354.72Z" fill="#D4CFB0"/>
<path d="M393.16 355.48L394.05 347.86C391 350.45 396.2 352.89 393.16 355.48Z" fill="#D4CFB0"/>
<path d="M444.09 349.38H443.2V353.19H444.09V349.38Z" fill="#D4CFB0"/>
<path d="M322.57 353.2L323.46 349.39C320.42 350.6 325.61 352 322.57 353.2Z" fill="#D4CFB0"/>
<path d="M456.6 350.14H455.71V353.95H456.6V350.14Z" fill="#D4CFB0"/>
<path d="M358.31 353.2L357.42 350.14V353.2H358.31Z" fill="#D4CFB0"/>
<path d="M652.29 355.48L651.39 350.91V355.48H652.29Z" fill="#D4CFB0"/>
<path d="M488.76 353.96L489.66 350.91L488.76 351.68V353.96Z" fill="#D4CFB0"/>
<path d="M578.12 353.96V351.68H577.23L578.12 353.96Z" fill="#D4CFB0"/>
<path d="M504 352.43C505.7 352.96 504.53 354.43 504.89 355.43C505.96 355.35 507.66 354.74 507.57 353.91L506.68 354.67L504.9 351.67L504 352.43Z" fill="#D4CFB0"/>
<path d="M0.89 351.68L0 355.48L0.89 351.68Z" fill="#D4CFB0"/>
</svg>
