<svg width="128" height="5239" viewBox="0 0 128 5239" fill="none" xmlns="http://www.w3.org/2000/svg">
<rect width="128" height="5239" fill="#282828"/>
<rect x="24" y="44" width="80" height="80" fill="white"/>
<rect x="24" y="1484" width="80" height="80" fill="white"/>
<rect x="24" y="524" width="80" height="80" fill="white"/>
<rect x="24" y="1964" width="80" height="80" fill="white"/>
<rect x="24" y="1004" width="80" height="80" fill="white"/>
<rect x="24" y="2444" width="80" height="80" fill="white"/>
<rect x="24" y="204" width="80" height="80" fill="white"/>
<rect x="24" y="1644" width="80" height="80" fill="white"/>
<rect x="24" y="684" width="80" height="80" fill="white"/>
<rect x="24" y="2124" width="80" height="80" fill="white"/>
<rect x="24" y="2604" width="80" height="80" fill="white"/>
<rect x="24" y="364" width="80" height="80" fill="white"/>
<rect x="24" y="1804" width="80" height="80" fill="white"/>
<rect x="24" y="844" width="80" height="80" fill="white"/>
<rect x="24" y="2284" width="80" height="80" fill="white"/>
<rect x="24" y="1324" width="80" height="80" fill="white"/>
<rect x="24" y="2764" width="80" height="80" fill="white"/>
<rect x="24" y="2924" width="80" height="80" fill="white"/>
<g filter="url(#filter0_d)">
<rect width="68" height="68" transform="matrix(-1 0 0 1 98 1170)" fill="#00FFA3"/>
</g>
<path d="M47 1204L72.5 1218.72L72.5 1189.28L47 1204Z" fill="white"/>
<g filter="url(#filter1_d)">
<circle r="14" transform="matrix(-1 0 0 1 30 1170)" fill="#0087D3"/>
</g>
<path d="M27.2798 1170.36L27.9427 1169.69L26.9904 1168.74C26.2444 1167.99 25.0305 1167.99 24.2845 1168.74L24.9474 1169.4C25.3278 1169.02 25.947 1169.02 26.3275 1169.4L27.2798 1170.36Z" fill="white"/>
<path d="M29.6937 1167.94L30.3565 1167.28L29.4042 1166.33C29.2199 1166.14 29.1184 1165.9 29.1184 1165.64C29.1184 1165.38 29.2199 1165.13 29.4042 1164.95L28.7414 1164.28C28.38 1164.65 28.1809 1165.13 28.1809 1165.64C28.1809 1166.15 28.38 1166.63 28.7414 1166.99L29.6937 1167.94Z" fill="white"/>
<path d="M28.2232 1167.56L25.9227 1165.26L25.2599 1165.92L27.5605 1168.22L28.2232 1167.56Z" fill="white"/>
<path d="M25.014 1164.08H24.0766V1165.01H25.014V1164.08Z" fill="white"/>
<path d="M29.6491 1162H28.7117V1162.94H29.6491V1162Z" fill="white"/>
<path d="M32.3007 1164.65H31.3633V1165.59H32.3007V1164.65Z" fill="white"/>
<path d="M32.2344 1162.07H31.297V1163H32.2344V1162.07Z" fill="white"/>
<path d="M22.9376 1168.69H22.0001V1169.62H22.9376V1168.69Z" fill="white"/>
<path d="M25.5891 1171.34H24.6516V1172.28H25.5891V1171.34Z" fill="white"/>
<path d="M23.0037 1171.27H22.0663V1172.21H23.0037V1171.27Z" fill="white"/>
<path d="M36.1534 1173.18L33.1789 1176.15L31.9099 1175.55L35.5513 1171.91L36.1534 1173.18Z" fill="white"/>
<path d="M33.5197 1166L34.1825 1166.66L33.4221 1167.42L34.0898 1168.83L28.8302 1174.09L27.423 1173.42L26.6626 1174.18L25.9998 1173.52L33.5197 1166Z" fill="white"/>
<path d="M38 1177.07L37.0702 1178L34.0779 1176.58L36.58 1174.08L38 1177.07Z" fill="white"/>
<path d="M35.1246 1171.01L31.0108 1175.12L29.7293 1174.52L34.5165 1169.73L35.1246 1171.01Z" fill="white"/>
<g filter="url(#filter2_d)">
<rect width="68" height="68" transform="matrix(-1 0 0 1 98 3250)" fill="#FF6B00"/>
</g>
<path d="M47 3284L72.5 3298.72L72.5 3269.28L47 3284Z" fill="white"/>
<g filter="url(#filter3_d)">
<circle r="14" transform="matrix(-1 0 0 1 30 3250)" fill="#0087D3"/>
</g>
<path d="M27.2798 3250.36L27.9427 3249.69L26.9904 3248.74C26.2444 3247.99 25.0305 3247.99 24.2845 3248.74L24.9474 3249.4C25.3278 3249.02 25.947 3249.02 26.3275 3249.4L27.2798 3250.36Z" fill="white"/>
<path d="M29.6937 3247.94L30.3565 3247.28L29.4042 3246.33C29.2199 3246.14 29.1184 3245.9 29.1184 3245.64C29.1184 3245.38 29.2199 3245.13 29.4042 3244.95L28.7414 3244.28C28.38 3244.65 28.1809 3245.13 28.1809 3245.64C28.1809 3246.15 28.38 3246.63 28.7414 3246.99L29.6937 3247.94Z" fill="white"/>
<path d="M28.2232 3247.56L25.9227 3245.26L25.2599 3245.92L27.5605 3248.22L28.2232 3247.56Z" fill="white"/>
<path d="M25.014 3244.08H24.0766V3245.01H25.014V3244.08Z" fill="white"/>
<path d="M29.6491 3242H28.7117V3242.94H29.6491V3242Z" fill="white"/>
<path d="M32.3007 3244.65H31.3633V3245.59H32.3007V3244.65Z" fill="white"/>
<path d="M32.2344 3242.07H31.297V3243H32.2344V3242.07Z" fill="white"/>
<path d="M22.9376 3248.69H22.0001V3249.62H22.9376V3248.69Z" fill="white"/>
<path d="M25.5891 3251.34H24.6516V3252.28H25.5891V3251.34Z" fill="white"/>
<path d="M23.0037 3251.27H22.0663V3252.21H23.0037V3251.27Z" fill="white"/>
<path d="M36.1534 3253.18L33.1789 3256.15L31.9099 3255.55L35.5513 3251.91L36.1534 3253.18Z" fill="white"/>
<path d="M33.5197 3246L34.1825 3246.66L33.4221 3247.42L34.0898 3248.83L28.8302 3254.09L27.423 3253.42L26.6626 3254.18L25.9998 3253.52L33.5197 3246Z" fill="white"/>
<path d="M38 3257.07L37.0702 3258L34.0779 3256.58L36.58 3254.08L38 3257.07Z" fill="white"/>
<path d="M35.1246 3251.01L31.0108 3255.12L29.7293 3254.52L34.5165 3249.73L35.1246 3251.01Z" fill="white"/>
<rect x="24" y="3084" width="80" height="80" fill="white"/>
<rect x="24" y="3724" width="80" height="80" fill="white"/>
<rect x="24" y="3404" width="80" height="80" fill="white"/>
<rect x="24" y="3884" width="80" height="80" fill="white"/>
<rect x="24" y="3564" width="80" height="80" fill="white"/>
<rect x="24" y="4044" width="80" height="80" fill="white"/>
<rect x="24" y="4204" width="80" height="80" fill="white"/>
<rect x="24" y="4684" width="80" height="80" fill="white"/>
<rect x="24" y="4364" width="80" height="80" fill="white"/>
<rect x="24" y="4844" width="80" height="80" fill="white"/>
<rect x="24" y="4524" width="80" height="80" fill="white"/>
<rect x="24" y="5004" width="80" height="80" fill="white"/>
<rect x="24" y="5164" width="80" height="80" fill="white"/>
<defs>
<filter id="filter0_d" x="22" y="1170" width="76" height="76" filterUnits="userSpaceOnUse" color-interpolation-filters="sRGB">
<feFlood flood-opacity="0" result="BackgroundImageFix"/>
<feColorMatrix in="SourceAlpha" type="matrix" values="0 0 0 0 0 0 0 0 0 0 0 0 0 0 0 0 0 0 127 0"/>
<feOffset dx="-4" dy="4"/>
<feGaussianBlur stdDeviation="2"/>
<feColorMatrix type="matrix" values="0 0 0 0 0 0 0 0 0 0 0 0 0 0 0 0 0 0 0.75 0"/>
<feBlend mode="normal" in2="BackgroundImageFix" result="effect1_dropShadow"/>
<feBlend mode="normal" in="SourceGraphic" in2="effect1_dropShadow" result="shape"/>
</filter>
<filter id="filter1_d" x="15" y="1156" width="36" height="36" filterUnits="userSpaceOnUse" color-interpolation-filters="sRGB">
<feFlood flood-opacity="0" result="BackgroundImageFix"/>
<feColorMatrix in="SourceAlpha" type="matrix" values="0 0 0 0 0 0 0 0 0 0 0 0 0 0 0 0 0 0 127 0"/>
<feOffset dx="3" dy="4"/>
<feGaussianBlur stdDeviation="2"/>
<feColorMatrix type="matrix" values="0 0 0 0 0 0 0 0 0 0 0 0 0 0 0 0 0 0 0.25 0"/>
<feBlend mode="normal" in2="BackgroundImageFix" result="effect1_dropShadow"/>
<feBlend mode="normal" in="SourceGraphic" in2="effect1_dropShadow" result="shape"/>
</filter>
<filter id="filter2_d" x="22" y="3250" width="76" height="76" filterUnits="userSpaceOnUse" color-interpolation-filters="sRGB">
<feFlood flood-opacity="0" result="BackgroundImageFix"/>
<feColorMatrix in="SourceAlpha" type="matrix" values="0 0 0 0 0 0 0 0 0 0 0 0 0 0 0 0 0 0 127 0"/>
<feOffset dx="-4" dy="4"/>
<feGaussianBlur stdDeviation="2"/>
<feColorMatrix type="matrix" values="0 0 0 0 0 0 0 0 0 0 0 0 0 0 0 0 0 0 0.75 0"/>
<feBlend mode="normal" in2="BackgroundImageFix" result="effect1_dropShadow"/>
<feBlend mode="normal" in="SourceGraphic" in2="effect1_dropShadow" result="shape"/>
</filter>
<filter id="filter3_d" x="15" y="3236" width="36" height="36" filterUnits="userSpaceOnUse" color-interpolation-filters="sRGB">
<feFlood flood-opacity="0" result="BackgroundImageFix"/>
<feColorMatrix in="SourceAlpha" type="matrix" values="0 0 0 0 0 0 0 0 0 0 0 0 0 0 0 0 0 0 127 0"/>
<feOffset dx="3" dy="4"/>
<feGaussianBlur stdDeviation="2"/>
<feColorMatrix type="matrix" values="0 0 0 0 0 0 0 0 0 0 0 0 0 0 0 0 0 0 0.25 0"/>
<feBlend mode="normal" in2="BackgroundImageFix" result="effect1_dropShadow"/>
<feBlend mode="normal" in="SourceGraphic" in2="effect1_dropShadow" result="shape"/>
</filter>
</defs>
</svg>
