<svg width="128" height="5239" viewBox="0 0 128 5239" fill="none" xmlns="http://www.w3.org/2000/svg">
<rect width="128" height="5239" fill="#282828"/>
<rect x="24" y="44" width="80" height="80" fill="white"/>
<rect x="24" y="1484" width="80" height="80" fill="white"/>
<rect x="24" y="1964" width="80" height="80" fill="white"/>
<rect x="24" y="1004" width="80" height="80" fill="white"/>
<rect x="24" y="2444" width="80" height="80" fill="white"/>
<rect x="24" y="3084" width="80" height="80" fill="white"/>
<rect x="24" y="204" width="80" height="80" fill="white"/>
<rect x="24" y="1644" width="80" height="80" fill="white"/>
<rect x="24" y="684" width="80" height="80" fill="white"/>
<rect x="24" y="2124" width="80" height="80" fill="white"/>
<rect x="24" y="1164" width="80" height="80" fill="white"/>
<rect x="24" y="2604" width="80" height="80" fill="white"/>
<rect x="24" y="3244" width="80" height="80" fill="white"/>
<rect x="24" y="3724" width="80" height="80" fill="white"/>
<rect x="24" y="4204" width="80" height="80" fill="white"/>
<rect x="24" y="4684" width="80" height="80" fill="white"/>
<rect x="24" y="524" width="80" height="80" fill="white"/>
<rect x="24" y="1804" width="80" height="80" fill="white"/>
<rect x="24" y="844" width="80" height="80" fill="white"/>
<rect x="24" y="1324" width="80" height="80" fill="white"/>
<rect x="24" y="2764" width="80" height="80" fill="white"/>
<rect x="24" y="3404" width="80" height="80" fill="white"/>
<rect x="24" y="3884" width="80" height="80" fill="white"/>
<rect x="24" y="4364" width="80" height="80" fill="white"/>
<rect x="24" y="4844" width="80" height="80" fill="white"/>
<rect x="24" y="2924" width="80" height="80" fill="white"/>
<rect x="24" y="3564" width="80" height="80" fill="white"/>
<rect x="24" y="4044" width="80" height="80" fill="white"/>
<rect x="24" y="4524" width="80" height="80" fill="white"/>
<rect x="24" y="5004" width="80" height="80" fill="white"/>
<rect x="24" y="5164" width="80" height="80" fill="white"/>
<g filter="url(#filter0_d)">
<rect x="30" y="370" width="68" height="68" fill="#FF0000"/>
</g>
<path d="M81 404L55.5 418.722L55.5 389.278L81 404Z" fill="white"/>
<g filter="url(#filter1_d)">
<circle cx="98" cy="370" r="14" fill="#0087D3"/>
</g>
<path d="M100.72 370.356L100.057 369.693L101.01 368.741C101.756 367.995 102.969 367.995 103.715 368.741L103.053 369.403C102.672 369.023 102.053 369.023 101.672 369.403L100.72 370.356Z" fill="white"/>
<path d="M98.3064 367.942L97.6436 367.279L98.5959 366.327C98.7802 366.143 98.8817 365.897 98.8817 365.637C98.8817 365.376 98.7802 365.131 98.5959 364.947L99.2587 364.284C99.6201 364.645 99.8191 365.126 99.8191 365.637C99.8191 366.148 99.6201 366.628 99.2587 366.99L98.3064 367.942Z" fill="white"/>
<path d="M99.7769 367.559L102.077 365.258L102.74 365.921L100.44 368.221L99.7769 367.559Z" fill="white"/>
<path d="M102.986 364.076H103.923V365.013H102.986V364.076Z" fill="white"/>
<path d="M98.3508 362H99.2882V362.937H98.3508V362Z" fill="white"/>
<path d="M95.6992 364.652H96.6366V365.589H95.6992V364.652Z" fill="white"/>
<path d="M95.7656 362.066H96.703V363.004H95.7656V362.066Z" fill="white"/>
<path d="M105.062 368.686H106V369.623H105.062V368.686Z" fill="white"/>
<path d="M102.411 371.338H103.348V372.275H102.411V371.338Z" fill="white"/>
<path d="M104.996 371.271H105.934V372.209H104.996V371.271Z" fill="white"/>
<path d="M91.8466 373.178L94.8211 376.153L96.0901 375.55L92.4487 371.909L91.8466 373.178Z" fill="white"/>
<path d="M94.4803 365.999L93.8175 366.662L94.5779 367.422L93.9102 368.829L99.1698 374.089L100.577 373.421L101.337 374.182L102 373.519L94.4803 365.999Z" fill="white"/>
<path d="M90 377.069L90.9298 377.999L93.9221 376.579L91.42 374.077L90 377.069Z" fill="white"/>
<path d="M92.8754 371.01L96.9892 375.124L98.2707 374.516L93.4835 369.728L92.8754 371.01Z" fill="white"/>
<g filter="url(#filter2_d)">
<rect x="30" y="2290" width="68" height="68" fill="#0066FF"/>
</g>
<path d="M81 2324L55.5 2338.72L55.5 2309.28L81 2324Z" fill="white"/>
<g filter="url(#filter3_d)">
<circle cx="98" cy="2290" r="14" fill="#0087D3"/>
</g>
<path d="M100.72 2290.36L100.057 2289.69L101.01 2288.74C101.756 2287.99 102.969 2287.99 103.715 2288.74L103.053 2289.4C102.672 2289.02 102.053 2289.02 101.672 2289.4L100.72 2290.36Z" fill="white"/>
<path d="M98.3064 2287.94L97.6436 2287.28L98.5959 2286.33C98.7802 2286.14 98.8817 2285.9 98.8817 2285.64C98.8817 2285.38 98.7802 2285.13 98.5959 2284.95L99.2587 2284.28C99.6201 2284.65 99.8191 2285.13 99.8191 2285.64C99.8191 2286.15 99.6201 2286.63 99.2587 2286.99L98.3064 2287.94Z" fill="white"/>
<path d="M99.7769 2287.56L102.077 2285.26L102.74 2285.92L100.44 2288.22L99.7769 2287.56Z" fill="white"/>
<path d="M102.986 2284.08H103.923V2285.01H102.986V2284.08Z" fill="white"/>
<path d="M98.3508 2282H99.2882V2282.94H98.3508V2282Z" fill="white"/>
<path d="M95.6992 2284.65H96.6366V2285.59H95.6992V2284.65Z" fill="white"/>
<path d="M95.7656 2282.07H96.703V2283H95.7656V2282.07Z" fill="white"/>
<path d="M105.062 2288.69H106V2289.62H105.062V2288.69Z" fill="white"/>
<path d="M102.411 2291.34H103.348V2292.28H102.411V2291.34Z" fill="white"/>
<path d="M104.996 2291.27H105.934V2292.21H104.996V2291.27Z" fill="white"/>
<path d="M91.8466 2293.18L94.8211 2296.15L96.0901 2295.55L92.4487 2291.91L91.8466 2293.18Z" fill="white"/>
<path d="M94.4803 2286L93.8175 2286.66L94.5779 2287.42L93.9102 2288.83L99.1698 2294.09L100.577 2293.42L101.337 2294.18L102 2293.52L94.4803 2286Z" fill="white"/>
<path d="M90 2297.07L90.9298 2298L93.9221 2296.58L91.42 2294.08L90 2297.07Z" fill="white"/>
<path d="M92.8754 2291.01L96.9892 2295.12L98.2707 2294.52L93.4835 2289.73L92.8754 2291.01Z" fill="white"/>
<defs>
<filter id="filter0_d" x="30" y="370" width="76" height="76" filterUnits="userSpaceOnUse" color-interpolation-filters="sRGB">
<feFlood flood-opacity="0" result="BackgroundImageFix"/>
<feColorMatrix in="SourceAlpha" type="matrix" values="0 0 0 0 0 0 0 0 0 0 0 0 0 0 0 0 0 0 127 0"/>
<feOffset dx="4" dy="4"/>
<feGaussianBlur stdDeviation="2"/>
<feColorMatrix type="matrix" values="0 0 0 0 0 0 0 0 0 0 0 0 0 0 0 0 0 0 0.75 0"/>
<feBlend mode="normal" in2="BackgroundImageFix" result="effect1_dropShadow"/>
<feBlend mode="normal" in="SourceGraphic" in2="effect1_dropShadow" result="shape"/>
</filter>
<filter id="filter1_d" x="77" y="356" width="36" height="36" filterUnits="userSpaceOnUse" color-interpolation-filters="sRGB">
<feFlood flood-opacity="0" result="BackgroundImageFix"/>
<feColorMatrix in="SourceAlpha" type="matrix" values="0 0 0 0 0 0 0 0 0 0 0 0 0 0 0 0 0 0 127 0"/>
<feOffset dx="-3" dy="4"/>
<feGaussianBlur stdDeviation="2"/>
<feColorMatrix type="matrix" values="0 0 0 0 0 0 0 0 0 0 0 0 0 0 0 0 0 0 0.25 0"/>
<feBlend mode="normal" in2="BackgroundImageFix" result="effect1_dropShadow"/>
<feBlend mode="normal" in="SourceGraphic" in2="effect1_dropShadow" result="shape"/>
</filter>
<filter id="filter2_d" x="30" y="2290" width="76" height="76" filterUnits="userSpaceOnUse" color-interpolation-filters="sRGB">
<feFlood flood-opacity="0" result="BackgroundImageFix"/>
<feColorMatrix in="SourceAlpha" type="matrix" values="0 0 0 0 0 0 0 0 0 0 0 0 0 0 0 0 0 0 127 0"/>
<feOffset dx="4" dy="4"/>
<feGaussianBlur stdDeviation="2"/>
<feColorMatrix type="matrix" values="0 0 0 0 0 0 0 0 0 0 0 0 0 0 0 0 0 0 0.75 0"/>
<feBlend mode="normal" in2="BackgroundImageFix" result="effect1_dropShadow"/>
<feBlend mode="normal" in="SourceGraphic" in2="effect1_dropShadow" result="shape"/>
</filter>
<filter id="filter3_d" x="77" y="2276" width="36" height="36" filterUnits="userSpaceOnUse" color-interpolation-filters="sRGB">
<feFlood flood-opacity="0" result="BackgroundImageFix"/>
<feColorMatrix in="SourceAlpha" type="matrix" values="0 0 0 0 0 0 0 0 0 0 0 0 0 0 0 0 0 0 127 0"/>
<feOffset dx="-3" dy="4"/>
<feGaussianBlur stdDeviation="2"/>
<feColorMatrix type="matrix" values="0 0 0 0 0 0 0 0 0 0 0 0 0 0 0 0 0 0 0.25 0"/>
<feBlend mode="normal" in2="BackgroundImageFix" result="effect1_dropShadow"/>
<feBlend mode="normal" in="SourceGraphic" in2="effect1_dropShadow" result="shape"/>
</filter>
</defs>
</svg>
