<svg width="55" height="24" viewBox="0 0 55 24" fill="none" xmlns="http://www.w3.org/2000/svg">
<path d="M54.2568 9.43158L50.6361 23.2433H42.6352L46.0871 10.3559C46.6471 8.25023 46.6471 6.6815 46.0871 5.79933C45.9289 5.54739 45.7086 5.34031 45.4473 5.19793C45.1861 5.05555 44.8926 4.98264 44.5951 4.98619H44.5376C40.7558 4.98619 39.513 9.97239 39.513 10.0146L35.9997 23.2433H29.7593H29.7938C30.823 22.7152 31.7349 21.9846 32.4748 21.0954C33.6255 19.7415 34.7762 17.4287 33.963 14.1033C33.917 13.8885 33.6178 12.78 32.1948 11.5718C32.0577 11.4554 31.9143 11.3465 31.7653 11.2458C31.6464 11.1652 31.5198 11.0885 31.3817 11.0157L31.4201 10.8315L32.0759 8.11215H36.0611L36.1531 7.67107C36.1531 7.67107 36.1531 7.60587 36.1876 7.51381C36.1888 7.49337 36.1888 7.47288 36.1876 7.45244C36.1876 7.42943 36.1876 7.40258 36.1876 7.37573C36.1876 7.34888 36.1876 7.30669 36.1876 7.26834V7.16478C36.1876 7.13793 36.1876 7.10725 36.1876 7.07656C36.1876 7.04588 36.1876 7.07656 36.1876 7.07656C36.1876 7.07656 36.1876 7.03053 36.1876 7.00369C36.2312 6.53622 36.2222 6.06534 36.1608 5.59988C36.0993 5.09772 35.9703 4.60617 35.7772 4.13854C35.7274 4.0158 35.6698 3.89307 35.6046 3.75499L35.5739 3.69362C35.5509 3.65143 35.5279 3.59773 35.5049 3.55554C35.3274 3.23705 35.1288 2.9308 34.9104 2.63885C34.8567 2.63885 34.803 2.53529 34.7455 2.47392C34.521 2.24994 34.2785 2.0447 34.0206 1.86023C33.9055 1.77202 33.7712 1.69914 33.637 1.6186L33.8901 0.598343L41.6648 0.671219L40.8747 3.94293C42.2055 2.49436 43.864 1.38564 45.7113 0.709574C46.6772 0.338942 47.6886 0.100266 48.7183 0V0C51.1347 0 52.8492 0.816969 53.8196 2.40104C55.5034 5.13962 54.322 9.18227 54.2453 9.43542" fill="#165FA9"/>
<path d="M35.5434 7.5023L35.4897 7.70558H28.6356L28.6663 7.38723C28.7916 6.63827 28.6255 5.86973 28.2022 5.23933C27.9903 4.99372 27.7284 4.79618 27.4341 4.65992C27.1397 4.52366 26.8197 4.45182 26.4953 4.44921H26.4723C25.4214 4.44921 24.6811 4.72537 24.2707 5.26618C24.028 5.59906 23.9075 6.00544 23.9294 6.41684V6.48204C23.845 7.6327 26.2307 9.30883 29.9742 10.797C30.4291 10.9688 30.8639 11.1901 31.2706 11.4567C31.413 11.5513 31.55 11.6537 31.681 11.7636C33.058 12.9142 33.3226 13.992 33.3533 14.1301C34.1511 17.3251 33.0196 19.542 31.9303 20.8384C31.2215 21.6863 30.3504 22.384 29.3682 22.8905C29.2416 22.9403 29.1112 22.9902 28.9846 23.0362C27.0661 23.6955 25.0488 24.0211 23.0204 23.9989C21.4698 24.0115 19.9237 23.8311 18.4177 23.462C17.7115 23.3182 17.0379 23.0452 16.4309 22.6565C17.5816 21.8894 19.6413 20.0713 19.9634 17.0336C19.9634 16.9109 19.9864 16.7881 19.9941 16.65H21.2368L21.1831 17.0068C21.0475 17.6392 21.1558 18.2994 21.4861 18.8555C21.9493 19.4762 22.6382 19.8896 23.4039 20.0061C23.5909 20.0305 23.7792 20.0433 23.9677 20.0445C26.5529 20.0445 26.6526 17.3865 26.6526 17.2714C26.6429 16.8891 26.5369 16.5154 26.3445 16.1849C26.1521 15.8544 25.8795 15.5777 25.5518 15.3805L21.6204 13.3668C21.4286 13.2671 21.21 13.1674 20.9415 13.0485C17.8232 11.6869 17.0714 9.32417 16.8835 8.05461H21.793L21.9042 7.61736C22.057 6.91155 22.0817 6.18401 21.9771 5.46946C21.7816 4.05892 21.0373 2.78254 19.9059 1.91776C22.3606 0.479433 25.5518 0.383545 26.4723 0.383545H26.6795C29.6788 0.383545 31.9763 0.947368 33.5029 2.06351C34.0783 2.47146 34.5629 2.99431 34.926 3.59904C35.2891 4.20376 35.5228 4.87722 35.6124 5.57686C35.7051 6.2229 35.6804 6.88037 35.5395 7.51764" fill="#165FA9"/>
<path d="M35.5434 7.5023L35.4897 7.70558H28.6356L28.6663 7.38723C28.7916 6.63827 28.6255 5.86973 28.2022 5.23933C27.9903 4.99372 27.7284 4.79618 27.4341 4.65992C27.1397 4.52366 26.8197 4.45182 26.4953 4.44921H26.4723C25.4214 4.44921 24.6811 4.72537 24.2707 5.26618C24.028 5.59906 23.9075 6.00544 23.9294 6.41684V6.48204C23.845 7.6327 26.2307 9.30883 29.9742 10.797C30.4291 10.9688 30.8639 11.1901 31.2706 11.4567C31.413 11.5513 31.55 11.6537 31.681 11.7636C33.058 12.9142 33.3226 13.992 33.3533 14.1301C34.1511 17.3251 33.0196 19.542 31.9303 20.8384C31.2215 21.6863 30.3504 22.384 29.3682 22.8905C29.2416 22.9403 29.1112 22.9902 28.9846 23.0362C27.0661 23.6955 25.0488 24.0211 23.0204 23.9989C21.4698 24.0115 19.9237 23.8311 18.4177 23.462C17.7115 23.3182 17.0379 23.0452 16.4309 22.6565C17.5816 21.8894 19.6413 20.0713 19.9634 17.0336C19.9634 16.9109 19.9864 16.7881 19.9941 16.65H21.2368L21.1831 17.0068C21.0475 17.6392 21.1558 18.2994 21.4861 18.8555C21.9493 19.4762 22.6382 19.8896 23.4039 20.0061C23.5909 20.0305 23.7792 20.0433 23.9677 20.0445C26.5529 20.0445 26.6526 17.3865 26.6526 17.2714C26.6429 16.8891 26.5369 16.5154 26.3445 16.1849C26.1521 15.8544 25.8795 15.5777 25.5518 15.3805L21.6204 13.3668C21.4286 13.2671 21.21 13.1674 20.9415 13.0485C17.8232 11.6869 17.0714 9.32417 16.8835 8.05461H21.793L21.9042 7.61736C22.057 6.91155 22.0817 6.18401 21.9771 5.46946C21.7816 4.05892 21.0373 2.78254 19.9059 1.91776C22.3606 0.479433 25.5518 0.383545 26.4723 0.383545H26.6795C29.6788 0.383545 31.9763 0.947368 33.5029 2.06351C34.0783 2.47146 34.5629 2.99431 34.926 3.59904C35.2891 4.20376 35.5228 4.87722 35.6124 5.57686C35.7051 6.2229 35.6804 6.88037 35.5395 7.51764" fill="#165FA9"/>
<path d="M8.88637 23.9299C7.33562 23.942 5.78943 23.7603 4.28373 23.389C3.57413 23.2669 2.89892 22.9941 2.30349 22.5893C1.70807 22.1844 1.20624 21.6567 0.831749 21.0417C0.132903 19.753 -0.13587 18.2748 0.0646425 16.8226L0.102998 16.581H7.08367L7.02997 16.9338C6.89285 17.5709 7.00397 18.2362 7.34065 18.7941C7.80463 19.4139 8.49318 19.827 9.25842 19.9447C9.44536 19.9694 9.63368 19.9823 9.82224 19.9831C12.4074 19.9831 12.5071 17.3212 12.5071 17.21C12.4974 16.8277 12.3914 16.454 12.199 16.1235C12.0066 15.793 11.734 15.5163 11.4063 15.3191L7.41736 13.2594C7.24476 13.1673 7.07216 13.0906 6.90724 13.0178C4.54071 12.0128 3.52813 10.4403 3.10239 9.29729C2.81258 8.56612 2.68183 7.78161 2.71883 6.99597C2.74185 4.31493 4.2262 2.30127 7.06833 1.21582C8.76317 0.60893 10.5496 0.297563 12.3499 0.295288H12.557C15.4681 0.295288 17.7158 0.828427 19.2423 1.87553C19.8482 2.27668 20.3616 2.80228 20.7485 3.41733C21.1354 4.03238 21.3868 4.72278 21.4861 5.44258C21.5863 6.10581 21.5642 6.78179 21.4209 7.43705L21.3672 7.64801H14.5093L14.5399 7.32199C14.6649 6.57059 14.499 5.7998 14.0758 5.16642C13.863 4.92195 13.601 4.72519 13.3068 4.58903C13.0127 4.45287 12.6931 4.38037 12.369 4.3763H12.3422C11.2989 4.3763 10.5587 4.64862 10.1483 5.18559C9.90095 5.51636 9.77867 5.92397 9.80306 6.33626V6.39762C9.71868 7.54828 12.1044 9.22825 15.8479 10.7164C16.4669 10.9408 17.0438 11.2676 17.5547 11.683C18.9316 12.8336 19.1963 13.9114 19.2231 14.0457C19.4688 14.9861 19.5467 15.9625 19.4533 16.93C19.1157 20.1327 16.7415 21.9162 15.7366 22.5299C15.5753 22.6305 15.4089 22.7227 15.238 22.806C13.2127 23.5658 11.0647 23.9455 8.90171 23.926" fill="#165FA9"/>
</svg>
