<svg width="116" height="139" viewBox="0 0 116 139" fill="none" xmlns="http://www.w3.org/2000/svg">
<path d="M58 7C71.526 7 84.4981 12.3732 94.0624 21.9376C103.627 31.5019 109 44.474 109 58V131.5H7V58C7 44.474 12.3732 31.5019 21.9376 21.9376C31.5019 12.3732 44.474 7 58 7Z" fill="#562019"/>
<path d="M111 133.49H5V58C5 43.9435 10.5839 30.4628 20.5233 20.5233C30.4628 10.5839 43.9435 5 58 5C72.0565 5 85.5372 10.5839 95.4767 20.5233C105.416 30.4628 111 43.9435 111 58V133.49ZM9 129.49H107V58C107 45.0044 101.838 32.541 92.6482 23.3518C83.4589 14.1625 70.9956 9 58 9C45.0044 9 32.541 14.1625 23.3518 23.3518C14.1625 32.541 9 45.0044 9 58V129.49Z" fill="black"/>
<path d="M114 136.49H2V58C2 43.1479 7.89998 28.9041 18.402 18.402C28.9041 7.89998 43.1479 2 58 2C72.8521 2 87.0959 7.89998 97.598 18.402C108.1 28.9041 114 43.1479 114 58V136.49ZM12 126.49H104V58C104 45.8 99.1536 34.0998 90.5269 25.4731C81.9002 16.8464 70.2 12 58 12C45.8 12 34.0998 16.8464 25.4731 25.4731C16.8464 34.0998 12 45.8 12 58V126.49Z" fill="#DD354B"/>
<path d="M116 138.49H0V58C0 42.6174 6.1107 27.8649 16.9878 16.9878C27.8649 6.1107 42.6174 0 58 0C73.3826 0 88.1351 6.1107 99.0122 16.9878C109.889 27.8649 116 42.6174 116 58V138.49ZM4 134.49H112V58C112 43.6783 106.311 29.9432 96.1838 19.8162C86.0568 9.68927 72.3217 4 58 4C43.6783 4 29.9432 9.68927 19.8162 19.8162C9.68927 29.9432 4 43.6783 4 58V134.49ZM106 128.49H10V58C10 45.2696 15.0571 33.0606 24.0589 24.0589C33.0606 15.0571 45.2696 10 58 10C70.7304 10 82.9394 15.0571 91.9411 24.0589C100.943 33.0606 106 45.2696 106 58V128.49ZM14 124.49H102V58C102 46.3305 97.3643 35.1389 89.1127 26.8873C80.8611 18.6357 69.6695 14 58 14C46.3305 14 35.1389 18.6357 26.8873 26.8873C18.6357 35.1389 14 46.3305 14 58V124.49Z" fill="black"/>
</svg>
